999
dxflib 2.2.0.0
  0
SECTION
  2
HEADER
  9
$ACADVER
  1
AC1015
  9
$HANDSEED
  5
FFFF
  9
$SNAPSTYLE
 70
0
  9
$DIMLFAC
 40
1.0
  9
$SPLINESEGS
 70
8
  9
$DIMEXE
 40
1.25
  9
$PSVPSCALE
 40
1.0
  9
$LIMMAX
 10
420.0
 20
297.0
  9
$DIMSCALE
 40
1.0
  9
$DIMLUNIT
 70
2
  9
$INSBASE
 10
0.0
 20
0.0
 30
0.0
  9
$GRIDMODE
 70
1
  9
$INSUNITS
 70
4
  9
$DIMADEC
 70
0
  9
$DIMASZ
 40
2.5
  9
$DIMGAP
 40
0.625
  9
$DIMTXT
 40
2.5
  9
$TEXTSTYLE
  7
STANDARD
  9
$LIMMIN
 10
0.0
 20
0.0
  9
$DIMEXO
 40
0.625
  9
$LUPREC
 70
4
  9
$EXTMAX
 10
113.0
 20
40.0
 30
0.0
  9
$CLAYER
  8
Engraving
  9
$DIMTIH
 70
0
  9
$PINSBASE
 10
0.0
 20
0.0
 30
0.0
  9
$ORTHOMODE
 70
0
  9
$DIMAUNIT
 70
0
  9
$DWGCODEPAGE
  3
ANSI_1252
  9
$LTSCALE
 40
1.0
  9
$AUPREC
 70
2
  9
$PLIMMIN
 10
0.0
 20
0.0
  9
$LUNITS
 70
2
  9
$EXTMIN
 10
7.0
 20
7.0
 30
0.0
  9
$PLIMMAX
 10
210.0
 20
297.0
  9
$DIMTSZ
 40
0.0
  9
$DIMSTYLE
  2
STANDARD
  9
$AUNITS
 70
0
  0
ENDSEC
  0
SECTION
  2
TABLES
  0
TABLE
  2
VPORT
  5
8
100
AcDbSymbolTable
 70
1
  0
VPORT
  5
30
100
AcDbSymbolTableRecord
100
AcDbViewportTableRecord
  2
*Active
 70
0
 10
0.0
 20
0.0
 11
1.0
 21
1.0
 12
286.3055555555554861
 22
148.5
 13
0.0
 23
0.0
 14
10.0
 24
10.0
 15
10.0
 25
10.0
 16
0.0
 26
0.0
 36
1.0
 17
0.0
 27
0.0
 37
0.0
 40
297.0
 41
1.92798353909465
 42
50.0
 43
0.0
 44
0.0
 50
0.0
 51
0.0
 71
0
 72
100
 73
1
 74
3
 75
1
 76
1
 77
0
 78
0
281
0
 65
1
110
0.0
120
0.0
130
0.0
111
1.0
121
0.0
131
0.0
112
0.0
122
1.0
132
0.0
 79
0
146
0.0
  0
ENDTAB
  0
TABLE
  2
LTYPE
  5
5
100
AcDbSymbolTable
 70
21
  0
LTYPE
  5
14
100
AcDbSymbolTableRecord
100
AcDbLinetypeTableRecord
  2
ByBlock
 70
0
  3

 72
65
 73
0
 40
0.0
  0
LTYPE
  5
15
100
AcDbSymbolTableRecord
100
AcDbLinetypeTableRecord
  2
ByLayer
 70
0
  3

 72
65
 73
0
 40
0.0
  0
LTYPE
  5
16
100
AcDbSymbolTableRecord
100
AcDbLinetypeTableRecord
  2
CONTINUOUS
 70
0
  3
Solid line
 72
65
 73
0
 40
0.0
  0
LTYPE
  5
31
100
AcDbSymbolTableRecord
100
AcDbLinetypeTableRecord
  2
DOT
 70
0
  3
Dot . . . . . . . . . . . . . . . . . . . . . .
 72
65
 73
2
 40
6.3499999999999996
 49
0.0
 74
0
 49
-6.3499999999999996
 74
0
  0
LTYPE
  5
32
100
AcDbSymbolTableRecord
100
AcDbLinetypeTableRecord
  2
DOT2
 70
0
  3
Dot (.5x) .....................................
 72
65
 73
2
 40
3.1749999999999998
 49
0.0
 74
0
 49
-3.1749999999999998
 74
0
  0
LTYPE
  5
33
100
AcDbSymbolTableRecord
100
AcDbLinetypeTableRecord
  2
DOTX2
 70
0
  3
Dot (2x) .  .  .  .  .  .  .  .  .  .  .  .  .
 72
65
 73
2
 40
12.6999999999999993
 49
0.0
 74
0
 49
-12.6999999999999993
 74
0
  0
LTYPE
  5
34
100
AcDbSymbolTableRecord
100
AcDbLinetypeTableRecord
  2
DASHED
 70
0
  3
Dashed __ __ __ __ __ __ __ __ __ __ __ __ __ _
 72
65
 73
2
 40
19.0500000000000007
 49
12.6999999999999993
 74
0
 49
-6.3499999999999996
 74
0
  0
LTYPE
  5
35
100
AcDbSymbolTableRecord
100
AcDbLinetypeTableRecord
  2
DASHED2
 70
0
  3
Dashed (.5x) _ _ _ _ _ _ _ _ _ _ _ _ _ _ _ _ _
 72
65
 73
2
 40
9.5250000000000004
 49
6.3499999999999996
 74
0
 49
-3.1749999999999998
 74
0
  0
LTYPE
  5
36
100
AcDbSymbolTableRecord
100
AcDbLinetypeTableRecord
  2
DASHEDX2
 70
0
  3
Dashed (2x) ____  ____  ____  ____  ____  ___
 72
65
 73
2
 40
38.1000000000000014
 49
25.3999999999999986
 74
0
 49
-12.6999999999999993
 74
0
  0
LTYPE
  5
37
100
AcDbSymbolTableRecord
100
AcDbLinetypeTableRecord
  2
DASHDOT
 70
0
  3
Dash dot __ . __ . __ . __ . __ . __ . __ . __
 72
65
 73
4
 40
25.3999999999999986
 49
12.6999999999999993
 74
0
 49
-6.3499999999999996
 74
0
 49
0.0
 74
0
 49
-6.3499999999999996
 74
0
  0
LTYPE
  5
38
100
AcDbSymbolTableRecord
100
AcDbLinetypeTableRecord
  2
DASHDOT2
 70
0
  3
Dash dot (.5x) _._._._._._._._._._._._._._._.
 72
65
 73
4
 40
12.6999999999999993
 49
6.3499999999999996
 74
0
 49
-3.1749999999999998
 74
0
 49
0.0
 74
0
 49
-3.1749999999999998
 74
0
  0
LTYPE
  5
39
100
AcDbSymbolTableRecord
100
AcDbLinetypeTableRecord
  2
DASHDOTX2
 70
0
  3
Dash dot (2x) ____  .  ____  .  ____  .  ___
 72
65
 73
4
 40
50.7999999999999972
 49
25.3999999999999986
 74
0
 49
-12.6999999999999993
 74
0
 49
0.0
 74
0
 49
-12.6999999999999993
 74
0
  0
LTYPE
  5
3A
100
AcDbSymbolTableRecord
100
AcDbLinetypeTableRecord
  2
DIVIDE
 70
0
  3
Divide ____ . . ____ . . ____ . . ____ . . ____
 72
65
 73
6
 40
31.75
 49
12.6999999999999993
 74
0
 49
-6.3499999999999996
 74
0
 49
0.0
 74
0
 49
-6.3499999999999996
 74
0
 49
0.0
 74
0
 49
-6.3499999999999996
 74
0
  0
LTYPE
  5
3B
100
AcDbSymbolTableRecord
100
AcDbLinetypeTableRecord
  2
DIVIDE2
 70
0
  3
Divide (.5x) __..__..__..__..__..__..__..__.._
 72
65
 73
6
 40
15.875
 49
6.3499999999999996
 74
0
 49
-3.1749999999999998
 74
0
 49
0.0
 74
0
 49
-3.1749999999999998
 74
0
 49
0.0
 74
0
 49
-3.1749999999999998
 74
0
  0
LTYPE
  5
3C
100
AcDbSymbolTableRecord
100
AcDbLinetypeTableRecord
  2
DIVIDEX2
 70
0
  3
Divide (2x) ________  .  .  ________  .  .  _
 72
65
 73
6
 40
63.5
 49
25.3999999999999986
 74
0
 49
-12.6999999999999993
 74
0
 49
0.0
 74
0
 49
-12.6999999999999993
 74
0
 49
0.0
 74
0
 49
-12.6999999999999993
 74
0
  0
LTYPE
  5
3D
100
AcDbSymbolTableRecord
100
AcDbLinetypeTableRecord
  2
CENTER
 70
0
  3
Center ____ _ ____ _ ____ _ ____ _ ____ _ ____
 72
65
 73
4
 40
50.7999999999999972
 49
31.75
 74
0
 49
-6.3499999999999996
 74
0
 49
6.3499999999999996
 74
0
 49
-6.3499999999999996
 74
0
  0
LTYPE
  5
3E
100
AcDbSymbolTableRecord
100
AcDbLinetypeTableRecord
  2
CENTER2
 70
0
  3
Center (.5x) ___ _ ___ _ ___ _ ___ _ ___ _ ___
 72
65
 73
4
 40
28.5749999999999993
 49
19.0500000000000007
 74
0
 49
-3.1749999999999998
 74
0
 49
3.1749999999999998
 74
0
 49
-3.1749999999999998
 74
0
  0
LTYPE
  5
3F
100
AcDbSymbolTableRecord
100
AcDbLinetypeTableRecord
  2
CENTERX2
 70
0
  3
Center (2x) ________  __  ________  __  _____
 72
65
 73
4
 40
101.5999999999999943
 49
63.5
 74
0
 49
-12.6999999999999993
 74
0
 49
12.6999999999999993
 74
0
 49
-12.6999999999999993
 74
0
  0
LTYPE
  5
40
100
AcDbSymbolTableRecord
100
AcDbLinetypeTableRecord
  2
BORDER
 70
0
  3
Border __ __ . __ __ . __ __ . __ __ . __ __ .
 72
65
 73
6
 40
44.4500000000000028
 49
12.6999999999999993
 74
0
 49
-6.3499999999999996
 74
0
 49
12.6999999999999993
 74
0
 49
-6.3499999999999996
 74
0
 49
0.0
 74
0
 49
-6.3499999999999996
 74
0
  0
LTYPE
  5
41
100
AcDbSymbolTableRecord
100
AcDbLinetypeTableRecord
  2
BORDER2
 70
0
  3
Border (.5x) __.__.__.__.__.__.__.__.__.__.__.
 72
65
 73
6
 40
22.2250000000000014
 49
6.3499999999999996
 74
0
 49
-3.1749999999999998
 74
0
 49
6.3499999999999996
 74
0
 49
-3.1749999999999998
 74
0
 49
0.0
 74
0
 49
-3.1749999999999998
 74
0
  0
LTYPE
  5
42
100
AcDbSymbolTableRecord
100
AcDbLinetypeTableRecord
  2
BORDERX2
 70
0
  3
Border (2x) ____  ____  .  ____  ____  .  ___
 72
65
 73
6
 40
88.9000000000000057
 49
25.3999999999999986
 74
0
 49
-12.6999999999999993
 74
0
 49
25.3999999999999986
 74
0
 49
-12.6999999999999993
 74
0
 49
0.0
 74
0
 49
-12.6999999999999993
 74
0
  0
ENDTAB
  0
TABLE
  2
LAYER
  5
2
100
AcDbSymbolTable
 70
3
  0
LAYER
  5
10
100
AcDbSymbolTableRecord
100
AcDbLayerTableRecord
  2
0
 70
0
 62
7
  6
CONTINUOUS
370
0
390
F
  0
LAYER
  5
43
100
AcDbSymbolTableRecord
100
AcDbLayerTableRecord
  2
Panel
 70
0
 62
1
  6
CONTINUOUS
370
0
390
F
  0
LAYER
  5
44
100
AcDbSymbolTableRecord
100
AcDbLayerTableRecord
  2
Engraving
 70
0
 62
7
  6
CONTINUOUS
370
0
390
F
  0
ENDTAB
  0
TABLE
  2
STYLE
  5
3
100
AcDbSymbolTable
 70
1
  0
STYLE
  5
11
100
AcDbSymbolTableRecord
100
AcDbTextStyleTableRecord
  2
Standard
 70
0
 40
0.0
 41
0.75
 50
0.0
 71
0
 42
2.5
  3
txt
  4

  0
ENDTAB
  0
TABLE
  2
VIEW
  5
6
100
AcDbSymbolTable
 70
0
  0
ENDTAB
  0
TABLE
  2
UCS
  5
7
100
AcDbSymbolTable
 70
0
  0
ENDTAB
  0
TABLE
  2
APPID
  5
9
100
AcDbSymbolTable
 70
1
  0
APPID
  5
12
100
AcDbSymbolTableRecord
100
AcDbRegAppTableRecord
  2
ACAD
 70
0
  0
ENDTAB
  0
TABLE
  2
DIMSTYLE
  5
A
100
AcDbSymbolTable
 70
1
100
AcDbDimStyleTable
 71
0
  0
DIMSTYLE
105
27
100
AcDbSymbolTableRecord
100
AcDbDimStyleTableRecord
  2
Standard
 41
2.5
 42
0.625
 43
3.75
 44
1.25
 70
0
 73
0
 74
0
 77
1
 78
8
140
2.5
141
2.5
143
0.03937007874016
147
0.625
171
3
172
1
271
2
272
2
274
3
278
44
283
0
284
8
340
11
  0
ENDTAB
  0
TABLE
  2
BLOCK_RECORD
  5
1
100
AcDbSymbolTable
 70
1
  0
BLOCK_RECORD
  5
1F
100
AcDbSymbolTableRecord
100
AcDbBlockTableRecord
  2
*Model_Space
340
22
  0
BLOCK_RECORD
  5
1B
100
AcDbSymbolTableRecord
100
AcDbBlockTableRecord
  2
*Paper_Space
340
1E
  0
BLOCK_RECORD
  5
23
100
AcDbSymbolTableRecord
100
AcDbBlockTableRecord
  2
*Paper_Space0
340
26
  0
ENDTAB
  0
ENDSEC
  0
SECTION
  2
BLOCKS
  0
BLOCK
  5
20
100
AcDbEntity
  8
0
100
AcDbBlockBegin
  2
*Model_Space
 70
0
 10
0.0
 20
0.0
 30
0.0
  3
*Model_Space
  1

  0
ENDBLK
  5
21
100
AcDbEntity
  8
0
100
AcDbBlockEnd
  0
BLOCK
  5
1C
100
AcDbEntity
 67
1
  8
0
100
AcDbBlockBegin
  2
*Paper_Space
 70
0
 10
0.0
 20
0.0
 30
0.0
  3
*Paper_Space
  1

  0
ENDBLK
  5
1D
100
AcDbEntity
 67
1
  8
0
100
AcDbBlockEnd
  0
BLOCK
  5
24
100
AcDbEntity
  8
0
100
AcDbBlockBegin
  2
*Paper_Space0
 70
0
 10
0.0
 20
0.0
 30
0.0
  3
*Paper_Space0
  1

  0
ENDBLK
  5
25
100
AcDbEntity
  8
0
100
AcDbBlockEnd
  0
ENDSEC
  0
SECTION
  2
ENTITIES
  0
LINE
  5
45
100
AcDbEntity
100
AcDbLine
  8
Panel
 62
256
370
-1
  6
ByLayer
 10
10.0
 20
40.0
 30
0.0
 11
110.0
 21
40.0
 31
0.0
  0
LINE
  5
46
100
AcDbEntity
100
AcDbLine
  8
Panel
 62
256
370
-1
  6
ByLayer
 10
10.0
 20
7.0
 30
0.0
 11
110.0
 21
7.0
 31
0.0
  0
LINE
  5
47
100
AcDbEntity
100
AcDbLine
  8
Panel
 62
256
370
-1
  6
ByLayer
 10
110.0
 20
20.0
 30
0.0
 11
113.0
 21
20.0
 31
0.0
  0
LINE
  5
48
100
AcDbEntity
100
AcDbLine
  8
Panel
 62
256
370
-1
  6
ByLayer
 10
113.0
 20
20.0
 30
0.0
 11
113.0
 21
30.0
 31
0.0
  0
LINE
  5
49
100
AcDbEntity
100
AcDbLine
  8
Panel
 62
256
370
-1
  6
ByLayer
 10
113.0
 20
30.0
 30
0.0
 11
110.0
 21
30.0
 31
0.0
  0
LINE
  5
4A
100
AcDbEntity
100
AcDbLine
  8
Panel
 62
256
370
-1
  6
ByLayer
 10
10.0
 20
30.0
 30
0.0
 11
7.0
 21
30.0
 31
0.0
  0
LINE
  5
4B
100
AcDbEntity
100
AcDbLine
  8
Panel
 62
256
370
-1
  6
ByLayer
 10
7.0
 20
30.0
 30
0.0
 11
7.0
 21
20.0
 31
0.0
  0
LINE
  5
4C
100
AcDbEntity
100
AcDbLine
  8
Panel
 62
256
370
-1
  6
ByLayer
 10
7.0
 20
20.0
 30
0.0
 11
10.0
 21
20.0
 31
0.0
  0
LINE
  5
4D
100
AcDbEntity
100
AcDbLine
  8
Panel
 62
256
370
-1
  6
ByLayer
 10
110.0
 20
7.0
 30
0.0
 11
110.0
 21
20.0
 31
0.0
  0
LINE
  5
4E
100
AcDbEntity
100
AcDbLine
  8
Panel
 62
256
370
-1
  6
ByLayer
 10
110.0
 20
40.0
 30
0.0
 11
110.0
 21
30.0
 31
0.0
  0
LINE
  5
4F
100
AcDbEntity
100
AcDbLine
  8
Panel
 62
256
370
-1
  6
ByLayer
 10
10.0
 20
40.0
 30
0.0
 11
10.0
 21
30.0
 31
0.0
  0
LINE
  5
50
100
AcDbEntity
100
AcDbLine
  8
Panel
 62
256
370
-1
  6
ByLayer
 10
10.0
 20
7.0
 30
0.0
 11
10.0
 21
20.0
 31
0.0
  0
LWPOLYLINE
  5
51
  8
Engraving
 62
256
370
-1
  6
ByLayer
100
AcDbEntity
100
AcDbPolyline
 90
99
 70
1
 10
60.2300555556000035
 20
20.0168111111000009
 10
59.9411666666999992
 20
20.0673244444000005
 10
59.6603888889000018
 20
20.1514611111000015
 10
59.4007222222000024
 20
20.2692222221999998
 10
59.1590555555999984
 20
20.4206833333000013
 10
58.9256111110999967
 20
20.6058444443999988
 10
58.7077222221999975
 20
20.8246333332999995
 10
58.5062777778000012
 20
21.0770422221999993
 10
58.3278333332999992
 20
21.3512444443999989
 10
58.1678333333000026
 20
21.6354111111000016
 10
58.0332777778000022
 20
21.9293888889000002
 10
57.9293888889000002
 20
22.2333222222000018
 10
57.8399444443999968
 20
22.5472222221999985
 10
57.7799444444000017
 20
22.8709222222000008
 10
57.7443888888999979
 20
23.2045888888999983
 10
57.7331666667000007
 20
23.5481333333000009
 10
57.7443888888999979
 20
23.8976777777999985
 10
57.7799444444000017
 20
24.2364111111000007
 10
57.8399444443999968
 20
24.5644777778000005
 10
57.9262777778000029
 20
24.8818777777999998
 10
58.0308333333000022
 20
25.1886111110999984
 10
58.1625000000000014
 20
25.4846000000000004
 10
58.316055555600002
 20
25.7698555555999995
 10
58.495611111099997
 20
26.0445333332999986
 10
58.6970555556000022
 20
26.2969444444000011
 10
58.9088333333000023
 20
26.5157333332999983
 10
59.1372777778000014
 20
26.7008111110999984
 10
59.3801666666999992
 20
26.8522777778000012
 10
59.6382777777999991
 20
26.9701111110999996
 10
59.9050555556000006
 20
27.0542444443999983
 10
60.1896111110999996
 20
27.1046888889000002
 10
60.4947222221999965
 20
27.1215666667000015
 10
60.7967222222000032
 20
27.1075666666999986
 10
61.0862777777999995
 20
27.0656888888999987
 10
61.3644999999999996
 20
26.9959555555999984
 10
61.6195000000000022
 20
26.8981999999999992
 10
61.8676111110999969
 20
26.7725777777999987
 10
62.0955000000000013
 20
26.6190111111000007
 10
62.313166666699999
 20
26.4375777778000014
 10
62.5089444444000009
 20
26.2282111110999985
 10
62.6905000000000001
 20
25.9921444444000009
 10
62.8483888888999971
 20
25.7307111110999998
 10
62.9772777777999977
 20
25.4438222222000014
 10
63.0868333332999995
 20
25.1314777778000007
 10
63.1727222222000009
 20
24.7936888889000002
 10
63.2300555556000035
 20
24.4305222222000005
 10
63.266166666700002
 20
24.0419888889000006
 10
63.2779444443999992
 20
23.6279111111000013
 10
58.7792777777999973
 20
23.6279111111000013
 10
58.7792777777999973
 20
23.5356111110999997
 10
58.7905000000000015
 20
23.2404666667000015
 10
58.8153888889000029
 20
22.9640111110999996
 10
58.8589444444000023
 20
22.7061444443999996
 10
58.9137222222000005
 20
22.4668888889000016
 10
58.9885000000000019
 20
22.2463222221999999
 10
59.0793888888999987
 20
22.0444222222000015
 10
59.1889444444000006
 20
21.8610444444000009
 10
59.3134999999999977
 20
21.6964333332999999
 10
59.4504999999999981
 20
21.5507333332999984
 10
59.5887222221999977
 20
21.4244888889000009
 10
59.7369444444000024
 20
21.3176999999999985
 10
59.8888333332999991
 20
21.2302888888999988
 10
60.0432777778000002
 20
21.1623444443999986
 10
60.1989444443999986
 20
21.1137777777999993
 10
60.3646111110999968
 20
21.0846699999999991
 10
60.5327222222000003
 20
21.0749411110999993
 10
60.6946111111000022
 20
21.0791444444000007
 10
60.8496111111000033
 20
21.0917533333000016
 10
60.9990555556000018
 20
21.1126888888999993
 10
61.1379444443999986
 20
21.1421111111000002
 10
61.2730555556000027
 20
21.1799333332999993
 10
61.399388888899999
 20
21.2260888889000015
 10
61.5158333333000016
 20
21.2806444444
 10
61.6248333333000033
 20
21.3436999999999983
 10
61.7276111111000034
 20
21.4189555556000002
 10
61.8271666667000019
 20
21.5104888888999994
 10
61.9147222221999982
 20
21.6181333333000012
 10
61.994944444399998
 20
21.7420444444000012
 10
62.0681666667000016
 20
21.8821444444000015
 10
62.1381666667000019
 20
22.0384999999999991
 10
62.1977222221999995
 20
22.2109777778000002
 10
62.2568333333000012
 20
22.3997222222000012
 10
63.3592777778000027
 20
22.3997222222000012
 10
63.315944444400003
 20
22.1374333332999988
 10
63.2530555555999996
 20
21.8880555556000012
 10
63.1727222222000009
 20
21.6515222222000006
 10
63.0731666666999971
 20
21.4279111110999985
 10
62.9520555555999977
 20
21.2172222222000002
 10
62.8202777778000012
 20
21.0193688889000008
 10
62.6659444443999973
 20
20.8344377778000016
 10
62.4902777778000029
 20
20.66235
 10
62.3022777778000005
 20
20.5071555556000007
 10
62.093055555600003
 20
20.3725833332999997
 10
61.8726111110999994
 20
20.2587144443999989
 10
61.6385000000000005
 20
20.1655488888999983
 10
61.3857222222000019
 20
20.0931655555999988
 10
61.1154999999999973
 20
20.0414066666999986
 10
60.8352777778000018
 20
20.0103511111000003
 10
60.5327222222000003
 20
20.0
  0
LWPOLYLINE
  5
52
  8
Engraving
 62
256
370
-1
  6
ByLayer
100
AcDbEntity
100
AcDbPolyline
 90
33
 70
1
 10
62.1073888888999974
 20
24.7337555555999984
 10
62.0656111110999973
 20
24.8902000000000001
 10
62.0139444444000034
 20
25.0380000000000003
 10
61.9498333332999991
 20
25.1771666666999998
 10
61.8813888888999983
 20
25.3075333333000003
 10
61.8041666666999987
 20
25.4292666666999985
 10
61.7166111111000006
 20
25.542277777799999
 10
61.6195000000000022
 20
25.6466555555999989
 10
61.5158333333000016
 20
25.7403666667000017
 10
61.4019444444000015
 20
25.8216222221999985
 10
61.2811666667000026
 20
25.8903444444000002
 10
61.1491666666999976
 20
25.9466222221999985
 10
61.0121666666999971
 20
25.9903555556000008
 10
60.8601666667000032
 20
26.0215666667000001
 10
60.7008333332999968
 20
26.0403333333000013
 10
60.5351666667000003
 20
26.0466333333000009
 10
60.3646111110999968
 20
26.0393222221999991
 10
60.2101666666999975
 20
26.0174444443999988
 10
60.0650555555999972
 20
25.9810222222
 10
59.9237222221999986
 20
25.9300444444
 10
59.7892777778000024
 20
25.8645111111000006
 10
59.6709444443999999
 20
25.7844111110999989
 10
59.5613888888999981
 20
25.6897666666999989
 10
59.452722222200002
 20
25.5804888888999997
 10
59.3617222222000009
 20
25.462733333300001
 10
59.2749444443999991
 20
25.3424777777999992
 10
59.1973888889000008
 20
25.2197444443999998
 10
59.1229444443999981
 20
25.0944333332999996
 10
59.0629444444000029
 20
24.9667111111000004
 10
59.0096111110999999
 20
24.8365000000000009
 10
58.9657222222000001
 20
24.7037888889000001
 10
58.9256111110999967
 20
24.5685222221999986
 10
62.1426111111000026
 20
24.5685222221999986
  0
LWPOLYLINE
  5
53
  8
Engraving
 62
256
370
-1
  6
ByLayer
100
AcDbEntity
100
AcDbPolyline
 90
6
 70
1
 10
54.400500000000001
 20
21.2092777778000006
 10
54.400500000000001
 20
20.0
 10
48.5828333333000018
 20
20.0
 10
48.5828333333000018
 20
30.0272777777999984
 10
49.5647222221999968
 20
30.0272777777999984
 10
49.5647222221999968
 20
21.2092777778000006
  0
LWPOLYLINE
  5
54
  8
Engraving
 62
256
370
-1
  6
ByLayer
100
AcDbEntity
100
AcDbPolyline
 90
64
 70
1
 10
70.4246111111000062
 20
24.787700000000001
 10
70.4109444444000019
 20
24.9802444444000002
 10
70.3859444443999962
 20
25.1545222222000007
 10
70.3517222221999958
 20
25.3104111110999987
 10
70.3088333333000008
 20
25.4481777778000016
 10
70.2583888889000008
 20
25.5675777778000004
 10
70.1941666666999993
 20
25.6687555556000007
 10
70.1219444444000004
 20
25.7516444444000001
 10
70.0400555556000057
 20
25.8207666666999991
 10
69.9470555556000022
 20
25.8807000000000009
 10
69.8442777778000021
 20
25.9313555555999997
 10
69.7335000000000065
 20
25.9728444443999997
 10
69.6151666667000057
 20
26.0051444443999991
 10
69.4831666667000007
 20
26.0281888889000008
 10
69.3461666667000003
 20
26.0419666666999987
 10
69.2005000000000052
 20
26.0466333333000009
 10
69.0441666666999936
 20
26.037677777799999
 10
68.8953888889000012
 20
26.0109111111000004
 10
68.7542777777999987
 20
25.9663111111000013
 10
68.6189444444000003
 20
25.9038111111000013
 10
68.4980555556000041
 20
25.8235666666999997
 10
68.3748333333000033
 20
25.725344444400001
 10
68.2664999999999935
 20
25.6093666667000015
 10
68.1568333332999998
 20
25.4755000000000003
 10
68.060722222199999
 20
25.327933333299999
 10
67.9776111111000034
 20
25.170711111100001
 10
67.8984999999999985
 20
25.0038333333000011
 10
67.831833333299997
 20
24.8273111110999984
 10
67.7801666666999978
 20
24.6411333333000009
 10
67.7335000000000065
 20
24.4453111111000005
 10
67.7023888889000034
 20
24.2398333332999982
 10
67.6771666667000034
 20
24.0247888889000016
 10
67.6771666667000034
 20
19.9705800000000018
 10
66.6923888888999983
 20
19.9705800000000018
 10
66.6923888888999983
 20
27.1488111110999988
 10
67.6771666667000034
 20
27.1488111110999988
 10
67.6771666667000034
 20
26.086477777799999
 10
67.8798333332999988
 20
26.3290888888999994
 10
68.081833333299997
 20
26.5393111111000017
 10
68.2938333333000003
 20
26.7172333333000012
 10
68.5068333332999941
 20
26.8627777778000016
 10
68.7235000000000014
 20
26.9760333332999984
 10
68.9505000000000052
 20
27.0568999999999988
 10
69.1780555555999968
 20
27.1053777778000011
 10
69.4121666667000028
 20
27.1215666667000015
 10
69.5989444444000043
 20
27.1130888888999984
 10
69.7807222221999979
 20
27.0875555556000016
 10
69.9600555555999932
 20
27.0450666666999986
 10
70.1357222222000019
 20
26.9856000000000016
 10
70.3088333333000008
 20
26.9091666666999991
 10
70.4743888888999948
 20
26.8156888888999987
 10
70.6362777778000037
 20
26.7052444444000017
 10
70.790722222200003
 20
26.5777555555999996
 10
70.9401666666999944
 20
26.4275444443999987
 10
71.0635000000000048
 20
26.2488333332999986
 10
71.1736111111000014
 20
26.0414999999999992
 10
71.2565000000000026
 20
25.8056666666999988
 10
71.3275000000000006
 20
25.5412666667000003
 10
71.3772777778000034
 20
25.2483888888999992
 10
71.4043888889000016
 20
24.9269333332999992
 10
71.4164999999999992
 20
24.5769222222000003
 10
71.4164999999999992
 20
19.9705800000000018
 10
70.4332777778000008
 20
19.9705800000000018
 10
70.4332777778000008
 20
24.5769222222000003
  0
ENDSEC
  0
SECTION
  2
OBJECTS
  0
DICTIONARY
  5
C
100
AcDbDictionary
280
0
281
1
  3
ACAD_GROUP
350
D
  3
ACAD_LAYOUT
350
1A
  3
ACAD_MLINESTYLE
350
17
  3
ACAD_PLOTSETTINGS
350
19
  3
ACAD_PLOTSTYLENAME
350
E
  3
AcDbVariableDictionary
350
55
  0
DICTIONARY
  5
D
100
AcDbDictionary
280
0
281
1
  0
ACDBDICTIONARYWDFLT
  5
E
100
AcDbDictionary
281
1
  3
Normal
350
F
100
AcDbDictionaryWithDefault
340
F
  0
ACDBPLACEHOLDER
  5
F
  0
DICTIONARY
  5
17
100
AcDbDictionary
280
0
281
1
  3
Standard
350
18
  0
MLINESTYLE
  5
18
100
AcDbMlineStyle
  2
STANDARD
 70
0
  3

 62
256
 51
90.0
 52
90.0
 71
2
 49
0.5
 62
256
  6
BYLAYER
 49
-0.5
 62
256
  6
BYLAYER
  0
DICTIONARY
  5
19
100
AcDbDictionary
280
0
281
1
  0
DICTIONARY
  5
1A
100
AcDbDictionary
281
1
  3
Layout1
350
1E
  3
Layout2
350
26
  3
Model
350
22
  0
LAYOUT
  5
1E
100
AcDbPlotSettings
  1

  2
C:\Program Files\AutoCAD 2002\plotters\DWF ePlot (optimized for plotting).pc3
  4

  6

 40
0.0
 41
0.0
 42
0.0
 43
0.0
 44
0.0
 45
0.0
 46
0.0
 47
0.0
 48
0.0
 49
0.0
140
0.0
141
0.0
142
1.0
143
1.0
 70
688
 72
0
 73
0
 74
5
  7

 75
16
147
1.0
148
0.0
149
0.0
100
AcDbLayout
  1
Layout1
 70
1
 71
1
 10
0.0
 20
0.0
 11
420.0
 21
297.0
 12
0.0
 22
0.0
 32
0.0
 14
100000000000000000000.0
 24
100000000000000000000.0
 34
100000000000000000000.0
 15
-100000000000000000000.0
 25
-100000000000000000000.0
 35
-100000000000000000000.0
146
0.0
 13
0.0
 23
0.0
 33
0.0
 16
1.0
 26
0.0
 36
0.0
 17
0.0
 27
1.0
 37
0.0
 76
0
330
1B
  0
LAYOUT
  5
22
100
AcDbPlotSettings
  1

  2
C:\Program Files\AutoCAD 2002\plotters\DWF ePlot (optimized for plotting).pc3
  4

  6

 40
0.0
 41
0.0
 42
0.0
 43
0.0
 44
0.0
 45
0.0
 46
0.0
 47
0.0
 48
0.0
 49
0.0
140
0.0
141
0.0
142
1.0
143
1.0
 70
1712
 72
0
 73
0
 74
0
  7

 75
0
147
1.0
148
0.0
149
0.0
100
AcDbLayout
  1
Model
 70
1
 71
0
 10
0.0
 20
0.0
 11
12.0
 21
9.0
 12
0.0
 22
0.0
 32
0.0
 14
0.0
 24
0.0
 34
0.0
 15
0.0
 25
0.0
 35
0.0
146
0.0
 13
0.0
 23
0.0
 33
0.0
 16
1.0
 26
0.0
 36
0.0
 17
0.0
 27
1.0
 37
0.0
 76
0
330
1F
  0
LAYOUT
  5
26
100
AcDbPlotSettings
  1

  2
C:\Program Files\AutoCAD 2002\plotters\DWF ePlot (optimized for plotting).pc3
  4

  6

 40
0.0
 41
0.0
 42
0.0
 43
0.0
 44
0.0
 45
0.0
 46
0.0
 47
0.0
 48
0.0
 49
0.0
140
0.0
141
0.0
142
1.0
143
1.0
 70
688
 72
0
 73
0
 74
5
  7

 75
16
147
1.0
148
0.0
149
0.0
100
AcDbLayout
  1
Layout2
 70
1
 71
2
 10
0.0
 20
0.0
 11
12.0
 21
9.0
 12
0.0
 22
0.0
 32
0.0
 14
0.0
 24
0.0
 34
0.0
 15
0.0
 25
0.0
 35
0.0
146
0.0
 13
0.0
 23
0.0
 33
0.0
 16
1.0
 26
0.0
 36
0.0
 17
0.0
 27
1.0
 37
0.0
 76
0
330
23
  0
DICTIONARY
  5
55
100
AcDbDictionary
281
1
  3
DIMASSOC
350
57
  3
HIDETEXT
350
56
  0
DICTIONARYVAR
  5
56
100
DictionaryVariables
280
0
  1
2
  0
DICTIONARYVAR
  5
57
100
DictionaryVariables
280
0
  1
1
  0
ENDSEC
  0
EOF
