999
dxfrw 0.5.10
0
SECTION
2
HEADER
9
$ACADVER
1
AC1021
9
$HANDSEED
5
20000
9
$DWGCODEPAGE
3
ANSI_1252
9
$INSBASE
10
0
20
0
30
0
9
$EXTMIN
10
7
20
7
30
0
9
$EXTMAX
10
113
20
40
30
0
9
$LIMMIN
10
0
20
0
9
$LIMMAX
10
420
20
297
9
$ORTHOMODE
70
0
9
$LTSCALE
40
1
9
$TEXTSTYLE
7
STANDARD
9
$CLAYER
8
Engraving
9
$DIMASZ
40
2.5
9
$DIMLFAC
40
1
9
$DIMSCALE
40
1
9
$DIMEXO
40
0.625
9
$DIMEXE
40
1.25
9
$DIMTXT
40
2.5
9
$DIMTSZ
40
0
9
$DIMAUNIT
70
0
9
$DIMADEC
70
0
9
$DIMLUNIT
70
2
9
$DIMSTYLE
2
STANDARD
9
$DIMGAP
40
0.625
9
$DIMTIH
70
0
9
$LUNITS
70
2
9
$LUPREC
70
4
9
$AUNITS
70
0
9
$AUPREC
70
2
9
$SPLINESEGS
70
8
9
$GRIDMODE
70
1
9
$SNAPSTYLE
70
0
9
$PINSBASE
10
0
20
0
30
0
9
$PLIMMIN
10
0
20
0
9
$PLIMMAX
10
210
20
297
9
$INSUNITS
70
4
9
$PSVPSCALE
40
1
0
ENDSEC
0
SECTION
2
CLASSES
0
ENDSEC
0
SECTION
2
TABLES
0
TABLE
2
VPORT
5
8
330
0
100
AcDbSymbolTable
70
1
0
VPORT
5
31
330
2
100
AcDbSymbolTableRecord
100
AcDbViewportTableRecord
2
*ACTIVE
70
0
10
0
20
0
11
1
21
1
12
56.9098360656
22
28.0639344262
13
0
23
0
14
10
24
10
15
10
25
10
16
0
26
0
36
1
17
0
27
0
37
0
40
65.1639344262
41
1.65333333333
42
50
43
0
44
0
50
0
51
0
71
0
72
100
73
1
74
3
75
0
76
1
77
0
78
0
281
0
65
1
110
0
120
0
130
0
111
1
121
0
131
0
112
0
122
1
132
0
79
0
146
0
348
10020
60
7
61
5
292
1
282
1
141
0
142
0
63
250
421
3358443
0
ENDTAB
0
TABLE
2
LTYPE
5
5
330
0
100
AcDbSymbolTable
70
4
0
LTYPE
5
14
330
5
100
AcDbSymbolTableRecord
100
AcDbLinetypeTableRecord
2
ByBlock
70
0
3

72
65
73
0
40
0
0
LTYPE
5
15
330
5
100
AcDbSymbolTableRecord
100
AcDbLinetypeTableRecord
2
ByLayer
70
0
3

72
65
73
0
40
0
0
LTYPE
5
16
330
5
100
AcDbSymbolTableRecord
100
AcDbLinetypeTableRecord
2
Continuous
70
0
3
Solid line
72
65
73
0
40
0
0
LTYPE
5
32
330
5
100
AcDbSymbolTableRecord
100
AcDbLinetypeTableRecord
2
DOT
70
0
3
Dot . . . . . . . . . . . . . . . . . . . . . .
72
65
73
2
40
6.35
49
0
74
0
49
-6.35
74
0
0
LTYPE
5
33
330
5
100
AcDbSymbolTableRecord
100
AcDbLinetypeTableRecord
2
DOT2
70
0
3
Dot (.5x) .....................................
72
65
73
2
40
3.175
49
0
74
0
49
-3.175
74
0
0
LTYPE
5
34
330
5
100
AcDbSymbolTableRecord
100
AcDbLinetypeTableRecord
2
DOTX2
70
0
3
Dot (2x) .  .  .  .  .  .  .  .  .  .  .  .  .
72
65
73
2
40
12.7
49
0
74
0
49
-12.7
74
0
0
LTYPE
5
35
330
5
100
AcDbSymbolTableRecord
100
AcDbLinetypeTableRecord
2
DASHED
70
0
3
Dot . . . . . . . . . . . . . . . . . . . . . .
72
65
73
2
40
19.05
49
12.7
74
0
49
-6.35
74
0
0
LTYPE
5
36
330
5
100
AcDbSymbolTableRecord
100
AcDbLinetypeTableRecord
2
DASHED2
70
0
3
Dashed (.5x) _ _ _ _ _ _ _ _ _ _ _ _ _ _ _ _ _
72
65
73
2
40
9.525
49
6.35
74
0
49
-3.175
74
0
0
LTYPE
5
37
330
5
100
AcDbSymbolTableRecord
100
AcDbLinetypeTableRecord
2
DASHEDX2
70
0
3
Dashed (2x) ____  ____  ____  ____  ____  ___
72
65
73
2
40
38.1
49
25.4
74
0
49
-12.7
74
0
0
LTYPE
5
38
330
5
100
AcDbSymbolTableRecord
100
AcDbLinetypeTableRecord
2
DASHDOT
70
0
3
Dash dot __ . __ . __ . __ . __ . __ . __ . __
72
65
73
4
40
25.4
49
12.7
74
0
49
-6.35
74
0
49
0
74
0
49
-6.35
74
0
0
LTYPE
5
39
330
5
100
AcDbSymbolTableRecord
100
AcDbLinetypeTableRecord
2
DASHDOT2
70
0
3
Dash dot (.5x) _._._._._._._._._._._._._._._.
72
65
73
4
40
12.7
49
6.35
74
0
49
-3.175
74
0
49
0
74
0
49
-3.175
74
0
0
LTYPE
5
3A
330
5
100
AcDbSymbolTableRecord
100
AcDbLinetypeTableRecord
2
DASHDOTX2
70
0
3
Dash dot (2x) ____  .  ____  .  ____  .  ___
72
65
73
4
40
50.8
49
25.4
74
0
49
-12.7
74
0
49
0
74
0
49
-12.7
74
0
0
LTYPE
5
3B
330
5
100
AcDbSymbolTableRecord
100
AcDbLinetypeTableRecord
2
DIVIDE
70
0
3
Divide ____ . . ____ . . ____ . . ____ . . ____
72
65
73
6
40
31.75
49
12.7
74
0
49
-6.35
74
0
49
0
74
0
49
-6.35
74
0
49
0
74
0
49
-6.35
74
0
0
LTYPE
5
3C
330
5
100
AcDbSymbolTableRecord
100
AcDbLinetypeTableRecord
2
DIVIDE2
70
0
3
Divide (.5x) __..__..__..__..__..__..__..__.._
72
65
73
6
40
15.875
49
6.35
74
0
49
-3.175
74
0
49
0
74
0
49
-3.175
74
0
49
0
74
0
49
-3.175
74
0
0
LTYPE
5
3D
330
5
100
AcDbSymbolTableRecord
100
AcDbLinetypeTableRecord
2
DIVIDEX2
70
0
3
Divide (2x) ________  .  .  ________  .  .  _
72
65
73
6
40
63.5
49
25.4
74
0
49
-12.7
74
0
49
0
74
0
49
-12.7
74
0
49
0
74
0
49
-12.7
74
0
0
LTYPE
5
3E
330
5
100
AcDbSymbolTableRecord
100
AcDbLinetypeTableRecord
2
BORDER
70
0
3
Border __ __ . __ __ . __ __ . __ __ . __ __ .
72
65
73
6
40
44.45
49
12.7
74
0
49
-6.35
74
0
49
12.7
74
0
49
-6.35
74
0
49
0
74
0
49
-6.35
74
0
0
LTYPE
5
3F
330
5
100
AcDbSymbolTableRecord
100
AcDbLinetypeTableRecord
2
BORDER2
70
0
3
Border (.5x) __.__.__.__.__.__.__.__.__.__.__.
72
65
73
6
40
22.225
49
6.35
74
0
49
-3.175
74
0
49
6.35
74
0
49
-3.175
74
0
49
0
74
0
49
-3.175
74
0
0
LTYPE
5
40
330
5
100
AcDbSymbolTableRecord
100
AcDbLinetypeTableRecord
2
BORDERX2
70
0
3
Border (2x) ____  ____  .  ____  ____  .  ___
72
65
73
6
40
88.9
49
25.4
74
0
49
-12.7
74
0
49
25.4
74
0
49
-12.7
74
0
49
0
74
0
49
-12.7
74
0
0
LTYPE
5
41
330
5
100
AcDbSymbolTableRecord
100
AcDbLinetypeTableRecord
2
CENTER
70
0
3
Center ____ _ ____ _ ____ _ ____ _ ____ _ ____
72
65
73
4
40
50.8
49
31.75
74
0
49
-6.35
74
0
49
6.35
74
0
49
-6.35
74
0
0
LTYPE
5
42
330
5
100
AcDbSymbolTableRecord
100
AcDbLinetypeTableRecord
2
CENTER2
70
0
3
Center (.5x) ___ _ ___ _ ___ _ ___ _ ___ _ ___
72
65
73
4
40
28.575
49
19.05
74
0
49
-3.175
74
0
49
3.175
74
0
49
-3.175
74
0
0
LTYPE
5
43
330
5
100
AcDbSymbolTableRecord
100
AcDbLinetypeTableRecord
2
CENTERX2
70
0
3
Center (2x) ________  __  ________  __  _____
72
65
73
4
40
101.6
49
63.5
74
0
49
-12.7
74
0
49
12.7
74
0
49
-12.7
74
0
0
ENDTAB
0
TABLE
2
LAYER
5
2
330
0
100
AcDbSymbolTable
70
1
0
LAYER
5
10
330
2
100
AcDbSymbolTableRecord
100
AcDbLayerTableRecord
2
0
70
0
62
7
6
CONTINUOUS
370
0
390
F
0
LAYER
5
44
330
2
100
AcDbSymbolTableRecord
100
AcDbLayerTableRecord
2
Panel
70
0
62
1
6
CONTINUOUS
370
0
390
F
0
LAYER
5
45
330
2
100
AcDbSymbolTableRecord
100
AcDbLayerTableRecord
2
Engraving
70
0
62
7
6
CONTINUOUS
370
0
390
F
0
ENDTAB
0
TABLE
2
STYLE
5
3
330
0
100
AcDbSymbolTable
70
3
0
STYLE
5
46
330
2
100
AcDbSymbolTableRecord
100
AcDbTextStyleTableRecord
2
Standard
70
0
40
0
41
1
50
0
71
0
42
1
3
txt
4

0
ENDTAB
0
TABLE
2
VIEW
5
6
330
0
100
AcDbSymbolTable
70
0
0
ENDTAB
0
TABLE
2
UCS
5
7
330
0
100
AcDbSymbolTable
70
0
0
ENDTAB
0
TABLE
2
APPID
5
9
330
0
100
AcDbSymbolTable
70
1
0
APPID
5
12
330
9
100
AcDbSymbolTableRecord
100
AcDbRegAppTableRecord
2
ACAD
70
0
0
ENDTAB
0
TABLE
2
DIMSTYLE
5
A
330
0
100
AcDbSymbolTable
70
1
100
AcDbDimStyleTable
71
1
0
DIMSTYLE
105
47
330
A
100
AcDbSymbolTableRecord
100
AcDbDimStyleTableRecord
2
Standard
70
0
40
1
41
2.5
42
0.625
43
0.38
44
1.25
45
0
46
0
47
0
48
0
140
2.5
141
0.09
142
0
143
25.4
144
1
145
0
146
1
147
0.625
148
0
71
0
72
0
73
0
74
1
75
0
76
0
77
0
78
0
79
0
170
0
171
2
172
0
173
0
174
0
175
0
176
0
177
0
178
0
179
0
271
4
272
4
273
2
274
2
275
0
276
0
277
2
278
46
279
0
280
0
281
0
282
0
283
1
284
0
285
0
286
0
288
0
289
3
340
Standard
341

371
-2
372
-2
0
ENDTAB
0
TABLE
2
BLOCK_RECORD
5
1
330
0
100
AcDbSymbolTable
70
2
0
BLOCK_RECORD
5
1F
330
1
100
AcDbSymbolTableRecord
100
AcDbBlockTableRecord
2
*Model_Space
70
0
280
1
281
0
0
BLOCK_RECORD
5
1E
330
1
100
AcDbSymbolTableRecord
100
AcDbBlockTableRecord
2
*Paper_Space
70
0
280
1
281
0
0
ENDTAB
0
ENDSEC
0
SECTION
2
BLOCKS
0
BLOCK
5
20
330
1F
100
AcDbEntity
8
0
100
AcDbBlockBegin
2
*Model_Space
70
0
10
0
20
0
30
0
3
*Model_Space
1

0
ENDBLK
5
21
330
1F
100
AcDbEntity
8
0
100
AcDbBlockEnd
0
BLOCK
5
1C
330
1B
100
AcDbEntity
8
0
100
AcDbBlockBegin
2
*Paper_Space
70
0
10
0
20
0
30
0
3
*Paper_Space
1

0
ENDBLK
5
1D
330
1F
100
AcDbEntity
8
0
100
AcDbBlockEnd
0
ENDSEC
0
SECTION
2
ENTITIES
0
LINE
5
48
100
AcDbEntity
8
Panel
6
ByLayer
62
256
370
-1
100
AcDbLine
10
10
20
40
11
110
21
40
0
LINE
5
49
100
AcDbEntity
8
Panel
6
ByLayer
62
256
370
-1
100
AcDbLine
10
10
20
7
11
110
21
7
0
LINE
5
4A
100
AcDbEntity
8
Panel
6
ByLayer
62
256
370
-1
100
AcDbLine
10
110
20
20
11
113
21
20
0
LINE
5
4B
100
AcDbEntity
8
Panel
6
ByLayer
62
256
370
-1
100
AcDbLine
10
113
20
20
11
113
21
30
0
LINE
5
4C
100
AcDbEntity
8
Panel
6
ByLayer
62
256
370
-1
100
AcDbLine
10
113
20
30
11
110
21
30
0
LINE
5
4D
100
AcDbEntity
8
Panel
6
ByLayer
62
256
370
-1
100
AcDbLine
10
10
20
30
11
7
21
30
0
LINE
5
4E
100
AcDbEntity
8
Panel
6
ByLayer
62
256
370
-1
100
AcDbLine
10
7
20
30
11
7
21
20
0
LINE
5
4F
100
AcDbEntity
8
Panel
6
ByLayer
62
256
370
-1
100
AcDbLine
10
7
20
20
11
10
21
20
0
LINE
5
50
100
AcDbEntity
8
Panel
6
ByLayer
62
256
370
-1
100
AcDbLine
10
110
20
7
11
110
21
20
0
LINE
5
51
100
AcDbEntity
8
Panel
6
ByLayer
62
256
370
-1
100
AcDbLine
10
110
20
40
11
110
21
30
0
LINE
5
52
100
AcDbEntity
8
Panel
6
ByLayer
62
256
370
-1
100
AcDbLine
10
10
20
40
11
10
21
30
0
LINE
5
53
100
AcDbEntity
8
Panel
6
ByLayer
62
256
370
-1
100
AcDbLine
10
10
20
20
11
10
21
7
0
LINE
5
54
100
AcDbEntity
8
Panel
6
ByLayer
62
256
370
-1
100
AcDbLine
10
10
20
7
11
10
21
20
0
LWPOLYLINE
5
55
100
AcDbEntity
8
Engraving
6
ByLayer
62
256
370
-1
100
AcDbPolyline
90
99
70
1
43
0
10
60.2300555556
20
20.0168111111
10
59.9411666667
20
20.0673244444
10
59.6603888889
20
20.1514611111
10
59.4007222222
20
20.2692222222
10
59.1590555556
20
20.4206833333
10
58.9256111111
20
20.6058444444
10
58.7077222222
20
20.8246333333
10
58.5062777778
20
21.0770422222
10
58.3278333333
20
21.3512444444
10
58.1678333333
20
21.6354111111
10
58.0332777778
20
21.9293888889
10
57.9293888889
20
22.2333222222
10
57.8399444444
20
22.5472222222
10
57.7799444444
20
22.8709222222
10
57.7443888889
20
23.2045888889
10
57.7331666667
20
23.5481333333
10
57.7443888889
20
23.8976777778
10
57.7799444444
20
24.2364111111
10
57.8399444444
20
24.5644777778
10
57.9262777778
20
24.8818777778
10
58.0308333333
20
25.1886111111
10
58.1625
20
25.4846
10
58.3160555556
20
25.7698555556
10
58.4956111111
20
26.0445333333
10
58.6970555556
20
26.2969444444
10
58.9088333333
20
26.5157333333
10
59.1372777778
20
26.7008111111
10
59.3801666667
20
26.8522777778
10
59.6382777778
20
26.9701111111
10
59.9050555556
20
27.0542444444
10
60.1896111111
20
27.1046888889
10
60.4947222222
20
27.1215666667
10
60.7967222222
20
27.1075666667
10
61.0862777778
20
27.0656888889
10
61.3645
20
26.9959555556
10
61.6195
20
26.8982
10
61.8676111111
20
26.7725777778
10
62.0955
20
26.6190111111
10
62.3131666667
20
26.4375777778
10
62.5089444444
20
26.2282111111
10
62.6905
20
25.9921444444
10
62.8483888889
20
25.7307111111
10
62.9772777778
20
25.4438222222
10
63.0868333333
20
25.1314777778
10
63.1727222222
20
24.7936888889
10
63.2300555556
20
24.4305222222
10
63.2661666667
20
24.0419888889
10
63.2779444444
20
23.6279111111
10
58.7792777778
20
23.6279111111
10
58.7792777778
20
23.5356111111
10
58.7905
20
23.2404666667
10
58.8153888889
20
22.9640111111
10
58.8589444444
20
22.7061444444
10
58.9137222222
20
22.4668888889
10
58.9885
20
22.2463222222
10
59.0793888889
20
22.0444222222
10
59.1889444444
20
21.8610444444
10
59.3135
20
21.6964333333
10
59.4505
20
21.5507333333
10
59.5887222222
20
21.4244888889
10
59.7369444444
20
21.3177
10
59.8888333333
20
21.2302888889
10
60.0432777778
20
21.1623444444
10
60.1989444444
20
21.1137777778
10
60.3646111111
20
21.08467
10
60.5327222222
20
21.0749411111
10
60.6946111111
20
21.0791444444
10
60.8496111111
20
21.0917533333
10
60.9990555556
20
21.1126888889
10
61.1379444444
20
21.1421111111
10
61.2730555556
20
21.1799333333
10
61.3993888889
20
21.2260888889
10
61.5158333333
20
21.2806444444
10
61.6248333333
20
21.3437
10
61.7276111111
20
21.4189555556
10
61.8271666667
20
21.5104888889
10
61.9147222222
20
21.6181333333
10
61.9949444444
20
21.7420444444
10
62.0681666667
20
21.8821444444
10
62.1381666667
20
22.0385
10
62.1977222222
20
22.2109777778
10
62.2568333333
20
22.3997222222
10
63.3592777778
20
22.3997222222
10
63.3159444444
20
22.1374333333
10
63.2530555556
20
21.8880555556
10
63.1727222222
20
21.6515222222
10
63.0731666667
20
21.4279111111
10
62.9520555556
20
21.2172222222
10
62.8202777778
20
21.0193688889
10
62.6659444444
20
20.8344377778
10
62.4902777778
20
20.66235
10
62.3022777778
20
20.5071555556
10
62.0930555556
20
20.3725833333
10
61.8726111111
20
20.2587144444
10
61.6385
20
20.1655488889
10
61.3857222222
20
20.0931655556
10
61.1155
20
20.0414066667
10
60.8352777778
20
20.0103511111
10
60.5327222222
20
20
0
LWPOLYLINE
5
56
100
AcDbEntity
8
Engraving
6
ByLayer
62
256
370
-1
100
AcDbPolyline
90
33
70
1
43
0
10
62.1073888889
20
24.7337555556
10
62.0656111111
20
24.8902
10
62.0139444444
20
25.038
10
61.9498333333
20
25.1771666667
10
61.8813888889
20
25.3075333333
10
61.8041666667
20
25.4292666667
10
61.7166111111
20
25.5422777778
10
61.6195
20
25.6466555556
10
61.5158333333
20
25.7403666667
10
61.4019444444
20
25.8216222222
10
61.2811666667
20
25.8903444444
10
61.1491666667
20
25.9466222222
10
61.0121666667
20
25.9903555556
10
60.8601666667
20
26.0215666667
10
60.7008333333
20
26.0403333333
10
60.5351666667
20
26.0466333333
10
60.3646111111
20
26.0393222222
10
60.2101666667
20
26.0174444444
10
60.0650555556
20
25.9810222222
10
59.9237222222
20
25.9300444444
10
59.7892777778
20
25.8645111111
10
59.6709444444
20
25.7844111111
10
59.5613888889
20
25.6897666667
10
59.4527222222
20
25.5804888889
10
59.3617222222
20
25.4627333333
10
59.2749444444
20
25.3424777778
10
59.1973888889
20
25.2197444444
10
59.1229444444
20
25.0944333333
10
59.0629444444
20
24.9667111111
10
59.0096111111
20
24.8365
10
58.9657222222
20
24.7037888889
10
58.9256111111
20
24.5685222222
10
62.1426111111
20
24.5685222222
0
LWPOLYLINE
5
57
100
AcDbEntity
8
Engraving
6
ByLayer
62
256
370
-1
100
AcDbPolyline
90
6
70
1
43
0
10
54.4005
20
21.2092777778
10
54.4005
20
20
10
48.5828333333
20
20
10
48.5828333333
20
30.0272777778
10
49.5647222222
20
30.0272777778
10
49.5647222222
20
21.2092777778
0
LWPOLYLINE
5
58
100
AcDbEntity
8
Engraving
6
ByLayer
62
256
370
-1
100
AcDbPolyline
90
64
70
1
43
0
10
70.4246111111
20
24.7877
10
70.4109444444
20
24.9802444444
10
70.3859444444
20
25.1545222222
10
70.3517222222
20
25.3104111111
10
70.3088333333
20
25.4481777778
10
70.2583888889
20
25.5675777778
10
70.1941666667
20
25.6687555556
10
70.1219444444
20
25.7516444444
10
70.0400555556
20
25.8207666667
10
69.9470555556
20
25.8807
10
69.8442777778
20
25.9313555556
10
69.7335
20
25.9728444444
10
69.6151666667
20
26.0051444444
10
69.4831666667
20
26.0281888889
10
69.3461666667
20
26.0419666667
10
69.2005
20
26.0466333333
10
69.0441666667
20
26.0376777778
10
68.8953888889
20
26.0109111111
10
68.7542777778
20
25.9663111111
10
68.6189444444
20
25.9038111111
10
68.4980555556
20
25.8235666667
10
68.3748333333
20
25.7253444444
10
68.2665
20
25.6093666667
10
68.1568333333
20
25.4755
10
68.0607222222
20
25.3279333333
10
67.9776111111
20
25.1707111111
10
67.8985
20
25.0038333333
10
67.8318333333
20
24.8273111111
10
67.7801666667
20
24.6411333333
10
67.7335
20
24.4453111111
10
67.7023888889
20
24.2398333333
10
67.6771666667
20
24.0247888889
10
67.6771666667
20
19.97058
10
66.6923888889
20
19.97058
10
66.6923888889
20
27.1488111111
10
67.6771666667
20
27.1488111111
10
67.6771666667
20
26.0864777778
10
67.8798333333
20
26.3290888889
10
68.0818333333
20
26.5393111111
10
68.2938333333
20
26.7172333333
10
68.5068333333
20
26.8627777778
10
68.7235
20
26.9760333333
10
68.9505
20
27.0569
10
69.1780555556
20
27.1053777778
10
69.4121666667
20
27.1215666667
10
69.5989444444
20
27.1130888889
10
69.7807222222
20
27.0875555556
10
69.9600555556
20
27.0450666667
10
70.1357222222
20
26.9856
10
70.3088333333
20
26.9091666667
10
70.4743888889
20
26.8156888889
10
70.6362777778
20
26.7052444444
10
70.7907222222
20
26.5777555556
10
70.9401666667
20
26.4275444444
10
71.0635
20
26.2488333333
10
71.1736111111
20
26.0415
10
71.2565
20
25.8056666667
10
71.3275
20
25.5412666667
10
71.3772777778
20
25.2483888889
10
71.4043888889
20
24.9269333333
10
71.4165
20
24.5769222222
10
71.4165
20
19.97058
10
70.4332777778
20
19.97058
10
70.4332777778
20
24.5769222222
0
ENDSEC
0
SECTION
2
OBJECTS
0
DICTIONARY
5
C
330
0
100
AcDbDictionary
281
1
3
ACAD_GROUP
350
D
0
DICTIONARY
5
D
330
C
100
AcDbDictionary
281
1
0
ENDSEC
0
EOF
