999
dxfrw 0.5.10
0
SECTION
2
HEADER
9
$ACADVER
1
AC1021
9
$HANDSEED
5
20000
9
$DWGCODEPAGE
3
ANSI_1252
9
$INSBASE
10
0
20
0
30
0
9
$EXTMIN
10
7
20
7
30
0
9
$EXTMAX
10
113
20
40
30
0
9
$LIMMIN
10
0
20
0
9
$LIMMAX
10
420
20
297
9
$ORTHOMODE
70
0
9
$LTSCALE
40
1
9
$TEXTSTYLE
7
STANDARD
9
$CLAYER
8
Engraving
9
$DIMASZ
40
2.5
9
$DIMLFAC
40
1
9
$DIMSCALE
40
1
9
$DIMEXO
40
0.625
9
$DIMEXE
40
1.25
9
$DIMTXT
40
2.5
9
$DIMTSZ
40
0
9
$DIMAUNIT
70
0
9
$DIMADEC
70
0
9
$DIMLUNIT
70
2
9
$DIMSTYLE
2
STANDARD
9
$DIMGAP
40
0.625
9
$DIMTIH
70
0
9
$LUNITS
70
2
9
$LUPREC
70
4
9
$AUNITS
70
0
9
$AUPREC
70
2
9
$SPLINESEGS
70
8
9
$GRIDMODE
70
1
9
$SNAPSTYLE
70
0
9
$PINSBASE
10
0
20
0
30
0
9
$PLIMMIN
10
0
20
0
9
$PLIMMAX
10
210
20
297
9
$INSUNITS
70
4
9
$PSVPSCALE
40
1
0
ENDSEC
0
SECTION
2
CLASSES
0
ENDSEC
0
SECTION
2
TABLES
0
TABLE
2
VPORT
5
8
330
0
100
AcDbSymbolTable
70
1
0
VPORT
5
31
330
2
100
AcDbSymbolTableRecord
100
AcDbViewportTableRecord
2
*ACTIVE
70
0
10
0
20
0
11
1
21
1
12
56.9098360656
22
28.0639344262
13
0
23
0
14
10
24
10
15
10
25
10
16
0
26
0
36
1
17
0
27
0
37
0
40
65.1639344262
41
1.65333333333
42
50
43
0
44
0
50
0
51
0
71
0
72
100
73
1
74
3
75
0
76
1
77
0
78
0
281
0
65
1
110
0
120
0
130
0
111
1
121
0
131
0
112
0
122
1
132
0
79
0
146
0
348
10020
60
7
61
5
292
1
282
1
141
0
142
0
63
250
421
3358443
0
ENDTAB
0
TABLE
2
LTYPE
5
5
330
0
100
AcDbSymbolTable
70
4
0
LTYPE
5
14
330
5
100
AcDbSymbolTableRecord
100
AcDbLinetypeTableRecord
2
ByBlock
70
0
3

72
65
73
0
40
0
0
LTYPE
5
15
330
5
100
AcDbSymbolTableRecord
100
AcDbLinetypeTableRecord
2
ByLayer
70
0
3

72
65
73
0
40
0
0
LTYPE
5
16
330
5
100
AcDbSymbolTableRecord
100
AcDbLinetypeTableRecord
2
Continuous
70
0
3
Solid line
72
65
73
0
40
0
0
LTYPE
5
32
330
5
100
AcDbSymbolTableRecord
100
AcDbLinetypeTableRecord
2
DOT
70
0
3
Dot . . . . . . . . . . . . . . . . . . . . . .
72
65
73
2
40
6.35
49
0
74
0
49
-6.35
74
0
0
LTYPE
5
33
330
5
100
AcDbSymbolTableRecord
100
AcDbLinetypeTableRecord
2
DOT2
70
0
3
Dot (.5x) .....................................
72
65
73
2
40
3.175
49
0
74
0
49
-3.175
74
0
0
LTYPE
5
34
330
5
100
AcDbSymbolTableRecord
100
AcDbLinetypeTableRecord
2
DOTX2
70
0
3
Dot (2x) .  .  .  .  .  .  .  .  .  .  .  .  .
72
65
73
2
40
12.7
49
0
74
0
49
-12.7
74
0
0
LTYPE
5
35
330
5
100
AcDbSymbolTableRecord
100
AcDbLinetypeTableRecord
2
DASHED
70
0
3
Dot . . . . . . . . . . . . . . . . . . . . . .
72
65
73
2
40
19.05
49
12.7
74
0
49
-6.35
74
0
0
LTYPE
5
36
330
5
100
AcDbSymbolTableRecord
100
AcDbLinetypeTableRecord
2
DASHED2
70
0
3
Dashed (.5x) _ _ _ _ _ _ _ _ _ _ _ _ _ _ _ _ _
72
65
73
2
40
9.525
49
6.35
74
0
49
-3.175
74
0
0
LTYPE
5
37
330
5
100
AcDbSymbolTableRecord
100
AcDbLinetypeTableRecord
2
DASHEDX2
70
0
3
Dashed (2x) ____  ____  ____  ____  ____  ___
72
65
73
2
40
38.1
49
25.4
74
0
49
-12.7
74
0
0
LTYPE
5
38
330
5
100
AcDbSymbolTableRecord
100
AcDbLinetypeTableRecord
2
DASHDOT
70
0
3
Dash dot __ . __ . __ . __ . __ . __ . __ . __
72
65
73
4
40
25.4
49
12.7
74
0
49
-6.35
74
0
49
0
74
0
49
-6.35
74
0
0
LTYPE
5
39
330
5
100
AcDbSymbolTableRecord
100
AcDbLinetypeTableRecord
2
DASHDOT2
70
0
3
Dash dot (.5x) _._._._._._._._._._._._._._._.
72
65
73
4
40
12.7
49
6.35
74
0
49
-3.175
74
0
49
0
74
0
49
-3.175
74
0
0
LTYPE
5
3A
330
5
100
AcDbSymbolTableRecord
100
AcDbLinetypeTableRecord
2
DASHDOTX2
70
0
3
Dash dot (2x) ____  .  ____  .  ____  .  ___
72
65
73
4
40
50.8
49
25.4
74
0
49
-12.7
74
0
49
0
74
0
49
-12.7
74
0
0
LTYPE
5
3B
330
5
100
AcDbSymbolTableRecord
100
AcDbLinetypeTableRecord
2
DIVIDE
70
0
3
Divide ____ . . ____ . . ____ . . ____ . . ____
72
65
73
6
40
31.75
49
12.7
74
0
49
-6.35
74
0
49
0
74
0
49
-6.35
74
0
49
0
74
0
49
-6.35
74
0
0
LTYPE
5
3C
330
5
100
AcDbSymbolTableRecord
100
AcDbLinetypeTableRecord
2
DIVIDE2
70
0
3
Divide (.5x) __..__..__..__..__..__..__..__.._
72
65
73
6
40
15.875
49
6.35
74
0
49
-3.175
74
0
49
0
74
0
49
-3.175
74
0
49
0
74
0
49
-3.175
74
0
0
LTYPE
5
3D
330
5
100
AcDbSymbolTableRecord
100
AcDbLinetypeTableRecord
2
DIVIDEX2
70
0
3
Divide (2x) ________  .  .  ________  .  .  _
72
65
73
6
40
63.5
49
25.4
74
0
49
-12.7
74
0
49
0
74
0
49
-12.7
74
0
49
0
74
0
49
-12.7
74
0
0
LTYPE
5
3E
330
5
100
AcDbSymbolTableRecord
100
AcDbLinetypeTableRecord
2
BORDER
70
0
3
Border __ __ . __ __ . __ __ . __ __ . __ __ .
72
65
73
6
40
44.45
49
12.7
74
0
49
-6.35
74
0
49
12.7
74
0
49
-6.35
74
0
49
0
74
0
49
-6.35
74
0
0
LTYPE
5
3F
330
5
100
AcDbSymbolTableRecord
100
AcDbLinetypeTableRecord
2
BORDER2
70
0
3
Border (.5x) __.__.__.__.__.__.__.__.__.__.__.
72
65
73
6
40
22.225
49
6.35
74
0
49
-3.175
74
0
49
6.35
74
0
49
-3.175
74
0
49
0
74
0
49
-3.175
74
0
0
LTYPE
5
40
330
5
100
AcDbSymbolTableRecord
100
AcDbLinetypeTableRecord
2
BORDERX2
70
0
3
Border (2x) ____  ____  .  ____  ____  .  ___
72
65
73
6
40
88.9
49
25.4
74
0
49
-12.7
74
0
49
25.4
74
0
49
-12.7
74
0
49
0
74
0
49
-12.7
74
0
0
LTYPE
5
41
330
5
100
AcDbSymbolTableRecord
100
AcDbLinetypeTableRecord
2
CENTER
70
0
3
Center ____ _ ____ _ ____ _ ____ _ ____ _ ____
72
65
73
4
40
50.8
49
31.75
74
0
49
-6.35
74
0
49
6.35
74
0
49
-6.35
74
0
0
LTYPE
5
42
330
5
100
AcDbSymbolTableRecord
100
AcDbLinetypeTableRecord
2
CENTER2
70
0
3
Center (.5x) ___ _ ___ _ ___ _ ___ _ ___ _ ___
72
65
73
4
40
28.575
49
19.05
74
0
49
-3.175
74
0
49
3.175
74
0
49
-3.175
74
0
0
LTYPE
5
43
330
5
100
AcDbSymbolTableRecord
100
AcDbLinetypeTableRecord
2
CENTERX2
70
0
3
Center (2x) ________  __  ________  __  _____
72
65
73
4
40
101.6
49
63.5
74
0
49
-12.7
74
0
49
12.7
74
0
49
-12.7
74
0
0
ENDTAB
0
TABLE
2
LAYER
5
2
330
0
100
AcDbSymbolTable
70
1
0
LAYER
5
10
330
2
100
AcDbSymbolTableRecord
100
AcDbLayerTableRecord
2
0
70
0
62
7
6
CONTINUOUS
370
0
390
F
0
LAYER
5
44
330
2
100
AcDbSymbolTableRecord
100
AcDbLayerTableRecord
2
Panel
70
0
62
1
6
CONTINUOUS
370
0
390
F
0
LAYER
5
45
330
2
100
AcDbSymbolTableRecord
100
AcDbLayerTableRecord
2
Engraving
70
0
62
7
6
CONTINUOUS
370
0
390
F
0
ENDTAB
0
TABLE
2
STYLE
5
3
330
0
100
AcDbSymbolTable
70
3
0
STYLE
5
46
330
2
100
AcDbSymbolTableRecord
100
AcDbTextStyleTableRecord
2
Standard
70
0
40
0
41
1
50
0
71
0
42
1
3
txt
4

0
ENDTAB
0
TABLE
2
VIEW
5
6
330
0
100
AcDbSymbolTable
70
0
0
ENDTAB
0
TABLE
2
UCS
5
7
330
0
100
AcDbSymbolTable
70
0
0
ENDTAB
0
TABLE
2
APPID
5
9
330
0
100
AcDbSymbolTable
70
1
0
APPID
5
12
330
9
100
AcDbSymbolTableRecord
100
AcDbRegAppTableRecord
2
ACAD
70
0
0
ENDTAB
0
TABLE
2
DIMSTYLE
5
A
330
0
100
AcDbSymbolTable
70
1
100
AcDbDimStyleTable
71
1
0
DIMSTYLE
105
47
330
A
100
AcDbSymbolTableRecord
100
AcDbDimStyleTableRecord
2
Standard
70
0
40
1
41
2.5
42
0.625
43
0.38
44
1.25
45
0
46
0
47
0
48
0
140
2.5
141
0.09
142
0
143
25.4
144
1
145
0
146
1
147
0.625
148
0
71
0
72
0
73
0
74
1
75
0
76
0
77
0
78
0
79
0
170
0
171
2
172
0
173
0
174
0
175
0
176
0
177
0
178
0
179
0
271
4
272
4
273
2
274
2
275
0
276
0
277
2
278
46
279
0
280
0
281
0
282
0
283
1
284
0
285
0
286
0
288
0
289
3
340
Standard
341

371
-2
372
-2
0
ENDTAB
0
TABLE
2
BLOCK_RECORD
5
1
330
0
100
AcDbSymbolTable
70
2
0
BLOCK_RECORD
5
1F
330
1
100
AcDbSymbolTableRecord
100
AcDbBlockTableRecord
2
*Model_Space
70
0
280
1
281
0
0
BLOCK_RECORD
5
1E
330
1
100
AcDbSymbolTableRecord
100
AcDbBlockTableRecord
2
*Paper_Space
70
0
280
1
281
0
0
ENDTAB
0
ENDSEC
0
SECTION
2
BLOCKS
0
BLOCK
5
20
330
1F
100
AcDbEntity
8
0
100
AcDbBlockBegin
2
*Model_Space
70
0
10
0
20
0
30
0
3
*Model_Space
1

0
ENDBLK
5
21
330
1F
100
AcDbEntity
8
0
100
AcDbBlockEnd
0
BLOCK
5
1C
330
1B
100
AcDbEntity
8
0
100
AcDbBlockBegin
2
*Paper_Space
70
0
10
0
20
0
30
0
3
*Paper_Space
1

0
ENDBLK
5
1D
330
1F
100
AcDbEntity
8
0
100
AcDbBlockEnd
0
ENDSEC
0
SECTION
2
ENTITIES
0
LINE
5
48
100
AcDbEntity
8
Panel
6
ByLayer
62
256
370
-1
100
AcDbLine
10
10
20
40
11
110
21
40
0
LINE
5
49
100
AcDbEntity
8
Panel
6
ByLayer
62
256
370
-1
100
AcDbLine
10
10
20
7
11
110
21
7
0
LINE
5
4A
100
AcDbEntity
8
Panel
6
ByLayer
62
256
370
-1
100
AcDbLine
10
110
20
20
11
113
21
20
0
LINE
5
4B
100
AcDbEntity
8
Panel
6
ByLayer
62
256
370
-1
100
AcDbLine
10
113
20
20
11
113
21
30
0
LINE
5
4C
100
AcDbEntity
8
Panel
6
ByLayer
62
256
370
-1
100
AcDbLine
10
113
20
30
11
110
21
30
0
LINE
5
4D
100
AcDbEntity
8
Panel
6
ByLayer
62
256
370
-1
100
AcDbLine
10
10
20
30
11
7
21
30
0
LINE
5
4E
100
AcDbEntity
8
Panel
6
ByLayer
62
256
370
-1
100
AcDbLine
10
7
20
30
11
7
21
20
0
LINE
5
4F
100
AcDbEntity
8
Panel
6
ByLayer
62
256
370
-1
100
AcDbLine
10
7
20
20
11
10
21
20
0
LINE
5
50
100
AcDbEntity
8
Panel
6
ByLayer
62
256
370
-1
100
AcDbLine
10
110
20
7
11
110
21
20
0
LINE
5
51
100
AcDbEntity
8
Panel
6
ByLayer
62
256
370
-1
100
AcDbLine
10
110
20
40
11
110
21
30
0
LINE
5
52
100
AcDbEntity
8
Panel
6
ByLayer
62
256
370
-1
100
AcDbLine
10
10
20
40
11
10
21
30
0
LINE
5
53
100
AcDbEntity
8
Panel
6
ByLayer
62
256
370
-1
100
AcDbLine
10
10
20
20
11
10
21
7
0
LINE
5
54
100
AcDbEntity
8
Panel
6
ByLayer
62
256
370
-1
100
AcDbLine
10
10
20
7
11
10
21
20
0
LWPOLYLINE
5
55
100
AcDbEntity
8
Engraving
6
ByLayer
62
256
370
-1
100
AcDbPolyline
90
40
70
1
43
0
10
51.8042777778
20
24.5685222222
10
51.8042777778
20
19.9223233333
10
50.8239444444
20
19.9223233333
10
50.8239444444
20
29.9433111111
10
53.5138333333
20
29.9433111111
10
53.9098333333
20
29.9321777778
10
54.2766111111
20
29.8987888889
10
54.6147222222
20
29.8432111111
10
54.9179444444
20
29.7653777778
10
55.1838333333
20
29.6652888889
10
55.4262777778
20
29.5429333333
10
55.6358333333
20
29.3984
10
55.8113888889
20
29.2315333333
10
55.9637222222
20
29.0450444444
10
56.0978333333
20
28.8412
10
56.2087222222
20
28.6200777778
10
56.2958333333
20
28.3817555556
10
56.3683888889
20
28.1262333333
10
56.4203888889
20
27.8533555556
10
56.4502777778
20
27.5632666667
10
56.4620555556
20
27.2559111111
10
56.4502777778
20
26.9503444444
10
56.4253888889
20
26.6654777778
10
56.3842777778
20
26.4014666667
10
56.3267222222
20
26.1581666667
10
56.2503888889
20
25.9356444444
10
56.1508333333
20
25.7338222222
10
56.0430555556
20
25.5528666667
10
55.9110555556
20
25.3926111111
10
55.7675
20
25.2496333333
10
55.6133888889
20
25.1203555556
10
55.4490555556
20
25.0049222222
10
55.2728333333
20
24.9031222222
10
55.0829444444
20
24.8151666667
10
54.8811666667
20
24.7409111111
10
54.6695
20
24.6803666667
10
54.4466111111
20
24.6335888889
10
56.8001666667
20
19.9223233333
10
55.4863888889
20
19.9223233333
10
53.3008333333
20
24.5685222222
0
LWPOLYLINE
5
56
100
AcDbEntity
8
Engraving
6
ByLayer
62
256
370
-1
100
AcDbPolyline
90
4
70
1
43
0
10
61.1183888889
20
19.9768844444
10
60.1333888889
20
19.9768844444
10
60.1333888889
20
27.1425111111
10
61.1183888889
20
27.1425111111
0
LWPOLYLINE
5
57
100
AcDbEntity
8
Engraving
6
ByLayer
62
256
370
-1
100
AcDbPolyline
90
64
70
1
43
0
10
65.4362777778
20
27.1488111111
10
65.4362777778
20
26.0864777778
10
65.6389444444
20
26.3290888889
10
65.8409444444
20
26.5393111111
10
66.0529444444
20
26.7172333333
10
66.2659444444
20
26.8627777778
10
66.4826111111
20
26.9760333333
10
66.7096111111
20
27.0569
10
66.9371666667
20
27.1053777778
10
67.1712777778
20
27.1215666667
10
67.3580555556
20
27.1130888889
10
67.5398333333
20
27.0875555556
10
67.7191666667
20
27.0450666667
10
67.8948333333
20
26.9856
10
68.0679444444
20
26.9091666667
10
68.2335
20
26.8156888889
10
68.3953888889
20
26.7052444444
10
68.5498333333
20
26.5777555556
10
68.6992777778
20
26.4275444444
10
68.8226111111
20
26.2488333333
10
68.9327222222
20
26.0415
10
69.0156111111
20
25.8056666667
10
69.0866111111
20
25.5412666667
10
69.1363888889
20
25.2483888889
10
69.1635
20
24.9269333333
10
69.1756111111
20
24.5769222222
10
69.1756111111
20
19.97058
10
68.1923888889
20
19.97058
10
68.1923888889
20
24.5769222222
10
68.1837222222
20
24.7877
10
68.1700555556
20
24.9802444444
10
68.1450555556
20
25.1545222222
10
68.1108333333
20
25.3104111111
10
68.0679444444
20
25.4481777778
10
68.0175
20
25.5675777778
10
67.9532777778
20
25.6687555556
10
67.8810555556
20
25.7516444444
10
67.7991666667
20
25.8207666667
10
67.7061666667
20
25.8807
10
67.6033888889
20
25.9313555556
10
67.4926111111
20
25.9728444444
10
67.3742777778
20
26.0051444444
10
67.2422777778
20
26.0281888889
10
67.1052777778
20
26.0419666667
10
66.9596111111
20
26.0466333333
10
66.8032777778
20
26.0376777778
10
66.6545
20
26.0109111111
10
66.5133888889
20
25.9663111111
10
66.3780555556
20
25.9038111111
10
66.2571666667
20
25.8235666667
10
66.1339444444
20
25.7253444444
10
66.0256111111
20
25.6093666667
10
65.9159444444
20
25.4755
10
65.8198333333
20
25.3279333333
10
65.7367222222
20
25.1707111111
10
65.6576111111
20
25.0038333333
10
65.5909444444
20
24.8273111111
10
65.5392777778
20
24.6411333333
10
65.4926111111
20
24.4453111111
10
65.4615
20
24.2398333333
10
65.4362777778
20
24.0247888889
10
65.4362777778
20
19.97058
10
64.4515
20
19.97058
10
64.4515
20
27.1488111111
0
LWPOLYLINE
5
58
100
AcDbEntity
8
Engraving
6
ByLayer
62
256
370
-1
100
AcDbPolyline
90
4
70
1
43
0
10
61.1183888889
20
28.5996111111
10
60.0677222222
20
28.5996111111
10
60.0677222222
20
29.8089666667
10
61.1183888889
20
29.8089666667
0
LWPOLYLINE
5
59
100
AcDbEntity
8
Engraving
6
ByLayer
62
256
370
-1
100
AcDbPolyline
90
35
70
1
43
0
10
54.4879444444
20
25.8799111111
10
54.6669444444
20
25.9373555556
10
54.8210555556
20
26.0075666667
10
54.9497222222
20
26.0905333333
10
55.0549444444
20
26.1861888889
10
55.1339444444
20
26.2922666667
10
55.2087222222
20
26.4062222222
10
55.2697222222
20
26.5280222222
10
55.3226111111
20
26.6578444444
10
55.3606111111
20
26.7954555556
10
55.3911666667
20
26.9410777778
10
55.4067222222
20
27.0945666667
10
55.4103888889
20
27.2559111111
10
55.4067222222
20
27.4173333333
10
55.3911666667
20
27.5707444444
10
55.3606111111
20
27.7163666667
10
55.3226111111
20
27.8540555556
10
55.2697222222
20
27.9838
10
55.2087222222
20
28.1056
10
55.1339444444
20
28.2195555556
10
55.0549444444
20
28.3256333333
10
54.9497222222
20
28.4212888889
10
54.8210555556
20
28.5042666667
10
54.6669444444
20
28.5744666667
10
54.4879444444
20
28.6319111111
10
54.2809444444
20
28.6765888889
10
54.0506111111
20
28.7085
10
53.7940555556
20
28.7275666667
10
53.5107222222
20
28.7339444444
10
51.8042777778
20
28.7339444444
10
51.8042777778
20
25.7778777778
10
53.5107222222
20
25.7778777778
10
53.7940555556
20
25.7842555556
10
54.0506111111
20
25.8034111111
10
54.2809444444
20
25.8353222222
0
ENDSEC
0
SECTION
2
OBJECTS
0
DICTIONARY
5
C
330
0
100
AcDbDictionary
281
1
3
ACAD_GROUP
350
D
0
DICTIONARY
5
D
330
C
100
AcDbDictionary
281
1
0
ENDSEC
0
EOF
