999
dxflib 2.2.0.0
  0
SECTION
  2
HEADER
  9
$ACADVER
  1
AC1015
  9
$HANDSEED
  5
FFFF
  9
$SNAPSTYLE
 70
0
  9
$DIMLFAC
 40
1.0
  9
$SPLINESEGS
 70
8
  9
$DIMEXE
 40
1.25
  9
$PSVPSCALE
 40
1.0
  9
$LIMMAX
 10
420.0
 20
297.0
  9
$DIMSCALE
 40
1.0
  9
$DIMLUNIT
 70
2
  9
$INSBASE
 10
0.0
 20
0.0
 30
0.0
  9
$GRIDMODE
 70
1
  9
$INSUNITS
 70
4
  9
$DIMADEC
 70
0
  9
$DIMASZ
 40
2.5
  9
$DIMGAP
 40
0.625
  9
$DIMTXT
 40
2.5
  9
$TEXTSTYLE
  7
STANDARD
  9
$LIMMIN
 10
0.0
 20
0.0
  9
$DIMEXO
 40
0.625
  9
$LUPREC
 70
4
  9
$EXTMAX
 10
113.0
 20
40.0
 30
0.0
  9
$CLAYER
  8
Engraving
  9
$DIMTIH
 70
0
  9
$PINSBASE
 10
0.0
 20
0.0
 30
0.0
  9
$ORTHOMODE
 70
0
  9
$DIMAUNIT
 70
0
  9
$DWGCODEPAGE
  3
ANSI_1252
  9
$LTSCALE
 40
1.0
  9
$AUPREC
 70
2
  9
$PLIMMIN
 10
0.0
 20
0.0
  9
$LUNITS
 70
2
  9
$EXTMIN
 10
7.0
 20
7.0
 30
0.0
  9
$PLIMMAX
 10
210.0
 20
297.0
  9
$DIMTSZ
 40
0.0
  9
$DIMSTYLE
  2
STANDARD
  9
$AUNITS
 70
0
  0
ENDSEC
  0
SECTION
  2
TABLES
  0
TABLE
  2
VPORT
  5
8
100
AcDbSymbolTable
 70
1
  0
VPORT
  5
30
100
AcDbSymbolTableRecord
100
AcDbViewportTableRecord
  2
*Active
 70
0
 10
0.0
 20
0.0
 11
1.0
 21
1.0
 12
286.3055555555554861
 22
148.5
 13
0.0
 23
0.0
 14
10.0
 24
10.0
 15
10.0
 25
10.0
 16
0.0
 26
0.0
 36
1.0
 17
0.0
 27
0.0
 37
0.0
 40
297.0
 41
1.92798353909465
 42
50.0
 43
0.0
 44
0.0
 50
0.0
 51
0.0
 71
0
 72
100
 73
1
 74
3
 75
1
 76
1
 77
0
 78
0
281
0
 65
1
110
0.0
120
0.0
130
0.0
111
1.0
121
0.0
131
0.0
112
0.0
122
1.0
132
0.0
 79
0
146
0.0
  0
ENDTAB
  0
TABLE
  2
LTYPE
  5
5
100
AcDbSymbolTable
 70
21
  0
LTYPE
  5
14
100
AcDbSymbolTableRecord
100
AcDbLinetypeTableRecord
  2
ByBlock
 70
0
  3

 72
65
 73
0
 40
0.0
  0
LTYPE
  5
15
100
AcDbSymbolTableRecord
100
AcDbLinetypeTableRecord
  2
ByLayer
 70
0
  3

 72
65
 73
0
 40
0.0
  0
LTYPE
  5
16
100
AcDbSymbolTableRecord
100
AcDbLinetypeTableRecord
  2
CONTINUOUS
 70
0
  3
Solid line
 72
65
 73
0
 40
0.0
  0
LTYPE
  5
31
100
AcDbSymbolTableRecord
100
AcDbLinetypeTableRecord
  2
DOT
 70
0
  3
Dot . . . . . . . . . . . . . . . . . . . . . .
 72
65
 73
2
 40
6.3499999999999996
 49
0.0
 74
0
 49
-6.3499999999999996
 74
0
  0
LTYPE
  5
32
100
AcDbSymbolTableRecord
100
AcDbLinetypeTableRecord
  2
DOT2
 70
0
  3
Dot (.5x) .....................................
 72
65
 73
2
 40
3.1749999999999998
 49
0.0
 74
0
 49
-3.1749999999999998
 74
0
  0
LTYPE
  5
33
100
AcDbSymbolTableRecord
100
AcDbLinetypeTableRecord
  2
DOTX2
 70
0
  3
Dot (2x) .  .  .  .  .  .  .  .  .  .  .  .  .
 72
65
 73
2
 40
12.6999999999999993
 49
0.0
 74
0
 49
-12.6999999999999993
 74
0
  0
LTYPE
  5
34
100
AcDbSymbolTableRecord
100
AcDbLinetypeTableRecord
  2
DASHED
 70
0
  3
Dashed __ __ __ __ __ __ __ __ __ __ __ __ __ _
 72
65
 73
2
 40
19.0500000000000007
 49
12.6999999999999993
 74
0
 49
-6.3499999999999996
 74
0
  0
LTYPE
  5
35
100
AcDbSymbolTableRecord
100
AcDbLinetypeTableRecord
  2
DASHED2
 70
0
  3
Dashed (.5x) _ _ _ _ _ _ _ _ _ _ _ _ _ _ _ _ _
 72
65
 73
2
 40
9.5250000000000004
 49
6.3499999999999996
 74
0
 49
-3.1749999999999998
 74
0
  0
LTYPE
  5
36
100
AcDbSymbolTableRecord
100
AcDbLinetypeTableRecord
  2
DASHEDX2
 70
0
  3
Dashed (2x) ____  ____  ____  ____  ____  ___
 72
65
 73
2
 40
38.1000000000000014
 49
25.3999999999999986
 74
0
 49
-12.6999999999999993
 74
0
  0
LTYPE
  5
37
100
AcDbSymbolTableRecord
100
AcDbLinetypeTableRecord
  2
DASHDOT
 70
0
  3
Dash dot __ . __ . __ . __ . __ . __ . __ . __
 72
65
 73
4
 40
25.3999999999999986
 49
12.6999999999999993
 74
0
 49
-6.3499999999999996
 74
0
 49
0.0
 74
0
 49
-6.3499999999999996
 74
0
  0
LTYPE
  5
38
100
AcDbSymbolTableRecord
100
AcDbLinetypeTableRecord
  2
DASHDOT2
 70
0
  3
Dash dot (.5x) _._._._._._._._._._._._._._._.
 72
65
 73
4
 40
12.6999999999999993
 49
6.3499999999999996
 74
0
 49
-3.1749999999999998
 74
0
 49
0.0
 74
0
 49
-3.1749999999999998
 74
0
  0
LTYPE
  5
39
100
AcDbSymbolTableRecord
100
AcDbLinetypeTableRecord
  2
DASHDOTX2
 70
0
  3
Dash dot (2x) ____  .  ____  .  ____  .  ___
 72
65
 73
4
 40
50.7999999999999972
 49
25.3999999999999986
 74
0
 49
-12.6999999999999993
 74
0
 49
0.0
 74
0
 49
-12.6999999999999993
 74
0
  0
LTYPE
  5
3A
100
AcDbSymbolTableRecord
100
AcDbLinetypeTableRecord
  2
DIVIDE
 70
0
  3
Divide ____ . . ____ . . ____ . . ____ . . ____
 72
65
 73
6
 40
31.75
 49
12.6999999999999993
 74
0
 49
-6.3499999999999996
 74
0
 49
0.0
 74
0
 49
-6.3499999999999996
 74
0
 49
0.0
 74
0
 49
-6.3499999999999996
 74
0
  0
LTYPE
  5
3B
100
AcDbSymbolTableRecord
100
AcDbLinetypeTableRecord
  2
DIVIDE2
 70
0
  3
Divide (.5x) __..__..__..__..__..__..__..__.._
 72
65
 73
6
 40
15.875
 49
6.3499999999999996
 74
0
 49
-3.1749999999999998
 74
0
 49
0.0
 74
0
 49
-3.1749999999999998
 74
0
 49
0.0
 74
0
 49
-3.1749999999999998
 74
0
  0
LTYPE
  5
3C
100
AcDbSymbolTableRecord
100
AcDbLinetypeTableRecord
  2
DIVIDEX2
 70
0
  3
Divide (2x) ________  .  .  ________  .  .  _
 72
65
 73
6
 40
63.5
 49
25.3999999999999986
 74
0
 49
-12.6999999999999993
 74
0
 49
0.0
 74
0
 49
-12.6999999999999993
 74
0
 49
0.0
 74
0
 49
-12.6999999999999993
 74
0
  0
LTYPE
  5
3D
100
AcDbSymbolTableRecord
100
AcDbLinetypeTableRecord
  2
CENTER
 70
0
  3
Center ____ _ ____ _ ____ _ ____ _ ____ _ ____
 72
65
 73
4
 40
50.7999999999999972
 49
31.75
 74
0
 49
-6.3499999999999996
 74
0
 49
6.3499999999999996
 74
0
 49
-6.3499999999999996
 74
0
  0
LTYPE
  5
3E
100
AcDbSymbolTableRecord
100
AcDbLinetypeTableRecord
  2
CENTER2
 70
0
  3
Center (.5x) ___ _ ___ _ ___ _ ___ _ ___ _ ___
 72
65
 73
4
 40
28.5749999999999993
 49
19.0500000000000007
 74
0
 49
-3.1749999999999998
 74
0
 49
3.1749999999999998
 74
0
 49
-3.1749999999999998
 74
0
  0
LTYPE
  5
3F
100
AcDbSymbolTableRecord
100
AcDbLinetypeTableRecord
  2
CENTERX2
 70
0
  3
Center (2x) ________  __  ________  __  _____
 72
65
 73
4
 40
101.5999999999999943
 49
63.5
 74
0
 49
-12.6999999999999993
 74
0
 49
12.6999999999999993
 74
0
 49
-12.6999999999999993
 74
0
  0
LTYPE
  5
40
100
AcDbSymbolTableRecord
100
AcDbLinetypeTableRecord
  2
BORDER
 70
0
  3
Border __ __ . __ __ . __ __ . __ __ . __ __ .
 72
65
 73
6
 40
44.4500000000000028
 49
12.6999999999999993
 74
0
 49
-6.3499999999999996
 74
0
 49
12.6999999999999993
 74
0
 49
-6.3499999999999996
 74
0
 49
0.0
 74
0
 49
-6.3499999999999996
 74
0
  0
LTYPE
  5
41
100
AcDbSymbolTableRecord
100
AcDbLinetypeTableRecord
  2
BORDER2
 70
0
  3
Border (.5x) __.__.__.__.__.__.__.__.__.__.__.
 72
65
 73
6
 40
22.2250000000000014
 49
6.3499999999999996
 74
0
 49
-3.1749999999999998
 74
0
 49
6.3499999999999996
 74
0
 49
-3.1749999999999998
 74
0
 49
0.0
 74
0
 49
-3.1749999999999998
 74
0
  0
LTYPE
  5
42
100
AcDbSymbolTableRecord
100
AcDbLinetypeTableRecord
  2
BORDERX2
 70
0
  3
Border (2x) ____  ____  .  ____  ____  .  ___
 72
65
 73
6
 40
88.9000000000000057
 49
25.3999999999999986
 74
0
 49
-12.6999999999999993
 74
0
 49
25.3999999999999986
 74
0
 49
-12.6999999999999993
 74
0
 49
0.0
 74
0
 49
-12.6999999999999993
 74
0
  0
ENDTAB
  0
TABLE
  2
LAYER
  5
2
100
AcDbSymbolTable
 70
3
  0
LAYER
  5
10
100
AcDbSymbolTableRecord
100
AcDbLayerTableRecord
  2
0
 70
0
 62
7
  6
CONTINUOUS
370
0
390
F
  0
LAYER
  5
43
100
AcDbSymbolTableRecord
100
AcDbLayerTableRecord
  2
Panel
 70
0
 62
1
  6
CONTINUOUS
370
0
390
F
  0
LAYER
  5
44
100
AcDbSymbolTableRecord
100
AcDbLayerTableRecord
  2
Engraving
 70
0
 62
7
  6
CONTINUOUS
370
0
390
F
  0
ENDTAB
  0
TABLE
  2
STYLE
  5
3
100
AcDbSymbolTable
 70
1
  0
STYLE
  5
11
100
AcDbSymbolTableRecord
100
AcDbTextStyleTableRecord
  2
Standard
 70
0
 40
0.0
 41
0.75
 50
0.0
 71
0
 42
2.5
  3
txt
  4

  0
ENDTAB
  0
TABLE
  2
VIEW
  5
6
100
AcDbSymbolTable
 70
0
  0
ENDTAB
  0
TABLE
  2
UCS
  5
7
100
AcDbSymbolTable
 70
0
  0
ENDTAB
  0
TABLE
  2
APPID
  5
9
100
AcDbSymbolTable
 70
1
  0
APPID
  5
12
100
AcDbSymbolTableRecord
100
AcDbRegAppTableRecord
  2
ACAD
 70
0
  0
ENDTAB
  0
TABLE
  2
DIMSTYLE
  5
A
100
AcDbSymbolTable
 70
1
100
AcDbDimStyleTable
 71
0
  0
DIMSTYLE
105
27
100
AcDbSymbolTableRecord
100
AcDbDimStyleTableRecord
  2
Standard
 41
2.5
 42
0.625
 43
3.75
 44
1.25
 70
0
 73
0
 74
0
 77
1
 78
8
140
2.5
141
2.5
143
0.03937007874016
147
0.625
171
3
172
1
271
2
272
2
274
3
278
44
283
0
284
8
340
11
  0
ENDTAB
  0
TABLE
  2
BLOCK_RECORD
  5
1
100
AcDbSymbolTable
 70
1
  0
BLOCK_RECORD
  5
1F
100
AcDbSymbolTableRecord
100
AcDbBlockTableRecord
  2
*Model_Space
340
22
  0
BLOCK_RECORD
  5
1B
100
AcDbSymbolTableRecord
100
AcDbBlockTableRecord
  2
*Paper_Space
340
1E
  0
BLOCK_RECORD
  5
23
100
AcDbSymbolTableRecord
100
AcDbBlockTableRecord
  2
*Paper_Space0
340
26
  0
ENDTAB
  0
ENDSEC
  0
SECTION
  2
BLOCKS
  0
BLOCK
  5
20
100
AcDbEntity
  8
0
100
AcDbBlockBegin
  2
*Model_Space
 70
0
 10
0.0
 20
0.0
 30
0.0
  3
*Model_Space
  1

  0
ENDBLK
  5
21
100
AcDbEntity
  8
0
100
AcDbBlockEnd
  0
BLOCK
  5
1C
100
AcDbEntity
 67
1
  8
0
100
AcDbBlockBegin
  2
*Paper_Space
 70
0
 10
0.0
 20
0.0
 30
0.0
  3
*Paper_Space
  1

  0
ENDBLK
  5
1D
100
AcDbEntity
 67
1
  8
0
100
AcDbBlockEnd
  0
BLOCK
  5
24
100
AcDbEntity
  8
0
100
AcDbBlockBegin
  2
*Paper_Space0
 70
0
 10
0.0
 20
0.0
 30
0.0
  3
*Paper_Space0
  1

  0
ENDBLK
  5
25
100
AcDbEntity
  8
0
100
AcDbBlockEnd
  0
ENDSEC
  0
SECTION
  2
ENTITIES
  0
LINE
  5
45
100
AcDbEntity
100
AcDbLine
  8
Panel
 62
256
370
-1
  6
ByLayer
 10
10.0
 20
40.0
 30
0.0
 11
110.0
 21
40.0
 31
0.0
  0
LINE
  5
46
100
AcDbEntity
100
AcDbLine
  8
Panel
 62
256
370
-1
  6
ByLayer
 10
10.0
 20
7.0
 30
0.0
 11
110.0
 21
7.0
 31
0.0
  0
LINE
  5
47
100
AcDbEntity
100
AcDbLine
  8
Panel
 62
256
370
-1
  6
ByLayer
 10
110.0
 20
20.0
 30
0.0
 11
113.0
 21
20.0
 31
0.0
  0
LINE
  5
48
100
AcDbEntity
100
AcDbLine
  8
Panel
 62
256
370
-1
  6
ByLayer
 10
113.0
 20
20.0
 30
0.0
 11
113.0
 21
30.0
 31
0.0
  0
LINE
  5
49
100
AcDbEntity
100
AcDbLine
  8
Panel
 62
256
370
-1
  6
ByLayer
 10
113.0
 20
30.0
 30
0.0
 11
110.0
 21
30.0
 31
0.0
  0
LINE
  5
4A
100
AcDbEntity
100
AcDbLine
  8
Panel
 62
256
370
-1
  6
ByLayer
 10
10.0
 20
30.0
 30
0.0
 11
7.0
 21
30.0
 31
0.0
  0
LINE
  5
4B
100
AcDbEntity
100
AcDbLine
  8
Panel
 62
256
370
-1
  6
ByLayer
 10
7.0
 20
30.0
 30
0.0
 11
7.0
 21
20.0
 31
0.0
  0
LINE
  5
4C
100
AcDbEntity
100
AcDbLine
  8
Panel
 62
256
370
-1
  6
ByLayer
 10
7.0
 20
20.0
 30
0.0
 11
10.0
 21
20.0
 31
0.0
  0
LINE
  5
4D
100
AcDbEntity
100
AcDbLine
  8
Panel
 62
256
370
-1
  6
ByLayer
 10
110.0
 20
7.0
 30
0.0
 11
110.0
 21
20.0
 31
0.0
  0
LINE
  5
4E
100
AcDbEntity
100
AcDbLine
  8
Panel
 62
256
370
-1
  6
ByLayer
 10
110.0
 20
40.0
 30
0.0
 11
110.0
 21
30.0
 31
0.0
  0
LINE
  5
4F
100
AcDbEntity
100
AcDbLine
  8
Panel
 62
256
370
-1
  6
ByLayer
 10
10.0
 20
40.0
 30
0.0
 11
10.0
 21
30.0
 31
0.0
  0
LINE
  5
50
100
AcDbEntity
100
AcDbLine
  8
Panel
 62
256
370
-1
  6
ByLayer
 10
10.0
 20
7.0
 30
0.0
 11
10.0
 21
20.0
 31
0.0
  0
LWPOLYLINE
  5
51
  8
Engraving
 62
256
370
-1
  6
ByLayer
100
AcDbEntity
100
AcDbPolyline
 90
16
 70
1
 10
43.0955000000000013
 20
22.4186333333000007
 10
45.6495000000000033
 20
29.9769222221999989
 10
46.902277777800002
 20
29.9769222221999989
 10
46.902277777800002
 20
19.9768844443999996
 10
45.920499999999997
 20
19.9768844443999996
 10
45.920499999999997
 20
27.3777222221999992
 10
45.8561666666999983
 20
27.3777222221999992
 10
43.370611111099997
 20
20.0168111111000009
 10
42.7158333332999973
 20
20.0168111111000009
 10
39.9460555555999974
 20
27.3777222221999992
 10
39.8826111110999975
 20
27.3777222221999992
 10
39.8826111110999975
 20
19.9768844443999996
 10
38.9001666667000023
 20
19.9768844443999996
 10
38.9001666667000023
 20
29.9769222221999989
 10
40.1552777778000021
 20
29.9769222221999989
 10
42.9909444444000002
 20
22.4186333333000007
  0
LWPOLYLINE
  5
52
  8
Engraving
 62
256
370
-1
  6
ByLayer
100
AcDbEntity
100
AcDbPolyline
 90
12
 70
1
 10
50.2352777778000004
 20
29.9517111110999998
 10
55.7688333333000017
 20
29.9517111110999998
 10
55.7688333333000017
 20
28.7696777777999984
 10
51.2240555556000032
 20
28.7696777777999984
 10
51.2240555556000032
 20
25.7778777778000006
 10
55.156944444399997
 20
25.7778777778000006
 10
55.156944444399997
 20
24.5685222221999986
 10
51.2240555556000032
 20
24.5685222221999986
 10
51.2240555556000032
 20
21.2092777778000006
 10
55.7688333333000017
 20
21.2092777778000006
 10
55.7688333333000017
 20
20.0
 10
50.2352777778000004
 20
20.0
  0
LWPOLYLINE
  5
53
  8
Engraving
 62
256
370
-1
  6
ByLayer
100
AcDbEntity
100
AcDbPolyline
 90
4
 70
1
 10
60.0816111111000026
 20
19.9768844443999996
 10
59.1015000000000015
 20
19.9768844443999996
 10
59.1015000000000015
 20
29.9769222221999989
 10
60.0816111111000026
 20
29.9769222221999989
  0
LWPOLYLINE
  5
54
  8
Engraving
 62
256
370
-1
  6
ByLayer
100
AcDbEntity
100
AcDbPolyline
 90
12
 70
1
 10
69.2727222222000023
 20
29.9769222221999989
 10
66.7621666666999971
 20
26.6554333332999995
 10
70.0321666666999931
 20
19.9768844443999996
 10
68.7447222221999965
 20
19.9768844443999996
 10
66.0250555556000052
 20
25.6854888889000001
 10
64.4014999999999986
 20
23.533511111100001
 10
64.4014999999999986
 20
19.9768844443999996
 10
63.414611111100001
 20
19.9768844443999996
 10
63.414611111100001
 20
29.9769222221999989
 10
64.4014999999999986
 20
29.9769222221999989
 10
64.4014999999999986
 20
25.2130444444000013
 10
67.9401666666999944
 20
29.9769222221999989
  0
LWPOLYLINE
  5
55
  8
Engraving
 62
256
370
-1
  6
ByLayer
100
AcDbEntity
100
AcDbPolyline
 90
64
 70
1
 10
74.7630555556000047
 20
27.1100555555999989
 10
74.6366111110999952
 20
26.7612111110999997
 10
74.5367222221999981
 20
26.3848888889000008
 10
74.4709444444000042
 20
25.9811777777999993
 10
74.4273888888999977
 20
25.5499888888999998
 10
74.4161666666999935
 20
25.0913222221999987
 10
74.4273888888999977
 20
24.6227666666999987
 10
74.4709444444000042
 20
24.1819333333000017
 10
74.5367222221999981
 20
23.7687888889000014
 10
74.6366111110999952
 20
23.3833666666999989
 10
74.7630555556000047
 20
23.0255777777999988
 10
74.914055555600001
 20
22.6954888889000017
 10
75.0936111111000031
 20
22.3931111111000014
 10
75.3028333333000006
 20
22.1184444444000015
 10
75.5288333332999997
 20
21.8738111111000002
 10
75.7623888889000057
 20
21.6618777778000009
 10
76.0018333332999987
 20
21.4825444443999984
 10
76.2492777778000033
 20
21.3358333332999983
 10
76.5020555555999948
 20
21.2216555556000017
 10
76.7636111111000048
 20
21.1401666667000008
 10
77.0363888889000066
 20
21.0912077778000011
 10
77.3114999999999952
 20
21.0749411110999993
 10
77.581833333299997
 20
21.0912077778000011
 10
77.8513888889000043
 20
21.1401666667000008
 10
78.1048333332999931
 20
21.2216555556000017
 10
78.3495000000000061
 20
21.3358333332999983
 10
78.5867222221999953
 20
21.4825444443999984
 10
78.8146111111000067
 20
21.6618777778000009
 10
79.0288333332999997
 20
21.8738111111000002
 10
79.2418333332999936
 20
22.1184444444000015
 10
79.4267222221999987
 20
22.3933444444000003
 10
79.592944444400004
 20
22.6962666667000015
 10
79.7337222222000008
 20
23.0273666667000008
 10
79.8470555555999937
 20
23.3864777777999997
 10
79.9379444444000029
 20
23.7737777777999995
 10
80.0013888888999958
 20
24.1890888888999989
 10
80.0369444444000067
 20
24.6324222221999989
 10
80.0533888889000025
 20
25.1039333332999988
 10
80.0369444444000067
 20
25.559633333299999
 10
80.0013888888999958
 20
25.9882555555999986
 10
79.9379444444000029
 20
26.3898666667000015
 10
79.8470555555999937
 20
26.7643999999999984
 10
79.7337222222000008
 20
27.1118444443999991
 10
79.592944444400004
 20
27.4322000000000017
 10
79.4267222221999987
 20
27.7255555555999997
 10
79.2418333332999936
 20
27.9918222221999997
 10
79.0288333332999997
 20
28.2287444444000002
 10
78.8146111111000067
 20
28.4340555556000005
 10
78.5867222221999953
 20
28.6078555556000005
 10
78.3495000000000061
 20
28.7499777778000016
 10
78.1048333332999931
 20
28.8605777777999997
 10
77.8513888889000043
 20
28.9394999999999989
 10
77.581833333299997
 20
28.9868999999999986
 10
77.3114999999999952
 20
29.0027000000000008
 10
77.0363888889000066
 20
28.9868999999999986
 10
76.7636111111000048
 20
28.9394999999999989
 10
76.5020555555999948
 20
28.8605777777999997
 10
76.2492777778000033
 20
28.7499777778000016
 10
76.0018333332999987
 20
28.6078555556000005
 10
75.7623888889000057
 20
28.4340555556000005
 10
75.5288333332999997
 20
28.2287444444000002
 10
75.3028333333000006
 20
27.9918222221999997
 10
75.0936111111000031
 20
27.7253222221999991
 10
74.914055555600001
 20
27.4314222221999984
  0
LWPOLYLINE
  5
56
  8
Engraving
 62
256
370
-1
  6
ByLayer
100
AcDbEntity
100
AcDbPolyline
 90
64
 70
1
 10
74.2343888888999999
 20
28.195111111100001
 10
74.4983888888999957
 20
28.5775777777999984
 10
74.7941666666999936
 20
28.9291555556000013
 10
75.1011666666999957
 20
29.2338666666999991
 10
75.4292777777999959
 20
29.4917222221999999
 10
75.7694999999999936
 20
29.7026444444000006
 10
76.133499999999998
 20
29.8667222221999999
 10
76.5082777778000036
 20
29.9839333333000013
 10
76.9018333333000044
 20
30.054211111099999
 10
77.3114999999999952
 20
30.0776444444000006
 10
77.7187222222000003
 20
30.054211111099999
 10
78.1048333332999931
 20
29.9839333333000013
 10
78.4759444443999996
 20
29.8667222221999999
 10
78.8258333332999968
 20
29.7026444444000006
 10
79.1617222221999981
 20
29.4917222221999999
 10
79.4721666667000051
 20
29.2338666666999991
 10
79.7672777778000039
 20
28.9291555556000013
 10
80.043166666700003
 20
28.5775777777999984
 10
80.2866111111000009
 20
28.1949555556
 10
80.5044999999999931
 20
27.7971555555999998
 10
80.6888333332999963
 20
27.3841000000000001
 10
80.8345000000000056
 20
26.9559444444
 10
80.9538333332999969
 20
26.5125333332999986
 10
81.0338333332999952
 20
26.0540222222000004
 10
81.0829444443999989
 20
25.5802666666999983
 10
81.0998333332999977
 20
25.0913222221999987
 10
81.0829444443999989
 20
24.5777777778000015
 10
81.0338333332999952
 20
24.0826888889000017
 10
80.9538333332999969
 20
23.6061222221999998
 10
80.8345000000000056
 20
23.1479222221999983
 10
80.6888333332999963
 20
22.708255555600001
 10
80.5044999999999931
 20
22.2870999999999988
 10
80.2866111111000009
 20
21.8843222222000016
 10
80.043166666700003
 20
21.5000666667000004
 10
79.7672777778000039
 20
21.1484888889000011
 10
79.4721666667000051
 20
20.8437766666999984
 10
79.1617222221999981
 20
20.5859966667000016
 10
78.8258333332999968
 20
20.3749955556000018
 10
78.4759444443999996
 20
20.2109255555999994
 10
78.1048333332999931
 20
20.0937100000000015
 10
77.7187222222000003
 20
20.0234277777999985
 10
77.3114999999999952
 20
20.0
 10
76.9018333333000044
 20
20.0234277777999985
 10
76.5082777778000036
 20
20.0937100000000015
 10
76.133499999999998
 20
20.2109255555999994
 10
75.7694999999999936
 20
20.3749955556000018
 10
75.4292777777999959
 20
20.5859966667000016
 10
75.1011666666999957
 20
20.8437766666999984
 10
74.7941666666999936
 20
21.1484888889000011
 10
74.4983888888999957
 20
21.5000666667000004
 10
74.2343888888999999
 20
21.8845555555999987
 10
74.0065000000000026
 20
22.2878777777999986
 10
73.807277777799996
 20
22.7100444444000011
 10
73.6484999999999985
 20
23.1511222222000015
 10
73.5245000000000033
 20
23.6110333333
 10
73.4367222222000038
 20
24.0897777777999984
 10
73.3812777777999941
 20
24.5874333333000017
 10
73.3651666667000057
 20
25.1039333332999988
 10
73.3812777777999941
 20
25.5899111111000011
 10
73.4367222222000038
 20
26.0611111111000007
 10
73.5245000000000033
 20
26.5175222222000002
 10
73.6484999999999985
 20
26.9591333332999987
 10
73.807277777799996
 20
27.3858888888999985
 10
74.0065000000000026
 20
27.7979333333000014
  0
ENDSEC
  0
SECTION
  2
OBJECTS
  0
DICTIONARY
  5
C
100
AcDbDictionary
280
0
281
1
  3
ACAD_GROUP
350
D
  3
ACAD_LAYOUT
350
1A
  3
ACAD_MLINESTYLE
350
17
  3
ACAD_PLOTSETTINGS
350
19
  3
ACAD_PLOTSTYLENAME
350
E
  3
AcDbVariableDictionary
350
57
  0
DICTIONARY
  5
D
100
AcDbDictionary
280
0
281
1
  0
ACDBDICTIONARYWDFLT
  5
E
100
AcDbDictionary
281
1
  3
Normal
350
F
100
AcDbDictionaryWithDefault
340
F
  0
ACDBPLACEHOLDER
  5
F
  0
DICTIONARY
  5
17
100
AcDbDictionary
280
0
281
1
  3
Standard
350
18
  0
MLINESTYLE
  5
18
100
AcDbMlineStyle
  2
STANDARD
 70
0
  3

 62
256
 51
90.0
 52
90.0
 71
2
 49
0.5
 62
256
  6
BYLAYER
 49
-0.5
 62
256
  6
BYLAYER
  0
DICTIONARY
  5
19
100
AcDbDictionary
280
0
281
1
  0
DICTIONARY
  5
1A
100
AcDbDictionary
281
1
  3
Layout1
350
1E
  3
Layout2
350
26
  3
Model
350
22
  0
LAYOUT
  5
1E
100
AcDbPlotSettings
  1

  2
C:\Program Files\AutoCAD 2002\plotters\DWF ePlot (optimized for plotting).pc3
  4

  6

 40
0.0
 41
0.0
 42
0.0
 43
0.0
 44
0.0
 45
0.0
 46
0.0
 47
0.0
 48
0.0
 49
0.0
140
0.0
141
0.0
142
1.0
143
1.0
 70
688
 72
0
 73
0
 74
5
  7

 75
16
147
1.0
148
0.0
149
0.0
100
AcDbLayout
  1
Layout1
 70
1
 71
1
 10
0.0
 20
0.0
 11
420.0
 21
297.0
 12
0.0
 22
0.0
 32
0.0
 14
100000000000000000000.0
 24
100000000000000000000.0
 34
100000000000000000000.0
 15
-100000000000000000000.0
 25
-100000000000000000000.0
 35
-100000000000000000000.0
146
0.0
 13
0.0
 23
0.0
 33
0.0
 16
1.0
 26
0.0
 36
0.0
 17
0.0
 27
1.0
 37
0.0
 76
0
330
1B
  0
LAYOUT
  5
22
100
AcDbPlotSettings
  1

  2
C:\Program Files\AutoCAD 2002\plotters\DWF ePlot (optimized for plotting).pc3
  4

  6

 40
0.0
 41
0.0
 42
0.0
 43
0.0
 44
0.0
 45
0.0
 46
0.0
 47
0.0
 48
0.0
 49
0.0
140
0.0
141
0.0
142
1.0
143
1.0
 70
1712
 72
0
 73
0
 74
0
  7

 75
0
147
1.0
148
0.0
149
0.0
100
AcDbLayout
  1
Model
 70
1
 71
0
 10
0.0
 20
0.0
 11
12.0
 21
9.0
 12
0.0
 22
0.0
 32
0.0
 14
0.0
 24
0.0
 34
0.0
 15
0.0
 25
0.0
 35
0.0
146
0.0
 13
0.0
 23
0.0
 33
0.0
 16
1.0
 26
0.0
 36
0.0
 17
0.0
 27
1.0
 37
0.0
 76
0
330
1F
  0
LAYOUT
  5
26
100
AcDbPlotSettings
  1

  2
C:\Program Files\AutoCAD 2002\plotters\DWF ePlot (optimized for plotting).pc3
  4

  6

 40
0.0
 41
0.0
 42
0.0
 43
0.0
 44
0.0
 45
0.0
 46
0.0
 47
0.0
 48
0.0
 49
0.0
140
0.0
141
0.0
142
1.0
143
1.0
 70
688
 72
0
 73
0
 74
5
  7

 75
16
147
1.0
148
0.0
149
0.0
100
AcDbLayout
  1
Layout2
 70
1
 71
2
 10
0.0
 20
0.0
 11
12.0
 21
9.0
 12
0.0
 22
0.0
 32
0.0
 14
0.0
 24
0.0
 34
0.0
 15
0.0
 25
0.0
 35
0.0
146
0.0
 13
0.0
 23
0.0
 33
0.0
 16
1.0
 26
0.0
 36
0.0
 17
0.0
 27
1.0
 37
0.0
 76
0
330
23
  0
DICTIONARY
  5
57
100
AcDbDictionary
281
1
  3
DIMASSOC
350
59
  3
HIDETEXT
350
58
  0
DICTIONARYVAR
  5
58
100
DictionaryVariables
280
0
  1
2
  0
DICTIONARYVAR
  5
59
100
DictionaryVariables
280
0
  1
1
  0
ENDSEC
  0
EOF
