999
dxfrw 0.5.10
0
SECTION
2
HEADER
9
$ACADVER
1
AC1021
9
$HANDSEED
5
20000
9
$DWGCODEPAGE
3
ANSI_1252
9
$INSBASE
10
0
20
0
30
0
9
$EXTMIN
10
7
20
7
30
0
9
$EXTMAX
10
113
20
40
30
0
9
$LIMMIN
10
0
20
0
9
$LIMMAX
10
420
20
297
9
$ORTHOMODE
70
0
9
$LTSCALE
40
1
9
$TEXTSTYLE
7
STANDARD
9
$CLAYER
8
Engraving
9
$DIMASZ
40
2.5
9
$DIMLFAC
40
1
9
$DIMSCALE
40
1
9
$DIMEXO
40
0.625
9
$DIMEXE
40
1.25
9
$DIMTXT
40
2.5
9
$DIMTSZ
40
0
9
$DIMAUNIT
70
0
9
$DIMADEC
70
0
9
$DIMLUNIT
70
2
9
$DIMSTYLE
2
STANDARD
9
$DIMGAP
40
0.625
9
$DIMTIH
70
0
9
$LUNITS
70
2
9
$LUPREC
70
4
9
$AUNITS
70
0
9
$AUPREC
70
2
9
$SPLINESEGS
70
8
9
$GRIDMODE
70
1
9
$SNAPSTYLE
70
0
9
$PINSBASE
10
0
20
0
30
0
9
$PLIMMIN
10
0
20
0
9
$PLIMMAX
10
210
20
297
9
$INSUNITS
70
4
9
$PSVPSCALE
40
1
0
ENDSEC
0
SECTION
2
CLASSES
0
ENDSEC
0
SECTION
2
TABLES
0
TABLE
2
VPORT
5
8
330
0
100
AcDbSymbolTable
70
1
0
VPORT
5
31
330
2
100
AcDbSymbolTableRecord
100
AcDbViewportTableRecord
2
*ACTIVE
70
0
10
0
20
0
11
1
21
1
12
56.9098360655
22
28.0639344262
13
0
23
0
14
10
24
10
15
10
25
10
16
0
26
0
36
1
17
0
27
0
37
0
40
65.1639344262
41
1.65333333333
42
50
43
0
44
0
50
0
51
0
71
0
72
100
73
1
74
3
75
0
76
1
77
0
78
0
281
0
65
1
110
0
120
0
130
0
111
1
121
0
131
0
112
0
122
1
132
0
79
0
146
0
348
10020
60
7
61
5
292
1
282
1
141
0
142
0
63
250
421
3358443
0
ENDTAB
0
TABLE
2
LTYPE
5
5
330
0
100
AcDbSymbolTable
70
4
0
LTYPE
5
14
330
5
100
AcDbSymbolTableRecord
100
AcDbLinetypeTableRecord
2
ByBlock
70
0
3

72
65
73
0
40
0
0
LTYPE
5
15
330
5
100
AcDbSymbolTableRecord
100
AcDbLinetypeTableRecord
2
ByLayer
70
0
3

72
65
73
0
40
0
0
LTYPE
5
16
330
5
100
AcDbSymbolTableRecord
100
AcDbLinetypeTableRecord
2
Continuous
70
0
3
Solid line
72
65
73
0
40
0
0
LTYPE
5
32
330
5
100
AcDbSymbolTableRecord
100
AcDbLinetypeTableRecord
2
DOT
70
0
3
Dot . . . . . . . . . . . . . . . . . . . . . .
72
65
73
2
40
6.35
49
0
74
0
49
-6.35
74
0
0
LTYPE
5
33
330
5
100
AcDbSymbolTableRecord
100
AcDbLinetypeTableRecord
2
DOT2
70
0
3
Dot (.5x) .....................................
72
65
73
2
40
3.175
49
0
74
0
49
-3.175
74
0
0
LTYPE
5
34
330
5
100
AcDbSymbolTableRecord
100
AcDbLinetypeTableRecord
2
DOTX2
70
0
3
Dot (2x) .  .  .  .  .  .  .  .  .  .  .  .  .
72
65
73
2
40
12.7
49
0
74
0
49
-12.7
74
0
0
LTYPE
5
35
330
5
100
AcDbSymbolTableRecord
100
AcDbLinetypeTableRecord
2
DASHED
70
0
3
Dot . . . . . . . . . . . . . . . . . . . . . .
72
65
73
2
40
19.05
49
12.7
74
0
49
-6.35
74
0
0
LTYPE
5
36
330
5
100
AcDbSymbolTableRecord
100
AcDbLinetypeTableRecord
2
DASHED2
70
0
3
Dashed (.5x) _ _ _ _ _ _ _ _ _ _ _ _ _ _ _ _ _
72
65
73
2
40
9.525
49
6.35
74
0
49
-3.175
74
0
0
LTYPE
5
37
330
5
100
AcDbSymbolTableRecord
100
AcDbLinetypeTableRecord
2
DASHEDX2
70
0
3
Dashed (2x) ____  ____  ____  ____  ____  ___
72
65
73
2
40
38.1
49
25.4
74
0
49
-12.7
74
0
0
LTYPE
5
38
330
5
100
AcDbSymbolTableRecord
100
AcDbLinetypeTableRecord
2
DASHDOT
70
0
3
Dash dot __ . __ . __ . __ . __ . __ . __ . __
72
65
73
4
40
25.4
49
12.7
74
0
49
-6.35
74
0
49
0
74
0
49
-6.35
74
0
0
LTYPE
5
39
330
5
100
AcDbSymbolTableRecord
100
AcDbLinetypeTableRecord
2
DASHDOT2
70
0
3
Dash dot (.5x) _._._._._._._._._._._._._._._.
72
65
73
4
40
12.7
49
6.35
74
0
49
-3.175
74
0
49
0
74
0
49
-3.175
74
0
0
LTYPE
5
3A
330
5
100
AcDbSymbolTableRecord
100
AcDbLinetypeTableRecord
2
DASHDOTX2
70
0
3
Dash dot (2x) ____  .  ____  .  ____  .  ___
72
65
73
4
40
50.8
49
25.4
74
0
49
-12.7
74
0
49
0
74
0
49
-12.7
74
0
0
LTYPE
5
3B
330
5
100
AcDbSymbolTableRecord
100
AcDbLinetypeTableRecord
2
DIVIDE
70
0
3
Divide ____ . . ____ . . ____ . . ____ . . ____
72
65
73
6
40
31.75
49
12.7
74
0
49
-6.35
74
0
49
0
74
0
49
-6.35
74
0
49
0
74
0
49
-6.35
74
0
0
LTYPE
5
3C
330
5
100
AcDbSymbolTableRecord
100
AcDbLinetypeTableRecord
2
DIVIDE2
70
0
3
Divide (.5x) __..__..__..__..__..__..__..__.._
72
65
73
6
40
15.875
49
6.35
74
0
49
-3.175
74
0
49
0
74
0
49
-3.175
74
0
49
0
74
0
49
-3.175
74
0
0
LTYPE
5
3D
330
5
100
AcDbSymbolTableRecord
100
AcDbLinetypeTableRecord
2
DIVIDEX2
70
0
3
Divide (2x) ________  .  .  ________  .  .  _
72
65
73
6
40
63.5
49
25.4
74
0
49
-12.7
74
0
49
0
74
0
49
-12.7
74
0
49
0
74
0
49
-12.7
74
0
0
LTYPE
5
3E
330
5
100
AcDbSymbolTableRecord
100
AcDbLinetypeTableRecord
2
BORDER
70
0
3
Border __ __ . __ __ . __ __ . __ __ . __ __ .
72
65
73
6
40
44.45
49
12.7
74
0
49
-6.35
74
0
49
12.7
74
0
49
-6.35
74
0
49
0
74
0
49
-6.35
74
0
0
LTYPE
5
3F
330
5
100
AcDbSymbolTableRecord
100
AcDbLinetypeTableRecord
2
BORDER2
70
0
3
Border (.5x) __.__.__.__.__.__.__.__.__.__.__.
72
65
73
6
40
22.225
49
6.35
74
0
49
-3.175
74
0
49
6.35
74
0
49
-3.175
74
0
49
0
74
0
49
-3.175
74
0
0
LTYPE
5
40
330
5
100
AcDbSymbolTableRecord
100
AcDbLinetypeTableRecord
2
BORDERX2
70
0
3
Border (2x) ____  ____  .  ____  ____  .  ___
72
65
73
6
40
88.9
49
25.4
74
0
49
-12.7
74
0
49
25.4
74
0
49
-12.7
74
0
49
0
74
0
49
-12.7
74
0
0
LTYPE
5
41
330
5
100
AcDbSymbolTableRecord
100
AcDbLinetypeTableRecord
2
CENTER
70
0
3
Center ____ _ ____ _ ____ _ ____ _ ____ _ ____
72
65
73
4
40
50.8
49
31.75
74
0
49
-6.35
74
0
49
6.35
74
0
49
-6.35
74
0
0
LTYPE
5
42
330
5
100
AcDbSymbolTableRecord
100
AcDbLinetypeTableRecord
2
CENTER2
70
0
3
Center (.5x) ___ _ ___ _ ___ _ ___ _ ___ _ ___
72
65
73
4
40
28.575
49
19.05
74
0
49
-3.175
74
0
49
3.175
74
0
49
-3.175
74
0
0
LTYPE
5
43
330
5
100
AcDbSymbolTableRecord
100
AcDbLinetypeTableRecord
2
CENTERX2
70
0
3
Center (2x) ________  __  ________  __  _____
72
65
73
4
40
101.6
49
63.5
74
0
49
-12.7
74
0
49
12.7
74
0
49
-12.7
74
0
0
ENDTAB
0
TABLE
2
LAYER
5
2
330
0
100
AcDbSymbolTable
70
1
0
LAYER
5
10
330
2
100
AcDbSymbolTableRecord
100
AcDbLayerTableRecord
2
0
70
0
62
7
6
CONTINUOUS
370
0
390
F
0
LAYER
5
44
330
2
100
AcDbSymbolTableRecord
100
AcDbLayerTableRecord
2
Panel
70
0
62
1
6
CONTINUOUS
370
0
390
F
0
LAYER
5
45
330
2
100
AcDbSymbolTableRecord
100
AcDbLayerTableRecord
2
Engraving
70
0
62
7
6
CONTINUOUS
370
0
390
F
0
ENDTAB
0
TABLE
2
STYLE
5
3
330
0
100
AcDbSymbolTable
70
3
0
STYLE
5
46
330
2
100
AcDbSymbolTableRecord
100
AcDbTextStyleTableRecord
2
Standard
70
0
40
0
41
1
50
0
71
0
42
1
3
txt
4

0
ENDTAB
0
TABLE
2
VIEW
5
6
330
0
100
AcDbSymbolTable
70
0
0
ENDTAB
0
TABLE
2
UCS
5
7
330
0
100
AcDbSymbolTable
70
0
0
ENDTAB
0
TABLE
2
APPID
5
9
330
0
100
AcDbSymbolTable
70
1
0
APPID
5
12
330
9
100
AcDbSymbolTableRecord
100
AcDbRegAppTableRecord
2
ACAD
70
0
0
ENDTAB
0
TABLE
2
DIMSTYLE
5
A
330
0
100
AcDbSymbolTable
70
1
100
AcDbDimStyleTable
71
1
0
DIMSTYLE
105
47
330
A
100
AcDbSymbolTableRecord
100
AcDbDimStyleTableRecord
2
Standard
70
0
40
1
41
2.5
42
0.625
43
0.38
44
1.25
45
0
46
0
47
0
48
0
140
2.5
141
0.09
142
0
143
25.4
144
1
145
0
146
1
147
0.625
148
0
71
0
72
0
73
0
74
1
75
0
76
0
77
0
78
0
79
0
170
0
171
2
172
0
173
0
174
0
175
0
176
0
177
0
178
0
179
0
271
4
272
4
273
2
274
2
275
0
276
0
277
2
278
46
279
0
280
0
281
0
282
0
283
1
284
0
285
0
286
0
288
0
289
3
340
Standard
341

371
-2
372
-2
0
ENDTAB
0
TABLE
2
BLOCK_RECORD
5
1
330
0
100
AcDbSymbolTable
70
2
0
BLOCK_RECORD
5
1F
330
1
100
AcDbSymbolTableRecord
100
AcDbBlockTableRecord
2
*Model_Space
70
0
280
1
281
0
0
BLOCK_RECORD
5
1E
330
1
100
AcDbSymbolTableRecord
100
AcDbBlockTableRecord
2
*Paper_Space
70
0
280
1
281
0
0
ENDTAB
0
ENDSEC
0
SECTION
2
BLOCKS
0
BLOCK
5
20
330
1F
100
AcDbEntity
8
0
100
AcDbBlockBegin
2
*Model_Space
70
0
10
0
20
0
30
0
3
*Model_Space
1

0
ENDBLK
5
21
330
1F
100
AcDbEntity
8
0
100
AcDbBlockEnd
0
BLOCK
5
1C
330
1B
100
AcDbEntity
8
0
100
AcDbBlockBegin
2
*Paper_Space
70
0
10
0
20
0
30
0
3
*Paper_Space
1

0
ENDBLK
5
1D
330
1F
100
AcDbEntity
8
0
100
AcDbBlockEnd
0
ENDSEC
0
SECTION
2
ENTITIES
0
LINE
5
48
100
AcDbEntity
8
Panel
6
ByLayer
62
256
370
-1
100
AcDbLine
10
10
20
40
11
110
21
40
0
LINE
5
49
100
AcDbEntity
8
Panel
6
ByLayer
62
256
370
-1
100
AcDbLine
10
10
20
7
11
110
21
7
0
LINE
5
4A
100
AcDbEntity
8
Panel
6
ByLayer
62
256
370
-1
100
AcDbLine
10
110
20
20
11
113
21
20
0
LINE
5
4B
100
AcDbEntity
8
Panel
6
ByLayer
62
256
370
-1
100
AcDbLine
10
113
20
20
11
113
21
30
0
LINE
5
4C
100
AcDbEntity
8
Panel
6
ByLayer
62
256
370
-1
100
AcDbLine
10
113
20
30
11
110
21
30
0
LINE
5
4D
100
AcDbEntity
8
Panel
6
ByLayer
62
256
370
-1
100
AcDbLine
10
10
20
30
11
7
21
30
0
LINE
5
4E
100
AcDbEntity
8
Panel
6
ByLayer
62
256
370
-1
100
AcDbLine
10
7
20
30
11
7
21
20
0
LINE
5
4F
100
AcDbEntity
8
Panel
6
ByLayer
62
256
370
-1
100
AcDbLine
10
7
20
20
11
10
21
20
0
LINE
5
50
100
AcDbEntity
8
Panel
6
ByLayer
62
256
370
-1
100
AcDbLine
10
110
20
7
11
110
21
20
0
LINE
5
51
100
AcDbEntity
8
Panel
6
ByLayer
62
256
370
-1
100
AcDbLine
10
110
20
40
11
110
21
30
0
LINE
5
52
100
AcDbEntity
8
Panel
6
ByLayer
62
256
370
-1
100
AcDbLine
10
10
20
40
11
10
21
30
0
LINE
5
53
100
AcDbEntity
8
Panel
6
ByLayer
62
256
370
-1
100
AcDbLine
10
10
20
20
11
10
21
7
0
LINE
5
54
100
AcDbEntity
8
Panel
6
ByLayer
62
256
370
-1
100
AcDbLine
10
10
20
7
11
10
21
20
0
LWPOLYLINE
5
55
100
AcDbEntity
8
Engraving
6
ByLayer
62
256
370
-1
100
AcDbPolyline
90
128
70
1
43
0
10
45.9252222222
20
21.6618777778
10
46.1674444444
20
21.4825444444
10
46.4121111111
20
21.3358333333
10
46.6624444444
20
21.2216555556
10
46.9238888889
20
21.1401666667
10
47.1886666667
20
21.0912077778
10
47.4583333333
20
21.0749411111
10
47.6868888889
20
21.0853688889
10
47.9152222222
20
21.1165777778
10
48.1333333333
20
21.1686555556
10
48.3448888889
20
21.2415777778
10
48.548
20
21.3352888889
10
48.7433333333
20
21.4498555556
10
48.939
20
21.5852888889
10
49.1268888889
20
21.7415777778
10
49.3026666667
20
21.9137444444
10
49.4595555556
20
22.0971888889
10
49.6002222222
20
22.2918444444
10
49.7185555556
20
22.4976333333
10
49.8171111111
20
22.7146333333
10
49.9052222222
20
22.9427555556
10
49.9688888889
20
23.1821666667
10
50.0185555556
20
23.4327111111
10
50.0185555556
20
24.2997666667
10
48.1333333333
20
24.2997666667
10
48.1333333333
20
25.3747888889
10
51.0011111111
20
25.3747888889
10
51.0011111111
20
19.7648688889
10
50.2215555556
20
19.7648688889
10
49.8666666667
20
21.0098711111
10
49.619
20
20.7731855556
10
49.3555555556
20
20.56802
10
49.0772222222
20
20.3944533333
10
48.7845555556
20
20.2524877778
10
48.4745555556
20
20.1419655556
10
48.1493333333
20
20.0631222222
10
47.8112222222
20
20.0158
10
47.4564444444
20
20
10
47.0517777778
20
20.0234277778
10
46.6601111111
20
20.09371
10
46.289
20
20.2109255556
10
45.9307777778
20
20.3749955556
10
45.5891111111
20
20.5859966667
10
45.2646666667
20
20.8437766667
10
44.9564444444
20
21.1484888889
10
44.6613333333
20
21.5000666667
10
44.3973333333
20
21.8845555556
10
44.1632222222
20
22.2878777778
10
43.9676666667
20
22.7100444444
10
43.8106666667
20
23.1511222222
10
43.6875555556
20
23.6110333333
10
43.5991111111
20
24.0897777778
10
43.5417777778
20
24.5874333333
10
43.5242222222
20
25.1039333333
10
43.5417777778
20
25.5899111111
10
43.5991111111
20
26.0611111111
10
43.6875555556
20
26.5175222222
10
43.8106666667
20
26.9591333333
10
43.9676666667
20
27.3858888889
10
44.1632222222
20
27.7979333333
10
44.395
20
28.1951111111
10
44.6588888889
20
28.5775777778
10
44.9502222222
20
28.9291555556
10
45.2614444444
20
29.2338666667
10
45.5841111111
20
29.4917222222
10
45.9252222222
20
29.7026444444
10
46.2777777778
20
29.8667222222
10
46.6575555556
20
29.9839333333
10
47.0484444444
20
30.0542111111
10
47.4532222222
20
30.0776444444
10
47.8056666667
20
30.0626222222
10
48.1381111111
20
30.0174777778
10
48.4572222222
20
29.9421333333
10
48.7607777778
20
29.8367555556
10
49.0504444444
20
29.7012444444
10
49.3248888889
20
29.5356222222
10
49.5778888889
20
29.3398666667
10
49.8171111111
20
29.114
10
50.0435555556
20
28.8647
10
50.2415555556
20
28.5988333333
10
50.417
20
28.3162222222
10
50.5717777778
20
28.0170333333
10
50.7011111111
20
27.7011111111
10
50.8106666667
20
27.3685333333
10
50.8933333333
20
27.0192222222
10
50.9564444444
20
26.6533333333
10
49.8536666667
20
26.6533333333
10
49.8007777778
20
26.9124333333
10
49.7433333333
20
27.1583888889
10
49.6667777778
20
27.3912666667
10
49.5778888889
20
27.6109777778
10
49.4705555556
20
27.8177111111
10
49.3523333333
20
28.0112777778
10
49.2254444444
20
28.1917666667
10
49.0772222222
20
28.3591888889
10
48.9202222222
20
28.5100222222
10
48.7433333333
20
28.6407777778
10
48.5616666667
20
28.7513777778
10
48.3698888889
20
28.8418222222
10
48.1582222222
20
28.9122555556
10
47.9338888889
20
28.9625333333
10
47.7036666667
20
28.9926555556
10
47.4532222222
20
29.0027
10
47.1806666667
20
28.9869
10
46.9166666667
20
28.9395
10
46.6601111111
20
28.8605777778
10
46.4073333333
20
28.7499777778
10
46.1644444444
20
28.6078555556
10
45.9252222222
20
28.4340555556
10
45.6911111111
20
28.2287444444
10
45.4656666667
20
27.9918222222
10
45.2564444444
20
27.7253222222
10
45.0747777778
20
27.4314222222
10
44.9228888889
20
27.1100555556
10
44.7975555556
20
26.7612111111
10
44.6978888889
20
26.3848888889
10
44.6314444444
20
25.9811777778
10
44.5878888889
20
25.5499888889
10
44.5734444444
20
25.0913222222
10
44.5878888889
20
24.6227666667
10
44.6314444444
20
24.1819333333
10
44.7023333333
20
23.7687888889
10
44.7975555556
20
23.3833666667
10
44.9228888889
20
23.0255777778
10
45.0747777778
20
22.6954888889
10
45.2564444444
20
22.3931111111
10
45.4656666667
20
22.1184444444
10
45.6943333333
20
21.8738111111
0
LWPOLYLINE
5
56
100
AcDbEntity
8
Engraving
6
ByLayer
62
256
370
-1
100
AcDbPolyline
90
70
70
1
43
0
10
55.7206666667
20
22.0829444444
10
55.8638888889
20
21.8835444444
10
56.0347777778
20
21.7110666667
10
56.2166666667
20
21.5620111111
10
56.4034444444
20
21.4327333333
10
56.5883333333
20
21.3234555556
10
56.7783333333
20
21.2339555556
10
56.9763333333
20
21.1643666667
10
57.1743333333
20
21.1147111111
10
57.3791111111
20
21.0849033333
10
57.5815555556
20
21.0749411111
10
57.7857777778
20
21.0849033333
10
57.989
20
21.1147111111
10
58.1867777778
20
21.1643666667
10
58.386
20
21.2339555556
10
58.5727777778
20
21.3234555556
10
58.7621111111
20
21.4327333333
10
58.9461111111
20
21.5620111111
10
59.1287777778
20
21.7110666667
10
59.2937777778
20
21.8835444444
10
59.4416666667
20
22.0829444444
10
59.5646666667
20
22.3092888889
10
59.6624444444
20
22.5624666667
10
59.7396666667
20
22.8425111111
10
59.7968888889
20
23.1495555556
10
59.833
20
23.4833777778
10
59.8448888889
20
23.8442111111
10
59.8448888889
20
29.9852555556
10
60.8264444444
20
29.9852555556
10
60.8264444444
20
23.8442111111
10
60.8131111111
20
23.3323111111
10
60.7664444444
20
22.8600222222
10
60.6978888889
20
22.4274333333
10
60.5902222222
20
22.0343777778
10
60.4613333333
20
21.6810222222
10
60.2994444444
20
21.3672777778
10
60.108
20
21.0931544444
10
59.8853333333
20
20.8587233333
10
59.6437777778
20
20.6574488889
10
59.3872222222
20
20.4830266667
10
59.1232222222
20
20.3354566667
10
58.8393333333
20
20.2146611111
10
58.5475555556
20
20.1207177778
10
58.2365555556
20
20.0536244444
10
57.9177777778
20
20.0133866667
10
57.5815555556
20
20
10
57.249
20
20.0133866667
10
56.9214444444
20
20.0536244444
10
56.6148888889
20
20.1207177778
10
56.3212222222
20
20.2146611111
10
56.0404444444
20
20.3354566667
10
55.7707777778
20
20.4830266667
10
55.5174444444
20
20.6574488889
10
55.2776666667
20
20.8587233333
10
55.0544444444
20
21.0931544444
10
54.8617777778
20
21.3672777778
10
54.7023333333
20
21.6810222222
10
54.5727777778
20
22.0343777778
10
54.4657777778
20
22.4274333333
10
54.3968888889
20
22.8600222222
10
54.3498888889
20
23.3323111111
10
54.3343333333
20
23.8442111111
10
54.3343333333
20
29.9852555556
10
55.3187777778
20
29.9852555556
10
55.3187777778
20
23.8442111111
10
55.3305555556
20
23.4833777778
10
55.3661111111
20
23.1495555556
10
55.4184444444
20
22.8425111111
10
55.5005555556
20
22.5624666667
10
55.6002222222
20
22.3092888889
0
LWPOLYLINE
5
57
100
AcDbEntity
8
Engraving
6
ByLayer
62
256
370
-1
100
AcDbPolyline
90
16
70
1
43
0
10
65.4148888889
20
29.9769222222
10
68.2505555556
20
22.4186333333
10
68.3551111111
20
22.4186333333
10
70.9091111111
20
29.9769222222
10
72.1618888889
20
29.9769222222
10
72.1618888889
20
19.9768844444
10
71.1801111111
20
19.9768844444
10
71.1801111111
20
27.3777222222
10
71.1157777778
20
27.3777222222
10
68.6302222222
20
20.0168111111
10
67.9754444444
20
20.0168111111
10
65.2056666667
20
27.3777222222
10
65.1422222222
20
27.3777222222
10
65.1422222222
20
19.9768844444
10
64.1597777778
20
19.9768844444
10
64.1597777778
20
29.9769222222
0
LWPOLYLINE
5
58
100
AcDbEntity
8
Engraving
6
ByLayer
62
256
370
-1
100
AcDbPolyline
90
4
70
1
43
0
10
76.4746666667
20
19.9768844444
10
75.4945555556
20
19.9768844444
10
75.4945555556
20
29.9769222222
10
76.4746666667
20
29.9769222222
0
ENDSEC
0
SECTION
2
OBJECTS
0
DICTIONARY
5
C
330
0
100
AcDbDictionary
281
1
3
ACAD_GROUP
350
D
0
DICTIONARY
5
D
330
C
100
AcDbDictionary
281
1
0
ENDSEC
0
EOF
