999
dxflib 2.2.0.0
  0
SECTION
  2
HEADER
  9
$ACADVER
  1
AC1015
  9
$HANDSEED
  5
FFFF
  9
$SNAPSTYLE
 70
0
  9
$DIMLFAC
 40
1.0
  9
$SPLINESEGS
 70
8
  9
$DIMEXE
 40
1.25
  9
$PSVPSCALE
 40
1.0
  9
$LIMMAX
 10
420.0
 20
297.0
  9
$DIMSCALE
 40
1.0
  9
$DIMLUNIT
 70
2
  9
$INSBASE
 10
0.0
 20
0.0
 30
0.0
  9
$GRIDMODE
 70
1
  9
$INSUNITS
 70
4
  9
$DIMADEC
 70
0
  9
$DIMASZ
 40
2.5
  9
$DIMGAP
 40
0.625
  9
$DIMTXT
 40
2.5
  9
$TEXTSTYLE
  7
STANDARD
  9
$LIMMIN
 10
0.0
 20
0.0
  9
$DIMEXO
 40
0.625
  9
$LUPREC
 70
4
  9
$EXTMAX
 10
113.0
 20
40.0
 30
0.0
  9
$CLAYER
  8
Engraving
  9
$DIMTIH
 70
0
  9
$PINSBASE
 10
0.0
 20
0.0
 30
0.0
  9
$ORTHOMODE
 70
0
  9
$DIMAUNIT
 70
0
  9
$DWGCODEPAGE
  3
ANSI_1252
  9
$LTSCALE
 40
1.0
  9
$AUPREC
 70
2
  9
$PLIMMIN
 10
0.0
 20
0.0
  9
$LUNITS
 70
2
  9
$EXTMIN
 10
7.0
 20
7.0
 30
0.0
  9
$PLIMMAX
 10
210.0
 20
297.0
  9
$DIMTSZ
 40
0.0
  9
$DIMSTYLE
  2
STANDARD
  9
$AUNITS
 70
0
  0
ENDSEC
  0
SECTION
  2
TABLES
  0
TABLE
  2
VPORT
  5
8
100
AcDbSymbolTable
 70
1
  0
VPORT
  5
30
100
AcDbSymbolTableRecord
100
AcDbViewportTableRecord
  2
*Active
 70
0
 10
0.0
 20
0.0
 11
1.0
 21
1.0
 12
286.3055555555554861
 22
148.5
 13
0.0
 23
0.0
 14
10.0
 24
10.0
 15
10.0
 25
10.0
 16
0.0
 26
0.0
 36
1.0
 17
0.0
 27
0.0
 37
0.0
 40
297.0
 41
1.92798353909465
 42
50.0
 43
0.0
 44
0.0
 50
0.0
 51
0.0
 71
0
 72
100
 73
1
 74
3
 75
1
 76
1
 77
0
 78
0
281
0
 65
1
110
0.0
120
0.0
130
0.0
111
1.0
121
0.0
131
0.0
112
0.0
122
1.0
132
0.0
 79
0
146
0.0
  0
ENDTAB
  0
TABLE
  2
LTYPE
  5
5
100
AcDbSymbolTable
 70
21
  0
LTYPE
  5
14
100
AcDbSymbolTableRecord
100
AcDbLinetypeTableRecord
  2
ByBlock
 70
0
  3

 72
65
 73
0
 40
0.0
  0
LTYPE
  5
15
100
AcDbSymbolTableRecord
100
AcDbLinetypeTableRecord
  2
ByLayer
 70
0
  3

 72
65
 73
0
 40
0.0
  0
LTYPE
  5
16
100
AcDbSymbolTableRecord
100
AcDbLinetypeTableRecord
  2
CONTINUOUS
 70
0
  3
Solid line
 72
65
 73
0
 40
0.0
  0
LTYPE
  5
31
100
AcDbSymbolTableRecord
100
AcDbLinetypeTableRecord
  2
DOT
 70
0
  3
Dot . . . . . . . . . . . . . . . . . . . . . .
 72
65
 73
2
 40
6.3499999999999996
 49
0.0
 74
0
 49
-6.3499999999999996
 74
0
  0
LTYPE
  5
32
100
AcDbSymbolTableRecord
100
AcDbLinetypeTableRecord
  2
DOT2
 70
0
  3
Dot (.5x) .....................................
 72
65
 73
2
 40
3.1749999999999998
 49
0.0
 74
0
 49
-3.1749999999999998
 74
0
  0
LTYPE
  5
33
100
AcDbSymbolTableRecord
100
AcDbLinetypeTableRecord
  2
DOTX2
 70
0
  3
Dot (2x) .  .  .  .  .  .  .  .  .  .  .  .  .
 72
65
 73
2
 40
12.6999999999999993
 49
0.0
 74
0
 49
-12.6999999999999993
 74
0
  0
LTYPE
  5
34
100
AcDbSymbolTableRecord
100
AcDbLinetypeTableRecord
  2
DASHED
 70
0
  3
Dashed __ __ __ __ __ __ __ __ __ __ __ __ __ _
 72
65
 73
2
 40
19.0500000000000007
 49
12.6999999999999993
 74
0
 49
-6.3499999999999996
 74
0
  0
LTYPE
  5
35
100
AcDbSymbolTableRecord
100
AcDbLinetypeTableRecord
  2
DASHED2
 70
0
  3
Dashed (.5x) _ _ _ _ _ _ _ _ _ _ _ _ _ _ _ _ _
 72
65
 73
2
 40
9.5250000000000004
 49
6.3499999999999996
 74
0
 49
-3.1749999999999998
 74
0
  0
LTYPE
  5
36
100
AcDbSymbolTableRecord
100
AcDbLinetypeTableRecord
  2
DASHEDX2
 70
0
  3
Dashed (2x) ____  ____  ____  ____  ____  ___
 72
65
 73
2
 40
38.1000000000000014
 49
25.3999999999999986
 74
0
 49
-12.6999999999999993
 74
0
  0
LTYPE
  5
37
100
AcDbSymbolTableRecord
100
AcDbLinetypeTableRecord
  2
DASHDOT
 70
0
  3
Dash dot __ . __ . __ . __ . __ . __ . __ . __
 72
65
 73
4
 40
25.3999999999999986
 49
12.6999999999999993
 74
0
 49
-6.3499999999999996
 74
0
 49
0.0
 74
0
 49
-6.3499999999999996
 74
0
  0
LTYPE
  5
38
100
AcDbSymbolTableRecord
100
AcDbLinetypeTableRecord
  2
DASHDOT2
 70
0
  3
Dash dot (.5x) _._._._._._._._._._._._._._._.
 72
65
 73
4
 40
12.6999999999999993
 49
6.3499999999999996
 74
0
 49
-3.1749999999999998
 74
0
 49
0.0
 74
0
 49
-3.1749999999999998
 74
0
  0
LTYPE
  5
39
100
AcDbSymbolTableRecord
100
AcDbLinetypeTableRecord
  2
DASHDOTX2
 70
0
  3
Dash dot (2x) ____  .  ____  .  ____  .  ___
 72
65
 73
4
 40
50.7999999999999972
 49
25.3999999999999986
 74
0
 49
-12.6999999999999993
 74
0
 49
0.0
 74
0
 49
-12.6999999999999993
 74
0
  0
LTYPE
  5
3A
100
AcDbSymbolTableRecord
100
AcDbLinetypeTableRecord
  2
DIVIDE
 70
0
  3
Divide ____ . . ____ . . ____ . . ____ . . ____
 72
65
 73
6
 40
31.75
 49
12.6999999999999993
 74
0
 49
-6.3499999999999996
 74
0
 49
0.0
 74
0
 49
-6.3499999999999996
 74
0
 49
0.0
 74
0
 49
-6.3499999999999996
 74
0
  0
LTYPE
  5
3B
100
AcDbSymbolTableRecord
100
AcDbLinetypeTableRecord
  2
DIVIDE2
 70
0
  3
Divide (.5x) __..__..__..__..__..__..__..__.._
 72
65
 73
6
 40
15.875
 49
6.3499999999999996
 74
0
 49
-3.1749999999999998
 74
0
 49
0.0
 74
0
 49
-3.1749999999999998
 74
0
 49
0.0
 74
0
 49
-3.1749999999999998
 74
0
  0
LTYPE
  5
3C
100
AcDbSymbolTableRecord
100
AcDbLinetypeTableRecord
  2
DIVIDEX2
 70
0
  3
Divide (2x) ________  .  .  ________  .  .  _
 72
65
 73
6
 40
63.5
 49
25.3999999999999986
 74
0
 49
-12.6999999999999993
 74
0
 49
0.0
 74
0
 49
-12.6999999999999993
 74
0
 49
0.0
 74
0
 49
-12.6999999999999993
 74
0
  0
LTYPE
  5
3D
100
AcDbSymbolTableRecord
100
AcDbLinetypeTableRecord
  2
CENTER
 70
0
  3
Center ____ _ ____ _ ____ _ ____ _ ____ _ ____
 72
65
 73
4
 40
50.7999999999999972
 49
31.75
 74
0
 49
-6.3499999999999996
 74
0
 49
6.3499999999999996
 74
0
 49
-6.3499999999999996
 74
0
  0
LTYPE
  5
3E
100
AcDbSymbolTableRecord
100
AcDbLinetypeTableRecord
  2
CENTER2
 70
0
  3
Center (.5x) ___ _ ___ _ ___ _ ___ _ ___ _ ___
 72
65
 73
4
 40
28.5749999999999993
 49
19.0500000000000007
 74
0
 49
-3.1749999999999998
 74
0
 49
3.1749999999999998
 74
0
 49
-3.1749999999999998
 74
0
  0
LTYPE
  5
3F
100
AcDbSymbolTableRecord
100
AcDbLinetypeTableRecord
  2
CENTERX2
 70
0
  3
Center (2x) ________  __  ________  __  _____
 72
65
 73
4
 40
101.5999999999999943
 49
63.5
 74
0
 49
-12.6999999999999993
 74
0
 49
12.6999999999999993
 74
0
 49
-12.6999999999999993
 74
0
  0
LTYPE
  5
40
100
AcDbSymbolTableRecord
100
AcDbLinetypeTableRecord
  2
BORDER
 70
0
  3
Border __ __ . __ __ . __ __ . __ __ . __ __ .
 72
65
 73
6
 40
44.4500000000000028
 49
12.6999999999999993
 74
0
 49
-6.3499999999999996
 74
0
 49
12.6999999999999993
 74
0
 49
-6.3499999999999996
 74
0
 49
0.0
 74
0
 49
-6.3499999999999996
 74
0
  0
LTYPE
  5
41
100
AcDbSymbolTableRecord
100
AcDbLinetypeTableRecord
  2
BORDER2
 70
0
  3
Border (.5x) __.__.__.__.__.__.__.__.__.__.__.
 72
65
 73
6
 40
22.2250000000000014
 49
6.3499999999999996
 74
0
 49
-3.1749999999999998
 74
0
 49
6.3499999999999996
 74
0
 49
-3.1749999999999998
 74
0
 49
0.0
 74
0
 49
-3.1749999999999998
 74
0
  0
LTYPE
  5
42
100
AcDbSymbolTableRecord
100
AcDbLinetypeTableRecord
  2
BORDERX2
 70
0
  3
Border (2x) ____  ____  .  ____  ____  .  ___
 72
65
 73
6
 40
88.9000000000000057
 49
25.3999999999999986
 74
0
 49
-12.6999999999999993
 74
0
 49
25.3999999999999986
 74
0
 49
-12.6999999999999993
 74
0
 49
0.0
 74
0
 49
-12.6999999999999993
 74
0
  0
ENDTAB
  0
TABLE
  2
LAYER
  5
2
100
AcDbSymbolTable
 70
3
  0
LAYER
  5
10
100
AcDbSymbolTableRecord
100
AcDbLayerTableRecord
  2
0
 70
0
 62
7
  6
CONTINUOUS
370
0
390
F
  0
LAYER
  5
43
100
AcDbSymbolTableRecord
100
AcDbLayerTableRecord
  2
Panel
 70
0
 62
1
  6
CONTINUOUS
370
0
390
F
  0
LAYER
  5
44
100
AcDbSymbolTableRecord
100
AcDbLayerTableRecord
  2
Engraving
 70
0
 62
7
  6
CONTINUOUS
370
0
390
F
  0
ENDTAB
  0
TABLE
  2
STYLE
  5
3
100
AcDbSymbolTable
 70
1
  0
STYLE
  5
11
100
AcDbSymbolTableRecord
100
AcDbTextStyleTableRecord
  2
Standard
 70
0
 40
0.0
 41
0.75
 50
0.0
 71
0
 42
2.5
  3
txt
  4

  0
ENDTAB
  0
TABLE
  2
VIEW
  5
6
100
AcDbSymbolTable
 70
0
  0
ENDTAB
  0
TABLE
  2
UCS
  5
7
100
AcDbSymbolTable
 70
0
  0
ENDTAB
  0
TABLE
  2
APPID
  5
9
100
AcDbSymbolTable
 70
1
  0
APPID
  5
12
100
AcDbSymbolTableRecord
100
AcDbRegAppTableRecord
  2
ACAD
 70
0
  0
ENDTAB
  0
TABLE
  2
DIMSTYLE
  5
A
100
AcDbSymbolTable
 70
1
100
AcDbDimStyleTable
 71
0
  0
DIMSTYLE
105
27
100
AcDbSymbolTableRecord
100
AcDbDimStyleTableRecord
  2
Standard
 41
2.5
 42
0.625
 43
3.75
 44
1.25
 70
0
 73
0
 74
0
 77
1
 78
8
140
2.5
141
2.5
143
0.03937007874016
147
0.625
171
3
172
1
271
2
272
2
274
3
278
44
283
0
284
8
340
11
  0
ENDTAB
  0
TABLE
  2
BLOCK_RECORD
  5
1
100
AcDbSymbolTable
 70
1
  0
BLOCK_RECORD
  5
1F
100
AcDbSymbolTableRecord
100
AcDbBlockTableRecord
  2
*Model_Space
340
22
  0
BLOCK_RECORD
  5
1B
100
AcDbSymbolTableRecord
100
AcDbBlockTableRecord
  2
*Paper_Space
340
1E
  0
BLOCK_RECORD
  5
23
100
AcDbSymbolTableRecord
100
AcDbBlockTableRecord
  2
*Paper_Space0
340
26
  0
ENDTAB
  0
ENDSEC
  0
SECTION
  2
BLOCKS
  0
BLOCK
  5
20
100
AcDbEntity
  8
0
100
AcDbBlockBegin
  2
*Model_Space
 70
0
 10
0.0
 20
0.0
 30
0.0
  3
*Model_Space
  1

  0
ENDBLK
  5
21
100
AcDbEntity
  8
0
100
AcDbBlockEnd
  0
BLOCK
  5
1C
100
AcDbEntity
 67
1
  8
0
100
AcDbBlockBegin
  2
*Paper_Space
 70
0
 10
0.0
 20
0.0
 30
0.0
  3
*Paper_Space
  1

  0
ENDBLK
  5
1D
100
AcDbEntity
 67
1
  8
0
100
AcDbBlockEnd
  0
BLOCK
  5
24
100
AcDbEntity
  8
0
100
AcDbBlockBegin
  2
*Paper_Space0
 70
0
 10
0.0
 20
0.0
 30
0.0
  3
*Paper_Space0
  1

  0
ENDBLK
  5
25
100
AcDbEntity
  8
0
100
AcDbBlockEnd
  0
ENDSEC
  0
SECTION
  2
ENTITIES
  0
LINE
  5
45
100
AcDbEntity
100
AcDbLine
  8
Panel
 62
256
370
-1
  6
ByLayer
 10
10.0
 20
40.0
 30
0.0
 11
110.0
 21
40.0
 31
0.0
  0
LINE
  5
46
100
AcDbEntity
100
AcDbLine
  8
Panel
 62
256
370
-1
  6
ByLayer
 10
10.0
 20
7.0
 30
0.0
 11
110.0
 21
7.0
 31
0.0
  0
LINE
  5
47
100
AcDbEntity
100
AcDbLine
  8
Panel
 62
256
370
-1
  6
ByLayer
 10
110.0
 20
20.0
 30
0.0
 11
113.0
 21
20.0
 31
0.0
  0
LINE
  5
48
100
AcDbEntity
100
AcDbLine
  8
Panel
 62
256
370
-1
  6
ByLayer
 10
113.0
 20
20.0
 30
0.0
 11
113.0
 21
30.0
 31
0.0
  0
LINE
  5
49
100
AcDbEntity
100
AcDbLine
  8
Panel
 62
256
370
-1
  6
ByLayer
 10
113.0
 20
30.0
 30
0.0
 11
110.0
 21
30.0
 31
0.0
  0
LINE
  5
4A
100
AcDbEntity
100
AcDbLine
  8
Panel
 62
256
370
-1
  6
ByLayer
 10
10.0
 20
30.0
 30
0.0
 11
7.0
 21
30.0
 31
0.0
  0
LINE
  5
4B
100
AcDbEntity
100
AcDbLine
  8
Panel
 62
256
370
-1
  6
ByLayer
 10
7.0
 20
30.0
 30
0.0
 11
7.0
 21
20.0
 31
0.0
  0
LINE
  5
4C
100
AcDbEntity
100
AcDbLine
  8
Panel
 62
256
370
-1
  6
ByLayer
 10
7.0
 20
20.0
 30
0.0
 11
10.0
 21
20.0
 31
0.0
  0
LINE
  5
4D
100
AcDbEntity
100
AcDbLine
  8
Panel
 62
256
370
-1
  6
ByLayer
 10
110.0
 20
7.0
 30
0.0
 11
110.0
 21
20.0
 31
0.0
  0
LINE
  5
4E
100
AcDbEntity
100
AcDbLine
  8
Panel
 62
256
370
-1
  6
ByLayer
 10
110.0
 20
40.0
 30
0.0
 11
110.0
 21
30.0
 31
0.0
  0
LINE
  5
4F
100
AcDbEntity
100
AcDbLine
  8
Panel
 62
256
370
-1
  6
ByLayer
 10
10.0
 20
40.0
 30
0.0
 11
10.0
 21
30.0
 31
0.0
  0
LINE
  5
50
100
AcDbEntity
100
AcDbLine
  8
Panel
 62
256
370
-1
  6
ByLayer
 10
10.0
 20
7.0
 30
0.0
 11
10.0
 21
20.0
 31
0.0
  0
LWPOLYLINE
  5
51
  8
Engraving
 62
256
370
-1
  6
ByLayer
100
AcDbEntity
100
AcDbPolyline
 90
40
 70
1
 10
51.804277777800003
 20
24.5685222221999986
 10
51.804277777800003
 20
19.9223233332999996
 10
50.8239444443999986
 20
19.9223233332999996
 10
50.8239444443999986
 20
29.9433111111000017
 10
53.5138333332999991
 20
29.9433111111000017
 10
53.9098333332999999
 20
29.9321777777999998
 10
54.2766111111000029
 20
29.8987888889000004
 10
54.6147222222000011
 20
29.8432111111000005
 10
54.9179444443999998
 20
29.7653777778000013
 10
55.1838333333000008
 20
29.665288888900001
 10
55.4262777778000029
 20
29.5429333332999988
 10
55.635833333299999
 20
29.3983999999999988
 10
55.8113888888999981
 20
29.2315333332999998
 10
55.9637222221999977
 20
29.0450444443999984
 10
56.0978333333000023
 20
28.8412000000000006
 10
56.2087222222000022
 20
28.6200777777999988
 10
56.2958333333000027
 20
28.3817555556000016
 10
56.3683888889000002
 20
28.1262333333000001
 10
56.4203888888999998
 20
27.8533555556000003
 10
56.4502777777999967
 20
27.5632666666999988
 10
56.4620555556000028
 20
27.2559111111000014
 10
56.4502777777999967
 20
26.9503444443999989
 10
56.4253888889000024
 20
26.6654777777999996
 10
56.3842777778000013
 20
26.4014666666999993
 10
56.3267222221999972
 20
26.1581666667000015
 10
56.2503888888999981
 20
25.9356444444000012
 10
56.1508333332999996
 20
25.7338222222000006
 10
56.0430555555999987
 20
25.5528666667000017
 10
55.9110555556000008
 20
25.392611111099999
 10
55.7674999999999983
 20
25.2496333333000003
 10
55.6133888888999977
 20
25.1203555555999998
 10
55.4490555555999975
 20
25.0049222222000012
 10
55.2728333332999995
 20
24.9031222222000004
 10
55.0829444443999989
 20
24.8151666667000015
 10
54.8811666666999969
 20
24.7409111111000009
 10
54.6694999999999993
 20
24.6803666666999995
 10
54.4466111110999975
 20
24.6335888889000003
 10
56.8001666667000009
 20
19.9223233332999996
 10
55.4863888889000023
 20
19.9223233332999996
 10
53.3008333332999982
 20
24.5685222221999986
  0
LWPOLYLINE
  5
52
  8
Engraving
 62
256
370
-1
  6
ByLayer
100
AcDbEntity
100
AcDbPolyline
 90
4
 70
1
 10
61.1183888889000002
 20
19.9768844443999996
 10
60.1333888889000008
 20
19.9768844443999996
 10
60.1333888889000008
 20
27.1425111110999993
 10
61.1183888889000002
 20
27.1425111110999993
  0
LWPOLYLINE
  5
53
  8
Engraving
 62
256
370
-1
  6
ByLayer
100
AcDbEntity
100
AcDbPolyline
 90
64
 70
1
 10
65.4362777778000009
 20
27.1488111110999988
 10
65.4362777778000009
 20
26.086477777799999
 10
65.6389444443999963
 20
26.3290888888999994
 10
65.8409444443999945
 20
26.5393111111000017
 10
66.0529444443999978
 20
26.7172333333000012
 10
66.2659444444000059
 20
26.8627777778000016
 10
66.4826111110999989
 20
26.9760333332999984
 10
66.7096111111000027
 20
27.0568999999999988
 10
66.9371666666999943
 20
27.1053777778000011
 10
67.1712777778000003
 20
27.1215666667000015
 10
67.3580555556000036
 20
27.1130888888999984
 10
67.5398333332999954
 20
27.0875555556000016
 10
67.719166666700005
 20
27.0450666666999986
 10
67.8948333332999994
 20
26.9856000000000016
 10
68.0679444443999984
 20
26.9091666666999991
 10
68.2335000000000065
 20
26.8156888888999987
 10
68.3953888889000012
 20
26.7052444444000017
 10
68.5498333333000005
 20
26.5777555555999996
 10
68.6992777778000061
 20
26.4275444443999987
 10
68.8226111111000023
 20
26.2488333332999986
 10
68.9327222221999989
 20
26.0414999999999992
 10
69.0156111111000001
 20
25.8056666666999988
 10
69.0866111110999981
 20
25.5412666667000003
 10
69.1363888889000009
 20
25.2483888888999992
 10
69.1634999999999991
 20
24.9269333332999992
 10
69.1756111110999967
 20
24.5769222222000003
 10
69.1756111110999967
 20
19.9705800000000018
 10
68.1923888888999983
 20
19.9705800000000018
 10
68.1923888888999983
 20
24.5769222222000003
 10
68.1837222222000037
 20
24.787700000000001
 10
68.1700555556000012
 20
24.9802444444000002
 10
68.1450555555999955
 20
25.1545222222000007
 10
68.1108333332999933
 20
25.3104111110999987
 10
68.0679444443999984
 20
25.4481777778000016
 10
68.0174999999999983
 20
25.5675777778000004
 10
67.9532777777999968
 20
25.6687555556000007
 10
67.8810555555999997
 20
25.7516444444000001
 10
67.7991666667000032
 20
25.8207666666999991
 10
67.7061666666999997
 20
25.8807000000000009
 10
67.6033888888999996
 20
25.9313555555999997
 10
67.492611111100004
 20
25.9728444443999997
 10
67.3742777778000033
 20
26.0051444443999991
 10
67.2422777777999983
 20
26.0281888889000008
 10
67.1052777777999978
 20
26.0419666666999987
 10
66.9596111111000027
 20
26.0466333333000009
 10
66.8032777778000053
 20
26.037677777799999
 10
66.6544999999999987
 20
26.0109111111000004
 10
66.5133888888999962
 20
25.9663111111000013
 10
66.3780555555999996
 20
25.9038111111000013
 10
66.2571666667000017
 20
25.8235666666999997
 10
66.1339444444000009
 20
25.725344444400001
 10
66.0256111111000052
 20
25.6093666667000015
 10
65.9159444443999973
 20
25.4755000000000003
 10
65.8198333332999965
 20
25.327933333299999
 10
65.7367222222000009
 20
25.170711111100001
 10
65.657611111099996
 20
25.0038333333000011
 10
65.5909444443999945
 20
24.8273111110999984
 10
65.5392777777999953
 20
24.6411333333000009
 10
65.492611111100004
 20
24.4453111111000005
 10
65.4615000000000009
 20
24.2398333332999982
 10
65.4362777778000009
 20
24.0247888889000016
 10
65.4362777778000009
 20
19.9705800000000018
 10
64.4514999999999958
 20
19.9705800000000018
 10
64.4514999999999958
 20
27.1488111110999988
  0
LWPOLYLINE
  5
54
  8
Engraving
 62
256
370
-1
  6
ByLayer
100
AcDbEntity
100
AcDbPolyline
 90
4
 70
1
 10
61.1183888889000002
 20
28.5996111110999998
 10
60.0677222221999969
 20
28.5996111110999998
 10
60.0677222221999969
 20
29.8089666667000017
 10
61.1183888889000002
 20
29.8089666667000017
  0
LWPOLYLINE
  5
55
  8
Engraving
 62
256
370
-1
  6
ByLayer
100
AcDbEntity
100
AcDbPolyline
 90
35
 70
1
 10
54.4879444444000001
 20
25.8799111111000002
 10
54.6669444444000021
 20
25.9373555555999999
 10
54.8210555555999974
 20
26.0075666667000007
 10
54.9497222222000019
 20
26.0905333333000016
 10
55.0549444444000002
 20
26.1861888888999985
 10
55.1339444444000009
 20
26.2922666667000016
 10
55.2087222222000022
 20
26.4062222222000003
 10
55.2697222222000022
 20
26.5280222222000006
 10
55.3226111111000023
 20
26.6578444443999985
 10
55.360611111099999
 20
26.7954555556000003
 10
55.391166666700002
 20
26.9410777778000003
 10
55.4067222222000026
 20
27.0945666667000005
 10
55.4103888889000018
 20
27.2559111111000014
 10
55.4067222222000026
 20
27.4173333333000002
 10
55.391166666700002
 20
27.5707444443999989
 10
55.360611111099999
 20
27.7163666667000008
 10
55.3226111111000023
 20
27.8540555555999987
 10
55.2697222222000022
 20
27.9837999999999987
 10
55.2087222222000022
 20
28.105599999999999
 10
55.1339444444000009
 20
28.2195555555999995
 10
55.0549444444000002
 20
28.3256333333000008
 10
54.9497222222000019
 20
28.4212888889000013
 10
54.8210555555999974
 20
28.5042666667000013
 10
54.6669444444000021
 20
28.5744666667000011
 10
54.4879444444000001
 20
28.6319111110999991
 10
54.2809444443999993
 20
28.6765888888999996
 10
54.0506111110999967
 20
28.7085000000000008
 10
53.7940555556000035
 20
28.7275666666999996
 10
53.5107222222000019
 20
28.7339444443999987
 10
51.804277777800003
 20
28.7339444443999987
 10
51.804277777800003
 20
25.7778777778000006
 10
53.5107222222000019
 20
25.7778777778000006
 10
53.7940555556000035
 20
25.7842555556000015
 10
54.0506111110999967
 20
25.8034111111000009
 10
54.2809444443999993
 20
25.8353222221999985
  0
ENDSEC
  0
SECTION
  2
OBJECTS
  0
DICTIONARY
  5
C
100
AcDbDictionary
280
0
281
1
  3
ACAD_GROUP
350
D
  3
ACAD_LAYOUT
350
1A
  3
ACAD_MLINESTYLE
350
17
  3
ACAD_PLOTSETTINGS
350
19
  3
ACAD_PLOTSTYLENAME
350
E
  3
AcDbVariableDictionary
350
56
  0
DICTIONARY
  5
D
100
AcDbDictionary
280
0
281
1
  0
ACDBDICTIONARYWDFLT
  5
E
100
AcDbDictionary
281
1
  3
Normal
350
F
100
AcDbDictionaryWithDefault
340
F
  0
ACDBPLACEHOLDER
  5
F
  0
DICTIONARY
  5
17
100
AcDbDictionary
280
0
281
1
  3
Standard
350
18
  0
MLINESTYLE
  5
18
100
AcDbMlineStyle
  2
STANDARD
 70
0
  3

 62
256
 51
90.0
 52
90.0
 71
2
 49
0.5
 62
256
  6
BYLAYER
 49
-0.5
 62
256
  6
BYLAYER
  0
DICTIONARY
  5
19
100
AcDbDictionary
280
0
281
1
  0
DICTIONARY
  5
1A
100
AcDbDictionary
281
1
  3
Layout1
350
1E
  3
Layout2
350
26
  3
Model
350
22
  0
LAYOUT
  5
1E
100
AcDbPlotSettings
  1

  2
C:\Program Files\AutoCAD 2002\plotters\DWF ePlot (optimized for plotting).pc3
  4

  6

 40
0.0
 41
0.0
 42
0.0
 43
0.0
 44
0.0
 45
0.0
 46
0.0
 47
0.0
 48
0.0
 49
0.0
140
0.0
141
0.0
142
1.0
143
1.0
 70
688
 72
0
 73
0
 74
5
  7

 75
16
147
1.0
148
0.0
149
0.0
100
AcDbLayout
  1
Layout1
 70
1
 71
1
 10
0.0
 20
0.0
 11
420.0
 21
297.0
 12
0.0
 22
0.0
 32
0.0
 14
100000000000000000000.0
 24
100000000000000000000.0
 34
100000000000000000000.0
 15
-100000000000000000000.0
 25
-100000000000000000000.0
 35
-100000000000000000000.0
146
0.0
 13
0.0
 23
0.0
 33
0.0
 16
1.0
 26
0.0
 36
0.0
 17
0.0
 27
1.0
 37
0.0
 76
0
330
1B
  0
LAYOUT
  5
22
100
AcDbPlotSettings
  1

  2
C:\Program Files\AutoCAD 2002\plotters\DWF ePlot (optimized for plotting).pc3
  4

  6

 40
0.0
 41
0.0
 42
0.0
 43
0.0
 44
0.0
 45
0.0
 46
0.0
 47
0.0
 48
0.0
 49
0.0
140
0.0
141
0.0
142
1.0
143
1.0
 70
1712
 72
0
 73
0
 74
0
  7

 75
0
147
1.0
148
0.0
149
0.0
100
AcDbLayout
  1
Model
 70
1
 71
0
 10
0.0
 20
0.0
 11
12.0
 21
9.0
 12
0.0
 22
0.0
 32
0.0
 14
0.0
 24
0.0
 34
0.0
 15
0.0
 25
0.0
 35
0.0
146
0.0
 13
0.0
 23
0.0
 33
0.0
 16
1.0
 26
0.0
 36
0.0
 17
0.0
 27
1.0
 37
0.0
 76
0
330
1F
  0
LAYOUT
  5
26
100
AcDbPlotSettings
  1

  2
C:\Program Files\AutoCAD 2002\plotters\DWF ePlot (optimized for plotting).pc3
  4

  6

 40
0.0
 41
0.0
 42
0.0
 43
0.0
 44
0.0
 45
0.0
 46
0.0
 47
0.0
 48
0.0
 49
0.0
140
0.0
141
0.0
142
1.0
143
1.0
 70
688
 72
0
 73
0
 74
5
  7

 75
16
147
1.0
148
0.0
149
0.0
100
AcDbLayout
  1
Layout2
 70
1
 71
2
 10
0.0
 20
0.0
 11
12.0
 21
9.0
 12
0.0
 22
0.0
 32
0.0
 14
0.0
 24
0.0
 34
0.0
 15
0.0
 25
0.0
 35
0.0
146
0.0
 13
0.0
 23
0.0
 33
0.0
 16
1.0
 26
0.0
 36
0.0
 17
0.0
 27
1.0
 37
0.0
 76
0
330
23
  0
DICTIONARY
  5
56
100
AcDbDictionary
281
1
  3
DIMASSOC
350
58
  3
HIDETEXT
350
57
  0
DICTIONARYVAR
  5
57
100
DictionaryVariables
280
0
  1
2
  0
DICTIONARYVAR
  5
58
100
DictionaryVariables
280
0
  1
1
  0
ENDSEC
  0
EOF
