999
dxfrw 0.5.10
0
SECTION
2
HEADER
9
$ACADVER
1
AC1021
9
$HANDSEED
5
20000
9
$DWGCODEPAGE
3
ANSI_1252
9
$INSBASE
10
0
20
0
30
0
9
$EXTMIN
10
7
20
7
30
0
9
$EXTMAX
10
113
20
40
30
0
9
$LIMMIN
10
0
20
0
9
$LIMMAX
10
420
20
297
9
$ORTHOMODE
70
0
9
$LTSCALE
40
1
9
$TEXTSTYLE
7
STANDARD
9
$CLAYER
8
Engraving
9
$DIMASZ
40
2.5
9
$DIMLFAC
40
1
9
$DIMSCALE
40
1
9
$DIMEXO
40
0.625
9
$DIMEXE
40
1.25
9
$DIMTXT
40
2.5
9
$DIMTSZ
40
0
9
$DIMAUNIT
70
0
9
$DIMADEC
70
0
9
$DIMLUNIT
70
2
9
$DIMSTYLE
2
STANDARD
9
$DIMGAP
40
0.625
9
$DIMTIH
70
0
9
$LUNITS
70
2
9
$LUPREC
70
4
9
$AUNITS
70
0
9
$AUPREC
70
2
9
$SPLINESEGS
70
8
9
$GRIDMODE
70
1
9
$SNAPSTYLE
70
0
9
$PINSBASE
10
0
20
0
30
0
9
$PLIMMIN
10
0
20
0
9
$PLIMMAX
10
210
20
297
9
$INSUNITS
70
4
9
$PSVPSCALE
40
1
0
ENDSEC
0
SECTION
2
CLASSES
0
ENDSEC
0
SECTION
2
TABLES
0
TABLE
2
VPORT
5
8
330
0
100
AcDbSymbolTable
70
1
0
VPORT
5
31
330
2
100
AcDbSymbolTableRecord
100
AcDbViewportTableRecord
2
*ACTIVE
70
0
10
0
20
0
11
1
21
1
12
56.9098360656
22
28.0639344262
13
0
23
0
14
10
24
10
15
10
25
10
16
0
26
0
36
1
17
0
27
0
37
0
40
65.1639344262
41
1.65333333333
42
50
43
0
44
0
50
0
51
0
71
0
72
100
73
1
74
3
75
0
76
1
77
0
78
0
281
0
65
1
110
0
120
0
130
0
111
1
121
0
131
0
112
0
122
1
132
0
79
0
146
0
348
10020
60
7
61
5
292
1
282
1
141
0
142
0
63
250
421
3358443
0
ENDTAB
0
TABLE
2
LTYPE
5
5
330
0
100
AcDbSymbolTable
70
4
0
LTYPE
5
14
330
5
100
AcDbSymbolTableRecord
100
AcDbLinetypeTableRecord
2
ByBlock
70
0
3

72
65
73
0
40
0
0
LTYPE
5
15
330
5
100
AcDbSymbolTableRecord
100
AcDbLinetypeTableRecord
2
ByLayer
70
0
3

72
65
73
0
40
0
0
LTYPE
5
16
330
5
100
AcDbSymbolTableRecord
100
AcDbLinetypeTableRecord
2
Continuous
70
0
3
Solid line
72
65
73
0
40
0
0
LTYPE
5
32
330
5
100
AcDbSymbolTableRecord
100
AcDbLinetypeTableRecord
2
DOT
70
0
3
Dot . . . . . . . . . . . . . . . . . . . . . .
72
65
73
2
40
6.35
49
0
74
0
49
-6.35
74
0
0
LTYPE
5
33
330
5
100
AcDbSymbolTableRecord
100
AcDbLinetypeTableRecord
2
DOT2
70
0
3
Dot (.5x) .....................................
72
65
73
2
40
3.175
49
0
74
0
49
-3.175
74
0
0
LTYPE
5
34
330
5
100
AcDbSymbolTableRecord
100
AcDbLinetypeTableRecord
2
DOTX2
70
0
3
Dot (2x) .  .  .  .  .  .  .  .  .  .  .  .  .
72
65
73
2
40
12.7
49
0
74
0
49
-12.7
74
0
0
LTYPE
5
35
330
5
100
AcDbSymbolTableRecord
100
AcDbLinetypeTableRecord
2
DASHED
70
0
3
Dot . . . . . . . . . . . . . . . . . . . . . .
72
65
73
2
40
19.05
49
12.7
74
0
49
-6.35
74
0
0
LTYPE
5
36
330
5
100
AcDbSymbolTableRecord
100
AcDbLinetypeTableRecord
2
DASHED2
70
0
3
Dashed (.5x) _ _ _ _ _ _ _ _ _ _ _ _ _ _ _ _ _
72
65
73
2
40
9.525
49
6.35
74
0
49
-3.175
74
0
0
LTYPE
5
37
330
5
100
AcDbSymbolTableRecord
100
AcDbLinetypeTableRecord
2
DASHEDX2
70
0
3
Dashed (2x) ____  ____  ____  ____  ____  ___
72
65
73
2
40
38.1
49
25.4
74
0
49
-12.7
74
0
0
LTYPE
5
38
330
5
100
AcDbSymbolTableRecord
100
AcDbLinetypeTableRecord
2
DASHDOT
70
0
3
Dash dot __ . __ . __ . __ . __ . __ . __ . __
72
65
73
4
40
25.4
49
12.7
74
0
49
-6.35
74
0
49
0
74
0
49
-6.35
74
0
0
LTYPE
5
39
330
5
100
AcDbSymbolTableRecord
100
AcDbLinetypeTableRecord
2
DASHDOT2
70
0
3
Dash dot (.5x) _._._._._._._._._._._._._._._.
72
65
73
4
40
12.7
49
6.35
74
0
49
-3.175
74
0
49
0
74
0
49
-3.175
74
0
0
LTYPE
5
3A
330
5
100
AcDbSymbolTableRecord
100
AcDbLinetypeTableRecord
2
DASHDOTX2
70
0
3
Dash dot (2x) ____  .  ____  .  ____  .  ___
72
65
73
4
40
50.8
49
25.4
74
0
49
-12.7
74
0
49
0
74
0
49
-12.7
74
0
0
LTYPE
5
3B
330
5
100
AcDbSymbolTableRecord
100
AcDbLinetypeTableRecord
2
DIVIDE
70
0
3
Divide ____ . . ____ . . ____ . . ____ . . ____
72
65
73
6
40
31.75
49
12.7
74
0
49
-6.35
74
0
49
0
74
0
49
-6.35
74
0
49
0
74
0
49
-6.35
74
0
0
LTYPE
5
3C
330
5
100
AcDbSymbolTableRecord
100
AcDbLinetypeTableRecord
2
DIVIDE2
70
0
3
Divide (.5x) __..__..__..__..__..__..__..__.._
72
65
73
6
40
15.875
49
6.35
74
0
49
-3.175
74
0
49
0
74
0
49
-3.175
74
0
49
0
74
0
49
-3.175
74
0
0
LTYPE
5
3D
330
5
100
AcDbSymbolTableRecord
100
AcDbLinetypeTableRecord
2
DIVIDEX2
70
0
3
Divide (2x) ________  .  .  ________  .  .  _
72
65
73
6
40
63.5
49
25.4
74
0
49
-12.7
74
0
49
0
74
0
49
-12.7
74
0
49
0
74
0
49
-12.7
74
0
0
LTYPE
5
3E
330
5
100
AcDbSymbolTableRecord
100
AcDbLinetypeTableRecord
2
BORDER
70
0
3
Border __ __ . __ __ . __ __ . __ __ . __ __ .
72
65
73
6
40
44.45
49
12.7
74
0
49
-6.35
74
0
49
12.7
74
0
49
-6.35
74
0
49
0
74
0
49
-6.35
74
0
0
LTYPE
5
3F
330
5
100
AcDbSymbolTableRecord
100
AcDbLinetypeTableRecord
2
BORDER2
70
0
3
Border (.5x) __.__.__.__.__.__.__.__.__.__.__.
72
65
73
6
40
22.225
49
6.35
74
0
49
-3.175
74
0
49
6.35
74
0
49
-3.175
74
0
49
0
74
0
49
-3.175
74
0
0
LTYPE
5
40
330
5
100
AcDbSymbolTableRecord
100
AcDbLinetypeTableRecord
2
BORDERX2
70
0
3
Border (2x) ____  ____  .  ____  ____  .  ___
72
65
73
6
40
88.9
49
25.4
74
0
49
-12.7
74
0
49
25.4
74
0
49
-12.7
74
0
49
0
74
0
49
-12.7
74
0
0
LTYPE
5
41
330
5
100
AcDbSymbolTableRecord
100
AcDbLinetypeTableRecord
2
CENTER
70
0
3
Center ____ _ ____ _ ____ _ ____ _ ____ _ ____
72
65
73
4
40
50.8
49
31.75
74
0
49
-6.35
74
0
49
6.35
74
0
49
-6.35
74
0
0
LTYPE
5
42
330
5
100
AcDbSymbolTableRecord
100
AcDbLinetypeTableRecord
2
CENTER2
70
0
3
Center (.5x) ___ _ ___ _ ___ _ ___ _ ___ _ ___
72
65
73
4
40
28.575
49
19.05
74
0
49
-3.175
74
0
49
3.175
74
0
49
-3.175
74
0
0
LTYPE
5
43
330
5
100
AcDbSymbolTableRecord
100
AcDbLinetypeTableRecord
2
CENTERX2
70
0
3
Center (2x) ________  __  ________  __  _____
72
65
73
4
40
101.6
49
63.5
74
0
49
-12.7
74
0
49
12.7
74
0
49
-12.7
74
0
0
ENDTAB
0
TABLE
2
LAYER
5
2
330
0
100
AcDbSymbolTable
70
1
0
LAYER
5
10
330
2
100
AcDbSymbolTableRecord
100
AcDbLayerTableRecord
2
0
70
0
62
7
6
CONTINUOUS
370
0
390
F
0
LAYER
5
44
330
2
100
AcDbSymbolTableRecord
100
AcDbLayerTableRecord
2
Panel
70
0
62
1
6
CONTINUOUS
370
0
390
F
0
LAYER
5
45
330
2
100
AcDbSymbolTableRecord
100
AcDbLayerTableRecord
2
Engraving
70
0
62
7
6
CONTINUOUS
370
0
390
F
0
ENDTAB
0
TABLE
2
STYLE
5
3
330
0
100
AcDbSymbolTable
70
3
0
STYLE
5
46
330
2
100
AcDbSymbolTableRecord
100
AcDbTextStyleTableRecord
2
Standard
70
0
40
0
41
1
50
0
71
0
42
1
3
txt
4

0
ENDTAB
0
TABLE
2
VIEW
5
6
330
0
100
AcDbSymbolTable
70
0
0
ENDTAB
0
TABLE
2
UCS
5
7
330
0
100
AcDbSymbolTable
70
0
0
ENDTAB
0
TABLE
2
APPID
5
9
330
0
100
AcDbSymbolTable
70
1
0
APPID
5
12
330
9
100
AcDbSymbolTableRecord
100
AcDbRegAppTableRecord
2
ACAD
70
0
0
ENDTAB
0
TABLE
2
DIMSTYLE
5
A
330
0
100
AcDbSymbolTable
70
1
100
AcDbDimStyleTable
71
1
0
DIMSTYLE
105
47
330
A
100
AcDbSymbolTableRecord
100
AcDbDimStyleTableRecord
2
Standard
70
0
40
1
41
2.5
42
0.625
43
0.38
44
1.25
45
0
46
0
47
0
48
0
140
2.5
141
0.09
142
0
143
25.4
144
1
145
0
146
1
147
0.625
148
0
71
0
72
0
73
0
74
1
75
0
76
0
77
0
78
0
79
0
170
0
171
2
172
0
173
0
174
0
175
0
176
0
177
0
178
0
179
0
271
4
272
4
273
2
274
2
275
0
276
0
277
2
278
46
279
0
280
0
281
0
282
0
283
1
284
0
285
0
286
0
288
0
289
3
340
Standard
341

371
-2
372
-2
0
ENDTAB
0
TABLE
2
BLOCK_RECORD
5
1
330
0
100
AcDbSymbolTable
70
2
0
BLOCK_RECORD
5
1F
330
1
100
AcDbSymbolTableRecord
100
AcDbBlockTableRecord
2
*Model_Space
70
0
280
1
281
0
0
BLOCK_RECORD
5
1E
330
1
100
AcDbSymbolTableRecord
100
AcDbBlockTableRecord
2
*Paper_Space
70
0
280
1
281
0
0
ENDTAB
0
ENDSEC
0
SECTION
2
BLOCKS
0
BLOCK
5
20
330
1F
100
AcDbEntity
8
0
100
AcDbBlockBegin
2
*Model_Space
70
0
10
0
20
0
30
0
3
*Model_Space
1

0
ENDBLK
5
21
330
1F
100
AcDbEntity
8
0
100
AcDbBlockEnd
0
BLOCK
5
1C
330
1B
100
AcDbEntity
8
0
100
AcDbBlockBegin
2
*Paper_Space
70
0
10
0
20
0
30
0
3
*Paper_Space
1

0
ENDBLK
5
1D
330
1F
100
AcDbEntity
8
0
100
AcDbBlockEnd
0
ENDSEC
0
SECTION
2
ENTITIES
0
LINE
5
48
100
AcDbEntity
8
Panel
6
ByLayer
62
256
370
-1
100
AcDbLine
10
10
20
40
11
110
21
40
0
LINE
5
49
100
AcDbEntity
8
Panel
6
ByLayer
62
256
370
-1
100
AcDbLine
10
10
20
7
11
110
21
7
0
LINE
5
4A
100
AcDbEntity
8
Panel
6
ByLayer
62
256
370
-1
100
AcDbLine
10
110
20
20
11
113
21
20
0
LINE
5
4B
100
AcDbEntity
8
Panel
6
ByLayer
62
256
370
-1
100
AcDbLine
10
113
20
20
11
113
21
30
0
LINE
5
4C
100
AcDbEntity
8
Panel
6
ByLayer
62
256
370
-1
100
AcDbLine
10
113
20
30
11
110
21
30
0
LINE
5
4D
100
AcDbEntity
8
Panel
6
ByLayer
62
256
370
-1
100
AcDbLine
10
10
20
30
11
7
21
30
0
LINE
5
4E
100
AcDbEntity
8
Panel
6
ByLayer
62
256
370
-1
100
AcDbLine
10
7
20
30
11
7
21
20
0
LINE
5
4F
100
AcDbEntity
8
Panel
6
ByLayer
62
256
370
-1
100
AcDbLine
10
7
20
20
11
10
21
20
0
LINE
5
50
100
AcDbEntity
8
Panel
6
ByLayer
62
256
370
-1
100
AcDbLine
10
110
20
7
11
110
21
20
0
LINE
5
51
100
AcDbEntity
8
Panel
6
ByLayer
62
256
370
-1
100
AcDbLine
10
110
20
40
11
110
21
30
0
LINE
5
52
100
AcDbEntity
8
Panel
6
ByLayer
62
256
370
-1
100
AcDbLine
10
10
20
40
11
10
21
30
0
LINE
5
53
100
AcDbEntity
8
Panel
6
ByLayer
62
256
370
-1
100
AcDbLine
10
10
20
20
11
10
21
7
0
LINE
5
54
100
AcDbEntity
8
Panel
6
ByLayer
62
256
370
-1
100
AcDbLine
10
10
20
7
11
10
21
20
0
LWPOLYLINE
5
55
100
AcDbEntity
8
Engraving
6
ByLayer
62
256
370
-1
100
AcDbPolyline
90
6
70
1
43
0
10
44.6994444444
20
30.0272777778
10
45.6813333333
20
30.0272777778
10
45.6813333333
20
21.2092777778
10
50.5171111111
20
21.2092777778
10
50.5171111111
20
20
10
44.6994444444
20
20
0
LWPOLYLINE
5
56
100
AcDbEntity
8
Engraving
6
ByLayer
62
256
370
-1
100
AcDbPolyline
90
64
70
1
43
0
10
55.4196666667
20
21.1901333333
10
55.533
20
21.1486444444
10
55.651
20
21.1164222222
10
55.7835555556
20
21.0933877778
10
55.924
20
21.0795333333
10
56.0703333333
20
21.0749411111
10
56.2241111111
20
21.0838922222
10
56.3694444444
20
21.1106644444
10
56.5105555556
20
21.1552666667
10
56.645
20
21.2176888889
10
56.7683333333
20
21.2980111111
10
56.8928888889
20
21.3961555556
10
57.0061111111
20
21.5121222222
10
57.107
20
21.646
10
57.2066666667
20
21.7935666667
10
57.2951111111
20
21.9507111111
10
57.3685555556
20
22.1174222222
10
57.4321111111
20
22.2937111111
10
57.4905555556
20
22.4795777778
10
57.5342222222
20
22.6750222222
10
57.5677777778
20
22.8801
10
57.5895555556
20
23.0946888889
10
57.5895555556
20
27.1509222222
10
58.5715555556
20
27.1509222222
10
58.5715555556
20
19.9747822222
10
57.5895555556
20
19.9747822222
10
57.5895555556
20
21.0350133333
10
57.391
20
20.7924877778
10
57.1848888889
20
20.5821855556
10
56.9775555556
20
20.4043388889
10
56.7633333333
20
20.2587144444
10
56.5404444444
20
20.1455444444
10
56.3175555556
20
20.0646755556
10
56.0896666667
20
20.0161888889
10
55.8585555556
20
20
10
55.6655555556
20
20.0084811111
10
55.4831111111
20
20.0339344444
10
55.3072222222
20
20.0764311111
10
55.1304444444
20
20.1358955556
10
54.9576666667
20
20.2124044444
10
54.7938888889
20
20.3058811111
10
54.6301111111
20
20.4163244444
10
54.4763333333
20
20.5437355556
10
54.3272222222
20
20.6939522222
10
54.2004444444
20
20.8727311111
10
54.0983333333
20
21.0799977778
10
54.0112222222
20
21.3158333333
10
53.939
20
21.5802222222
10
53.895
20
21.8731111111
10
53.8617777778
20
22.1946333333
10
53.8505555556
20
22.5445666667
10
53.8505555556
20
27.1509222222
10
54.8371111111
20
27.1509222222
10
54.8371111111
20
22.5445666667
10
54.8414444444
20
22.3338
10
54.8561111111
20
22.1413222222
10
54.881
20
21.9670555556
10
54.9165555556
20
21.8110777778
10
54.9576666667
20
21.6733888889
10
55.0124444444
20
21.5539222222
10
55.0756666667
20
21.4528111111
10
55.1444444444
20
21.3699222222
10
55.2303333333
20
21.3008111111
10
55.3212222222
20
21.2408777778
0
LWPOLYLINE
5
57
100
AcDbEntity
8
Engraving
6
ByLayer
62
256
370
-1
100
AcDbPolyline
90
12
70
1
43
0
10
66.3914444444
20
26.9326
10
64.7656666667
20
24.5034555556
10
67.2731111111
20
19.9768844444
10
66.0253333333
20
19.9768844444
10
64.0963333333
20
23.5209
10
62.8914444444
20
21.7215666667
10
62.8914444444
20
19.9768844444
10
61.9045555556
20
19.9768844444
10
61.9045555556
20
29.9769222222
10
62.8914444444
20
29.9769222222
10
62.8914444444
20
23.4285111111
10
65.2058888889
20
26.9326
0
LWPOLYLINE
5
58
100
AcDbEntity
8
Engraving
6
ByLayer
62
256
370
-1
100
AcDbPolyline
90
57
70
1
43
0
10
71.7183333333
20
22.4236222222
10
71.6884444444
20
22.3063222222
10
71.6697777778
20
22.1842
10
71.6585555556
20
22.0571888889
10
71.6523333333
20
21.9252555556
10
71.6585555556
20
21.7839111111
10
71.6722222222
20
21.6547888889
10
71.6946666667
20
21.5379666667
10
71.7298888889
20
21.4334333333
10
71.7706666667
20
21.3411222222
10
71.8204444444
20
21.2611111111
10
71.884
20
21.1934
10
71.95
20
21.1379111111
10
72.0246666667
20
21.0916733333
10
72.1043333333
20
21.0515888889
10
72.1813333333
20
21.0176566667
10
72.2613333333
20
20.9898711111
10
72.3465555556
20
20.9683111111
10
72.4294444444
20
20.9529
10
72.5162222222
20
20.9436377778
10
72.61
20
20.9406
10
72.7015555556
20
20.9472966667
10
72.7893333333
20
20.9601388889
10
72.8864444444
20
20.9790522222
10
72.9798888889
20
21.0041133333
10
73.0732222222
20
21.0352466667
10
73.1666666667
20
21.0724511111
10
73.2646666667
20
21.1158
10
73.3593333333
20
21.1652222222
10
73.4555555556
20
21.2264777778
10
73.549
20
21.3053222222
10
73.6461111111
20
21.4018333333
10
73.7332222222
20
21.5158555556
10
73.8223333333
20
21.6474777778
10
73.9101111111
20
21.7966777778
10
73.9985555556
20
21.9634
10
74.0837777778
20
22.1477777778
10
74.0837777778
20
23.9995666667
10
73.8553333333
20
23.9340333333
10
73.6373333333
20
23.8687333333
10
73.4362222222
20
23.8036555556
10
73.2494444444
20
23.7386666667
10
73.0782222222
20
23.674
10
72.9194444444
20
23.6094666667
10
72.7762222222
20
23.5451
10
72.6435555556
20
23.4809666667
10
72.5253333333
20
23.4149666667
10
72.412
20
23.3450777778
10
72.3111111111
20
23.2712888889
10
72.2114444444
20
23.1936111111
10
72.1231111111
20
23.1120444444
10
72.0414444444
20
23.0265
10
71.973
20
22.9370777778
10
71.9063333333
20
22.8437555556
10
71.8453333333
20
22.7460777778
10
71.7955555556
20
22.6434888889
10
71.752
20
22.5360111111
0
LWPOLYLINE
5
59
100
AcDbEntity
8
Engraving
6
ByLayer
62
256
370
-1
100
AcDbPolyline
90
134
70
1
43
0
10
74.1625555556
20
20.2000288889
10
74.0944444444
20
20.7621333333
10
74.0255555556
20
20.6792422222
10
73.9536666667
20
20.6005533333
10
73.8764444444
20
20.5262244444
10
73.7973333333
20
20.4560966667
10
73.7083333333
20
20.3902511111
10
73.6212222222
20
20.3286855556
10
73.5215555556
20
20.2714011111
10
73.4256666667
20
20.2183166667
10
73.3185555556
20
20.1703744444
10
73.2164444444
20
20.1283455556
10
73.1143333333
20
20.0921533333
10
73.0097777778
20
20.0619544444
10
72.9051111111
20
20.0375933333
10
72.8026666667
20
20.0191466667
10
72.7015555556
20
20.0066155556
10
72.6
20
20
10
72.3683333333
20
20.0073944444
10
72.1566666667
20
20.0294955556
10
71.95
20
20.0663888889
10
71.7613333333
20
20.1180688889
10
71.5838888889
20
20.1845377778
10
71.422
20
20.2657166667
10
71.27
20
20.3616866667
10
71.1355555556
20
20.4723611111
10
71.011
20
20.5980633333
10
70.902
20
20.7390144444
10
70.8126666667
20
20.8951488889
10
70.7382222222
20
21.0665355556
10
70.6782222222
20
21.2531
10
70.6374444444
20
21.4549222222
10
70.6124444444
20
21.6719888889
10
70.6062222222
20
21.9042444444
10
70.6124444444
20
22.0640333333
10
70.6262222222
20
22.2222666667
10
70.6592222222
20
22.3788666667
10
70.6946666667
20
22.5338333333
10
70.7494444444
20
22.6872333333
10
70.8126666667
20
22.8390111111
10
70.8876666667
20
22.9891444444
10
70.9705555556
20
23.1377333333
10
71.067
20
23.2828111111
10
71.1766666667
20
23.4225222222
10
71.2924444444
20
23.5569333333
10
71.422
20
23.6859777778
10
71.5638888889
20
23.8096555556
10
71.7112222222
20
23.9279666667
10
71.8731111111
20
24.0409666667
10
72.0476666667
20
24.1486111111
10
72.2345555556
20
24.2523666667
10
72.4368888889
20
24.3537
10
72.6638888889
20
24.4526333333
10
72.9075555556
20
24.5491444444
10
73.1716666667
20
24.6431555556
10
73.4555555556
20
24.7347666667
10
73.7578888889
20
24.8239666667
10
74.0837777778
20
24.9107444444
10
74.0837777778
20
25.0934222222
10
74.0741111111
20
25.2161666667
10
74.0651111111
20
25.3346222222
10
74.0471111111
20
25.4487222222
10
74.0196666667
20
25.5584666667
10
73.9847777778
20
25.6638555556
10
73.9372222222
20
25.7650333333
10
73.8876666667
20
25.8617777778
10
73.8304444444
20
25.9542444444
10
73.7606666667
20
26.0388444444
10
73.6853333333
20
26.1121666667
10
73.6012222222
20
26.1742777778
10
73.5025555556
20
26.2250222222
10
73.3988888889
20
26.2645666667
10
73.2824444444
20
26.2927333333
10
73.1622222222
20
26.3097
10
73.0258888889
20
26.3153111111
10
72.8964444444
20
26.3107111111
10
72.7805555556
20
26.2968666667
10
72.6734444444
20
26.2738222222
10
72.5688888889
20
26.2416
10
72.478
20
26.2001222222
10
72.3933333333
20
26.1493666667
10
72.3216666667
20
26.0895111111
10
72.2501111111
20
26.0203222222
10
72.1927777778
20
25.9428
10
72.1367777778
20
25.8575777778
10
72.087
20
25.7647222222
10
72.0414444444
20
25.6642444444
10
72.0047777778
20
25.5560555556
10
71.973
20
25.4403222222
10
71.9446666667
20
25.3168777778
10
71.917
20
25.1858111111
10
70.8926666667
20
25.1858111111
10
70.9266666667
20
25.4002333333
10
70.9705555556
20
25.6036888889
10
71.0358888889
20
25.7960888889
10
71.1155555556
20
25.9776
10
71.2133333333
20
26.1480444444
10
71.3313333333
20
26.3075222222
10
71.4605555556
20
26.4560333333
10
71.6118888889
20
26.5934777778
10
71.7706666667
20
26.7172333333
10
71.9362222222
20
26.8245666667
10
72.11
20
26.9153222222
10
72.28
20
26.9895666667
10
72.4617777778
20
27.0473222222
10
72.6435555556
20
27.0885666667
10
72.8304444444
20
27.1133222222
10
73.0258888889
20
27.1215666667
10
73.2438888889
20
27.112
10
73.4555555556
20
27.0833555556
10
73.656
20
27.0356444444
10
73.8472222222
20
26.9687888889
10
74.0222222222
20
26.8828666667
10
74.1903333333
20
26.7778666667
10
74.3496666667
20
26.6538
10
74.4928888889
20
26.5105888889
10
74.6286666667
20
26.3490888889
10
74.7466666667
20
26.1702333333
10
74.8403333333
20
25.9738555556
10
74.9225555556
20
25.7599777778
10
74.9835555556
20
25.5287333333
10
75.0302222222
20
25.2799888889
10
75.0551111111
20
25.0138
10
75.0657777778
20
24.7301777778
10
75.0657777778
20
21.4969444444
10
75.0657777778
20
21.2953666667
10
75.0801111111
20
21.0978988889
10
75.0993333333
20
20.9045666667
10
75.1205555556
20
20.7154311111
10
75.1547777778
20
20.5303466667
10
75.1952222222
20
20.3493888889
10
75.2425555556
20
20.1726322222
10
75.2998888889
20
20
10
74.1965555556
20
20
0
ENDSEC
0
SECTION
2
OBJECTS
0
DICTIONARY
5
C
330
0
100
AcDbDictionary
281
1
3
ACAD_GROUP
350
D
0
DICTIONARY
5
D
330
C
100
AcDbDictionary
281
1
0
ENDSEC
0
EOF
