999
dxfrw 0.5.10
0
SECTION
2
HEADER
9
$ACADVER
1
AC1021
9
$HANDSEED
5
20000
9
$DWGCODEPAGE
3
ANSI_1252
9
$INSBASE
10
0
20
0
30
0
9
$EXTMIN
10
7
20
7
30
0
9
$EXTMAX
10
113
20
40
30
0
9
$LIMMIN
10
0
20
0
9
$LIMMAX
10
420
20
297
9
$ORTHOMODE
70
0
9
$LTSCALE
40
1
9
$TEXTSTYLE
7
STANDARD
9
$CLAYER
8
Engraving
9
$DIMASZ
40
2.5
9
$DIMLFAC
40
1
9
$DIMSCALE
40
1
9
$DIMEXO
40
0.625
9
$DIMEXE
40
1.25
9
$DIMTXT
40
2.5
9
$DIMTSZ
40
0
9
$DIMAUNIT
70
0
9
$DIMADEC
70
0
9
$DIMLUNIT
70
2
9
$DIMSTYLE
2
STANDARD
9
$DIMGAP
40
0.625
9
$DIMTIH
70
0
9
$LUNITS
70
2
9
$LUPREC
70
4
9
$AUNITS
70
0
9
$AUPREC
70
2
9
$SPLINESEGS
70
8
9
$GRIDMODE
70
1
9
$SNAPSTYLE
70
0
9
$PINSBASE
10
0
20
0
30
0
9
$PLIMMIN
10
0
20
0
9
$PLIMMAX
10
210
20
297
9
$INSUNITS
70
4
9
$PSVPSCALE
40
1
0
ENDSEC
0
SECTION
2
CLASSES
0
ENDSEC
0
SECTION
2
TABLES
0
TABLE
2
VPORT
5
8
330
0
100
AcDbSymbolTable
70
1
0
VPORT
5
31
330
2
100
AcDbSymbolTableRecord
100
AcDbViewportTableRecord
2
*ACTIVE
70
0
10
0
20
0
11
1
21
1
12
56.9098360656
22
28.0639344262
13
0
23
0
14
10
24
10
15
10
25
10
16
0
26
0
36
1
17
0
27
0
37
0
40
65.1639344262
41
1.65333333333
42
50
43
0
44
0
50
0
51
0
71
0
72
100
73
1
74
3
75
0
76
1
77
0
78
0
281
0
65
1
110
0
120
0
130
0
111
1
121
0
131
0
112
0
122
1
132
0
79
0
146
0
348
10020
60
7
61
5
292
1
282
1
141
0
142
0
63
250
421
3358443
0
ENDTAB
0
TABLE
2
LTYPE
5
5
330
0
100
AcDbSymbolTable
70
4
0
LTYPE
5
14
330
5
100
AcDbSymbolTableRecord
100
AcDbLinetypeTableRecord
2
ByBlock
70
0
3

72
65
73
0
40
0
0
LTYPE
5
15
330
5
100
AcDbSymbolTableRecord
100
AcDbLinetypeTableRecord
2
ByLayer
70
0
3

72
65
73
0
40
0
0
LTYPE
5
16
330
5
100
AcDbSymbolTableRecord
100
AcDbLinetypeTableRecord
2
Continuous
70
0
3
Solid line
72
65
73
0
40
0
0
LTYPE
5
32
330
5
100
AcDbSymbolTableRecord
100
AcDbLinetypeTableRecord
2
DOT
70
0
3
Dot . . . . . . . . . . . . . . . . . . . . . .
72
65
73
2
40
6.35
49
0
74
0
49
-6.35
74
0
0
LTYPE
5
33
330
5
100
AcDbSymbolTableRecord
100
AcDbLinetypeTableRecord
2
DOT2
70
0
3
Dot (.5x) .....................................
72
65
73
2
40
3.175
49
0
74
0
49
-3.175
74
0
0
LTYPE
5
34
330
5
100
AcDbSymbolTableRecord
100
AcDbLinetypeTableRecord
2
DOTX2
70
0
3
Dot (2x) .  .  .  .  .  .  .  .  .  .  .  .  .
72
65
73
2
40
12.7
49
0
74
0
49
-12.7
74
0
0
LTYPE
5
35
330
5
100
AcDbSymbolTableRecord
100
AcDbLinetypeTableRecord
2
DASHED
70
0
3
Dot . . . . . . . . . . . . . . . . . . . . . .
72
65
73
2
40
19.05
49
12.7
74
0
49
-6.35
74
0
0
LTYPE
5
36
330
5
100
AcDbSymbolTableRecord
100
AcDbLinetypeTableRecord
2
DASHED2
70
0
3
Dashed (.5x) _ _ _ _ _ _ _ _ _ _ _ _ _ _ _ _ _
72
65
73
2
40
9.525
49
6.35
74
0
49
-3.175
74
0
0
LTYPE
5
37
330
5
100
AcDbSymbolTableRecord
100
AcDbLinetypeTableRecord
2
DASHEDX2
70
0
3
Dashed (2x) ____  ____  ____  ____  ____  ___
72
65
73
2
40
38.1
49
25.4
74
0
49
-12.7
74
0
0
LTYPE
5
38
330
5
100
AcDbSymbolTableRecord
100
AcDbLinetypeTableRecord
2
DASHDOT
70
0
3
Dash dot __ . __ . __ . __ . __ . __ . __ . __
72
65
73
4
40
25.4
49
12.7
74
0
49
-6.35
74
0
49
0
74
0
49
-6.35
74
0
0
LTYPE
5
39
330
5
100
AcDbSymbolTableRecord
100
AcDbLinetypeTableRecord
2
DASHDOT2
70
0
3
Dash dot (.5x) _._._._._._._._._._._._._._._.
72
65
73
4
40
12.7
49
6.35
74
0
49
-3.175
74
0
49
0
74
0
49
-3.175
74
0
0
LTYPE
5
3A
330
5
100
AcDbSymbolTableRecord
100
AcDbLinetypeTableRecord
2
DASHDOTX2
70
0
3
Dash dot (2x) ____  .  ____  .  ____  .  ___
72
65
73
4
40
50.8
49
25.4
74
0
49
-12.7
74
0
49
0
74
0
49
-12.7
74
0
0
LTYPE
5
3B
330
5
100
AcDbSymbolTableRecord
100
AcDbLinetypeTableRecord
2
DIVIDE
70
0
3
Divide ____ . . ____ . . ____ . . ____ . . ____
72
65
73
6
40
31.75
49
12.7
74
0
49
-6.35
74
0
49
0
74
0
49
-6.35
74
0
49
0
74
0
49
-6.35
74
0
0
LTYPE
5
3C
330
5
100
AcDbSymbolTableRecord
100
AcDbLinetypeTableRecord
2
DIVIDE2
70
0
3
Divide (.5x) __..__..__..__..__..__..__..__.._
72
65
73
6
40
15.875
49
6.35
74
0
49
-3.175
74
0
49
0
74
0
49
-3.175
74
0
49
0
74
0
49
-3.175
74
0
0
LTYPE
5
3D
330
5
100
AcDbSymbolTableRecord
100
AcDbLinetypeTableRecord
2
DIVIDEX2
70
0
3
Divide (2x) ________  .  .  ________  .  .  _
72
65
73
6
40
63.5
49
25.4
74
0
49
-12.7
74
0
49
0
74
0
49
-12.7
74
0
49
0
74
0
49
-12.7
74
0
0
LTYPE
5
3E
330
5
100
AcDbSymbolTableRecord
100
AcDbLinetypeTableRecord
2
BORDER
70
0
3
Border __ __ . __ __ . __ __ . __ __ . __ __ .
72
65
73
6
40
44.45
49
12.7
74
0
49
-6.35
74
0
49
12.7
74
0
49
-6.35
74
0
49
0
74
0
49
-6.35
74
0
0
LTYPE
5
3F
330
5
100
AcDbSymbolTableRecord
100
AcDbLinetypeTableRecord
2
BORDER2
70
0
3
Border (.5x) __.__.__.__.__.__.__.__.__.__.__.
72
65
73
6
40
22.225
49
6.35
74
0
49
-3.175
74
0
49
6.35
74
0
49
-3.175
74
0
49
0
74
0
49
-3.175
74
0
0
LTYPE
5
40
330
5
100
AcDbSymbolTableRecord
100
AcDbLinetypeTableRecord
2
BORDERX2
70
0
3
Border (2x) ____  ____  .  ____  ____  .  ___
72
65
73
6
40
88.9
49
25.4
74
0
49
-12.7
74
0
49
25.4
74
0
49
-12.7
74
0
49
0
74
0
49
-12.7
74
0
0
LTYPE
5
41
330
5
100
AcDbSymbolTableRecord
100
AcDbLinetypeTableRecord
2
CENTER
70
0
3
Center ____ _ ____ _ ____ _ ____ _ ____ _ ____
72
65
73
4
40
50.8
49
31.75
74
0
49
-6.35
74
0
49
6.35
74
0
49
-6.35
74
0
0
LTYPE
5
42
330
5
100
AcDbSymbolTableRecord
100
AcDbLinetypeTableRecord
2
CENTER2
70
0
3
Center (.5x) ___ _ ___ _ ___ _ ___ _ ___ _ ___
72
65
73
4
40
28.575
49
19.05
74
0
49
-3.175
74
0
49
3.175
74
0
49
-3.175
74
0
0
LTYPE
5
43
330
5
100
AcDbSymbolTableRecord
100
AcDbLinetypeTableRecord
2
CENTERX2
70
0
3
Center (2x) ________  __  ________  __  _____
72
65
73
4
40
101.6
49
63.5
74
0
49
-12.7
74
0
49
12.7
74
0
49
-12.7
74
0
0
ENDTAB
0
TABLE
2
LAYER
5
2
330
0
100
AcDbSymbolTable
70
1
0
LAYER
5
10
330
2
100
AcDbSymbolTableRecord
100
AcDbLayerTableRecord
2
0
70
0
62
7
6
CONTINUOUS
370
0
390
F
0
LAYER
5
44
330
2
100
AcDbSymbolTableRecord
100
AcDbLayerTableRecord
2
Panel
70
0
62
1
6
CONTINUOUS
370
0
390
F
0
LAYER
5
45
330
2
100
AcDbSymbolTableRecord
100
AcDbLayerTableRecord
2
Engraving
70
0
62
7
6
CONTINUOUS
370
0
390
F
0
ENDTAB
0
TABLE
2
STYLE
5
3
330
0
100
AcDbSymbolTable
70
3
0
STYLE
5
46
330
2
100
AcDbSymbolTableRecord
100
AcDbTextStyleTableRecord
2
Standard
70
0
40
0
41
1
50
0
71
0
42
1
3
txt
4

0
ENDTAB
0
TABLE
2
VIEW
5
6
330
0
100
AcDbSymbolTable
70
0
0
ENDTAB
0
TABLE
2
UCS
5
7
330
0
100
AcDbSymbolTable
70
0
0
ENDTAB
0
TABLE
2
APPID
5
9
330
0
100
AcDbSymbolTable
70
1
0
APPID
5
12
330
9
100
AcDbSymbolTableRecord
100
AcDbRegAppTableRecord
2
ACAD
70
0
0
ENDTAB
0
TABLE
2
DIMSTYLE
5
A
330
0
100
AcDbSymbolTable
70
1
100
AcDbDimStyleTable
71
1
0
DIMSTYLE
105
47
330
A
100
AcDbSymbolTableRecord
100
AcDbDimStyleTableRecord
2
Standard
70
0
40
1
41
2.5
42
0.625
43
0.38
44
1.25
45
0
46
0
47
0
48
0
140
2.5
141
0.09
142
0
143
25.4
144
1
145
0
146
1
147
0.625
148
0
71
0
72
0
73
0
74
1
75
0
76
0
77
0
78
0
79
0
170
0
171
2
172
0
173
0
174
0
175
0
176
0
177
0
178
0
179
0
271
4
272
4
273
2
274
2
275
0
276
0
277
2
278
46
279
0
280
0
281
0
282
0
283
1
284
0
285
0
286
0
288
0
289
3
340
Standard
341

371
-2
372
-2
0
ENDTAB
0
TABLE
2
BLOCK_RECORD
5
1
330
0
100
AcDbSymbolTable
70
2
0
BLOCK_RECORD
5
1F
330
1
100
AcDbSymbolTableRecord
100
AcDbBlockTableRecord
2
*Model_Space
70
0
280
1
281
0
0
BLOCK_RECORD
5
1E
330
1
100
AcDbSymbolTableRecord
100
AcDbBlockTableRecord
2
*Paper_Space
70
0
280
1
281
0
0
ENDTAB
0
ENDSEC
0
SECTION
2
BLOCKS
0
BLOCK
5
20
330
1F
100
AcDbEntity
8
0
100
AcDbBlockBegin
2
*Model_Space
70
0
10
0
20
0
30
0
3
*Model_Space
1

0
ENDBLK
5
21
330
1F
100
AcDbEntity
8
0
100
AcDbBlockEnd
0
BLOCK
5
1C
330
1B
100
AcDbEntity
8
0
100
AcDbBlockBegin
2
*Paper_Space
70
0
10
0
20
0
30
0
3
*Paper_Space
1

0
ENDBLK
5
1D
330
1F
100
AcDbEntity
8
0
100
AcDbBlockEnd
0
ENDSEC
0
SECTION
2
ENTITIES
0
LINE
5
48
100
AcDbEntity
8
Panel
6
ByLayer
62
256
370
-1
100
AcDbLine
10
10
20
40
11
110
21
40
0
LINE
5
49
100
AcDbEntity
8
Panel
6
ByLayer
62
256
370
-1
100
AcDbLine
10
10
20
7
11
110
21
7
0
LINE
5
4A
100
AcDbEntity
8
Panel
6
ByLayer
62
256
370
-1
100
AcDbLine
10
110
20
20
11
113
21
20
0
LINE
5
4B
100
AcDbEntity
8
Panel
6
ByLayer
62
256
370
-1
100
AcDbLine
10
113
20
20
11
113
21
30
0
LINE
5
4C
100
AcDbEntity
8
Panel
6
ByLayer
62
256
370
-1
100
AcDbLine
10
113
20
30
11
110
21
30
0
LINE
5
4D
100
AcDbEntity
8
Panel
6
ByLayer
62
256
370
-1
100
AcDbLine
10
10
20
30
11
7
21
30
0
LINE
5
4E
100
AcDbEntity
8
Panel
6
ByLayer
62
256
370
-1
100
AcDbLine
10
7
20
30
11
7
21
20
0
LINE
5
4F
100
AcDbEntity
8
Panel
6
ByLayer
62
256
370
-1
100
AcDbLine
10
7
20
20
11
10
21
20
0
LINE
5
50
100
AcDbEntity
8
Panel
6
ByLayer
62
256
370
-1
100
AcDbLine
10
110
20
7
11
110
21
20
0
LINE
5
51
100
AcDbEntity
8
Panel
6
ByLayer
62
256
370
-1
100
AcDbLine
10
110
20
40
11
110
21
30
0
LINE
5
52
100
AcDbEntity
8
Panel
6
ByLayer
62
256
370
-1
100
AcDbLine
10
10
20
40
11
10
21
30
0
LINE
5
53
100
AcDbEntity
8
Panel
6
ByLayer
62
256
370
-1
100
AcDbLine
10
10
20
20
11
10
21
7
0
LINE
5
54
100
AcDbEntity
8
Panel
6
ByLayer
62
256
370
-1
100
AcDbLine
10
10
20
7
11
10
21
20
0
LWPOLYLINE
5
55
100
AcDbEntity
8
Engraving
6
ByLayer
62
256
370
-1
100
AcDbPolyline
90
16
70
1
43
0
10
43.0955
20
22.4186333333
10
45.6495
20
29.9769222222
10
46.9022777778
20
29.9769222222
10
46.9022777778
20
19.9768844444
10
45.9205
20
19.9768844444
10
45.9205
20
27.3777222222
10
45.8561666667
20
27.3777222222
10
43.3706111111
20
20.0168111111
10
42.7158333333
20
20.0168111111
10
39.9460555556
20
27.3777222222
10
39.8826111111
20
27.3777222222
10
39.8826111111
20
19.9768844444
10
38.9001666667
20
19.9768844444
10
38.9001666667
20
29.9769222222
10
40.1552777778
20
29.9769222222
10
42.9909444444
20
22.4186333333
0
LWPOLYLINE
5
56
100
AcDbEntity
8
Engraving
6
ByLayer
62
256
370
-1
100
AcDbPolyline
90
12
70
1
43
0
10
50.2352777778
20
29.9517111111
10
55.7688333333
20
29.9517111111
10
55.7688333333
20
28.7696777778
10
51.2240555556
20
28.7696777778
10
51.2240555556
20
25.7778777778
10
55.1569444444
20
25.7778777778
10
55.1569444444
20
24.5685222222
10
51.2240555556
20
24.5685222222
10
51.2240555556
20
21.2092777778
10
55.7688333333
20
21.2092777778
10
55.7688333333
20
20
10
50.2352777778
20
20
0
LWPOLYLINE
5
57
100
AcDbEntity
8
Engraving
6
ByLayer
62
256
370
-1
100
AcDbPolyline
90
4
70
1
43
0
10
60.0816111111
20
19.9768844444
10
59.1015
20
19.9768844444
10
59.1015
20
29.9769222222
10
60.0816111111
20
29.9769222222
0
LWPOLYLINE
5
58
100
AcDbEntity
8
Engraving
6
ByLayer
62
256
370
-1
100
AcDbPolyline
90
12
70
1
43
0
10
69.2727222222
20
29.9769222222
10
66.7621666667
20
26.6554333333
10
70.0321666667
20
19.9768844444
10
68.7447222222
20
19.9768844444
10
66.0250555556
20
25.6854888889
10
64.4015
20
23.5335111111
10
64.4015
20
19.9768844444
10
63.4146111111
20
19.9768844444
10
63.4146111111
20
29.9769222222
10
64.4015
20
29.9769222222
10
64.4015
20
25.2130444444
10
67.9401666667
20
29.9769222222
0
LWPOLYLINE
5
59
100
AcDbEntity
8
Engraving
6
ByLayer
62
256
370
-1
100
AcDbPolyline
90
64
70
1
43
0
10
74.7630555556
20
27.1100555556
10
74.6366111111
20
26.7612111111
10
74.5367222222
20
26.3848888889
10
74.4709444444
20
25.9811777778
10
74.4273888889
20
25.5499888889
10
74.4161666667
20
25.0913222222
10
74.4273888889
20
24.6227666667
10
74.4709444444
20
24.1819333333
10
74.5367222222
20
23.7687888889
10
74.6366111111
20
23.3833666667
10
74.7630555556
20
23.0255777778
10
74.9140555556
20
22.6954888889
10
75.0936111111
20
22.3931111111
10
75.3028333333
20
22.1184444444
10
75.5288333333
20
21.8738111111
10
75.7623888889
20
21.6618777778
10
76.0018333333
20
21.4825444444
10
76.2492777778
20
21.3358333333
10
76.5020555556
20
21.2216555556
10
76.7636111111
20
21.1401666667
10
77.0363888889
20
21.0912077778
10
77.3115
20
21.0749411111
10
77.5818333333
20
21.0912077778
10
77.8513888889
20
21.1401666667
10
78.1048333333
20
21.2216555556
10
78.3495
20
21.3358333333
10
78.5867222222
20
21.4825444444
10
78.8146111111
20
21.6618777778
10
79.0288333333
20
21.8738111111
10
79.2418333333
20
22.1184444444
10
79.4267222222
20
22.3933444444
10
79.5929444444
20
22.6962666667
10
79.7337222222
20
23.0273666667
10
79.8470555556
20
23.3864777778
10
79.9379444444
20
23.7737777778
10
80.0013888889
20
24.1890888889
10
80.0369444444
20
24.6324222222
10
80.0533888889
20
25.1039333333
10
80.0369444444
20
25.5596333333
10
80.0013888889
20
25.9882555556
10
79.9379444444
20
26.3898666667
10
79.8470555556
20
26.7644
10
79.7337222222
20
27.1118444444
10
79.5929444444
20
27.4322
10
79.4267222222
20
27.7255555556
10
79.2418333333
20
27.9918222222
10
79.0288333333
20
28.2287444444
10
78.8146111111
20
28.4340555556
10
78.5867222222
20
28.6078555556
10
78.3495
20
28.7499777778
10
78.1048333333
20
28.8605777778
10
77.8513888889
20
28.9395
10
77.5818333333
20
28.9869
10
77.3115
20
29.0027
10
77.0363888889
20
28.9869
10
76.7636111111
20
28.9395
10
76.5020555556
20
28.8605777778
10
76.2492777778
20
28.7499777778
10
76.0018333333
20
28.6078555556
10
75.7623888889
20
28.4340555556
10
75.5288333333
20
28.2287444444
10
75.3028333333
20
27.9918222222
10
75.0936111111
20
27.7253222222
10
74.9140555556
20
27.4314222222
0
LWPOLYLINE
5
5A
100
AcDbEntity
8
Engraving
6
ByLayer
62
256
370
-1
100
AcDbPolyline
90
64
70
1
43
0
10
74.2343888889
20
28.1951111111
10
74.4983888889
20
28.5775777778
10
74.7941666667
20
28.9291555556
10
75.1011666667
20
29.2338666667
10
75.4292777778
20
29.4917222222
10
75.7695
20
29.7026444444
10
76.1335
20
29.8667222222
10
76.5082777778
20
29.9839333333
10
76.9018333333
20
30.0542111111
10
77.3115
20
30.0776444444
10
77.7187222222
20
30.0542111111
10
78.1048333333
20
29.9839333333
10
78.4759444444
20
29.8667222222
10
78.8258333333
20
29.7026444444
10
79.1617222222
20
29.4917222222
10
79.4721666667
20
29.2338666667
10
79.7672777778
20
28.9291555556
10
80.0431666667
20
28.5775777778
10
80.2866111111
20
28.1949555556
10
80.5045
20
27.7971555556
10
80.6888333333
20
27.3841
10
80.8345
20
26.9559444444
10
80.9538333333
20
26.5125333333
10
81.0338333333
20
26.0540222222
10
81.0829444444
20
25.5802666667
10
81.0998333333
20
25.0913222222
10
81.0829444444
20
24.5777777778
10
81.0338333333
20
24.0826888889
10
80.9538333333
20
23.6061222222
10
80.8345
20
23.1479222222
10
80.6888333333
20
22.7082555556
10
80.5045
20
22.2871
10
80.2866111111
20
21.8843222222
10
80.0431666667
20
21.5000666667
10
79.7672777778
20
21.1484888889
10
79.4721666667
20
20.8437766667
10
79.1617222222
20
20.5859966667
10
78.8258333333
20
20.3749955556
10
78.4759444444
20
20.2109255556
10
78.1048333333
20
20.09371
10
77.7187222222
20
20.0234277778
10
77.3115
20
20
10
76.9018333333
20
20.0234277778
10
76.5082777778
20
20.09371
10
76.1335
20
20.2109255556
10
75.7695
20
20.3749955556
10
75.4292777778
20
20.5859966667
10
75.1011666667
20
20.8437766667
10
74.7941666667
20
21.1484888889
10
74.4983888889
20
21.5000666667
10
74.2343888889
20
21.8845555556
10
74.0065
20
22.2878777778
10
73.8072777778
20
22.7100444444
10
73.6485
20
23.1511222222
10
73.5245
20
23.6110333333
10
73.4367222222
20
24.0897777778
10
73.3812777778
20
24.5874333333
10
73.3651666667
20
25.1039333333
10
73.3812777778
20
25.5899111111
10
73.4367222222
20
26.0611111111
10
73.5245
20
26.5175222222
10
73.6485
20
26.9591333333
10
73.8072777778
20
27.3858888889
10
74.0065
20
27.7979333333
0
ENDSEC
0
SECTION
2
OBJECTS
0
DICTIONARY
5
C
330
0
100
AcDbDictionary
281
1
3
ACAD_GROUP
350
D
0
DICTIONARY
5
D
330
C
100
AcDbDictionary
281
1
0
ENDSEC
0
EOF
