999
dxflib 2.2.0.0
  0
SECTION
  2
HEADER
  9
$ACADVER
  1
AC1015
  9
$HANDSEED
  5
FFFF
  9
$SNAPSTYLE
 70
0
  9
$DIMLFAC
 40
1.0
  9
$SPLINESEGS
 70
8
  9
$DIMEXE
 40
1.25
  9
$PSVPSCALE
 40
1.0
  9
$LIMMAX
 10
420.0
 20
297.0
  9
$DIMSCALE
 40
1.0
  9
$DIMLUNIT
 70
2
  9
$INSBASE
 10
0.0
 20
0.0
 30
0.0
  9
$GRIDMODE
 70
1
  9
$INSUNITS
 70
4
  9
$DIMADEC
 70
0
  9
$DIMASZ
 40
2.5
  9
$DIMGAP
 40
0.625
  9
$DIMTXT
 40
2.5
  9
$TEXTSTYLE
  7
STANDARD
  9
$LIMMIN
 10
0.0
 20
0.0
  9
$DIMEXO
 40
0.625
  9
$LUPREC
 70
4
  9
$EXTMAX
 10
113.0
 20
40.0
 30
0.0
  9
$CLAYER
  8
Engraving
  9
$DIMTIH
 70
0
  9
$PINSBASE
 10
0.0
 20
0.0
 30
0.0
  9
$ORTHOMODE
 70
0
  9
$DIMAUNIT
 70
0
  9
$DWGCODEPAGE
  3
ANSI_1252
  9
$LTSCALE
 40
1.0
  9
$AUPREC
 70
2
  9
$PLIMMIN
 10
0.0
 20
0.0
  9
$LUNITS
 70
2
  9
$EXTMIN
 10
7.0
 20
7.0
 30
0.0
  9
$PLIMMAX
 10
210.0
 20
297.0
  9
$DIMTSZ
 40
0.0
  9
$DIMSTYLE
  2
STANDARD
  9
$AUNITS
 70
0
  0
ENDSEC
  0
SECTION
  2
TABLES
  0
TABLE
  2
VPORT
  5
8
100
AcDbSymbolTable
 70
1
  0
VPORT
  5
30
100
AcDbSymbolTableRecord
100
AcDbViewportTableRecord
  2
*Active
 70
0
 10
0.0
 20
0.0
 11
1.0
 21
1.0
 12
286.3055555555554861
 22
148.5
 13
0.0
 23
0.0
 14
10.0
 24
10.0
 15
10.0
 25
10.0
 16
0.0
 26
0.0
 36
1.0
 17
0.0
 27
0.0
 37
0.0
 40
297.0
 41
1.92798353909465
 42
50.0
 43
0.0
 44
0.0
 50
0.0
 51
0.0
 71
0
 72
100
 73
1
 74
3
 75
1
 76
1
 77
0
 78
0
281
0
 65
1
110
0.0
120
0.0
130
0.0
111
1.0
121
0.0
131
0.0
112
0.0
122
1.0
132
0.0
 79
0
146
0.0
  0
ENDTAB
  0
TABLE
  2
LTYPE
  5
5
100
AcDbSymbolTable
 70
21
  0
LTYPE
  5
14
100
AcDbSymbolTableRecord
100
AcDbLinetypeTableRecord
  2
ByBlock
 70
0
  3

 72
65
 73
0
 40
0.0
  0
LTYPE
  5
15
100
AcDbSymbolTableRecord
100
AcDbLinetypeTableRecord
  2
ByLayer
 70
0
  3

 72
65
 73
0
 40
0.0
  0
LTYPE
  5
16
100
AcDbSymbolTableRecord
100
AcDbLinetypeTableRecord
  2
CONTINUOUS
 70
0
  3
Solid line
 72
65
 73
0
 40
0.0
  0
LTYPE
  5
31
100
AcDbSymbolTableRecord
100
AcDbLinetypeTableRecord
  2
DOT
 70
0
  3
Dot . . . . . . . . . . . . . . . . . . . . . .
 72
65
 73
2
 40
6.3499999999999996
 49
0.0
 74
0
 49
-6.3499999999999996
 74
0
  0
LTYPE
  5
32
100
AcDbSymbolTableRecord
100
AcDbLinetypeTableRecord
  2
DOT2
 70
0
  3
Dot (.5x) .....................................
 72
65
 73
2
 40
3.1749999999999998
 49
0.0
 74
0
 49
-3.1749999999999998
 74
0
  0
LTYPE
  5
33
100
AcDbSymbolTableRecord
100
AcDbLinetypeTableRecord
  2
DOTX2
 70
0
  3
Dot (2x) .  .  .  .  .  .  .  .  .  .  .  .  .
 72
65
 73
2
 40
12.6999999999999993
 49
0.0
 74
0
 49
-12.6999999999999993
 74
0
  0
LTYPE
  5
34
100
AcDbSymbolTableRecord
100
AcDbLinetypeTableRecord
  2
DASHED
 70
0
  3
Dashed __ __ __ __ __ __ __ __ __ __ __ __ __ _
 72
65
 73
2
 40
19.0500000000000007
 49
12.6999999999999993
 74
0
 49
-6.3499999999999996
 74
0
  0
LTYPE
  5
35
100
AcDbSymbolTableRecord
100
AcDbLinetypeTableRecord
  2
DASHED2
 70
0
  3
Dashed (.5x) _ _ _ _ _ _ _ _ _ _ _ _ _ _ _ _ _
 72
65
 73
2
 40
9.5250000000000004
 49
6.3499999999999996
 74
0
 49
-3.1749999999999998
 74
0
  0
LTYPE
  5
36
100
AcDbSymbolTableRecord
100
AcDbLinetypeTableRecord
  2
DASHEDX2
 70
0
  3
Dashed (2x) ____  ____  ____  ____  ____  ___
 72
65
 73
2
 40
38.1000000000000014
 49
25.3999999999999986
 74
0
 49
-12.6999999999999993
 74
0
  0
LTYPE
  5
37
100
AcDbSymbolTableRecord
100
AcDbLinetypeTableRecord
  2
DASHDOT
 70
0
  3
Dash dot __ . __ . __ . __ . __ . __ . __ . __
 72
65
 73
4
 40
25.3999999999999986
 49
12.6999999999999993
 74
0
 49
-6.3499999999999996
 74
0
 49
0.0
 74
0
 49
-6.3499999999999996
 74
0
  0
LTYPE
  5
38
100
AcDbSymbolTableRecord
100
AcDbLinetypeTableRecord
  2
DASHDOT2
 70
0
  3
Dash dot (.5x) _._._._._._._._._._._._._._._.
 72
65
 73
4
 40
12.6999999999999993
 49
6.3499999999999996
 74
0
 49
-3.1749999999999998
 74
0
 49
0.0
 74
0
 49
-3.1749999999999998
 74
0
  0
LTYPE
  5
39
100
AcDbSymbolTableRecord
100
AcDbLinetypeTableRecord
  2
DASHDOTX2
 70
0
  3
Dash dot (2x) ____  .  ____  .  ____  .  ___
 72
65
 73
4
 40
50.7999999999999972
 49
25.3999999999999986
 74
0
 49
-12.6999999999999993
 74
0
 49
0.0
 74
0
 49
-12.6999999999999993
 74
0
  0
LTYPE
  5
3A
100
AcDbSymbolTableRecord
100
AcDbLinetypeTableRecord
  2
DIVIDE
 70
0
  3
Divide ____ . . ____ . . ____ . . ____ . . ____
 72
65
 73
6
 40
31.75
 49
12.6999999999999993
 74
0
 49
-6.3499999999999996
 74
0
 49
0.0
 74
0
 49
-6.3499999999999996
 74
0
 49
0.0
 74
0
 49
-6.3499999999999996
 74
0
  0
LTYPE
  5
3B
100
AcDbSymbolTableRecord
100
AcDbLinetypeTableRecord
  2
DIVIDE2
 70
0
  3
Divide (.5x) __..__..__..__..__..__..__..__.._
 72
65
 73
6
 40
15.875
 49
6.3499999999999996
 74
0
 49
-3.1749999999999998
 74
0
 49
0.0
 74
0
 49
-3.1749999999999998
 74
0
 49
0.0
 74
0
 49
-3.1749999999999998
 74
0
  0
LTYPE
  5
3C
100
AcDbSymbolTableRecord
100
AcDbLinetypeTableRecord
  2
DIVIDEX2
 70
0
  3
Divide (2x) ________  .  .  ________  .  .  _
 72
65
 73
6
 40
63.5
 49
25.3999999999999986
 74
0
 49
-12.6999999999999993
 74
0
 49
0.0
 74
0
 49
-12.6999999999999993
 74
0
 49
0.0
 74
0
 49
-12.6999999999999993
 74
0
  0
LTYPE
  5
3D
100
AcDbSymbolTableRecord
100
AcDbLinetypeTableRecord
  2
CENTER
 70
0
  3
Center ____ _ ____ _ ____ _ ____ _ ____ _ ____
 72
65
 73
4
 40
50.7999999999999972
 49
31.75
 74
0
 49
-6.3499999999999996
 74
0
 49
6.3499999999999996
 74
0
 49
-6.3499999999999996
 74
0
  0
LTYPE
  5
3E
100
AcDbSymbolTableRecord
100
AcDbLinetypeTableRecord
  2
CENTER2
 70
0
  3
Center (.5x) ___ _ ___ _ ___ _ ___ _ ___ _ ___
 72
65
 73
4
 40
28.5749999999999993
 49
19.0500000000000007
 74
0
 49
-3.1749999999999998
 74
0
 49
3.1749999999999998
 74
0
 49
-3.1749999999999998
 74
0
  0
LTYPE
  5
3F
100
AcDbSymbolTableRecord
100
AcDbLinetypeTableRecord
  2
CENTERX2
 70
0
  3
Center (2x) ________  __  ________  __  _____
 72
65
 73
4
 40
101.5999999999999943
 49
63.5
 74
0
 49
-12.6999999999999993
 74
0
 49
12.6999999999999993
 74
0
 49
-12.6999999999999993
 74
0
  0
LTYPE
  5
40
100
AcDbSymbolTableRecord
100
AcDbLinetypeTableRecord
  2
BORDER
 70
0
  3
Border __ __ . __ __ . __ __ . __ __ . __ __ .
 72
65
 73
6
 40
44.4500000000000028
 49
12.6999999999999993
 74
0
 49
-6.3499999999999996
 74
0
 49
12.6999999999999993
 74
0
 49
-6.3499999999999996
 74
0
 49
0.0
 74
0
 49
-6.3499999999999996
 74
0
  0
LTYPE
  5
41
100
AcDbSymbolTableRecord
100
AcDbLinetypeTableRecord
  2
BORDER2
 70
0
  3
Border (.5x) __.__.__.__.__.__.__.__.__.__.__.
 72
65
 73
6
 40
22.2250000000000014
 49
6.3499999999999996
 74
0
 49
-3.1749999999999998
 74
0
 49
6.3499999999999996
 74
0
 49
-3.1749999999999998
 74
0
 49
0.0
 74
0
 49
-3.1749999999999998
 74
0
  0
LTYPE
  5
42
100
AcDbSymbolTableRecord
100
AcDbLinetypeTableRecord
  2
BORDERX2
 70
0
  3
Border (2x) ____  ____  .  ____  ____  .  ___
 72
65
 73
6
 40
88.9000000000000057
 49
25.3999999999999986
 74
0
 49
-12.6999999999999993
 74
0
 49
25.3999999999999986
 74
0
 49
-12.6999999999999993
 74
0
 49
0.0
 74
0
 49
-12.6999999999999993
 74
0
  0
ENDTAB
  0
TABLE
  2
LAYER
  5
2
100
AcDbSymbolTable
 70
3
  0
LAYER
  5
10
100
AcDbSymbolTableRecord
100
AcDbLayerTableRecord
  2
0
 70
0
 62
7
  6
CONTINUOUS
370
0
390
F
  0
LAYER
  5
43
100
AcDbSymbolTableRecord
100
AcDbLayerTableRecord
  2
Panel
 70
0
 62
1
  6
CONTINUOUS
370
0
390
F
  0
LAYER
  5
44
100
AcDbSymbolTableRecord
100
AcDbLayerTableRecord
  2
Engraving
 70
0
 62
7
  6
CONTINUOUS
370
0
390
F
  0
ENDTAB
  0
TABLE
  2
STYLE
  5
3
100
AcDbSymbolTable
 70
1
  0
STYLE
  5
11
100
AcDbSymbolTableRecord
100
AcDbTextStyleTableRecord
  2
Standard
 70
0
 40
0.0
 41
0.75
 50
0.0
 71
0
 42
2.5
  3
txt
  4

  0
ENDTAB
  0
TABLE
  2
VIEW
  5
6
100
AcDbSymbolTable
 70
0
  0
ENDTAB
  0
TABLE
  2
UCS
  5
7
100
AcDbSymbolTable
 70
0
  0
ENDTAB
  0
TABLE
  2
APPID
  5
9
100
AcDbSymbolTable
 70
1
  0
APPID
  5
12
100
AcDbSymbolTableRecord
100
AcDbRegAppTableRecord
  2
ACAD
 70
0
  0
ENDTAB
  0
TABLE
  2
DIMSTYLE
  5
A
100
AcDbSymbolTable
 70
1
100
AcDbDimStyleTable
 71
0
  0
DIMSTYLE
105
27
100
AcDbSymbolTableRecord
100
AcDbDimStyleTableRecord
  2
Standard
 41
2.5
 42
0.625
 43
3.75
 44
1.25
 70
0
 73
0
 74
0
 77
1
 78
8
140
2.5
141
2.5
143
0.03937007874016
147
0.625
171
3
172
1
271
2
272
2
274
3
278
44
283
0
284
8
340
11
  0
ENDTAB
  0
TABLE
  2
BLOCK_RECORD
  5
1
100
AcDbSymbolTable
 70
1
  0
BLOCK_RECORD
  5
1F
100
AcDbSymbolTableRecord
100
AcDbBlockTableRecord
  2
*Model_Space
340
22
  0
BLOCK_RECORD
  5
1B
100
AcDbSymbolTableRecord
100
AcDbBlockTableRecord
  2
*Paper_Space
340
1E
  0
BLOCK_RECORD
  5
23
100
AcDbSymbolTableRecord
100
AcDbBlockTableRecord
  2
*Paper_Space0
340
26
  0
ENDTAB
  0
ENDSEC
  0
SECTION
  2
BLOCKS
  0
BLOCK
  5
20
100
AcDbEntity
  8
0
100
AcDbBlockBegin
  2
*Model_Space
 70
0
 10
0.0
 20
0.0
 30
0.0
  3
*Model_Space
  1

  0
ENDBLK
  5
21
100
AcDbEntity
  8
0
100
AcDbBlockEnd
  0
BLOCK
  5
1C
100
AcDbEntity
 67
1
  8
0
100
AcDbBlockBegin
  2
*Paper_Space
 70
0
 10
0.0
 20
0.0
 30
0.0
  3
*Paper_Space
  1

  0
ENDBLK
  5
1D
100
AcDbEntity
 67
1
  8
0
100
AcDbBlockEnd
  0
BLOCK
  5
24
100
AcDbEntity
  8
0
100
AcDbBlockBegin
  2
*Paper_Space0
 70
0
 10
0.0
 20
0.0
 30
0.0
  3
*Paper_Space0
  1

  0
ENDBLK
  5
25
100
AcDbEntity
  8
0
100
AcDbBlockEnd
  0
ENDSEC
  0
SECTION
  2
ENTITIES
  0
LINE
  5
45
100
AcDbEntity
100
AcDbLine
  8
Panel
 62
256
370
-1
  6
ByLayer
 10
10.0
 20
40.0
 30
0.0
 11
110.0
 21
40.0
 31
0.0
  0
LINE
  5
46
100
AcDbEntity
100
AcDbLine
  8
Panel
 62
256
370
-1
  6
ByLayer
 10
10.0
 20
7.0
 30
0.0
 11
110.0
 21
7.0
 31
0.0
  0
LINE
  5
47
100
AcDbEntity
100
AcDbLine
  8
Panel
 62
256
370
-1
  6
ByLayer
 10
110.0
 20
20.0
 30
0.0
 11
113.0
 21
20.0
 31
0.0
  0
LINE
  5
48
100
AcDbEntity
100
AcDbLine
  8
Panel
 62
256
370
-1
  6
ByLayer
 10
113.0
 20
20.0
 30
0.0
 11
113.0
 21
30.0
 31
0.0
  0
LINE
  5
49
100
AcDbEntity
100
AcDbLine
  8
Panel
 62
256
370
-1
  6
ByLayer
 10
113.0
 20
30.0
 30
0.0
 11
110.0
 21
30.0
 31
0.0
  0
LINE
  5
4A
100
AcDbEntity
100
AcDbLine
  8
Panel
 62
256
370
-1
  6
ByLayer
 10
10.0
 20
30.0
 30
0.0
 11
7.0
 21
30.0
 31
0.0
  0
LINE
  5
4B
100
AcDbEntity
100
AcDbLine
  8
Panel
 62
256
370
-1
  6
ByLayer
 10
7.0
 20
30.0
 30
0.0
 11
7.0
 21
20.0
 31
0.0
  0
LINE
  5
4C
100
AcDbEntity
100
AcDbLine
  8
Panel
 62
256
370
-1
  6
ByLayer
 10
7.0
 20
20.0
 30
0.0
 11
10.0
 21
20.0
 31
0.0
  0
LINE
  5
4D
100
AcDbEntity
100
AcDbLine
  8
Panel
 62
256
370
-1
  6
ByLayer
 10
110.0
 20
7.0
 30
0.0
 11
110.0
 21
20.0
 31
0.0
  0
LINE
  5
4E
100
AcDbEntity
100
AcDbLine
  8
Panel
 62
256
370
-1
  6
ByLayer
 10
110.0
 20
40.0
 30
0.0
 11
110.0
 21
30.0
 31
0.0
  0
LINE
  5
4F
100
AcDbEntity
100
AcDbLine
  8
Panel
 62
256
370
-1
  6
ByLayer
 10
10.0
 20
40.0
 30
0.0
 11
10.0
 21
30.0
 31
0.0
  0
LINE
  5
50
100
AcDbEntity
100
AcDbLine
  8
Panel
 62
256
370
-1
  6
ByLayer
 10
10.0
 20
7.0
 30
0.0
 11
10.0
 21
20.0
 31
0.0
  0
LWPOLYLINE
  5
51
  8
Engraving
 62
256
370
-1
  6
ByLayer
100
AcDbEntity
100
AcDbPolyline
 90
6
 70
1
 10
44.699444444400001
 20
30.0272777777999984
 10
45.6813333333000031
 20
30.0272777777999984
 10
45.6813333333000031
 20
21.2092777778000006
 10
50.5171111111000002
 20
21.2092777778000006
 10
50.5171111111000002
 20
20.0
 10
44.699444444400001
 20
20.0
  0
LWPOLYLINE
  5
52
  8
Engraving
 62
256
370
-1
  6
ByLayer
100
AcDbEntity
100
AcDbPolyline
 90
64
 70
1
 10
55.4196666667000031
 20
21.1901333333000004
 10
55.5330000000000013
 20
21.1486444443999986
 10
55.6510000000000034
 20
21.1164222222000006
 10
55.7835555556000031
 20
21.0933877778000003
 10
55.9239999999999995
 20
21.0795333332999988
 10
56.0703333332999989
 20
21.0749411110999993
 10
56.2241111111000009
 20
21.0838922221999994
 10
56.3694444444000027
 20
21.1106644444000011
 10
56.5105555555999999
 20
21.1552666667000011
 10
56.6450000000000031
 20
21.2176888888999997
 10
56.7683333332999993
 20
21.2980111110999992
 10
56.8928888889000035
 20
21.3961555556
 10
57.0061111110999974
 20
21.5121222221999986
 10
57.1069999999999993
 20
21.6460000000000008
 10
57.2066666667000021
 20
21.7935666666999985
 10
57.2951111110999989
 20
21.9507111110999986
 10
57.3685555555999969
 20
22.1174222221999983
 10
57.4321111110999993
 20
22.2937111110999986
 10
57.4905555555999968
 20
22.4795777777999994
 10
57.5342222222000004
 20
22.6750222221999991
 10
57.5677777778000035
 20
22.8800999999999988
 10
57.5895555556000005
 20
23.0946888888999986
 10
57.5895555556000005
 20
27.1509222221999984
 10
58.5715555555999998
 20
27.1509222221999984
 10
58.5715555555999998
 20
19.9747822222000018
 10
57.5895555556000005
 20
19.9747822222000018
 10
57.5895555556000005
 20
21.0350133333000002
 10
57.3909999999999982
 20
20.7924877778000017
 10
57.184888888899998
 20
20.5821855555999988
 10
56.9775555555999986
 20
20.4043388888999999
 10
56.7633333332999968
 20
20.2587144443999989
 10
56.5404444444000021
 20
20.1455444443999987
 10
56.317555555600002
 20
20.0646755556000009
 10
56.0896666666999977
 20
20.0161888889000004
 10
55.8585555555999989
 20
20.0
 10
55.665555555600001
 20
20.0084811111
 10
55.4831111111000013
 20
20.0339344443999998
 10
55.3072222221999965
 20
20.0764311110999998
 10
55.1304444443999984
 20
20.1358955556000012
 10
54.9576666666999998
 20
20.2124044444000006
 10
54.7938888888999998
 20
20.3058811110999997
 10
54.6301111110999997
 20
20.4163244444000007
 10
54.4763333332999977
 20
20.5437355556000014
 10
54.3272222221999996
 20
20.6939522222000001
 10
54.2004444443999986
 20
20.8727311110999985
 10
54.0983333332999976
 20
21.0799977777999992
 10
54.0112222221999971
 20
21.3158333332999987
 10
53.9390000000000001
 20
21.5802222221999997
 10
53.8950000000000031
 20
21.8731111110999983
 10
53.8617777778000004
 20
22.1946333333000005
 10
53.8505555556000033
 20
22.5445666666999998
 10
53.8505555556000033
 20
27.1509222221999984
 10
54.8371111111000005
 20
27.1509222221999984
 10
54.8371111111000005
 20
22.5445666666999998
 10
54.8414444443999969
 20
22.3338000000000001
 10
54.8561111110999988
 20
22.1413222221999995
 10
54.8810000000000002
 20
21.9670555555999982
 10
54.9165555555999987
 20
21.8110777778000013
 10
54.9576666666999998
 20
21.6733888888999999
 10
55.0124444444000034
 20
21.5539222222000006
 10
55.0756666667000019
 20
21.4528111111000008
 10
55.1444444444000013
 20
21.3699222221999996
 10
55.2303333333000026
 20
21.3008111110999998
 10
55.3212222221999994
 20
21.2408777778000015
  0
LWPOLYLINE
  5
53
  8
Engraving
 62
256
370
-1
  6
ByLayer
100
AcDbEntity
100
AcDbPolyline
 90
12
 70
1
 10
66.391444444399994
 20
26.9326000000000008
 10
64.7656666666999996
 20
24.5034555555999987
 10
67.2731111110999933
 20
19.9768844443999996
 10
66.0253333332999972
 20
19.9768844443999996
 10
64.0963333332999952
 20
23.520900000000001
 10
62.8914444444000011
 20
21.7215666666999994
 10
62.8914444444000011
 20
19.9768844443999996
 10
61.9045555555999982
 20
19.9768844443999996
 10
61.9045555555999982
 20
29.9769222221999989
 10
62.8914444444000011
 20
29.9769222221999989
 10
62.8914444444000011
 20
23.4285111111000006
 10
65.2058888889000059
 20
26.9326000000000008
  0
LWPOLYLINE
  5
54
  8
Engraving
 62
256
370
-1
  6
ByLayer
100
AcDbEntity
100
AcDbPolyline
 90
57
 70
1
 10
71.718333333299995
 20
22.4236222221999988
 10
71.6884444444000053
 20
22.3063222221999986
 10
71.6697777777999931
 20
22.1842000000000006
 10
71.6585555556000031
 20
22.0571888889000007
 10
71.6523333333000068
 20
21.9252555555999997
 10
71.6585555556000031
 20
21.7839111111000001
 10
71.6722222222000056
 20
21.6547888889000006
 10
71.6946666667000017
 20
21.5379666667000009
 10
71.7298888889000068
 20
21.4334333332999982
 10
71.7706666666999951
 20
21.3411222221999992
 10
71.8204444443999961
 20
21.2611111111
 10
71.8840000000000003
 20
21.1934000000000005
 10
71.9500000000000028
 20
21.1379111110999993
 10
72.0246666667
 20
21.091673333300001
 10
72.1043333333000049
 20
21.0515888888999996
 10
72.1813333333000031
 20
21.0176566666999989
 10
72.2613333333000014
 20
20.9898711111000011
 10
72.3465555556000055
 20
20.9683111111000002
 10
72.429444444400005
 20
20.9528999999999996
 10
72.5162222221999997
 20
20.9436377777999994
 10
72.6099999999999994
 20
20.9405999999999999
 10
72.7015555555999953
 20
20.9472966667000016
 10
72.789333333299993
 20
20.9601388889000013
 10
72.8864444443999986
 20
20.9790522222
 10
72.9798888889000068
 20
21.0041133333000012
 10
73.0732222222000019
 20
21.0352466667000009
 10
73.1666666666999959
 20
21.0724511111000012
 10
73.2646666666999948
 20
21.1158000000000001
 10
73.3593333333000004
 20
21.1652222222000006
 10
73.4555555556000002
 20
21.2264777777999996
 10
73.5490000000000066
 20
21.3053222222000009
 10
73.646111111099998
 20
21.4018333333000008
 10
73.7332222221999984
 20
21.5158555556000017
 10
73.8223333332999943
 20
21.6474777777999989
 10
73.9101111110999938
 20
21.7966777777999994
 10
73.9985555556000065
 20
21.9634
 10
74.0837777777999946
 20
22.1477777777999982
 10
74.0837777777999946
 20
23.9995666667000016
 10
73.8553333332999955
 20
23.9340333333000004
 10
73.6373333333000062
 20
23.8687333332999998
 10
73.4362222222000014
 20
23.8036555555999989
 10
73.2494444443999981
 20
23.7386666666999986
 10
73.0782222221999973
 20
23.6739999999999995
 10
72.9194444443999998
 20
23.6094666667000013
 10
72.7762222222000048
 20
23.5451000000000015
 10
72.6435555556000025
 20
23.4809666666999988
 10
72.5253333332999972
 20
23.4149666666999998
 10
72.4120000000000061
 20
23.3450777778000003
 10
72.3111111111000042
 20
23.2712888888999991
 10
72.2114444444000014
 20
23.193611111100001
 10
72.1231111111000018
 20
23.1120444443999986
 10
72.0414444443999997
 20
23.0264999999999986
 10
71.972999999999999
 20
22.937077777799999
 10
71.9063333332999974
 20
22.8437555556000014
 10
71.8453333333000046
 20
22.7460777778000001
 10
71.7955555556000036
 20
22.6434888888999986
 10
71.7519999999999953
 20
22.5360111110999988
  0
LWPOLYLINE
  5
55
  8
Engraving
 62
256
370
-1
  6
ByLayer
100
AcDbEntity
100
AcDbPolyline
 90
134
 70
1
 10
74.1625555555999938
 20
20.2000288889000004
 10
74.094444444399997
 20
20.7621333332999995
 10
74.0255555555999933
 20
20.6792422221999992
 10
73.953666666700002
 20
20.6005533332999988
 10
73.8764444443999935
 20
20.5262244444000004
 10
73.7973333333000028
 20
20.4560966666999988
 10
73.7083333333000041
 20
20.3902511110999995
 10
73.6212222222000037
 20
20.3286855555999999
 10
73.5215555556000027
 20
20.2714011111000012
 10
73.4256666666999962
 20
20.2183166667000016
 10
73.3185555555999997
 20
20.1703744444000002
 10
73.2164444443999969
 20
20.1283455555999993
 10
73.1143333332999958
 20
20.0921533333000006
 10
73.0097777777999966
 20
20.0619544444000013
 10
72.9051111110999983
 20
20.0375933332999985
 10
72.8026666667000057
 20
20.0191466666999993
 10
72.7015555555999953
 20
20.0066155555999998
 10
72.5999999999999943
 20
20.0
 10
72.3683333333000007
 20
20.0073944443999991
 10
72.156666666700005
 20
20.0294955556000005
 10
71.9500000000000028
 20
20.0663888889000006
 10
71.7613333333000014
 20
20.1180688889000017
 10
71.583888888900006
 20
20.1845377777999992
 10
71.421999999999997
 20
20.2657166667000013
 10
71.269999999999996
 20
20.3616866666999989
 10
71.135555555600007
 20
20.4723611110999997
 10
71.0109999999999957
 20
20.5980633333000007
 10
70.902000000000001
 20
20.7390144443999986
 10
70.8126666666999967
 20
20.8951488888999997
 10
70.7382222221999939
 20
21.0665355556000016
 10
70.6782222222000058
 20
21.2530999999999999
 10
70.6374444444000034
 20
21.4549222222000004
 10
70.6124444443999977
 20
21.6719888888999996
 10
70.6062222222000031
 20
21.9042444443999997
 10
70.6124444443999977
 20
22.0640333332999994
 10
70.6262222221999991
 20
22.2222666667000013
 10
70.6592222222000004
 20
22.3788666666999987
 10
70.6946666667000017
 20
22.5338333332999987
 10
70.7494444443999981
 20
22.6872333333
 10
70.8126666666999967
 20
22.8390111110999996
 10
70.8876666666999995
 20
22.9891444444000008
 10
70.9705555556000007
 20
23.1377333333000017
 10
71.0669999999999931
 20
23.2828111110999991
 10
71.176666666700001
 20
23.4225222222000014
 10
71.2924444444000045
 20
23.5569333333000017
 10
71.421999999999997
 20
23.6859777778000016
 10
71.5638888888999958
 20
23.8096555555999991
 10
71.7112222222000071
 20
23.9279666667000015
 10
71.8731111111000018
 20
24.040966666700001
 10
72.0476666666999961
 20
24.1486111110999992
 10
72.2345555555999965
 20
24.2523666666999986
 10
72.4368888889000004
 20
24.3536999999999999
 10
72.6638888889000043
 20
24.4526333332999997
 10
72.9075555555999983
 20
24.5491444443999995
 10
73.1716666667000055
 20
24.6431555555999999
 10
73.4555555556000002
 20
24.7347666667000006
 10
73.7578888888999984
 20
24.8239666666999987
 10
74.0837777777999946
 20
24.9107444443999988
 10
74.0837777777999946
 20
25.093422222200001
 10
74.0741111110999952
 20
25.2161666667000013
 10
74.0651111110999949
 20
25.3346222222000002
 10
74.0471111110999942
 20
25.4487222222000007
 10
74.0196666667000045
 20
25.5584666666999993
 10
73.9847777778000051
 20
25.6638555556000014
 10
73.9372222222000062
 20
25.7650333332999999
 10
73.8876666666999995
 20
25.8617777778000004
 10
73.8304444444000012
 20
25.9542444444000004
 10
73.7606666667000042
 20
26.0388444443999987
 10
73.6853333332999938
 20
26.1121666666999985
 10
73.6012222221999934
 20
26.1742777778000004
 10
73.5025555555999972
 20
26.2250222221999998
 10
73.3988888889000037
 20
26.2645666666999986
 10
73.2824444443999994
 20
26.2927333332999993
 10
73.1622222222000005
 20
26.3096999999999994
 10
73.0258888888999991
 20
26.3153111111000015
 10
72.8964444444000037
 20
26.3107111111000016
 10
72.780555555600003
 20
26.2968666667000015
 10
72.6734444444000047
 20
26.2738222221999997
 10
72.5688888889000054
 20
26.2415999999999983
 10
72.4779999999999944
 20
26.200122222200001
 10
72.3933333333000064
 20
26.1493666667000006
 10
72.321666666699997
 20
26.0895111110999984
 10
72.2501111110999972
 20
26.0203222222000008
 10
72.1927777778000035
 20
25.9427999999999983
 10
72.1367777778000061
 20
25.8575777777999996
 10
72.0870000000000033
 20
25.7647222221999996
 10
72.0414444443999997
 20
25.6642444444000013
 10
72.0047777778000011
 20
25.5560555556000004
 10
71.972999999999999
 20
25.4403222221999989
 10
71.9446666667000017
 20
25.3168777777999985
 10
71.9170000000000016
 20
25.1858111111000014
 10
70.8926666666999949
 20
25.1858111111000014
 10
70.926666666700001
 20
25.400233333300001
 10
70.9705555556000007
 20
25.6036888888999989
 10
71.0358888889000042
 20
25.7960888889000017
 10
71.1155555555999968
 20
25.9775999999999989
 10
71.2133333332999996
 20
26.1480444444
 10
71.3313333332999946
 20
26.3075222221999994
 10
71.4605555555999956
 20
26.4560333332999988
 10
71.6118888888999976
 20
26.5934777778000004
 10
71.7706666666999951
 20
26.7172333333000012
 10
71.9362222222000014
 20
26.8245666667000009
 10
72.1099999999999994
 20
26.9153222222000004
 10
72.2800000000000011
 20
26.9895666667
 10
72.4617777777999947
 20
27.0473222221999983
 10
72.6435555556000025
 20
27.0885666667000002
 10
72.8304444444000012
 20
27.1133222222000008
 10
73.0258888888999991
 20
27.1215666667000015
 10
73.2438888889000026
 20
27.1119999999999983
 10
73.4555555556000002
 20
27.0833555556000007
 10
73.6560000000000059
 20
27.035644444399999
 10
73.8472222222000028
 20
26.9687888889000007
 10
74.0222222221999999
 20
26.8828666667
 10
74.1903333333000035
 20
26.7778666666999996
 10
74.3496666667000028
 20
26.6538000000000004
 10
74.4928888888999978
 20
26.5105888888999992
 10
74.6286666666999992
 20
26.349088888899999
 10
74.7466666666999942
 20
26.1702333333000006
 10
74.8403333332999949
 20
25.9738555556000001
 10
74.9225555555999989
 20
25.7599777777999996
 10
74.983555555600006
 20
25.5287333332999999
 10
75.0302222221999955
 20
25.2799888889000002
 10
75.055111111100004
 20
25.0137999999999998
 10
75.0657777777999939
 20
24.7301777778000016
 10
75.0657777777999939
 20
21.4969444444000004
 10
75.0657777777999939
 20
21.2953666667000014
 10
75.0801111110999955
 20
21.0978988889000014
 10
75.0993333332999953
 20
20.9045666666999992
 10
75.1205555556000064
 20
20.7154311110999991
 10
75.1547777778000068
 20
20.5303466667000016
 10
75.1952222222000017
 20
20.3493888888999983
 10
75.2425555556000063
 20
20.1726322222000007
 10
75.2998888889
 20
20.0
 10
74.1965555555999998
 20
20.0
  0
ENDSEC
  0
SECTION
  2
OBJECTS
  0
DICTIONARY
  5
C
100
AcDbDictionary
280
0
281
1
  3
ACAD_GROUP
350
D
  3
ACAD_LAYOUT
350
1A
  3
ACAD_MLINESTYLE
350
17
  3
ACAD_PLOTSETTINGS
350
19
  3
ACAD_PLOTSTYLENAME
350
E
  3
AcDbVariableDictionary
350
56
  0
DICTIONARY
  5
D
100
AcDbDictionary
280
0
281
1
  0
ACDBDICTIONARYWDFLT
  5
E
100
AcDbDictionary
281
1
  3
Normal
350
F
100
AcDbDictionaryWithDefault
340
F
  0
ACDBPLACEHOLDER
  5
F
  0
DICTIONARY
  5
17
100
AcDbDictionary
280
0
281
1
  3
Standard
350
18
  0
MLINESTYLE
  5
18
100
AcDbMlineStyle
  2
STANDARD
 70
0
  3

 62
256
 51
90.0
 52
90.0
 71
2
 49
0.5
 62
256
  6
BYLAYER
 49
-0.5
 62
256
  6
BYLAYER
  0
DICTIONARY
  5
19
100
AcDbDictionary
280
0
281
1
  0
DICTIONARY
  5
1A
100
AcDbDictionary
281
1
  3
Layout1
350
1E
  3
Layout2
350
26
  3
Model
350
22
  0
LAYOUT
  5
1E
100
AcDbPlotSettings
  1

  2
C:\Program Files\AutoCAD 2002\plotters\DWF ePlot (optimized for plotting).pc3
  4

  6

 40
0.0
 41
0.0
 42
0.0
 43
0.0
 44
0.0
 45
0.0
 46
0.0
 47
0.0
 48
0.0
 49
0.0
140
0.0
141
0.0
142
1.0
143
1.0
 70
688
 72
0
 73
0
 74
5
  7

 75
16
147
1.0
148
0.0
149
0.0
100
AcDbLayout
  1
Layout1
 70
1
 71
1
 10
0.0
 20
0.0
 11
420.0
 21
297.0
 12
0.0
 22
0.0
 32
0.0
 14
100000000000000000000.0
 24
100000000000000000000.0
 34
100000000000000000000.0
 15
-100000000000000000000.0
 25
-100000000000000000000.0
 35
-100000000000000000000.0
146
0.0
 13
0.0
 23
0.0
 33
0.0
 16
1.0
 26
0.0
 36
0.0
 17
0.0
 27
1.0
 37
0.0
 76
0
330
1B
  0
LAYOUT
  5
22
100
AcDbPlotSettings
  1

  2
C:\Program Files\AutoCAD 2002\plotters\DWF ePlot (optimized for plotting).pc3
  4

  6

 40
0.0
 41
0.0
 42
0.0
 43
0.0
 44
0.0
 45
0.0
 46
0.0
 47
0.0
 48
0.0
 49
0.0
140
0.0
141
0.0
142
1.0
143
1.0
 70
1712
 72
0
 73
0
 74
0
  7

 75
0
147
1.0
148
0.0
149
0.0
100
AcDbLayout
  1
Model
 70
1
 71
0
 10
0.0
 20
0.0
 11
12.0
 21
9.0
 12
0.0
 22
0.0
 32
0.0
 14
0.0
 24
0.0
 34
0.0
 15
0.0
 25
0.0
 35
0.0
146
0.0
 13
0.0
 23
0.0
 33
0.0
 16
1.0
 26
0.0
 36
0.0
 17
0.0
 27
1.0
 37
0.0
 76
0
330
1F
  0
LAYOUT
  5
26
100
AcDbPlotSettings
  1

  2
C:\Program Files\AutoCAD 2002\plotters\DWF ePlot (optimized for plotting).pc3
  4

  6

 40
0.0
 41
0.0
 42
0.0
 43
0.0
 44
0.0
 45
0.0
 46
0.0
 47
0.0
 48
0.0
 49
0.0
140
0.0
141
0.0
142
1.0
143
1.0
 70
688
 72
0
 73
0
 74
5
  7

 75
16
147
1.0
148
0.0
149
0.0
100
AcDbLayout
  1
Layout2
 70
1
 71
2
 10
0.0
 20
0.0
 11
12.0
 21
9.0
 12
0.0
 22
0.0
 32
0.0
 14
0.0
 24
0.0
 34
0.0
 15
0.0
 25
0.0
 35
0.0
146
0.0
 13
0.0
 23
0.0
 33
0.0
 16
1.0
 26
0.0
 36
0.0
 17
0.0
 27
1.0
 37
0.0
 76
0
330
23
  0
DICTIONARY
  5
56
100
AcDbDictionary
281
1
  3
DIMASSOC
350
58
  3
HIDETEXT
350
57
  0
DICTIONARYVAR
  5
57
100
DictionaryVariables
280
0
  1
2
  0
DICTIONARYVAR
  5
58
100
DictionaryVariables
280
0
  1
1
  0
ENDSEC
  0
EOF
