999
dxfrw 0.5.10
0
SECTION
2
HEADER
9
$ACADVER
1
AC1021
9
$HANDSEED
5
20000
9
$DWGCODEPAGE
3
ANSI_1252
9
$INSBASE
10
0
20
0
30
0
9
$EXTMIN
10
7
20
-1.66533453694e-16
30
0
9
$EXTMAX
10
113
20
110
30
0
9
$LIMMIN
10
0
20
0
9
$LIMMAX
10
420
20
297
9
$ORTHOMODE
70
0
9
$LTSCALE
40
1
9
$TEXTSTYLE
7
STANDARD
9
$CLAYER
8
Engraving
9
$DIMASZ
40
2.5
9
$DIMLFAC
40
1
9
$DIMSCALE
40
1
9
$DIMEXO
40
0.625
9
$DIMEXE
40
1.25
9
$DIMTXT
40
2.5
9
$DIMTSZ
40
0
9
$DIMAUNIT
70
0
9
$DIMADEC
70
0
9
$DIMLUNIT
70
2
9
$DIMSTYLE
2
STANDARD
9
$DIMGAP
40
0.625
9
$DIMTIH
70
0
9
$LUNITS
70
2
9
$LUPREC
70
4
9
$AUNITS
70
0
9
$AUPREC
70
2
9
$SPLINESEGS
70
8
9
$GRIDMODE
70
1
9
$SNAPSTYLE
70
0
9
$PINSBASE
10
0
20
0
30
0
9
$PLIMMIN
10
0
20
0
9
$PLIMMAX
10
210
20
297
9
$INSUNITS
70
4
9
$PSVPSCALE
40
1
0
ENDSEC
0
SECTION
2
CLASSES
0
ENDSEC
0
SECTION
2
TABLES
0
TABLE
2
VPORT
5
8
330
0
100
AcDbSymbolTable
70
1
0
VPORT
5
31
330
2
100
AcDbSymbolTableRecord
100
AcDbViewportTableRecord
2
*ACTIVE
70
0
10
0
20
0
11
1
21
1
12
76.2253852739
22
66.218964041
13
0
23
0
14
10
24
10
15
10
25
10
16
0
26
0
36
1
17
0
27
0
37
0
40
220.729880137
41
1.65333333333
42
50
43
0
44
0
50
0
51
0
71
0
72
100
73
1
74
3
75
0
76
1
77
0
78
0
281
0
65
1
110
0
120
0
130
0
111
1
121
0
131
0
112
0
122
1
132
0
79
0
146
0
348
10020
60
7
61
5
292
1
282
1
141
0
142
0
63
250
421
3358443
0
ENDTAB
0
TABLE
2
LTYPE
5
5
330
0
100
AcDbSymbolTable
70
4
0
LTYPE
5
14
330
5
100
AcDbSymbolTableRecord
100
AcDbLinetypeTableRecord
2
ByBlock
70
0
3

72
65
73
0
40
0
0
LTYPE
5
15
330
5
100
AcDbSymbolTableRecord
100
AcDbLinetypeTableRecord
2
ByLayer
70
0
3

72
65
73
0
40
0
0
LTYPE
5
16
330
5
100
AcDbSymbolTableRecord
100
AcDbLinetypeTableRecord
2
Continuous
70
0
3
Solid line
72
65
73
0
40
0
0
LTYPE
5
32
330
5
100
AcDbSymbolTableRecord
100
AcDbLinetypeTableRecord
2
DOT
70
0
3
Dot . . . . . . . . . . . . . . . . . . . . . .
72
65
73
2
40
6.35
49
0
74
0
49
-6.35
74
0
0
LTYPE
5
33
330
5
100
AcDbSymbolTableRecord
100
AcDbLinetypeTableRecord
2
DOT2
70
0
3
Dot (.5x) .....................................
72
65
73
2
40
3.175
49
0
74
0
49
-3.175
74
0
0
LTYPE
5
34
330
5
100
AcDbSymbolTableRecord
100
AcDbLinetypeTableRecord
2
DOTX2
70
0
3
Dot (2x) .  .  .  .  .  .  .  .  .  .  .  .  .
72
65
73
2
40
12.7
49
0
74
0
49
-12.7
74
0
0
LTYPE
5
35
330
5
100
AcDbSymbolTableRecord
100
AcDbLinetypeTableRecord
2
DASHED
70
0
3
Dot . . . . . . . . . . . . . . . . . . . . . .
72
65
73
2
40
19.05
49
12.7
74
0
49
-6.35
74
0
0
LTYPE
5
36
330
5
100
AcDbSymbolTableRecord
100
AcDbLinetypeTableRecord
2
DASHED2
70
0
3
Dashed (.5x) _ _ _ _ _ _ _ _ _ _ _ _ _ _ _ _ _
72
65
73
2
40
9.525
49
6.35
74
0
49
-3.175
74
0
0
LTYPE
5
37
330
5
100
AcDbSymbolTableRecord
100
AcDbLinetypeTableRecord
2
DASHEDX2
70
0
3
Dashed (2x) ____  ____  ____  ____  ____  ___
72
65
73
2
40
38.1
49
25.4
74
0
49
-12.7
74
0
0
LTYPE
5
38
330
5
100
AcDbSymbolTableRecord
100
AcDbLinetypeTableRecord
2
DASHDOT
70
0
3
Dash dot __ . __ . __ . __ . __ . __ . __ . __
72
65
73
4
40
25.4
49
12.7
74
0
49
-6.35
74
0
49
0
74
0
49
-6.35
74
0
0
LTYPE
5
39
330
5
100
AcDbSymbolTableRecord
100
AcDbLinetypeTableRecord
2
DASHDOT2
70
0
3
Dash dot (.5x) _._._._._._._._._._._._._._._.
72
65
73
4
40
12.7
49
6.35
74
0
49
-3.175
74
0
49
0
74
0
49
-3.175
74
0
0
LTYPE
5
3A
330
5
100
AcDbSymbolTableRecord
100
AcDbLinetypeTableRecord
2
DASHDOTX2
70
0
3
Dash dot (2x) ____  .  ____  .  ____  .  ___
72
65
73
4
40
50.8
49
25.4
74
0
49
-12.7
74
0
49
0
74
0
49
-12.7
74
0
0
LTYPE
5
3B
330
5
100
AcDbSymbolTableRecord
100
AcDbLinetypeTableRecord
2
DIVIDE
70
0
3
Divide ____ . . ____ . . ____ . . ____ . . ____
72
65
73
6
40
31.75
49
12.7
74
0
49
-6.35
74
0
49
0
74
0
49
-6.35
74
0
49
0
74
0
49
-6.35
74
0
0
LTYPE
5
3C
330
5
100
AcDbSymbolTableRecord
100
AcDbLinetypeTableRecord
2
DIVIDE2
70
0
3
Divide (.5x) __..__..__..__..__..__..__..__.._
72
65
73
6
40
15.875
49
6.35
74
0
49
-3.175
74
0
49
0
74
0
49
-3.175
74
0
49
0
74
0
49
-3.175
74
0
0
LTYPE
5
3D
330
5
100
AcDbSymbolTableRecord
100
AcDbLinetypeTableRecord
2
DIVIDEX2
70
0
3
Divide (2x) ________  .  .  ________  .  .  _
72
65
73
6
40
63.5
49
25.4
74
0
49
-12.7
74
0
49
0
74
0
49
-12.7
74
0
49
0
74
0
49
-12.7
74
0
0
LTYPE
5
3E
330
5
100
AcDbSymbolTableRecord
100
AcDbLinetypeTableRecord
2
BORDER
70
0
3
Border __ __ . __ __ . __ __ . __ __ . __ __ .
72
65
73
6
40
44.45
49
12.7
74
0
49
-6.35
74
0
49
12.7
74
0
49
-6.35
74
0
49
0
74
0
49
-6.35
74
0
0
LTYPE
5
3F
330
5
100
AcDbSymbolTableRecord
100
AcDbLinetypeTableRecord
2
BORDER2
70
0
3
Border (.5x) __.__.__.__.__.__.__.__.__.__.__.
72
65
73
6
40
22.225
49
6.35
74
0
49
-3.175
74
0
49
6.35
74
0
49
-3.175
74
0
49
0
74
0
49
-3.175
74
0
0
LTYPE
5
40
330
5
100
AcDbSymbolTableRecord
100
AcDbLinetypeTableRecord
2
BORDERX2
70
0
3
Border (2x) ____  ____  .  ____  ____  .  ___
72
65
73
6
40
88.9
49
25.4
74
0
49
-12.7
74
0
49
25.4
74
0
49
-12.7
74
0
49
0
74
0
49
-12.7
74
0
0
LTYPE
5
41
330
5
100
AcDbSymbolTableRecord
100
AcDbLinetypeTableRecord
2
CENTER
70
0
3
Center ____ _ ____ _ ____ _ ____ _ ____ _ ____
72
65
73
4
40
50.8
49
31.75
74
0
49
-6.35
74
0
49
6.35
74
0
49
-6.35
74
0
0
LTYPE
5
42
330
5
100
AcDbSymbolTableRecord
100
AcDbLinetypeTableRecord
2
CENTER2
70
0
3
Center (.5x) ___ _ ___ _ ___ _ ___ _ ___ _ ___
72
65
73
4
40
28.575
49
19.05
74
0
49
-3.175
74
0
49
3.175
74
0
49
-3.175
74
0
0
LTYPE
5
43
330
5
100
AcDbSymbolTableRecord
100
AcDbLinetypeTableRecord
2
CENTERX2
70
0
3
Center (2x) ________  __  ________  __  _____
72
65
73
4
40
101.6
49
63.5
74
0
49
-12.7
74
0
49
12.7
74
0
49
-12.7
74
0
0
ENDTAB
0
TABLE
2
LAYER
5
2
330
0
100
AcDbSymbolTable
70
1
0
LAYER
5
10
330
2
100
AcDbSymbolTableRecord
100
AcDbLayerTableRecord
2
0
70
0
62
7
6
CONTINUOUS
370
0
390
F
0
LAYER
5
44
330
2
100
AcDbSymbolTableRecord
100
AcDbLayerTableRecord
2
Panel
70
0
62
1
6
CONTINUOUS
370
0
390
F
0
LAYER
5
45
330
2
100
AcDbSymbolTableRecord
100
AcDbLayerTableRecord
2
Engraving
70
0
62
7
6
CONTINUOUS
370
0
390
F
0
ENDTAB
0
TABLE
2
STYLE
5
3
330
0
100
AcDbSymbolTable
70
3
0
STYLE
5
46
330
2
100
AcDbSymbolTableRecord
100
AcDbTextStyleTableRecord
2
Standard
70
0
40
0
41
1
50
0
71
0
42
1
3
txt
4

0
ENDTAB
0
TABLE
2
VIEW
5
6
330
0
100
AcDbSymbolTable
70
0
0
ENDTAB
0
TABLE
2
UCS
5
7
330
0
100
AcDbSymbolTable
70
0
0
ENDTAB
0
TABLE
2
APPID
5
9
330
0
100
AcDbSymbolTable
70
1
0
APPID
5
12
330
9
100
AcDbSymbolTableRecord
100
AcDbRegAppTableRecord
2
ACAD
70
0
0
ENDTAB
0
TABLE
2
DIMSTYLE
5
A
330
0
100
AcDbSymbolTable
70
1
100
AcDbDimStyleTable
71
1
0
DIMSTYLE
105
47
330
A
100
AcDbSymbolTableRecord
100
AcDbDimStyleTableRecord
2
Standard
70
0
40
1
41
2.5
42
0.625
43
0.38
44
1.25
45
0
46
0
47
0
48
0
140
2.5
141
0.09
142
0
143
25.4
144
1
145
0
146
1
147
0.625
148
0
71
0
72
0
73
0
74
1
75
0
76
0
77
0
78
0
79
0
170
0
171
2
172
0
173
0
174
0
175
0
176
0
177
0
178
0
179
0
271
4
272
4
273
2
274
2
275
0
276
0
277
2
278
46
279
0
280
0
281
0
282
0
283
1
284
0
285
0
286
0
288
0
289
3
340
Standard
341

371
-2
372
-2
0
ENDTAB
0
TABLE
2
BLOCK_RECORD
5
1
330
0
100
AcDbSymbolTable
70
2
0
BLOCK_RECORD
5
1F
330
1
100
AcDbSymbolTableRecord
100
AcDbBlockTableRecord
2
*Model_Space
70
0
280
1
281
0
0
BLOCK_RECORD
5
1E
330
1
100
AcDbSymbolTableRecord
100
AcDbBlockTableRecord
2
*Paper_Space
70
0
280
1
281
0
0
ENDTAB
0
ENDSEC
0
SECTION
2
BLOCKS
0
BLOCK
5
20
330
1F
100
AcDbEntity
8
0
100
AcDbBlockBegin
2
*Model_Space
70
0
10
0
20
0
30
0
3
*Model_Space
1

0
ENDBLK
5
21
330
1F
100
AcDbEntity
8
0
100
AcDbBlockEnd
0
BLOCK
5
1C
330
1B
100
AcDbEntity
8
0
100
AcDbBlockBegin
2
*Paper_Space
70
0
10
0
20
0
30
0
3
*Paper_Space
1

0
ENDBLK
5
1D
330
1F
100
AcDbEntity
8
0
100
AcDbBlockEnd
0
ENDSEC
0
SECTION
2
ENTITIES
0
LINE
5
48
100
AcDbEntity
8
Panel
6
ByLayer
62
256
370
-1
100
AcDbLine
10
110
20
0
11
10
21
0
0
LINE
5
49
100
AcDbEntity
8
Panel
6
ByLayer
62
256
370
-1
100
AcDbLine
10
110
20
-1.66533453694e-16
11
110.6
21
-1.66533453694e-16
0
LINE
5
4A
100
AcDbEntity
8
Panel
6
ByLayer
62
256
370
-1
100
AcDbLine
10
110.6
20
-1.66533453694e-16
11
110.6
21
3
0
LINE
5
4B
100
AcDbEntity
8
Panel
6
ByLayer
62
256
370
-1
100
AcDbLine
10
110.6
20
3
11
110
21
3
0
LINE
5
4C
100
AcDbEntity
8
Panel
6
ByLayer
62
256
370
-1
100
AcDbLine
10
10
20
0
11
9.4
21
0
0
LINE
5
4D
100
AcDbEntity
8
Panel
6
ByLayer
62
256
370
-1
100
AcDbLine
10
9.4
20
0
11
9.4
21
3
0
LINE
5
4E
100
AcDbEntity
8
Panel
6
ByLayer
62
256
370
-1
100
AcDbLine
10
9.4
20
3
11
10
21
3
0
LINE
5
4F
100
AcDbEntity
8
Panel
6
ByLayer
62
256
370
-1
100
AcDbLine
10
10
20
110
11
110
21
110
0
LINE
5
50
100
AcDbEntity
8
Panel
6
ByLayer
62
256
370
-1
100
AcDbLine
10
7
20
110
11
10
21
110
0
LINE
5
51
100
AcDbEntity
8
Panel
6
ByLayer
62
256
370
-1
100
AcDbLine
10
10
20
107
11
7
21
107
0
LINE
5
52
100
AcDbEntity
8
Panel
6
ByLayer
62
256
370
-1
100
AcDbLine
10
7
20
107
11
7
21
110
0
LINE
5
53
100
AcDbEntity
8
Panel
6
ByLayer
62
256
370
-1
100
AcDbLine
10
110
20
110
11
113
21
110
0
LINE
5
54
100
AcDbEntity
8
Panel
6
ByLayer
62
256
370
-1
100
AcDbLine
10
113
20
110
11
113
21
107
0
LINE
5
55
100
AcDbEntity
8
Panel
6
ByLayer
62
256
370
-1
100
AcDbLine
10
113
20
107
11
110
21
107
0
LINE
5
56
100
AcDbEntity
8
Panel
6
ByLayer
62
256
370
-1
100
AcDbLine
10
110
20
107
11
110
21
3
0
LINE
5
57
100
AcDbEntity
8
Panel
6
ByLayer
62
256
370
-1
100
AcDbLine
10
10
20
3
11
10
21
107
0
LWPOLYLINE
5
58
100
AcDbEntity
8
Engraving
6
ByLayer
62
256
370
-1
100
AcDbPolyline
90
4015
70
1
43
0
10
50.45417578
20
66.5285118051
10
50.3364005824
20
66.3746631261
10
50.2166820263
20
66.2187011049
10
50.0952050297
20
66.0608742026
10
49.9721545108
20
65.90143088
10
49.8477153874
20
65.740619598
10
49.7220725778
20
65.5786888177
10
49.595411
20
65.415887
10
49.3187068792
20
65.059829026
10
49.0569388303
20
64.7210079279
10
48.809679679
20
64.3986325548
10
48.5765022505
20
64.0919117554
10
48.3569793703
20
63.8000543787
10
48.1506838638
20
63.5222692737
10
47.9571885564
20
63.2577652892
10
47.7760662736
20
63.0057512742
10
47.6068898407
20
62.7654360775
10
47.4492320832
20
62.5360285481
10
47.3026658265
20
62.3167375349
10
47.166763896
20
62.1067718868
10
47.0410991171
20
61.9053404528
10
46.9252443152
20
61.7116520817
10
46.8187723158
20
61.5249156224
10
46.7212559443
20
61.3443399239
10
46.6322680261
20
61.1691338351
10
46.5513813866
20
60.9985062049
10
46.4781688512
20
60.8316658821
10
46.4122032453
20
60.6678217159
10
46.3530573944
20
60.5061825549
10
46.3003041239
20
60.3459572482
10
46.2535162592
20
60.1863546447
10
46.2122666257
20
60.0265835932
10
46.1761280488
20
59.8658529427
10
46.1446733539
20
59.7033715422
10
46.1174753665
20
59.5383482404
10
46.0941069121
20
59.3699918864
10
46.0741408159
20
59.1975113291
10
46.0571499034
20
59.0201154173
10
46.042707
20
58.837013
10
46.0372626587
20
58.7634218472
10
46.0315254974
20
58.6907968767
10
46.0255115682
20
58.6192361751
10
46.019236923
20
58.5488378287
10
46.0127176139
20
58.4796999242
10
46.005969693
20
58.4119205482
10
45.9990092123
20
58.3455977871
10
45.9918522237
20
58.2808297275
10
45.9845147794
20
58.2177144559
10
45.9770129313
20
58.1563500588
10
45.9693627315
20
58.0968346229
10
45.961580232
20
58.0392662346
10
45.9536814849
20
57.9837429805
10
45.9456825421
20
57.930362947
10
45.9375994558
20
57.8792242208
10
45.9294482778
20
57.8304248884
10
45.9212450604
20
57.7840630363
10
45.9130058554
20
57.7402367511
10
45.9047467149
20
57.6990441192
10
45.8964836909
20
57.6605832272
10
45.8882328356
20
57.6249521618
10
45.8800102008
20
57.5922490093
10
45.8718318387
20
57.5625718563
10
45.8637138012
20
57.5360187894
10
45.8556721405
20
57.5126878951
10
45.8477229084
20
57.4926772599
10
45.8398821571
20
57.4760849705
10
45.8321659386
20
57.4630091132
10
45.8245903049
20
57.4535477747
10
45.817171308
20
57.4477990414
10
45.809925
20
57.445861
10
45.8028010078
20
57.445144815
10
45.7957462655
20
57.4430202357
10
45.7887719146
20
57.439523226
10
45.7818890968
20
57.4346897496
10
45.7751089537
20
57.4285557702
10
45.7684426269
20
57.4211572516
10
45.7619012581
20
57.4125301575
10
45.7554959888
20
57.4027104517
10
45.7492379607
20
57.3917340979
10
45.7431383154
20
57.3796370599
10
45.7372081946
20
57.3664553014
10
45.7314587397
20
57.3522247861
10
45.7259010925
20
57.3369814779
10
45.7205463946
20
57.3207613404
10
45.7154057877
20
57.3036003374
10
45.7104904132
20
57.2855344326
10
45.7058114128
20
57.2665995899
10
45.7013799283
20
57.2468317729
10
45.6972071011
20
57.2262669454
10
45.6933040729
20
57.2049410712
10
45.6896819853
20
57.1828901139
10
45.68635198
20
57.1601500374
10
45.6833251985
20
57.1367568053
10
45.6806127825
20
57.1127463815
10
45.6782258736
20
57.0881547296
10
45.6761756134
20
57.0630178135
10
45.6744731436
20
57.0373715969
10
45.6731296057
20
57.0112520435
10
45.6721561414
20
56.984695117
10
45.6715638923
20
56.9577367813
10
45.671364
20
56.930413
10
45.6711614336
20
56.9025225685
10
45.6705599807
20
56.8738842431
10
45.6695690107
20
56.844563058
10
45.6681978932
20
56.8146240475
10
45.6664559976
20
56.7841322459
10
45.6643526934
20
56.7531526875
10
45.66189735
20
56.7217504065
10
45.659099337
20
56.6899904372
10
45.6559680238
20
56.6579378139
10
45.6525127798
20
56.6256575708
10
45.6487429747
20
56.5932147423
10
45.6446679777
20
56.5606743626
10
45.6402971585
20
56.5281014659
10
45.6356398864
20
56.4955610865
10
45.630705531
20
56.4631182588
10
45.6255034617
20
56.430838017
10
45.620043048
20
56.3987853953
10
45.6143336594
20
56.367025428
10
45.6083846654
20
56.3356231494
10
45.6022054353
20
56.3046435938
10
45.5958053388
20
56.2741517954
10
45.5891937452
20
56.2442127886
10
45.5823800241
20
56.2148916075
10
45.5753735449
20
56.1862532865
10
45.5681836771
20
56.1583628599
10
45.5608197901
20
56.1312853618
10
45.5532912535
20
56.1050858266
10
45.5456074367
20
56.0798292885
10
45.5377777092
20
56.0555807819
10
45.5298114405
20
56.032405341
10
45.521718
20
56.010368
10
45.5034653813
20
55.9580547342
10
45.4838987025
20
55.8940091685
10
45.4631663428
20
55.819123908
10
45.4414166813
20
55.734291558
10
45.4187980972
20
55.6404047238
10
45.3954589694
20
55.5383560108
10
45.3715476772
20
55.4290380242
10
45.3472125996
20
55.3133433692
10
45.3226021157
20
55.1921646512
10
45.2978646047
20
55.0663944754
10
45.2731484456
20
54.9369254472
10
45.2486020176
20
54.8046501718
10
45.2243736997
20
54.6704612545
10
45.2006118712
20
54.5352513005
10
45.177464911
20
54.3999129152
10
45.1550811983
20
54.2653387039
10
45.1336091122
20
54.1324212718
10
45.1131970318
20
54.0020532242
10
45.0939933362
20
53.8751271664
10
45.0761464046
20
53.7525357037
10
45.0598046159
20
53.6351714413
10
45.0451163494
20
53.5239269846
10
45.0322299842
20
53.4196949388
10
45.0212938993
20
53.3233679092
10
45.0124564739
20
53.2358385012
10
45.005866087
20
53.1579993199
10
45.0016711178
20
53.0907429706
10
45.0000199454
20
53.0349620587
10
45.0010609489
20
52.9915491895
10
45.0049425074
20
52.9613969681
10
45.011813
20
52.945398
10
45.0300936295
20
52.9317765555
10
45.0540921402
20
52.9221514159
10
45.0834263362
20
52.9163523076
10
45.1177140218
20
52.914208957
10
45.156573001
20
52.9155510904
10
45.1996210781
20
52.9202084341
10
45.2464760572
20
52.9280107145
10
45.2967557424
20
52.9387876581
10
45.3500779381
20
52.9523689911
10
45.4060604482
20
52.9685844399
10
45.4643210771
20
52.9872637308
10
45.5244776288
20
53.0082365903
10
45.5861479075
20
53.0313327447
10
45.6489497175
20
53.0563819203
10
45.7125008628
20
53.0832138435
10
45.7764191476
20
53.1116582407
10
45.8403223762
20
53.1415448383
10
45.9038283526
20
53.1727033625
10
45.9665548811
20
53.2049635398
10
46.0281197658
20
53.2381550964
10
46.0881408109
20
53.2721077589
10
46.1462358205
20
53.3066512535
10
46.2020225989
20
53.3416153065
10
46.2551189501
20
53.3768296445
10
46.3051426784
20
53.4121239936
10
46.351711588
20
53.4473280803
10
46.3944434829
20
53.4822716309
10
46.4329561674
20
53.5167843719
10
46.4668674456
20
53.5506960294
10
46.4957951218
20
53.58383633
10
46.519357
20
53.616035
10
46.5440280448
20
53.6517935697
10
46.5699848507
20
53.6857768165
10
46.5971696345
20
53.7179723374
10
46.625524613
20
53.7483677293
10
46.6549920032
20
53.7769505894
10
46.6855140218
20
53.8037085146
10
46.7170328857
20
53.8286291019
10
46.7494908117
20
53.8516999482
10
46.7828300167
20
53.8729086506
10
46.8169927175
20
53.892242806
10
46.851921131
20
53.9096900115
10
46.887557474
20
53.9252378641
10
46.9238439633
20
53.9388739607
10
46.9607228158
20
53.9505858983
10
46.9981362484
20
53.9603612739
10
47.0360264779
20
53.9681876845
10
47.0743357211
20
53.9740527271
10
47.1130061949
20
53.9779439988
10
47.151980116
20
53.9798490964
10
47.1911997015
20
53.979755617
10
47.230607168
20
53.9776511575
10
47.2701447325
20
53.9735233151
10
47.3097546118
20
53.9673596865
10
47.3493790228
20
53.959147869
10
47.3889601822
20
53.9488754594
10
47.4284403069
20
53.9365300547
10
47.4677616138
20
53.9220992519
10
47.5068663197
20
53.9055706481
10
47.5456966415
20
53.8869318402
10
47.584194796
20
53.8661704251
10
47.622303
20
53.843274
10
47.6399452016
20
53.8312656892
10
47.6562112479
20
53.8182819652
10
47.6710811393
20
53.8041144471
10
47.6845348767
20
53.7885547541
10
47.6965524607
20
53.771394505
10
47.707113892
20
53.7524253191
10
47.7161991712
20
53.7314388154
10
47.723788299
20
53.7082266131
10
47.7298612762
20
53.6825803311
10
47.7343981032
20
53.6542915885
10
47.7373787809
20
53.6231520045
10
47.7387833099
20
53.5889531981
10
47.7385916909
20
53.5514867885
10
47.7367839244
20
53.5105443945
10
47.7333400114
20
53.4659176355
10
47.7282399522
20
53.4173981304
10
47.7214637478
20
53.3647774983
10
47.7129913986
20
53.3078473583
10
47.7028029055
20
53.2463993294
10
47.690878269
20
53.1802250308
10
47.6771974899
20
53.1091160816
10
47.6617405688
20
53.0328641008
10
47.6444875064
20
52.9512607074
10
47.6254183033
20
52.8640975207
10
47.6045129602
20
52.7711661595
10
47.5817514779
20
52.6722582432
10
47.5571138569
20
52.5671653906
10
47.5305800979
20
52.4556792209
10
47.5021302017
20
52.3375913532
10
47.4717441688
20
52.2126934065
10
47.439402
20
52.080777
10
47.3677171814
20
51.7831845701
10
47.3000844127
20
51.4896995424
10
47.2364975148
20
51.2001910836
10
47.1769503087
20
50.9145283609
10
47.1214366153
20
50.632580541
10
47.0699502556
20
50.3542167909
10
47.0224850506
20
50.0793062776
10
46.9790348212
20
49.807718168
10
46.9395933883
20
49.539321629
10
46.9041545729
20
49.2739858275
10
46.872712196
20
49.0115799305
10
46.8452600785
20
48.7519731049
10
46.8217920413
20
48.4950345176
10
46.8023019055
20
48.2406333355
10
46.7867834919
20
47.9886387257
10
46.7752306215
20
47.738919855
10
46.7676371153
20
47.4913458903
10
46.7639967943
20
47.2457859986
10
46.7643034793
20
47.0021093467
10
46.7685509913
20
46.7601851018
10
46.7767331513
20
46.5198824306
10
46.7888437803
20
46.2810705001
10
46.8048766991
20
46.0436184772
10
46.8248257288
20
45.8073955288
10
46.8486846902
20
45.572270822
10
46.8764474044
20
45.3381135235
10
46.9081076924
20
45.1047928004
10
46.9436593749
20
44.8721778196
10
46.9830962731
20
44.6401377479
10
47.0264122078
20
44.4085417524
10
47.073601
20
44.177259
10
47.0921208425
20
44.0913829428
10
47.1103079044
20
44.0098410463
10
47.128264939
20
43.9324701745
10
47.1460946996
20
43.8591071916
10
47.1638999393
20
43.7895889616
10
47.1817834114
20
43.7237523485
10
47.1998478692
20
43.6614342166
10
47.2181960659
20
43.6024714298
10
47.2369307548
20
43.5467008523
10
47.256154689
20
43.4939593481
10
47.275970622
20
43.4440837813
10
47.2964813068
20
43.3969110161
10
47.3177894968
20
43.3522779165
10
47.3399979452
20
43.3100213465
10
47.3632094052
20
43.2699781704
10
47.3875266302
20
43.2319852521
10
47.4130523732
20
43.1958794557
10
47.4398893877
20
43.1614976454
10
47.4681404268
20
43.1286766852
10
47.4979082438
20
43.0972534393
10
47.5292955919
20
43.0670647716
10
47.5624052244
20
43.0379475463
10
47.5973398946
20
43.0097386274
10
47.6342023556
20
42.9822748792
10
47.6730953607
20
42.9553931655
10
47.7141216632
20
42.9289303506
10
47.7573840164
20
42.9027232985
10
47.8029851733
20
42.8766088733
10
47.8510278875
20
42.8504239391
10
47.9016149119
20
42.82400536
10
47.954849
20
42.79719
10
47.9994509813
20
42.7736278386
10
48.041295448
20
42.7483376888
10
48.0804032162
20
42.7210085364
10
48.1167951021
20
42.6913293671
10
48.150491922
20
42.6589891664
10
48.1815144921
20
42.62367692
10
48.2098836286
20
42.5850816137
10
48.2356201478
20
42.542892233
10
48.2587448658
20
42.4967977637
10
48.2792785989
20
42.4464871914
10
48.2972421632
20
42.3916495018
10
48.3126563751
20
42.3319736806
10
48.3255420507
20
42.2671487133
10
48.3359200063
20
42.1968635858
10
48.343811058
20
42.1208072836
10
48.3492360221
20
42.0386687924
10
48.3522157148
20
41.9501370979
10
48.3527709524
20
41.8549011857
10
48.350922551
20
41.7526500416
10
48.3466913269
20
41.6430726511
10
48.3400980962
20
41.525858
10
48.3311636753
20
41.4006950739
10
48.3199088803
20
41.2672728585
10
48.3063545274
20
41.1252803395
10
48.290521433
20
40.9744065025
10
48.272430413
20
40.8143403331
10
48.2521022839
20
40.6447708171
10
48.2295578619
20
40.4653869401
10
48.204817963
20
40.2758776879
10
48.1779034037
20
40.0759320459
10
48.148835
20
39.865239
10
48.1166590731
20
39.6257418237
10
48.0873198932
20
39.3890609299
10
48.0608235867
20
39.1550807551
10
48.0371762805
20
38.9236857359
10
48.0163841012
20
38.6947603086
10
47.9984531756
20
38.4681889099
10
47.9833896302
20
38.2438559762
10
47.9711995917
20
38.0216459441
10
47.9618891869
20
37.80144325
10
47.9554645425
20
37.5831323305
10
47.951931785
20
37.3665976221
10
47.9512970413
20
37.1517235612
10
47.9535664379
20
36.9383945845
10
47.9587461016
20
36.7264951283
10
47.966842159
20
36.5159096292
10
47.9778607369
20
36.3065225237
10
47.9918079619
20
36.0982182484
10
48.0086899606
20
35.8908812397
10
48.0285128599
20
35.6843959341
10
48.0512827862
20
35.4786467681
10
48.0770058665
20
35.2735181783
10
48.1056882272
20
35.0688946012
10
48.1373359952
20
34.8646604732
10
48.171955297
20
34.6607002308
10
48.2095522594
20
34.4568983107
10
48.2501330091
20
34.2531391492
10
48.2937036726
20
34.049307183
10
48.3402703769
20
33.8452868484
10
48.3898392484
20
33.6409625821
10
48.4424164138
20
33.4362188204
10
48.498008
20
33.23094
10
48.5510776862
20
33.0407115886
10
48.6020103516
20
32.8600520696
10
48.6510161801
20
32.6884881775
10
48.6983053558
20
32.5255466464
10
48.7440880629
20
32.3707542108
10
48.7885744854
20
32.223637605
10
48.8319748075
20
32.0837235632
10
48.8744992131
20
31.9505388198
10
48.9163578863
20
31.8236101091
10
48.9577610113
20
31.7024641654
10
48.9989187721
20
31.586627723
10
49.0400413529
20
31.4756275162
10
49.0813389376
20
31.3689902794
10
49.1230217104
20
31.2662427469
10
49.1652998554
20
31.166911653
10
49.2083835566
20
31.070523732
10
49.2524829982
20
30.9766057182
10
49.2978083641
20
30.8846843459
10
49.3445698386
20
30.7942863495
10
49.3929776056
20
30.7049384633
10
49.4432418493
20
30.6161674215
10
49.4955727537
20
30.5274999586
10
49.5501805029
20
30.4384628087
10
49.607275281
20
30.3485827063
10
49.6670672721
20
30.2573863857
10
49.7297666603
20
30.164400581
10
49.7955836296
20
30.0691520268
10
49.8647283641
20
29.9711674573
10
49.937411048
20
29.8699736068
10
50.0138418653
20
29.7650972096
10
50.094231
20
29.656065
10
50.1907111012
20
29.5280747627
10
50.2863482324
20
29.4056872578
10
50.3811536023
20
29.2888973279
10
50.47513842
20
29.1776998157
10
50.5683138942
20
29.072089564
10
50.6606912338
20
28.9720614152
10
50.7522816478
20
28.8776102122
10
50.8430963451
20
28.7887307976
10
50.9331465345
20
28.705418014
10
51.0224434249
20
28.6276667042
10
51.1109982252
20
28.5554717108
10
51.1988221443
20
28.4888278764
10
51.2859263911
20
28.4277300438
10
51.3723221744
20
28.3721730557
10
51.4580207033
20
28.3221517546
10
51.5430331864
20
28.2776609832
10
51.6273708328
20
28.2386955843
10
51.7110448514
20
28.2052504005
10
51.7940664509
20
28.1773202744
10
51.8764468403
20
28.1549000488
10
51.9581972286
20
28.1379845663
10
52.0393288245
20
28.1265686696
10
52.119852837
20
28.1206472014
10
52.1997804749
20
28.1202150042
10
52.2791229472
20
28.1252669209
10
52.3578914628
20
28.135797794
10
52.4360972304
20
28.1518024662
10
52.5137514591
20
28.1732757803
10
52.5908653576
20
28.2002125788
10
52.667450135
20
28.2326077045
10
52.743517
20
28.270456
10
52.8015282104
20
28.3077184835
10
52.8568854616
20
28.3556152811
10
52.909533506
20
28.4135513168
10
52.9594170961
20
28.4809315143
10
53.0064809846
20
28.5571607978
10
53.0506699238
20
28.6416440909
10
53.0919286664
20
28.7337863177
10
53.1302019647
20
28.832992402
10
53.1654345714
20
28.9386672678
10
53.1975712389
20
29.0502158389
10
53.2265567197
20
29.1670430392
10
53.2523357663
20
29.2885537928
10
53.2748531313
20
29.4141530233
10
53.2940535672
20
29.5432456549
10
53.3098818265
20
29.6752366113
10
53.3222826616
20
29.8095308164
10
53.3312008251
20
29.9455331943
10
53.3365810695
20
30.0826486687
10
53.3383681473
20
30.2202821635
10
53.336506811
20
30.3578386028
10
53.3309418132
20
30.4947229103
10
53.3216179062
20
30.6303400101
10
53.3084798428
20
30.7640948259
10
53.2914723753
20
30.8953922817
10
53.2705402562
20
31.0236373014
10
53.2456282381
20
31.1482348089
10
53.2166810735
20
31.2685897281
10
53.1836435149
20
31.3841069829
10
53.1464603147
20
31.4941914972
10
53.1050762256
20
31.598248195
10
53.059436
20
31.695682
10
53.0435544939
20
31.7279090626
10
53.0261718246
20
31.7650765424
10
53.0073518296
20
31.8070072002
10
52.9871583469
20
31.8535237964
10
52.965655214
20
31.9044490917
10
52.9429062688
20
31.9596058469
10
52.918975349
20
32.0188168224
10
52.8939262922
20
32.081904779
10
52.8678229364
20
32.1486924772
10
52.8407291191
20
32.2190026777
10
52.8127086781
20
32.2926581412
10
52.7838254512
20
32.3694816282
10
52.7541432761
20
32.4492958994
10
52.7237259905
20
32.5319237155
10
52.6926374321
20
32.617187837
10
52.6609414388
20
32.7049110246
10
52.6287018482
20
32.7949160389
10
52.5959824981
20
32.8870256406
10
52.5628472262
20
32.9810625903
10
52.5293598703
20
33.0768496486
10
52.495584268
20
33.1742095762
10
52.4615842572
20
33.2729651336
10
52.4274236755
20
33.3729390816
10
52.3931663607
20
33.4739541807
10
52.3588761506
20
33.5758331916
10
52.3246168828
20
33.678398875
10
52.290452395
20
33.7814739913
10
52.2564465252
20
33.8848813014
10
52.2226631109
20
33.9884435658
10
52.1891659899
20
34.0919835451
10
52.156019
20
34.195324
10
52.0583776295
20
34.5074701086
10
51.9675586522
20
34.811624619
10
51.8835814788
20
35.1086057436
10
51.8064655202
20
35.3992316948
10
51.7362301873
20
35.6843206851
10
51.6728948908
20
35.9646909268
10
51.6164790416
20
36.2411606324
10
51.5670020505
20
36.5145480142
10
51.5244833283
20
36.7856712848
10
51.4889422859
20
37.0553486564
10
51.4603983341
20
37.3243983416
10
51.4388708837
20
37.5936385527
10
51.4243793456
20
37.8638875022
10
51.4169431306
20
38.1359634024
10
51.4165816495
20
38.4106844657
10
51.4233143131
20
38.6888689047
10
51.4371605323
20
38.9713349317
10
51.4581397179
20
39.258900759
10
51.4862712807
20
39.5523845992
10
51.5215746316
20
39.8526046646
10
51.5640691813
20
40.1603791677
10
51.6137743408
20
40.4765263208
10
51.6707095208
20
40.8018643364
10
51.7348941322
20
41.1372114269
10
51.8063475858
20
41.4833858047
10
51.8850892924
20
41.8412056823
10
51.9711386629
20
42.2114892719
10
52.0645151081
20
42.5950547861
10
52.1652380388
20
42.9927204372
10
52.2733268658
20
43.4053044377
10
52.388801
20
43.833625
10
52.4502251307
20
44.0566763734
10
52.5114841994
20
44.2753544451
10
52.5725033503
20
44.4894598841
10
52.6332077275
20
44.6987933597
10
52.6935224751
20
44.9031555409
10
52.7533727372
20
45.1023470969
10
52.8126836578
20
45.2961686969
10
52.8713803812
20
45.4844210098
10
52.9293880513
20
45.6669047049
10
52.9866318123
20
45.8434204513
10
53.0430368084
20
46.0137689181
10
53.0985281835
20
46.1777507745
10
53.1530310819
20
46.3351666895
10
53.2064706475
20
46.4858173324
10
53.2587720246
20
46.6295033722
10
53.3098603573
20
46.766025478
10
53.3596607895
20
46.895184319
10
53.4080984655
20
47.0167805644
10
53.4550985293
20
47.1306148832
10
53.500586125
20
47.2364879445
10
53.5444863968
20
47.3342004176
10
53.5867244888
20
47.4235529715
10
53.627225545
20
47.5043462753
10
53.6659147095
20
47.5763809983
10
53.7027171265
20
47.6394578094
10
53.7375579401
20
47.6933773779
10
53.7703622943
20
47.7379403729
10
53.8010553333
20
47.7729474634
10
53.8295622012
20
47.7981993187
10
53.8558080421
20
47.8134966079
10
53.879718
20
47.81864
10
53.9059097167
20
47.817179447
10
53.9325341932
20
47.8128364255
10
53.9595485163
20
47.8056688913
10
53.9869097725
20
47.7957348004
10
54.0145750486
20
47.7830921089
10
54.0425014311
20
47.7677987725
10
54.0706460067
20
47.7499127474
10
54.098965862
20
47.7294919894
10
54.1274180836
20
47.7065944545
10
54.1559597582
20
47.6812780988
10
54.1845479725
20
47.653600878
10
54.213139813
20
47.6236207483
10
54.2416923664
20
47.5913956655
10
54.2701627194
20
47.5569835856
10
54.2985079585
20
47.5204424647
10
54.3266851705
20
47.4818302585
10
54.3546514419
20
47.4412049232
10
54.3823638594
20
47.3986244146
10
54.4097795095
20
47.3541466888
10
54.4368554791
20
47.3078297016
10
54.4635488546
20
47.259731409
10
54.4898167228
20
47.2099097671
10
54.5156161703
20
47.1584227317
10
54.5409042836
20
47.1053282589
10
54.5656381495
20
47.0506843045
10
54.5897748546
20
46.9945488245
10
54.6132714855
20
46.936979775
10
54.6360851289
20
46.8780351118
10
54.6581728713
20
46.8177727909
10
54.6794917995
20
46.7562507684
10
54.699999
20
46.693527
10
54.7109029179
20
46.6599493846
10
54.7232598793
20
46.6233397002
10
54.7370157601
20
46.583828883
10
54.7521164363
20
46.5415478691
10
54.7685077837
20
46.4966275948
10
54.7861356783
20
46.4491989962
10
54.8049459961
20
46.3993930096
10
54.824884613
20
46.3473405711
10
54.8458974048
20
46.2931726169
10
54.8679302477
20
46.2370200831
10
54.8909290174
20
46.1790139061
10
54.91483959
20
46.119285022
10
54.9396078413
20
46.0579643669
10
54.9651796473
20
45.995182877
10
54.991500884
20
45.9310714886
10
55.0185174272
20
45.8657611378
10
55.0461751529
20
45.7993827609
10
55.0744199371
20
45.7320672939
10
55.1031976556
20
45.6639456732
10
55.1324541845
20
45.5951488348
10
55.1621353996
20
45.525807715
10
55.1921871768
20
45.4560532499
10
55.2225553922
20
45.3860163759
10
55.2531859217
20
45.3158280289
10
55.2840246411
20
45.2456191453
10
55.3150174265
20
45.1755206612
10
55.3461101537
20
45.1056635128
10
55.3772486988
20
45.0361786363
10
55.4083789375
20
44.9671969678
10
55.439446746
20
44.8988494437
10
55.470398
20
44.831267
10
56.046812
20
43.567589
10
56.057897
20
39.565948
10
56.0586488405
20
39.3523625357
10
56.0597588813
20
39.1378580397
10
56.0612157076
20
38.9228114869
10
56.0630079048
20
38.7075998518
10
56.065124058
20
38.492600109
10
56.0675527526
20
38.2781892333
10
56.0702825739
20
38.0647441993
10
56.073302107
20
37.8526419817
10
56.0765999374
20
37.642259555
10
56.0801646503
20
37.4339738941
10
56.0839848309
20
37.2281619734
10
56.0880490646
20
37.0252007677
10
56.0923459366
20
36.8254672517
10
56.0968640321
20
36.6293384
10
56.1015919366
20
36.4371911872
10
56.1065182351
20
36.249402588
10
56.1116315131
20
36.0663495771
10
56.1169203558
20
35.8884091291
10
56.1223733485
20
35.7159582187
10
56.1279790765
20
35.5493738205
10
56.1337261249
20
35.3890329093
10
56.1396030792
20
35.2353124595
10
56.1455985246
20
35.088589446
10
56.1517010463
20
34.9492408433
10
56.1578992297
20
34.8176436262
10
56.16418166
20
34.6941747692
10
56.1705369225
20
34.5792112471
10
56.1769536025
20
34.4731300344
10
56.1834202852
20
34.3763081059
10
56.1899255559
20
34.2891224362
10
56.196458
20
34.21195
10
56.2028204385
20
34.139594037
10
56.2087147545
20
34.067885921
10
56.2141430296
20
33.9969259573
10
56.2191073452
20
33.9268144506
10
56.2236097829
20
33.8576517061
10
56.2276524242
20
33.7895380286
10
56.2312373504
20
33.7225737232
10
56.2343666433
20
33.656859095
10
56.2370423842
20
33.5924944488
10
56.2392666546
20
33.5295800896
10
56.2410415361
20
33.4682163225
10
56.2423691102
20
33.4085034525
10
56.2432514583
20
33.3505417845
10
56.243690662
20
33.2944316236
10
56.2436888028
20
33.2402732746
10
56.2432479621
20
33.1881670427
10
56.2423702214
20
33.1382132328
10
56.2410576624
20
33.0905121499
10
56.2393123664
20
33.045164099
10
56.237136415
20
33.002269385
10
56.2345318896
20
32.9619283131
10
56.2315008718
20
32.9242411881
10
56.2280454431
20
32.889308315
10
56.2241676849
20
32.8572299989
10
56.2198696789
20
32.8281065448
10
56.2151535064
20
32.8020382575
10
56.2100212489
20
32.7791254422
10
56.2044749881
20
32.7594684038
10
56.1985168053
20
32.7431674473
10
56.1921487821
20
32.7303228777
10
56.185373
20
32.721035
10
56.1785257228
20
32.7132542321
10
56.1721729156
20
32.7051257765
10
56.166313115
20
32.6966702121
10
56.1609448577
20
32.6879081177
10
56.1560666801
20
32.6788600718
10
56.151677119
20
32.6695466535
10
56.147774711
20
32.6599884413
10
56.1443579925
20
32.6502060141
10
56.1414255003
20
32.6402199506
10
56.138975771
20
32.6300508296
10
56.1370073411
20
32.6197192299
10
56.1355187472
20
32.6092457302
10
56.1345085261
20
32.5986509093
10
56.1339752142
20
32.587955346
10
56.1339173481
20
32.577179619
10
56.1343334646
20
32.5663443071
10
56.1352221001
20
32.5554699891
10
56.1365817913
20
32.5445772436
10
56.1384110748
20
32.5336866496
10
56.1407084872
20
32.5228187857
10
56.1434725651
20
32.5119942307
10
56.1467018452
20
32.5012335635
10
56.1503948639
20
32.4905573626
10
56.1545501579
20
32.479986207
10
56.1591662639
20
32.4695406754
10
56.1642417184
20
32.4592413465
10
56.169775058
20
32.4491087991
10
56.1757648194
20
32.439163612
10
56.1822095391
20
32.4294263639
10
56.1891077538
20
32.4199176337
10
56.196458
20
32.410658
10
56.2392586469
20
32.344883601
10
56.2806698516
20
32.2529531141
10
56.3206474457
20
32.1357830881
10
56.3591472605
20
31.994290072
10
56.3961251277
20
31.8293906145
10
56.4315368786
20
31.6420012647
10
56.4653383448
20
31.4330385714
10
56.4974853578
20
31.2034190835
10
56.5279337491
20
30.9540593499
10
56.5566393501
20
30.6858759195
10
56.5835579923
20
30.3997853411
10
56.6086455074
20
30.0967041637
10
56.6318577266
20
29.7775489362
10
56.6531504816
20
29.4432362074
10
56.6724796038
20
29.0946825262
10
56.6898009248
20
28.7328044415
10
56.7050702759
20
28.3585185023
10
56.7182434888
20
27.9727412574
10
56.7292763948
20
27.5763892556
10
56.7381248256
20
27.170379046
10
56.7447446125
20
26.7556271773
10
56.7490915871
20
26.3330501984
10
56.7511215808
20
25.9035646584
10
56.7507904252
20
25.468087106
10
56.7480539518
20
25.0275340901
10
56.742867992
20
24.5828221596
10
56.7351883774
20
24.1348678635
10
56.7249709393
20
23.6845877506
10
56.7121715094
20
23.2328983698
10
56.6967459192
20
22.7807162699
10
56.67865
20
22.328958
10
56.6627049322
20
21.9671797438
10
56.6467302757
20
21.6251708998
10
56.6304124313
20
21.3016576125
10
56.6134377999
20
20.9953660267
10
56.5954927824
20
20.705022287
10
56.5762637795
20
20.4293525381
10
56.5554371922
20
20.1670829247
10
56.5326994214
20
19.9169395915
10
56.5077368678
20
19.6776486831
10
56.4802359323
20
19.4479363441
10
56.4498830159
20
19.2265287194
10
56.4163645193
20
19.0121519535
10
56.3793668434
20
18.8035321911
10
56.3385763891
20
18.5993955769
10
56.2936795572
20
18.3984682556
10
56.2443627487
20
18.1994763719
10
56.1903123643
20
18.0011460703
10
56.1312148049
20
17.8022034957
10
56.0667564714
20
17.6013747926
10
55.9966237646
20
17.3973861058
10
55.9205030854
20
17.1889635799
10
55.8380808346
20
16.9748333596
10
55.7490434132
20
16.7537215896
10
55.6530772219
20
16.5243544145
10
55.5498686617
20
16.285457979
10
55.4391041333
20
16.0357584278
10
55.3204700377
20
15.7739819056
10
55.1936527757
20
15.4988545571
10
55.0583387482
20
15.2091025268
10
54.914214356
20
14.9034519596
10
54.760966
20
14.580629
10
54.709771278
20
14.4726127113
10
54.6592811109
20
14.3652154377
10
54.6095623676
20
14.258600213
10
54.5606819172
20
14.1529300709
10
54.5127066287
20
14.0483680454
10
54.4657033713
20
13.94507717
10
54.4197390139
20
13.8432204788
10
54.3748804257
20
13.7429610055
10
54.3311944757
20
13.6444617839
10
54.2887480328
20
13.5478858477
10
54.2476079663
20
13.4533962308
10
54.2078411451
20
13.3611559671
10
54.1695144383
20
13.2713280902
10
54.132694715
20
13.184075634
10
54.0974488442
20
13.0995616323
10
54.0638436949
20
13.017949119
10
54.0319461362
20
12.9394011277
10
54.0018230372
20
12.8640806923
10
53.973541267
20
12.7921508467
10
53.9471676945
20
12.7237746245
10
53.9227691888
20
12.6591150597
10
53.9004126191
20
12.598335186
10
53.8801648542
20
12.5415980372
10
53.8620927634
20
12.4890666471
10
53.8462632156
20
12.4409040495
10
53.8327430799
20
12.3972732783
10
53.8215992254
20
12.3583373672
10
53.8128985211
20
12.32425935
10
53.8067078361
20
12.2952022605
10
53.8030940393
20
12.2713291326
10
53.802124
20
12.252803
10
53.8029745614
20
12.2356261048
10
53.8047609827
20
12.2157554076
10
53.8074594982
20
12.1932871812
10
53.8110463424
20
12.1683176987
10
53.8154977498
20
12.1409432328
10
53.8207899547
20
12.1112600565
10
53.8268991916
20
12.0793644427
10
53.8338016949
20
12.0453526643
10
53.841473699
20
12.0093209941
10
53.8498914385
20
11.9713657052
10
53.8590311477
20
11.9315830703
10
53.868869061
20
11.8900693625
10
53.8793814129
20
11.8469208545
10
53.8905444378
20
11.8022338193
10
53.9023343703
20
11.7561045298
10
53.9147274445
20
11.7086292589
10
53.9276998951
20
11.6599042795
10
53.9412279565
20
11.6100258646
10
53.9552878631
20
11.5590902869
10
53.9698558492
20
11.5071938194
10
53.9849081494
20
11.454432735
10
54.0004209981
20
11.4009033066
10
54.0163706298
20
11.3467018071
10
54.0327332788
20
11.2919245094
10
54.0494851796
20
11.2366676865
10
54.0666025666
20
11.1810276111
10
54.0840616742
20
11.1251005563
10
54.1018387369
20
11.0689827948
10
54.1199099892
20
11.0127705997
10
54.1382516654
20
10.9565602438
10
54.15684
20
10.900448
10
54.1753654762
20
10.8446307692
10
54.1935194497
20
10.7892949316
10
54.2112791732
20
10.7345203989
10
54.2286218994
20
10.6803870825
10
54.245524881
20
10.626974894
10
54.2619653708
20
10.5743637449
10
54.2779206215
20
10.5226335466
10
54.2933678859
20
10.4718642108
10
54.3082844166
20
10.4221356489
10
54.3226474663
20
10.3735277724
10
54.3364342879
20
10.3261204929
10
54.3496221341
20
10.2799937219
10
54.3621882575
20
10.2352273708
10
54.3741099109
20
10.1919013513
10
54.3853643469
20
10.1500955748
10
54.3959288185
20
10.1098899528
10
54.4057805782
20
10.0713643969
10
54.4148968789
20
10.0345988186
10
54.4232549731
20
9.99967312933
10
54.4308321137
20
9.96666724071
10
54.4376055534
20
9.93566106421
10
54.4435525449
20
9.90673451136
10
54.448650341
20
9.87996749367
10
54.4528761943
20
9.85543992266
10
54.4562073576
20
9.83323170985
10
54.4586210836
20
9.81342276674
10
54.4600946251
20
9.79609300487
10
54.4606052347
20
9.78132233574
10
54.4601301653
20
9.76919067087
10
54.4586466695
20
9.75977792179
10
54.456132
20
9.753164
10
54.4516393499
20
9.74785528827
10
54.4442893713
20
9.74231486811
10
54.4341607961
20
9.73655769914
10
54.4213323563
20
9.73059874096
10
54.4058827838
20
9.72445295321
10
54.3878908104
20
9.71813529549
10
54.367435168
20
9.71166072743
10
54.3445945886
20
9.70504420865
10
54.319447804
20
9.69830069877
10
54.2920735461
20
9.6914451574
10
54.2625505469
20
9.68449254416
10
54.2309575382
20
9.67745781867
10
54.1973732519
20
9.67035594055
10
54.16187642
20
9.66320186942
10
54.1245457743
20
9.6560105649
10
54.0854600467
20
9.64879698661
10
54.0446979692
20
9.64157609416
10
54.0023382736
20
9.63436284717
10
53.9584596918
20
9.62717220526
10
53.9131409557
20
9.62001912806
10
53.8664607973
20
9.61291857517
10
53.8184979484
20
9.60588550623
10
53.7693311409
20
9.59893488084
10
53.7190391067
20
9.59208165862
10
53.6677005778
20
9.5853407992
10
53.6153942859
20
9.57872726219
10
53.5621989631
20
9.57225600722
10
53.5081933412
20
9.56594199389
10
53.4534561521
20
9.55980018183
10
53.3980661278
20
9.55384553066
10
53.342102
20
9.548093
10
53.2333149179
20
9.53692558625
10
53.1309694641
20
9.52580539448
10
53.034830166
20
9.51453575697
10
52.9446615507
20
9.50292000601
10
52.8602281458
20
9.49076147387
10
52.7812944785
20
9.47786349283
10
52.7076250762
20
9.46402939519
10
52.6389844663
20
9.44906251321
10
52.5751371759
20
9.43276617918
10
52.5158477326
20
9.41494372539
10
52.4608806636
20
9.39539848411
10
52.4100004963
20
9.37393378762
10
52.3629717581
20
9.35035296821
10
52.3195589761
20
9.32445935816
10
52.2795266779
20
9.29605628975
10
52.2426393908
20
9.26494709526
10
52.208661642
20
9.23093510698
10
52.1773579589
20
9.19382365718
10
52.1484928689
20
9.15341607814
10
52.1218308993
20
9.10951570216
10
52.0971365775
20
9.0619258615
10
52.0741744307
20
9.01044988846
10
52.0527089864
20
8.9548911153
10
52.0325047718
20
8.89505287432
10
52.0133263144
20
8.8307384978
10
51.9949381414
20
8.76175131802
10
51.9771047802
20
8.68789466725
10
51.9595907581
20
8.60897187778
10
51.9421606025
20
8.5247862819
10
51.9245788407
20
8.43514121188
10
51.90661
20
8.33984
10
51.9004269483
20
8.3077271048
10
51.8937343921
20
8.27517184358
10
51.886556165
20
8.24223799809
10
51.8789161006
20
8.20898935007
10
51.8708380326
20
8.17548968128
10
51.8623457946
20
8.14180277346
10
51.8534632203
20
8.10799240834
10
51.8442141433
20
8.07412236769
10
51.8346223972
20
8.04025643325
10
51.8247118156
20
8.00645838676
10
51.8145062323
20
7.97279200997
10
51.8040294809
20
7.93932108462
10
51.793305395
20
7.90610939247
10
51.7823578082
20
7.87322071525
10
51.7712105542
20
7.84071883472
10
51.7598874666
20
7.80866753261
10
51.7484123791
20
7.77713059068
10
51.7368091253
20
7.74617179068
10
51.7251015388
20
7.71585491434
10
51.7133134534
20
7.68624374341
10
51.7014687026
20
7.65740205965
10
51.68959112
20
7.62939364479
10
51.6777045394
20
7.60228228059
10
51.6658327943
20
7.57613174878
10
51.6539997184
20
7.55100583112
10
51.6422291453
20
7.52696830936
10
51.6305449087
20
7.50408296522
10
51.6189708423
20
7.48241358048
10
51.6075307796
20
7.46202393686
10
51.5962485543
20
7.44297781612
10
51.585148
20
7.425339
10
51.5741862837
20
7.40772584861
10
51.5633151334
20
7.38875691897
10
51.5525502242
20
7.36849541721
10
51.5419072313
20
7.34700454946
10
51.53140183
20
7.32434752187
10
51.5210496955
20
7.30058754057
10
51.5108665029
20
7.27578781169
10
51.5008679275
20
7.25001154137
10
51.4910696445
20
7.22332193575
10
51.481487329
20
7.19578220097
10
51.4721366563
20
7.16745554315
10
51.4630333016
20
7.13840516844
10
51.4541929401
20
7.10869428297
10
51.445631247
20
7.07838609288
10
51.4373638974
20
7.0475438043
10
51.4294065667
20
7.01623062338
10
51.4217749299
20
6.98450975624
10
51.4144846624
20
6.95244440902
10
51.4075514393
20
6.92009778786
10
51.4009909358
20
6.88753309889
10
51.3948188271
20
6.85481354825
10
51.3890507884
20
6.82200234208
10
51.383702495
20
6.78916268652
10
51.378789622
20
6.75635778769
10
51.3743278446
20
6.72365085173
10
51.370332838
20
6.69110508479
10
51.3668202775
20
6.65878369299
10
51.3638058383
20
6.62674988248
10
51.3613051955
20
6.59506685939
10
51.3593340243
20
6.56379782985
10
51.357908
20
6.533006
10
51.3564732751
20
6.48761813893
10
51.355686721
20
6.44408870149
10
51.3555972202
20
6.40231774499
10
51.3562536553
20
6.36220532678
10
51.3577049088
20
6.32365150418
10
51.3599998633
20
6.28655633453
10
51.3631874014
20
6.25081987516
10
51.3673164055
20
6.21634218341
10
51.3724357582
20
6.18302331661
10
51.3785943422
20
6.15076333208
10
51.3858410398
20
6.11946228717
10
51.3942247338
20
6.0890202392
10
51.4037943065
20
6.05933724551
10
51.4145986407
20
6.03031336343
10
51.4266866187
20
6.0018486503
10
51.4401071232
20
5.97384316344
10
51.4549090368
20
5.94619696019
10
51.4711412418
20
5.91881009788
10
51.4888526211
20
5.89158263385
10
51.5080920569
20
5.86441462542
10
51.528908432
20
5.83720612994
10
51.5513506289
20
5.80985720473
10
51.57546753
20
5.78226790712
10
51.601308018
20
5.75433829445
10
51.6289209754
20
5.72596842405
10
51.6583552848
20
5.69705835326
10
51.6896598286
20
5.66750813941
10
51.7228834895
20
5.63721783982
10
51.75807515
20
5.60608751183
10
51.7952836927
20
5.57401721278
10
51.834558
20
5.540907
10
51.8616052685
20
5.51879848686
10
51.8895775671
20
5.49684415605
10
51.9184072164
20
5.47507572374
10
51.9480265369
20
5.45352490608
10
51.9783678491
20
5.43222341922
10
52.0093634735
20
5.41120297932
10
52.0409457305
20
5.39049530254
10
52.0730469407
20
5.37013210503
10
52.1055994246
20
5.35014510295
10
52.1385355026
20
5.33056601245
10
52.1717874953
20
5.3114265497
10
52.2052877232
20
5.29275843084
10
52.2389685068
20
5.27459337203
10
52.2727621665
20
5.25696308942
10
52.3066010229
20
5.23989929918
10
52.3404173965
20
5.22343371746
10
52.3741436077
20
5.20759806042
10
52.4077119771
20
5.19242404421
10
52.4410548252
20
5.17794338498
10
52.4741044724
20
5.1641877989
10
52.5067932393
20
5.15118900211
10
52.5390534464
20
5.13897871078
10
52.5708174141
20
5.12758864107
10
52.6020174631
20
5.11705050911
10
52.6325859136
20
5.10739603108
10
52.6624550864
20
5.09865692313
10
52.6915573018
20
5.09086490141
10
52.7198248803
20
5.08405168209
10
52.7471901426
20
5.0782489813
10
52.7735854089
20
5.07348851522
10
52.798943
20
5.069802
10
52.804486
20
5.069802
10
52.8888948196
20
5.06024178762
10
52.9848060303
20
5.05139880252
10
53.091516631
20
5.04326971632
10
53.2083236205
20
5.03585120063
10
53.3345239976
20
5.02913992706
10
53.469414761
20
5.02313256722
10
53.6122929098
20
5.01782579272
10
53.7624554426
20
5.01321627518
10
53.9191993583
20
5.00930068621
10
54.0818216557
20
5.00607569743
10
54.2496193337
20
5.00353798043
10
54.4218893911
20
5.00168420684
10
54.5979288267
20
5.00051104827
10
54.7770346392
20
5.00001517633
10
54.9585038277
20
5.00019326263
10
55.1416333908
20
5.00104197879
10
55.3257203274
20
5.00255799641
10
55.5100616364
20
5.00473798711
10
55.6939543165
20
5.0075786225
10
55.8766953666
20
5.0110765742
10
56.0575817855
20
5.01522851381
10
56.235910572
20
5.02003111295
10
56.410978725
20
5.02548104323
10
56.5820832432
20
5.03157497627
10
56.7485211255
20
5.03830958367
10
56.9095893708
20
5.04568153704
10
57.0645849778
20
5.05368750801
10
57.2128049455
20
5.06232416817
10
57.3535462725
20
5.07158818915
10
57.4861059577
20
5.08147624256
10
57.609781
20
5.091985
10
57.7070155167
20
5.10098111554
10
57.7992366838
20
5.10986789517
10
57.8866340884
20
5.11870927874
10
57.9693973174
20
5.1275692061
10
58.0477159579
20
5.1365116171
10
58.1217795968
20
5.14560045158
10
58.1917778211
20
5.15489964939
10
58.2579002178
20
5.16447315038
10
58.3203363738
20
5.1743848944
10
58.3792758763
20
5.18469882129
10
58.4349083121
20
5.1954788709
10
58.4874232683
20
5.20678898308
10
58.5370103319
20
5.21869309768
10
58.5838590898
20
5.23125515454
10
58.628159129
20
5.24453909352
10
58.6701000365
20
5.25860885445
10
58.7098713993
20
5.27352837719
10
58.7476628044
20
5.28936160159
10
58.7836638388
20
5.30617246749
10
58.8180640895
20
5.32402491474
10
58.8510531435
20
5.34298288319
10
58.8828205877
20
5.36311031268
10
58.9135560091
20
5.38447114306
10
58.9434489948
20
5.40712931419
10
58.9726891317
20
5.4311487659
10
59.0014660067
20
5.45659343805
10
59.029969207
20
5.48352727048
10
59.0583883195
20
5.51201420305
10
59.0869129312
20
5.54211817559
10
59.115732629
20
5.57390312796
10
59.145037
20
5.607433
10
59.1649076567
20
5.62996780702
10
59.1853689303
20
5.65207320852
10
59.2063817435
20
5.67372822352
10
59.227907019
20
5.69491187107
10
59.2499056796
20
5.71560317019
10
59.2723386481
20
5.73578113991
10
59.2951668473
20
5.75542479927
10
59.3183511999
20
5.7745131673
10
59.3418526286
20
5.79302526303
10
59.3656320562
20
5.8109401055
10
59.3896504056
20
5.82823671374
10
59.4138685993
20
5.84489410678
10
59.4382475603
20
5.86089130365
10
59.4627482113
20
5.87620732339
10
59.487331475
20
5.89082118502
10
59.5119582742
20
5.90471190759
10
59.5365895317
20
5.91785851012
10
59.5611861702
20
5.93024001165
10
59.5857091124
20
5.9418354312
10
59.6101192812
20
5.95262378782
10
59.6343775993
20
5.96258410053
10
59.6584449895
20
5.97169538837
10
59.6822823745
20
5.97993667037
10
59.7058506772
20
5.98728696556
10
59.7291108201
20
5.99372529297
10
59.7520237262
20
5.99923067165
10
59.7745503181
20
6.00378212061
10
59.7966515187
20
6.00735865889
10
59.8182882507
20
6.00993930553
10
59.8394214369
20
6.01150307955
10
59.860012
20
6.012029
10
59.9278342095
20
6.01261590819
10
59.9948931473
20
6.01435528324
10
60.0610897937
20
6.01721510084
10
60.1263251287
20
6.02116333668
10
60.1905001325
20
6.02616796647
10
60.2535157853
20
6.0321969659
10
60.3152730673
20
6.03921831066
10
60.3756729585
20
6.04719997647
10
60.4346164393
20
6.05610993901
10
60.4920044897
20
6.06591617398
10
60.5477380899
20
6.07658665708
10
60.60171822
20
6.088089364
10
60.6538458603
20
6.10039227045
10
60.7040219908
20
6.11346335212
10
60.7521475918
20
6.12727058471
10
60.7981236434
20
6.14178194391
10
60.8418511257
20
6.15696540542
10
60.883231019
20
6.17278894495
10
60.9221643034
20
6.18922053818
10
60.958551959
20
6.20622816082
10
60.9922949661
20
6.22377978856
10
61.0232943047
20
6.2418433971
10
61.0514509551
20
6.26038696214
10
61.0766658974
20
6.27937845937
10
61.0988401117
20
6.29878586449
10
61.1178745782
20
6.3185771532
10
61.1336702772
20
6.3387203012
10
61.1461281886
20
6.35918328418
10
61.1551492928
20
6.37993407784
10
61.1606345699
20
6.40094065788
10
61.162485
20
6.422171
10
61.162889451
20
6.43675285647
10
61.1641119338
20
6.45003892562
10
61.1661661429
20
6.462025699
10
61.169065773
20
6.47270966819
10
61.1728245186
20
6.48208732473
10
61.1774560745
20
6.49015516018
10
61.1829741351
20
6.49690966611
10
61.1893923951
20
6.50234733406
10
61.1967245491
20
6.5064646556
10
61.2049842917
20
6.50925812229
10
61.2141853175
20
6.51072422567
10
61.2243413212
20
6.51085945732
10
61.2354659972
20
6.50966030878
10
61.2475730403
20
6.50712327163
10
61.260676145
20
6.5032448374
10
61.2747890059
20
6.49802149767
10
61.2899253177
20
6.49144974398
10
61.3060987749
20
6.48352606791
10
61.3233230722
20
6.47424696099
10
61.3416119041
20
6.46360891481
10
61.3609789653
20
6.4516084209
10
61.3814379504
20
6.43824197083
10
61.4030025539
20
6.42350605616
10
61.4256864705
20
6.40739716844
10
61.4495033948
20
6.38991179923
10
61.4744670214
20
6.3710464401
10
61.5005910449
20
6.35079758259
10
61.5278891599
20
6.32916171827
10
61.556375061
20
6.30613533869
10
61.5860624429
20
6.28171493542
10
61.616965
20
6.255897
10
61.6754963933
20
6.20816546947
10
61.7347817638
20
6.16286437075
10
61.7948844454
20
6.11998268507
10
61.8558677721
20
6.07950939368
10
61.917795078
20
6.0414334778
10
61.9807296972
20
6.00574391867
10
62.0447349636
20
5.97242969753
10
62.1098742112
20
5.94147979561
10
62.1762107742
20
5.91288319415
10
62.2438079865
20
5.88662887439
10
62.3127291821
20
5.86270581756
10
62.3830376951
20
5.8411030049
10
62.4547968595
20
5.82180941764
10
62.5280700094
20
5.80481403702
10
62.6029204787
20
5.79010584428
10
62.6794116015
20
5.77767382065
10
62.7576067118
20
5.76750694737
10
62.8375691436
20
5.75959420567
10
62.919362231
20
5.75392457679
10
63.003049308
20
5.75048704196
10
63.0886937086
20
5.74927058242
10
63.1763587669
20
5.75026417942
10
63.2661078169
20
5.75345681417
10
63.3580041925
20
5.75883746793
10
63.4521112279
20
5.76639512192
10
63.548492257
20
5.77611875738
10
63.6472106139
20
5.78799735554
10
63.7483296327
20
5.80201989765
10
63.8519126472
20
5.81817536494
10
63.9580229917
20
5.83645273865
10
64.066724
20
5.856841
10
64.2432348547
20
5.89340983827
10
64.4150642696
20
5.9333740808
10
64.5821376498
20
5.97667157719
10
64.7443804004
20
6.02324017707
10
64.9017179265
20
6.07301773005
10
65.0540756333
20
6.12594208576
10
65.2013789259
20
6.18195109382
10
65.3435532094
20
6.24098260384
10
65.4805238889
20
6.30297446544
10
65.6122163695
20
6.36786452825
10
65.7385560564
20
6.43559064187
10
65.8594683547
20
6.50609065594
10
65.9748786696
20
6.57930242006
10
66.084712406
20
6.65516378386
10
66.1888949693
20
6.73361259696
10
66.2873517644
20
6.81458670897
10
66.3800081965
20
6.89802396952
10
66.4667896707
20
6.98386222822
10
66.5476215922
20
7.0720393347
10
66.6224293661
20
7.16249313857
10
66.6911383974
20
7.25516148944
10
66.7536740914
20
7.34998223695
10
66.8099618531
20
7.44689323071
10
66.8599270876
20
7.54583232033
10
66.9034952002
20
7.64673735544
10
66.9405915959
20
7.74954618566
10
66.9711416797
20
7.8541966606
10
66.995070857
20
7.96062662989
10
67.0123045327
20
8.06877394314
10
67.022768112
20
8.17857644997
10
67.026387
20
8.289972
10
67.0266986721
20
8.33425406005
10
67.0275689055
20
8.37652089248
10
67.0290561388
20
8.41686792733
10
67.0312188104
20
8.45539059461
10
67.0341153589
20
8.49218432436
10
67.0378042228
20
8.52734454661
10
67.0423438406
20
8.56096669138
10
67.0477926508
20
8.59314618871
10
67.054209092
20
8.62397846863
10
67.0616516027
20
8.65355896116
10
67.0701786214
20
8.68198309634
10
67.0798485867
20
8.70934630419
10
67.0907199369
20
8.73574401474
10
67.1028511108
20
8.76127165802
10
67.1163005467
20
8.78602466406
10
67.1311266833
20
8.81009846289
10
67.1473879589
20
8.83358848454
10
67.1651428123
20
8.85659015904
10
67.1844496818
20
8.87919891642
10
67.205367006
20
8.9015101867
10
67.2279532235
20
8.92361939992
10
67.2522667727
20
8.9456219861
10
67.2783660921
20
8.96761337528
10
67.3063096204
20
8.98968899748
10
67.3361557959
20
9.01194428274
10
67.3679630573
20
9.03447466107
10
67.4017898431
20
9.05737556252
10
67.4376945917
20
9.08074241711
10
67.4757357417
20
9.10467065486
10
67.5159717316
20
9.12925570582
10
67.558461
20
9.154593
10
67.5866507342
20
9.17166679944
10
67.6149078084
20
9.18964989705
10
67.6431837394
20
9.20849200309
10
67.6714300439
20
9.2281428278
10
67.6995982389
20
9.24855208143
10
67.7276398412
20
9.26966947424
10
67.7555063676
20
9.29144471646
10
67.7831493349
20
9.31382751834
10
67.8105202599
20
9.33676759014
10
67.8375706596
20
9.36021464211
10
67.8642520508
20
9.38411838448
10
67.8905159502
20
9.40842852751
10
67.9163138747
20
9.43309478144
10
67.9415973411
20
9.45806685653
10
67.9663178663
20
9.48329446303
10
67.9904269672
20
9.50872731117
10
68.0138761605
20
9.53431511121
10
68.036616963
20
9.56000757339
10
68.0586008917
20
9.58575440798
10
68.0797794633
20
9.6115053252
10
68.1001041947
20
9.63721003531
10
68.1195266027
20
9.66281824857
10
68.1379982042
20
9.6882796752
10
68.1554705159
20
9.71354402548
10
68.1718950547
20
9.73856100963
10
68.1872233376
20
9.76328033792
10
68.2014068811
20
9.78765172059
10
68.2143972023
20
9.81162486788
10
68.226145818
20
9.83514949005
10
68.2366042449
20
9.85817529734
10
68.245724
20
9.880652
10
68.2877670016
20
10.0124184558
10
68.3266732366
20
10.1770453944
10
68.362457518
20
10.372677205
10
68.3951346588
20
10.5974582768
10
68.424719472
20
10.849532999
10
68.4512267705
20
11.1270457607
10
68.4746713674
20
11.4281409511
10
68.4950680757
20
11.7509629594
10
68.5124317084
20
12.0936561748
10
68.5267770784
20
12.4543649865
10
68.5381189989
20
12.8312337836
10
68.5464722826
20
13.2224069553
10
68.5518517428
20
13.6260288907
10
68.5542721923
20
14.0402439792
10
68.5537484441
20
14.4631966098
10
68.5502953113
20
14.8930311717
10
68.5439276069
20
15.3278920541
10
68.5346601438
20
15.7659236462
10
68.5225077351
20
16.2052703371
10
68.5074851936
20
16.6440765161
10
68.4896073326
20
17.0804865723
10
68.4688889649
20
17.5126448949
10
68.4453449035
20
17.938695873
10
68.4189899614
20
18.3567838959
10
68.3898389517
20
18.7650533528
10
68.3579066873
20
19.1616486327
10
68.3232079812
20
19.5447141249
10
68.2857576464
20
19.9123942185
10
68.245570496
20
20.2628333028
10
68.2026613428
20
20.5941757669
10
68.157045
20
20.904566
10
68.1086263543
20
21.20498853
10
68.0574438284
20
21.5065744067
10
68.0033984099
20
21.8096738986
10
67.9463910864
20
22.1146372744
10
67.8863228455
20
22.4218148027
10
67.8230946748
20
22.731556752
10
67.7566075619
20
23.044213391
10
67.6867624945
20
23.3601349882
10
67.6134604602
20
23.6796718124
10
67.5366024465
20
24.003174132
10
67.4560894412
20
24.3309922157
10
67.3718224317
20
24.6634763321
10
67.2837024058
20
25.0009767498
10
67.1916303509
20
25.3438437374
10
67.0955072549
20
25.6924275636
10
66.9952341052
20
26.0470784968
10
66.8907118894
20
26.4081468057
10
66.7818415953
20
26.775982759
10
66.6685242103
20
27.1509366252
10
66.5506607222
20
27.533358673
10
66.4281521185
20
27.9235991708
10
66.3008993868
20
28.3220083874
10
66.1688035148
20
28.7289365914
10
66.0317654901
20
29.1447340513
10
65.8896863002
20
29.5697510357
10
65.7424669329
20
30.0043378134
10
65.5900083756
20
30.4488446527
10
65.4322116161
20
30.9036218225
10
65.2689776419
20
31.3690195912
10
65.1002074407
20
31.8453882275
10
64.925802
20
32.333078
10
64.8553370873
20
32.5300871402
10
64.7849064071
20
32.7286516833
10
64.7146261752
20
32.9284061521
10
64.6446126075
20
33.1289850691
10
64.5749819198
20
33.330022957
10
64.5058503279
20
33.5311543385
10
64.4373340477
20
33.7320137361
10
64.369549295
20
33.9322356726
10
64.3026122856
20
34.1314546705
10
64.2366392354
20
34.3293052525
10
64.1717463602
20
34.5254219413
10
64.1080498759
20
34.7194392594
10
64.0456659983
20
34.9109917296
10
63.9847109432
20
35.0997138745
10
63.9253009265
20
35.2852402166
10
63.867552164
20
35.4672052787
10
63.8115808715
20
35.6452435834
10
63.7575032649
20
35.8189896533
10
63.7054355601
20
35.9880780111
10
63.6554939727
20
36.1521431794
10
63.6077947188
20
36.3108196809
10
63.5624540141
20
36.4637420381
10
63.5195880745
20
36.6105447738
10
63.4793131157
20
36.7508624106
10
63.4417453537
20
36.8843294711
10
63.4070010043
20
37.0105804779
10
63.3751962832
20
37.1292499538
10
63.3464474065
20
37.2399724213
10
63.3208705898
20
37.342382403
10
63.298582049
20
37.4361144217
10
63.279698
20
37.520803
10
63.262241987
20
37.6023488887
10
63.244189592
20
37.6867596121
10
63.2255847972
20
37.7738286919
10
63.2064715848
20
37.8633496494
10
63.186893937
20
37.9551160063
10
63.1668958361
20
38.048921284
10
63.1465212643
20
38.1445590042
10
63.1258142037
20
38.2418226884
10
63.1048186366
20
38.340505858
10
63.0835785451
20
38.4404020346
10
63.0621379116
20
38.5413047398
10
63.0405407181
20
38.643007495
10
63.018830947
20
38.7453038219
10
62.9970525804
20
38.847987242
10
62.9752496005
20
38.9508512767
10
62.9534659895
20
39.0536894476
10
62.9317457297
20
39.1562952763
10
62.9101328033
20
39.2584622842
10
62.8886711924
20
39.359983993
10
62.8674048793
20
39.4606539241
10
62.8463778461
20
39.5602655991
10
62.8256340752
20
39.6586125395
10
62.8052175487
20
39.7554882669
10
62.7851722487
20
39.8506863027
10
62.7655421576
20
39.9440001686
10
62.7463712576
20
40.035223386
10
62.7277035307
20
40.1241494765
10
62.7095829594
20
40.2105719616
10
62.6920535256
20
40.2942843629
10
62.6751592118
20
40.3750802018
10
62.658944
20
40.452753
10
62.6430573073
20
40.5288122457
10
62.6271337865
20
40.6048220315
10
62.611200499
20
40.6806574946
10
62.5952845065
20
40.7561937724
10
62.5794128703
20
40.8313060022
10
62.5636126521
20
40.9058693214
10
62.5479109133
20
40.9797588671
10
62.5323347156
20
41.0528497769
10
62.5169111204
20
41.1250171879
10
62.5016671892
20
41.1961362376
10
62.4866299837
20
41.2660820631
10
62.4718265652
20
41.334729802
10
62.4572839954
20
41.4019545914
10
62.4430293358
20
41.4676315688
10
62.4290896478
20
41.5316358713
10
62.4154919932
20
41.5938426365
10
62.4022634332
20
41.6541270015
10
62.3894310296
20
41.7123641037
10
62.3770218437
20
41.7684290804
10
62.3650629373
20
41.822197069
10
62.3535813717
20
41.8735432068
10
62.3426042085
20
41.922342631
10
62.3321585092
20
41.9684704791
10
62.3222713354
20
42.0118018883
10
62.3129697485
20
42.052211996
10
62.3042808102
20
42.0895759395
10
62.296231582
20
42.1237688561
10
62.2888491253
20
42.1546658831
10
62.2821605017
20
42.1821421579
10
62.2761927728
20
42.2060728177
10
62.270973
20
42.226333
10
62.2645554361
20
42.2525278359
10
62.259272603
20
42.2781720222
10
62.2551635793
20
42.3033317543
10
62.2522674434
20
42.3280732275
10
62.2506232737
20
42.3524626371
10
62.2502701487
20
42.3765661787
10
62.2512471469
20
42.4004500474
10
62.2535933465
20
42.4241804388
10
62.2573478263
20
42.447823548
10
62.2625496644
20
42.4714455706
10
62.2692379395
20
42.4951127018
10
62.27745173
20
42.518891137
10
62.2872301142
20
42.5428470716
10
62.2986121707
20
42.567046701
10
62.3116369779
20
42.5915562204
10
62.3263436142
20
42.6164418253
10
62.3427711581
20
42.6417697111
10
62.3609586881
20
42.667606073
10
62.3809452825
20
42.6940171065
10
62.4027700199
20
42.7210690068
10
62.4264719787
20
42.7488279695
10
62.4520902372
20
42.7773601898
10
62.4796638741
20
42.806731863
10
62.5092319676
20
42.8370091846
10
62.5408335963
20
42.8682583499
10
62.5745078386
20
42.9005455543
10
62.610293773
20
42.9339369932
10
62.6482304779
20
42.9684988618
10
62.6883570317
20
43.0042973555
10
62.7307125129
20
43.0413986698
10
62.775336
20
43.079869
10
62.8594260474
20
43.1549563389
10
62.9408290035
20
43.2341208727
10
63.0196535086
20
43.3176979252
10
63.096008203
20
43.4060228204
10
63.1700017269
20
43.4994308821
10
63.2417427206
20
43.5982574342
10
63.3113398242
20
43.7028378006
10
63.3789016782
20
43.8135073053
10
63.4445369228
20
43.930601272
10
63.5083541981
20
44.0544550246
10
63.5704621445
20
44.1854038872
10
63.6309694023
20
44.3237831835
10
63.6899846117
20
44.4699282374
10
63.7476164129
20
44.6241743729
10
63.8039734462
20
44.7868569138
10
63.8591643519
20
44.958311184
10
63.9132977703
20
45.1388725074
10
63.9664823415
20
45.3288762079
10
64.0188267059
20
45.5286576094
10
64.0704395037
20
45.7385520358
10
64.1214293752
20
45.9588948109
10
64.1719049607
20
46.1900212587
10
64.2219749003
20
46.4322667031
10
64.2717478344
20
46.6859664678
10
64.3213324033
20
46.9514558769
10
64.3708372471
20
47.2290702542
10
64.4203710061
20
47.5191449236
10
64.4700423207
20
47.822015209
10
64.519959831
20
48.1380164343
10
64.5702321774
20
48.4674839233
10
64.620968
20
48.810753
10
64.6372011609
20
48.9217819468
10
64.6534292247
20
49.031881405
10
64.6696246114
20
49.1408898173
10
64.6857597411
20
49.2486456262
10
64.7018070339
20
49.3549872746
10
64.7177389099
20
49.4597532051
10
64.733527789
20
49.5627818604
10
64.7491460914
20
49.6639116831
10
64.7645662371
20
49.762981116
10
64.7797606461
20
49.8598286017
10
64.7947017386
20
49.9542925829
10
64.8093619345
20
50.0462115024
10
64.8237136541
20
50.1354238027
10
64.8377293172
20
50.2217679266
10
64.851381344
20
50.3050823167
10
64.8646421545
20
50.3852054158
10
64.8774841688
20
50.4619756665
10
64.8898798069
20
50.5352315116
10
64.901801489
20
50.6048113936
10
64.913221635
20
50.6705537553
10
64.924112665
20
50.7322970393
10
64.9344469992
20
50.7898796884
10
64.9441970574
20
50.8431401452
10
64.9533352599
20
50.8919168524
10
64.9618340267
20
50.9360482528
10
64.9696657777
20
50.9753727889
10
64.9768029332
20
51.0097289034
10
64.9832179131
20
51.0389550391
10
64.9888831375
20
51.0628896387
10
64.9937710264
20
51.0813711447
10
64.997854
20
51.094238
10
65.0090145321
20
51.1217998631
10
65.0214236845
20
51.1470315691
10
65.0350935656
20
51.1699310667
10
65.0500362838
20
51.1904963049
10
65.0662639473
20
51.2087252326
10
65.0837886646
20
51.2246157987
10
65.1026225439
20
51.2381659521
10
65.1227776937
20
51.2493736418
10
65.1442662223
20
51.2582368166
10
65.1671002381
20
51.2647534255
10
65.1912918494
20
51.2689214173
10
65.2168531646
20
51.270738741
10
65.243796292
20
51.2702033455
10
65.2721333399
20
51.2673131798
10
65.3018764168
20
51.2620661926
10
65.333037631
20
51.2544603329
10
65.3656290909
20
51.2444935497
10
65.3996629047
20
51.2321637918
10
65.4351511809
20
51.2174690082
10
65.4721060278
20
51.2004071477
10
65.5105395538
20
51.1809761593
10
65.5504638671
20
51.1591739919
10
65.5918910763
20
51.1349985944
10
65.6348332896
20
51.1084479157
10
65.6793026154
20
51.0795199048
10
65.725311162
20
51.0482125104
10
65.7728710378
20
51.0145236816
10
65.8219943511
20
50.9784513673
10
65.8726932104
20
50.9399935163
10
65.9249797239
20
50.8991480775
10
65.978866
20
50.855913
10
66.0068490898
20
50.8333149622
10
66.0350842566
20
50.8107757733
10
66.0635188946
20
50.7883317559
10
66.0921003982
20
50.7660192324
10
66.1207761616
20
50.7438745251
10
66.1494935793
20
50.7219339567
10
66.1782000454
20
50.7002338494
10
66.2068429544
20
50.6788105258
10
66.2353697005
20
50.6577003083
10
66.263727678
20
50.6369395194
10
66.2918642813
20
50.6165644815
10
66.3197269047
20
50.596611517
10
66.3472629425
20
50.5771169484
10
66.3744197889
20
50.5581170982
10
66.4011448384
20
50.5396482887
10
66.4273854852
20
50.5217468424
10
66.4530891237
20
50.5044490819
10
66.4782031481
20
50.4877913294
10
66.5026749527
20
50.4718099076
10
66.526451932
20
50.4565411387
10
66.5494814801
20
50.4420213453
10
66.5717109915
20
50.4282868498
10
66.5930878604
20
50.4153739747
10
66.6135594811
20
50.4033190424
10
66.633073248
20
50.3921583753
10
66.6515765553
20
50.3819282959
10
66.6690167975
20
50.3726651266
10
66.6853413687
20
50.36440519
10
66.7004976633
20
50.3571848084
10
66.7144330756
20
50.3510403042
10
66.727095
20
50.346008
10
66.7520039662
20
50.3295886153
10
66.7831808006
20
50.29696051
10
66.8202615357
20
50.2489174027
10
66.8628822041
20
50.186253012
10
66.9106788382
20
50.1097610565
10
66.9632874708
20
50.0202352547
10
67.0203441343
20
49.9184693252
10
67.0814848614
20
49.8052569866
10
67.1463456845
20
49.6813919575
10
67.2145626362
20
49.5476679564
10
67.2857717491
20
49.4048787019
10
67.3596090558
20
49.2538179125
10
67.4357105888
20
49.0952793069
10
67.5137123806
20
48.9300566037
10
67.5932504639
20
48.7589435213
10
67.6739608712
20
48.5827337784
10
67.755479635
20
48.4022210935
10
67.8374427879
20
48.2181991853
10
67.9194863625
20
48.0314617722
10
68.0012463914
20
47.8428025729
10
68.082358907
20
47.6530153059
10
68.162459942
20
47.4628936898
10
68.2411855289
20
47.2732314432
10
68.3181717002
20
47.0848222846
10
68.3930544886
20
46.8984599326
10
68.4654699266
20
46.7149381059
10
68.5350540467
20
46.5350505229
10
68.6014428816
20
46.3595909022
10
68.6642724637
20
46.1893529625
10
68.7231788257
20
46.0251304222
10
68.777798
20
45.867717
10
68.7928519157
20
45.823878385
10
68.8080137565
20
45.7804538702
10
68.8232560822
20
45.7375069021
10
68.8385514527
20
45.6951009272
10
68.8538724277
20
45.6532993923
10
68.8691915671
20
45.612165744
10
68.8844814308
20
45.5717634288
10
68.8997145786
20
45.5321558934
10
68.9148635702
20
45.4934065843
10
68.9299009657
20
45.4555789482
10
68.9447993247
20
45.4187364318
10
68.9595312071
20
45.3829424815
10
68.9740691727
20
45.3482605441
10
68.9883857815
20
45.3147540661
10
69.0024535931
20
45.2824864941
10
69.0162451675
20
45.2515212748
10
69.0297330645
20
45.2219218548
10
69.0428898439
20
45.1937516807
10
69.0556880656
20
45.167074199
10
69.0681002893
20
45.1419528565
10
69.0800990749
20
45.1184510996
10
69.0916569823
20
45.0966323751
10
69.1027465713
20
45.0765601295
10
69.1133404017
20
45.0582978095
10
69.1234110333
20
45.0419088616
10
69.132931026
20
45.0274567325
10
69.1418729396
20
45.0150048688
10
69.150209334
20
45.0046167171
10
69.157912769
20
44.996355724
10
69.1649558044
20
44.9902853361
10
69.171311
20
44.986469
10
69.1772723729
20
44.9831576841
10
69.1831439725
20
44.9785845974
10
69.1889186334
20
44.9727859672
10
69.1945891901
20
44.9657980206
10
69.2001484769
20
44.9576569848
10
69.2055893285
20
44.948399087
10
69.2109045792
20
44.9380605544
10
69.2160870636
20
44.9266776141
10
69.2211296162
20
44.9142864934
10
69.2260250714
20
44.9009234195
10
69.2307662636
20
44.8866246194
10
69.2353460275
20
44.8714263204
10
69.2397571974
20
44.8553647497
10
69.2439926079
20
44.8384761344
10
69.2480450934
20
44.8207967018
10
69.2519074883
20
44.802362679
10
69.2555726273
20
44.7832102932
10
69.2590333447
20
44.7633757716
10
69.2622824751
20
44.7428953414
10
69.2653128529
20
44.7218052297
10
69.2681173126
20
44.7001416638
10
69.2706886887
20
44.6779408708
10
69.2730198156
20
44.6552390778
10
69.2751035279
20
44.6320725122
10
69.2769326601
20
44.608477401
10
69.2785000465
20
44.5844899715
10
69.2797985217
20
44.5601464508
10
69.2808209202
20
44.5354830661
10
69.2815600764
20
44.5105360446
10
69.2820088248
20
44.4853416135
10
69.28216
20
44.459936
10
69.2828251834
20
44.4308309002
10
69.2847981752
20
44.3946625708
10
69.2880451372
20
44.3516546605
10
69.2925322316
20
44.302030818
10
69.2982256205
20
44.2460146921
10
69.3050914659
20
44.1838299313
10
69.3130959298
20
44.1157001843
10
69.3222051744
20
44.0418490999
10
69.3323853618
20
43.9625003268
10
69.3436026538
20
43.8778775135
10
69.3558232127
20
43.7882043089
10
69.3690132005
20
43.6937043616
10
69.3831387792
20
43.5946013202
10
69.398166111
20
43.4911188335
10
69.4140613578
20
43.3834805502
10
69.4307906817
20
43.2719101189
10
69.4483202449
20
43.1566311883
10
69.4666162093
20
43.0378674071
10
69.4856447371
20
42.9158424241
10
69.5053719902
20
42.7907798878
10
69.5257641308
20
42.6629034469
10
69.5467873209
20
42.5324367502
10
69.5684077225
20
42.3996034464
10
69.5905914978
20
42.264627184
10
69.6133048088
20
42.1277316119
10
69.6365138176
20
41.9891403787
10
69.6601846862
20
41.8490771331
10
69.6842835767
20
41.7077655237
10
69.7087766511
20
41.5654291993
10
69.7336300715
20
41.4222918085
10
69.75881
20
41.278577
10
69.7999293094
20
41.044003808
10
69.8386308141
20
40.8209159736
10
69.8749895565
20
40.6083719804
10
69.9090805792
20
40.4054303121
10
69.9409789243
20
40.2111494521
10
69.9707596345
20
40.024587884
10
69.9984977519
20
39.8448040915
10
70.0242683191
20
39.670856558
10
70.0481463784
20
39.5018037671
10
70.0702069722
20
39.3367042025
10
70.090525143
20
39.1746163477
10
70.1091759331
20
39.0145986861
10
70.1262343848
20
38.8557097016
10
70.1417755407
20
38.6970078774
10
70.1558744431
20
38.5375516974
10
70.1686061344
20
38.376399645
10
70.180045657
20
38.2126102037
10
70.1902680532
20
38.0452418572
10
70.1993483656
20
37.8733530891
10
70.2073616364
20
37.6960023828
10
70.2143829081
20
37.512248222
10
70.2204872231
20
37.3211490903
10
70.2257496237
20
37.1217634711
10
70.2302451524
20
36.9131498482
10
70.2340488515
20
36.6943667049
10
70.2372357635
20
36.464472525
10
70.2398809307
20
36.222525792
10
70.2420593956
20
35.9675849894
10
70.2438462005
20
35.6987086008
10
70.2453163878
20
35.4149551098
10
70.246545
20
35.115383
10
70.247518086
20
34.8222175545
10
70.2481716966
20
34.5444754732
10
70.2484544894
20
34.2814215584
10
70.2483151221
20
34.0323206126
10
70.2477022525
20
33.7964374379
10
70.2465645383
20
33.5730368368
10
70.2448506372
20
33.3613836115
10
70.2425092069
20
33.1607425644
10
70.2394889051
20
32.9703784978
10
70.2357383896
20
32.7895562141
10
70.231206318
20
32.6175405154
10
70.2258413482
20
32.4535962043
10
70.2195921377
20
32.2969880829
10
70.2124073443
20
32.1469809536
10
70.2042356257
20
32.0028396188
10
70.1950256397
20
31.8638288807
10
70.1847260439
20
31.7292135417
10
70.1732854961
20
31.5982584041
10
70.1606526539
20
31.4702282702
10
70.1467761752
20
31.3443879424
10
70.1316047176
20
31.220002223
10
70.1150869388
20
31.0963359142
10
70.0971714965
20
30.9726538185
10
70.0778070485
20
30.8482207381
10
70.0569422525
20
30.7223014754
10
70.0345257662
20
30.5941608326
10
70.0105062473
20
30.4630636122
10
69.9848323535
20
30.3282746164
10
69.9574527425
20
30.1890586475
10
69.9283160721
20
30.044680508
10
69.897371
20
29.894405
10
69.8566450675
20
29.6964883099
10
69.819150468
20
29.5098787903
10
69.7850175147
20
29.3341231059
10
69.754376521
20
29.1687679216
10
69.7273578
20
29.013359902
10
69.7040916651
20
28.867445712
10
69.6847084294
20
28.7305720162
10
69.6693384063
20
28.6022854796
10
69.6581119089
20
28.4821327668
10
69.6511592505
20
28.3696605426
10
69.6486107444
20
28.2644154718
10
69.6505967037
20
28.1659442191
10
69.6572474419
20
28.0737934493
10
69.668693272
20
27.9875098272
10
69.6850645074
20
27.9066400175
10
69.7064914613
20
27.8307306849
10
69.733104447
20
27.7593284944
10
69.7650337777
20
27.6919801105
10
69.8024097666
20
27.6282321982
10
69.845362727
20
27.5676314221
10
69.8940229722
20
27.509724447
10
69.9485208154
20
27.4540579377
10
70.0089865698
20
27.4001785589
10
70.0755505487
20
27.3476329754
10
70.1483430654
20
27.295967852
10
70.2274944331
20
27.2447298535
10
70.313134965
20
27.1934656445
10
70.4053949744
20
27.1417218899
10
70.5044047745
20
27.0890452545
10
70.6102946786
20
27.0349824029
10
70.723195
20
26.97908
10
70.7520839687
20
26.9650544271
10
70.7807879675
20
26.9513355566
10
70.809308151
20
26.9379218055
10
70.8376456742
20
26.924811591
10
70.865801692
20
26.9120033304
10
70.893777359
20
26.8994954407
10
70.9215738303
20
26.8872863392
10
70.9491922606
20
26.875374443
10
70.9766338049
20
26.8637581693
10
71.0038996178
20
26.8524359353
10
71.0309908544
20
26.8414061582
10
71.0579086694
20
26.8306672551
10
71.0846542176
20
26.8202176431
10
71.111228654
20
26.8100557396
10
71.1376331333
20
26.8001799616
10
71.1638688105
20
26.7905887263
10
71.1899368403
20
26.7812804508
10
71.2158383776
20
26.7722535525
10
71.2415745773
20
26.7635064484
10
71.2671465941
20
26.7550375556
10
71.292555583
20
26.7468452915
10
71.3178026988
20
26.7389280731
10
71.3428890963
20
26.7312843176
10
71.3678159303
20
26.7239124423
10
71.3925843558
20
26.7168108642
10
71.4171955276
20
26.7099780005
10
71.4416506005
20
26.7034122685
10
71.4659507293
20
26.6971120853
10
71.4900970689
20
26.691075868
10
71.5140907742
20
26.6853020338
10
71.537933
20
26.679789
10
71.537933
20
45.28576
10
71.5212472502
20
45.2867130556
10
71.5043252678
20
45.2892453188
10
71.4871635342
20
45.2933582407
10
71.4697585305
20
45.2990532725
10
71.4521067382
20
45.3063318652
10
71.4342046385
20
45.3151954699
10
71.4160487126
20
45.3256455378
10
71.3976354419
20
45.33768352
10
71.3789613077
20
45.3513108675
10
71.3600227912
20
45.3665290316
10
71.3408163737
20
45.3833394632
10
71.3213385366
20
45.4017436136
10
71.301585761
20
45.4217429337
10
71.2815545283
20
45.4433388748
10
71.2612413198
20
45.466532888
10
71.2406426167
20
45.4913264242
10
71.2197549004
20
45.5177209347
10
71.1985746521
20
45.5457178706
10
71.1770983531
20
45.575318683
10
71.1553224847
20
45.6065248229
10
71.1332435282
20
45.6393377416
10
71.1108579649
20
45.67375889
10
71.0881622761
20
45.7097897193
10
71.0651529429
20
45.7474316807
10
71.0418264468
20
45.7866862252
10
71.0181792691
20
45.8275548039
10
70.9942078909
20
45.870038868
10
70.9699087936
20
45.9141398686
10
70.9452784585
20
45.9598592567
10
70.9203133669
20
46.0071984834
10
70.89501
20
46.056159
10
70.8731445761
20
46.0987647851
10
70.8506027236
20
46.1424701026
10
70.8274375227
20
46.1871768639
10
70.8037020534
20
46.2327869801
10
70.7794493961
20
46.2792023626
10
70.7547326309
20
46.3263249225
10
70.729604838
20
46.3740565712
10
70.7041190976
20
46.4222992198
10
70.6783284899
20
46.4709547796
10
70.6522860951
20
46.5199251619
10
70.6260449934
20
46.5691122779
10
70.5996582649
20
46.6184180389
10
70.5731789899
20
46.6677443561
10
70.5466602485
20
46.7169931407
10
70.520155121
20
46.7660663041
10
70.4937166875
20
46.8148657573
10
70.4673980283
20
46.8632934118
10
70.4412522234
20
46.9112511788
10
70.4153323532
20
46.9586409694
10
70.3896914978
20
47.005364695
10
70.3643827373
20
47.0513242668
10
70.3394591521
20
47.096421596
10
70.3149738222
20
47.1405585939
10
70.2909798279
20
47.1836371718
10
70.2675302494
20
47.2255592408
10
70.2446781668
20
47.2662267123
10
70.2224766604
20
47.3055414975
10
70.2009788103
20
47.3434055076
10
70.1802376968
20
47.3797206539
10
70.1603063999
20
47.4143888476
10
70.141238
20
47.447312
10
70.0532594408
20
47.6023878242
10
69.9680402296
20
47.7601001652
10
69.8857056146
20
47.9199255188
10
69.8063808441
20
48.0813403811
10
69.7301911661
20
48.2438212478
10
69.6572618287
20
48.4068446149
10
69.5877180803
20
48.5698869783
10
69.5216851689
20
48.7324248341
10
69.4592883427
20
48.893934678
10
69.4006528498
20
49.053893006
10
69.3459039384
20
49.2117763141
10
69.2951668568
20
49.367061098
10
69.2485668529
20
49.5192238539
10
69.2062291751
20
49.6677410776
10
69.1682790715
20
49.8120892649
10
69.1348417901
20
49.951744912
10
69.1060425793
20
50.0861845145
10
69.0820066871
20
50.2148845686
10
69.0628593618
20
50.33732157
10
69.0487258514
20
50.4529720148
10
69.0397314041
20
50.5613123988
10
69.0360012682
20
50.661819218
10
69.0376606917
20
50.7539689682
10
69.0448349228
20
50.8372381455
10
69.0576492098
20
50.9111032457
10
69.0762288006
20
50.9750407647
10
69.1006989436
20
51.0285271985
10
69.1311848869
20
51.0710390431
10
69.1678118786
20
51.1020527942
10
69.2107051669
20
51.1210449479
10
69.25999
20
51.127492
10
69.2742190509
20
51.1272287345
10
69.2888213187
20
51.1264478949
10
69.3037636372
20
51.1251629162
10
69.3190128406
20
51.1233872339
10
69.3345357626
20
51.1211342829
10
69.3502992374
20
51.1184174986
10
69.3662700987
20
51.1152503161
10
69.3824151805
20
51.1116461706
10
69.3987013168
20
51.1076184973
10
69.4150953415
20
51.1031807315
10
69.4315640887
20
51.0983463083
10
69.4480743921
20
51.0931286629
10
69.4645930857
20
51.0875412305
10
69.4810870036
20
51.0815974463
10
69.4975229796
20
51.0753107456
10
69.5138678477
20
51.0686945635
10
69.5300884418
20
51.0617623351
10
69.5461515959
20
51.0545274958
10
69.5620241438
20
51.0470034807
10
69.5776729197
20
51.039203725
10
69.5930647573
20
51.0311416639
10
69.6081664907
20
51.0228307326
10
69.6229449537
20
51.0142843664
10
69.6373669804
20
51.0055160003
10
69.6513994047
20
50.9965390696
10
69.6650090605
20
50.9873670095
10
69.6781627817
20
50.9780132552
10
69.6908274023
20
50.9684912419
10
69.7029697563
20
50.9588144048
10
69.7145566775
20
50.9489961791
10
69.725555
20
50.93905
10
69.7410977361
20
50.9246578511
10
69.7557014899
20
50.9114598764
10
69.769375935
20
50.8994737194
10
69.7821307448
20
50.8887170237
10
69.7939755925
20
50.8792074328
10
69.8049201516
20
50.8709625901
10
69.8149740954
20
50.8640001392
10
69.8241470975
20
50.8583377237
10
69.8324488311
20
50.8539929869
10
69.8398889697
20
50.8509835726
10
69.8464771866
20
50.849327124
10
69.8522231552
20
50.8490412849
10
69.857136549
20
50.8501436986
10
69.8612270413
20
50.8526520088
10
69.8645043055
20
50.8565838589
10
69.866978015
20
50.8619568924
10
69.8686578432
20
50.8687887529
10
69.8695534635
20
50.8770970839
10
69.8696745493
20
50.8868995289
10
69.8690307739
20
50.8982137313
10
69.8676318108
20
50.9110573348
10
69.8654873333
20
50.9254479829
10
69.8626070149
20
50.941403319
10
69.8590005289
20
50.9589409867
10
69.8546775488
20
50.9780786295
10
69.8496477478
20
50.9988338908
10
69.8439207995
20
51.0212244144
10
69.8375063771
20
51.0452678435
10
69.8304141542
20
51.0709818218
10
69.822653804
20
51.0983839928
10
69.814235
20
51.127492
10
69.7954049302
20
51.1929402666
10
69.7774184251
20
51.2573138726
10
69.760283557
20
51.3205401886
10
69.7440083984
20
51.3825465852
10
69.7286010218
20
51.4432604331
10
69.7140694995
20
51.5026091028
10
69.7004219041
20
51.560519965
10
69.687666308
20
51.6169203903
10
69.6758107835
20
51.6717377493
10
69.6648634032
20
51.7248994126
10
69.6548322395
20
51.7763327509
10
69.6457253647
20
51.8259651347
10
69.6375508515
20
51.8737239347
10
69.6303167721
20
51.9195365214
10
69.624031199
20
51.9633302656
10
69.6187022047
20
52.0050325377
10
69.6143378616
20
52.0445707085
10
69.6109462422
20
52.0818721486
10
69.6085354188
20
52.1168642285
10
69.607113464
20
52.1494743188
10
69.6066884501
20
52.1796297903
10
69.6072684496
20
52.2072580134
10
69.6088615349
20
52.2322863589
10
69.6114757785
20
52.2546421973
10
69.6151192528
20
52.2742528993
10
69.6198000302
20
52.2910458354
10
69.6255261833
20
52.3049483763
10
69.6323057843
20
52.3158878926
10
69.6401469058
20
52.3237917549
10
69.6490576203
20
52.3285873338
10
69.659046
20
52.330202
10
69.6652828141
20
52.3296363479
10
69.6725660092
20
52.327957907
10
69.6808602306
20
52.3251944503
10
69.6901301235
20
52.3213737509
10
69.7003403334
20
52.316523582
10
69.7114555054
20
52.3106717166
10
69.7234402848
20
52.3038459278
10
69.736259317
20
52.2960739887
10
69.7498772473
20
52.2873836724
10
69.764258721
20
52.2778027519
10
69.7793683832
20
52.2673590004
10
69.7951708795
20
52.2560801909
10
69.8116308549
20
52.2439940965
10
69.8287129549
20
52.2311284903
10
69.8463818247
20
52.2175111454
10
69.8646021097
20
52.2031698348
10
69.8833384551
20
52.1881323318
10
69.9025555062
20
52.1724264093
10
69.9222179083
20
52.1560798404
10
69.9422903067
20
52.1391203982
10
69.9627373467
20
52.1215758558
10
69.9835236736
20
52.1034739863
10
70.0046139327
20
52.0848425628
10
70.0259727693
20
52.0657093583
10
70.0475648287
20
52.046102146
10
70.0693547561
20
52.0260486989
10
70.091307197
20
52.0055767902
10
70.1133867965
20
51.9847141928
10
70.1355582
20
51.9634886799
10
70.1577860527
20
51.9419280246
10
70.180035
20
51.92006
10
70.2609816151
20
51.8405988115
10
70.338352056
20
51.7659195907
10
70.4121294096
20
51.6960263389
10
70.4822967629
20
51.6309230569
10
70.548837203
20
51.5706137459
10
70.6117338168
20
51.515102407
10
70.6709696911
20
51.4643930413
10
70.7265279132
20
51.4184896498
10
70.7783915698
20
51.3773962335
10
70.8265437479
20
51.3411167937
10
70.8709675347
20
51.3096553312
10
70.9116460169
20
51.2830158473
10
70.9485622816
20
51.261202343
10
70.9816994158
20
51.2442188194
10
71.0110405064
20
51.2320692775
10
71.0365686404
20
51.2247577184
10
71.0582669047
20
51.2222881432
10
71.0761183865
20
51.2246645529
10
71.0901061725
20
51.2318909487
10
71.1002133498
20
51.2439713316
10
71.1064230054
20
51.2609097027
10
71.1087182263
20
51.282710063
10
71.1070820993
20
51.3093764137
10
71.1014977116
20
51.3409127558
10
71.0919481499
20
51.3773230904
10
71.0784165015
20
51.4186114185
10
71.0608858531
20
51.4647817412
10
71.0393392918
20
51.5158380597
10
71.0137599045
20
51.5717843749
10
70.9841307783
20
51.632624688
10
70.950435
20
51.698363
10
70.9257217649
20
51.7467983074
10
70.8994750963
20
51.8006267124
10
70.871853904
20
51.8594174227
10
70.8430170979
20
51.9227396461
10
70.813123588
20
51.9901625905
10
70.782332284
20
52.0612554636
10
70.7508020959
20
52.1355874734
10
70.7186919334
20
52.2127278275
10
70.6861607066
20
52.2922457338
10
70.6533673252
20
52.3737104002
10
70.6204706991
20
52.4566910344
10
70.5876297383
20
52.5407568443
10
70.5550033525
20
52.6254770377
10
70.5227504516
20
52.7104208223
10
70.4910299456
20
52.795157406
10
70.4600007443
20
52.8792559967
10
70.4298217575
20
52.9622858021
10
70.4006518952
20
53.04381603
10
70.3726500671
20
53.1234158883
10
70.3459751833
20
53.2006545847
10
70.3207861535
20
53.2751013271
10
70.2972418876
20
53.3463253234
10
70.2755012955
20
53.4138957812
10
70.2557232871
20
53.4773819085
10
70.2380667722
20
53.5363529131
10
70.2226906607
20
53.5903780027
10
70.2097538625
20
53.6390263851
10
70.1994152875
20
53.6818672683
10
70.1918338455
20
53.7184698599
10
70.1871684463
20
53.7484033679
10
70.185578
20
53.771237
10
70.1861842003
20
53.7816059035
10
70.1879827241
20
53.792093198
10
70.1909434558
20
53.8026792433
10
70.1950362799
20
53.8133443991
10
70.2002310806
20
53.8240690253
10
70.2064977425
20
53.8348334815
10
70.2138061498
20
53.8456181276
10
70.222126187
20
53.8564033233
10
70.2314277385
20
53.8671694284
10
70.2416806887
20
53.8778968026
10
70.252854922
20
53.8885658058
10
70.2649203227
20
53.8991567978
10
70.2778467753
20
53.9096501382
10
70.2916041641
20
53.9200261869
10
70.3061623736
20
53.9302653037
10
70.3214912882
20
53.9403478482
10
70.3375607922
20
53.9502541804
10
70.35434077
20
53.9599646599
10
70.371801106
20
53.9694596465
10
70.3899116847
20
53.9787195001
10
70.4086423904
20
53.9877245803
10
70.4279631074
20
53.996455247
10
70.4478437204
20
54.0048918599
10
70.4682541135
20
54.0130147788
10
70.4891641712
20
54.0208043635
10
70.5105437779
20
54.0282409737
10
70.5323628179
20
54.0353049692
10
70.5545911758
20
54.0419767098
10
70.5771987358
20
54.0482365553
10
70.6001553824
20
54.0540648655
10
70.623431
20
54.059442
10
70.6470734838
20
54.0650879317
10
70.6711173678
20
54.0717129395
10
70.6955122042
20
54.0792828424
10
70.7202075451
20
54.0877634596
10
70.7451529427
20
54.0971206102
10
70.7702979491
20
54.1073201131
10
70.7955921164
20
54.1183277874
10
70.8209849968
20
54.1301094523
10
70.8464261425
20
54.1426309268
10
70.8718651056
20
54.15585803
10
70.8972514382
20
54.1697565809
10
70.9225346925
20
54.1842923987
10
70.9476644207
20
54.1994313024
10
70.9725901748
20
54.215139111
10
70.997261507
20
54.2313816437
10
71.0216279696
20
54.2481247195
10
71.0456391145
20
54.2653341575
10
71.069244494
20
54.2829757767
10
71.0923936602
20
54.3010153963
10
71.1150361653
20
54.3194188353
10
71.1371215614
20
54.3381519128
10
71.1585994007
20
54.3571804478
10
71.1794192352
20
54.3764702594
10
71.1995306172
20
54.3959871668
10
71.2188830988
20
54.4156969889
10
71.2374262321
20
54.4355655449
10
71.2551095693
20
54.4555586538
10
71.2718826626
20
54.4756421347
10
71.287695064
20
54.4957818066
10
71.3024963258
20
54.5159434887
10
71.316236
20
54.536093
10
71.3236191488
20
54.5472703276
10
71.3309660918
20
54.5582099953
10
71.338278977
20
54.5689137563
10
71.3455599522
20
54.5793833638
10
71.3528111655
20
54.5896205711
10
71.3600347648
20
54.5996271313
10
71.3672328981
20
54.6094047977
10
71.3744077133
20
54.6189553235
10
71.3815613585
20
54.6282804619
10
71.3886959815
20
54.6373819661
10
71.3958137304
20
54.6462615894
10
71.4029167531
20
54.6549210849
10
71.4100071976
20
54.6633622058
10
71.4170872118
20
54.6715867054
10
71.4241589437
20
54.6795963369
10
71.4312245412
20
54.6873928535
10
71.4382861524
20
54.6949780084
10
71.4453459252
20
54.7023535549
10
71.4524060076
20
54.709521246
10
71.4594685474
20
54.7164828352
10
71.4665356928
20
54.7232400755
10
71.4736095916
20
54.7297947202
10
71.4806923918
20
54.7361485225
10
71.4877862413
20
54.7423032356
10
71.4948932883
20
54.7482606127
10
71.5020156805
20
54.7540224071
10
71.509155566
20
54.7595903719
10
71.5163150927
20
54.7649662604
10
71.5234964087
20
54.7701518258
10
71.5307016618
20
54.7751488212
10
71.537933
20
54.779959
10
71.537933
20
58.897993
10
71.5267588143
20
58.912870002
10
71.5157017788
20
58.929011867
10
71.5047577886
20
58.9464157226
10
71.4939227389
20
58.9650786959
10
71.483192525
20
58.9849979146
10
71.4725630421
20
59.0061705058
10
71.4620301853
20
59.0285935971
10
71.4515898499
20
59.0522643158
10
71.4412379311
20
59.0771797892
10
71.430970324
20
59.1033371449
10
71.4207829239
20
59.1307335101
10
71.410671626
20
59.1593660123
10
71.4006323255
20
59.1892317788
10
71.3906609176
20
59.220327937
10
71.3807532974
20
59.2526516143
10
71.3709053602
20
59.2861999382
10
71.3611130013
20
59.320970036
10
71.3513721157
20
59.356959035
10
71.3416785987
20
59.3941640627
10
71.3320283456
20
59.4325822464
10
71.3224172514
20
59.4722107136
10
71.3128412115
20
59.5130465916
10
71.3032961209
20
59.5550870079
10
71.293777875
20
59.5983290897
10
71.2842823689
20
59.6427699645
10
71.2748054979
20
59.6884067597
10
71.265343157
20
59.7352366027
10
71.2558912416
20
59.7832566208
10
71.2464456468
20
59.8324639415
10
71.2370022679
20
59.8828556921
10
71.227557
20
59.934429
10
71.1981028262
20
60.0903894231
10
71.1639055304
20
60.2595937668
10
71.1252742093
20
60.4409527071
10
71.0825179594
20
60.6333769201
10
71.0359458772
20
60.8357770818
10
70.9858670593
20
61.0470638682
10
70.9325906024
20
61.2661479555
10
70.876425603
20
61.4919400196
10
70.8176811576
20
61.7233507365
10
70.7566663629
20
61.9592907824
10
70.6936903154
20
62.1986708333
10
70.6290621116
20
62.4404015651
10
70.5630908482
20
62.6833936541
10
70.4960856217
20
62.9265577761
10
70.4283555288
20
63.1688046072
10
70.3602096658
20
63.4090448236
10
70.2919571296
20
63.6461891011
10
70.2239070165
20
63.879148116
10
70.1563684232
20
64.1068325441
10
70.0896504463
20
64.3281530616
10
70.0240621824
20
64.5420203445
10
69.9599127279
20
64.7473450689
10
69.8975111795
20
64.9430379107
10
69.8371666338
20
65.1280095461
10
69.7791881873
20
65.301170651
10
69.7238849366
20
65.4614319015
10
69.6715659782
20
65.6077039738
10
69.6225404088
20
65.7388975437
10
69.5771173249
20
65.8539232873
10
69.5356058231
20
65.9516918807
10
69.498315
20
66.031114
10
69.4795518355
20
66.0689534127
10
69.4601640151
20
66.1089401737
10
69.4401975965
20
66.1509573897
10
69.4196986377
20
66.1948881678
10
69.3987131966
20
66.2406156146
10
69.377287331
20
66.288022837
10
69.3554670987
20
66.336992942
10
69.3332985577
20
66.3874090362
10
69.3108277658
20
66.4391542266
10
69.2881007809
20
66.4921116201
10
69.2651636609
20
66.5461643234
10
69.2420624636
20
66.6011954434
10
69.2188432469
20
66.6570880869
10
69.1955520686
20
66.7137253609
10
69.1722349867
20
66.7709903721
10
69.148938059
20
66.8287662273
10
69.1257073434
20
66.8869360335
10
69.1025888978
20
66.9453828975
10
69.0796287799
20
67.003989926
10
69.0568730477
20
67.062640226
10
69.0343677591
20
67.1212169044
10
69.0121589719
20
67.1796030678
10
68.9902927441
20
67.2376818233
10
68.9688151333
20
67.2953362776
10
68.9477721976
20
67.3524495376
10
68.9272099949
20
67.4089047101
10
68.9071745829
20
67.464584902
10
68.8877120195
20
67.51937322
10
68.8688683627
20
67.5731527712
10
68.8506896702
20
67.6258066622
10
68.833222
20
67.677218
10
68.8158591213
20
67.7284094076
10
68.797991054
20
67.7804113007
10
68.7796591025
20
67.8331184745
10
68.7609045715
20
67.8864257247
10
68.7417687655
20
67.9402278468
10
68.722292989
20
67.9944196361
10
68.7025185465
20
68.0488958881
10
68.6824867428
20
68.1035513984
10
68.6622388822
20
68.1582809624
10
68.6418162694
20
68.2129793756
10
68.6212602089
20
68.2675414334
10
68.6006120053
20
68.3218619314
10
68.5799129631
20
68.375835665
10
68.5592043869
20
68.4293574296
10
68.5385275812
20
68.4823220208
10
68.5179238506
20
68.5346242341
10
68.4974344997
20
68.5861588649
10
68.4771008329
20
68.6368207086
10
68.4569641549
20
68.6865045608
10
68.4370657703
20
68.7351052169
10
68.4174469835
20
68.7825174725
10
68.3981490991
20
68.8286361229
10
68.3792134216
20
68.8733559637
10
68.3606812557
20
68.9165717903
10
68.3425939059
20
68.9581783983
10
68.3249926768
20
68.998070583
10
68.3079188728
20
69.03614314
10
68.2914137986
20
69.0722908647
10
68.2755187587
20
69.1064085526
10
68.2602750576
20
69.1383909992
10
68.245724
20
69.168133
10
68.2099544021
20
69.2427323453
10
68.171612062
20
69.32747104
10
68.1308916922
20
69.4217573307
10
68.0879880051
20
69.5249994637
10
68.0430957133
20
69.6366056855
10
67.9964095292
20
69.7559842427
10
67.9481241654
20
69.8825433815
10
67.8984343343
20
70.0156913485
10
67.8475347484
20
70.1548363901
10
67.7956201203
20
70.2993867528
10
67.7428851624
20
70.448750683
10
67.6895245873
20
70.6023364272
10
67.6357331074
20
70.7595522318
10
67.5817054352
20
70.9198063433
10
67.5276362832
20
71.0825070081
10
67.473720364
20
71.2470624727
10
67.42015239
20
71.4128809835
10
67.3671270737
20
71.5793707869
10
67.3148391276
20
71.7459401295
10
67.2634832642
20
71.9119972577
10
67.213254196
20
72.0769504178
10
67.1643466356
20
72.2402078565
10
67.1169552953
20
72.4011778201
10
67.0712748877
20
72.559268555
10
67.0275001253
20
72.7138883078
10
66.9858257207
20
72.8644453249
10
66.9464463862
20
73.0103478526
10
66.9095568343
20
73.1510041376
10
66.8753517777
20
73.2858224262
10
66.8440259288
20
73.4142109648
10
66.815774
20
73.535578
10
66.7843299961
20
73.6769540164
10
66.7537547576
20
73.8196850949
10
66.7240236056
20
73.9639877148
10
66.6951118611
20
74.1100783554
10
66.6669948452
20
74.2581734961
10
66.639647879
20
74.4084896163
10
66.6130462836
20
74.5612431952
10
66.5871653799
20
74.7166507122
10
66.5619804892
20
74.8749286466
10
66.5374669324
20
75.0362934778
10
66.5136000307
20
75.2009616852
10
66.490355105
20
75.369149748
10
66.4677074766
20
75.5410741456
10
66.4456324663
20
75.7169513573
10
66.4241053954
20
75.8969978625
10
66.4031015848
20
76.0814301406
10
66.3825963557
20
76.2704646708
10
66.3625650292
20
76.4643179325
10
66.3429829262
20
76.663206405
10
66.3238253679
20
76.8673465677
10
66.3050676753
20
77.0769548999
10
66.2866851695
20
77.292247881
10
66.2686531716
20
77.5134419902
10
66.2509470026
20
77.740753707
10
66.2335419836
20
77.9743995107
10
66.2164134357
20
78.2145958806
10
66.19953668
20
78.461559296
10
66.1828870375
20
78.7155062363
10
66.1664398293
20
78.9766531809
10
66.1501703764
20
79.245216609
10
66.134054
20
79.521413
10
66.1165676267
20
79.8224454758
10
66.0994602225
20
80.1054105794
10
66.0824198451
20
80.3710901479
10
66.065134552
20
80.6202660182
10
66.0472924009
20
80.8537200273
10
66.0285814493
20
81.0722340123
10
66.0086897549
20
81.27658981
10
65.9873053752
20
81.4675692577
10
65.964116368
20
81.6459541921
10
65.9388107906
20
81.8125264504
10
65.9110767009
20
81.9680678695
10
65.8806021563
20
82.1133602864
10
65.8470752145
20
82.2491855381
10
65.810183933
20
82.3763254616
10
65.7696163695
20
82.495561894
10
65.7250605816
20
82.6076766721
10
65.6762046268
20
82.7134516331
10
65.6227365629
20
82.8136686138
10
65.5643444472
20
82.9091094514
10
65.5007163376
20
83.0005559828
10
65.4315402916
20
83.0887900449
10
65.3565043667
20
83.1745934749
10
65.2752966206
20
83.2587481097
10
65.1876051109
20
83.3420357862
10
65.0931178951
20
83.4252383415
10
64.991523031
20
83.5091376127
10
64.882508576
20
83.5945154366
10
64.7657625878
20
83.6821536503
10
64.640973124
20
83.7728340907
10
64.5078282422
20
83.867338595
10
64.366016
20
83.966449
10
63.251985
20
84.736848
10
63.351749
20
85.340973
10
63.3672694054
20
85.431870865
10
63.3829334086
20
85.5172926049
10
63.3988299643
20
85.5972863401
10
63.4150480272
20
85.671900191
10
63.4316765521
20
85.7411822781
10
63.4488044937
20
85.8051807219
10
63.4665208066
20
85.8639436426
10
63.4849144457
20
85.9175191609
10
63.5040743655
20
85.9659553971
10
63.524089521
20
86.0093004717
10
63.5450488666
20
86.0476025051
10
63.5670413573
20
86.0809096178
10
63.5901559476
20
86.1092699301
10
63.6144815924
20
86.1327315626
10
63.6401072463
20
86.1513426356
10
63.667121864
20
86.1651512697
10
63.6956144003
20
86.1742055852
10
63.7256738099
20
86.1785537026
10
63.7573890475
20
86.1782437423
10
63.7908490678
20
86.1733238247
10
63.8261428256
20
86.1638420704
10
63.8633592755
20
86.1498465997
10
63.9025873722
20
86.1313855331
10
63.9439160706
20
86.1085069911
10
63.9874343253
20
86.081259094
10
64.033231091
20
86.0496899622
10
64.0813953224
20
86.0138477164
10
64.1320159743
20
85.9737804768
10
64.1851820014
20
85.9295363639
10
64.2409823584
20
85.8811634981
10
64.299506
20
85.82871
10
64.3267808764
20
85.8040376042
10
64.3526439873
20
85.7809041466
10
64.3771149262
20
85.759303319
10
64.4002132866
20
85.7392288129
10
64.421958662
20
85.7206743201
10
64.442370646
20
85.7036335321
10
64.4614688319
20
85.6881001407
10
64.4792728133
20
85.6740678375
10
64.4958021838
20
85.6615303141
10
64.5110765367
20
85.6504812621
10
64.5251154657
20
85.6409143733
10
64.5379385642
20
85.6328233393
10
64.5495654257
20
85.6262018518
10
64.5600156437
20
85.6210436023
10
64.5693088118
20
85.6173422826
10
64.5774645233
20
85.6150915842
10
64.5845023719
20
85.614285199
10
64.590441951
20
85.6149168184
10
64.5953028541
20
85.6169801341
10
64.5991046748
20
85.6204688379
10
64.6018670064
20
85.6253766213
10
64.6036094427
20
85.6316971761
10
64.6043515769
20
85.6394241937
10
64.6041130027
20
85.6485513661
10
64.6029133135
20
85.6590723846
10
64.6007721028
20
85.6709809411
10
64.5977089642
20
85.6842707271
10
64.5937434911
20
85.6989354344
10
64.588895277
20
85.7149687545
10
64.5831839155
20
85.7323643792
10
64.576629
20
85.751116
10
64.5639117696
20
85.7893346064
10
64.5539272772
20
85.8253872489
10
64.5466210955
20
85.8592627751
10
64.5419387972
20
85.8909500328
10
64.5398259548
20
85.9204378697
10
64.5402281409
20
85.9477151334
10
64.5430909283
20
85.9727706717
10
64.5483598895
20
85.9955933323
10
64.5559805971
20
86.0161719629
10
64.5658986237
20
86.0344954112
10
64.578059542
20
86.0505525249
10
64.5924089247
20
86.0643321517
10
64.6088923442
20
86.0758231393
10
64.6274553733
20
86.0850143355
10
64.6480435846
20
86.0918945878
10
64.6706025507
20
86.0964527441
10
64.6950778441
20
86.098677652
10
64.7214150377
20
86.0985581593
10
64.7495597038
20
86.0960831136
10
64.7794574153
20
86.0912413627
10
64.8110537447
20
86.0840217542
10
64.8442942645
20
86.0744131359
10
64.8791245476
20
86.0624043555
10
64.9154901664
20
86.0479842606
10
64.9533366936
20
86.031141699
10
64.9926097018
20
86.0118655184
10
65.0332547637
20
85.9901445665
10
65.0752174518
20
85.965967691
10
65.1184433388
20
85.9393237397
10
65.1628779973
20
85.9102015601
10
65.208467
20
85.87859
10
65.2316130884
20
85.8621753074
10
65.2546405187
20
85.8459756434
10
65.2775129097
20
85.8300129192
10
65.3001938802
20
85.8143090456
10
65.3226470488
20
85.7988859338
10
65.3448360344
20
85.7837654949
10
65.3667244556
20
85.7689696398
10
65.3882759313
20
85.7545202796
10
65.4094540801
20
85.7404393254
10
65.4302225208
20
85.7267486882
10
65.4505448721
20
85.713470279
10
65.4703847529
20
85.700626009
10
65.4897057817
20
85.6882377891
10
65.5084715775
20
85.6763275304
10
65.5266457589
20
85.6649171439
10
65.5441919446
20
85.6540285408
10
65.5610737534
20
85.6436836319
10
65.5772548041
20
85.6339043285
10
65.5926987154
20
85.6247125415
10
65.607369106
20
85.6161301819
10
65.6212295947
20
85.6081791609
10
65.6342438002
20
85.6008813895
10
65.6463753413
20
85.5942587787
10
65.6575878368
20
85.5883332395
10
65.6678449052
20
85.5831266831
10
65.6771101655
20
85.5786610204
10
65.6853472363
20
85.5749581625
10
65.6925197365
20
85.5720400205
10
65.6985912846
20
85.5699285054
10
65.7035254995
20
85.5686455282
10
65.707286
20
85.568213
10
65.7103264463
20
85.5689795202
10
65.7131457224
20
85.5712530073
10
65.7157445082
20
85.5749943512
10
65.7181234837
20
85.580164442
10
65.7202833287
20
85.5867241695
10
65.7222247233
20
85.5946344237
10
65.7239483474
20
85.6038560944
10
65.7254548808
20
85.6143500717
10
65.7267450036
20
85.6260772455
10
65.7278193957
20
85.6389985057
10
65.7286787369
20
85.6530747422
10
65.7293237074
20
85.668266845
10
65.7297549869
20
85.684535704
10
65.7299732554
20
85.7018422091
10
65.7299791929
20
85.7201472503
10
65.7297734793
20
85.7394117175
10
65.7293567945
20
85.7595965006
10
65.7287298185
20
85.7806624896
10
65.7278932312
20
85.8025705744
10
65.7268477126
20
85.8252816449
10
65.7255939425
20
85.8487565911
10
65.724132601
20
85.8729563029
10
65.7224643679
20
85.8978416702
10
65.7205899232
20
85.923373583
10
65.7185099468
20
85.9495129312
10
65.7162251187
20
85.9762206047
10
65.7137361188
20
86.0034574935
10
65.7110436271
20
86.0311844875
10
65.7081483234
20
86.0593624766
10
65.7050508877
20
86.0879523508
10
65.701752
20
86.116915
10
65.6959270398
20
86.1670995094
10
65.6905960916
20
86.2140928399
10
65.6858296025
20
86.2579788886
10
65.6816980193
20
86.2988415526
10
65.678271789
20
86.3367647289
10
65.6756213587
20
86.3718323148
10
65.6738171754
20
86.4041282071
10
65.6729296859
20
86.4337363031
10
65.6730293373
20
86.4607404997
10
65.6741865765
20
86.4852246942
10
65.6764718507
20
86.5072727835
10
65.6799556066
20
86.5269686648
10
65.6847082913
20
86.5443962351
10
65.6908003519
20
86.5596393915
10
65.6983022351
20
86.5727820312
10
65.7072843882
20
86.5839080511
10
65.7178172579
20
86.5931013483
10
65.7299712914
20
86.60044582
10
65.7438169356
20
86.6060253633
10
65.7594246374
20
86.6099238752
10
65.7768648438
20
86.6122252527
10
65.7962080019
20
86.6130133931
10
65.8175245587
20
86.6123721933
10
65.840884961
20
86.6103855504
10
65.8663596558
20
86.6071373616
10
65.8940190903
20
86.6027115239
10
65.9239337112
20
86.5971919344
10
65.9561739657
20
86.5906624902
10
65.9908103007
20
86.5832070883
10
66.0279131631
20
86.5749096259
10
66.067553
20
86.565854
10
66.499864
20
86.466089
10
66.012129
20
86.915028
10
65.9862756253
20
86.9390790902
10
65.9607678715
20
86.9630703972
10
65.9356397776
20
86.986963072
10
65.9109253828
20
87.0107182658
10
65.8866587263
20
87.0342971298
10
65.8628738471
20
87.0576608151
10
65.8396047845
20
87.0807704729
10
65.8168855775
20
87.1035872543
10
65.7947502653
20
87.1260723105
10
65.7732328871
20
87.1481867926
10
65.7523674819
20
87.1698918518
10
65.732188089
20
87.1911486393
10
65.7127287474
20
87.2119183061
10
65.6940234963
20
87.2321620035
10
65.6761063749
20
87.2518408826
10
65.6590114222
20
87.2709160945
10
65.6427726775
20
87.2893487905
10
65.6274241798
20
87.3071001216
10
65.6129999682
20
87.324131239
10
65.5995340821
20
87.3404032939
10
65.5870605604
20
87.3558774374
10
65.5756134423
20
87.3705148207
10
65.5652267669
20
87.3842765948
10
65.5559345735
20
87.3971239111
10
65.5477709011
20
87.4090179206
10
65.5407697888
20
87.4199197745
10
65.5349652759
20
87.4297906239
10
65.5303914014
20
87.43859162
10
65.5270822045
20
87.446283914
10
65.5250717243
20
87.4528286569
10
65.524394
20
87.458187
10
65.52572758
20
87.4627746127
10
65.5296835433
20
87.4670328483
10
65.5361947247
20
87.4709616742
10
65.5451939592
20
87.4745610578
10
65.5566140816
20
87.4778309665
10
65.5703879268
20
87.4807713676
10
65.5864483296
20
87.4833822285
10
65.6047281251
20
87.4856635165
10
65.625160148
20
87.4876151992
10
65.6476772332
20
87.4892372437
10
65.6722122156
20
87.4905296175
10
65.6986979302
20
87.491492288
10
65.7270672117
20
87.4921252226
10
65.7572528951
20
87.4924283885
10
65.7891878152
20
87.4924017533
10
65.822804807
20
87.4920452842
10
65.8580367053
20
87.4913589486
10
65.894816345
20
87.4903427139
10
65.933076561
20
87.4889965475
10
65.9727501881
20
87.4873204168
10
66.0137700613
20
87.4853142891
10
66.0560690154
20
87.4829781318
10
66.0995798853
20
87.4803119122
10
66.144235506
20
87.4773155978
10
66.1899687122
20
87.4739891559
10
66.2367123388
20
87.4703325538
10
66.2843992208
20
87.4663457591
10
66.3329621931
20
87.4620287389
10
66.3823340904
20
87.4573814608
10
66.4324477478
20
87.452403892
10
66.483236
20
87.447096
10
66.5344804042
20
87.4418019874
10
66.5859470672
20
87.4368579594
10
66.6375456485
20
87.4322642211
10
66.6891858074
20
87.4280210778
10
66.7407772034
20
87.4241288344
10
66.7922294959
20
87.4205877962
10
66.8434523443
20
87.4173982682
10
66.8943554081
20
87.4145605556
10
66.9448483467
20
87.4120749635
10
66.9948408196
20
87.4099417971
10
67.0442424861
20
87.4081613614
10
67.0929630056
20
87.4067339615
10
67.1409120377
20
87.4056599027
10
67.1879992417
20
87.40493949
10
67.234134277
20
87.4045730286
10
67.2792268031
20
87.4045608236
10
67.3231864795
20
87.4049031801
10
67.3659229655
20
87.4056004032
10
67.4073459205
20
87.4066527981
10
67.4473650041
20
87.4080606699
10
67.4858898755
20
87.4098243237
10
67.5228301944
20
87.4119440646
10
67.55809562
20
87.4144201978
10
67.5915958118
20
87.4172530284
10
67.6232404292
20
87.4204428615
10
67.6529391317
20
87.4239900022
10
67.6806015787
20
87.4278947557
10
67.7061374296
20
87.4321574271
10
67.7294563438
20
87.4367783216
10
67.7504679808
20
87.4417577442
10
67.769082
20
87.447096
10
67.7970012767
20
87.4561605208
10
67.8228157016
20
87.465038651
10
67.8464653927
20
87.473822791
10
67.8678904681
20
87.4826053412
10
67.8870310457
20
87.4914787018
10
67.9038272436
20
87.5005352732
10
67.9182191798
20
87.5098674557
10
67.9301469724
20
87.5195676496
10
67.9395507393
20
87.5297282552
10
67.9463705986
20
87.5404416729
10
67.9505466683
20
87.5518003029
10
67.9520190664
20
87.5638965457
10
67.9507279109
20
87.5768228015
10
67.9466133199
20
87.5906714706
10
67.9396154114
20
87.6055349534
10
67.9296743034
20
87.6215056502
10
67.916730114
20
87.6386759613
10
67.9007229611
20
87.657138287
10
67.8815929628
20
87.6769850277
10
67.8592802371
20
87.6983085837
10
67.833724902
20
87.7212013552
10
67.8048670755
20
87.7457557427
10
67.7726468757
20
87.7720641465
10
67.7370044206
20
87.8002189668
10
67.6978798282
20
87.830312604
10
67.6552132165
20
87.8624374584
10
67.6089447036
20
87.8966859304
10
67.5590144075
20
87.9331504202
10
67.5053624462
20
87.9719233282
10
67.4479289377
20
88.0130970547
10
67.386654
20
88.056764
10
67.2697330613
20
88.1409790598
10
67.1607244797
20
88.2217954255
10
67.0596333491
20
88.2992896827
10
66.9664647635
20
88.3735384172
10
66.8812238167
20
88.4446182149
10
66.8039156026
20
88.5126056613
10
66.7345452151
20
88.5775773423
10
66.6731177481
20
88.6396098436
10
66.6196382955
20
88.698779751
10
66.5741119511
20
88.7551636502
10
66.5365438088
20
88.808838127
10
66.5069389626
20
88.859879767
10
66.4853025063
20
88.9083651562
10
66.4716395338
20
88.9543708801
10
66.4659551389
20
88.9979735245
10
66.4682544157
20
89.0392496753
10
66.4785424579
20
89.0782759181
10
66.4968243595
20
89.1151288386
10
66.5231052143
20
89.1498850228
10
66.5573901163
20
89.1826210562
10
66.5996841592
20
89.2134135246
10
66.6499924371
20
89.2423390138
10
66.7083200438
20
89.2694741095
10
66.7746720731
20
89.2948953975
10
66.849053619
20
89.3186794636
10
66.9314697754
20
89.3409028934
10
67.0219256361
20
89.3616422727
10
67.120426295
20
89.3809741872
10
67.226976846
20
89.3989752228
10
67.3415823831
20
89.4157219652
10
67.464248
20
89.431291
10
67.5359534359
20
89.4405260136
10
67.6031733996
20
89.4506629693
10
67.6658921816
20
89.4616213202
10
67.7240940726
20
89.4733205194
10
67.777763363
20
89.4856800198
10
67.8268843435
20
89.4986192746
10
67.8714413046
20
89.5120577369
10
67.9114185369
20
89.5259148596
10
67.9468003308
20
89.5401100958
10
67.9775709771
20
89.5545628986
10
68.0037147661
20
89.569192721
10
68.0252159886
20
89.5839190161
10
68.042058935
20
89.598661237
10
68.0542278959
20
89.6133388367
10
68.0617071618
20
89.6278712682
10
68.0644810234
20
89.6421779847
10
68.0625337711
20
89.6561784391
10
68.0558496956
20
89.6697920846
10
68.0444130874
20
89.6829383741
10
68.028208237
20
89.6955367608
10
68.007219435
20
89.7075066977
10
67.981430972
20
89.7187676378
10
67.9508271385
20
89.7292390343
10
67.915392225
20
89.7388403401
10
67.8751105222
20
89.7474910084
10
67.8299663206
20
89.7551104921
10
67.7799439108
20
89.7616182444
10
67.7250275832
20
89.7669337183
10
67.6652016285
20
89.7709763668
10
67.6004503373
20
89.773665643
10
67.530758
20
89.774921
10
67.4847652742
20
89.777598273
10
67.4382453508
20
89.7848987077
10
67.3912900624
20
89.7967004209
10
67.3439912414
20
89.8128815294
10
67.2964407206
20
89.8333201502
10
67.2487303324
20
89.8578944002
10
67.2009519095
20
89.8864823962
10
67.1531972843
20
89.9189622551
10
67.1055582896
20
89.9552120939
10
67.0581267577
20
89.9951100292
10
67.0109945213
20
90.0385341782
10
66.964253413
20
90.0853626575
10
66.9179952653
20
90.1354735842
10
66.8723119108
20
90.1887450751
10
66.827295182
20
90.2450552471
10
66.7830369116
20
90.304282217
10
66.7396289321
20
90.3663041018
10
66.697163076
20
90.4309990183
10
66.655731176
20
90.4982450833
10
66.6154250645
20
90.5679204139
10
66.5763365743
20
90.6399031269
10
66.5385575377
20
90.714071339
10
66.5021797875
20
90.7903031673
10
66.4672951561
20
90.8684767286
10
66.4339954761
20
90.9484701398
10
66.4023725801
20
91.0301615178
10
66.3725183007
20
91.1134289794
10
66.3445244704
20
91.1981506416
10
66.3184829218
20
91.2842046211
10
66.2944854875
20
91.371469035
10
66.272624
20
91.459822
10
66.2623710452
20
91.5029361881
10
66.2514919083
20
91.5472279734
10
66.2400185027
20
91.5925963161
10
66.2279827419
20
91.6389401765
10
66.2154165395
20
91.6861585149
10
66.2023518091
20
91.7341502916
10
66.1888204641
20
91.7828144668
10
66.174854418
20
91.8320500009
10
66.1604855845
20
91.8817558542
10
66.1457458771
20
91.9318309869
10
66.1306672092
20
91.9821743594
10
66.1152814944
20
92.0326849319
10
66.0996206463
20
92.0832616647
10
66.0837165783
20
92.1338035181
10
66.067601204
20
92.1842094524
10
66.051306437
20
92.2343784279
10
66.0348641907
20
92.2842094049
10
66.0183063787
20
92.3336013436
10
66.0016649145
20
92.3824532044
10
65.9849717117
20
92.4306639476
10
65.9682586838
20
92.4781325333
10
65.9515577443
20
92.5247579221
10
65.9349008067
20
92.570439074
10
65.9183197846
20
92.6150749494
10
65.9018465916
20
92.6585645086
10
65.885513141
20
92.700806712
10
65.8693513465
20
92.7417005197
10
65.8533931217
20
92.781144892
10
65.8376703799
20
92.8190387893
10
65.8222150349
20
92.8552811719
10
65.807059
20
92.889771
10
65.7921531387
20
92.9235929694
10
65.7774374371
20
92.9578537413
10
65.7629321384
20
92.9924855149
10
65.7486574854
20
93.0274204892
10
65.7346337214
20
93.0625908632
10
65.7208810892
20
93.0979288361
10
65.707419832
20
93.1333666068
10
65.6942701926
20
93.1688363744
10
65.6814524143
20
93.204270338
10
65.6689867399
20
93.2396006966
10
65.6568934126
20
93.2747596492
10
65.6451926753
20
93.309679395
10
65.633904771
20
93.344292133
10
65.6230499429
20
93.3785300622
10
65.6126484339
20
93.4123253817
10
65.602720487
20
93.4456102905
10
65.5932863453
20
93.4783169877
10
65.5843662519
20
93.5103776724
10
65.5759804496
20
93.5417245436
10
65.5681491816
20
93.5722898003
10
65.5608926909
20
93.6020056416
10
65.5542312205
20
93.6308042666
10
65.5481850134
20
93.6586178743
10
65.5427743127
20
93.6853786638
10
65.5380193614
20
93.7110188341
10
65.5339404024
20
93.7354705842
10
65.530557679
20
93.7586661133
10
65.527891434
20
93.7805376204
10
65.5259619104
20
93.8010173045
10
65.5247893514
20
93.8200373647
10
65.524394
20
93.83753
10
65.5237845853
20
93.8557508445
10
65.5219768469
20
93.8769313097
10
65.5190015433
20
93.9009675512
10
65.5148894328
20
93.9277557244
10
65.5096712742
20
93.957191985
10
65.5033778257
20
93.9891724885
10
65.496039846
20
94.0235933904
10
65.4876880934
20
94.0603508463
10
65.4783533265
20
94.0993410117
10
65.4680663037
20
94.1404600423
10
65.4568577836
20
94.1836040935
10
65.4447585246
20
94.2286693209
10
65.4317992852
20
94.27555188
10
65.4180108239
20
94.3241479264
10
65.4034238991
20
94.3743536157
10
65.3880692694
20
94.4260651034
10
65.3719776933
20
94.479178545
10
65.3551799292
20
94.5335900961
10
65.3377067356
20
94.5891959122
10
65.3195888709
20
94.645892149
10
65.3008570938
20
94.7035749619
10
65.2815421626
20
94.7621405065
10
65.2616748359
20
94.8214849383
10
65.241285872
20
94.8815044129
10
65.2204060296
20
94.9420950859
10
65.1990660671
20
95.0031531128
10
65.177296743
20
95.0645746492
10
65.1551288157
20
95.1262558505
10
65.1325930438
20
95.1880928724
10
65.1097201858
20
95.2499818704
10
65.086541
20
95.311819
10
65.063220452
20
95.3736883199
10
65.0399250737
20
95.4356735776
10
65.0166934897
20
95.4976690109
10
64.9935643244
20
95.5595688572
10
64.9705762022
20
95.6212673542
10
64.9477677478
20
95.6826587395
10
64.9251775855
20
95.7436372505
10
64.9028443399
20
95.8040971251
10
64.8808066355
20
95.8639326006
10
64.8591030966
20
95.9230379148
10
64.8377723479
20
95.9813073051
10
64.8168530137
20
96.0386350093
10
64.7963837186
20
96.0949152648
10
64.7764030871
20
96.1500423093
10
64.7569497436
20
96.2039103803
10
64.7380623126
20
96.2564137155
10
64.7197794186
20
96.3074465523
10
64.7021396862
20
96.3569031286
10
64.6851817397
20
96.4046776817
10
64.6689442037
20
96.4506644493
10
64.6534657026
20
96.494757669
10
64.6387848609
20
96.5368515784
10
64.6249403031
20
96.576840415
10
64.6119706538
20
96.6146184165
10
64.5999145373
20
96.6500798204
10
64.5888105782
20
96.6831188643
10
64.5786974009
20
96.7136297859
10
64.56961363
20
96.7415068226
10
64.5615978899
20
96.7666442122
10
64.554688805
20
96.7889361921
10
64.548925
20
96.808277
10
64.543057346
20
96.8268584705
10
64.5358365358
20
96.8468981421
10
64.527306152
20
96.868329098
10
64.5175097773
20
96.8910844218
10
64.5064909943
20
96.9150971969
10
64.4942933856
20
96.9403005066
10
64.4809605338
20
96.9666274343
10
64.4665360216
20
96.9940110636
10
64.4510634316
20
97.0223844777
10
64.4345863464
20
97.0516807602
10
64.4171483486
20
97.0818329944
10
64.3987930209
20
97.1127742637
10
64.379563946
20
97.1444376516
10
64.3595047063
20
97.1767562415
10
64.3386588846
20
97.2096631168
10
64.3170700634
20
97.2430913608
10
64.2947818255
20
97.2769740571
10
64.2718377533
20
97.311244289
10
64.2482814296
20
97.34583514
10
64.224156437
20
97.3806796934
10
64.1995063581
20
97.4157110327
10
64.1743747755
20
97.4508622413
10
64.1488052719
20
97.4860664026
10
64.1228414298
20
97.5212566
10
64.0965268319
20
97.556365917
10
64.0699050609
20
97.5913274368
10
64.0430196993
20
97.6260742431
10
64.0159143298
20
97.6605394191
10
63.988632535
20
97.6946560483
10
63.9612178975
20
97.7283572142
10
63.933714
20
97.761576
10
63.8795926414
20
97.827329823
10
63.8287173539
20
97.8912681987
10
63.7810577715
20
97.9536100359
10
63.7365835284
20
98.0145742432
10
63.6952642585
20
98.0743797293
10
63.6570695959
20
98.1332454028
10
63.6219691746
20
98.1913901725
10
63.5899326287
20
98.2490329469
10
63.5609295923
20
98.3063926347
10
63.5349296994
20
98.3636881446
10
63.511902584
20
98.4211383853
10
63.4918178802
20
98.4789622654
10
63.4746452221
20
98.5373786936
10
63.4603542437
20
98.5966065785
10
63.448914579
20
98.6568648288
10
63.4402958622
20
98.7183723533
10
63.4344677272
20
98.7813480604
10
63.4313998081
20
98.846010859
10
63.4310617389
20
98.9125796576
10
63.4334231538
20
98.981273365
10
63.4384536867
20
99.0523108897
10
63.4461229717
20
99.1259111405
10
63.4564006429
20
99.2022930261
10
63.4692563343
20
99.281675455
10
63.4846596799
20
99.364277336
10
63.5025803139
20
99.4503175777
10
63.5229878702
20
99.5400150887
10
63.5458519829
20
99.6335887778
10
63.5711422861
20
99.7312575536
10
63.5988284137
20
99.8332403248
10
63.62888
20
99.939756
10
63.640400308
20
99.9805558279
10
63.6522927531
20
100.02391972
10
63.6645281656
20
100.069716579
10
63.6770773756
20
100.117815308
10
63.6899112133
20
100.16808481
10
63.7030005089
20
100.220393988
10
63.7163160925
20
100.274611744
10
63.7298287945
20
100.330606982
10
63.7435094448
20
100.388248604
10
63.7573288738
20
100.447405514
10
63.7712579116
20
100.507946614
10
63.7852673884
20
100.569740807
10
63.7993281344
20
100.632656995
10
63.8134109797
20
100.696564083
10
63.8274867546
20
100.761330973
10
63.8415262891
20
100.826826567
10
63.8555004136
20
100.892919768
10
63.8693799582
20
100.95947948
10
63.8831357531
20
101.026374605
10
63.8967386284
20
101.093474047
10
63.9101594144
20
101.160646708
10
63.9233689412
20
101.22776149
10
63.936338039
20
101.294687298
10
63.949037538
20
101.361293033
10
63.9614382684
20
101.427447599
10
63.9735110604
20
101.493019898
10
63.9852267441
20
101.557878834
10
63.9965561497
20
101.621893309
10
64.0074701074
20
101.684932227
10
64.0179394475
20
101.746864489
10
64.027935
20
101.807559
10
64.0492939632
20
101.936553956
10
64.0709135964
20
102.062007658
10
64.0928230795
20
102.184005935
10
64.1150515924
20
102.302634617
10
64.1376283149
20
102.417979534
10
64.160582427
20
102.530126515
10
64.1839431085
20
102.63916139
10
64.2077395394
20
102.74516999
10
64.2320008994
20
102.848238143
10
64.2567563685
20
102.948451679
10
64.2820351266
20
103.045896429
10
64.3078663536
20
103.140658221
10
64.3342792294
20
103.232822886
10
64.3613029337
20
103.322476254
10
64.3889666466
20
103.409704154
10
64.417299548
20
103.494592415
10
64.4463308176
20
103.577226869
10
64.4760896354
20
103.657693344
10
64.5066051812
20
103.73607767
10
64.5379066351
20
103.812465676
10
64.5700231767
20
103.886943194
10
64.6029839861
20
103.959596052
10
64.6368182432
20
104.03051008
10
64.6715551277
20
104.099771108
10
64.7072238196
20
104.167464966
10
64.7438534988
20
104.233677483
10
64.7814733452
20
104.298494489
10
64.8201125386
20
104.362001814
10
64.8598002589
20
104.424285288
10
64.9005656861
20
104.48543074
10
64.942438
20
104.545524
10
65.269442
20
105.000003
10
65.269432
20
104.999992
10
64.753985
20
104.889143
10
64.6993179026
20
104.876610377
10
64.6424047595
20
104.862168361
10
64.5833900849
20
104.845883897
10
64.522418393
20
104.827823926
10
64.4596341981
20
104.808055392
10
64.3951820142
20
104.786645238
10
64.3292063556
20
104.763660407
10
64.2618517364
20
104.739167841
10
64.1932626708
20
104.713234484
10
64.1235836731
20
104.685927279
10
64.0529592573
20
104.657313168
10
63.9815339377
20
104.627459096
10
63.9094522285
20
104.596432003
10
63.8368586438
20
104.564298834
10
63.7638976978
20
104.531126532
10
63.6907139047
20
104.496982039
10
63.6174517787
20
104.461932298
10
63.5442558339
20
104.426044253
10
63.4712705846
20
104.389384846
10
63.398640545
20
104.352021021
10
63.3265102291
20
104.31401972
10
63.2550241512
20
104.275447886
10
63.1843268255
20
104.236372463
10
63.1145627662
20
104.196860392
10
63.0458764874
20
104.156978618
10
62.9784125033
20
104.116794083
10
62.9123153281
20
104.07637373
10
62.847729476
20
104.035784503
10
62.7847994611
20
103.995093343
10
62.7236697978
20
103.954367195
10
62.664485
20
103.913673
10
62.6436518059
20
103.899620852
10
62.6212241136
20
103.885456578
10
62.5972762736
20
103.871206076
10
62.5718826369
20
103.856895244
10
62.5451175541
20
103.84254998
10
62.5170553762
20
103.828196184
10
62.4877704537
20
103.813859753
10
62.4573371376
20
103.799566587
10
62.4258297786
20
103.785342583
10
62.3933227275
20
103.77121364
10
62.359890335
20
103.757205655
10
62.325606952
20
103.743344529
10
62.2905469292
20
103.729656159
10
62.2547846173
20
103.716166443
10
62.2183943673
20
103.702901281
10
62.1814505297
20
103.68988657
10
62.1440274555
20
103.677148208
10
62.1061994954
20
103.664712095
10
62.0680410001
20
103.652604129
10
62.0296263205
20
103.640850207
10
61.9910298074
20
103.629476229
10
61.9523258114
20
103.618508094
10
61.9135886834
20
103.607971698
10
61.8748927742
20
103.597892942
10
61.8363124345
20
103.588297722
10
61.7979220151
20
103.579211938
10
61.7597958668
20
103.570661489
10
61.7220083403
20
103.562672272
10
61.6846337865
20
103.555270186
10
61.6477465562
20
103.548481129
10
61.611421
20
103.542331
10
61.4636668147
20
103.514297911
10
61.311831886
20
103.477546247
10
61.1565213645
20
103.432536254
10
60.9983404005
20
103.379728178
10
60.8378941446
20
103.319582264
10
60.6757877472
20
103.252558759
10
60.5126263589
20
103.179117906
10
60.34901513
20
103.099719953
10
60.1855592112
20
103.014825145
10
60.0228637528
20
102.924893726
10
59.8615339054
20
102.830385944
10
59.7021748195
20
102.731762043
10
59.5453916454
20
102.629482268
10
59.3917895338
20
102.524006867
10
59.241973635
20
102.415796083
10
59.0965490996
20
102.305310163
10
58.9561210781
20
102.193009353
10
58.8212947209
20
102.079353897
10
58.6926751784
20
101.964804042
10
58.5708676013
20
101.849820032
10
58.45647714
20
101.734862115
10
58.3501089449
20
101.620390534
10
58.2523681665
20
101.506865536
10
58.1638599554
20
101.394747366
10
58.085189462
20
101.284496271
10
58.0169618367
20
101.176572494
10
57.9597822301
20
101.071436283
10
57.9142557927
20
100.969547882
10
57.8809876748
20
100.871367538
10
57.8605830271
20
100.777355495
10
57.853647
20
100.687972
10
57.8526615208
20
100.643662517
10
57.8497103675
20
100.602130416
10
57.8448014661
20
100.563376702
10
57.837942743
20
100.527402379
10
57.8291421244
20
100.494208453
10
57.8184075364
20
100.463795928
10
57.8057469053
20
100.436165811
10
57.7911681574
20
100.411319105
10
57.7746792188
20
100.389256815
10
57.7562880157
20
100.369979948
10
57.7360024745
20
100.353489507
10
57.7138305212
20
100.339786498
10
57.6897800821
20
100.328871925
10
57.6638590835
20
100.320746794
10
57.6360754515
20
100.31541211
10
57.6064371125
20
100.312868878
10
57.5749519924
20
100.313118102
10
57.5416280178
20
100.316160789
10
57.5064731146
20
100.321997942
10
57.4694952092
20
100.330630566
10
57.4307022278
20
100.342059667
10
57.3901020965
20
100.35628625
10
57.3477027417
20
100.37331132
10
57.3035120895
20
100.393135881
10
57.2575380661
20
100.41576094
10
57.2097885978
20
100.4411875
10
57.1602716108
20
100.469416566
10
57.1089950313
20
100.500449144
10
57.0559667855
20
100.53428624
10
57.0011947997
20
100.570928856
10
56.944687
20
100.610378
10
56.8532412189
20
100.674196667
10
56.7607189923
20
100.736159708
10
56.6670103181
20
100.796302549
10
56.5720051942
20
100.854660619
10
56.4755936184
20
100.911269346
10
56.3776655886
20
100.966164158
10
56.2781111026
20
101.019380483
10
56.1768201583
20
101.070953748
10
56.0736827535
20
101.120919383
10
55.9685888861
20
101.169312815
10
55.861428554
20
101.216169472
10
55.7520917549
20
101.261524781
10
55.6404684867
20
101.305414172
10
55.5264487473
20
101.347873072
10
55.4099225346
20
101.388936909
10
55.2907798463
20
101.428641111
10
55.1689106804
20
101.467021106
10
55.0442050346
20
101.504112322
10
54.916552907
20
101.539950187
10
54.7858442952
20
101.57457013
10
54.6519691971
20
101.608007577
10
54.5148176106
20
101.640297958
10
54.3742795336
20
101.6714767
10
54.2302449639
20
101.701579231
10
54.0826038994
20
101.73064098
10
53.9312463378
20
101.758697373
10
53.7760622772
20
101.78578384
10
53.6169417152
20
101.811935808
10
53.4537746498
20
101.837188705
10
53.2864510787
20
101.86157796
10
53.114861
20
101.885139
10
53.0184747785
20
101.89817066
10
52.9215389862
20
101.911638939
10
52.8242265126
20
101.925511136
10
52.7267102468
20
101.939754552
10
52.6291630781
20
101.954336488
10
52.5317578958
20
101.969224244
10
52.4346675892
20
101.984385121
10
52.3380650474
20
101.99978642
10
52.2421231598
20
102.015395441
10
52.1470148156
20
102.031179484
10
52.0529129041
20
102.047105851
10
51.9599903145
20
102.063141842
10
51.8684199361
20
102.079254757
10
51.7783746582
20
102.095411897
10
51.69002737
20
102.111580563
10
51.6035509609
20
102.127728056
10
51.5191183199
20
102.143821675
10
51.4369023365
20
102.159828722
10
51.3570758999
20
102.175716497
10
51.2798118993
20
102.1914523
10
51.205283224
20
102.207003433
10
51.1336627632
20
102.222337195
10
51.0651234063
20
102.237420888
10
50.9998380425
20
102.252221812
10
50.937979561
20
102.266707268
10
50.8797208511
20
102.280844556
10
50.8252348021
20
102.294600977
10
50.7746943032
20
102.307943831
10
50.7282722437
20
102.320840419
10
50.6861415129
20
102.333258042
10
50.648475
20
102.345164
10
50.6132231159
20
102.356635256
10
50.5782550571
20
102.36776444
10
50.5436230526
20
102.378542351
10
50.5093793316
20
102.388959789
10
50.4755761232
20
102.399007552
10
50.4422656562
20
102.408676441
10
50.4095001599
20
102.417957255
10
50.3773318634
20
102.426840793
10
50.3458129955
20
102.435317856
10
50.3149957855
20
102.443379241
10
50.2849324623
20
102.451015751
10
50.2556752551
20
102.458218182
10
50.2272763929
20
102.464977335
10
50.1997881048
20
102.471284011
10
50.1732626197
20
102.477129007
10
50.1477521669
20
102.482503123
10
50.1233089754
20
102.48739716
10
50.0999852741
20
102.491801916
10
50.0778332922
20
102.495708192
10
50.0569052588
20
102.499106785
10
50.0372534029
20
102.501988497
10
50.0189299535
20
102.504344127
10
50.0019871398
20
102.506164473
10
49.9864771907
20
102.507440336
10
49.9724523354
20
102.508162516
10
49.959964803
20
102.50832181
10
49.9490668224
20
102.50790902
10
49.9398106227
20
102.506914944
10
49.932248433
20
102.505330383
10
49.9264324825
20
102.503146135
10
49.922415
20
102.500353
10
49.9168556608
20
102.483682172
10
49.9173982092
20
102.451709103
10
49.9237247201
20
102.405343854
10
49.9355172685
20
102.345496482
10
49.9524579292
20
102.273077048
10
49.9742287773
20
102.188995611
10
50.0005118876
20
102.094162229
10
50.0309893351
20
101.989486963
10
50.0653431946
20
101.875879872
10
50.1032555411
20
101.754251014
10
50.1444084495
20
101.625510449
10
50.1884839948
20
101.490568237
10
50.2351642518
20
101.350334436
10
50.2841312955
20
101.205719107
10
50.3350672008
20
101.057632307
10
50.3876540427
20
100.906984097
10
50.4415738959
20
100.754684536
10
50.4965088356
20
100.601643683
10
50.5521409365
20
100.448771598
10
50.6081522737
20
100.296978338
10
50.664224922
20
100.147173965
10
50.7200409563
20
100.000268537
10
50.7752824516
20
99.8571721139
10
50.8296314828
20
99.7187947541
10
50.8827701249
20
99.5860465173
10
50.9343804527
20
99.4598374629
10
50.9841445411
20
99.34107765
10
51.0317444651
20
99.230677138
10
51.0768622997
20
99.1295459862
10
51.1191801197
20
99.0385942537
10
51.15838
20
98.958732
10
51.197056072
20
98.8833434633
10
51.2350551439
20
98.8111427383
10
51.2725245321
20
98.7419870564
10
51.3096115529
20
98.6757336487
10
51.3464635225
20
98.6122397463
10
51.3832277574
20
98.5513625804
10
51.4200515737
20
98.4929593823
10
51.4570822878
20
98.436887383
10
51.494467216
20
98.3830038138
10
51.5323536746
20
98.3311659059
10
51.5708889799
20
98.2812308903
10
51.6102204482
20
98.2330559984
10
51.6504953958
20
98.1864984612
10
51.691861139
20
98.14141551
10
51.7344649941
20
98.0976643759
10
51.7784542775
20
98.0551022901
10
51.8239763053
20
98.0135864838
10
51.871178394
20
97.9729741881
10
51.9202078598
20
97.9331226343
10
51.9712120191
20
97.8938890535
10
52.024338188
20
97.8551306768
10
52.0797336831
20
97.8167047356
10
52.1375458204
20
97.7784684609
10
52.1979219164
20
97.7402790839
10
52.2610092874
20
97.7019938358
10
52.3269552496
20
97.6634699478
10
52.3959071193
20
97.624564651
10
52.468012213
20
97.5851351767
10
52.5434178467
20
97.5450387559
10
52.622271337
20
97.50413262
10
52.70472
20
97.462274
10
52.7385265178
20
97.4451645624
10
52.7718786375
20
97.428063837
10
52.8047320153
20
97.4110001408
10
52.8370423071
20
97.3940017907
10
52.8687651692
20
97.3770971035
10
52.8998562575
20
97.360314396
10
52.9302712281
20
97.3436819853
10
52.959965737
20
97.327228188
10
52.9888954405
20
97.3109813212
10
53.0170159944
20
97.2949697017
10
53.044283055
20
97.2792216464
10
53.0706522782
20
97.2637654721
10
53.0960793202
20
97.2486294957
10
53.1205198369
20
97.233842034
10
53.1439294846
20
97.2194314041
10
53.1662639192
20
97.2054259227
10
53.1874787968
20
97.1918539066
10
53.2075297735
20
97.1787436729
10
53.2263725053
20
97.1661235384
10
53.2439626485
20
97.1540218198
10
53.2602558589
20
97.1424668342
10
53.2752077926
20
97.1314868983
10
53.2887741058
20
97.1211103291
10
53.3009104546
20
97.1113654435
10
53.3115724949
20
97.1022805582
10
53.3207158828
20
97.0938839902
10
53.3282962745
20
97.0862040564
10
53.334269326
20
97.0792690735
10
53.3385906934
20
97.0731073586
10
53.3412160327
20
97.0677472285
10
53.342101
20
97.063217
10
53.3415184193
20
97.0580512872
10
53.3397906808
20
97.050805429
10
53.3369477902
20
97.0415391195
10
53.3330197532
20
97.0303120531
10
53.3280365753
20
97.0171839241
10
53.3220282623
20
97.0022144266
10
53.3150248198
20
96.985463255
10
53.3070562533
20
96.9669901036
10
53.2981525686
20
96.9468546665
10
53.2883437713
20
96.9251166381
10
53.277659867
20
96.9018357127
10
53.2661308614
20
96.8770715845
10
53.25378676
20
96.8508839478
10
53.2406575686
20
96.8233324969
10
53.2267732928
20
96.794476926
10
53.2121639382
20
96.7643769294
10
53.1968595105
20
96.7330922013
10
53.1808900152
20
96.7006824361
10
53.1642854581
20
96.6672073281
10
53.1470758447
20
96.6327265713
10
53.1292911808
20
96.5972998603
10
53.1109614719
20
96.5609868892
10
53.0921167238
20
96.5238473522
10
53.0727869419
20
96.4859409437
10
53.053002132
20
96.447327358
10
53.0327922998
20
96.4080662892
10
53.0121874508
20
96.3682174318
10
52.9912175907
20
96.3278404798
10
52.9699127251
20
96.2869951277
10
52.9483028596
20
96.2457410697
10
52.926418
20
96.204138
10
52.8884128766
20
96.1317684974
10
52.8528308817
20
96.0631193504
10
52.8195922074
20
95.9975440199
10
52.7886170456
20
95.9343959666
10
52.7598255884
20
95.8730286514
10
52.7331380277
20
95.8127955349
10
52.7084745555
20
95.753050078
10
52.6857553639
20
95.6931457414
10
52.6649006449
20
95.6324359859
10
52.6458305904
20
95.5702742724
10
52.6284653925
20
95.5060140615
10
52.6127252431
20
95.439008814
10
52.5985303344
20
95.3686119908
10
52.5858008582
20
95.2941770525
10
52.5744570066
20
95.2150574601
10
52.5644189716
20
95.1306066742
10
52.5556069452
20
95.0401781556
10
52.5479411193
20
94.9431253651
10
52.5413416861
20
94.8388017635
10
52.5357288375
20
94.7265608116
10
52.5310227655
20
94.6057559701
10
52.5271436621
20
94.4757406998
10
52.5240117193
20
94.3358684615
10
52.5215471292
20
94.185492716
10
52.5196700837
20
94.023966924
10
52.5183007748
20
93.8506445463
10
52.5173593945
20
93.6648790438
10
52.5167661349
20
93.4660238771
10
52.516441188
20
93.253432507
10
52.5163047457
20
93.0264583944
10
52.516277
20
92.784455
10
52.516277
20
90.157338
10
53.081606
20
88.605455
10
53.1114275272
20
88.5229154796
10
53.1408328545
20
88.4403948077
10
53.1697839068
20
88.3580299473
10
53.198242609
20
88.2759578614
10
53.2261708862
20
88.1943155129
10
53.2535306632
20
88.1132398648
10
53.280283865
20
88.0328678801
10
53.3063924166
20
87.9533365218
10
53.3318182428
20
87.8747827528
10
53.3565232686
20
87.7973435361
10
53.3804694191
20
87.7211558347
10
53.403618619
20
87.6463566116
10
53.4259327934
20
87.5730828297
10
53.4473738671
20
87.5014714521
10
53.4679037653
20
87.4316594416
10
53.4874844127
20
87.3637837613
10
53.5060777343
20
87.2979813741
10
53.5236456551
20
87.2343892431
10
53.5401501001
20
87.1731443311
10
53.5555529941
20
87.1143836013
10
53.5698162621
20
87.0582440164
10
53.582901829
20
87.0048625396
10
53.5947716199
20
86.9543761338
10
53.6053875595
20
86.9069217619
10
53.614711573
20
86.862636387
10
53.6227055852
20
86.821656972
10
53.629331521
20
86.7841204799
10
53.6345513055
20
86.7501638737
10
53.6383268635
20
86.7199241163
10
53.64062012
20
86.6935381708
10
53.641393
20
86.671143
10
53.6407821969
20
86.648121577
10
53.6389604816
20
86.6244407376
10
53.635943895
20
86.6001289491
10
53.6317484781
20
86.5752146784
10
53.6263902718
20
86.5497263928
10
53.6198853171
20
86.5236925593
10
53.612249655
20
86.4971416451
10
53.6034993263
20
86.4701021173
10
53.5936503721
20
86.442602443
10
53.5827188333
20
86.4146710894
10
53.5707207508
20
86.3863365234
10
53.5576721657
20
86.3576272124
10
53.5435891187
20
86.3285716234
10
53.528487651
20
86.2991982235
10
53.5123838034
20
86.2695354798
10
53.495293617
20
86.2396118595
10
53.4772331326
20
86.2094558296
10
53.4582183912
20
86.1790958574
10
53.4382654337
20
86.1485604099
10
53.4173903012
20
86.1178779542
10
53.3956090345
20
86.0870769575
10
53.3729376747
20
86.0561858868
10
53.3493922626
20
86.0252332094
10
53.3249888393
20
85.9942473923
10
53.2997434456
20
85.9632569027
10
53.2736721225
20
85.9322902076
10
53.2467909111
20
85.9013757742
10
53.2191158521
20
85.8705420697
10
53.1906629867
20
85.839817561
10
53.1614483556
20
85.8092307154
10
53.131488
20
85.77881
10
52.621584
20
85.268905
10
53.491747
20
85.268905
10
53.5818538633
20
85.2682900952
10
53.6678678254
20
85.2664266315
10
53.7498362346
20
85.263286485
10
53.8278064394
20
85.2588415317
10
53.9018257884
20
85.2530636477
10
53.9719416299
20
85.2459247092
10
54.0382013125
20
85.2373965921
10
54.1006521845
20
85.2274511725
10
54.1593415945
20
85.2160603265
10
54.2143168909
20
85.2031959301
10
54.2656254222
20
85.1888298596
10
54.3133145368
20
85.1729339908
10
54.3574315832
20
85.1554801999
10
54.3980239098
20
85.1364403629
10
54.4351388652
20
85.1157863559
10
54.4688237977
20
85.0934900551
10
54.4991260559
20
85.0695233364
10
54.5260929881
20
85.0438580759
10
54.5497719429
20
85.0164661497
10
54.5702102688
20
84.9873194339
10
54.5874553141
20
84.9563898045
10
54.6015544273
20
84.9236491376
10
54.612554957
20
84.8890693093
10
54.6205042515
20
84.8526221957
10
54.6254496594
20
84.8142796727
10
54.627438529
20
84.7740136166
10
54.6265182089
20
84.7317959033
10
54.6227360474
20
84.6875984089
10
54.6161393932
20
84.6413930095
10
54.6067755945
20
84.5931515812
10
54.594692
20
84.542846
10
54.584976445
20
84.5048739576
10
54.5764164466
20
84.469437863
10
54.5691061981
20
84.4365310872
10
54.5631398931
20
84.4061470016
10
54.5586117249
20
84.3782789774
10
54.555615887
20
84.3529203858
10
54.5542465726
20
84.3300645979
10
54.5545979754
20
84.3097049851
10
54.5567642886
20
84.2918349185
10
54.5608397057
20
84.2764477693
10
54.5669184201
20
84.2635369089
10
54.5750946252
20
84.2530957083
10
54.5854625145
20
84.2451175389
10
54.5981162813
20
84.2395957717
10
54.6131501191
20
84.2365237782
10
54.6306582212
20
84.2358949294
10
54.6507347811
20
84.2377025966
10
54.6734739923
20
84.2419401511
10
54.698970048
20
84.2486009639
10
54.7273171418
20
84.2576784064
10
54.7586094671
20
84.2691658498
10
54.7929412172
20
84.2830566653
10
54.8304065855
20
84.2993442241
10
54.8710997656
20
84.3180218974
10
54.9151149507
20
84.3390830565
10
54.9625463344
20
84.3625210725
10
55.01348811
20
84.3883293168
10
55.0680344709
20
84.4165011604
10
55.1262796107
20
84.4470299747
10
55.1883177225
20
84.4799091308
10
55.254243
20
84.515132
10
55.311061141
20
84.5447267631
10
55.3658132751
20
84.5715135287
10
55.4184778718
20
84.5955034625
10
55.4690334007
20
84.6167077303
10
55.5174583315
20
84.6351374978
10
55.5637311337
20
84.6508039309
10
55.6078302769
20
84.6637181954
10
55.6497342308
20
84.673891457
10
55.6894214649
20
84.6813348816
10
55.7268704489
20
84.6860596349
10
55.7620596523
20
84.6880768826
10
55.7949675449
20
84.6873977907
10
55.8255725961
20
84.6840335249
10
55.8538532755
20
84.677995251
10
55.8797880529
20
84.6692941347
10
55.9033553977
20
84.6579413419
10
55.9245337796
20
84.6439480383
10
55.9433016683
20
84.6273253897
10
55.9596375332
20
84.608084562
10
55.973519844
20
84.5862367209
10
55.9849270704
20
84.5617930322
10
55.9938376818
20
84.5347646616
10
56.000230148
20
84.505162775
10
56.0040829385
20
84.4729985382
10
56.0053745229
20
84.4382831169
10
56.0040833709
20
84.401027677
10
56.000187952
20
84.3612433842
10
55.9936667359
20
84.3189414043
10
55.9844981921
20
84.2741329031
10
55.9726607903
20
84.2268290464
10
55.958133
20
84.177041
10
55.9514357579
20
84.1551063379
10
55.945448747
20
84.1345319318
10
55.940211266
20
84.115307378
10
55.9357626136
20
84.097422273
10
55.9321420888
20
84.080866213
10
55.9293889903
20
84.0656287943
10
55.9275426168
20
84.0516996133
10
55.9266422671
20
84.0390682662
10
55.92672724
20
84.0277243495
10
55.9278368344
20
84.0176574593
10
55.9300103489
20
84.0088571921
10
55.9332870824
20
84.0013131442
10
55.9377063336
20
83.9950149119
10
55.9433074013
20
83.9899520914
10
55.9501295844
20
83.9861142792
10
55.9582121815
20
83.9834910715
10
55.9675944915
20
83.9820720647
10
55.9783158131
20
83.9818468551
10
55.9904154452
20
83.9828050389
10
56.0039326865
20
83.9849362126
10
56.0189068358
20
83.9882299725
10
56.0353771918
20
83.9926759148
10
56.0533830534
20
83.998263636
10
56.0729637193
20
84.0049827322
10
56.0941584884
20
84.0128227999
10
56.1170066594
20
84.0217734353
10
56.141547531
20
84.0318242348
10
56.1678204021
20
84.0429647947
10
56.1958645714
20
84.0551847113
10
56.2257193378
20
84.068473581
10
56.257424
20
84.082821
10
56.2856194906
20
84.0954537158
10
56.312881438
20
84.1072197338
10
56.3392488294
20
84.1181178922
10
56.3647606524
20
84.1281470289
10
56.3894558944
20
84.1373059822
10
56.4133735427
20
84.1455935901
10
56.4365525848
20
84.1530086907
10
56.4590320081
20
84.1595501222
10
56.4808507999
20
84.1652167226
10
56.5020479478
20
84.1700073301
10
56.5226624392
20
84.1739207827
10
56.5427332613
20
84.1769559186
10
56.5622994017
20
84.1791115758
10
56.5813998478
20
84.1803865926
10
56.600073587
20
84.1807798069
10
56.6183596066
20
84.1802900568
10
56.6362968941
20
84.1789161806
10
56.653924437
20
84.1766570162
10
56.6712812226
20
84.1735114019
10
56.6884062383
20
84.1694781757
10
56.7053384715
20
84.1645561756
10
56.7221169097
20
84.1587442399
10
56.7387805403
20
84.1520412066
10
56.7553683507
20
84.1444459138
10
56.7719193283
20
84.1359571997
10
56.7884724605
20
84.1265739023
10
56.8050667347
20
84.1162948597
10
56.8217411383
20
84.1051189101
10
56.8385346588
20
84.0930448915
10
56.8554862836
20
84.0800716421
10
56.872635
20
84.066198
10
56.9070839958
20
84.036248162
10
56.9385610185
20
84.0060050899
10
56.9670520886
20
83.975419608
10
56.9925432268
20
83.9444425404
10
57.0150204537
20
83.9130247114
10
57.0344697898
20
83.8811169452
10
57.0508772559
20
83.8486700659
10
57.0642288725
20
83.8156348979
10
57.0745106602
20
83.7819622652
10
57.0817086397
20
83.7476029921
10
57.0858088315
20
83.7125079029
10
57.0867972563
20
83.6766278216
10
57.0846599346
20
83.6399135726
10
57.0793828871
20
83.6023159801
10
57.0709521344
20
83.5637858681
10
57.0593536971
20
83.5242740611
10
57.0445735958
20
83.4837313831
10
57.0265978511
20
83.4421086584
10
57.0054124836
20
83.3993567112
10
56.981003514
20
83.3554263656
10
56.9533569628
20
83.310268446
10
56.9224588507
20
83.2638337764
10
56.8882951982
20
83.2160731812
10
56.8508520261
20
83.1669374845
10
56.8101153548
20
83.1163775106
10
56.766071205
20
83.0643440836
10
56.7187055974
20
83.0107880277
10
56.6680045524
20
82.9556601672
10
56.6139540908
20
82.8989113263
10
56.5565402331
20
82.8404923292
10
56.495749
20
82.780354
10
56.4587587443
20
82.7436632729
10
56.4223364296
20
82.7063928323
10
56.3864971541
20
82.6685671604
10
56.3512560161
20
82.6302107393
10
56.3166281137
20
82.5913480512
10
56.282628545
20
82.5520035783
10
56.2492724084
20
82.5122018028
10
56.2165748019
20
82.4719672067
10
56.1845508237
20
82.4313242722
10
56.1532155721
20
82.3902974816
10
56.1225841452
20
82.3489113169
10
56.0926716412
20
82.3071902603
10
56.0634931583
20
82.2651587941
10
56.0350637946
20
82.2228414002
10
56.0073986484
20
82.180262561
10
55.9805128178
20
82.1374467585
10
55.954421401
20
82.0944184749
10
55.9291394963
20
82.0512021924
10
55.9046822017
20
82.0078223931
10
55.8810646155
20
81.9643035593
10
55.8583018358
20
81.9206701729
10
55.8364089609
20
81.8769467163
10
55.8154010889
20
81.8331576716
10
55.7952933179
20
81.7893275209
10
55.7761007463
20
81.7454807463
10
55.7578384722
20
81.7016418302
10
55.7405215937
20
81.6578352545
10
55.7241652091
20
81.6140855015
10
55.7087844164
20
81.5704170533
10
55.694394314
20
81.5268543921
10
55.68101
20
81.483422
10
55.6549957946
20
81.3967737379
10
55.6293769565
20
81.3134778786
10
55.6040379911
20
81.233322812
10
55.578863404
20
81.1560969285
10
55.553737701
20
81.0815886183
10
55.5285453875
20
81.0095862714
10
55.5031709691
20
80.9398782782
10
55.4774989514
20
80.8722530287
10
55.4514138401
20
80.8064989132
10
55.4248001406
20
80.7424043218
10
55.3975423587
20
80.6797576448
10
55.3695249998
20
80.6183472723
10
55.3406325696
20
80.5579615945
10
55.3107495737
20
80.4983890016
10
55.2797605176
20
80.4394178838
10
55.247549907
20
80.3808366313
10
55.2140022473
20
80.3224336342
10
55.1790020443
20
80.2639972827
10
55.1424338035
20
80.205315967
10
55.1041820305
20
80.1461780773
10
55.0641312308
20
80.0863720039
10
55.0221659102
20
80.0256861368
10
54.9781705741
20
79.9639088662
10
54.9320297281
20
79.9008285824
10
54.8836278779
20
79.8362336755
10
54.832849529
20
79.7699125357
10
54.779579187
20
79.7016535533
10
54.7237013575
20
79.6312451183
10
54.6651005461
20
79.5584756209
10
54.6036612584
20
79.4831334514
10
54.539268
20
79.405007
10
54.4423838425
20
79.2874715239
10
54.3514240051
20
79.1757247207
10
54.2662181504
20
79.0691349638
10
54.1865959409
20
78.9670706263
10
54.1123870391
20
78.8689000816
10
54.0434211076
20
78.773991703
10
53.9795278088
20
78.6817138636
10
53.9205368052
20
78.5914349368
10
53.8662777594
20
78.5025232958
10
53.8165803339
20
78.4143473139
10
53.7712741912
20
78.3262753643
10
53.7301889939
20
78.2376758204
10
53.6931544043
20
78.1479170554
10
53.6600000851
20
78.0563674425
10
53.6305556988
20
77.962395355
10
53.6046509079
20
77.8653691663
10
53.5821153748
20
77.7646572495
10
53.5627787622
20
77.6596279779
10
53.5464707325
20
77.5496497249
10
53.5330209482
20
77.4340908636
10
53.5222590719
20
77.3123197673
10
53.5140147661
20
77.1837048093
10
53.5081176932
20
77.0476143629
10
53.5043975159
20
76.9034168013
10
53.5026838966
20
76.7504804979
10
53.5028064978
20
76.5881738258
10
53.5045949821
20
76.4158651583
10
53.5078790119
20
76.2329228687
10
53.5124882498
20
76.0387153303
10
53.5182523584
20
75.8326109163
10
53.525001
20
75.613978
10
53.5283648463
20
75.5040792496
10
53.531401036
20
75.3956176823
10
53.5341128675
20
75.288740163
10
53.5365036396
20
75.1835935564
10
53.5385766507
20
75.0803247272
10
53.5403351995
20
74.9790805402
10
53.5417825844
20
74.8800078602
10
53.5429221042
20
74.7832535519
10
53.5437570574
20
74.6889644801
10
53.5442907425
20
74.5972875096
10
53.5445264582
20
74.508369505
10
53.544467503
20
74.4223573312
10
53.5441171756
20
74.3393978529
10
53.5434787744
20
74.2596379349
10
53.542555598
20
74.1832244419
10
53.5413509452
20
74.1103042387
10
53.5398681143
20
74.04102419
10
53.5381104041
20
73.9755311606
10
53.536081113
20
73.9139720153
10
53.5337835397
20
73.8564936188
10
53.5312209827
20
73.8032428359
10
53.5283967407
20
73.7543665313
10
53.5253141122
20
73.7100115698
10
53.5219763958
20
73.6703248162
10
53.51838689
20
73.6354531351
10
53.5145488935
20
73.6055433914
10
53.5104657048
20
73.5807424499
10
53.5061406226
20
73.5611971752
10
53.5015769453
20
73.5470544321
10
53.4967779716
20
73.5384610855
10
53.491747
20
73.535564
10
53.4864231478
20
73.5337380278
10
53.4807542305
20
73.5283213254
10
53.4747571745
20
73.519405714
10
53.4684489065
20
73.507083015
10
53.4618463528
20
73.4914450496
10
53.4549664401
20
73.4725836392
10
53.4478260948
20
73.450590605
10
53.4404422435
20
73.4255577683
10
53.4328318127
20
73.3975769504
10
53.4250117289
20
73.3667399726
10
53.4169989187
20
73.3331386562
10
53.4088103085
20
73.2968648224
10
53.4004628249
20
73.2580102926
10
53.3919733944
20
73.216666888
10
53.3833589435
20
73.1729264299
10
53.3746363988
20
73.1268807397
10
53.3658226868
20
73.0786216385
10
53.3569347339
20
73.0282409478
10
53.3479894667
20
72.9758304887
10
53.3390038118
20
72.9214820826
10
53.3299946956
20
72.8652875508
10
53.3209790447
20
72.8073387145
10
53.3119737856
20
72.7477273951
10
53.3029958448
20
72.6865454137
10
53.2940621489
20
72.6238845918
10
53.2851896243
20
72.5598367506
10
53.2763951976
20
72.4944937113
10
53.2676957953
20
72.4279472954
10
53.2591083439
20
72.360289324
10
53.25064977
20
72.2916116184
10
53.242337
20
72.222006
10
53.2282806836
20
72.1054490042
10
53.2138060523
20
71.9913636527
10
53.1989053573
20
71.8797210446
10
53.18357085
20
71.7704922789
10
53.1677947814
20
71.6636484548
10
53.1515694028
20
71.5591606711
10
53.1348869655
20
71.4570000271
10
53.1177397205
20
71.3571376218
10
53.1001199193
20
71.2595445541
10
53.0820198129
20
71.1641919233
10
53.0634316526
20
71.0710508282
10
53.0443476897
20
70.9800923681
10
53.0247601752
20
70.8912876419
10
53.0046613605
20
70.8046077487
10
52.9840434968
20
70.7200237876
10
52.9628988352
20
70.6375068576
10
52.941219627
20
70.5570280577
10
52.9189981234
20
70.4785584871
10
52.8962265757
20
70.4020692448
10
52.872897235
20
70.3275314298
10
52.8490023525
20
70.2549161413
10
52.8245341795
20
70.1841944781
10
52.7994849673
20
70.1153375395
10
52.7738469669
20
70.0483164245
10
52.7476124297
20
69.9831022321
10
52.7207736068
20
69.9196660614
10
52.6933227494
20
69.8579790114
10
52.6652521089
20
69.7980121812
10
52.6365539363
20
69.7397366699
10
52.6072204829
20
69.6831235764
10
52.577244
20
69.628144
10
52.5702412204
20
69.6155638172
10
52.5626819003
20
69.6018697407
10
52.5545917616
20
69.5871108653
10
52.5459965261
20
69.5713362859
10
52.5369219155
20
69.5545950971
10
52.5273936516
20
69.536936394
10
52.5174374564
20
69.5184092713
10
52.5070790514
20
69.4990628238
10
52.4963441586
20
69.4789461464
10
52.4852584997
20
69.4581083339
10
52.4738477965
20
69.4365984811
10
52.4621377709
20
69.4144656828
10
52.4501541445
20
69.3917590339
10
52.4379226393
20
69.3685276292
10
52.425468977
20
69.3448205636
10
52.4128188794
20
69.3206869318
10
52.3999980683
20
69.2961758286
10
52.3870322655
20
69.271336349
10
52.3739471927
20
69.2462175878
10
52.3607685719
20
69.2208686397
10
52.3475221247
20
69.1953385995
10
52.334233573
20
69.1696765623
10
52.3209286385
20
69.1439316226
10
52.3076330431
20
69.1181528754
10
52.2943725086
20
69.0923894156
10
52.2811727567
20
69.0666903378
10
52.2680595093
20
69.041104737
10
52.2550584881
20
69.015681708
10
52.242195415
20
68.9904703456
10
52.2294960117
20
68.9655197447
10
52.216986
20
68.940879
10
52.2013268259
20
68.912288816
10
52.1792862598
20
68.8756222271
10
52.1510492197
20
68.8311276944
10
52.1168006238
20
68.7790536788
10
52.0767253899
20
68.7196486412
10
52.0310084363
20
68.6531610425
10
51.979834681
20
68.5798393437
10
51.923389042
20
68.4999320058
10
51.8618564374
20
68.4136874897
10
51.7954217853
20
68.3213542563
10
51.7242700037
20
68.2231807666
10
51.6485860107
20
68.1194154815
10
51.5685547244
20
68.010306862
10
51.4843610628
20
67.896103369
10
51.396189944
20
67.7770534634
10
51.304226286
20
67.6534056063
10
51.2086550069
20
67.5254082585
10
51.1096610248
20
67.393309881
10
51.0074292577
20
67.2573589347
10
50.9021446237
20
67.1178038807
10
50.7939920409
20
66.9748931797
10
50.6831564273
20
66.8288752928
10
50.569822701
20
66.679998681
0
LWPOLYLINE
5
59
100
AcDbEntity
8
Engraving
6
ByLayer
62
256
370
-1
100
AcDbPolyline
90
559
70
1
43
0
10
61.1231603722
20
71.2505646076
10
61.1291572104
20
71.3760777018
10
61.1390007448
20
71.5022367158
10
61.152690861
20
71.6290093474
10
61.1702274447
20
71.7563632939
10
61.1916103815
20
71.8842662531
10
61.2168395569
20
72.0126859224
10
61.2459148566
20
72.1415899994
10
61.2788361661
20
72.2709461816
10
61.3156033712
20
72.4007221667
10
61.3562163573
20
72.5308856522
10
61.40067501
20
72.6614043356
10
61.4489792151
20
72.7922459146
10
61.501128858
20
72.9233780866
10
61.5571238245
20
73.0547685492
10
61.616964
20
73.186385
10
61.6430167991
20
73.2419447675
10
61.6697179225
20
73.298887317
10
61.697006814
20
73.3570871641
10
61.7248229177
20
73.4164188243
10
61.7531056774
20
73.4767568133
10
61.781794537
20
73.5379756466
10
61.8108289406
20
73.5999498399
10
61.8401483319
20
73.6625539087
10
61.869692155
20
73.7256623687
10
61.8993998538
20
73.7891497353
10
61.9292108721
20
73.8528905243
10
61.959064654
20
73.9167592511
10
61.9889006433
20
73.9806304315
10
62.018658284
20
74.0443785809
10
62.04827702
20
74.1078782151
10
62.0776962953
20
74.1710038495
10
62.1068555536
20
74.2336299997
10
62.1356942391
20
74.2956311814
10
62.1641517955
20
74.3568819101
10
62.1921676669
20
74.4172567015
10
62.2196812971
20
74.4766300711
10
62.2466321301
20
74.5348765346
10
62.2729596098
20
74.5918706074
10
62.2986031802
20
74.6474868052
10
62.3235022851
20
74.7015996437
10
62.3475963684
20
74.7540836383
10
62.3708248742
20
74.8048133047
10
62.3931272463
20
74.8536631585
10
62.4144429287
20
74.9005077152
10
62.4347113653
20
74.9452214906
10
62.453872
20
74.987679
10
62.4725408986
20
75.0288534138
10
62.491355093
20
75.0697601544
10
62.5102805409
20
75.1103365352
10
62.5292831999
20
75.1505198693
10
62.5483290276
20
75.19024747
10
62.5673839817
20
75.2294566507
10
62.5864140199
20
75.2680847246
10
62.6053850997
20
75.306069005
10
62.6242631787
20
75.3433468052
10
62.6430142148
20
75.3798554385
10
62.6616041654
20
75.4155322182
10
62.6799989882
20
75.4503144574
10
62.6981646408
20
75.4841394696
10
62.7160670809
20
75.516944568
10
62.7336722662
20
75.5486670659
10
62.7509461542
20
75.5792442765
10
62.7678547026
20
75.6086135132
10
62.7843638691
20
75.6367120892
10
62.8004396112
20
75.6634773178
10
62.8160478867
20
75.6888465123
10
62.8311546531
20
75.712756986
10
62.8457258681
20
75.7351460522
10
62.8597274893
20
75.7559510241
10
62.8731254744
20
75.775109215
10
62.885885781
20
75.7925579383
10
62.8979743668
20
75.8082345071
10
62.9093571893
20
75.8220762348
10
62.9200002062
20
75.8340204347
10
62.9298693752
20
75.84400442
10
62.938930654
20
75.851965504
10
62.94715
20
75.857841
10
62.947669631
20
75.8581569908
10
62.9481917805
20
75.8584657339
10
62.9487163012
20
75.8587670305
10
62.9492430456
20
75.8590606819
10
62.9497718662
20
75.8593464892
10
62.9503026156
20
75.8596242537
10
62.9508351465
20
75.8598937766
10
62.9513693113
20
75.8601548591
10
62.9519049627
20
75.8604073024
10
62.9524419533
20
75.8606509077
10
62.9529801355
20
75.8608854763
10
62.953519362
20
75.8611108093
10
62.9540594854
20
75.861326708
10
62.9546003582
20
75.8615329735
10
62.9551418329
20
75.8617294072
10
62.9556837623
20
75.8619158102
10
62.9562259988
20
75.8620919838
10
62.956768395
20
75.8622577291
10
62.9573108034
20
75.8624128473
10
62.9578530768
20
75.8625571398
10
62.9583950675
20
75.8626904076
10
62.9589366283
20
75.862812452
10
62.9594776117
20
75.8629230743
10
62.9600178702
20
75.8630220756
10
62.9605572564
20
75.8631092572
10
62.9610956229
20
75.8631844202
10
62.9616328223
20
75.8632473659
10
62.9621687071
20
75.8632978956
10
62.96270313
20
75.8633358103
10
62.9632359434
20
75.8633609114
10
62.963767
20
75.863373
10
62.963777
20
75.863384
10
62.971763404
20
75.8623434778
10
62.9798077183
20
75.8590828944
10
62.9879006606
20
75.8536393374
10
62.9960329486
20
75.8460498943
10
63.0041953
20
75.8363516526
10
63.0123784326
20
75.8245817001
10
63.0205730641
20
75.8107771242
10
63.0287699122
20
75.7949750126
10
63.0369596947
20
75.7772124528
10
63.0451331294
20
75.7575265323
10
63.0532809338
20
75.7359543388
10
63.0613938259
20
75.7125329599
10
63.0694625232
20
75.6872994831
10
63.0774777436
20
75.6602909959
10
63.0854302048
20
75.6315445861
10
63.0933106245
20
75.6010973411
10
63.1011097205
20
75.5689863485
10
63.1088182104
20
75.5352486959
10
63.116426812
20
75.4999214709
10
63.1239262431
20
75.4630417611
10
63.1313072213
20
75.424646654
10
63.1385604645
20
75.3847732372
10
63.1456766903
20
75.3434585982
10
63.1526466165
20
75.3007398248
10
63.1594609608
20
75.2566540044
10
63.1661104409
20
75.2112382246
10
63.1725857746
20
75.164529573
10
63.1788776797
20
75.1165651371
10
63.1849768738
20
75.0673820046
10
63.1908740746
20
75.0170172631
10
63.19656
20
74.965508
10
63.2023045656
20
74.9134940274
10
63.2083431162
20
74.8619302506
10
63.2146586417
20
74.8108920745
10
63.2212341323
20
74.760454904
10
63.2280525781
20
74.710694144
10
63.2350969692
20
74.6616851994
10
63.2423502957
20
74.6135034752
10
63.2497955476
20
74.5662243764
10
63.2574157152
20
74.5199233077
10
63.2651937884
20
74.4746756741
10
63.2731127574
20
74.4305568806
10
63.2811556122
20
74.3876423321
10
63.2893053431
20
74.3460074335
10
63.2975449399
20
74.3057275897
10
63.305857393
20
74.2668782056
10
63.3142256923
20
74.2295346862
10
63.322632828
20
74.1937724363
10
63.3310617901
20
74.159666861
10
63.3394955688
20
74.1272933651
10
63.3479171542
20
74.0967273535
10
63.3563095363
20
74.0680442312
10
63.3646557052
20
74.041319403
10
63.3729386511
20
74.016628274
10
63.381141364
20
73.994046249
10
63.3892468341
20
73.9736487329
10
63.3972380514
20
73.9555111307
10
63.4050980061
20
73.9397088473
10
63.4128096882
20
73.9263172876
10
63.4203560878
20
73.9154118566
10
63.427720195
20
73.907067959
10
63.434885
20
73.901361
10
63.4419026073
20
73.8963237922
10
63.448830318
20
73.8899654371
10
63.4556586271
20
73.8823266441
10
63.4623780293
20
73.8734481223
10
63.4689790193
20
73.8633705809
10
63.475452092
20
73.8521347292
10
63.4817877421
20
73.8397812763
10
63.4879764644
20
73.8263509315
10
63.4940087537
20
73.8118844039
10
63.4998751047
20
73.7964224028
10
63.5055660123
20
73.7800056373
10
63.5110719712
20
73.7626748168
10
63.5163834763
20
73.7444706503
10
63.5214910222
20
73.7254338472
10
63.5263851037
20
73.7056051165
10
63.5310562157
20
73.6850251676
10
63.535494853
20
73.6637347095
10
63.5396915102
20
73.6417744516
10
63.5436366823
20
73.6191851031
10
63.5473208639
20
73.5960073731
10
63.5507345498
20
73.5722819708
10
63.5538682349
20
73.5480496055
10
63.5567124138
20
73.5233509863
10
63.5592575815
20
73.4982268226
10
63.5614942327
20
73.4727178234
10
63.563412862
20
73.446864698
10
63.5650039645
20
73.4207081556
10
63.5662580347
20
73.3942889053
10
63.5671655675
20
73.3676476565
10
63.5677170577
20
73.3408251184
10
63.567903
20
73.313862
10
63.5682280116
20
73.2854754213
10
63.5691920089
20
73.2544309851
10
63.5707784352
20
73.2208418352
10
63.572970734
20
73.1848211152
10
63.5757523488
20
73.1464819686
10
63.579106723
20
73.1059375392
10
63.5830173001
20
73.0633009705
10
63.5874675235
20
73.0186854063
10
63.5924408367
20
72.97220399
10
63.5979206832
20
72.9239698655
10
63.6038905064
20
72.8740961762
10
63.6103337497
20
72.8226960659
10
63.6172338566
20
72.7698826781
10
63.6245742707
20
72.7157691565
10
63.6323384352
20
72.6604686448
10
63.6405097937
20
72.6040942865
10
63.6490717897
20
72.5467592254
10
63.6580078666
20
72.4885766049
10
63.6673014678
20
72.4296595689
10
63.6769360368
20
72.3701212609
10
63.6868950171
20
72.3100748244
10
63.6971618521
20
72.2496334033
10
63.7077199853
20
72.1889101411
10
63.7185528602
20
72.1280181814
10
63.7296439201
20
72.0670706679
10
63.7409766085
20
72.0061807442
10
63.752534369
20
71.9454615539
10
63.7643006449
20
71.8850262407
10
63.7762588798
20
71.8249879483
10
63.788392517
20
71.7654598201
10
63.800685
20
71.706555
10
63.8314028724
20
71.5573293866
10
63.8621517709
20
71.4004567733
10
63.8929114564
20
71.2361149843
10
63.9236616896
20
71.0644818439
10
63.9543822314
20
70.8857351764
10
63.9850528425
20
70.7000528059
10
64.0156532838
20
70.5076125567
10
64.046163316
20
70.3085922531
10
64.0765627
20
70.1031697193
10
64.1068311965
20
69.8915227795
10
64.1369485664
20
69.673829258
10
64.1668945704
20
69.4502669791
10
64.1966489694
20
69.2210137668
10
64.2261915241
20
68.9862474456
10
64.2555019954
20
68.7461458397
10
64.284560144
20
68.5008867732
10
64.3133457308
20
68.2506480705
10
64.3418385166
20
67.9956075557
10
64.3700182621
20
67.7359430532
10
64.3978647281
20
67.4718323871
10
64.4253576755
20
67.2034533818
10
64.4524768651
20
66.9309838613
10
64.4792020576
20
66.6546016501
10
64.5055130138
20
66.3744845723
10
64.5313894946
20
66.0908104521
10
64.5568112608
20
65.8037571139
10
64.5817580731
20
65.5135023819
10
64.6062096924
20
65.2202240802
10
64.6301458795
20
64.9241000332
10
64.6535463951
20
64.625308065
10
64.676391
20
64.324026
10
64.6819247236
20
64.248032969
10
64.6869059254
20
64.1756732355
10
64.6913240066
20
64.1068693875
10
64.6951683682
20
64.0415440128
10
64.6984284115
20
63.9796196994
10
64.7010935375
20
63.9210190352
10
64.7031531476
20
63.865664608
10
64.7045966428
20
63.8134790058
10
64.7054134243
20
63.7643848164
10
64.7055928932
20
63.7183046278
10
64.7051244507
20
63.6751610278
10
64.7039974981
20
63.6348766043
10
64.7022014363
20
63.5973739452
10
64.6997256667
20
63.5625756385
10
64.6965595903
20
63.530404272
10
64.6926926084
20
63.5007824336
10
64.6881141221
20
63.4736327112
10
64.6828135324
20
63.4488776927
10
64.6767802407
20
63.426439966
10
64.6700036481
20
63.406242119
10
64.6624731557
20
63.3882067396
10
64.6541781647
20
63.3722564156
10
64.6451080763
20
63.3583137351
10
64.6352522915
20
63.3463012858
10
64.6246002117
20
63.3361416557
10
64.6131412379
20
63.3277574327
10
64.6008647712
20
63.3210712047
10
64.587760213
20
63.3160055595
10
64.5738169643
20
63.312483085
10
64.5590244262
20
63.3104263692
10
64.543372
20
63.309758
10
64.5223083829
20
63.3129879724
10
64.4993019269
20
63.3224963768
10
64.4744929668
20
63.3380109437
10
64.4480218376
20
63.3592594038
10
64.4200288741
20
63.3859694875
10
64.3906544111
20
63.4178689256
10
64.3600387835
20
63.4546854485
10
64.3283223262
20
63.4961467869
10
64.2956453741
20
63.5419806714
10
64.262148262
20
63.5919148326
10
64.2279713247
20
63.645677001
10
64.1932548973
20
63.7029949073
10
64.1581393144
20
63.7635962819
10
64.122764911
20
63.8272088556
10
64.087272022
20
63.8935603589
10
64.0518009822
20
63.9623785224
10
64.0164921264
20
64.0333910767
10
63.9814857897
20
64.1063257524
10
63.9469223067
20
64.1809102801
10
63.9129420124
20
64.2568723903
10
63.8796852417
20
64.3339398136
10
63.8472923294
20
64.4118402807
10
63.8159036103
20
64.4903015221
10
63.7856594194
20
64.5690512684
10
63.7567000915
20
64.6478172503
10
63.7291659615
20
64.7263271982
10
63.7031973643
20
64.8043088428
10
63.6789346346
20
64.8814899147
10
63.6565181074
20
64.9575981445
10
63.6360881176
20
65.0323612627
10
63.617785
20
65.105507
10
63.6127443835
20
65.1261142224
10
63.6073687572
20
65.146993123
10
63.60167452
20
65.1681017127
10
63.5956780709
20
65.1893980027
10
63.5893958091
20
65.2108400039
10
63.5828441336
20
65.2323857276
10
63.5760394435
20
65.2539931848
10
63.5689981377
20
65.2756203865
10
63.5617366153
20
65.2972253438
10
63.5542712754
20
65.3187660678
10
63.546618517
20
65.3402005697
10
63.5387947392
20
65.3614868604
10
63.530816341
20
65.382582951
10
63.5226997214
20
65.4034468526
10
63.5144612796
20
65.4240365764
10
63.5061174145
20
65.4443101333
10
63.4976845252
20
65.4642255345
10
63.4891790107
20
65.4837407909
10
63.4806172702
20
65.5028139138
10
63.4720157026
20
65.5214029142
10
63.4633907069
20
65.5394658031
10
63.4547586823
20
65.5569605917
10
63.4461360278
20
65.573845291
10
63.4375391424
20
65.590077912
10
63.4289844252
20
65.6056164659
10
63.4204882752
20
65.6204189638
10
63.4120670914
20
65.6344434167
10
63.403737273
20
65.6476478357
10
63.3955152189
20
65.6599902318
10
63.3874173282
20
65.6714286163
10
63.37946
20
65.681921
10
63.3692446444
20
65.6953539595
10
63.360236121
20
65.7082018286
10
63.3524515513
20
65.7204744161
10
63.3459080568
20
65.7321815308
10
63.3406227589
20
65.7433329813
10
63.3366127791
20
65.7539385764
10
63.3338952389
20
65.7640081249
10
63.3324872598
20
65.7735514355
10
63.3324059632
20
65.7825783169
10
63.3336684707
20
65.7910985778
10
63.3362919037
20
65.799122027
10
63.3402933836
20
65.8066584732
10
63.3456900321
20
65.8137177252
10
63.3524989705
20
65.8203095916
10
63.3607373203
20
65.8264438812
10
63.3704222031
20
65.8321304028
10
63.3815707402
20
65.8373789651
10
63.3942000532
20
65.8421993768
10
63.4083272636
20
65.8466014467
10
63.4239694928
20
65.8505949834
10
63.4411438623
20
65.8541897958
10
63.4598674936
20
65.8573956925
10
63.4801575082
20
65.8602224823
10
63.5020310275
20
65.8626799739
10
63.525505173
20
65.8647779761
10
63.5505970663
20
65.8665262976
10
63.5773238287
20
65.8679347471
10
63.6057025819
20
65.8690131333
10
63.6357504471
20
65.8697712651
10
63.667484546
20
65.8702189511
10
63.700922
20
65.870366
10
63.7302144352
20
65.8705833586
10
63.7586065721
20
65.8712356745
10
63.7860943352
20
65.8723233074
10
63.8126736488
20
65.8738466174
10
63.8383404373
20
65.8758059643
10
63.8630906252
20
65.878201708
10
63.8869201368
20
65.8810342084
10
63.9098248966
20
65.8843038255
10
63.9318008289
20
65.8880109192
10
63.9528438583
20
65.8921558493
10
63.972949909
20
65.8967389758
10
63.9921149055
20
65.9017606585
10
64.0103347722
20
65.9072212575
10
64.0276054335
20
65.9131211325
10
64.0439228138
20
65.9194606435
10
64.0592828376
20
65.9262401504
10
64.0736814291
20
65.9334600132
10
64.0871145129
20
65.9411205917
10
64.0995780133
20
65.9492222457
10
64.1110678548
20
65.9577653354
10
64.1215799617
20
65.9667502204
10
64.1311102585
20
65.9761772609
10
64.1396546695
20
65.9860468165
10
64.1472091192
20
65.9963592474
10
64.153769532
20
66.0071149133
10
64.1593318322
20
66.0183141741
10
64.1638919444
20
66.0299573899
10
64.1674457928
20
66.0420449205
10
64.169989302
20
66.0545771257
10
64.1715183962
20
66.0675543656
10
64.172029
20
66.080977
10
64.1715404543
20
66.1017478192
10
64.170000002
20
66.1216597097
10
64.1672954199
20
66.1407618532
10
64.1633144851
20
66.1591034313
10
64.1579449746
20
66.1767336257
10
64.1510746653
20
66.1937016178
10
64.1425913343
20
66.2100565895
10
64.1323827584
20
66.2258477223
10
64.1203367147
20
66.2411241978
10
64.1063409801
20
66.2559351978
10
64.0902833317
20
66.2703299037
10
64.0720515464
20
66.2843574973
10
64.0515334012
20
66.2980671602
10
64.0286166731
20
66.311508074
10
64.003189139
20
66.3247294204
10
63.9751385759
20
66.3377803809
10
63.9443527609
20
66.3507101372
10
63.9107194708
20
66.363567871
10
63.8741264827
20
66.3764027639
10
63.8344615736
20
66.3892639974
10
63.7916125204
20
66.4022007533
10
63.7454671001
20
66.4152622132
10
63.6959130897
20
66.4284975587
10
63.6428382662
20
66.4419559714
10
63.5861304065
20
66.4556866329
10
63.5256772876
20
66.469738725
10
63.4613666865
20
66.4841614292
10
63.3930863803
20
66.4990039272
10
63.3207241458
20
66.5143154006
10
63.24416776
20
66.5301450309
10
63.163305
20
66.546542
10
63.1240606042
20
66.5548348331
10
63.0864475381
20
66.563673214
10
63.0503580806
20
66.5731802556
10
63.0156845102
20
66.5834790709
10
62.9823191058
20
66.5946927727
10
62.9501541461
20
66.6069444739
10
62.9190819098
20
66.6203572874
10
62.8889946757
20
66.635054326
10
62.8597847225
20
66.6511587027
10
62.831344329
20
66.6687935303
10
62.8035657739
20
66.6880819218
10
62.7763413359
20
66.70914699
10
62.7495632939
20
66.7321118477
10
62.7231239265
20
66.757099608
10
62.6969155124
20
66.7842333836
10
62.6708303305
20
66.8136362875
10
62.6447606594
20
66.8454314326
10
62.6185987779
20
66.8797419317
10
62.5922369648
20
66.9166908977
10
62.5655674987
20
66.9564014435
10
62.5384826585
20
66.998996682
10
62.5108747229
20
67.044599726
10
62.4826359705
20
67.0933336886
10
62.4536586802
20
67.1453216825
10
62.4238351307
20
67.2006868206
10
62.3930576008
20
67.2595522158
10
62.3612183691
20
67.3220409811
10
62.3282097144
20
67.3882762293
10
62.2939239155
20
67.4583810732
10
62.2582532511
20
67.5324786258
10
62.22109
20
67.610692
10
62.1969044241
20
67.6621163982
10
62.1730187577
20
67.7133708277
10
62.1494664318
20
67.7643746892
10
62.1262808772
20
67.8150473833
10
62.103495525
20
67.8653083108
10
62.0811438059
20
67.9150768723
10
62.0592591509
20
67.9642724686
10
62.0378749909
20
68.0128145004
10
62.0170247568
20
68.0606223682
10
61.9967418794
20
68.1076154729
10
61.9770597898
20
68.153713215
10
61.9580119187
20
68.1988349954
10
61.9396316971
20
68.2429002147
10
61.9219525559
20
68.2858282735
10
61.9050079261
20
68.3275385726
10
61.8888312384
20
68.3679505127
10
61.8734559238
20
68.4069834944
10
61.8589154132
20
68.4445569185
10
61.8452431375
20
68.4805901857
10
61.8324725276
20
68.5150026965
10
61.8206370144
20
68.5477138518
10
61.8097700289
20
68.5786430522
10
61.7999050018
20
68.6077096984
10
61.7910753642
20
68.6348331911
10
61.7833145468
20
68.659932931
10
61.7766559807
20
68.6829283188
10
61.7711330967
20
68.7037387551
10
61.7667793258
20
68.7222836407
10
61.7636280987
20
68.7384823763
10
61.7617128465
20
68.7522543625
10
61.761067
20
68.763519
10
61.7607248087
20
68.7740106126
10
61.7598116879
20
68.7854887455
10
61.7583422045
20
68.7979109223
10
61.7563309253
20
68.8112346663
10
61.7537924174
20
68.8254175012
10
61.7507412475
20
68.8404169504
10
61.7471919826
20
68.8561905373
10
61.7431591895
20
68.8726957855
10
61.738657435
20
68.8898902184
10
61.7337012862
20
68.9077313594
10
61.7283053098
20
68.9261767322
10
61.7224840728
20
68.9451838601
10
61.716252142
20
68.9647102667
10
61.7096240844
20
68.9847134754
10
61.7026144667
20
69.0051510097
10
61.6952378559
20
69.025980393
10
61.6875088189
20
69.047159149
10
61.6794419225
20
69.0686448009
10
61.6710517336
20
69.0903948724
10
61.6623528192
20
69.1123668869
10
61.6533597461
20
69.1345183679
10
61.6440870811
20
69.1568068389
10
61.6345493912
20
69.1791898233
10
61.6247612432
20
69.2016248446
10
61.6147372041
20
69.2240694263
10
61.6044918407
20
69.2464810919
10
61.5940397198
20
69.2688173649
10
61.5833954084
20
69.2910357687
10
61.5725734734
20
69.3130938268
10
61.5615884817
20
69.3349490628
10
61.550455
20
69.356559
10
61.4948891401
20
69.4673442437
10
61.4431718069
20
69.5792922464
10
61.3953028858
20
69.6923707056
10
61.3512822626
20
69.8065473189
10
61.3111098228
20
69.9217897838
10
61.2747854519
20
70.0380657979
10
61.2423090357
20
70.1553430587
10
61.2136804598
20
70.2735892639
10
61.1888996096
20
70.3927721109
10
61.1679663709
20
70.5128592974
10
61.1508806292
20
70.6338185209
10
61.1376422701
20
70.7556174789
10
61.1282511793
20
70.878223869
10
61.1227072423
20
71.0016053888
10
61.1210103447
20
71.1257297358
0
LWPOLYLINE
5
5A
100
AcDbEntity
8
Engraving
6
ByLayer
62
256
370
-1
100
AcDbPolyline
90
435
70
1
43
0
10
51.790218
20
53.233601
10
51.8151605288
20
53.2331023312
10
51.83948489
20
53.231580536
10
51.8632272782
20
53.2289969313
10
51.886423888
20
53.225312834
10
51.9091109138
20
53.2204895611
10
51.9313245503
20
53.2144884295
10
51.953100992
20
53.207270756
10
51.9744764335
20
53.1987978576
10
51.9954870693
20
53.1890310511
10
52.0161690939
20
53.1779316536
10
52.0365587021
20
53.1654609818
10
52.0566920882
20
53.1515803527
10
52.0766054468
20
53.1362510832
10
52.0963349725
20
53.1194344902
10
52.1159168599
20
53.1010918907
10
52.1353873035
20
53.0811846015
10
52.1547824978
20
53.0596739395
10
52.1741386375
20
53.0365212217
10
52.1934919171
20
53.0116877649
10
52.212878531
20
52.9851348861
10
52.232334674
20
52.9568239021
10
52.2518965405
20
52.9267161299
10
52.2716003251
20
52.8947728864
10
52.2914822223
20
52.8609554885
10
52.3115784268
20
52.8252252531
10
52.331925133
20
52.7875434971
10
52.3525585356
20
52.7478715374
10
52.373514829
20
52.706170691
10
52.3948302078
20
52.6624022746
10
52.4165408666
20
52.6165276054
10
52.438683
20
52.568508
10
52.4547812767
20
52.532758632
10
52.4706443168
20
52.4967168643
10
52.4862520159
20
52.460449879
10
52.5015842694
20
52.4240248581
10
52.5166209729
20
52.3875089837
10
52.5313420219
20
52.3509694377
10
52.545727312
20
52.3144734023
10
52.5597567388
20
52.2780880595
10
52.5734101977
20
52.2418805912
10
52.5866675843
20
52.2059181796
10
52.5995087941
20
52.1702680066
10
52.6119137227
20
52.1349972543
10
52.6238622656
20
52.1001731048
10
52.6353343184
20
52.06586274
10
52.6463097765
20
52.032133342
10
52.6567685356
20
51.9990520929
10
52.6666904912
20
51.9666861747
10
52.6760555387
20
51.9351027693
10
52.6848435739
20
51.9043690589
10
52.6930344921
20
51.8745522254
10
52.7006081889
20
51.845719451
10
52.7075445599
20
51.8179379176
10
52.7138235005
20
51.7912748073
10
52.7194249065
20
51.7657973021
10
52.7243286732
20
51.7415725841
10
52.7285146962
20
51.7186678353
10
52.7319628711
20
51.6971502376
10
52.7346530934
20
51.6770869732
10
52.7365652586
20
51.6585452242
10
52.7376792623
20
51.6415921724
10
52.737975
20
51.626295
10
52.73688117
20
51.5991595098
10
52.7341237441
20
51.5703590405
10
52.7298170119
20
51.5401222721
10
52.724075263
20
51.5086778842
10
52.7170127871
20
51.4762545566
10
52.7087438737
20
51.4430809689
10
52.6993828125
20
51.409385801
10
52.689043893
20
51.3753977325
10
52.677841405
20
51.3413454432
10
52.665889638
20
51.3074576129
10
52.6533028816
20
51.2739629212
10
52.6401954255
20
51.2410900479
10
52.6266815593
20
51.2090676728
10
52.6128755725
20
51.1781244755
10
52.5988917549
20
51.1484891358
10
52.584844396
20
51.1203903335
10
52.5708477854
20
51.0940567482
10
52.5570162129
20
51.0697170598
10
52.5434639678
20
51.0475999479
10
52.53030534
20
51.0279340923
10
52.517654619
20
51.0109481728
10
52.5056260945
20
50.996870869
10
52.494334056
20
50.9859308606
10
52.4838927932
20
50.9783568275
10
52.4744165956
20
50.9743774494
10
52.466019753
20
50.974221406
10
52.4588165549
20
50.978117377
10
52.4529212909
20
50.9862940421
10
52.4484482507
20
50.9989800812
10
52.4455117238
20
51.0164041739
10
52.444226
20
51.038795
10
52.4419148903
20
51.059601243
10
52.4359125108
20
51.0749169088
10
52.4264156728
20
51.0849519509
10
52.4136211875
20
51.0899163227
10
52.3977258664
20
51.0900199777
10
52.3789265207
20
51.0854728694
10
52.3574199617
20
51.0764849512
10
52.3334030008
20
51.0632661767
10
52.3070724493
20
51.0460264992
10
52.2786251185
20
51.0249758724
10
52.2482578197
20
51.0003242496
10
52.2161673643
20
50.9722815844
10
52.1825505635
20
50.9410578302
10
52.1476042287
20
50.9068629405
10
52.1115251712
20
50.8699068687
10
52.0745102023
20
50.8303995684
10
52.0367561334
20
50.788550993
10
51.9984597757
20
50.7445710959
10
51.9598179406
20
50.6986698308
10
51.9210274394
20
50.651057151
10
51.8822850833
20
50.60194301
10
51.8437876839
20
50.5515373613
10
51.8057320522
20
50.5000501584
10
51.7683149998
20
50.4476913547
10
51.7317333378
20
50.3946709038
10
51.6961838776
20
50.3411987591
10
51.6618634306
20
50.287484874
10
51.628968808
20
50.2337392021
10
51.5976968211
20
50.1801716968
10
51.5682442814
20
50.1269923116
10
51.540808
20
50.074411
10
51.5258496001
20
50.0443248803
10
51.5093081227
20
50.0101975447
10
51.4912482799
20
49.9721785934
10
51.4717347841
20
49.9304176263
10
51.4508323473
20
49.8850642434
10
51.4286056819
20
49.8362680448
10
51.4051195
20
49.7841786305
10
51.3804385139
20
49.7289456004
10
51.3546274359
20
49.6707185546
10
51.3277509781
20
49.6096470931
10
51.2998738528
20
49.545880816
10
51.2710607722
20
49.4795693231
10
51.2413764485
20
49.4108622146
10
51.210885594
20
49.3399090905
10
51.1796529209
20
49.2668595507
10
51.1477431415
20
49.1918631954
10
51.1152209679
20
49.1150696244
10
51.0821511123
20
49.0366284378
10
51.0485982871
20
48.9566892357
10
51.0146272045
20
48.875401618
10
50.9803025766
20
48.7929151847
10
50.9456891156
20
48.7093795359
10
50.910851534
20
48.6249442716
10
50.8758545437
20
48.5397589918
10
50.8407628572
20
48.4539732965
10
50.8056411865
20
48.3677367857
10
50.770554244
20
48.2811990594
10
50.7355667419
20
48.1945097177
10
50.7007433924
20
48.1078183606
10
50.6661489077
20
48.021274588
10
50.631848
20
47.935028
10
50.5863002843
20
47.8206975052
10
50.5422883265
20
47.7112563263
10
50.4997663945
20
47.6066271157
10
50.4586887559
20
47.5067325254
10
50.4190096787
20
47.4114952075
10
50.3806834306
20
47.3208378143
10
50.3436642794
20
47.2346829978
10
50.3079064928
20
47.1529534102
10
50.2733643388
20
47.0755717037
10
50.2399920851
20
47.0024605303
10
50.2077439995
20
46.9335425422
10
50.1765743498
20
46.8687403917
10
50.1464374039
20
46.8079767307
10
50.1172874294
20
46.7511742115
10
50.0890786942
20
46.6982554862
10
50.0617654661
20
46.6491432069
10
50.0353020129
20
46.6037600258
10
50.0096426024
20
46.562028595
10
49.9847415024
20
46.5238715667
10
49.9605529807
20
46.489211593
10
49.9370313051
20
46.4579713261
10
49.9141307434
20
46.4300734181
10
49.8918055634
20
46.4054405211
10
49.8700100328
20
46.3839952873
10
49.8486984196
20
46.3656603688
10
49.8278249914
20
46.3503584178
10
49.8073440162
20
46.3380120865
10
49.7872097616
20
46.3285440269
10
49.7673764955
20
46.3218768911
10
49.7477984857
20
46.3179333315
10
49.72843
20
46.316636
10
49.6991591995
20
46.3186514653
10
49.6708643933
20
46.3247398013
10
49.6435318127
20
46.3349639183
10
49.6171476894
20
46.3493867266
10
49.5916982547
20
46.3680711365
10
49.5671697401
20
46.3910800581
10
49.5435483772
20
46.4184764019
10
49.5208203974
20
46.4503230781
10
49.4989720321
20
46.4866829969
10
49.4779895129
20
46.5276190687
10
49.4578590713
20
46.5731942037
10
49.4385669387
20
46.6234713121
10
49.4200993466
20
46.6785133044
10
49.4024425264
20
46.7383830906
10
49.3855827097
20
46.8031435811
10
49.369506128
20
46.8728576863
10
49.3541990126
20
46.9475883163
10
49.3396475952
20
47.0273983814
10
49.3258381071
20
47.1123507919
10
49.3127567799
20
47.2025084581
10
49.300389845
20
47.2979342903
10
49.2887235339
20
47.3986911987
10
49.2777440782
20
47.5048420936
10
49.2674377092
20
47.6164498853
10
49.2577906584
20
47.733577484
10
49.2487891574
20
47.8562878001
10
49.2404194376
20
47.9846437437
10
49.2326677305
20
48.1187082253
10
49.2255202675
20
48.258544155
10
49.2189632802
20
48.4042144432
10
49.212983
20
48.555782
10
49.207613047
20
48.7693159407
10
49.206657103
20
48.9943911595
10
49.209917525
20
49.2297504286
10
49.2171966694
20
49.4741365204
10
49.2282968929
20
49.7262922071
10
49.2430205524
20
49.9849602612
10
49.2611700044
20
50.2488834548
10
49.2825476057
20
50.5168045604
10
49.3069557129
20
50.7874663502
10
49.3341966827
20
51.0596115965
10
49.3640728717
20
51.3319830717
10
49.3963866368
20
51.6033235481
10
49.4309403345
20
51.872375798
10
49.4675363216
20
52.1378825937
10
49.5059769547
20
52.3985867075
10
49.5460645906
20
52.6532309117
10
49.5876015858
20
52.9005579787
10
49.6303902971
20
53.1393106807
10
49.6742330812
20
53.3682317901
10
49.7189322947
20
53.5860640792
10
49.7642902944
20
53.7915503202
10
49.810109437
20
53.9834332856
10
49.856192079
20
54.1604557476
10
49.9023405773
20
54.3213604786
10
49.9483572884
20
54.4648902508
10
49.9940445691
20
54.5897878366
10
50.039204776
20
54.6947960083
10
50.0836402659
20
54.7786575381
10
50.1271533954
20
54.8401151985
10
50.1695465212
20
54.8779117617
10
50.210622
20
54.89079
10
50.2187536913
20
54.8910644771
10
50.2265603357
20
54.8918789949
10
50.2340367406
20
54.8932201831
10
50.2411777135
20
54.8950746712
10
50.2479780617
20
54.897429089
10
50.2544325928
20
54.9002700661
10
50.2605361141
20
54.9035842321
10
50.266283433
20
54.9073582167
10
50.2716693571
20
54.9115786496
10
50.2766886936
20
54.9162321604
10
50.2813362501
20
54.9213053787
10
50.2856068339
20
54.9267849343
10
50.2894952526
20
54.9326574567
10
50.2929963134
20
54.9389095757
10
50.2961048238
20
54.9455279208
10
50.2988155913
20
54.9524991218
10
50.3011234233
20
54.9598098083
10
50.3030231273
20
54.9674466098
10
50.3045095105
20
54.9753961562
10
50.3055773805
20
54.983645077
10
50.3062215447
20
54.9921800019
10
50.3064368105
20
55.0009875606
10
50.3062179853
20
55.0100543827
10
50.3055598765
20
55.0193670978
10
50.3044572917
20
55.0289123356
10
50.3029050382
20
55.0386767258
10
50.3008979234
20
55.048646898
10
50.2984307547
20
55.0588094819
10
50.2954983397
20
55.069151107
10
50.2920954856
20
55.0796584032
10
50.288217
20
55.090318
10
50.2842826592
20
55.1012294997
10
50.2807133539
20
55.112482801
10
50.2775058532
20
55.1240511395
10
50.2746569262
20
55.1359077507
10
50.2721633419
20
55.1480258702
10
50.2700218694
20
55.1603787334
10
50.2682292779
20
55.1729395759
10
50.2667823364
20
55.1856816333
10
50.265677814
20
55.1985781411
10
50.2649124798
20
55.2116023349
10
50.264483103
20
55.2247274501
10
50.2643864525
20
55.2379267224
10
50.2646192975
20
55.2511733872
10
50.2651784071
20
55.2644406801
10
50.2660605504
20
55.2777018367
10
50.2672624964
20
55.2909300925
10
50.2687810143
20
55.304098683
10
50.2706128731
20
55.3171808438
10
50.272754842
20
55.3301498104
10
50.2752036899
20
55.3429788184
10
50.2779561861
20
55.3556411032
10
50.2810090996
20
55.3681099005
10
50.2843591995
20
55.3803584458
10
50.2880032549
20
55.3923599746
10
50.2919380349
20
55.4040877224
10
50.2961603085
20
55.4155149248
10
50.3006668449
20
55.4266148174
10
50.3054544132
20
55.4373606357
10
50.3105197824
20
55.4477256152
10
50.3158597216
20
55.4576829914
10
50.321471
20
55.467206
10
50.3231937941
20
55.4699356625
10
50.3249336525
20
55.4725759976
10
50.3266917247
20
55.4751272842
10
50.3284691605
20
55.4775898017
10
50.3302671094
20
55.479963829
10
50.332086721
20
55.4822496455
10
50.3339291449
20
55.4844475301
10
50.3357955308
20
55.4865577621
10
50.3376870282
20
55.4885806206
10
50.3396047867
20
55.4905163847
10
50.341549956
20
55.4923653336
10
50.3435236857
20
55.4941277464
10
50.3455271254
20
55.4958039024
10
50.3475614246
20
55.4973940805
10
50.3496277331
20
55.49889856
10
50.3517272003
20
55.50031762
10
50.353860976
20
55.5016515397
10
50.3560302097
20
55.5029005982
10
50.358236051
20
55.5040650746
10
50.3604796496
20
55.5051452481
10
50.362762155
20
55.5061413978
10
50.3650847169
20
55.507053803
10
50.3674484848
20
55.5078827426
10
50.3698546085
20
55.5086284959
10
50.3723042374
20
55.509291342
10
50.3747985212
20
55.5098715601
10
50.3773386095
20
55.5103694293
10
50.3799256519
20
55.5107852288
10
50.3825607981
20
55.5111192376
10
50.3852451976
20
55.511371735
10
50.38798
20
55.511543
10
50.38798
20
55.511543
10
50.3964091351
20
55.5115594505
10
50.405133468
20
55.5108223293
10
50.4141518737
20
55.5093317984
10
50.4234632276
20
55.5070880196
10
50.4330664046
20
55.504091155
10
50.4429602801
20
55.5003413664
10
50.4531437291
20
55.4958388157
10
50.4636156269
20
55.4905836649
10
50.4743748485
20
55.4845760759
10
50.4854202692
20
55.4778162107
10
50.4967507641
20
55.4703042311
10
50.5083652084
20
55.4620402992
10
50.5202624773
20
55.4530245768
10
50.5324414458
20
55.4432572258
10
50.5449009892
20
55.4327384082
10
50.5576399827
20
55.4214682859
10
50.5706573013
20
55.4094470208
10
50.5839518204
20
55.396674775
10
50.5975224149
20
55.3831517102
10
50.6113679601
20
55.3688779884
10
50.6254873312
20
55.3538537716
10
50.6398794033
20
55.3380792217
10
50.6545430516
20
55.3215545006
10
50.6694771512
20
55.3042797702
10
50.6846805774
20
55.2862551924
10
50.7001522052
20
55.2674809293
10
50.7158909098
20
55.2479571427
10
50.7318955664
20
55.2276839945
10
50.7481650503
20
55.2066616467
10
50.7646982364
20
55.1848902613
10
50.781494
20
55.16237
10
50.8033700125
20
55.1324797057
10
50.8242124584
20
55.1033840349
10
50.8440180788
20
55.0750873218
10
50.8627836151
20
55.0475939005
10
50.8805058086
20
55.0209081053
10
50.8971814006
20
54.9950342704
10
50.9128071323
20
54.9699767299
10
50.9273797451
20
54.945739818
10
50.9408959803
20
54.922327869
10
50.9533525791
20
54.899745217
10
50.9647462829
20
54.8779961963
10
50.975073833
20
54.8570851409
10
50.9843319706
20
54.8370163853
10
50.9925174371
20
54.8177942634
10
50.9996269737
20
54.7994231095
10
51.0056573218
20
54.7819072578
10
51.0106052226
20
54.7652510426
10
51.0144674175
20
54.7494587979
10
51.0172406478
20
54.734534858
10
51.0189216547
20
54.7204835571
10
51.0195071795
20
54.7073092294
10
51.0189939636
20
54.6950162091
10
51.0173787482
20
54.6836088303
10
51.0146582746
20
54.6730914273
10
51.0108292841
20
54.6634683342
10
51.0058885181
20
54.6547438853
10
50.9998327179
20
54.6469224148
10
50.9926586246
20
54.6400082568
10
50.9843629797
20
54.6340057455
10
50.9749425244
20
54.6289192152
10
50.964394
20
54.624753
10
50.9216008257
20
54.6059787987
10
50.8860948698
20
54.5809836682
10
50.8576011281
20
54.5502311415
10
50.8358445962
20
54.5141847513
10
50.82055027
20
54.4733080307
10
50.8114431452
20
54.4280645125
10
50.8082482175
20
54.3789177295
10
50.8106904826
20
54.3263312146
10
50.8184949363
20
54.2707685008
10
50.8313865743
20
54.2126931208
10
50.8490903923
20
54.1525686077
10
50.8713313862
20
54.0908584941
10
50.8978345516
20
54.0280263131
10
50.9283248842
20
53.9645355976
10
50.9625273799
20
53.9008498803
10
51.0001670343
20
53.8374326941
10
51.0409688431
20
53.7747475721
10
51.0846578022
20
53.7132580469
10
51.1309589072
20
53.6534276515
10
51.179597154
20
53.5957199189
10
51.2302975381
20
53.5405983818
10
51.2827850554
20
53.4885265731
10
51.3367847016
20
53.4399680257
10
51.3920214725
20
53.3953862726
10
51.4482203637
20
53.3552448465
10
51.505106371
20
53.3200072804
10
51.5624044902
20
53.2901371071
10
51.6198397169
20
53.2660978596
10
51.677137047
20
53.2483530706
10
51.7340214761
20
53.2373662731
0
ENDSEC
0
SECTION
2
OBJECTS
0
DICTIONARY
5
C
330
0
100
AcDbDictionary
281
1
3
ACAD_GROUP
350
D
0
DICTIONARY
5
D
330
C
100
AcDbDictionary
281
1
0
ENDSEC
0
EOF
