999
dxfrw 0.5.10
0
SECTION
2
HEADER
9
$ACADVER
1
AC1021
9
$HANDSEED
5
20000
9
$DWGCODEPAGE
3
ANSI_1252
9
$INSBASE
10
0
20
0
30
0
9
$EXTMIN
10
7
20
-1.66533453694e-16
30
0
9
$EXTMAX
10
113
20
110
30
0
9
$LIMMIN
10
0
20
0
9
$LIMMAX
10
420
20
297
9
$ORTHOMODE
70
0
9
$LTSCALE
40
1
9
$TEXTSTYLE
7
STANDARD
9
$CLAYER
8
Engraving
9
$DIMASZ
40
2.5
9
$DIMLFAC
40
1
9
$DIMSCALE
40
1
9
$DIMEXO
40
0.625
9
$DIMEXE
40
1.25
9
$DIMTXT
40
2.5
9
$DIMTSZ
40
0
9
$DIMAUNIT
70
0
9
$DIMADEC
70
0
9
$DIMLUNIT
70
2
9
$DIMSTYLE
2
STANDARD
9
$DIMGAP
40
0.625
9
$DIMTIH
70
0
9
$LUNITS
70
2
9
$LUPREC
70
4
9
$AUNITS
70
0
9
$AUPREC
70
2
9
$SPLINESEGS
70
8
9
$GRIDMODE
70
1
9
$SNAPSTYLE
70
0
9
$PINSBASE
10
0
20
0
30
0
9
$PLIMMIN
10
0
20
0
9
$PLIMMAX
10
210
20
297
9
$INSUNITS
70
4
9
$PSVPSCALE
40
1
0
ENDSEC
0
SECTION
2
CLASSES
0
ENDSEC
0
SECTION
2
TABLES
0
TABLE
2
VPORT
5
8
330
0
100
AcDbSymbolTable
70
1
0
VPORT
5
31
330
2
100
AcDbSymbolTableRecord
100
AcDbViewportTableRecord
2
*ACTIVE
70
0
10
0
20
0
11
1
21
1
12
76.7739726027
22
55.7534246575
13
0
23
0
14
10
24
10
15
10
25
10
16
0
26
0
36
1
17
0
27
0
37
0
40
113.01369863
41
1.65333333333
42
50
43
0
44
0
50
0
51
0
71
0
72
100
73
1
74
3
75
0
76
1
77
0
78
0
281
0
65
1
110
0
120
0
130
0
111
1
121
0
131
0
112
0
122
1
132
0
79
0
146
0
348
10020
60
7
61
5
292
1
282
1
141
0
142
0
63
250
421
3358443
0
ENDTAB
0
TABLE
2
LTYPE
5
5
330
0
100
AcDbSymbolTable
70
4
0
LTYPE
5
14
330
5
100
AcDbSymbolTableRecord
100
AcDbLinetypeTableRecord
2
ByBlock
70
0
3

72
65
73
0
40
0
0
LTYPE
5
15
330
5
100
AcDbSymbolTableRecord
100
AcDbLinetypeTableRecord
2
ByLayer
70
0
3

72
65
73
0
40
0
0
LTYPE
5
16
330
5
100
AcDbSymbolTableRecord
100
AcDbLinetypeTableRecord
2
Continuous
70
0
3
Solid line
72
65
73
0
40
0
0
LTYPE
5
32
330
5
100
AcDbSymbolTableRecord
100
AcDbLinetypeTableRecord
2
DOT
70
0
3
Dot . . . . . . . . . . . . . . . . . . . . . .
72
65
73
2
40
6.35
49
0
74
0
49
-6.35
74
0
0
LTYPE
5
33
330
5
100
AcDbSymbolTableRecord
100
AcDbLinetypeTableRecord
2
DOT2
70
0
3
Dot (.5x) .....................................
72
65
73
2
40
3.175
49
0
74
0
49
-3.175
74
0
0
LTYPE
5
34
330
5
100
AcDbSymbolTableRecord
100
AcDbLinetypeTableRecord
2
DOTX2
70
0
3
Dot (2x) .  .  .  .  .  .  .  .  .  .  .  .  .
72
65
73
2
40
12.7
49
0
74
0
49
-12.7
74
0
0
LTYPE
5
35
330
5
100
AcDbSymbolTableRecord
100
AcDbLinetypeTableRecord
2
DASHED
70
0
3
Dot . . . . . . . . . . . . . . . . . . . . . .
72
65
73
2
40
19.05
49
12.7
74
0
49
-6.35
74
0
0
LTYPE
5
36
330
5
100
AcDbSymbolTableRecord
100
AcDbLinetypeTableRecord
2
DASHED2
70
0
3
Dashed (.5x) _ _ _ _ _ _ _ _ _ _ _ _ _ _ _ _ _
72
65
73
2
40
9.525
49
6.35
74
0
49
-3.175
74
0
0
LTYPE
5
37
330
5
100
AcDbSymbolTableRecord
100
AcDbLinetypeTableRecord
2
DASHEDX2
70
0
3
Dashed (2x) ____  ____  ____  ____  ____  ___
72
65
73
2
40
38.1
49
25.4
74
0
49
-12.7
74
0
0
LTYPE
5
38
330
5
100
AcDbSymbolTableRecord
100
AcDbLinetypeTableRecord
2
DASHDOT
70
0
3
Dash dot __ . __ . __ . __ . __ . __ . __ . __
72
65
73
4
40
25.4
49
12.7
74
0
49
-6.35
74
0
49
0
74
0
49
-6.35
74
0
0
LTYPE
5
39
330
5
100
AcDbSymbolTableRecord
100
AcDbLinetypeTableRecord
2
DASHDOT2
70
0
3
Dash dot (.5x) _._._._._._._._._._._._._._._.
72
65
73
4
40
12.7
49
6.35
74
0
49
-3.175
74
0
49
0
74
0
49
-3.175
74
0
0
LTYPE
5
3A
330
5
100
AcDbSymbolTableRecord
100
AcDbLinetypeTableRecord
2
DASHDOTX2
70
0
3
Dash dot (2x) ____  .  ____  .  ____  .  ___
72
65
73
4
40
50.8
49
25.4
74
0
49
-12.7
74
0
49
0
74
0
49
-12.7
74
0
0
LTYPE
5
3B
330
5
100
AcDbSymbolTableRecord
100
AcDbLinetypeTableRecord
2
DIVIDE
70
0
3
Divide ____ . . ____ . . ____ . . ____ . . ____
72
65
73
6
40
31.75
49
12.7
74
0
49
-6.35
74
0
49
0
74
0
49
-6.35
74
0
49
0
74
0
49
-6.35
74
0
0
LTYPE
5
3C
330
5
100
AcDbSymbolTableRecord
100
AcDbLinetypeTableRecord
2
DIVIDE2
70
0
3
Divide (.5x) __..__..__..__..__..__..__..__.._
72
65
73
6
40
15.875
49
6.35
74
0
49
-3.175
74
0
49
0
74
0
49
-3.175
74
0
49
0
74
0
49
-3.175
74
0
0
LTYPE
5
3D
330
5
100
AcDbSymbolTableRecord
100
AcDbLinetypeTableRecord
2
DIVIDEX2
70
0
3
Divide (2x) ________  .  .  ________  .  .  _
72
65
73
6
40
63.5
49
25.4
74
0
49
-12.7
74
0
49
0
74
0
49
-12.7
74
0
49
0
74
0
49
-12.7
74
0
0
LTYPE
5
3E
330
5
100
AcDbSymbolTableRecord
100
AcDbLinetypeTableRecord
2
BORDER
70
0
3
Border __ __ . __ __ . __ __ . __ __ . __ __ .
72
65
73
6
40
44.45
49
12.7
74
0
49
-6.35
74
0
49
12.7
74
0
49
-6.35
74
0
49
0
74
0
49
-6.35
74
0
0
LTYPE
5
3F
330
5
100
AcDbSymbolTableRecord
100
AcDbLinetypeTableRecord
2
BORDER2
70
0
3
Border (.5x) __.__.__.__.__.__.__.__.__.__.__.
72
65
73
6
40
22.225
49
6.35
74
0
49
-3.175
74
0
49
6.35
74
0
49
-3.175
74
0
49
0
74
0
49
-3.175
74
0
0
LTYPE
5
40
330
5
100
AcDbSymbolTableRecord
100
AcDbLinetypeTableRecord
2
BORDERX2
70
0
3
Border (2x) ____  ____  .  ____  ____  .  ___
72
65
73
6
40
88.9
49
25.4
74
0
49
-12.7
74
0
49
25.4
74
0
49
-12.7
74
0
49
0
74
0
49
-12.7
74
0
0
LTYPE
5
41
330
5
100
AcDbSymbolTableRecord
100
AcDbLinetypeTableRecord
2
CENTER
70
0
3
Center ____ _ ____ _ ____ _ ____ _ ____ _ ____
72
65
73
4
40
50.8
49
31.75
74
0
49
-6.35
74
0
49
6.35
74
0
49
-6.35
74
0
0
LTYPE
5
42
330
5
100
AcDbSymbolTableRecord
100
AcDbLinetypeTableRecord
2
CENTER2
70
0
3
Center (.5x) ___ _ ___ _ ___ _ ___ _ ___ _ ___
72
65
73
4
40
28.575
49
19.05
74
0
49
-3.175
74
0
49
3.175
74
0
49
-3.175
74
0
0
LTYPE
5
43
330
5
100
AcDbSymbolTableRecord
100
AcDbLinetypeTableRecord
2
CENTERX2
70
0
3
Center (2x) ________  __  ________  __  _____
72
65
73
4
40
101.6
49
63.5
74
0
49
-12.7
74
0
49
12.7
74
0
49
-12.7
74
0
0
ENDTAB
0
TABLE
2
LAYER
5
2
330
0
100
AcDbSymbolTable
70
1
0
LAYER
5
10
330
2
100
AcDbSymbolTableRecord
100
AcDbLayerTableRecord
2
0
70
0
62
7
6
CONTINUOUS
370
0
390
F
0
LAYER
5
44
330
2
100
AcDbSymbolTableRecord
100
AcDbLayerTableRecord
2
Panel
70
0
62
1
6
CONTINUOUS
370
0
390
F
0
LAYER
5
45
330
2
100
AcDbSymbolTableRecord
100
AcDbLayerTableRecord
2
Engraving
70
0
62
7
6
CONTINUOUS
370
0
390
F
0
ENDTAB
0
TABLE
2
STYLE
5
3
330
0
100
AcDbSymbolTable
70
3
0
STYLE
5
46
330
2
100
AcDbSymbolTableRecord
100
AcDbTextStyleTableRecord
2
Standard
70
0
40
0
41
1
50
0
71
0
42
1
3
txt
4

0
ENDTAB
0
TABLE
2
VIEW
5
6
330
0
100
AcDbSymbolTable
70
0
0
ENDTAB
0
TABLE
2
UCS
5
7
330
0
100
AcDbSymbolTable
70
0
0
ENDTAB
0
TABLE
2
APPID
5
9
330
0
100
AcDbSymbolTable
70
1
0
APPID
5
12
330
9
100
AcDbSymbolTableRecord
100
AcDbRegAppTableRecord
2
ACAD
70
0
0
ENDTAB
0
TABLE
2
DIMSTYLE
5
A
330
0
100
AcDbSymbolTable
70
1
100
AcDbDimStyleTable
71
1
0
DIMSTYLE
105
47
330
A
100
AcDbSymbolTableRecord
100
AcDbDimStyleTableRecord
2
Standard
70
0
40
1
41
2.5
42
0.625
43
0.38
44
1.25
45
0
46
0
47
0
48
0
140
2.5
141
0.09
142
0
143
25.4
144
1
145
0
146
1
147
0.625
148
0
71
0
72
0
73
0
74
1
75
0
76
0
77
0
78
0
79
0
170
0
171
2
172
0
173
0
174
0
175
0
176
0
177
0
178
0
179
0
271
4
272
4
273
2
274
2
275
0
276
0
277
2
278
46
279
0
280
0
281
0
282
0
283
1
284
0
285
0
286
0
288
0
289
3
340
Standard
341

371
-2
372
-2
0
ENDTAB
0
TABLE
2
BLOCK_RECORD
5
1
330
0
100
AcDbSymbolTable
70
2
0
BLOCK_RECORD
5
1F
330
1
100
AcDbSymbolTableRecord
100
AcDbBlockTableRecord
2
*Model_Space
70
0
280
1
281
0
0
BLOCK_RECORD
5
1E
330
1
100
AcDbSymbolTableRecord
100
AcDbBlockTableRecord
2
*Paper_Space
70
0
280
1
281
0
0
ENDTAB
0
ENDSEC
0
SECTION
2
BLOCKS
0
BLOCK
5
20
330
1F
100
AcDbEntity
8
0
100
AcDbBlockBegin
2
*Model_Space
70
0
10
0
20
0
30
0
3
*Model_Space
1

0
ENDBLK
5
21
330
1F
100
AcDbEntity
8
0
100
AcDbBlockEnd
0
BLOCK
5
1C
330
1B
100
AcDbEntity
8
0
100
AcDbBlockBegin
2
*Paper_Space
70
0
10
0
20
0
30
0
3
*Paper_Space
1

0
ENDBLK
5
1D
330
1F
100
AcDbEntity
8
0
100
AcDbBlockEnd
0
ENDSEC
0
SECTION
2
ENTITIES
0
LINE
5
48
100
AcDbEntity
8
Panel
6
ByLayer
62
256
370
-1
100
AcDbLine
10
110
20
0
11
10
21
0
0
LINE
5
49
100
AcDbEntity
8
Panel
6
ByLayer
62
256
370
-1
100
AcDbLine
10
110
20
-1.66533453694e-16
11
110.6
21
-1.66533453694e-16
0
LINE
5
4A
100
AcDbEntity
8
Panel
6
ByLayer
62
256
370
-1
100
AcDbLine
10
110.6
20
-1.66533453694e-16
11
110.6
21
3
0
LINE
5
4B
100
AcDbEntity
8
Panel
6
ByLayer
62
256
370
-1
100
AcDbLine
10
110.6
20
3
11
110
21
3
0
LINE
5
4C
100
AcDbEntity
8
Panel
6
ByLayer
62
256
370
-1
100
AcDbLine
10
10
20
0
11
9.4
21
0
0
LINE
5
4D
100
AcDbEntity
8
Panel
6
ByLayer
62
256
370
-1
100
AcDbLine
10
9.4
20
0
11
9.4
21
3
0
LINE
5
4E
100
AcDbEntity
8
Panel
6
ByLayer
62
256
370
-1
100
AcDbLine
10
9.4
20
3
11
10
21
3
0
LINE
5
4F
100
AcDbEntity
8
Panel
6
ByLayer
62
256
370
-1
100
AcDbLine
10
10
20
110
11
110
21
110
0
LINE
5
50
100
AcDbEntity
8
Panel
6
ByLayer
62
256
370
-1
100
AcDbLine
10
7
20
110
11
10
21
110
0
LINE
5
51
100
AcDbEntity
8
Panel
6
ByLayer
62
256
370
-1
100
AcDbLine
10
10
20
107
11
7
21
107
0
LINE
5
52
100
AcDbEntity
8
Panel
6
ByLayer
62
256
370
-1
100
AcDbLine
10
7
20
107
11
7
21
110
0
LINE
5
53
100
AcDbEntity
8
Panel
6
ByLayer
62
256
370
-1
100
AcDbLine
10
110
20
110
11
113
21
110
0
LINE
5
54
100
AcDbEntity
8
Panel
6
ByLayer
62
256
370
-1
100
AcDbLine
10
113
20
110
11
113
21
107
0
LINE
5
55
100
AcDbEntity
8
Panel
6
ByLayer
62
256
370
-1
100
AcDbLine
10
113
20
107
11
110
21
107
0
LINE
5
56
100
AcDbEntity
8
Panel
6
ByLayer
62
256
370
-1
100
AcDbLine
10
110
20
107
11
110
21
3
0
LINE
5
57
100
AcDbEntity
8
Panel
6
ByLayer
62
256
370
-1
100
AcDbLine
10
10
20
3
11
10
21
107
0
LWPOLYLINE
5
58
100
AcDbEntity
8
Engraving
6
ByLayer
62
256
370
-1
100
AcDbPolyline
90
3057
70
1
43
0
10
41.5732744993
20
61.3061656945
10
41.5688883088
20
61.7079891914
10
41.5647283537
20
62.1143404071
10
41.5608046923
20
62.5244484423
10
41.5571273824
20
62.9375423977
10
41.5537064823
20
63.3528513738
10
41.55055205
20
63.7696044711
10
41.5476741436
20
64.1870307904
10
41.5450828211
20
64.6043594322
10
41.5427881405
20
65.0208194972
10
41.5408001601
20
65.4356400858
10
41.5391289378
20
65.8480502987
10
41.5377845318
20
66.2572792366
10
41.536777
20
66.662556
10
41.521085
20
74.234885
10
42.073578
20
75.356947
10
42.1287977656
20
75.4672394938
10
42.1841223079
20
75.5739062801
10
42.2397386244
20
75.6771314453
10
42.2958337123
20
75.777099076
10
42.3525945689
20
75.8739932586
10
42.4102081917
20
75.9679980796
10
42.468861578
20
76.0592976254
10
42.5287417252
20
76.1480759826
10
42.5900356305
20
76.2345172375
10
42.6529302913
20
76.3188054767
10
42.717612705
20
76.4011247866
10
42.784269869
20
76.4816592538
10
42.8530887805
20
76.5605929646
10
42.9242564369
20
76.6381100055
10
42.9979598356
20
76.714394463
10
43.074385974
20
76.7896304236
10
43.1537218492
20
76.8640019737
10
43.2361544589
20
76.9376931999
10
43.3218708001
20
77.0108881885
10
43.4110578704
20
77.083771026
10
43.5039026671
20
77.156525799
10
43.6005921874
20
77.2293365939
10
43.7013134289
20
77.3023874971
10
43.8062533887
20
77.3758625952
10
43.9155990642
20
77.4499459745
10
44.0295374529
20
77.5248217216
10
44.148255552
20
77.600673923
10
44.271940359
20
77.677686665
10
44.400778871
20
77.7560440342
10
44.5349580856
20
77.835930117
10
44.674665
20
77.917529
10
44.7557894894
20
77.9650550464
10
44.8324864244
20
78.0111364388
10
44.9047514241
20
78.0557654763
10
44.9725801079
20
78.098934458
10
45.0359680951
20
78.1406356832
10
45.0949110048
20
78.180861451
10
45.1494044565
20
78.2196040605
10
45.1994440694
20
78.2568558109
10
45.2450254627
20
78.2926090013
10
45.2861442558
20
78.326855931
10
45.3227960679
20
78.3595888989
10
45.3549765184
20
78.3908002043
10
45.3826812264
20
78.4204821464
10
45.4059058113
20
78.4486270242
10
45.4246458924
20
78.475227137
10
45.4388970889
20
78.5002747839
10
45.4486550201
20
78.523762264
10
45.4539153053
20
78.5456818765
10
45.4546735638
20
78.5660259205
10
45.4509254149
20
78.5847866953
10
45.4426664778
20
78.6019564998
10
45.4298923718
20
78.6175276334
10
45.4125987163
20
78.6314923951
10
45.3907811304
20
78.6438430841
10
45.3644352335
20
78.6545719996
10
45.3335566448
20
78.6636714406
10
45.2981409837
20
78.6711337064
10
45.2581838693
20
78.6769510961
10
45.2136809211
20
78.6811159088
10
45.1646277582
20
78.6836204437
10
45.11102
20
78.684457
10
45.0910454098
20
78.6850632657
10
45.069759815
20
78.6868616107
10
45.0472289957
20
78.6898213565
10
45.0235187321
20
78.6939118249
10
44.9986948041
20
78.6991023375
10
44.9728229919
20
78.7053622161
10
44.9459690755
20
78.7126607822
10
44.918198835
20
78.7209673576
10
44.8895780504
20
78.730251264
10
44.8601725018
20
78.7404818229
10
44.8300479693
20
78.7516283562
10
44.7992702329
20
78.7636601854
10
44.7679050727
20
78.7765466322
10
44.7360182689
20
78.7902570184
10
44.7036756014
20
78.8047606655
10
44.6709428503
20
78.8200268953
10
44.6378857956
20
78.8360250295
10
44.6045702176
20
78.8527243896
10
44.5710618961
20
78.8700942974
10
44.5374266114
20
78.8881040746
10
44.5037301434
20
78.9067230428
10
44.4700382722
20
78.9259205237
10
44.436416778
20
78.945665839
10
44.4029314406
20
78.9659283104
10
44.3696480403
20
78.9866772595
10
44.3366323572
20
79.007882008
10
44.3039501711
20
79.0295118775
10
44.2716672623
20
79.0515361898
10
44.2398494108
20
79.0739242666
10
44.2085623967
20
79.0966454294
10
44.177872
20
79.119669
10
44.1273756777
20
79.1583533416
10
44.0799995503
20
79.1950870167
10
44.0356667805
20
79.2300660978
10
43.9943005312
20
79.2634866571
10
43.9558239649
20
79.2955447672
10
43.9201602443
20
79.3264365003
10
43.8872325322
20
79.3563579287
10
43.8569639913
20
79.385505125
10
43.8292777842
20
79.4140741614
10
43.8040970737
20
79.4422611104
10
43.7813450224
20
79.4702620442
10
43.7609447931
20
79.4982730353
10
43.7428195485
20
79.5264901561
10
43.7268924512
20
79.5551094788
10
43.713086664
20
79.5843270759
10
43.7013253495
20
79.6143390198
10
43.6915316705
20
79.6453413828
10
43.6836287897
20
79.6775302373
10
43.6775398697
20
79.7111016556
10
43.6731880733
20
79.7462517102
10
43.6704965632
20
79.7831764734
10
43.669388502
20
79.8220720176
10
43.6697870524
20
79.8631344151
10
43.6716153773
20
79.9065597383
10
43.6747966392
20
79.9525440596
10
43.6792540008
20
80.0012834513
10
43.6849106249
20
80.0529739859
10
43.6916896742
20
80.1078117357
10
43.6995143113
20
80.1659927731
10
43.708307699
20
80.2277131704
10
43.717993
20
80.293169
10
43.828706
20
81.031457
10
42.42261
20
80.913908
10
42.3474050048
20
80.9076828949
10
42.2715646
20
80.9015264246
10
42.1952293992
20
80.8954472112
10
42.1185400158
20
80.8894538772
10
42.041637063
20
80.8835550447
10
41.9646611544
20
80.8777593361
10
41.8877529034
20
80.8720753736
10
41.8110529233
20
80.8665117794
10
41.7347018276
20
80.8610771759
10
41.6588402296
20
80.8557801852
10
41.5836087428
20
80.8506294298
10
41.5091479806
20
80.8456335317
10
41.4355985564
20
80.8408011134
10
41.3631010835
20
80.8361407971
10
41.2917961755
20
80.831661205
10
41.2218244457
20
80.8273709594
10
41.1533265075
20
80.8232786826
10
41.0864429743
20
80.8193929969
10
41.0213144596
20
80.8157225245
10
40.9580815767
20
80.8122758876
10
40.896884939
20
80.8090617086
10
40.8378651599
20
80.8060886098
10
40.781162853
20
80.8033652133
10
40.7269186315
20
80.8009001415
10
40.6752731088
20
80.7987020166
10
40.6263668985
20
80.796779461
10
40.5803406138
20
80.7951410968
10
40.5373348682
20
80.7937955463
10
40.4974902751
20
80.7927514318
10
40.4609474479
20
80.7920173757
10
40.427847
20
80.791602
10
40.3748157419
20
80.7912634189
10
40.3250724586
20
80.7912016463
10
40.2785162738
20
80.791520284
10
40.2350463111
20
80.7923229334
10
40.194561694
20
80.7937131962
10
40.1569615463
20
80.7957946738
10
40.1221449916
20
80.7986709678
10
40.0900111535
20
80.8024456798
10
40.0604591556
20
80.8072224113
10
40.0333881215
20
80.8131047639
10
40.0086971749
20
80.8201963392
10
39.9862854394
20
80.8286007387
10
39.9660520386
20
80.8384215639
10
39.9478960962
20
80.8497624165
10
39.9317167358
20
80.862726898
10
39.917413081
20
80.8774186098
10
39.9048842555
20
80.8939411537
10
39.8940293828
20
80.9123981312
10
39.8847475866
20
80.9328931437
10
39.8769379906
20
80.955529793
10
39.8704997183
20
80.9804116804
10
39.8653318934
20
81.0076424076
10
39.8613336395
20
81.0373255762
10
39.8584040802
20
81.0695647877
10
39.8564423392
20
81.1044636436
10
39.8553475401
20
81.1421257456
10
39.8550188065
20
81.1826546951
10
39.8553552621
20
81.2261540937
10
39.8562560304
20
81.272727543
10
39.8576202352
20
81.3224786446
10
39.859347
20
81.375511
10
39.8608477761
20
81.4077526089
10
39.8631878707
20
81.4417478921
10
39.8663439008
20
81.4773996955
10
39.8702924835
20
81.5146108651
10
39.875010236
20
81.5532842468
10
39.8804737754
20
81.5933226866
10
39.8866597187
20
81.6346290305
10
39.8935446831
20
81.6771061244
10
39.9011052856
20
81.7206568143
10
39.9093181433
20
81.7651839462
10
39.9181598734
20
81.8105903659
10
39.9276070929
20
81.8567789196
10
39.937636419
20
81.903652453
10
39.9482244687
20
81.9511138123
10
39.9593478592
20
81.9990658432
10
39.9709832075
20
82.0474113919
10
39.9831071307
20
82.0960533043
10
39.995696246
20
82.1448944263
10
40.0087271704
20
82.1938376038
10
40.022176521
20
82.242785683
10
40.036020915
20
82.2916415096
10
40.0502369694
20
82.3403079297
10
40.0648013013
20
82.3886877892
10
40.0796905279
20
82.4366839341
10
40.0948812662
20
82.4841992104
10
40.1103501334
20
82.5311364639
10
40.1260737464
20
82.5773985408
10
40.1420287225
20
82.6228882868
10
40.1581916788
20
82.6675085481
10
40.1745392322
20
82.7111621705
10
40.191048
20
82.753752
10
40.2073821676
20
82.7956681988
10
40.2232118112
20
82.8373238439
10
40.2385223837
20
82.8786558637
10
40.2532993383
20
82.9196011863
10
40.2675281281
20
82.9600967399
10
40.281194206
20
83.0000794527
10
40.2942830251
20
83.0394862529
10
40.3067800385
20
83.0782540687
10
40.3186706993
20
83.1163198283
10
40.3299404605
20
83.1536204599
10
40.3405747751
20
83.1900928918
10
40.3505590962
20
83.225674052
10
40.3598788769
20
83.2603008689
10
40.3685195703
20
83.2939102706
10
40.3764666293
20
83.3264391852
10
40.383705507
20
83.3578245411
10
40.3902216566
20
83.3880032664
10
40.396000531
20
83.4169122893
10
40.4010275833
20
83.444488538
10
40.4052882665
20
83.4706689407
10
40.4087680338
20
83.4953904256
10
40.4114523382
20
83.5185899209
10
40.4133266326
20
83.5402043548
10
40.4143763703
20
83.5601706556
10
40.4145870042
20
83.5784257513
10
40.4139439874
20
83.5949065702
10
40.412432773
20
83.6095500406
10
40.410038814
20
83.6222930905
10
40.4067475635
20
83.6330726483
10
40.4025444744
20
83.641825642
10
40.397415
20
83.648489
10
40.3908966834
20
83.6535650114
10
40.3825735392
20
83.6576098964
10
40.3725013079
20
83.6606408993
10
40.36073573
20
83.6626752642
10
40.3473325461
20
83.6637302351
10
40.3323474966
20
83.6638230563
10
40.3158363221
20
83.6629709718
10
40.2978547631
20
83.6611912258
10
40.2784585602
20
83.6585010624
10
40.2577034539
20
83.6549177258
10
40.2356451847
20
83.6504584601
10
40.212339493
20
83.6451405094
10
40.1878421196
20
83.6389811179
10
40.1622088048
20
83.6319975296
10
40.1354952892
20
83.6242069888
10
40.1077573133
20
83.6156267396
10
40.0790506177
20
83.606274026
10
40.0494309429
20
83.5961660923
10
40.0189540293
20
83.5853201826
10
39.9876756176
20
83.573753541
10
39.9556514483
20
83.5614834116
10
39.9229372618
20
83.5485270385
10
39.8895887988
20
83.534901666
10
39.8556617996
20
83.5206245381
10
39.821212005
20
83.505712899
10
39.7862951553
20
83.4901839928
10
39.7509669911
20
83.4740550636
10
39.715283253
20
83.4573433556
10
39.6792996814
20
83.4400661129
10
39.6430720169
20
83.4222405797
10
39.606656
20
83.403884
10
39.5327272686
20
83.3647763493
10
39.4611061845
20
83.3240403987
10
39.391763735
20
83.2816292637
10
39.3246709077
20
83.2374960596
10
39.2597986901
20
83.1915939018
10
39.1971180696
20
83.1438759057
10
39.1366000336
20
83.0942951866
10
39.0782155698
20
83.0428048599
10
39.0219356655
20
82.9893580409
10
38.9677313083
20
82.9339078451
10
38.9155734856
20
82.8764073878
10
38.8654331849
20
82.8168097844
10
38.8172813937
20
82.7550681503
10
38.7710890995
20
82.6911356008
10
38.7268272897
20
82.6249652512
10
38.6844669518
20
82.556510217
10
38.6439790733
20
82.4857236136
10
38.6053346417
20
82.4125585563
10
38.5685046444
20
82.3369681604
10
38.533460069
20
82.2589055414
10
38.5001719029
20
82.1783238146
10
38.4686111336
20
82.0951760954
10
38.4387487486
20
82.0094154991
10
38.4105557354
20
81.9209951412
10
38.3840030813
20
81.829868137
10
38.359061774
20
81.7359876018
10
38.3357028009
20
81.6393066511
10
38.3138971495
20
81.5397784002
10
38.2936158072
20
81.4373559645
10
38.2748297615
20
81.3319924593
10
38.25751
20
81.223641
10
38.140706
20
80.45046
10
37.859215
20
80.979909
10
37.8440764903
20
81.0090200873
10
37.828647878
20
81.0399305746
10
37.8129615058
20
81.0725473646
10
37.7970497164
20
81.1067773598
10
37.7809448525
20
81.142527463
10
37.7646792568
20
81.1797045766
10
37.7482852721
20
81.2182156033
10
37.731795241
20
81.2579674458
10
37.7152415064
20
81.2988670067
10
37.6986564108
20
81.3408211886
10
37.6820722971
20
81.3837368941
10
37.665521508
20
81.4275210258
10
37.6490363862
20
81.4720804864
10
37.6326492743
20
81.5173221784
10
37.6163925152
20
81.5631530046
10
37.6002984515
20
81.6094798674
10
37.584399426
20
81.6562096697
10
37.5687277814
20
81.7032493139
10
37.5533158604
20
81.7505057026
10
37.5381960057
20
81.7978857386
10
37.52340056
20
81.8452963244
10
37.5089618662
20
81.8926443627
10
37.4949122668
20
81.939836756
10
37.4812841046
20
81.9867804071
10
37.4681097224
20
82.0333822184
10
37.4554214628
20
82.0795490927
10
37.4432516686
20
82.1251879326
10
37.4316326825
20
82.1702056406
10
37.4205968472
20
82.2145091194
10
37.4101765055
20
82.2580052717
10
37.400404
20
82.300601
10
37.3904344197
20
82.3432315514
10
37.3794302631
20
82.3868302375
10
37.3674338258
20
82.4313022189
10
37.3544874034
20
82.4765526564
10
37.3406332917
20
82.5224867106
10
37.3259137863
20
82.5690095422
10
37.3103711828
20
82.616026312
10
37.294047777
20
82.6634421805
10
37.2769858644
20
82.7111623085
10
37.2592277407
20
82.7590918566
10
37.2408157016
20
82.8071359856
10
37.2217920428
20
82.8551998562
10
37.2021990599
20
82.9031886289
10
37.1820790486
20
82.9510074646
10
37.1614743044
20
82.9985615238
10
37.1404271232
20
83.0457559673
10
37.1189798005
20
83.0924959558
10
37.0971746321
20
83.13868665
10
37.0750539135
20
83.1842332104
10
37.0526599404
20
83.2290407979
10
37.0300350085
20
83.2730145731
10
37.0072214134
20
83.3160596967
10
36.9842614509
20
83.3580813294
10
36.9611974165
20
83.3989846318
10
36.938071606
20
83.4386747647
10
36.9149263149
20
83.4770568888
10
36.891803839
20
83.5140361646
10
36.8687464739
20
83.549517753
10
36.8457965153
20
83.5834068145
10
36.8229962587
20
83.61560851
10
36.800388
20
83.646028
10
36.7379035466
20
83.7293398597
10
36.6789307181
20
83.810887333
10
36.6234500863
20
83.8907830036
10
36.5714422232
20
83.969139455
10
36.5228877006
20
84.0460692707
10
36.4777670903
20
84.1216850342
10
36.4360609641
20
84.1960993291
10
36.397749894
20
84.2694247389
10
36.3628144517
20
84.3417738471
10
36.3312352092
20
84.4132592373
10
36.3029927383
20
84.483993493
10
36.2780676107
20
84.5540891977
10
36.2564403985
20
84.6236589349
10
36.2380916734
20
84.6928152883
10
36.2230020073
20
84.7616708413
10
36.2111519719
20
84.8303381774
10
36.2025221393
20
84.8989298803
10
36.1970930812
20
84.9675585333
10
36.1948453695
20
85.0363367201
10
36.195759576
20
85.1053770242
10
36.1998162726
20
85.1747920291
10
36.2069960311
20
85.2446943184
10
36.2172794234
20
85.3151964755
10
36.2306470213
20
85.386411084
10
36.2470793967
20
85.4584507275
10
36.2665571215
20
85.5314279895
10
36.2890607674
20
85.6054554534
10
36.3145709064
20
85.6806457029
10
36.3430681102
20
85.7571113215
10
36.3745329508
20
85.8349648927
10
36.408946
20
85.914319
10
36.4584375189
20
86.0260036064
10
36.5036754416
20
86.1307440821
10
36.5445113333
20
86.2286184444
10
36.580796759
20
86.3197047102
10
36.6123832837
20
86.4040808967
10
36.6391224728
20
86.4818250211
10
36.6608658911
20
86.5530151004
10
36.6774651039
20
86.6177291518
10
36.6887716762
20
86.6760451924
10
36.6946371732
20
86.7280412393
10
36.6949131599
20
86.7737953096
10
36.6894512014
20
86.8133854205
10
36.6781028629
20
86.846889589
10
36.6607197095
20
86.8743858323
10
36.6371533062
20
86.8959521676
10
36.6072552182
20
86.9116666118
10
36.5708770106
20
86.9216071822
10
36.5278702484
20
86.9258518959
10
36.4780864968
20
86.92447877
10
36.4213773209
20
86.9175658215
10
36.3575942857
20
86.9051910677
10
36.2865889565
20
86.8874325256
10
36.2082128982
20
86.8643682124
10
36.122317676
20
86.8360761452
10
36.028754855
20
86.802634341
10
35.9273760003
20
86.7641208171
10
35.818032677
20
86.7206135905
10
35.7005764503
20
86.6721906784
10
35.5748588851
20
86.6189300979
10
35.4407315466
20
86.560909866
10
35.298046
20
86.498208
10
35.2468113742
20
86.4756717116
10
35.1960821136
20
86.453598989
10
35.1459306591
20
86.4320156918
10
35.0964294519
20
86.4109476791
10
35.047650933
20
86.3904208104
10
34.9996675436
20
86.3704609451
10
34.9525517245
20
86.3510939424
10
34.9063759171
20
86.3323456617
10
34.8612125623
20
86.3142419624
10
34.8171341011
20
86.2968087039
10
34.7742129747
20
86.2800717455
10
34.7325216242
20
86.2640569465
10
34.6921324906
20
86.2487901663
10
34.6531180149
20
86.2342972642
10
34.6155506383
20
86.2206040997
10
34.5795028018
20
86.207736532
10
34.5450469466
20
86.1957204205
10
34.5122555136
20
86.1845816246
10
34.481200944
20
86.1743460036
10
34.4519556788
20
86.1650394169
10
34.424592159
20
86.1566877238
10
34.3991828259
20
86.1493167837
10
34.3758001204
20
86.1429524559
10
34.3545164836
20
86.1376205998
10
34.3354043566
20
86.1333470747
10
34.3185361804
20
86.1301577401
10
34.3039843962
20
86.1280784551
10
34.2918214449
20
86.1271350793
10
34.2821197678
20
86.127353472
10
34.2749518058
20
86.1287594924
10
34.27039
20
86.131379
10
34.2681073362
20
86.1352808138
10
34.2677002942
20
86.1404906842
10
34.2691259757
20
86.1469695773
10
34.272341482
20
86.154678459
10
34.2773039148
20
86.1635782956
10
34.2839703755
20
86.173630053
10
34.2922979659
20
86.1847946973
10
34.3022437872
20
86.1970331946
10
34.3137649413
20
86.210306511
10
34.3268185294
20
86.2245756124
10
34.3413616533
20
86.239801465
10
34.3573514144
20
86.2559450348
10
34.3747449143
20
86.272967288
10
34.3934992545
20
86.2908291905
10
34.4135715365
20
86.3094917084
10
34.434918862
20
86.3289158078
10
34.4574983324
20
86.3490624547
10
34.4812670493
20
86.3698926153
10
34.5061821142
20
86.3913672555
10
34.5322006287
20
86.4134473414
10
34.5592796943
20
86.4360938392
10
34.5873764125
20
86.4592677148
10
34.616447885
20
86.4829299344
10
34.6464512131
20
86.507041464
10
34.6773434985
20
86.5315632696
10
34.7090818428
20
86.5564563173
10
34.7416233474
20
86.5816815732
10
34.7749251138
20
86.6072000034
10
34.8089442437
20
86.6329725739
10
34.8436378386
20
86.6589602507
10
34.878963
20
86.685124
10
34.9143153665
20
86.7115260394
10
34.9490902295
20
86.7382205484
10
34.9832432989
20
86.7651564355
10
35.0167302845
20
86.7922826095
10
35.0495068961
20
86.8195479791
10
35.0815288437
20
86.8469014528
10
35.112751837
20
86.8742919394
10
35.143131586
20
86.9016683475
10
35.1726238003
20
86.9289795858
10
35.20118419
20
86.9561745629
10
35.2287684647
20
86.9832021876
10
35.2553323345
20
87.0100113684
10
35.2808315091
20
87.0365510141
10
35.3052216983
20
87.0627700332
10
35.3284586121
20
87.0886173346
10
35.3504979602
20
87.1140418267
10
35.3712954526
20
87.1389924184
10
35.3908067989
20
87.1634180182
10
35.4089877092
20
87.1872675348
10
35.4257938932
20
87.2104898769
10
35.4411810608
20
87.2330339532
10
35.4551049219
20
87.2548486723
10
35.4675211862
20
87.2758829428
10
35.4783855636
20
87.2960856735
10
35.487653764
20
87.315405773
10
35.4952814972
20
87.33379215
10
35.5012244731
20
87.3511937131
10
35.5054384014
20
87.367559371
10
35.5078789921
20
87.3828380323
10
35.5085019551
20
87.3969786058
10
35.507263
20
87.40993
10
35.5037032317
20
87.4226914682
10
35.4974426183
20
87.4362692417
10
35.4885542939
20
87.4506218256
10
35.4771113926
20
87.4657077251
10
35.4631870485
20
87.4814854453
10
35.4468543958
20
87.4979134913
10
35.4281865685
20
87.5149503682
10
35.4072567006
20
87.5325545811
10
35.3841379265
20
87.5506846352
10
35.35890338
20
87.5692990356
10
35.3316261953
20
87.5883562874
10
35.3023795066
20
87.6078148957
10
35.2712364479
20
87.6276333656
10
35.2382701533
20
87.6477702023
10
35.2035537569
20
87.6681839109
10
35.1671603929
20
87.6888329965
10
35.1291631953
20
87.7096759642
10
35.0896352982
20
87.7306713191
10
35.0486498358
20
87.7517775663
10
35.006279942
20
87.772953211
10
34.9625987511
20
87.7941567583
10
34.9176793972
20
87.8153467134
10
34.8715950142
20
87.8364815812
10
34.8244187364
20
87.857519867
10
34.7762236979
20
87.8784200759
10
34.7270830326
20
87.8991407129
10
34.6770698748
20
87.9196402832
10
34.6262573586
20
87.939877292
10
34.5747186179
20
87.9598102443
10
34.522526787
20
87.9793976453
10
34.469755
20
87.998598
10
34.4169321722
20
88.0178052423
10
34.3645889413
20
88.037413834
10
34.3128010252
20
88.0573819113
10
34.2616441414
20
88.0776676104
10
34.2111940077
20
88.0982290674
10
34.1615263419
20
88.1190244185
10
34.1127168615
20
88.1400117998
10
34.0648412843
20
88.1611493475
10
34.017975328
20
88.1823951976
10
33.9721947103
20
88.2037074864
10
33.9275751489
20
88.22504435
10
33.8841923615
20
88.2463639246
10
33.8421220658
20
88.2676243463
10
33.8014399794
20
88.2887837512
10
33.7622218202
20
88.3098002755
10
33.7245433057
20
88.3306320554
10
33.6884801538
20
88.3512372269
10
33.654108082
20
88.3715739264
10
33.6215028081
20
88.3916002898
10
33.5907400498
20
88.4112744533
10
33.5618955249
20
88.4305545531
10
33.5350449509
20
88.4493987254
10
33.5102640456
20
88.4677651062
10
33.4876285266
20
88.4856118318
10
33.4672141118
20
88.5028970383
10
33.4490965188
20
88.5195788618
10
33.4333514652
20
88.5356154385
10
33.4200546689
20
88.5509649045
10
33.4092818474
20
88.565585396
10
33.4011087186
20
88.5794350491
10
33.395611
20
88.592472
10
33.3903565548
20
88.6091632736
10
33.3858539652
20
88.6249010713
10
33.382114995
20
88.6396901002
10
33.3791514083
20
88.6535350675
10
33.376974969
20
88.6664406805
10
33.375597441
20
88.6784116463
10
33.3750305883
20
88.6894526721
10
33.3752861749
20
88.6995684651
10
33.3763759647
20
88.7087637325
10
33.3783117217
20
88.7170431816
10
33.3811052098
20
88.7244115194
10
33.384768193
20
88.7308734532
10
33.3893124352
20
88.7364336902
10
33.3947497004
20
88.7410969375
10
33.4010917526
20
88.7448679025
10
33.4083503556
20
88.7477512921
10
33.4165372736
20
88.7497518138
10
33.4256642703
20
88.7508741745
10
33.4357431098
20
88.7511230817
10
33.4467855561
20
88.7505032423
10
33.458803373
20
88.7490193637
10
33.4718083246
20
88.746676153
10
33.4858121747
20
88.7434783174
10
33.5008266874
20
88.7394305641
10
33.5168636266
20
88.7345376003
10
33.5339347563
20
88.7288041333
10
33.5520518404
20
88.7222348701
10
33.5712266429
20
88.7148345179
10
33.5914709276
20
88.7066077841
10
33.6127964587
20
88.6975593757
10
33.635215
20
88.687694
10
33.7079037013
20
88.6572466642
10
33.7844561467
20
88.6291051908
10
33.8647083319
20
88.6032643807
10
33.9484962529
20
88.5797190349
10
34.0356559053
20
88.5584639545
10
34.1260232851
20
88.5394939404
10
34.2194343881
20
88.5228037935
10
34.3157252102
20
88.5083883149
10
34.4147317471
20
88.4962423056
10
34.5162899948
20
88.4863605664
10
34.620235949
20
88.4787378985
10
34.7264056056
20
88.4733691027
10
34.8346349605
20
88.4702489801
10
34.9447600094
20
88.4693723316
10
35.0566167482
20
88.4707339582
10
35.1700411727
20
88.4743286609
10
35.2848692789
20
88.4801512407
10
35.4009370624
20
88.4881964986
10
35.5180805192
20
88.4984592355
10
35.6361356452
20
88.5109342524
10
35.754938436
20
88.5256163503
10
35.8743248876
20
88.5425003302
10
35.9941309958
20
88.5615809931
10
36.1141927565
20
88.5828531399
10
36.2343461654
20
88.6063115716
10
36.3544272185
20
88.6319510892
10
36.4742719115
20
88.6597664937
10
36.5937162404
20
88.689752586
10
36.7125962008
20
88.7219041672
10
36.8307477888
20
88.7562160382
10
36.948007
20
88.792683
10
37.0872142891
20
88.8391169621
10
37.2230628699
20
88.8878419479
10
37.3556170057
20
88.9389164126
10
37.4849409602
20
88.9923988119
10
37.6110989967
20
89.0483476011
10
37.7341553789
20
89.1068212356
10
37.8541743702
20
89.1678781709
10
37.9712202341
20
89.2315768624
10
38.0853572341
20
89.2979757657
10
38.1966496337
20
89.367133336
10
38.3051616964
20
89.4391080289
10
38.4109576858
20
89.5139582998
10
38.5141018653
20
89.5917426041
10
38.6146584984
20
89.6725193973
10
38.7126918486
20
89.7563471348
10
38.8082661795
20
89.8432842721
10
38.9014457545
20
89.9333892645
10
38.9922948371
20
90.0267205676
10
39.0808776909
20
90.1233366367
10
39.1672585793
20
90.2232959274
10
39.2515017659
20
90.326656895
10
39.3336715141
20
90.433477995
10
39.4138320875
20
90.5438176828
10
39.4920477495
20
90.6577344139
10
39.5683827636
20
90.7752866437
10
39.6429013935
20
90.8965328277
10
39.7156679025
20
91.0215314212
10
39.7867465541
20
91.1503408798
10
39.8562016119
20
91.2830196588
10
39.9240973394
20
91.4196262137
10
39.990498
20
91.560219
10
40.0154155312
20
91.6141824964
10
40.0411040873
20
91.6695406587
10
40.0675031281
20
91.7261692227
10
40.0945521134
20
91.783943924
10
40.1221905031
20
91.8427404984
10
40.150357757
20
91.9024346816
10
40.178993335
20
91.9629022092
10
40.2080366969
20
92.0240188169
10
40.2374273025
20
92.0856602404
10
40.2671046117
20
92.1477022154
10
40.2970080843
20
92.2100204776
10
40.3270771802
20
92.2724907627
10
40.3572513591
20
92.3349888065
10
40.3874700809
20
92.3973903444
10
40.4176728055
20
92.4595711124
10
40.4477989926
20
92.521406846
10
40.4777881022
20
92.582773281
10
40.5075795941
20
92.643546153
10
40.5371129281
20
92.7036011977
10
40.566327564
20
92.7628141509
10
40.5951629616
20
92.8210607482
10
40.6235585809
20
92.8782167253
10
40.6514538816
20
92.9341578179
10
40.6787883237
20
92.9887597617
10
40.7055013668
20
93.0418982924
10
40.7315324709
20
93.0934491457
10
40.7568210958
20
93.1432880572
10
40.7813067013
20
93.1912907627
10
40.8049287473
20
93.2373329979
10
40.8276266936
20
93.2812904984
10
40.84934
20
93.323039
10
40.8709265468
20
93.3654948214
10
40.893249061
20
93.4115504205
10
40.9162534019
20
93.4610457414
10
40.9398854286
20
93.5138207282
10
40.9640910005
20
93.5697153251
10
40.9888159766
20
93.6285694762
10
41.0140062163
20
93.6902231257
10
41.0396075788
20
93.7545162177
10
41.0655659232
20
93.8212886964
10
41.0918271089
20
93.8903805058
10
41.1183369949
20
93.9616315902
10
41.1450414406
20
94.0348818938
10
41.1718863051
20
94.1099713605
10
41.1988174477
20
94.1867399346
10
41.2257807276
20
94.2650275603
10
41.252722004
20
94.3446741816
10
41.2795871361
20
94.4255197428
10
41.3063219831
20
94.5074041879
10
41.3328724044
20
94.5901674611
10
41.359184259
20
94.6736495065
10
41.3852034062
20
94.7576902684
10
41.4108757053
20
94.8421296907
10
41.4361470154
20
94.9268077178
10
41.4609631957
20
95.0115642937
10
41.4852701056
20
95.0962393625
10
41.5090136041
20
95.1806728685
10
41.5321395506
20
95.2647047557
10
41.5545938042
20
95.3481749683
10
41.5763222241
20
95.4309234505
10
41.5972706697
20
95.5127901463
10
41.617385
20
95.593615
10
41.6932122297
20
95.8881095071
10
41.7760561303
20
96.1819459954
10
41.8658103735
20
96.4749573348
10
41.9623686312
20
96.7669763951
10
42.0656245752
20
97.0578360461
10
42.1754718774
20
97.3473691578
10
42.2918042097
20
97.6354086
10
42.4145152439
20
97.9217872426
10
42.5434986518
20
98.2063379554
10
42.6786481053
20
98.4888936083
10
42.8198572762
20
98.7692870711
10
42.9670198364
20
99.0473512138
10
43.1200294578
20
99.322918906
10
43.2787798121
20
99.5958230179
10
43.4431645712
20
99.8658964191
10
43.613077407
20
100.132971979
10
43.7884119913
20
100.396882569
10
43.9690619959
20
100.657461058
10
44.1549210928
20
100.914540315
10
44.3458829537
20
101.167953211
10
44.5418412506
20
101.417532615
10
44.7426896552
20
101.663111398
10
44.9483218393
20
101.90452243
10
45.158631475
20
102.141598579
10
45.3735122339
20
102.374172716
10
45.592857788
20
102.602077711
10
45.816561809
20
102.825146434
10
46.0445179689
20
103.043211755
10
46.2766199394
20
103.256106543
10
46.5127613925
20
103.463663668
10
46.752836
20
103.665716
10
46.9122832937
20
103.79731814
10
47.0606812488
20
103.920037619
10
47.1992105244
20
104.034181733
10
47.3290517799
20
104.140057779
10
47.4513856746
20
104.237973054
10
47.5673928676
20
104.328234855
10
47.6782540182
20
104.411150478
10
47.7851497858
20
104.487027221
10
47.8892608295
20
104.55617238
10
47.9917678086
20
104.618893253
10
48.0938513824
20
104.675497135
10
48.1966922101
20
104.726291324
10
48.3014709511
20
104.771583117
10
48.4093682644
20
104.81167981
10
48.5215648095
20
104.846888701
10
48.6392412456
20
104.877517085
10
48.7635782319
20
104.903872261
10
48.8957564277
20
104.926261524
10
49.0369564923
20
104.944992172
10
49.1883590848
20
104.960371502
10
49.3511448647
20
104.97270681
10
49.526494491
20
104.982305393
10
49.7155886232
20
104.989474548
10
49.9196079204
20
104.994521572
10
50.1397330419
20
104.997753761
10
50.377144647
20
104.999478413
10
50.6330233949
20
105.000002825
10
50.9085499449
20
104.999634292
10
51.2049049562
20
104.998680113
10
51.5232690882
20
104.997447583
10
51.864823
20
104.996244
10
52.2313570733
20
104.994227615
10
52.594257291
20
104.990456244
10
52.953253456
20
104.984954436
10
53.3080753714
20
104.977746738
10
53.6584528402
20
104.9688577
10
54.0041156655
20
104.958311869
10
54.3447936503
20
104.946133794
10
54.6802165975
20
104.932348022
10
55.0101143103
20
104.916979102
10
55.3342165917
20
104.900051582
10
55.6522532446
20
104.881590011
10
55.9639540722
20
104.861618936
10
56.2690488774
20
104.840162906
10
56.5672674633
20
104.817246469
10
56.8583396329
20
104.792894174
10
57.1419951892
20
104.767130567
10
57.4179639352
20
104.739980199
10
57.6859756741
20
104.711467616
10
57.9457602088
20
104.681617368
10
58.1970473423
20
104.650454002
10
58.4395668776
20
104.618002066
10
58.6730486179
20
104.584286109
10
58.8972223661
20
104.54933068
10
59.1118179252
20
104.513160325
10
59.3165650983
20
104.475799594
10
59.5111936884
20
104.437273034
10
59.6954334985
20
104.397605195
10
59.8690143317
20
104.356820623
10
60.031665991
20
104.314943868
10
60.1831182794
20
104.271999478
10
60.323101
20
104.228012
10
60.4817512679
20
104.172935713
10
60.6421551679
20
104.112417106
10
60.8041583448
20
104.046570271
10
60.9676064431
20
103.975509302
10
61.1323451076
20
103.899348291
10
61.2982199829
20
103.81820133
10
61.4650767137
20
103.732182512
10
61.6327609445
20
103.641405928
10
61.8011183202
20
103.545985672
10
61.9699944853
20
103.446035836
10
62.1392350845
20
103.341670512
10
62.3086857624
20
103.233003794
10
62.4781921637
20
103.120149772
10
62.6475999331
20
103.00322254
10
62.8167547152
20
102.88233619
10
62.9855021547
20
102.757604815
10
63.1536878962
20
102.629142507
10
63.3211575845
20
102.497063358
10
63.4877568641
20
102.361481461
10
63.6533313796
20
102.222510909
10
63.8177267759
20
102.080265794
10
63.9807886975
20
101.934860207
10
64.1423627891
20
101.786408243
10
64.3022946953
20
101.635023992
10
64.4604300608
20
101.480821548
10
64.6166145303
20
101.323915003
10
64.7706937483
20
101.16441845
10
64.9225133597
20
101.00244598
10
65.071919009
20
100.838111687
10
65.2187563409
20
100.671529663
10
65.362871
20
100.502814
10
65.432453816
20
100.419563829
10
65.5022863663
20
100.335070811
10
65.5722469662
20
100.24950403
10
65.6422139305
20
100.163032569
10
65.7120655745
20
100.07582551
10
65.7816802132
20
99.9880519371
10
65.8509361616
20
99.8998809323
10
65.9197117347
20
99.8114815788
10
65.9878852477
20
99.7230229597
10
66.0553350156
20
99.6346741578
10
66.1219393535
20
99.5466042561
10
66.1875765764
20
99.4589823376
10
66.2521249995
20
99.3719774851
10
66.3154629376
20
99.2857587817
10
66.377468706
20
99.2004953103
10
66.4380206197
20
99.1163561538
10
66.4969969937
20
99.0335103952
10
66.5542761431
20
98.9521271174
10
66.609736383
20
98.8723754033
10
66.6632560284
20
98.794424336
10
66.7147133943
20
98.7184429983
10
66.763986796
20
98.6446004732
10
66.8109545483
20
98.5730658437
10
66.8554949664
20
98.5040081926
10
66.8974863654
20
98.437596603
10
66.9368070602
20
98.3740001577
10
66.973335366
20
98.3133879397
10
67.0069495978
20
98.2559290321
10
67.0375280707
20
98.2017925176
10
67.0649490998
20
98.1511474792
10
67.089091
20
98.104163
10
67.163716721
20
97.9465500535
10
67.2363505973
20
97.777282113
10
67.3070162472
20
97.5961837203
10
67.375737289
20
97.4030794172
10
67.4425373412
20
97.1977937455
10
67.507440022
20
96.9801512472
10
67.5704689498
20
96.749976464
10
67.6316477429
20
96.5070939378
10
67.6910000197
20
96.2513282104
10
67.7485493985
20
95.9825038237
10
67.8043194977
20
95.7004453196
10
67.8583339355
20
95.4049772397
10
67.9106163304
20
95.0959241261
10
67.9611903007
20
94.7731105205
10
68.0100794646
20
94.4363609648
10
68.0573074407
20
94.0855000008
10
68.1028978471
20
93.7203521704
10
68.1468743023
20
93.3407420154
10
68.1892604245
20
92.9464940776
10
68.2300798322
20
92.537432899
10
68.2693561436
20
92.1133830212
10
68.3071129772
20
91.6741689862
10
68.3433739512
20
91.2196153359
10
68.3781626839
20
90.749546612
10
68.4115027938
20
90.2637873563
10
68.4434178992
20
89.7621621109
10
68.4739316184
20
89.2444954174
10
68.5030675697
20
88.7106118177
10
68.5308493715
20
88.1603358537
10
68.5573006422
20
87.5934920672
10
68.582445
20
87.009905
10
68.665966
20
84.991613
10
68.105376
20
86.168951
10
68.0455711616
20
86.2945857401
10
67.9896442046
20
86.4117180573
10
67.9374000465
20
86.520121258
10
67.8886436052
20
86.6195686488
10
67.8431797985
20
86.7098335362
10
67.8008135439
20
86.7906892266
10
67.7613497593
20
86.8619090266
10
67.7245933623
20
86.9232662426
10
67.6903492707
20
86.9745341812
10
67.6584224023
20
87.0154861489
10
67.6286176747
20
87.0458954521
10
67.6007400056
20
87.0655353974
10
67.5745943129
20
87.0741792913
10
67.5499855142
20
87.0716004403
10
67.5267185273
20
87.0575721509
10
67.5045982698
20
87.0318677295
10
67.4834296596
20
86.9942604827
10
67.4630176142
20
86.944523717
10
67.4431670516
20
86.8824307389
10
67.4236828893
20
86.8077548549
10
67.4043700452
20
86.7202693714
10
67.3850334369
20
86.6197475951
10
67.3654779821
20
86.5059628323
10
67.3455085987
20
86.3786883897
10
67.3249302043
20
86.2376975736
10
67.3035477166
20
86.0827636907
10
67.2811660534
20
85.9136600473
10
67.2575901325
20
85.7301599501
10
67.2326248714
20
85.5320367054
10
67.206075188
20
85.3190636199
10
67.177746
20
85.091014
10
67.1500710617
20
84.8693859753
10
67.1242009449
20
84.6626524743
10
67.100381052
20
84.4700845828
10
67.0788567851
20
84.2909533865
10
67.0598735466
20
84.1245299711
10
67.0436767385
20
83.9700854222
10
67.0305117633
20
83.8268908257
10
67.020624023
20
83.694217267
10
67.01425892
20
83.5713358321
10
67.0116618565
20
83.4575176065
10
67.0130782346
20
83.3520336759
10
67.0187534567
20
83.2541551261
10
67.028932925
20
83.1631530428
10
67.0438620418
20
83.0782985116
10
67.0637862091
20
82.9988626182
10
67.0889508294
20
82.9241164484
10
67.1196013048
20
82.8533310878
10
67.1559830375
20
82.7857776222
10
67.1983414298
20
82.7207271372
10
67.246921884
20
82.6574507185
10
67.3019698022
20
82.5952194518
10
67.3637305868
20
82.5333044229
10
67.4324496398
20
82.4709767174
10
67.5083723637
20
82.407507421
10
67.5917441605
20
82.3421676194
10
67.6828104326
20
82.2742283983
10
67.7818165822
20
82.2029608434
10
67.8890080115
20
82.1276360405
10
68.0046301227
20
82.0475250751
10
68.1289283181
20
81.9618990331
10
68.262148
20
81.870029
10
68.3783256116
20
81.7885157931
10
68.4919432504
20
81.7064088432
10
68.6028866713
20
81.6238409629
10
68.7110416289
20
81.540944965
10
68.8162938779
20
81.457853662
10
68.918529173
20
81.3746998666
10
69.0176332689
20
81.2916163916
10
69.1134919202
20
81.2087360495
10
69.2059908817
20
81.126191653
10
69.2950159081
20
81.0441160149
10
69.380452754
20
80.9626419476
10
69.4621871741
20
80.881902264
10
69.5401049232
20
80.8020297766
10
69.6140917558
20
80.7231572982
10
69.6840334268
20
80.6454176414
10
69.7498156908
20
80.5689436188
10
69.8113243024
20
80.4938680431
10
69.8684450165
20
80.420323727
10
69.9210635876
20
80.3484434831
10
69.9690657705
20
80.2783601242
10
70.0123373198
20
80.2102064628
10
70.0507639903
20
80.1441153116
10
70.0842315366
20
80.0802194833
10
70.1126257134
20
80.0186517905
10
70.1358322755
20
79.959545046
10
70.1537369774
20
79.9030320623
10
70.166225574
20
79.8492456521
10
70.1731838198
20
79.7983186281
10
70.1744974696
20
79.750383803
10
70.1700522781
20
79.7055739894
10
70.159734
20
79.664022
10
70.1557282227
20
79.6543362981
10
70.1507268764
20
79.6462498206
10
70.1447613911
20
79.6397388327
10
70.1378631967
20
79.6347795993
10
70.1300637232
20
79.6313483855
10
70.1213944006
20
79.6294214563
10
70.1118866588
20
79.6289750769
10
70.1015719277
20
79.6299855122
10
70.0904816374
20
79.6324290273
10
70.0786472178
20
79.6362818872
10
70.0661000988
20
79.641520357
10
70.0528717104
20
79.6481207018
10
70.0389934827
20
79.6560591865
10
70.0244968455
20
79.6653120762
10
70.0094132288
20
79.675855636
10
69.9937740626
20
79.6876661309
10
69.9776107768
20
79.700719826
10
69.9609548014
20
79.7149929863
10
69.9438375663
20
79.7304618768
10
69.9262905016
20
79.7471027626
10
69.9083450372
20
79.7648919088
10
69.890032603
20
79.7838055804
10
69.871384629
20
79.8038200424
10
69.8524325452
20
79.8249115599
10
69.8332077815
20
79.847056398
10
69.8137417679
20
79.8702308216
10
69.7940659344
20
79.8944110958
10
69.7742117109
20
79.9195734858
10
69.7542105273
20
79.9456942564
10
69.7340938137
20
79.9727496728
10
69.713893
20
80.000716
10
69.6935977489
20
80.0289572319
10
69.6732012887
20
80.0568275182
10
69.6527398172
20
80.0842892284
10
69.6322495321
20
80.1113047323
10
69.6117666313
20
80.1378363994
10
69.5913273125
20
80.1638465995
10
69.5709677735
20
80.1892977021
10
69.5507242121
20
80.2141520769
10
69.5306328261
20
80.2383720936
10
69.5107298131
20
80.2619201217
10
69.4910513711
20
80.284758531
10
69.4716336978
20
80.306849691
10
69.4525129909
20
80.3281559714
10
69.4337254483
20
80.3486397419
10
69.4153072677
20
80.368263372
10
69.3972946469
20
80.3869892315
10
69.3797237837
20
80.40477969
10
69.3626308759
20
80.421597117
10
69.3460521211
20
80.4374038824
10
69.3300237173
20
80.4521623556
10
69.3145818622
20
80.4658349064
10
69.2997627535
20
80.4783839043
10
69.2856025891
20
80.4897717191
10
69.2721375667
20
80.4999607204
10
69.2594038842
20
80.5089132777
10
69.2474377391
20
80.5165917608
10
69.2362753295
20
80.5229585393
10
69.225952853
20
80.5279759828
10
69.2165065074
20
80.531606461
10
69.2079724905
20
80.5338123435
10
69.200387
20
80.534556
10
69.1932035681
20
80.5331501275
10
69.1858621631
20
80.5289799374
10
69.178378637
20
80.5221165713
10
69.1707688418
20
80.5126311706
10
69.1630486295
20
80.5005948767
10
69.1552338523
20
80.4860788309
10
69.1473403621
20
80.4691541748
10
69.1393840109
20
80.4498920497
10
69.1313806509
20
80.428363597
10
69.123346134
20
80.4046399582
10
69.1152963122
20
80.3787922747
10
69.1072470377
20
80.350891688
10
69.0992141625
20
80.3210093393
10
69.0912135385
20
80.2892163702
10
69.0832610178
20
80.255583922
10
69.0753724525
20
80.2201831362
10
69.0675636946
20
80.1830851543
10
69.0598505961
20
80.1443611175
10
69.0522490091
20
80.1040821674
10
69.0447747856
20
80.0623194453
10
69.0374437776
20
80.0191440927
10
69.0302718372
20
79.974627251
10
69.0232748164
20
79.9288400617
10
69.0164685672
20
79.881853666
10
69.0098689417
20
79.8337392055
10
69.0034917919
20
79.7845678216
10
68.9973529699
20
79.7344106556
10
68.9914683276
20
79.683338849
10
68.9858537172
20
79.6314235433
10
68.9805249907
20
79.5787358798
10
68.975498
20
79.525347
10
68.9693084203
20
79.4615854796
10
68.9623333767
20
79.3981346475
10
68.9545768642
20
79.3350076456
10
68.946042878
20
79.2722176158
10
68.936735413
20
79.2097777002
10
68.9266584642
20
79.1477010407
10
68.9158160268
20
79.0860007792
10
68.9042120957
20
79.0246900577
10
68.8918506659
20
78.9637820182
10
68.8787357325
20
78.9032898025
10
68.8648712906
20
78.8432265528
10
68.8502613351
20
78.7836054108
10
68.8349098611
20
78.7244395186
10
68.8188208636
20
78.6657420182
10
68.8019983377
20
78.6075260514
10
68.7844462783
20
78.5498047603
10
68.7661686806
20
78.4925912867
10
68.7471695395
20
78.4358987728
10
68.7274528501
20
78.3797403603
10
68.7070226074
20
78.3241291913
10
68.6858828065
20
78.2690784077
10
68.6640374423
20
78.2146011515
10
68.64149051
20
78.1607105646
10
68.6182460044
20
78.107419789
10
68.5943079208
20
78.0547419666
10
68.569680254
20
78.0026902394
10
68.5443669992
20
77.9512777494
10
68.5183721514
20
77.9005176385
10
68.4916997055
20
77.8504230487
10
68.4643536567
20
77.8010071218
10
68.436338
20
77.752283
10
67.988694
20
76.988431
10
68.529534
20
76.372451
10
68.5957349299
20
76.295234834
10
68.6610968753
20
76.2153519299
10
68.7256024083
20
76.1328403883
10
68.7892341012
20
76.04773831
10
68.8519745262
20
75.9600837955
10
68.9138062553
20
75.8699149454
10
68.9747118609
20
75.7772698605
10
69.034673915
20
75.6821866412
10
69.0936749899
20
75.5847033884
10
69.1516976578
20
75.4848582025
10
69.2087244909
20
75.3826891843
10
69.2647380612
20
75.2782344343
10
69.3197209411
20
75.1715320533
10
69.3736557027
20
75.0626201418
10
69.4265249182
20
74.9515368004
10
69.4783111598
20
74.8383201299
10
69.5289969997
20
74.7230082308
10
69.57856501
20
74.6056392038
10
69.6269977629
20
74.4862511494
10
69.6742778307
20
74.3648821685
10
69.7203877855
20
74.2415703615
10
69.7653101995
20
74.1163538291
10
69.8090276448
20
73.989270672
10
69.8515226938
20
73.8603589907
10
69.8927779185
20
73.729656886
10
69.9327758911
20
73.5972024584
10
69.9714991839
20
73.4630338086
10
70.008930369
20
73.3271890373
10
70.0450520186
20
73.1897062449
10
70.0798467048
20
73.0506235323
10
70.113297
20
72.909979
10
70.1343590599
20
72.8178140624
10
70.1541047944
20
72.7285876012
10
70.1725425357
20
72.6419954018
10
70.1896806161
20
72.5577332497
10
70.2055273679
20
72.4754969302
10
70.2200911233
20
72.394982229
10
70.2333802145
20
72.3158849313
10
70.2454029738
20
72.2379008226
10
70.2561677334
20
72.1607256883
10
70.2656828256
20
72.084055314
10
70.2739565826
20
72.007585485
10
70.2809973367
20
71.9310119867
10
70.2868134202
20
71.8540306047
10
70.2914131652
20
71.7763371243
10
70.2948049041
20
71.697627331
10
70.296996969
20
71.6175970103
10
70.2979976922
20
71.5359419475
10
70.297815406
20
71.4523579281
10
70.2964584427
20
71.3665407375
10
70.2939351343
20
71.2781861612
10
70.2902538133
20
71.1869899847
10
70.2854228119
20
71.0926479933
10
70.2794504623
20
70.9948559724
10
70.2723450967
20
70.8933097077
10
70.2641150474
20
70.7877049844
10
70.2547686467
20
70.677737588
10
70.2443142267
20
70.5631033039
10
70.2327601199
20
70.4434979177
10
70.2201146583
20
70.3186172146
10
70.2063861742
20
70.1881569803
10
70.191583
20
70.051813
10
70.1713646934
20
69.8754786899
10
70.1499780932
20
69.703574584
10
70.1273655179
20
69.5359327574
10
70.1034692858
20
69.3723852852
10
70.0782317152
20
69.2127642425
10
70.0515951245
20
69.0569017044
10
70.0235018321
20
68.9046297462
10
69.9938941563
20
68.7557804428
10
69.9627144154
20
68.6101858694
10
69.9299049278
20
68.4676781012
10
69.8954080118
20
68.3280892133
10
69.8591659859
20
68.1912512807
10
69.8211211683
20
68.0569963786
10
69.7812158774
20
67.9251565822
10
69.7393924315
20
67.7955639666
10
69.6955931491
20
67.6680506068
10
69.6497603484
20
67.542448578
10
69.6018363479
20
67.4185899554
10
69.5517634657
20
67.296306814
10
69.4994840204
20
67.175431229
10
69.4449403303
20
67.0557952755
10
69.3880747137
20
66.9372310286
10
69.3288294889
20
66.8195705635
10
69.2671469744
20
66.7026459552
10
69.2029694884
20
66.5862892789
10
69.1362393493
20
66.4703326097
10
69.0668988755
20
66.3546080228
10
68.9948903853
20
66.2389475933
10
68.9201561971
20
66.1231833962
10
68.8426386292
20
66.0071475067
10
68.76228
20
65.890672
10
68.6793903385
20
65.7719766887
10
68.6014579397
20
65.6593653264
10
68.5282999084
20
65.5522497062
10
68.4597333491
20
65.4500416209
10
68.3955753666
20
65.3521528635
10
68.3356430653
20
65.257995227
10
68.27975355
20
65.1669805043
10
68.2277239252
20
65.0785204885
10
68.1793712957
20
64.9920269723
10
68.1345127659
20
64.9069117489
10
68.0929654407
20
64.8225866112
10
68.0545464245
20
64.738463352
10
68.019072822
20
64.6539537645
10
67.9863617379
20
64.5684696414
10
67.9562302768
20
64.4814227759
10
67.9284955432
20
64.3922249608
10
67.9029746419
20
64.3002879892
10
67.8794846775
20
64.2050236539
10
67.8578427545
20
64.1058437479
10
67.8378659776
20
64.0021600642
10
67.8193714515
20
63.8933843957
10
67.8021762808
20
63.7789285355
10
67.7860975701
20
63.6582042764
10
67.770952424
20
63.5306234114
10
67.7565579472
20
63.3955977334
10
67.7427312443
20
63.2525390355
10
67.7292894199
20
63.1008591106
10
67.7160495786
20
62.9399697517
10
67.7028288251
20
62.7692827516
10
67.689444264
20
62.5882099034
10
67.675713
20
62.396163
10
67.655149952
20
62.143243894
10
67.6285359313
20
61.8800923973
10
67.5960144938
20
61.6072325646
10
67.5577291954
20
61.3251884508
10
67.513823592
20
61.0344841104
10
67.4644412395
20
60.7356435982
10
67.4097256938
20
60.429190969
10
67.3498205109
20
60.1156502774
10
67.2848692466
20
59.7955455781
10
67.2150154568
20
59.4694009259
10
67.1404026975
20
59.1377403754
10
67.0611745245
20
58.8010879815
10
66.9774744938
20
58.4599677988
10
66.8894461612
20
58.1149038819
10
66.7972330827
20
57.7664202858
10
66.7009788142
20
57.4150410649
10
66.6008269116
20
57.0612902741
10
66.4969209308
20
56.7056919681
10
66.3894044276
20
56.3487702016
10
66.2784209581
20
55.9910490293
10
66.1641140781
20
55.633052506
10
66.0466273435
20
55.2753046862
10
65.9261043102
20
54.9183296248
10
65.8026885341
20
54.5626513765
10
65.6765235711
20
54.2087939959
10
65.5477529772
20
53.8572815379
10
65.4165203083
20
53.508638057
10
65.2829691202
20
53.1633876081
10
65.1472429688
20
52.8220542458
10
65.0094854101
20
52.4851620249
10
64.86984
20
52.153235
10
64.8307096209
20
52.0609033678
10
64.7916510964
20
51.967453241
10
64.7527275714
20
51.8730656776
10
64.7140021909
20
51.7779217356
10
64.6755380996
20
51.6822024729
10
64.6373984425
20
51.5860889475
10
64.5996463646
20
51.4897622174
10
64.5623450108
20
51.3934033405
10
64.5255575259
20
51.2971933748
10
64.4893470548
20
51.2013133784
10
64.4537767425
20
51.105944409
10
64.4189097339
20
51.0112675249
10
64.3848091739
20
50.9174637838
10
64.3515382074
20
50.8247142437
10
64.3191599794
20
50.7331999627
10
64.2877376346
20
50.6431019988
10
64.257334318
20
50.5546014098
10
64.2280131747
20
50.4678792537
10
64.1998373493
20
50.3831165886
10
64.1728699869
20
50.3004944723
10
64.1471742324
20
50.2201939629
10
64.1228132306
20
50.1423961184
10
64.0998501266
20
50.0672819966
10
64.0783480651
20
49.9950326557
10
64.0583701912
20
49.9258291534
10
64.0399796496
20
49.8598525479
10
64.0232395854
20
49.7972838971
10
64.0082131434
20
49.7383042589
10
63.9949634686
20
49.6830946913
10
63.9835537058
20
49.6318362524
10
63.974047
20
49.58471
10
63.9651833051
20
49.5385245513
10
63.955680883
20
49.4900571662
10
63.9455703405
20
49.4394412858
10
63.9348822845
20
49.3868103514
10
63.9236473217
20
49.3322978042
10
63.9118960591
20
49.2760370855
10
63.8996591034
20
49.2181616365
10
63.8869670615
20
49.1588048985
10
63.8738505402
20
49.0981003126
10
63.8603401463
20
49.0361813202
10
63.8464664866
20
48.9731813625
10
63.832260168
20
48.9092338806
10
63.8177517973
20
48.844472316
10
63.8029719814
20
48.7790301097
10
63.787951327
20
48.7130407031
10
63.772720441
20
48.6466375373
10
63.7573099302
20
48.5799540537
10
63.7417504014
20
48.5131236934
10
63.7260724615
20
48.4462798977
10
63.7103067174
20
48.3795561079
10
63.6944837757
20
48.3130857651
10
63.6786342434
20
48.2470023107
10
63.6627887273
20
48.1814391858
10
63.6469778341
20
48.1165298318
10
63.6312321709
20
48.0524076897
10
63.6155823442
20
47.989206201
10
63.6000589611
20
47.9270588068
10
63.5846926283
20
47.8660989483
10
63.5695139526
20
47.8064600669
10
63.5545535409
20
47.7482756037
10
63.539842
20
47.691679
10
63.5043554756
20
47.5463863587
10
63.4719794056
20
47.394311112
10
63.4426893347
20
47.2359940824
10
63.4164608077
20
47.071976092
10
63.3932693695
20
46.9027979633
10
63.3730905649
20
46.7290005185
10
63.3558999388
20
46.55112458
10
63.341673036
20
46.3697109702
10
63.3303854012
20
46.1853005113
10
63.3220125794
20
45.9984340257
10
63.3165301153
20
45.8096523357
10
63.3139135538
20
45.6194962636
10
63.3141384398
20
45.4285066318
10
63.3171803179
20
45.2372242626
10
63.3230147332
20
45.0461899783
10
63.3316172304
20
44.8559446013
10
63.3429633543
20
44.6670289538
10
63.3570286497
20
44.4799838583
10
63.3737886616
20
44.295350137
10
63.3932189346
20
44.1136686123
10
63.4152950138
20
43.9354801065
10
63.4399924438
20
43.7613254419
10
63.4672867695
20
43.5917454408
10
63.4971535357
20
43.4272809257
10
63.5295682873
20
43.2684727187
10
63.5645065691
20
43.1158616423
10
63.6019439259
20
42.9699885188
10
63.6418559026
20
42.8313941705
10
63.6842180439
20
42.7006194197
10
63.7290058948
20
42.5782050888
10
63.776195
20
42.464692
10
63.8396167587
20
42.3247751106
10
63.9041441473
20
42.1879625516
10
63.9697299154
20
42.0543094547
10
64.0363268128
20
41.9238709516
10
64.103887589
20
41.796702174
10
64.1723649937
20
41.6728582536
10
64.2417117764
20
41.5523943221
10
64.3118806868
20
41.4353655111
10
64.3828244745
20
41.3218269523
10
64.4544958892
20
41.2118337774
10
64.5268476804
20
41.1054411181
10
64.5998325978
20
41.0027041061
10
64.673403391
20
40.903677873
10
64.7475128096
20
40.8084175506
10
64.8221136033
20
40.7169782705
10
64.8971585216
20
40.6294151644
10
64.9726003142
20
40.5457833641
10
65.0483917308
20
40.4661380011
10
65.1244855208
20
40.3905342071
10
65.2008344341
20
40.319027114
10
65.2773912201
20
40.2516718532
10
65.3541086285
20
40.1885235566
10
65.4309394089
20
40.1296373557
10
65.507836311
20
40.0750683824
10
65.5847520844
20
40.0248717682
10
65.6616394786
20
39.9791026449
10
65.7384512434
20
39.9378161441
10
65.8151401283
20
39.9010673975
10
65.8916588829
20
39.8689115369
10
65.967960257
20
39.8414036938
10
66.043997
20
39.818599
10
66.1741080331
20
39.7816971955
10
66.3109782055
20
39.7392876152
10
66.4543298364
20
39.6915136216
10
66.6038852452
20
39.6385185773
10
66.7593667511
20
39.5804458449
10
66.9204966735
20
39.5174387868
10
67.0869973315
20
39.4496407657
10
67.2585910446
20
39.3771951441
10
67.4350001321
20
39.3002452845
10
67.6159469131
20
39.2189345497
10
67.801153707
20
39.133406302
10
67.990342833
20
39.043803904
10
68.1832366106
20
38.9502707184
10
68.3795573589
20
38.8529501076
10
68.5790273973
20
38.7519854343
10
68.781369045
20
38.647520061
10
68.9863046213
20
38.5396973502
10
69.1935564456
20
38.4286606645
10
69.4028468371
20
38.3145533665
10
69.6138981151
20
38.1975188187
10
69.8264325989
20
38.0777003837
10
70.0401726078
20
37.9552414241
10
70.2548404611
20
37.8302853023
10
70.470158478
20
37.7029753811
10
70.6858489779
20
37.5734550228
10
70.9016342801
20
37.4418675901
10
71.1172367038
20
37.3083564456
10
71.3323785684
20
37.1730649517
10
71.5467821931
20
37.0361364711
10
71.7601698972
20
36.8977143664
10
71.972264
20
36.757942
10
72.2190542623
20
36.593894512
10
72.4507261673
20
36.439580679
10
72.6678642629
20
36.294473544
10
72.871053097
20
36.15804615
10
73.0608772176
20
36.0297715401
10
73.2379211726
20
35.9091227575
10
73.4027695101
20
35.7955728451
10
73.5560067779
20
35.688594846
10
73.698217524
20
35.5876618034
10
73.8299862963
20
35.4922467602
10
73.9518976429
20
35.4018227595
10
74.0645361116
20
35.3158628444
10
74.1684862504
20
35.233840058
10
74.2643326072
20
35.1552274433
10
74.3526597301
20
35.0794980434
10
74.4340521669
20
35.0061249014
10
74.5090944656
20
34.9345810603
10
74.5783711742
20
34.8643395632
10
74.6424668406
20
34.7948734532
10
74.7019660127
20
34.7256557733
10
74.7574532385
20
34.6561595666
10
74.809513066
20
34.5858578761
10
74.8587300431
20
34.514223745
10
74.9056887178
20
34.4407302163
10
74.950973638
20
34.3648503331
10
74.9951693516
20
34.2860571383
10
75.0388604067
20
34.2038236752
10
75.0826313511
20
34.1176229867
10
75.1270667328
20
34.026928116
10
75.1727510998
20
33.9312121061
10
75.220269
20
33.829948
10
75.617666
20
32.978329
10
76.649891
20
33.059544
10
76.7201226916
20
33.0646148951
10
76.7906234505
20
33.0687895066
10
76.8614474803
20
33.0720617233
10
76.9326489846
20
33.0744254344
10
77.0042821671
20
33.0758745289
10
77.0764012314
20
33.0764028957
10
77.1490603811
20
33.076004424
10
77.2223138198
20
33.0746730027
10
77.2962157511
20
33.0724025209
10
77.3708203787
20
33.0691868676
10
77.4461819061
20
33.0650199319
10
77.522354537
20
33.0598956027
10
77.5993924751
20
33.0538077691
10
77.6773499238
20
33.0467503201
10
77.7562810869
20
33.0387171447
10
77.836240168
20
33.0297021321
10
77.9172813706
20
33.0196991711
10
77.9994588985
20
33.0087021508
10
78.0828269552
20
32.9967049603
10
78.1674397443
20
32.9837014885
10
78.2533514694
20
32.9696856246
10
78.3406163342
20
32.9546512574
10
78.4292885423
20
32.9385922762
10
78.5194222974
20
32.9215025698
10
78.6110718029
20
32.9033760273
10
78.7042912626
20
32.8842065377
10
78.7991348801
20
32.8639879902
10
78.895656859
20
32.8427142736
10
78.9939114028
20
32.820379277
10
79.0939527153
20
32.7969768895
10
79.195835
20
32.772501
10
79.2782584476
20
32.7528221525
10
79.3642404264
20
32.7330118207
10
79.4535555844
20
32.7131059331
10
79.5459785694
20
32.6931404185
10
79.6412840292
20
32.6731512056
10
79.7392466118
20
32.6531742231
10
79.8396409648
20
32.6332453998
10
79.9422417363
20
32.6134006642
10
80.0468235739
20
32.5936759452
10
80.1531611257
20
32.5741071713
10
80.2610290393
20
32.5547302714
10
80.3702019628
20
32.5355811741
10
80.4804545438
20
32.5166958082
10
80.5915614303
20
32.4981101023
10
80.7032972701
20
32.4798599851
10
80.8154367111
20
32.4619813854
10
80.9277544011
20
32.4445102317
10
81.0400249879
20
32.427482453
10
81.1520231194
20
32.4109339778
10
81.2635234435
20
32.3949007348
10
81.3743006079
20
32.3794186528
10
81.4841292606
20
32.3645236605
10
81.5927840494
20
32.3502516865
10
81.7000396221
20
32.3366386596
10
81.8056706265
20
32.3237205084
10
81.9094517106
20
32.3115331617
10
82.0111575222
20
32.3001125482
10
82.110562709
20
32.2894945966
10
82.2074419191
20
32.2797152355
10
82.3015698001
20
32.2708103938
10
82.392721
20
32.262816
10
82.6458287437
20
32.2394192575
10
82.8936747041
20
32.2122409197
10
83.1361123945
20
32.1813483695
10
83.3729953282
20
32.1468089896
10
83.6041770184
20
32.1086901628
10
83.8295109784
20
32.0670592721
10
84.0488507216
20
32.0219837003
10
84.262049761
20
31.9735308301
10
84.4689616102
20
31.9217680445
10
84.6694397822
20
31.8667627262
10
84.8633377904
20
31.8085822581
10
85.0505091481
20
31.747294023
10
85.2308073685
20
31.6829654038
10
85.404085965
20
31.6156637833
10
85.5701984507
20
31.5454565443
10
85.7289983391
20
31.4724110697
10
85.8803391432
20
31.3965947422
10
86.0240743765
20
31.3180749448
10
86.1600575522
20
31.2369190602
10
86.2881421836
20
31.1531944714
10
86.4081817839
20
31.066968561
10
86.5200298664
20
30.978308712
10
86.6235399445
20
30.8872823072
10
86.7185655313
20
30.7939567295
10
86.8049601402
20
30.6983993616
10
86.8825772844
20
30.6006775864
10
86.9512704772
20
30.5008587867
10
87.0108932319
20
30.3990103454
10
87.0612990617
20
30.2951996453
10
87.10234148
20
30.1894940692
10
87.133874
20
30.081961
10
87.1398635219
20
30.058610169
10
87.1466558175
20
30.033862939
10
87.1542209653
20
30.0077928172
10
87.1625290439
20
29.980473311
10
87.1715501317
20
29.9519779276
10
87.1812543074
20
29.9223801744
10
87.1916116495
20
29.8917535586
10
87.2025922365
20
29.8601715876
10
87.214166147
20
29.8277077687
10
87.2263034596
20
29.7944356091
10
87.2389742527
20
29.7604286162
10
87.2521486049
20
29.7257602972
10
87.2657965949
20
29.6905041595
10
87.279888301
20
29.6547337104
10
87.294393802
20
29.6185224572
10
87.3092831762
20
29.5819439071
10
87.3245265023
20
29.5450715674
10
87.3400938588
20
29.5079789456
10
87.3559553243
20
29.4707395488
10
87.3720809773
20
29.4334268843
10
87.3884408963
20
29.3961144596
10
87.4050051599
20
29.3588757818
10
87.4217438467
20
29.3217843583
10
87.4386270352
20
29.2849136963
10
87.4556248039
20
29.2483373032
10
87.4727072314
20
29.2121286863
10
87.4898443963
20
29.1763613529
10
87.507006377
20
29.1411088103
10
87.5241632522
20
29.1064445657
10
87.5412851003
20
29.0724421265
10
87.558342
20
29.039175
10
87.5840392134
20
28.9901666253
10
87.6091846147
20
28.943597865
10
87.6338859424
20
28.8993919421
10
87.6582509346
20
28.8574720799
10
87.68238733
20
28.8177615015
10
87.7064028667
20
28.7801834299
10
87.7304052832
20
28.7446610882
10
87.7545023179
20
28.7111176997
10
87.7788017092
20
28.6794764875
10
87.8034111954
20
28.6496606745
10
87.8284385149
20
28.6215934841
10
87.8539914061
20
28.5951981392
10
87.8801776073
20
28.570397863
10
87.907104857
20
28.5471158787
10
87.9348808935
20
28.5252754094
10
87.9636134551
20
28.5047996781
10
87.9934102804
20
28.485611908
10
88.0243791076
20
28.4676353222
10
88.0566276751
20
28.4507931438
10
88.0902637213
20
28.4350085961
10
88.1253949846
20
28.420204902
10
88.1621292034
20
28.4063052846
10
88.200574116
20
28.3932329673
10
88.2408374608
20
28.3809111729
10
88.2830269762
20
28.3692631248
10
88.3272504005
20
28.3582120459
10
88.3736154722
20
28.3476811594
10
88.4222299296
20
28.3375936885
10
88.4732015112
20
28.3278728562
10
88.5266379552
20
28.3184418856
10
88.582647
20
28.309224
10
88.6922751478
20
28.2914140362
10
88.8008501428
20
28.2731084685
10
88.9081996835
20
28.2543536534
10
89.0141514683
20
28.2351959475
10
89.1185331957
20
28.2156817074
10
89.221172564
20
28.1958572895
10
89.3218972717
20
28.1757690505
10
89.4205350172
20
28.1554633469
10
89.516913499
20
28.1349865353
10
89.6108604155
20
28.1143849721
10
89.7022034651
20
28.093705014
10
89.7907703462
20
28.0729930175
10
89.8763887574
20
28.0522953391
10
89.958886397
20
28.0316583355
10
90.0380909634
20
28.0111283631
10
90.1138301552
20
27.9907517785
10
90.1859316706
20
27.9705749382
10
90.2542232083
20
27.9506441989
10
90.3185324664
20
27.931005917
10
90.3786871437
20
27.9117064491
10
90.4345149383
20
27.8927921517
10
90.4858435489
20
27.8743093815
10
90.5325006738
20
27.8563044949
10
90.5743140114
20
27.8388238485
10
90.6111112602
20
27.8219137989
10
90.6427201186
20
27.8056207026
10
90.6689682851
20
27.7899909162
10
90.689683458
20
27.7750707961
10
90.7046933358
20
27.7609066991
10
90.713825617
20
27.7475449815
10
90.716908
20
27.735032
10
90.7159842546
20
27.7284955123
10
90.7132441807
20
27.7212381466
10
90.7087345215
20
27.7132886936
10
90.7025020202
20
27.7046759445
10
90.6945934201
20
27.6954286903
10
90.6850554644
20
27.6855757218
10
90.6739348964
20
27.6751458301
10
90.6612784593
20
27.6641678061
10
90.6471328963
20
27.6526704409
10
90.6315449508
20
27.6406825253
10
90.6145613658
20
27.6282328505
10
90.5962288848
20
27.6153502072
10
90.5765942509
20
27.6020633867
10
90.5557042074
20
27.5884011797
10
90.5336054976
20
27.5743923773
10
90.5103448646
20
27.5600657705
10
90.4859690517
20
27.5454501502
10
90.4605248021
20
27.5305743074
10
90.4340588592
20
27.5154670331
10
90.4066179661
20
27.5001571183
10
90.3782488661
20
27.484673354
10
90.3489983024
20
27.469044531
10
90.3189130184
20
27.4532994405
10
90.2880397571
20
27.4374668734
10
90.2564252619
20
27.4215756206
10
90.2241162761
20
27.4056544731
10
90.1911595427
20
27.3897322219
10
90.1576018052
20
27.3738376581
10
90.1234898068
20
27.3579995725
10
90.0888702906
20
27.3422467561
10
90.05379
20
27.326608
10
89.9230433776
20
27.2647991249
10
89.7925835434
20
27.1950487664
10
89.662681708
20
27.1177450018
10
89.533609082
20
27.0332759086
10
89.4056368761
20
26.9420295641
10
89.2790363008
20
26.8443940457
10
89.1540785669
20
26.7407574309
10
89.031034885
20
26.6315077971
10
88.9101764656
20
26.5170332217
10
88.7917745195
20
26.397721782
10
88.6761002572
20
26.2739615555
10
88.5634248895
20
26.1461406197
10
88.4540196268
20
26.0146470518
10
88.34815568
20
25.8798689293
10
88.2461042595
20
25.7421943296
10
88.1481365761
20
25.6020113301
10
88.0545238403
20
25.4597080083
10
87.9655372629
20
25.3156724415
10
87.8814480543
20
25.1702927071
10
87.8025274254
20
25.0239568825
10
87.7290465867
20
24.8770530452
10
87.6612767487
20
24.7299692726
10
87.5994891223
20
24.583093642
10
87.543954918
20
24.4368142309
10
87.4949453464
20
24.2915191166
10
87.4527316182
20
24.1475963766
10
87.417584944
20
24.0054340883
10
87.3897765345
20
23.8654203291
10
87.3695776002
20
23.7279431764
10
87.3572593518
20
23.5933907075
10
87.353093
20
23.462151
10
87.3524174213
20
23.4379760058
10
87.3504124326
20
23.4126272257
10
87.3471106552
20
23.3861707696
10
87.3425447104
20
23.3586727474
10
87.3367472194
20
23.3301992691
10
87.3297508035
20
23.3008164447
10
87.321588084
20
23.2705903842
10
87.312291682
20
23.2395871975
10
87.301894219
20
23.2078729946
10
87.290428316
20
23.1755138854
10
87.2779265945
20
23.14257598
10
87.2644216756
20
23.1091253882
10
87.2499461807
20
23.0752282201
10
87.2345327309
20
23.0409505856
10
87.2182139476
20
23.0063585947
10
87.201022452
20
22.9715183574
10
87.1829908653
20
22.9364959836
10
87.1641518089
20
22.9013575832
10
87.144537904
20
22.8661692663
10
87.1241817718
20
22.8309971428
10
87.1031160336
20
22.7959073227
10
87.0813733107
20
22.7609659159
10
87.0589862243
20
22.7262390325
10
87.0359873958
20
22.6917927823
10
87.0124094462
20
22.6576932754
10
86.988284997
20
22.6240066216
10
86.9636466694
20
22.5907989311
10
86.9385270847
20
22.5581363137
10
86.912958864
20
22.5260848794
10
86.8869746287
20
22.4947107382
10
86.860607
20
22.46408
10
86.834148772
20
22.4333640881
10
86.8072371407
20
22.4009879476
10
86.779927298
20
22.3670438743
10
86.7522744358
20
22.3316241638
10
86.724333746
20
22.2948211121
10
86.6961604205
20
22.2567270149
10
86.6678096512
20
22.217434168
10
86.63933663
20
22.1770348672
10
86.6107965489
20
22.1356214083
10
86.5822445996
20
22.0932860871
10
86.5537359742
20
22.0501211994
10
86.5253258645
20
22.0062190409
10
86.4970694624
20
21.9616719076
10
86.4690219599
20
21.9165720951
10
86.4412385488
20
21.8710118992
10
86.413774421
20
21.8250836159
10
86.3866847685
20
21.7788795407
10
86.3600247832
20
21.7324919697
10
86.3338496568
20
21.6860131984
10
86.3082145815
20
21.6395355228
10
86.283174749
20
21.5931512386
10
86.2587853512
20
21.5469526417
10
86.2351015802
20
21.5010320277
10
86.2121786277
20
21.4554816926
10
86.1900716856
20
21.4103939321
10
86.168835946
20
21.3658610419
10
86.1485266006
20
21.321975318
10
86.1291988414
20
21.278829056
10
86.1109078603
20
21.2365145518
10
86.0937088492
20
21.1951241012
10
86.077657
20
21.15475
10
86.0619758356
20
21.114787184
10
86.0458769441
20
21.0746170954
10
86.0293967439
20
21.0343112088
10
86.0125716536
20
20.9939409986
10
85.9954380916
20
20.9535779395
10
85.9780324766
20
20.9132935059
10
85.9603912269
20
20.8731591724
10
85.9425507612
20
20.8332464135
10
85.9245474979
20
20.7936267039
10
85.9064178556
20
20.7543715179
10
85.8881982528
20
20.7155523302
10
85.869925108
20
20.6772406153
10
85.8516348396
20
20.6395078477
10
85.8333638663
20
20.602425502
10
85.8151486065
20
20.5660650527
10
85.7970254788
20
20.5304979744
10
85.7790309016
20
20.4957957415
10
85.7612012936
20
20.4620298287
10
85.7435730731
20
20.4292717104
10
85.7261826588
20
20.3975928613
10
85.709066469
20
20.3670647558
10
85.6922609225
20
20.3377588685
10
85.6758024375
20
20.3097466739
10
85.6597274328
20
20.2830996465
10
85.6440723268
20
20.257889261
10
85.6288735379
20
20.2341869918
10
85.6141674848
20
20.2120643136
10
85.599990586
20
20.1915927007
10
85.5863792599
20
20.1728436278
10
85.573369925
20
20.1558885694
10
85.560999
20
20.140799
10
85.5490326063
20
20.126335492
10
85.5372234088
20
20.1112376873
10
85.5255873512
20
20.0955453744
10
85.5141403769
20
20.0792983419
10
85.5028984294
20
20.0625363786
10
85.491877452
20
20.0452992728
10
85.4810933884
20
20.0276268133
10
85.4705621819
20
20.0095587887
10
85.4602997761
20
19.9911349874
10
85.4503221144
20
19.9723951982
10
85.4406451402
20
19.9533792096
10
85.4312847972
20
19.9341268101
10
85.4222570287
20
19.9146777885
10
85.4135777782
20
19.8950719333
10
85.4052629891
20
19.8753490331
10
85.397328605
20
19.8555488764
10
85.3897905694
20
19.8357112519
10
85.3826648257
20
19.8158759482
10
85.3759673173
20
19.7960827539
10
85.3697139877
20
19.7763714575
10
85.3639207805
20
19.7567818476
10
85.3586036391
20
19.7373537129
10
85.353778507
20
19.7181268419
10
85.3494613275
20
19.6991410233
10
85.3456680443
20
19.6804360456
10
85.3424146008
20
19.6620516974
10
85.3397169405
20
19.6440277673
10
85.3375910067
20
19.6264040439
10
85.3360527431
20
19.6092203159
10
85.335118093
20
19.5925163717
10
85.334803
20
19.576332
10
85.3272902897
20
19.4894092042
10
85.3052208266
20
19.3954087014
10
85.2692976122
20
19.2949314797
10
85.2202236481
20
19.1885785271
10
85.1587019359
20
19.0769508317
10
85.0854354772
20
18.9606493816
10
85.0011272735
20
18.8402751649
10
84.9064803264
20
18.7164291697
10
84.8021976376
20
18.5897123841
10
84.6889822085
20
18.4607257961
10
84.5675370408
20
18.3300703938
10
84.4385651359
20
18.1983471654
10
84.3027694957
20
18.0661570988
10
84.1608531214
20
17.9341011822
10
84.0135190149
20
17.8027804037
10
83.8614701776
20
17.6727957513
10
83.7054096111
20
17.5447482132
10
83.546040317
20
17.4192387773
10
83.3840652969
20
17.2968684319
10
83.2201875524
20
17.1782381649
10
83.055110085
20
17.0639489646
10
82.8895358962
20
16.9546018188
10
82.7241679878
20
16.8507977158
10
82.5597093613
20
16.7531376436
10
82.3968630181
20
16.6622225903
10
82.23633196
20
16.578653544
10
82.0788191885
20
16.5030314927
10
81.9250277052
20
16.4359574246
10
81.7756605116
20
16.3780323277
10
81.6314206093
20
16.3298571902
10
81.493011
20
16.292033
10
81.422896326
20
16.2749700772
10
81.3564464676
20
16.2582332719
10
81.2934814764
20
16.2416779483
10
81.2338214044
20
16.2251594707
10
81.1772863031
20
16.2085332031
10
81.1236962245
20
16.1916545097
10
81.0728712202
20
16.1743787548
10
81.024631342
20
16.1565613024
10
80.9787966417
20
16.1380575167
10
80.935187171
20
16.118722762
10
80.8936229817
20
16.0984124024
10
80.8539241256
20
16.076981802
10
80.8159106544
20
16.054286325
10
80.7794026198
20
16.0301813357
10
80.7442200737
20
16.0045221981
10
80.7101830678
20
15.9771642764
10
80.6771116539
20
15.9479629349
10
80.6448258836
20
15.9167735376
10
80.6131458089
20
15.8834514488
10
80.5818914814
20
15.8478520326
10
80.5508829528
20
15.8098306532
10
80.5199402751
20
15.7692426747
10
80.4888834998
20
15.7259434614
10
80.4575326789
20
15.6797883774
10
80.425707864
20
15.6306327868
10
80.3932291069
20
15.5783320539
10
80.3599164593
20
15.5227415428
10
80.3255899731
20
15.4637166177
10
80.2900697
20
15.4011126428
10
80.2531756917
20
15.3347849821
10
80.214728
20
15.264589
10
80.1905388613
20
15.2207314132
10
80.1660363095
20
15.177449871
10
80.1412682865
20
15.1348028132
10
80.116282734
20
15.0928486798
10
80.0911275938
20
15.0516459106
10
80.0658508078
20
15.0112529458
10
80.0405003177
20
14.971728225
10
80.0151240654
20
14.9331301884
10
79.9897699925
20
14.8955172758
10
79.964486041
20
14.8589479272
10
79.9393201526
20
14.8234805825
10
79.9143202691
20
14.7891736815
10
79.8895343322
20
14.7560856644
10
79.8650102839
20
14.7242749709
10
79.8407960659
20
14.6938000411
10
79.8169396199
20
14.6647193148
10
79.7934888878
20
14.637091232
10
79.7704918114
20
14.6109742326
10
79.7479963324
20
14.5864267565
10
79.7260503927
20
14.5635072438
10
79.704701934
20
14.5422741342
10
79.6839988982
20
14.5227858678
10
79.663989227
20
14.5051008844
10
79.6447208623
20
14.4892776241
10
79.6262417458
20
14.4753745267
10
79.6085998193
20
14.4634500321
10
79.5918430246
20
14.4535625804
10
79.5760193035
20
14.4457706114
10
79.5611765979
20
14.440132565
10
79.5473628495
20
14.4367068812
10
79.534626
20
14.435552
10
79.5217826194
20
14.4361704655
10
79.5076530615
20
14.438004998
10
79.4922906535
20
14.4410243012
10
79.4757487227
20
14.4451970789
10
79.4580805965
20
14.4504920347
10
79.4393396022
20
14.4568778726
10
79.4195790671
20
14.4643232963
10
79.3988523186
20
14.4727970096
10
79.3772126838
20
14.4822677161
10
79.3547134902
20
14.4927041198
10
79.331408065
20
14.5040749243
10
79.3073497356
20
14.5163488334
10
79.2825918293
20
14.5294945509
10
79.2571876734
20
14.5434807806
10
79.2311905952
20
14.5582762263
10
79.204653922
20
14.5738495916
10
79.1776309811
20
14.5901695804
10
79.1501750999
20
14.6072048965
10
79.1223396057
20
14.6249242436
10
79.0941778257
20
14.6432963255
10
79.0657430873
20
14.6622898459
10
79.0370887179
20
14.6818735086
10
79.0082680446
20
14.7020160175
10
78.9793343949
20
14.7226860762
10
78.950341096
20
14.7438523885
10
78.9213414753
20
14.7654836583
10
78.89238886
20
14.7875485892
10
78.8635365776
20
14.8100158851
10
78.8348379552
20
14.8328542496
10
78.8063463202
20
14.8560323867
10
78.778115
20
14.879519
10
78.7436578724
20
14.9081983587
10
78.7100602522
20
14.9355232203
10
78.6773151054
20
14.9614963113
10
78.6454153984
20
14.9861203584
10
78.6143540972
20
15.0093980881
10
78.5841241681
20
15.0313322271
10
78.5547185774
20
15.051925502
10
78.5261302911
20
15.0711806393
10
78.4983522755
20
15.0891003656
10
78.4713774967
20
15.1056874076
10
78.4451989211
20
15.1209444918
10
78.4198095147
20
15.1348743448
10
78.3952022438
20
15.1474796932
10
78.3713700746
20
15.1587632636
10
78.3483059733
20
15.1687277827
10
78.326002906
20
15.1773759769
10
78.304453839
20
15.184710573
10
78.2836517385
20
15.1907342974
10
78.2635895706
20
15.1954498769
10
78.2442603016
20
15.1988600379
10
78.2256568977
20
15.2009675071
10
78.207772325
20
15.2017750111
10
78.1905995497
20
15.2012852764
10
78.1741315381
20
15.1995010297
10
78.1583612564
20
15.1964249976
10
78.1432816707
20
15.1920599066
10
78.1288857473
20
15.1864084834
10
78.1151664523
20
15.1794734546
10
78.102116752
20
15.1712575466
10
78.0897296125
20
15.1617634863
10
78.077998
20
15.150994
10
78.0675072902
20
15.1372146398
10
78.0544516516
20
15.1144039927
10
78.0389123365
20
15.0828097248
10
78.0209705971
20
15.0426795023
10
78.0007076856
20
14.9942609915
10
77.9782048544
20
14.9378018586
10
77.9535433557
20
14.8735497698
10
77.9268044417
20
14.8017523912
10
77.8980693647
20
14.7226573891
10
77.8674193769
20
14.6365124297
10
77.8349357307
20
14.5435651793
10
77.8006996782
20
14.4440633039
10
77.7647924718
20
14.3382544698
10
77.7272953636
20
14.2263863433
10
77.688289606
20
14.1087065905
10
77.6478564512
20
13.9854628777
10
77.6060771515
20
13.856902871
10
77.563032959
20
13.7232742367
10
77.5188051261
20
13.584824641
10
77.4734749051
20
13.44180175
10
77.4271235482
20
13.29445323
10
77.3798323075
20
13.1430267472
10
77.3316824355
20
12.9877699678
10
77.2827551844
20
12.828930558
10
77.2331318064
20
12.6667561841
10
77.1828935537
20
12.5014945121
10
77.1321216787
20
12.3333932084
10
77.0808974335
20
12.1626999391
10
77.0293020705
20
11.9896623705
10
76.9774168419
20
11.8145281687
10
76.925323
20
11.637545
10
76.8044366499
20
11.2264543944
10
76.6881668633
20
10.8330542112
10
76.5763810194
20
10.4569701592
10
76.4689464976
20
10.0978279469
10
76.365730677
20
9.75525328304
10
76.266600937
20
9.42887187617
10
76.1714246568
20
9.11830943496
10
76.0800692157
20
8.82319166805
10
75.992401993
20
8.54314428408
10
75.908290368
20
8.27779299168
10
75.8276017199
20
8.02676349948
10
75.750203428
20
7.78968151613
10
75.6759628717
20
7.56617275026
10
75.6047474301
20
7.35586291051
10
75.5364244825
20
7.15837770552
10
75.4708614082
20
6.97334284391
10
75.4079255866
20
6.80038403434
10
75.3474843968
20
6.63912698543
10
75.2894052182
20
6.48919740583
10
75.2335554299
20
6.35022100416
10
75.1798024114
20
6.22182348907
10
75.1280135418
20
6.1036305692
10
75.0780562005
20
5.99526795317
10
75.0297977667
20
5.89636134964
10
74.9831056198
20
5.80653646722
10
74.9378471388
20
5.72541901457
10
74.8938897033
20
5.65263470031
10
74.8511006923
20
5.58780923309
10
74.8093474853
20
5.53056832154
10
74.7684974614
20
5.4805376743
10
74.728418
20
5.437343
10
74.6971120794
20
5.40692863284
10
74.664786229
20
5.37838105337
10
74.6300991228
20
5.35163083492
10
74.5917094345
20
5.3266085508
10
74.5482758379
20
5.30324477436
10
74.498457007
20
5.28147007892
10
74.4409116155
20
5.2612150378
10
74.3742983373
20
5.24241022433
10
74.2972758461
20
5.22498621184
10
74.2085028159
20
5.20887357366
10
74.1066379204
20
5.19400288312
10
73.9903398334
20
5.18030471354
10
73.8582672289
20
5.16770963825
10
73.7090787806
20
5.15614823057
10
73.5414331623
20
5.14555106384
10
73.3539890479
20
5.13584871139
10
73.1454051112
20
5.12697174653
10
72.914340026
20
5.11885074261
10
72.6594524662
20
5.11141627294
10
72.3794011056
20
5.10459891085
10
72.072844618
20
5.09832922967
10
71.7384416773
20
5.09253780273
10
71.3748509572
20
5.08715520335
10
70.9807311316
20
5.08211200487
10
70.5547408744
20
5.0773387806
10
70.0955388593
20
5.07276610389
10
69.6017837601
20
5.06832454805
10
69.0721342508
20
5.06394468642
10
68.5052490051
20
5.05955709231
10
67.8997866969
20
5.05509233906
10
67.254406
20
5.050481
10
60.115403
20
5.000003
10
60.219814
20
6.353961
10
60.2292934302
20
6.47744831087
10
60.2380434725
20
6.59319536414
10
60.2460145936
20
6.70145245373
10
60.2531572599
20
6.80246987355
10
60.259421938
20
6.89649791753
10
60.2647590943
20
6.98378687956
10
60.2691191954
20
7.06458705357
10
60.2724527078
20
7.13914873348
10
60.274710098
20
7.20772221319
10
60.2758418326
20
7.27055778661
10
60.275798378
20
7.32790574768
10
60.2745302007
20
7.38001639029
10
60.2719877674
20
7.42714000836
10
60.2681215444
20
7.46952689581
10
60.2628819984
20
7.50742734655
10
60.2562195958
20
7.54109165449
10
60.2480848031
20
7.57077011356
10
60.2384280869
20
7.59671301766
10
60.2271999137
20
7.6191706607
10
60.21435075
20
7.63839333661
10
60.1998310623
20
7.6546313393
10
60.1835913172
20
7.66813496267
10
60.1655819811
20
7.67915450065
10
60.1457535205
20
7.68794024716
10
60.1240564021
20
7.69474249609
10
60.1004410922
20
7.69981154137
10
60.0748580575
20
7.70339767692
10
60.0472577644
20
7.70575119664
10
60.0175906794
20
7.70712239445
10
59.9858072691
20
7.70776156426
10
59.951858
20
7.707919
10
59.9046945098
20
7.70864018442
10
59.8579190276
20
7.71086216941
10
59.811375584
20
7.7146726026
10
59.7649082101
20
7.72015913158
10
59.7183609365
20
7.72740940398
10
59.671577794
20
7.7365110674
10
59.6244028136
20
7.74755176946
10
59.576680026
20
7.76061915777
10
59.528253462
20
7.77580087993
10
59.4789671524
20
7.79318458357
10
59.4286651281
20
7.81285791628
10
59.3771914199
20
7.8349085257
10
59.3243900585
20
7.85942405941
10
59.2701050749
20
7.88649216505
10
59.2141804997
20
7.91620049022
10
59.1564603639
20
7.94863668252
10
59.0967886983
20
7.98388838958
10
59.0350095336
20
8.022043259
10
58.9709669006
20
8.0631889384
10
58.9045048303
20
8.10741307539
10
58.8354673533
20
8.15480331758
10
58.7636985006
20
8.20544731258
10
58.6890423028
20
8.259432708
10
58.611342791
20
8.31684715146
10
58.5304439958
20
8.37777829056
10
58.446189948
20
8.44231377292
10
58.3584246786
20
8.51054124615
10
58.2669922183
20
8.58254835786
10
58.1717365978
20
8.65842275566
10
58.0725018481
20
8.73825208717
10
57.969132
20
8.822124
10
57.9209735743
20
8.86105438988
10
57.8727298928
20
8.89947342916
10
57.8244829943
20
8.93732924484
10
57.7763149175
20
8.97456996395
10
57.7283077012
20
9.0111437135
10
57.6805433841
20
9.04699862052
10
57.6331040049
20
9.08208281202
10
57.5860716024
20
9.11634441502
10
57.5395282153
20
9.14973155654
10
57.4935558824
20
9.1821923636
10
57.4482366423
20
9.21367496321
10
57.4036525339
20
9.24412748239
10
57.3598855958
20
9.27349804817
10
57.3170178667
20
9.30173478755
10
57.2751313856
20
9.32878582757
10
57.2343081909
20
9.35459929522
10
57.1946303216
20
9.37912331755
10
57.1561798163
20
9.40230602155
10
57.1190387138
20
9.42409553426
10
57.0832890528
20
9.44443998268
10
57.049012872
20
9.46328749384
10
57.0162922103
20
9.48058619476
10
56.9852091062
20
9.49628421245
10
56.9558455986
20
9.51032967393
10
56.9282837262
20
9.52267070622
10
56.9026055277
20
9.53325543634
10
56.8788930419
20
9.54203199131
10
56.8572283075
20
9.54894849814
10
56.8376933632
20
9.55395308385
10
56.8203702478
20
9.55699387547
10
56.805341
20
9.558019
10
56.7776032319
20
9.55545359605
10
56.7462284768
20
9.54765859464
10
56.7110662033
20
9.53448581142
10
56.6719658801
20
9.51578706203
10
56.628776976
20
9.49141416213
10
56.5813489595
20
9.46121892736
10
56.5295312995
20
9.42505317337
10
56.4731734646
20
9.38276871582
10
56.4121249235
20
9.33421737035
10
56.3462351449
20
9.2792509526
10
56.2753535975
20
9.21772127824
10
56.19932975
20
9.1494801629
10
56.1180130712
20
9.07437942224
10
56.0312530296
20
8.99227087191
10
55.9388990941
20
8.90300632755
10
55.8408007332
20
8.80643760481
10
55.7368074158
20
8.70241651935
10
55.6267686104
20
8.59079488681
10
55.5105337859
20
8.47142452284
10
55.3879524108
20
8.34415724309
10
55.258873954
20
8.20884486321
10
55.123147884
20
8.06533919885
10
54.9806236697
20
7.91349206566
10
54.8311507796
20
7.75315527928
10
54.6745786825
20
7.58418065537
10
54.5107568471
20
7.40642000957
10
54.3395347421
20
7.21972515753
10
54.1607618362
20
7.02394791491
10
53.9742875981
20
6.81894009734
10
53.7799614965
20
6.60455352049
10
53.577633
20
6.38064
10
52.347104
20
5.016866
10
44.83171
20
5.036367
10
44.4337338685
20
5.03750339539
10
44.0401977468
20
5.03883232127
10
43.6516515283
20
5.04034709691
10
43.2686451063
20
5.04204104156
10
42.8917283742
20
5.04390747447
10
42.5214512252
20
5.04593971491
10
42.1583635527
20
5.04813108214
10
41.80301525
20
5.0504748954
10
41.4559562105
20
5.05296447397
10
41.1177363274
20
5.05559313709
10
40.7889054941
20
5.05835420402
10
40.4700136039
20
5.06124099402
10
40.1616105501
20
5.06424682636
10
39.8642462261
20
5.06736502027
10
39.5784705252
20
5.07058889504
10
39.3048333406
20
5.0739117699
10
39.0438845658
20
5.07732696412
10
38.796174094
20
5.08082779695
10
38.5622518186
20
5.08440758766
10
38.3426676328
20
5.0880596555
10
38.1379714301
20
5.09177731973
10
37.9487131038
20
5.0955538996
10
37.775442547
20
5.09938271438
10
37.6187096533
20
5.10325708331
10
37.4790643159
20
5.10717032567
10
37.3570564281
20
5.1111157607
10
37.2532358833
20
5.11508670766
10
37.1681525747
20
5.11907648582
10
37.1023563958
20
5.12307841442
10
37.0563972398
20
5.12708581273
10
37.030825
20
5.131092
10
37.030811
20
5.131101
10
37.0060635916
20
5.13778837518
10
36.9829870082
20
5.14443866742
10
36.9615864225
20
5.15115248159
10
36.9418670072
20
5.15803042258
10
36.9238339349
20
5.16517309526
10
36.9074923783
20
5.17268110453
10
36.8928475099
20
5.18065505525
10
36.8799045023
20
5.18919555231
10
36.8686685283
20
5.1984032006
10
36.8591447605
20
5.20837860498
10
36.8513383715
20
5.21922237035
10
36.8452545339
20
5.23103510157
10
36.8408984205
20
5.24391740354
10
36.8382752037
20
5.25796988114
10
36.8373900563
20
5.27329313924
10
36.8382481508
20
5.28998778272
10
36.84085466
20
5.30815441647
10
36.8452147564
20
5.32789364536
10
36.8513336128
20
5.34930607428
10
36.8592164016
20
5.37249230811
10
36.8688682957
20
5.39755295173
10
36.8802944675
20
5.42458861002
10
36.8935000898
20
5.45369988785
10
36.9084903351
20
5.48498739012
10
36.9252703761
20
5.51855172169
10
36.9438453855
20
5.55449348746
10
36.9642205359
20
5.5929132923
10
36.9864009999
20
5.6339117411
10
37.0103919502
20
5.67758943872
10
37.0361985593
20
5.72404699006
10
37.063826
20
5.773385
10
37.1285971077
20
5.8881420193
10
37.192292139
20
5.99986007012
10
37.254900302
20
6.10852380313
10
37.3164108043
20
6.21411786899
10
37.3768128537
20
6.31662691836
10
37.4360956582
20
6.41603560193
10
37.4942484255
20
6.51232857034
10
37.5512603634
20
6.60549047427
10
37.6071206797
20
6.69550596439
10
37.6618185823
20
6.78235969135
10
37.715343279
20
6.86603630583
10
37.7676839775
20
6.94652045849
10
37.8188298857
20
7.02379680001
10
37.8687702115
20
7.09784998103
10
37.9174941625
20
7.16866465224
10
37.9649909467
20
7.2362254643
10
38.0112497719
20
7.30051706787
10
38.0562598458
20
7.36152411362
10
38.1000103763
20
7.41923125222
10
38.1424905712
20
7.47362313434
10
38.1836896383
20
7.52468441063
10
38.2235967854
20
7.57239973176
10
38.2622012204
20
7.61675374841
10
38.299492151
20
7.65773111124
10
38.3354587851
20
7.69531647091
10
38.3700903304
20
7.7294944781
10
38.4033759949
20
7.76024978346
10
38.4353049863
20
7.78756703766
10
38.4658665124
20
7.81143089138
10
38.495049781
20
7.83182599527
10
38.522844
20
7.848737
10
38.5454022267
20
7.86157296529
10
38.5665512703
20
7.87406813961
10
38.586298547
20
7.88626285996
10
38.6046514731
20
7.89819746336
10
38.621617465
20
7.90991228683
10
38.6372039388
20
7.92144766738
10
38.6514183108
20
7.93284394203
10
38.6642679973
20
7.94414144779
10
38.6757604146
20
7.95538052167
10
38.6859029789
20
7.96660150069
10
38.6947031065
20
7.97784472186
10
38.7021682136
20
7.9891505222
10
38.7083057166
20
8.00055923873
10
38.7131230316
20
8.01211120845
10
38.7166275751
20
8.02384676839
10
38.7188267631
20
8.03580625555
10
38.719728012
20
8.04803000695
10
38.7193387381
20
8.06055835961
10
38.7176663577
20
8.07343165053
10
38.7147182869
20
8.08669021674
10
38.710501942
20
8.10037439525
10
38.7050247394
20
8.11452452308
10
38.6982940953
20
8.12918093723
10
38.6903174259
20
8.14438397472
10
38.6811021476
20
8.16017397258
10
38.6706556765
20
8.1765912678
10
38.6589854291
20
8.19367619741
10
38.6460988214
20
8.21146909842
10
38.6320032698
20
8.23001030784
10
38.6167061906
20
8.2493401627
10
38.600215
20
8.269499
10
38.5882267382
20
8.28328200047
10
38.575066787
20
8.29717591323
10
38.5607842043
20
8.3111551053
10
38.5454280477
20
8.32519394371
10
38.529047375
20
8.33926679548
10
38.5116912441
20
8.35334802763
10
38.4934087126
20
8.36741200718
10
38.4742488384
20
8.38143310117
10
38.4542606792
20
8.39538567661
10
38.4334932928
20
8.40924410053
10
38.4119957369
20
8.42298273996
10
38.3898170694
20
8.4365759619
10
38.3670063479
20
8.4499981334
10
38.3436126303
20
8.46322362146
10
38.3196849743
20
8.47622679313
10
38.2952724378
20
8.48898201541
10
38.2704240784
20
8.50146365533
10
38.2451889539
20
8.51364607992
10
38.2196161221
20
8.5255036562
10
38.1937546408
20
8.5370107512
10
38.1676535678
20
8.54814173193
10
38.1413619608
20
8.55887096543
10
38.1149288775
20
8.5691728187
10
38.0884033758
20
8.57902165879
10
38.0618345134
20
8.58839185271
10
38.0352713482
20
8.59725776748
10
38.0087629377
20
8.60559377013
10
37.9823583399
20
8.61337422769
10
37.9561066125
20
8.62057350717
10
37.9300568133
20
8.6271659756
10
37.904258
20
8.633126
10
37.8518731162
20
8.64743692739
10
37.7961413605
20
8.66811401853
10
37.7370273989
20
8.69519509167
10
37.6744958973
20
8.72871796509
10
37.608511522
20
8.76872045705
10
37.5390389389
20
8.81524038582
10
37.4660428141
20
8.86831556967
10
37.3894878136
20
8.92798382686
10
37.3093386034
20
8.99428297566
10
37.2255598495
20
9.06725083435
10
37.1381162182
20
9.14692522117
10
37.0469723752
20
9.23334395442
10
36.9520929868
20
9.32654485234
10
36.8534427189
20
9.42656573321
10
36.7509862376
20
9.53344441529
10
36.6446882089
20
9.64721871686
10
36.5345132988
20
9.76792645618
10
36.4204261735
20
9.89560545151
10
36.3023914989
20
10.0302935211
10
36.1803739411
20
10.1720284833
10
36.0543381661
20
10.3208481563
10
35.9242488399
20
10.4767903584
10
35.7900706287
20
10.6398929078
10
35.6517681984
20
10.8101936228
10
35.5093062151
20
10.9877303218
10
35.3626493448
20
11.1725408229
10
35.2117622535
20
11.3646629444
10
35.0566096074
20
11.5641345046
10
34.8971560724
20
11.7709933217
10
34.7333663146
20
11.9852772141
10
34.565205
20
12.207024
10
34.5094539111
20
12.2804293048
10
34.4538543867
20
12.352870463
10
34.3984951693
20
12.4242496634
10
34.3434650012
20
12.4944690944
10
34.2888526249
20
12.5634309447
10
34.2347467829
20
12.6310374028
10
34.1812362176
20
12.6971906574
10
34.1284096715
20
12.7617928969
10
34.0763558869
20
12.82474631
10
34.0251636063
20
12.8859530853
10
33.9749215721
20
12.9453154113
10
33.9257185269
20
13.0027354766
10
33.877643213
20
13.0581154698
10
33.8307843728
20
13.1113575795
10
33.7852307489
20
13.1623639943
10
33.7410710836
20
13.2110369027
10
33.6983941194
20
13.2572784933
10
33.6572885987
20
13.3009909547
10
33.6178432639
20
13.3420764755
10
33.5801468576
20
13.3804372443
10
33.5442881221
20
13.4159754496
10
33.5103557999
20
13.44859328
10
33.4784386334
20
13.4781929241
10
33.4486253651
20
13.5046765705
10
33.4210047373
20
13.5279464078
10
33.3956654926
20
13.5479046245
10
33.3726963734
20
13.5644534092
10
33.3521861221
20
13.5774949506
10
33.3342234811
20
13.5869314371
10
33.3188971929
20
13.5926650574
10
33.306296
20
13.594598
10
33.2815671137
20
13.5973707659
10
33.2529327282
20
13.6055916197
10
33.2205369637
20
13.6191143951
10
33.1845239401
20
13.6377929263
10
33.1450377776
20
13.6614810469
10
33.102222596
20
13.690032591
10
33.0562225156
20
13.7233013924
10
33.0071816562
20
13.7611412852
10
32.955244138
20
13.8034061031
10
32.900554081
20
13.84994968
10
32.8432556051
20
13.90062585
10
32.7834928306
20
13.9552884469
10
32.7214098773
20
14.0137913046
10
32.6571508654
20
14.0759882571
10
32.5908599148
20
14.1417331381
10
32.5226811456
20
14.2108797818
10
32.4527586778
20
14.2832820218
10
32.3812366315
20
14.3587936923
10
32.3082591268
20
14.437268627
10
32.2339702835
20
14.5185606599
10
32.1585142218
20
14.6025236249
10
32.0820350618
20
14.6890113558
10
32.0046769234
20
14.7778776868
10
31.9265839267
20
14.8689764515
10
31.8479001917
20
14.9621614839
10
31.7687698385
20
15.057286618
10
31.689336987
20
15.1542056877
10
31.6097457574
20
15.2527725268
10
31.5301402697
20
15.3528409693
10
31.4506646439
20
15.454264849
10
31.371463
20
15.556898
10
31.3116153369
20
15.6370004351
10
31.2510548144
20
15.7218260822
10
31.1899628108
20
15.810986809
10
31.1285207039
20
15.9040944831
10
31.0669098717
20
16.000760972
10
31.0053116923
20
16.1005981435
10
30.9439075436
20
16.203217865
10
30.8828788037
20
16.3082320042
10
30.8224068505
20
16.4152524288
10
30.7626730621
20
16.5238910063
10
30.7038588164
20
16.6337596043
10
30.6461454915
20
16.7444700905
10
30.5897144653
20
16.8556343324
10
30.5347471159
20
16.9668641978
10
30.4814248212
20
17.0777715541
10
30.4299289592
20
17.187968269
10
30.3804409081
20
17.2970662101
10
30.3331420456
20
17.4046772451
10
30.2882137499
20
17.5104132414
10
30.245837399
20
17.6138860669
10
30.2061943708
20
17.7147075889
10
30.1694660433
20
17.8124896753
10
30.1358337946
20
17.9068441935
10
30.1054790027
20
17.9973830112
10
30.0785830455
20
18.083717996
10
30.055327301
20
18.1654610155
10
30.0358931473
20
18.2422239373
10
30.0204619624
20
18.313618629
10
30.0092151242
20
18.3792569583
10
30.0023340107
20
18.4387507928
10
30
20
18.491712
10
30.0002406293
20
18.520507077
10
30.0010179414
20
18.5475955442
10
30.002415073
20
18.5730094495
10
30.0045151607
20
18.5967808408
10
30.007401341
20
18.6189417659
10
30.0111567506
20
18.6395242726
10
30.0158645259
20
18.6585604089
10
30.0216078037
20
18.6760822227
10
30.0284697205
20
18.6921217617
10
30.0365334128
20
18.7067110739
10
30.0458820173
20
18.7198822071
10
30.0565986705
20
18.7316672092
10
30.068766509
20
18.742098128
10
30.0824686695
20
18.7512070114
10
30.0977882884
20
18.7590259074
10
30.1148085024
20
18.7655868637
10
30.1336124481
20
18.7709219282
10
30.1542832621
20
18.7750631488
10
30.1769040808
20
18.7780425734
10
30.201558041
20
18.7798922497
10
30.2283282792
20
18.7806442258
10
30.257297932
20
18.7803305494
10
30.2885501359
20
18.7789832685
10
30.3221680277
20
18.7766344308
10
30.3582347437
20
18.7733160843
10
30.3968334207
20
18.7690602768
10
30.4380471952
20
18.7638990562
10
30.4819592038
20
18.7578644703
10
30.5286525831
20
18.7509885671
10
30.5782104696
20
18.7433033944
10
30.630716
20
18.734841
10
30.7479232204
20
18.7165698904
10
30.8663806438
20
18.6998944666
10
30.9858781068
20
18.6848059732
10
31.1062054461
20
18.6712956549
10
31.2271524983
20
18.6593547562
10
31.3485091001
20
18.6489745217
10
31.4700650881
20
18.640146196
10
31.5916102991
20
18.6328610238
10
31.7129345696
20
18.6271102496
10
31.8338277364
20
18.622885118
10
31.9540796361
20
18.6201768737
10
32.0734801054
20
18.6189767613
10
32.1918189809
20
18.6192760253
10
32.3088860993
20
18.6210659103
10
32.4244712972
20
18.6243376611
10
32.5383644114
20
18.6290825221
10
32.6503552784
20
18.6352917379
10
32.760233735
20
18.6429565533
10
32.8677896178
20
18.6520682127
10
32.9728127635
20
18.6626179608
10
33.0750930086
20
18.6745970422
10
33.17442019
20
18.6879967015
10
33.2705841442
20
18.7028081833
10
33.3633747079
20
18.7190227322
10
33.4525817178
20
18.7366315928
10
33.5379950106
20
18.7556260097
10
33.6194044228
20
18.7759972275
10
33.6965997912
20
18.7977364909
10
33.7693709524
20
18.8208350443
10
33.8375077431
20
18.8452841325
10
33.9008
20
18.871075
10
34.521878
20
19.14136
10
34.425815
20
20.287199
10
34.419636923
20
20.3647843138
10
34.4142133104
20
20.4412200472
10
34.4095482829
20
20.5165545659
10
34.4056459616
20
20.5908362353
10
34.4025104673
20
20.664113421
10
34.4001459209
20
20.7364344885
10
34.3985564434
20
20.8078478034
10
34.3977461556
20
20.8784017313
10
34.3977191785
20
20.9481446376
10
34.3984796329
20
21.017124888
10
34.4000316399
20
21.085390848
10
34.4023793202
20
21.1529908831
10
34.4055267949
20
21.2199733588
10
34.4094781847
20
21.2863866408
10
34.4142376107
20
21.3522790945
10
34.4198091937
20
21.4176990855
10
34.4261970546
20
21.4826949794
10
34.4334053144
20
21.5473151417
10
34.4414380939
20
21.611607938
10
34.4502995141
20
21.6756217337
10
34.4599936959
20
21.7394048945
10
34.4705247601
20
21.8030057859
10
34.4818968278
20
21.8664727734
10
34.4941140197
20
21.9298542226
10
34.5071804569
20
21.993198499
10
34.5211002601
20
22.0565539682
10
34.5358775504
20
22.1199689957
10
34.5515164486
20
22.1834919471
10
34.5680210757
20
22.2471711879
10
34.5853955525
20
22.3110550837
10
34.603644
20
22.375192
10
34.6181332545
20
22.4259931711
10
34.6324322109
20
22.4780267423
10
34.6465215616
20
22.531177736
10
34.6603819991
20
22.5853311747
10
34.673994216
20
22.6403720806
10
34.6873389047
20
22.6961854762
10
34.7003967577
20
22.7526563838
10
34.7131484675
20
22.8096698259
10
34.7255747266
20
22.8671108249
10
34.7376562275
20
22.9248644031
10
34.7493736627
20
22.9828155829
10
34.7607077246
20
23.0408493867
10
34.7716391058
20
23.098850837
10
34.7821484987
20
23.156704956
10
34.7922165959
20
23.2142967662
10
34.8018240898
20
23.27151129
10
34.8109516729
20
23.3282335497
10
34.8195800378
20
23.3843485678
10
34.8276898768
20
23.4397413667
10
34.8352618826
20
23.4942969686
10
34.8422767475
20
23.5479003961
10
34.8487151641
20
23.6004366715
10
34.8545578249
20
23.6517908172
10
34.8597854223
20
23.7018478555
10
34.8643786489
20
23.750492809
10
34.8683181971
20
23.7976106999
10
34.8715847595
20
23.8430865506
10
34.8741590284
20
23.8868053836
10
34.8760216965
20
23.9286522213
10
34.8771534562
20
23.9685120859
10
34.877535
20
24.00627
10
34.8778773826
20
24.0525183907
10
34.8789096695
20
24.0977376
10
34.8806395695
20
24.1419498452
10
34.8830747912
20
24.1851773433
10
34.8862230434
20
24.2274423116
10
34.8900920347
20
24.2687669673
10
34.8946894738
20
24.3091735275
10
34.9000230696
20
24.3486842094
10
34.9061005305
20
24.3873212302
10
34.9129295655
20
24.4251068071
10
34.9205178831
20
24.4620631572
10
34.9288731921
20
24.4982124978
10
34.9380032011
20
24.533577046
10
34.947915619
20
24.568179019
10
34.9586181543
20
24.6020406339
10
34.9701185158
20
24.635184108
10
34.9824244122
20
24.6676316585
10
34.9955435522
20
24.6994055024
10
35.0094836446
20
24.730527857
10
35.0242523979
20
24.7610209395
10
35.0398575209
20
24.7909069671
10
35.0563067223
20
24.8202081569
10
35.0736077109
20
24.8489467261
10
35.0917681953
20
24.8771448919
10
35.1107958842
20
24.9048248714
10
35.1306984863
20
24.9320088819
10
35.1514837103
20
24.9587191406
10
35.1731592651
20
24.9849778645
10
35.1957328591
20
25.010807271
10
35.2192122012
20
25.0362295771
10
35.243605
20
25.061267
10
35.2634658562
20
25.081568583
10
35.2840454937
20
25.1034561031
10
35.3052930643
20
25.1268563943
10
35.3271577197
20
25.1516962909
10
35.3495886117
20
25.1779026267
10
35.372534892
20
25.2054022359
10
35.3959457124
20
25.2341219527
10
35.4197702247
20
25.263988611
10
35.4439575805
20
25.2949290449
10
35.4684569318
20
25.3268700885
10
35.4932174302
20
25.3597385759
10
35.5181882274
20
25.3934613412
10
35.5433184753
20
25.4279652185
10
35.5685573256
20
25.4631770418
10
35.5938539301
20
25.4990236451
10
35.6191574404
20
25.5354318627
10
35.6444170084
20
25.5723285285
10
35.6695817859
20
25.6096404766
10
35.6946009245
20
25.6472945412
10
35.7194235761
20
25.6852175562
10
35.7439988923
20
25.7233363558
10
35.7682760251
20
25.7615777741
10
35.792204126
20
25.799868645
10
35.8157323469
20
25.8381358028
10
35.8388098395
20
25.8763060814
10
35.8613857557
20
25.914306315
10
35.883409247
20
25.9520633377
10
35.9048294654
20
25.9895039834
10
35.9255955625
20
26.0265550863
10
35.9456566901
20
26.0631434805
10
35.964962
20
26.099196
10
35.9843964036
20
26.1352154676
10
36.0048398865
20
26.1717058216
10
36.0262350827
20
26.2085955699
10
36.0485246262
20
26.2458132202
10
36.0716511508
20
26.2832872803
10
36.0955572905
20
26.3209462577
10
36.1201856792
20
26.3587186604
10
36.145478951
20
26.396532996
10
36.1713797398
20
26.4343177723
10
36.1978306795
20
26.472001497
10
36.224774404
20
26.5095126778
10
36.2521535474
20
26.5467798225
10
36.2799107435
20
26.5837314388
10
36.3079886264
20
26.6202960345
10
36.3363298299
20
26.6564021173
10
36.364876988
20
26.6919781949
10
36.3935727347
20
26.7269527751
10
36.4223597039
20
26.7612543655
10
36.4511805296
20
26.7948114741
10
36.4799778457
20
26.8275526084
10
36.5086942862
20
26.8594062762
10
36.537272485
20
26.8903009853
10
36.565655076
20
26.9201652433
10
36.5937846933
20
26.9489275581
10
36.6216039707
20
26.9765164374
10
36.6490555423
20
27.0028603888
10
36.6760820419
20
27.0278879202
10
36.7026261035
20
27.0515275393
10
36.7286303611
20
27.0737077538
10
36.7540374486
20
27.0943570715
10
36.77879
20
27.113404
10
36.8190216784
20
27.1432957293
10
36.8571245237
20
27.1712420218
10
36.8932456383
20
27.1972554698
10
36.9275321247
20
27.2213486657
10
36.9601310852
20
27.2435342017
10
36.9911896224
20
27.2638246703
10
37.0208548385
20
27.2822326636
10
37.0492738361
20
27.2987707741
10
37.0765937174
20
27.3134515941
10
37.102961585
20
27.3262877159
10
37.1285245413
20
27.3372917318
10
37.1534296886
20
27.3464762342
10
37.1778241294
20
27.3538538153
10
37.2018549661
20
27.3594370676
10
37.2256693011
20
27.3632385833
10
37.2494142369
20
27.3652709547
10
37.2732368757
20
27.3655467743
10
37.2972843201
20
27.3640786342
10
37.3217036724
20
27.3608791269
10
37.3466420352
20
27.3559608447
10
37.3722465107
20
27.3493363798
10
37.3986642014
20
27.3410183247
10
37.4260422097
20
27.3310192717
10
37.4545276381
20
27.319351813
10
37.4842675889
20
27.306028541
10
37.5154091645
20
27.291062048
10
37.5480994674
20
27.2744649264
10
37.5824856
20
27.2562497685
10
37.6187146647
20
27.2364291665
10
37.6569337639
20
27.2150157129
10
37.69729
20
27.192022
10
37.7234974134
20
27.1776738682
10
37.7530707407
20
27.1627290537
10
37.7858827098
20
27.1472262182
10
37.8218060483
20
27.1312040236
10
37.8607134841
20
27.1147011314
10
37.9024777448
20
27.0977562036
10
37.9469715582
20
27.0804079018
10
37.994067652
20
27.0626948878
10
38.043638754
20
27.0446558233
10
38.0955575919
20
27.02632937
10
38.1496968934
20
27.0077541898
10
38.2059293863
20
26.9889689442
10
38.2641277982
20
26.9700122952
10
38.324164857
20
26.9509229044
10
38.3859132904
20
26.9317394336
10
38.4492458261
20
26.9125005445
10
38.5140351919
20
26.8932448989
10
38.5801541154
20
26.8740111585
10
38.6474753245
20
26.854837985
10
38.7158715468
20
26.8357640402
10
38.7852155101
20
26.8168279859
10
38.8553799421
20
26.7980684837
10
38.9262375706
20
26.7795241955
10
38.9976611234
20
26.7612337829
10
39.069523328
20
26.7432359077
10
39.1416969124
20
26.7255692317
10
39.2140546041
20
26.7082724166
10
39.286469131
20
26.6913841241
10
39.3588132208
20
26.674943016
10
39.4309596012
20
26.6589877541
10
39.502781
20
26.643557
10
39.5746815422
20
26.62827206
10
39.6470619225
20
26.6127493217
10
39.7197908842
20
26.5970200691
10
39.7927371708
20
26.5811155862
10
39.8657695256
20
26.5650671568
10
39.9387566919
20
26.5489060649
10
40.0115674132
20
26.5326635945
10
40.0840704329
20
26.5163710295
10
40.1561344943
20
26.5000596538
10
40.2276283408
20
26.4837607515
10
40.2984207158
20
26.4675056064
10
40.3683803626
20
26.4513255024
10
40.4373760247
20
26.4352517236
10
40.5052764454
20
26.4193155539
10
40.5719503681
20
26.4035482772
10
40.6372665362
20
26.3879811775
10
40.701093693
20
26.3726455387
10
40.763300582
20
26.3575726447
10
40.8237559464
20
26.3427937796
10
40.8823285298
20
26.3283402271
10
40.9388870754
20
26.3142432714
10
40.9933003267
20
26.3005341963
10
41.045437027
20
26.2872442858
10
41.0951659197
20
26.2744048238
10
41.1423557482
20
26.2620470943
10
41.1868752559
20
26.2502023812
10
41.2285931861
20
26.2389019685
10
41.2673782823
20
26.22817714
10
41.3030992877
20
26.2180591799
10
41.3356249458
20
26.2085793719
10
41.364824
20
26.199769
10
41.4389608061
20
26.1780637579
10
41.5147530793
20
26.1580498247
10
41.5920042471
20
26.1397199227
10
41.670517737
20
26.1230667738
10
41.7500969767
20
26.1080831002
10
41.8305453937
20
26.094761624
10
41.9116664155
20
26.0830950673
10
41.9932634696
20
26.0730761521
10
42.0751399837
20
26.0646976006
10
42.1570993852
20
26.0579521348
10
42.2389451017
20
26.052832477
10
42.3204805607
20
26.049331349
10
42.4015091898
20
26.0474414732
10
42.4818344166
20
26.0471555714
10
42.5612596685
20
26.048466366
10
42.6395883731
20
26.0513665789
10
42.716623958
20
26.0558489322
10
42.7921698508
20
26.0619061481
10
42.8660294788
20
26.0695309486
10
42.9380062698
20
26.0787160558
10
43.0079036512
20
26.0894541919
10
43.0755250507
20
26.1017380789
10
43.1406738956
20
26.115560439
10
43.2031536136
20
26.1309139941
10
43.2627676323
20
26.1477914665
10
43.3193193791
20
26.1661855782
10
43.3726122817
20
26.1860890514
10
43.4224497675
20
26.207494608
10
43.4686352641
20
26.2303949703
10
43.5109721991
20
26.2547828602
10
43.549264
20
26.280651
10
43.5772067578
20
26.3018935105
10
43.6035114049
20
26.3235783136
10
43.6282236951
20
26.3460837688
10
43.6513893824
20
26.3697882353
10
43.6730542209
20
26.3950700724
10
43.6932639644
20
26.4223076394
10
43.7120643668
20
26.4518792956
10
43.7295011822
20
26.4841634004
10
43.7456201645
20
26.519538313
10
43.7604670677
20
26.5583823927
10
43.7740876457
20
26.6010739989
10
43.7865276524
20
26.6479914908
10
43.7978328418
20
26.6995132277
10
43.8080489679
20
26.756017569
10
43.8172217846
20
26.8178828739
10
43.8253970458
20
26.8854875018
10
43.8326205056
20
26.9592098119
10
43.8389379178
20
27.0394281636
10
43.8443950365
20
27.1265209161
10
43.8490376155
20
27.2208664288
10
43.8529114089
20
27.322843061
10
43.8560621705
20
27.4328291719
10
43.8585356544
20
27.5512031209
10
43.8603776144
20
27.6783432673
10
43.8616338046
20
27.8146279704
10
43.8623499789
20
27.9604355894
10
43.8625718912
20
28.1161444838
10
43.8623452956
20
28.2821330127
10
43.8617159458
20
28.4587795355
10
43.860729596
20
28.6464624115
10
43.859432
20
28.84556
10
43.856745221
20
29.1267608696
10
43.8526329171
20
29.401016753
10
43.8470193635
20
29.6688845621
10
43.8398288354
20
29.9309212086
10
43.8309856081
20
30.1876836043
10
43.8204139569
20
30.4397286611
10
43.808038157
20
30.6876132908
10
43.7937824836
20
30.9318944052
10
43.777571212
20
31.1731289161
10
43.7593286174
20
31.4118737354
10
43.7389789752
20
31.6486857748
10
43.7164465605
20
31.8841219462
10
43.6916556486
20
32.1187391615
10
43.6645305148
20
32.3530943323
10
43.6349954343
20
32.5877443706
10
43.6029746823
20
32.8232461882
10
43.5683925341
20
33.0601566968
10
43.531173265
20
33.2990328084
10
43.4912411502
20
33.5404314346
10
43.448520465
20
33.7849094874
10
43.4029354845
20
34.0330238786
10
43.3544104842
20
34.2853315199
10
43.3028697391
20
34.5423893233
10
43.2482375246
20
34.8047542004
10
43.1904381159
20
35.0729830632
10
43.1293957883
20
35.3476328234
10
43.065034817
20
35.6292603929
10
42.9972794773
20
35.9184226835
10
42.9260540444
20
36.215676607
10
42.8512827935
20
36.5215790752
10
42.77289
20
36.836687
10
42.690375473
20
37.1709585379
10
42.6092921339
20
37.5098928184
10
42.5297263774
20
37.8529177932
10
42.4517645985
20
38.199461414
10
42.3754931921
20
38.5489516326
10
42.300998553
20
38.9008164007
10
42.2283670761
20
39.25448367
10
42.1576851564
20
39.6093813923
10
42.0890391886
20
39.9649375192
10
42.0225155678
20
40.3205800026
10
41.9582006887
20
40.6757367941
10
41.8961809463
20
41.0298358455
10
41.8365427354
20
41.3823051085
10
41.7793724509
20
41.7325725348
10
41.7247564877
20
42.0800660762
10
41.6727812407
20
42.4242136844
10
41.6235331048
20
42.7644433112
10
41.5770984748
20
43.1001829082
10
41.5335637457
20
43.4308604271
10
41.4930153123
20
43.7559038198
10
41.4555395696
20
44.074741038
10
41.4212229123
20
44.3868000333
10
41.3901517354
20
44.6915087576
10
41.3624124338
20
44.9882951625
10
41.3380914023
20
45.2765871997
10
41.3172750358
20
45.5558128211
10
41.3000497293
20
45.8253999783
10
41.2865018775
20
46.084776623
10
41.2767178755
20
46.3333707071
10
41.270784118
20
46.5706101822
10
41.268787
20
46.795923
10
41.2691614581
20
46.8922461072
10
41.2702722006
20
46.9925373434
10
41.27210028
20
47.0965380968
10
41.2746267486
20
47.2039897555
10
41.2778326589
20
47.3146337076
10
41.2816990632
20
47.4282113413
10
41.286207014
20
47.5444640447
10
41.2913375636
20
47.663133206
10
41.2970717644
20
47.7839602133
10
41.3033906689
20
47.9066864547
10
41.3102753294
20
48.0310533184
10
41.3177067983
20
48.1568021925
10
41.3256661281
20
48.2836744651
10
41.3341343711
20
48.4114115245
10
41.3430925797
20
48.5397547586
10
41.3525218064
20
48.6684455557
10
41.3624031034
20
48.7972253039
10
41.3727175233
20
48.9258353913
10
41.3834461184
20
49.054017206
10
41.3945699412
20
49.1815121363
10
41.4060700439
20
49.3080615702
10
41.4179274791
20
49.4334068959
10
41.4301232991
20
49.5572895016
10
41.4426385562
20
49.6794507752
10
41.455454303
20
49.7996321051
10
41.4685515919
20
49.9175748793
10
41.4819114751
20
50.033020486
10
41.4955150051
20
50.1457103132
10
41.5093432343
20
50.2553857492
10
41.5233772152
20
50.3617881821
10
41.537598
20
50.464659
10
41.5579339249
20
50.6109020301
10
41.5771051742
20
50.7544823707
10
41.5951235409
20
50.895837478
10
41.6120008175
20
51.0354048083
10
41.6277487969
20
51.1736218178
10
41.6423792718
20
51.3109259626
10
41.655904035
20
51.4477546991
10
41.6683348792
20
51.5845454833
10
41.6796835972
20
51.7217357715
10
41.6899619817
20
51.85976302
10
41.6991818256
20
51.9990646849
10
41.7073549215
20
52.1400782224
10
41.7144930622
20
52.2832410889
10
41.7206080405
20
52.4289907403
10
41.7257116491
20
52.5777646331
10
41.7298156808
20
52.7300002233
10
41.7329319283
20
52.8861349673
10
41.7350721844
20
53.0466063211
10
41.7362482419
20
53.2118517411
10
41.7364718935
20
53.3823086835
10
41.7357549319
20
53.5584146043
10
41.7341091499
20
53.74060696
10
41.7315463404
20
53.9293232066
10
41.7280782959
20
54.1250008004
10
41.7237168094
20
54.3280771976
10
41.7184736735
20
54.5389898544
10
41.7123606809
20
54.758176227
10
41.7053896246
20
54.9860737717
10
41.6975722971
20
55.2231199446
10
41.6889204914
20
55.469752202
10
41.679446
20
55.726408
10
41.6727075005
20
55.9149087592
10
41.6660141912
20
56.1218134265
10
41.6593761302
20
56.3463511025
10
41.6528033756
20
56.5877508879
10
41.6463059854
20
56.8452418831
10
41.6398940177
20
57.1180531887
10
41.6335775306
20
57.4054139055
10
41.6273665822
20
57.706553134
10
41.6212712305
20
58.0206999748
10
41.6153015336
20
58.3470835285
10
41.6094675495
20
58.6849328957
10
41.6037793364
20
59.033477177
10
41.5982469523
20
59.391945473
10
41.5928804552
20
59.7595668843
10
41.5876899034
20
60.1355705115
10
41.5826853547
20
60.5191854552
10
41.5778768673
20
60.909640816
0
ENDSEC
0
SECTION
2
OBJECTS
0
DICTIONARY
5
C
330
0
100
AcDbDictionary
281
1
3
ACAD_GROUP
350
D
0
DICTIONARY
5
D
330
C
100
AcDbDictionary
281
1
0
ENDSEC
0
EOF
