999
dxfrw 0.5.10
0
SECTION
2
HEADER
9
$ACADVER
1
AC1021
9
$HANDSEED
5
20000
9
$DWGCODEPAGE
3
ANSI_1252
9
$INSBASE
10
0
20
0
30
0
9
$EXTMIN
10
7
20
-1.66533453694e-16
30
0
9
$EXTMAX
10
113
20
110
30
0
9
$LIMMIN
10
0
20
0
9
$LIMMAX
10
420
20
297
9
$ORTHOMODE
70
0
9
$LTSCALE
40
1
9
$TEXTSTYLE
7
STANDARD
9
$CLAYER
8
Engraving
9
$DIMASZ
40
2.5
9
$DIMLFAC
40
1
9
$DIMSCALE
40
1
9
$DIMEXO
40
0.625
9
$DIMEXE
40
1.25
9
$DIMTXT
40
2.5
9
$DIMTSZ
40
0
9
$DIMAUNIT
70
0
9
$DIMADEC
70
0
9
$DIMLUNIT
70
2
9
$DIMSTYLE
2
STANDARD
9
$DIMGAP
40
0.625
9
$DIMTIH
70
0
9
$LUNITS
70
2
9
$LUPREC
70
4
9
$AUNITS
70
0
9
$AUPREC
70
2
9
$SPLINESEGS
70
8
9
$GRIDMODE
70
1
9
$SNAPSTYLE
70
0
9
$PINSBASE
10
0
20
0
30
0
9
$PLIMMIN
10
0
20
0
9
$PLIMMAX
10
210
20
297
9
$INSUNITS
70
4
9
$PSVPSCALE
40
1
0
ENDSEC
0
SECTION
2
CLASSES
0
ENDSEC
0
SECTION
2
TABLES
0
TABLE
2
VPORT
5
8
330
0
100
AcDbSymbolTable
70
1
0
VPORT
5
31
330
2
100
AcDbSymbolTableRecord
100
AcDbViewportTableRecord
2
*ACTIVE
70
0
10
0
20
0
11
1
21
1
12
76.7739726027
22
55.7534246575
13
0
23
0
14
10
24
10
15
10
25
10
16
0
26
0
36
1
17
0
27
0
37
0
40
113.01369863
41
1.65333333333
42
50
43
0
44
0
50
0
51
0
71
0
72
100
73
1
74
3
75
0
76
1
77
0
78
0
281
0
65
1
110
0
120
0
130
0
111
1
121
0
131
0
112
0
122
1
132
0
79
0
146
0
348
10020
60
7
61
5
292
1
282
1
141
0
142
0
63
250
421
3358443
0
ENDTAB
0
TABLE
2
LTYPE
5
5
330
0
100
AcDbSymbolTable
70
4
0
LTYPE
5
14
330
5
100
AcDbSymbolTableRecord
100
AcDbLinetypeTableRecord
2
ByBlock
70
0
3

72
65
73
0
40
0
0
LTYPE
5
15
330
5
100
AcDbSymbolTableRecord
100
AcDbLinetypeTableRecord
2
ByLayer
70
0
3

72
65
73
0
40
0
0
LTYPE
5
16
330
5
100
AcDbSymbolTableRecord
100
AcDbLinetypeTableRecord
2
Continuous
70
0
3
Solid line
72
65
73
0
40
0
0
LTYPE
5
32
330
5
100
AcDbSymbolTableRecord
100
AcDbLinetypeTableRecord
2
DOT
70
0
3
Dot . . . . . . . . . . . . . . . . . . . . . .
72
65
73
2
40
6.35
49
0
74
0
49
-6.35
74
0
0
LTYPE
5
33
330
5
100
AcDbSymbolTableRecord
100
AcDbLinetypeTableRecord
2
DOT2
70
0
3
Dot (.5x) .....................................
72
65
73
2
40
3.175
49
0
74
0
49
-3.175
74
0
0
LTYPE
5
34
330
5
100
AcDbSymbolTableRecord
100
AcDbLinetypeTableRecord
2
DOTX2
70
0
3
Dot (2x) .  .  .  .  .  .  .  .  .  .  .  .  .
72
65
73
2
40
12.7
49
0
74
0
49
-12.7
74
0
0
LTYPE
5
35
330
5
100
AcDbSymbolTableRecord
100
AcDbLinetypeTableRecord
2
DASHED
70
0
3
Dot . . . . . . . . . . . . . . . . . . . . . .
72
65
73
2
40
19.05
49
12.7
74
0
49
-6.35
74
0
0
LTYPE
5
36
330
5
100
AcDbSymbolTableRecord
100
AcDbLinetypeTableRecord
2
DASHED2
70
0
3
Dashed (.5x) _ _ _ _ _ _ _ _ _ _ _ _ _ _ _ _ _
72
65
73
2
40
9.525
49
6.35
74
0
49
-3.175
74
0
0
LTYPE
5
37
330
5
100
AcDbSymbolTableRecord
100
AcDbLinetypeTableRecord
2
DASHEDX2
70
0
3
Dashed (2x) ____  ____  ____  ____  ____  ___
72
65
73
2
40
38.1
49
25.4
74
0
49
-12.7
74
0
0
LTYPE
5
38
330
5
100
AcDbSymbolTableRecord
100
AcDbLinetypeTableRecord
2
DASHDOT
70
0
3
Dash dot __ . __ . __ . __ . __ . __ . __ . __
72
65
73
4
40
25.4
49
12.7
74
0
49
-6.35
74
0
49
0
74
0
49
-6.35
74
0
0
LTYPE
5
39
330
5
100
AcDbSymbolTableRecord
100
AcDbLinetypeTableRecord
2
DASHDOT2
70
0
3
Dash dot (.5x) _._._._._._._._._._._._._._._.
72
65
73
4
40
12.7
49
6.35
74
0
49
-3.175
74
0
49
0
74
0
49
-3.175
74
0
0
LTYPE
5
3A
330
5
100
AcDbSymbolTableRecord
100
AcDbLinetypeTableRecord
2
DASHDOTX2
70
0
3
Dash dot (2x) ____  .  ____  .  ____  .  ___
72
65
73
4
40
50.8
49
25.4
74
0
49
-12.7
74
0
49
0
74
0
49
-12.7
74
0
0
LTYPE
5
3B
330
5
100
AcDbSymbolTableRecord
100
AcDbLinetypeTableRecord
2
DIVIDE
70
0
3
Divide ____ . . ____ . . ____ . . ____ . . ____
72
65
73
6
40
31.75
49
12.7
74
0
49
-6.35
74
0
49
0
74
0
49
-6.35
74
0
49
0
74
0
49
-6.35
74
0
0
LTYPE
5
3C
330
5
100
AcDbSymbolTableRecord
100
AcDbLinetypeTableRecord
2
DIVIDE2
70
0
3
Divide (.5x) __..__..__..__..__..__..__..__.._
72
65
73
6
40
15.875
49
6.35
74
0
49
-3.175
74
0
49
0
74
0
49
-3.175
74
0
49
0
74
0
49
-3.175
74
0
0
LTYPE
5
3D
330
5
100
AcDbSymbolTableRecord
100
AcDbLinetypeTableRecord
2
DIVIDEX2
70
0
3
Divide (2x) ________  .  .  ________  .  .  _
72
65
73
6
40
63.5
49
25.4
74
0
49
-12.7
74
0
49
0
74
0
49
-12.7
74
0
49
0
74
0
49
-12.7
74
0
0
LTYPE
5
3E
330
5
100
AcDbSymbolTableRecord
100
AcDbLinetypeTableRecord
2
BORDER
70
0
3
Border __ __ . __ __ . __ __ . __ __ . __ __ .
72
65
73
6
40
44.45
49
12.7
74
0
49
-6.35
74
0
49
12.7
74
0
49
-6.35
74
0
49
0
74
0
49
-6.35
74
0
0
LTYPE
5
3F
330
5
100
AcDbSymbolTableRecord
100
AcDbLinetypeTableRecord
2
BORDER2
70
0
3
Border (.5x) __.__.__.__.__.__.__.__.__.__.__.
72
65
73
6
40
22.225
49
6.35
74
0
49
-3.175
74
0
49
6.35
74
0
49
-3.175
74
0
49
0
74
0
49
-3.175
74
0
0
LTYPE
5
40
330
5
100
AcDbSymbolTableRecord
100
AcDbLinetypeTableRecord
2
BORDERX2
70
0
3
Border (2x) ____  ____  .  ____  ____  .  ___
72
65
73
6
40
88.9
49
25.4
74
0
49
-12.7
74
0
49
25.4
74
0
49
-12.7
74
0
49
0
74
0
49
-12.7
74
0
0
LTYPE
5
41
330
5
100
AcDbSymbolTableRecord
100
AcDbLinetypeTableRecord
2
CENTER
70
0
3
Center ____ _ ____ _ ____ _ ____ _ ____ _ ____
72
65
73
4
40
50.8
49
31.75
74
0
49
-6.35
74
0
49
6.35
74
0
49
-6.35
74
0
0
LTYPE
5
42
330
5
100
AcDbSymbolTableRecord
100
AcDbLinetypeTableRecord
2
CENTER2
70
0
3
Center (.5x) ___ _ ___ _ ___ _ ___ _ ___ _ ___
72
65
73
4
40
28.575
49
19.05
74
0
49
-3.175
74
0
49
3.175
74
0
49
-3.175
74
0
0
LTYPE
5
43
330
5
100
AcDbSymbolTableRecord
100
AcDbLinetypeTableRecord
2
CENTERX2
70
0
3
Center (2x) ________  __  ________  __  _____
72
65
73
4
40
101.6
49
63.5
74
0
49
-12.7
74
0
49
12.7
74
0
49
-12.7
74
0
0
ENDTAB
0
TABLE
2
LAYER
5
2
330
0
100
AcDbSymbolTable
70
1
0
LAYER
5
10
330
2
100
AcDbSymbolTableRecord
100
AcDbLayerTableRecord
2
0
70
0
62
7
6
CONTINUOUS
370
0
390
F
0
LAYER
5
44
330
2
100
AcDbSymbolTableRecord
100
AcDbLayerTableRecord
2
Panel
70
0
62
1
6
CONTINUOUS
370
0
390
F
0
LAYER
5
45
330
2
100
AcDbSymbolTableRecord
100
AcDbLayerTableRecord
2
Engraving
70
0
62
7
6
CONTINUOUS
370
0
390
F
0
ENDTAB
0
TABLE
2
STYLE
5
3
330
0
100
AcDbSymbolTable
70
3
0
STYLE
5
46
330
2
100
AcDbSymbolTableRecord
100
AcDbTextStyleTableRecord
2
Standard
70
0
40
0
41
1
50
0
71
0
42
1
3
txt
4

0
ENDTAB
0
TABLE
2
VIEW
5
6
330
0
100
AcDbSymbolTable
70
0
0
ENDTAB
0
TABLE
2
UCS
5
7
330
0
100
AcDbSymbolTable
70
0
0
ENDTAB
0
TABLE
2
APPID
5
9
330
0
100
AcDbSymbolTable
70
1
0
APPID
5
12
330
9
100
AcDbSymbolTableRecord
100
AcDbRegAppTableRecord
2
ACAD
70
0
0
ENDTAB
0
TABLE
2
DIMSTYLE
5
A
330
0
100
AcDbSymbolTable
70
1
100
AcDbDimStyleTable
71
1
0
DIMSTYLE
105
47
330
A
100
AcDbSymbolTableRecord
100
AcDbDimStyleTableRecord
2
Standard
70
0
40
1
41
2.5
42
0.625
43
0.38
44
1.25
45
0
46
0
47
0
48
0
140
2.5
141
0.09
142
0
143
25.4
144
1
145
0
146
1
147
0.625
148
0
71
0
72
0
73
0
74
1
75
0
76
0
77
0
78
0
79
0
170
0
171
2
172
0
173
0
174
0
175
0
176
0
177
0
178
0
179
0
271
4
272
4
273
2
274
2
275
0
276
0
277
2
278
46
279
0
280
0
281
0
282
0
283
1
284
0
285
0
286
0
288
0
289
3
340
Standard
341

371
-2
372
-2
0
ENDTAB
0
TABLE
2
BLOCK_RECORD
5
1
330
0
100
AcDbSymbolTable
70
2
0
BLOCK_RECORD
5
1F
330
1
100
AcDbSymbolTableRecord
100
AcDbBlockTableRecord
2
*Model_Space
70
0
280
1
281
0
0
BLOCK_RECORD
5
1E
330
1
100
AcDbSymbolTableRecord
100
AcDbBlockTableRecord
2
*Paper_Space
70
0
280
1
281
0
0
ENDTAB
0
ENDSEC
0
SECTION
2
BLOCKS
0
BLOCK
5
20
330
1F
100
AcDbEntity
8
0
100
AcDbBlockBegin
2
*Model_Space
70
0
10
0
20
0
30
0
3
*Model_Space
1

0
ENDBLK
5
21
330
1F
100
AcDbEntity
8
0
100
AcDbBlockEnd
0
BLOCK
5
1C
330
1B
100
AcDbEntity
8
0
100
AcDbBlockBegin
2
*Paper_Space
70
0
10
0
20
0
30
0
3
*Paper_Space
1

0
ENDBLK
5
1D
330
1F
100
AcDbEntity
8
0
100
AcDbBlockEnd
0
ENDSEC
0
SECTION
2
ENTITIES
0
LINE
5
48
100
AcDbEntity
8
Panel
6
ByLayer
62
256
370
-1
100
AcDbLine
10
110
20
0
11
10
21
0
0
LINE
5
49
100
AcDbEntity
8
Panel
6
ByLayer
62
256
370
-1
100
AcDbLine
10
110
20
-1.66533453694e-16
11
110.6
21
-1.66533453694e-16
0
LINE
5
4A
100
AcDbEntity
8
Panel
6
ByLayer
62
256
370
-1
100
AcDbLine
10
110.6
20
-1.66533453694e-16
11
110.6
21
3
0
LINE
5
4B
100
AcDbEntity
8
Panel
6
ByLayer
62
256
370
-1
100
AcDbLine
10
110.6
20
3
11
110
21
3
0
LINE
5
4C
100
AcDbEntity
8
Panel
6
ByLayer
62
256
370
-1
100
AcDbLine
10
10
20
0
11
9.4
21
0
0
LINE
5
4D
100
AcDbEntity
8
Panel
6
ByLayer
62
256
370
-1
100
AcDbLine
10
9.4
20
0
11
9.4
21
3
0
LINE
5
4E
100
AcDbEntity
8
Panel
6
ByLayer
62
256
370
-1
100
AcDbLine
10
9.4
20
3
11
10
21
3
0
LINE
5
4F
100
AcDbEntity
8
Panel
6
ByLayer
62
256
370
-1
100
AcDbLine
10
10
20
110
11
110
21
110
0
LINE
5
50
100
AcDbEntity
8
Panel
6
ByLayer
62
256
370
-1
100
AcDbLine
10
7
20
110
11
10
21
110
0
LINE
5
51
100
AcDbEntity
8
Panel
6
ByLayer
62
256
370
-1
100
AcDbLine
10
10
20
107
11
7
21
107
0
LINE
5
52
100
AcDbEntity
8
Panel
6
ByLayer
62
256
370
-1
100
AcDbLine
10
7
20
107
11
7
21
110
0
LINE
5
53
100
AcDbEntity
8
Panel
6
ByLayer
62
256
370
-1
100
AcDbLine
10
110
20
110
11
113
21
110
0
LINE
5
54
100
AcDbEntity
8
Panel
6
ByLayer
62
256
370
-1
100
AcDbLine
10
113
20
110
11
113
21
107
0
LINE
5
55
100
AcDbEntity
8
Panel
6
ByLayer
62
256
370
-1
100
AcDbLine
10
113
20
107
11
110
21
107
0
LINE
5
56
100
AcDbEntity
8
Panel
6
ByLayer
62
256
370
-1
100
AcDbLine
10
110
20
107
11
110
21
3
0
LINE
5
57
100
AcDbEntity
8
Panel
6
ByLayer
62
256
370
-1
100
AcDbLine
10
10
20
3
11
10
21
107
0
LWPOLYLINE
5
58
100
AcDbEntity
8
Engraving
6
ByLayer
62
256
370
-1
100
AcDbPolyline
90
2215
70
1
43
0
10
72.5560649079
20
76.3454448931
10
72.5680826588
20
76.0759317639
10
72.5811275589
20
75.8225971385
10
72.5954191062
20
75.5839214444
10
72.6111767986
20
75.358385109
10
72.6286201342
20
75.1444685598
10
72.6479686108
20
74.9406522242
10
72.6694417265
20
74.7454165297
10
72.6932589792
20
74.5572419037
10
72.7196398668
20
74.3746087737
10
72.7488038875
20
74.1959975671
10
72.7809705391
20
74.0198887113
10
72.8163593195
20
73.8447626337
10
72.8551897269
20
73.669099762
10
72.897681259
20
73.4913805234
10
72.944053414
20
73.3100853454
10
72.9945256898
20
73.1236946555
10
73.0493175843
20
72.9306888811
10
73.1086485955
20
72.7295484497
10
73.1727382214
20
72.5187537886
10
73.2418059599
20
72.2967853254
10
73.3160713091
20
72.0621234875
10
73.3957537668
20
71.8132487024
10
73.4810728312
20
71.5486413974
10
73.572248
20
71.266782
10
73.6802146164
20
70.929937285
10
73.7829650126
20
70.602501924
10
73.8805942669
20
70.2838498996
10
73.9731974576
20
69.9733551943
10
74.0608696633
20
69.6703917907
10
74.1437059621
20
69.3743336713
10
74.2218014326
20
69.0845548187
10
74.2952511532
20
68.8004292153
10
74.3641502021
20
68.5213308438
10
74.4285936577
20
68.2466336868
10
74.4886765986
20
67.9757117266
10
74.5444941029
20
67.7079389459
10
74.5961412492
20
67.4426893273
10
74.6437131157
20
67.1793368532
10
74.6873047809
20
66.9172555063
10
74.7270113232
20
66.655819269
10
74.7629278208
20
66.3944021239
10
74.7951493523
20
66.1323780536
10
74.8237709959
20
65.8691210405
10
74.8488878302
20
65.6040050674
10
74.8705949333
20
65.3364041166
10
74.8889873838
20
65.0656921707
10
74.9041602599
20
64.7912432123
10
74.9162086402
20
64.512431224
10
74.9252276029
20
64.2286301882
10
74.9313122264
20
63.9392140875
10
74.9345575892
20
63.6435569045
10
74.9350587696
20
63.3410326217
10
74.9329108459
20
63.0310152217
10
74.9282088966
20
62.7128786869
10
74.921048
20
62.385997
10
74.9152807118
20
62.1607973045
10
74.9096167222
20
61.9482584809
10
74.9039805536
20
61.7477490847
10
74.8982967284
20
61.5586376715
10
74.892489769
20
61.3802927967
10
74.8864841977
20
61.212083016
10
74.8802045369
20
61.0533768848
10
74.8735753091
20
60.9035429587
10
74.8665210364
20
60.7619497933
10
74.8589662414
20
60.627965944
10
74.8508354464
20
60.5009599664
10
74.8420531738
20
60.3803004161
10
74.8325439459
20
60.2653558485
10
74.8222322851
20
60.1554948193
10
74.8110427138
20
60.0500858839
10
74.7988997544
20
59.9484975979
10
74.7857279292
20
59.8500985168
10
74.7714517607
20
59.7542571962
10
74.7559957711
20
59.6603421916
10
74.7392844828
20
59.5677220586
10
74.7212424183
20
59.4757653526
10
74.7017940999
20
59.3838406292
10
74.6808640499
20
59.291316444
10
74.6583767908
20
59.1975613525
10
74.634256845
20
59.1019439101
10
74.6084287347
20
59.0038326726
10
74.5808169823
20
58.9025961953
10
74.5513461103
20
58.7976030339
10
74.519940641
20
58.6882217438
10
74.4865250968
20
58.5738208807
10
74.451024
20
58.453769
10
74.4294771091
20
58.3805176739
10
74.4079997008
20
58.3060705722
10
74.386625801
20
58.2305790099
10
74.3653894356
20
58.154194302
10
74.3443246304
20
58.0770677634
10
74.3234654112
20
57.999350709
10
74.302845804
20
57.9211944539
10
74.2824998344
20
57.842750313
10
74.2624615285
20
57.7641696013
10
74.242764912
20
57.6856036336
10
74.2234440108
20
57.6072037251
10
74.2045328507
20
57.5291211905
10
74.1860654576
20
57.451507345
10
74.1680758573
20
57.3745135034
10
74.1505980757
20
57.2982909808
10
74.1336661386
20
57.222991092
10
74.1173140719
20
57.1487651521
10
74.1015759014
20
57.075764476
10
74.0864856529
20
57.0041403787
10
74.0720773524
20
56.9340441751
10
74.0583850255
20
56.8656271801
10
74.0454426983
20
56.7990407088
10
74.0332843966
20
56.7344360762
10
74.0219441461
20
56.6719645971
10
74.0114559727
20
56.6117775865
10
74.0018539024
20
56.5540263594
10
73.9931719609
20
56.4988622308
10
73.985444174
20
56.4464365156
10
73.9787045677
20
56.3969005287
10
73.9729871677
20
56.3504055852
10
73.968326
20
56.307103
10
73.9618309352
20
56.2398335102
10
73.9560352341
20
56.1758465276
10
73.9509932009
20
56.1148969282
10
73.9467591399
20
56.0567395874
10
73.9433873556
20
56.0011293811
10
73.9409321522
20
55.947821185
10
73.939447834
20
55.8965698746
10
73.9389887054
20
55.8471303258
10
73.9396090706
20
55.7992574143
10
73.9413632341
20
55.7527060157
10
73.9443055
20
55.7072310057
10
73.9484901728
20
55.6625872601
10
73.9539715567
20
55.6185296545
10
73.9608039562
20
55.5748130647
10
73.9690416754
20
55.5311923663
10
73.9787390187
20
55.487422435
10
73.9899502905
20
55.4432581466
10
74.002729795
20
55.3984543767
10
74.0171318366
20
55.3527660011
10
74.0332107195
20
55.3059478954
10
74.0510207482
20
55.2577549354
10
74.070616227
20
55.2079419967
10
74.0920514601
20
55.1562639551
10
74.1153807518
20
55.1024756862
10
74.1406584066
20
55.0463320658
10
74.1679387287
20
54.9875879696
10
74.1972760224
20
54.9259982731
10
74.2287245921
20
54.8613178523
10
74.262338742
20
54.7933015827
10
74.2981727765
20
54.72170434
10
74.336281
20
54.646281
10
74.3596804628
20
54.5998240418
10
74.3824508233
20
54.5539773364
10
74.4045689104
20
54.5088027829
10
74.4260115531
20
54.4643622803
10
74.4467555804
20
54.4207177275
10
74.4667778213
20
54.3779310238
10
74.4860551046
20
54.336064068
10
74.5045642595
20
54.2951787592
10
74.5222821149
20
54.2553369964
10
74.5391854997
20
54.2166006788
10
74.5552512429
20
54.1790317052
10
74.5704561736
20
54.1426919747
10
74.5847771206
20
54.1076433864
10
74.598190913
20
54.0739478393
10
74.6106743797
20
54.0416672324
10
74.6222043497
20
54.0108634648
10
74.632757652
20
53.9815984354
10
74.6423111156
20
53.9539340433
10
74.6508415694
20
53.9279321876
10
74.6583258424
20
53.9036547672
10
74.6647407636
20
53.8811636813
10
74.6700631619
20
53.8605208287
10
74.6742698664
20
53.8417881087
10
74.677337706
20
53.8250274201
10
74.6792435097
20
53.810300662
10
74.6799641064
20
53.7976697334
10
74.6794763251
20
53.7871965335
10
74.6777569949
20
53.7789429611
10
74.6747829446
20
53.7729709154
10
74.6705310034
20
53.7693422954
10
74.664978
20
53.768119
10
74.6421408636
20
53.7719855431
10
74.6138195205
20
53.783302475
10
74.580399425
20
53.8016457495
10
74.542266031
20
53.8265913204
10
74.4998047928
20
53.8577151415
10
74.4534011645
20
53.8945931666
10
74.4034406002
20
53.9368013495
10
74.3503085541
20
53.9839156441
10
74.2943904802
20
54.0355120041
10
74.2360718327
20
54.0911663834
10
74.1757380658
20
54.1504547358
10
74.1137746335
20
54.2129530151
10
74.05056699
20
54.2782371751
10
73.9865005894
20
54.3458831696
10
73.9219608859
20
54.4154669524
10
73.8573333336
20
54.4865644774
10
73.7930033866
20
54.5587516983
10
73.7293564991
20
54.6316045689
10
73.6667781251
20
54.7046990432
10
73.6056537188
20
54.7776110748
10
73.5463687344
20
54.8499166176
10
73.489308626
20
54.9211916254
10
73.4348588476
20
54.9910120521
10
73.3834048535
20
55.0589538513
10
73.3353320977
20
55.124592977
10
73.2910260344
20
55.187505383
10
73.2508721178
20
55.247267023
10
73.2152558019
20
55.3034538509
10
73.1845625409
20
55.3556418205
10
73.1591777889
20
55.4034068856
10
73.139487
20
55.446325
10
73.1305333385
20
55.4676648989
10
73.1214717285
20
55.488720605
10
73.1123197159
20
55.5094637781
10
73.1030948465
20
55.5298660776
10
73.0938146662
20
55.5498991632
10
73.0844967209
20
55.5695346943
10
73.0751585562
20
55.5887443305
10
73.0658177181
20
55.6074997314
10
73.0564917525
20
55.6257725566
10
73.0471982051
20
55.6435344656
10
73.0379546217
20
55.660757118
10
73.0287785483
20
55.6774121733
10
73.0196875307
20
55.6934712911
10
73.0106991146
20
55.708906131
10
73.001830846
20
55.7236883525
10
72.9931002706
20
55.7377896152
10
72.9845249343
20
55.7511815787
10
72.976122383
20
55.7638359024
10
72.9679101624
20
55.775724246
10
72.9599058184
20
55.7868182691
10
72.9521268969
20
55.7970896312
10
72.9445909437
20
55.8065099918
10
72.9373155045
20
55.8150510105
10
72.9303181254
20
55.8226843469
10
72.923616352
20
55.8293816606
10
72.9172277302
20
55.835114611
10
72.9111698059
20
55.8398548578
10
72.9054601249
20
55.8435740606
10
72.900116233
20
55.8462438788
10
72.8951556761
20
55.8478359721
10
72.890596
20
55.848322
10
72.8857608026
20
55.8469615081
10
72.8799829761
20
55.8429261603
10
72.8732940083
20
55.8362851488
10
72.8657253866
20
55.8271076655
10
72.8573085986
20
55.8154629025
10
72.8480751319
20
55.8014200518
10
72.838056474
20
55.7850483054
10
72.8272841125
20
55.7664168555
10
72.815789535
20
55.745594894
10
72.803604229
20
55.722651613
10
72.7907596821
20
55.6976562045
10
72.7772873818
20
55.6706778605
10
72.7632188158
20
55.6417857731
10
72.7485854715
20
55.6110491344
10
72.7334188366
20
55.5785371363
10
72.7177503986
20
55.5443189709
10
72.701611645
20
55.5084638303
10
72.6850340635
20
55.4710409064
10
72.6680491416
20
55.4321193913
10
72.6506883668
20
55.3917684771
10
72.6329832268
20
55.3500573558
10
72.614965209
20
55.3070552194
10
72.5966658011
20
55.26283126
10
72.5781164906
20
55.2174546696
10
72.5593487651
20
55.1709946402
10
72.5403941121
20
55.1235203639
10
72.5212840192
20
55.0751010328
10
72.502049974
20
55.0258058387
10
72.482723464
20
54.9757039739
10
72.4633359768
20
54.9248646303
10
72.443919
20
54.873357
10
72.400895217
20
54.7606190636
10
72.3574329005
20
54.6509108159
10
72.3134276314
20
54.5440905988
10
72.2687749907
20
54.4400167547
10
72.2233705594
20
54.3385476255
10
72.1771099183
20
54.2395415535
10
72.1298886484
20
54.1428568806
10
72.0816023307
20
54.0483519491
10
72.0321465461
20
53.955885101
10
71.9814168755
20
53.8653146785
10
71.9293089
20
53.7764990237
10
71.8757182004
20
53.6892964786
10
71.8205403578
20
53.6035653855
10
71.7636709529
20
53.5191640864
10
71.7050055669
20
53.4359509235
10
71.6444397806
20
53.3537842388
10
71.5818691751
20
53.2725223745
10
71.5171893311
20
53.1920236728
10
71.4502958297
20
53.1121464756
10
71.3810842519
20
53.0327491251
10
71.3094501786
20
52.9536899635
10
71.2352891907
20
52.8748273329
10
71.1584968691
20
52.7960195754
10
71.0789687949
20
52.717125033
10
70.996600549
20
52.638002048
10
70.9112877122
20
52.5585089624
10
70.8229258657
20
52.4785041184
10
70.7314105902
20
52.397845858
10
70.6366374668
20
52.3163925234
10
70.5385020764
20
52.2340024567
10
70.4369
20
52.150534
10
69.626214
20
51.491319
10
69.687082
20
49.669913
10
69.6904017379
20
49.5647643592
10
69.6938751168
20
49.4435981046
10
69.6974928037
20
49.3069874154
10
69.7012454655
20
49.1555054707
10
69.7051237692
20
48.9897254497
10
69.7091183817
20
48.8102205315
10
69.7132199702
20
48.6175638953
10
69.7174192014
20
48.4123287202
10
69.7217067425
20
48.1950881853
10
69.7260732604
20
47.9664154699
10
69.7305094221
20
47.726883753
10
69.7350058946
20
47.4770662138
10
69.7395533448
20
47.2175360315
10
69.7441424397
20
46.9488663851
10
69.7487638464
20
46.6716304539
10
69.7534082317
20
46.386401417
10
69.7580662627
20
46.0937524536
10
69.7627286063
20
45.7942567427
10
69.7673859295
20
45.4884874636
10
69.7720288994
20
45.1770177954
10
69.7766481828
20
44.8604209172
10
69.7812344468
20
44.5392700082
10
69.7857783584
20
44.2141382476
10
69.7902705845
20
43.8855988144
10
69.7947017921
20
43.5542248878
10
69.7990626481
20
43.220589647
10
69.8033438196
20
42.8852662712
10
69.8075359736
20
42.5488279394
10
69.811629777
20
42.2118478309
10
69.8156158968
20
41.8748991247
10
69.819485
20
41.538555
10
69.8271209728
20
40.8884571831
10
69.8349706472
20
40.2698471787
10
69.8431057539
20
39.6815487369
10
69.8515980237
20
39.1223856076
10
69.8605191872
20
38.5911815411
10
69.8699409752
20
38.0867602872
10
69.8799351184
20
37.6079455962
10
69.8905733475
20
37.153561218
10
69.9019273933
20
36.7224309027
10
69.9140689864
20
36.3133784004
10
69.9270698577
20
35.925227461
10
69.9410017378
20
35.5568018348
10
69.9559363575
20
35.2069252717
10
69.9719454474
20
34.8744215218
10
69.9891007383
20
34.5581143352
10
70.007473961
20
34.2568274619
10
70.0271368461
20
33.9693846519
10
70.0481611243
20
33.6946096554
10
70.0706185265
20
33.4313262224
10
70.0945807833
20
33.178358103
10
70.1201196254
20
32.9345290471
10
70.1473067836
20
32.6986628049
10
70.1762139886
20
32.4695831264
10
70.2069129711
20
32.2461137618
10
70.2394754619
20
32.0270784609
10
70.2739731916
20
31.811300974
10
70.310477891
20
31.5976050511
10
70.3490612908
20
31.3848144421
10
70.3897951218
20
31.1717528973
10
70.4327511146
20
30.9572441665
10
70.478001
20
30.740112
10
70.5180814246
20
30.5487347252
10
70.5562081592
20
30.3617342466
10
70.5923752664
20
30.1791798413
10
70.6265768085
20
30.0011407864
10
70.6588068481
20
29.8276863589
10
70.6890594475
20
29.6588858357
10
70.7173286691
20
29.494808494
10
70.7436085754
20
29.3355236108
10
70.7678932289
20
29.181100463
10
70.790176692
20
29.0316083277
10
70.8104530271
20
28.8871164821
10
70.8287162966
20
28.7476942029
10
70.844960563
20
28.6134107674
10
70.8591798887
20
28.4843354526
10
70.8713683361
20
28.3605375354
10
70.8815199677
20
28.2420862929
10
70.889628846
20
28.1290510021
10
70.8956890333
20
28.0215009401
10
70.8996945921
20
27.9195053839
10
70.9016395848
20
27.8231336106
10
70.9015180739
20
27.732454897
10
70.8993241217
20
27.6475385204
10
70.8950517908
20
27.5684537576
10
70.8886951436
20
27.4952698858
10
70.8802482425
20
27.428056182
10
70.8697051498
20
27.3668819231
10
70.8570599282
20
27.3118163863
10
70.84230664
20
27.2629288486
10
70.8254393476
20
27.2202885869
10
70.8064521134
20
27.1839648784
10
70.785339
20
27.154027
10
70.7162651413
20
27.0759260876
10
70.637058149
20
26.9956408143
10
70.548210028
20
26.9134179243
10
70.4502127831
20
26.8295041617
10
70.3435584191
20
26.7441462708
10
70.2287389409
20
26.6575909956
10
70.1062463533
20
26.5700850805
10
69.9765726612
20
26.4818752696
10
69.8402098693
20
26.3932083071
10
69.6976499825
20
26.3043309371
10
69.5493850057
20
26.2154899039
10
69.3959069436
20
26.1269319516
10
69.2377078011
20
26.0389038244
10
69.0752795831
20
25.9516522665
10
68.9091142944
20
25.8654240221
10
68.7397039397
20
25.7804658354
10
68.5675405241
20
25.6970244505
10
68.3931160521
20
25.6153466116
10
68.2169225288
20
25.535679063
10
68.0394519589
20
25.4582685488
10
67.8611963474
20
25.3833618132
10
67.6826476989
20
25.3112056003
10
67.5042980183
20
25.2420466544
10
67.3266393106
20
25.1761317197
10
67.1501635804
20
25.1137075403
10
66.9753628327
20
25.0550208604
10
66.8027290723
20
25.0003184242
10
66.632754304
20
24.9498469758
10
66.4659305326
20
24.9038532596
10
66.302749763
20
24.8625840196
10
66.143704
20
24.826286
10
65.723485
20
24.735919
10
65.946352
20
25.337221
10
65.9646719421
20
25.3869129054
10
65.9817981109
20
25.4339581993
10
65.9977343108
20
25.4784488613
10
66.0124843461
20
25.5204768711
10
66.0260520211
20
25.5601342082
10
66.0384411401
20
25.5975128522
10
66.0496555074
20
25.6327047827
10
66.0596989273
20
25.6658019792
10
66.0685752041
20
25.6968964215
10
66.0762881421
20
25.726080089
10
66.0828415456
20
25.7534449614
10
66.088239219
20
25.7790830182
10
66.0924849664
20
25.8030862391
10
66.0955825923
20
25.8255466036
10
66.0975359008
20
25.8465560913
10
66.0983486965
20
25.8662066819
10
66.0980247834
20
25.8845903548
10
66.096567966
20
25.9017990898
10
66.0939820485
20
25.9179248663
10
66.0902708352
20
25.933059664
10
66.0854381305
20
25.9472954625
10
66.0794877386
20
25.9607242414
10
66.0724234639
20
25.9734379802
10
66.0642491107
20
25.9855286586
10
66.0549684832
20
25.9970882561
10
66.0445853857
20
26.0082087523
10
66.0331036226
20
26.0189821268
10
66.0205269982
20
26.0295003593
10
66.0068593168
20
26.0398554292
10
65.9921043826
20
26.0501393163
10
65.976266
20
26.060444
10
65.9437751806
20
26.0802358577
10
65.9127124395
20
26.0976166036
10
65.8830443526
20
26.1125368033
10
65.8547374954
20
26.1249470224
10
65.8277584439
20
26.1347978265
10
65.8020737736
20
26.1420397812
10
65.7776500605
20
26.1466234521
10
65.7544538801
20
26.1484994049
10
65.7324518083
20
26.1476182051
10
65.7116104208
20
26.1439304184
10
65.6918962933
20
26.1373866103
10
65.6732760017
20
26.1279373464
10
65.6557161215
20
26.1155331925
10
65.6391832287
20
26.100124714
10
65.6236438989
20
26.0816624766
10
65.6090647078
20
26.0600970458
10
65.5954122312
20
26.0353789874
10
65.5826530449
20
26.0074588668
10
65.5707537246
20
25.9762872498
10
65.5596808461
20
25.9418147019
10
65.549400985
20
25.9039917887
10
65.5398807172
20
25.8627690758
10
65.5310866183
20
25.8180971289
10
65.5229852642
20
25.7699265135
10
65.5155432305
20
25.7182077953
10
65.5087270931
20
25.6628915398
10
65.5025034276
20
25.6039283127
10
65.4968388098
20
25.5412686795
10
65.4916998154
20
25.474863206
10
65.4870530202
20
25.4046624576
10
65.482865
20
25.330617
10
65.4788120583
20
25.2174731917
10
65.4773746988
20
25.0857064834
10
65.4784322162
20
24.9366634987
10
65.4818639054
20
24.771690861
10
65.4875490615
20
24.5921351937
10
65.4953669791
20
24.3993431205
10
65.5051969533
20
24.1946612647
10
65.5169182789
20
23.9794362498
10
65.5304102508
20
23.7550146994
10
65.5455521639
20
23.5227432368
10
65.5622233131
20
23.2839684855
10
65.5803029932
20
23.0400370691
10
65.5996704992
20
22.7922956111
10
65.6202051259
20
22.5420907348
10
65.6417861683
20
22.2907690637
10
65.6642929212
20
22.0396772214
10
65.6876046795
20
21.7901618313
10
65.711600738
20
21.5435695169
10
65.7361603918
20
21.3012469017
10
65.7611629356
20
21.0645406091
10
65.7864876644
20
20.8347972627
10
65.812013873
20
20.6133634859
10
65.8376208564
20
20.4015859021
10
65.8631879093
20
20.2008111349
10
65.8885943268
20
20.0123858077
10
65.9137194037
20
19.837656544
10
65.9384424348
20
19.6779699673
10
65.9626427151
20
19.5346727011
10
65.9861995395
20
19.4091113688
10
66.0089922028
20
19.302632594
10
66.0309
20
19.216583
10
66.0406609852
20
19.181950425
10
66.050538816
20
19.1463377298
10
66.060514386
20
19.1098267818
10
66.0705685885
20
19.0724994483
10
66.0806823171
20
19.0344375967
10
66.0908364654
20
18.9957230943
10
66.1010119267
20
18.9564378084
10
66.1111895946
20
18.9166636064
10
66.1213503625
20
18.8764823556
10
66.131475124
20
18.8359759234
10
66.1415447726
20
18.7952261771
10
66.1515402017
20
18.754314984
10
66.1614423048
20
18.7133242116
10
66.1712319754
20
18.6723357271
10
66.1808901071
20
18.6314313978
10
66.1903975932
20
18.5906930912
10
66.1997353274
20
18.5502026746
10
66.208884203
20
18.5100420153
10
66.2178251136
20
18.4702929806
10
66.2265389527
20
18.4310374379
10
66.2350066137
20
18.3923572546
10
66.2432089902
20
18.3543342979
10
66.2511269757
20
18.3170504353
10
66.2587414635
20
18.280587534
10
66.2660333473
20
18.2450274614
10
66.2729835205
20
18.2104520849
10
66.2795728766
20
18.1769432718
10
66.2857823092
20
18.1445828894
10
66.2915927116
20
18.113452805
10
66.2969849773
20
18.0836348861
10
66.30194
20
18.055211
10
66.3070791747
20
18.0261644494
10
66.3130173041
20
17.9944997312
10
66.3197259733
20
17.960330214
10
66.3271767677
20
17.9237692661
10
66.3353412725
20
17.8849302558
10
66.3441910729
20
17.8439265517
10
66.3536977542
20
17.800871522
10
66.3638329016
20
17.7558785353
10
66.3745681004
20
17.7090609599
10
66.3858749357
20
17.6605321641
10
66.3977249929
20
17.6104055165
10
66.4100898572
20
17.5587943853
10
66.4229411138
20
17.5058121391
10
66.436250348
20
17.4515721461
10
66.449989145
20
17.3961877749
10
66.4641290901
20
17.3397723937
10
66.4786417685
20
17.2824393711
10
66.4934987655
20
17.2243020753
10
66.5086716662
20
17.1654738748
10
66.524132056
20
17.1060681381
10
66.5398515201
20
17.0461982334
10
66.5558016437
20
16.9859775292
10
66.571954012
20
16.9255193939
10
66.5882802104
20
16.864937196
10
66.604751824
20
16.8043443037
10
66.6213404382
20
16.7438540855
10
66.6380176381
20
16.6835799098
10
66.654755009
20
16.623635145
10
66.6715241361
20
16.5641331595
10
66.6882966047
20
16.5051873217
10
66.705044
20
16.446911
10
66.7415116906
20
16.3196263953
10
66.7755483992
20
16.1984314838
10
66.8071541615
20
16.0829333616
10
66.8363290129
20
15.9727391246
10
66.8630729893
20
15.8674558688
10
66.8873861262
20
15.76669069
10
66.9092684593
20
15.6700506844
10
66.9287200243
20
15.5771429479
10
66.9457408568
20
15.4875745764
10
66.9603309924
20
15.4009526659
10
66.9724904668
20
15.3168843124
10
66.9822193156
20
15.2349766119
10
66.9895175746
20
15.1548366603
10
66.9943852792
20
15.0760715535
10
66.9968224653
20
14.9982883876
10
66.9968291684
20
14.9210942586
10
66.9944054242
20
14.8440962623
10
66.9895512683
20
14.7669014948
10
66.9822667364
20
14.689117052
10
66.9725518641
20
14.6103500299
10
66.9604066871
20
14.5302075245
10
66.945831241
20
14.4482966317
10
66.9288255615
20
14.3642244475
10
66.9093896843
20
14.2775980679
10
66.8875236449
20
14.1880245888
10
66.863227479
20
14.0951111063
10
66.8365012222
20
13.9984647162
10
66.8073449103
20
13.8976925146
10
66.7757585789
20
13.7924015973
10
66.7417422636
20
13.6821990605
10
66.705296
20
13.566692
10
66.6887312603
20
13.5138553583
10
66.6721287669
20
13.4593047106
10
66.6555169474
20
13.4031703919
10
66.6389242292
20
13.3455827375
10
66.6223790397
20
13.2866720826
10
66.6059098063
20
13.2265687624
10
66.5895449566
20
13.1654031121
10
66.5733129179
20
13.1033054669
10
66.5572421177
20
13.040406162
10
66.5413609834
20
12.9768355326
10
66.5256979425
20
12.9127239139
10
66.5102814224
20
12.8482016412
10
66.4951398507
20
12.7833990495
10
66.4803016546
20
12.7184464742
10
66.4657952617
20
12.6534742503
10
66.4516490994
20
12.5886127132
10
66.4378915951
20
12.5239921981
10
66.4245511764
20
12.45974304
10
66.4116562706
20
12.3959955742
10
66.3992353052
20
12.332880136
10
66.3873167076
20
12.2705270605
10
66.3759289052
20
12.209066683
10
66.3651003256
20
12.1486293385
10
66.3548593962
20
12.0893453624
10
66.3452345444
20
12.0313450899
10
66.3362541976
20
11.974758856
10
66.3279467833
20
11.9197169961
10
66.3203407289
20
11.8663498454
10
66.313464462
20
11.814787739
10
66.3073464099
20
11.7651610121
10
66.302015
20
11.7176
10
66.2969052448
20
11.6711098329
10
66.2914452498
20
11.6246595209
10
66.2856522112
20
11.5783252187
10
66.2795433252
20
11.5321830811
10
66.273135788
20
11.4863092627
10
66.2664467958
20
11.4407799184
10
66.2594935448
20
11.3956712028
10
66.2522932311
20
11.3510592708
10
66.2448630511
20
11.307020277
10
66.2372202009
20
11.2636303763
10
66.2293818767
20
11.2209657233
10
66.2213652746
20
11.1791024728
10
66.213187591
20
11.1381167796
10
66.204866022
20
11.0980847984
10
66.1964177638
20
11.0590826839
10
66.1878600125
20
11.0211865909
10
66.1792099645
20
10.9844726741
10
66.1704848159
20
10.9490170883
10
66.1617017628
20
10.9148959882
10
66.1528780016
20
10.8821855285
10
66.1440307283
20
10.8509618641
10
66.1351771393
20
10.8213011496
10
66.1263344307
20
10.7932795398
10
66.1175197986
20
10.7669731895
10
66.1087504394
20
10.7424582533
10
66.1000435492
20
10.7198108861
10
66.0914163241
20
10.6991072426
10
66.0828859605
20
10.6804234774
10
66.0744696545
20
10.6638357455
10
66.0661846022
20
10.6494202014
10
66.058048
20
10.637253
10
66.0454699934
20
10.6217735364
10
66.0306914081
20
10.6068533747
10
66.0135595571
20
10.5924687616
10
65.9939217537
20
10.5785959438
10
65.9716253108
20
10.5652111681
10
65.9465175415
20
10.552290681
10
65.9184457589
20
10.5398107295
10
65.8872572761
20
10.5277475601
10
65.8527994062
20
10.5160774196
10
65.8149194622
20
10.5047765548
10
65.7734647572
20
10.4938212122
10
65.7282826044
20
10.4831876388
10
65.6792203168
20
10.4728520811
10
65.6261252074
20
10.4627907859
10
65.5688445894
20
10.4529799999
10
65.5072257758
20
10.4433959699
10
65.4411160798
20
10.4340149425
10
65.3703628143
20
10.4248131645
10
65.2948132926
20
10.4157668826
10
65.2143148276
20
10.4068523434
10
65.1287147324
20
10.3980457938
10
65.0378603202
20
10.3893234805
10
64.9415989039
20
10.3806616501
10
64.8397777968
20
10.3720365494
10
64.7322443118
20
10.3634244251
10
64.6188457621
20
10.3548015239
10
64.4994294607
20
10.3461440926
10
64.3738427207
20
10.3374283778
10
64.2419328552
20
10.3286306263
10
64.1035471773
20
10.3197270848
10
63.958533
20
10.310694
10
63.8541130614
20
10.3041884975
10
63.7483740718
20
10.2974110541
10
63.6415221415
20
10.2903792336
10
63.5337633809
20
10.2831105996
10
63.4253039001
20
10.2756227161
10
63.3163498096
20
10.2679331466
10
63.2071072196
20
10.260059455
10
63.0977822404
20
10.2520192051
10
62.9885809823
20
10.2438299605
10
62.8797095557
20
10.2355092852
10
62.7713740708
20
10.2270747427
10
62.6637806379
20
10.218543897
10
62.5571353673
20
10.2099343116
10
62.4516443694
20
10.2012635505
10
62.3475137544
20
10.1925491774
10
62.2449496327
20
10.183808756
10
62.1441581145
20
10.1750598501
10
62.0453453101
20
10.1663200234
10
61.9487173299
20
10.1576068398
10
61.8544802841
20
10.1489378629
10
61.762840283
20
10.1403306566
10
61.674003437
20
10.1318027845
10
61.5881758564
20
10.1233718105
10
61.5055636514
20
10.1150552984
10
61.4263729324
20
10.1068708118
10
61.3508098096
20
10.0988359145
10
61.2790803933
20
10.0909681704
10
61.211390794
20
10.0832851431
10
61.1479471217
20
10.0758043964
10
61.088955487
20
10.0685434941
10
61.034622
20
10.06152
10
60.9811491249
20
10.0546548948
10
60.9247104828
20
10.0478691373
10
60.8654686296
20
10.0411721296
10
60.8035861207
20
10.0345732734
10
60.739225512
20
10.0280819707
10
60.672549359
20
10.0217076234
10
60.6037202175
20
10.0154596334
10
60.5329006431
20
10.0093474026
10
60.4602531915
20
10.0033803329
10
60.3859404183
20
9.99756782619
10
60.3101248793
20
9.99191928435
10
60.2329691301
20
9.98644410929
10
60.1546357263
20
9.98115170293
10
60.0752872237
20
9.97605146715
10
59.9950861779
20
9.97115280387
10
59.9141951446
20
9.96646511497
10
59.8327766795
20
9.96199780236
10
59.7509933382
20
9.95776026793
10
59.6690076764
20
9.9537619136
10
59.5869822497
20
9.95001214125
10
59.5050796139
20
9.94652035279
10
59.4234623247
20
9.94329595012
10
59.3422929376
20
9.94034833513
10
59.2617340083
20
9.93768690974
10
59.1819480926
20
9.93532107583
10
59.1030977461
20
9.93326023531
10
59.0253455245
20
9.93151379007
10
58.9488539833
20
9.93009114202
10
58.8737856785
20
9.92900169306
10
58.8003031655
20
9.92825484509
10
58.728569
20
9.92786
10
57.398252
20
9.923909
10
57.474939
20
9.501083
10
57.4793410301
20
9.47711577963
10
57.4843683899
20
9.4502978177
10
57.4899982093
20
9.4207398565
10
57.496207618
20
9.38855263835
10
57.5029737461
20
9.35384690554
10
57.5102737232
20
9.31673340039
10
57.5180846794
20
9.27732286519
10
57.5263837445
20
9.23572604226
10
57.5351480484
20
9.19205367389
10
57.5443547209
20
9.1464165024
10
57.5539808919
20
9.09892527008
10
57.5640036912
20
9.04969071924
10
57.5744002488
20
8.99882359219
10
57.5851476946
20
8.94643463123
10
57.5962231583
20
8.89263457866
10
57.6076037699
20
8.8375341768
10
57.6192666592
20
8.78124416794
10
57.6311889562
20
8.72387529438
10
57.6433477906
20
8.66553829845
10
57.6557202923
20
8.60634392243
10
57.6682835913
20
8.54640290863
10
57.6810148174
20
8.48582599936
10
57.6938911004
20
8.42472393693
10
57.7068895703
20
8.36320746363
10
57.7199873569
20
8.30138732178
10
57.73316159
20
8.23937425367
10
57.7463893996
20
8.17727900161
10
57.7596479156
20
8.11521230791
10
57.7729142677
20
8.05328491487
10
57.7861655859
20
7.9916075648
10
57.799379
20
7.930291
10
57.8324936059
20
7.76981417354
10
57.8613816041
20
7.61470366826
10
57.8860140392
20
7.46488299366
10
57.9063619559
20
7.32027565926
10
57.9223963989
20
7.18080517458
10
57.9340884128
20
7.04639504914
10
57.9414090423
20
6.91696879245
10
57.9443293321
20
6.79244991403
10
57.9428203269
20
6.6727619234
10
57.9368530714
20
6.55782833007
10
57.9263986102
20
6.44757264355
10
57.9114279879
20
6.34191837337
10
57.8919122494
20
6.24078902904
10
57.8678224393
20
6.14410812007
10
57.8391296022
20
6.05179915599
10
57.8058047828
20
5.9637856463
10
57.7678190259
20
5.87999110053
10
57.7251433759
20
5.8003390282
10
57.6777488778
20
5.72475293881
10
57.6256065761
20
5.65315634188
10
57.5686875155
20
5.58547274694
10
57.5069627407
20
5.52162566349
10
57.4404032964
20
5.46153860105
10
57.3689802272
20
5.40513506915
10
57.2926645779
20
5.35233857729
10
57.211427393
20
5.30307263499
10
57.1252397173
20
5.25726075177
10
57.0340725955
20
5.21482643714
10
56.9378970722
20
5.17569320063
10
56.8366841922
20
5.13978455174
10
56.730405
20
5.107024
10
56.6857392352
20
5.09529651408
10
56.6360159142
20
5.08422277238
10
56.5815571579
20
5.0738079135
10
56.5226850875
20
5.06405707603
10
56.4597218242
20
5.05497539858
10
56.392989489
20
5.04656801974
10
56.322810203
20
5.03884007811
10
56.2495060874
20
5.0317967123
10
56.1733992633
20
5.02544306089
10
56.0948118517
20
5.0197842625
10
56.0140659739
20
5.01482545571
10
55.9314837508
20
5.01057177913
10
55.8473873036
20
5.00702837135
10
55.7620987534
20
5.00420037098
10
55.6759402214
20
5.00209291662
10
55.5892338286
20
5.00071114686
10
55.5023016961
20
5.0000602003
10
55.4154659451
20
5.00014521553
10
55.3290486967
20
5.00097133117
10
55.2433720719
20
5.00254368581
10
55.158758192
20
5.00486741805
10
55.0755291779
20
5.00794766648
10
54.9940071509
20
5.0117895697
10
54.9145142319
20
5.01639826632
10
54.8373725422
20
5.02177889493
10
54.7629042029
20
5.02793659414
10
54.6914313349
20
5.03487650253
10
54.6232760596
20
5.04260375872
10
54.5587604979
20
5.05112350129
10
54.498206771
20
5.06044086885
10
54.441937
20
5.070561
10
54.441937
20
5.070561
10
54.441947
20
5.070505
10
54.4079272773
20
5.07853442073
10
54.3724985191
20
5.08957613068
10
54.3357919855
20
5.10350349501
10
54.2979389365
20
5.12018987892
10
54.2590706321
20
5.13950864758
10
54.2193183325
20
5.16133316616
10
54.1788132976
20
5.18553679984
10
54.1376867875
20
5.2119929138
10
54.0960700622
20
5.24057487322
10
54.0540943818
20
5.27115604327
10
54.0118910063
20
5.30360978913
10
53.9695911958
20
5.33780947598
10
53.9273262103
20
5.373628469
10
53.8852273098
20
5.41094013336
10
53.8434257545
20
5.44961783424
10
53.8020528043
20
5.48953493683
10
53.7612397193
20
5.53056480628
10
53.7211177596
20
5.57258080779
10
53.6818181851
20
5.61545630654
10
53.643472256
20
5.65906466769
10
53.6062112322
20
5.70327925642
10
53.5701663738
20
5.74797343792
10
53.535468941
20
5.79302057736
10
53.5022501936
20
5.83829403991
10
53.4706413918
20
5.88366719076
10
53.4407737955
20
5.92901339509
10
53.412778665
20
5.97420601806
10
53.3867872601
20
6.01911842486
10
53.3629308409
20
6.06362398067
10
53.3413406675
20
6.10759605065
10
53.322148
20
6.150908
10
53.3143123511
20
6.1733909428
10
53.3066715828
20
6.20280670162
10
53.2992307049
20
6.23902631724
10
53.2919947271
20
6.28192083045
10
53.2849686591
20
6.33136128203
10
53.2781575105
20
6.38721871277
10
53.2715662911
20
6.44936416344
10
53.2652000106
20
6.51766867483
10
53.2590636787
20
6.59200328774
10
53.253162305
20
6.67223904293
10
53.2475008993
20
6.7582469812
10
53.2420844713
20
6.84989814333
10
53.2369180307
20
6.94706357011
10
53.2320065871
20
7.04961430231
10
53.2273551503
20
7.15742138072
10
53.22296873
20
7.27035584613
10
53.2188523359
20
7.38828873932
10
53.2150109777
20
7.51109110107
10
53.211449665
20
7.63863397217
10
53.2081734077
20
7.77078839341
10
53.2051872153
20
7.90742540556
10
53.2024960976
20
8.04841604941
10
53.2001050643
20
8.19363136575
10
53.1980191251
20
8.34294239535
10
53.1962432897
20
8.49622017901
10
53.1947825678
20
8.65333575751
10
53.193641969
20
8.81416017163
10
53.1928265032
20
8.97856446215
10
53.1923411799
20
9.14641966987
10
53.192191009
20
9.31759683555
10
53.192381
20
9.491967
10
53.1929832008
20
9.71732881504
10
53.1938537594
20
9.93298856927
10
53.1950085777
20
10.1392205973
10
53.1964635577
20
10.3362992336
10
53.1982346014
20
10.524498813
10
53.2003376109
20
10.7040936699
10
53.202788488
20
10.8753581389
10
53.2056031347
20
11.0385665548
10
53.2087974532
20
11.193993252
10
53.2123873452
20
11.3419125651
10
53.2163887129
20
11.4825988288
10
53.2208174581
20
11.6163263777
10
53.225689483
20
11.7433695463
10
53.2310206894
20
11.8640026692
10
53.2368269793
20
11.9785000811
10
53.2431242548
20
12.0871361166
10
53.2499284178
20
12.1901851102
10
53.2572553703
20
12.2879213965
10
53.2651210143
20
12.3806193102
10
53.2735412518
20
12.4685531858
10
53.2825319847
20
12.5519973579
10
53.292109115
20
12.6312261612
10
53.3022885448
20
12.7065139302
10
53.3130861759
20
12.7781349995
10
53.3245179105
20
12.8463637037
10
53.3365996504
20
12.9114743775
10
53.3493472977
20
12.9737413553
10
53.3627767543
20
13.0334389719
10
53.3769039222
20
13.0908415618
10
53.3917447035
20
13.1462234597
10
53.407315
20
13.199859
10
53.4285470431
20
13.2803865083
10
53.4529889639
20
13.3912334806
10
53.4804423531
20
13.5308690396
10
53.5107088011
20
13.697762308
10
53.5435898985
20
13.8903824084
10
53.5788872358
20
14.1071984636
10
53.6164024036
20
14.3466795962
10
53.6559369924
20
14.607294929
10
53.6972925928
20
14.8875135845
10
53.7402707954
20
15.1858046856
10
53.7846731906
20
15.5006373549
10
53.830301369
20
15.830480715
10
53.8769569212
20
16.1738038887
10
53.9244414378
20
16.5290759987
10
53.9725565092
20
16.8947661676
10
54.021103726
20
17.2693435181
10
54.0698846788
20
17.651277173
10
54.118700958
20
18.0390362549
10
54.1673541544
20
18.4310898864
10
54.2156458583
20
18.8259071904
10
54.2633776604
20
19.2219572894
10
54.3103511512
20
19.6177093062
10
54.3563679212
20
20.0116323634
10
54.401229561
20
20.4021955838
10
54.4447376612
20
20.78786809
10
54.4866938123
20
21.1671190047
10
54.5268996047
20
21.5384174506
10
54.5651566292
20
21.9002325504
10
54.6012664762
20
22.2510334268
10
54.6350307363
20
22.5892892024
10
54.666251
20
22.913469
10
54.676210497
20
23.0204903354
10
54.6855341542
20
23.1237775313
10
54.6942222689
20
23.2233665335
10
54.7022751387
20
23.3192932879
10
54.709693061
20
23.4115937402
10
54.7164763334
20
23.5003038363
10
54.7226252532
20
23.585459522
10
54.7281401179
20
23.6670967431
10
54.7330212251
20
23.7452514455
10
54.7372688722
20
23.819959575
10
54.7408833566
20
23.8912570774
10
54.7438649759
20
23.9591798985
10
54.7462140275
20
24.0237639841
10
54.7479308089
20
24.0850452801
10
54.7490156175
20
24.1430597323
10
54.7494687509
20
24.1978432865
10
54.7492905064
20
24.2494318885
10
54.7484811817
20
24.2978614842
10
54.7470410741
20
24.3431680193
10
54.7449704811
20
24.3853874398
10
54.7422697001
20
24.4245556914
10
54.7389390288
20
24.4607087199
10
54.7349787645
20
24.4938824712
10
54.7303892047
20
24.5241128911
10
54.7251706469
20
24.5514359254
10
54.7193233885
20
24.57588752
10
54.7128477271
20
24.5975036206
10
54.70574396
20
24.616320173
10
54.6980123849
20
24.6323731232
10
54.689653299
20
24.6456984169
10
54.680667
20
24.656332
10
54.6722704077
20
24.6641478597
10
54.6617226488
20
24.6729745359
10
54.6490912016
20
24.6827739006
10
54.6344435449
20
24.6935078255
10
54.6178471569
20
24.7051381822
10
54.5993695163
20
24.7176268427
10
54.5790781016
20
24.7309356787
10
54.5570403912
20
24.745026562
10
54.5333238636
20
24.7598613643
10
54.5079959974
20
24.7754019574
10
54.4811242709
20
24.7916102131
10
54.4527761629
20
24.8084480031
10
54.4230191517
20
24.8258771993
10
54.3919207158
20
24.8438596733
10
54.3595483338
20
24.8623572971
10
54.3259694841
20
24.8813319423
10
54.2912516453
20
24.9007454807
10
54.2554622958
20
24.9205597841
10
54.2186689141
20
24.9407367243
10
54.1809389788
20
24.961238173
10
54.1423399683
20
24.982026002
10
54.1029393612
20
25.0030620832
10
54.0628046359
20
25.0243082882
10
54.022003271
20
25.0457264888
10
53.9806027449
20
25.0672785568
10
53.9386705361
20
25.0889263641
10
53.8962741232
20
25.1106317822
10
53.8534809846
20
25.1323566832
10
53.8103585989
20
25.1540629386
10
53.7669744445
20
25.1757124203
10
53.723396
20
25.197267
10
52.903248
20
25.601099
10
52.936106
20
26.339562
10
52.968964
20
27.078024
10
52.220547
20
27.537397
10
52.1799289035
20
27.5626597708
10
52.1378146986
20
27.5894894887
10
52.0943090279
20
27.6178052301
10
52.0495165344
20
27.6475260712
10
52.0035418609
20
27.6785710881
10
51.9564896501
20
27.7108593572
10
51.9084645448
20
27.7443099547
10
51.859571188
20
27.7788419567
10
51.8099142223
20
27.8143744395
10
51.7595982907
20
27.8508264794
10
51.7087280358
20
27.8881171525
10
51.6574081006
20
27.9261655352
10
51.6057431278
20
27.9648907036
10
51.5538377603
20
28.004211734
10
51.5017966408
20
28.0440477026
10
51.4497244122
20
28.0843176856
10
51.3977257173
20
28.1249407593
10
51.3459051989
20
28.1658359998
10
51.2943674998
20
28.2069224835
10
51.2432172628
20
28.2481192866
10
51.1925591308
20
28.2893454852
10
51.1424977465
20
28.3305201557
10
51.0931377527
20
28.3715623742
10
51.0445837923
20
28.412391217
10
50.9969405081
20
28.4529257604
10
50.9503125429
20
28.4930850804
10
50.9048045395
20
28.5327882535
10
50.8605211406
20
28.5719543557
10
50.8175669893
20
28.6105024634
10
50.7760467281
20
28.6483516527
10
50.736065
20
28.685421
10
50
20
29.374043
10
51.290847
20
31.810157
10
51.3594001284
20
31.9400801363
10
51.427577332
20
32.0703685294
10
51.4952742096
20
32.2007974944
10
51.5623863598
20
32.3311423464
10
51.6288093813
20
32.4611784006
10
51.6944388726
20
32.5906809719
10
51.7591704327
20
32.7194253756
10
51.8228996599
20
32.8471869266
10
51.8855221532
20
32.9737409401
10
51.946933511
20
33.0988627313
10
52.0070293322
20
33.2223276151
10
52.0657052153
20
33.3439109066
10
52.1228567591
20
33.463387921
10
52.1783795621
20
33.5805339734
10
52.2321692232
20
33.6951243789
10
52.2841213408
20
33.8069344525
10
52.3341315138
20
33.9157395094
10
52.3820953408
20
34.0213148646
10
52.4279084205
20
34.1234358332
10
52.4714663515
20
34.2218777304
10
52.5126647325
20
34.3164158712
10
52.5513991621
20
34.4068255708
10
52.5875652391
20
34.4928821441
10
52.6210585621
20
34.5743609064
10
52.6517747299
20
34.6510371727
10
52.6796093409
20
34.7226862581
10
52.704457994
20
34.7890834777
10
52.7262162878
20
34.8500041466
10
52.7447798209
20
34.9052235799
10
52.7600441921
20
34.9545170926
10
52.771905
20
34.99766
10
52.8009914017
20
35.1225934631
10
52.8313870398
20
35.2723321686
10
52.8629864994
20
35.4458008491
10
52.8956843653
20
35.6419242373
10
52.9293752227
20
35.8596270656
10
52.9639536566
20
36.0978340666
10
52.9993142519
20
36.3554699729
10
53.0353515937
20
36.6314595172
10
53.0719602669
20
36.9247274318
10
53.1090348567
20
37.2341984495
10
53.1464699479
20
37.5587973028
10
53.1841601256
20
37.8974487242
10
53.2219999749
20
38.2490774464
10
53.2598840807
20
38.6126082019
10
53.297707028
20
38.9869657232
10
53.3353634018
20
39.371074743
10
53.3727477872
20
39.7638599938
10
53.4097547691
20
40.1642462081
10
53.4462789326
20
40.5711581186
10
53.4822148627
20
40.9835204579
10
53.5174571444
20
41.4002579584
10
53.5519003626
20
41.8202953528
10
53.5854391025
20
42.2425573736
10
53.6179679489
20
42.6659687534
10
53.649381487
20
43.0894542248
10
53.6795743017
20
43.5119385203
10
53.7084409781
20
43.9323463725
10
53.7358761011
20
44.349602514
10
53.7617742557
20
44.7626316774
10
53.786030027
20
45.1703585952
10
53.808538
20
45.571708
10
53.8499309813
20
46.3295188377
10
53.8901031782
20
47.0551612968
10
53.9291890508
20
47.7502390384
10
53.9673230594
20
48.4163557233
10
54.0046396639
20
49.0551150125
10
54.0412733246
20
49.6681205671
10
54.0773585016
20
50.2569760479
10
54.1130296551
20
50.823285116
10
54.1484212451
20
51.3686514324
10
54.1836677318
20
51.8946786579
10
54.2189035754
20
52.4029704536
10
54.2542632359
20
52.8951304805
10
54.2898811736
20
53.3727623994
10
54.3258918486
20
53.8374698715
10
54.362429721
20
54.2908565576
10
54.3996292509
20
54.7345261188
10
54.4376248985
20
55.1700822159
10
54.476551124
20
55.59912851
10
54.5165423874
20
56.0232686621
10
54.5577331489
20
56.4441063331
10
54.6002578686
20
56.8632451839
10
54.6442510067
20
57.2822888756
10
54.6898470234
20
57.7028410692
10
54.7371803787
20
58.1265054255
10
54.7863855328
20
58.5548856057
10
54.8375969459
20
58.9895852705
10
54.890949078
20
59.4322080811
10
54.9465763893
20
59.8843576984
10
55.00461334
20
60.3476377833
10
55.0651943902
20
60.8236519968
10
55.128454
20
61.314004
10
55.1614701158
20
61.5696140515
10
55.1929162998
20
61.8156488862
10
55.2228123392
20
62.0523425569
10
55.2511780214
20
62.2799291164
10
55.2780331335
20
62.4986426175
10
55.3033974628
20
62.708717113
10
55.3272907966
20
62.9103866555
10
55.3497329221
20
63.1038852978
10
55.3707436266
20
63.2894470928
10
55.3903426973
20
63.4673060932
10
55.4085499214
20
63.6376963518
10
55.4253850863
20
63.8008519213
10
55.4408679791
20
63.9570068545
10
55.4550183872
20
64.1063952042
10
55.4678560978
20
64.2492510231
10
55.4794008981
20
64.385808364
10
55.4896725753
20
64.5163012797
10
55.4986909168
20
64.6409638229
10
55.5064757097
20
64.7600300464
10
55.5130467414
20
64.873734003
10
55.5184237991
20
64.9823097455
10
55.52262667
20
65.0859913265
10
55.5256751414
20
65.1850127989
10
55.5275890005
20
65.2796082155
10
55.5283880346
20
65.370011629
10
55.5280920309
20
65.4564570921
10
55.5267207768
20
65.5391786577
10
55.5242940593
20
65.6184103786
10
55.5208316659
20
65.6943863074
10
55.5163533837
20
65.7673404969
10
55.510879
20
65.837507
10
55.5049428718
20
65.9077985353
10
55.4995765613
20
65.9752089244
10
55.4947885024
20
66.0398256164
10
55.4905871286
20
66.1017360602
10
55.4869808739
20
66.1610277049
10
55.4839781719
20
66.2177879996
10
55.4815874564
20
66.2721043932
10
55.4798171612
20
66.3240643348
10
55.47867572
20
66.3737552734
10
55.4781715666
20
66.421264658
10
55.4783131346
20
66.4666799377
10
55.479108858
20
66.5100885615
10
55.4805671704
20
66.5515779785
10
55.4826965056
20
66.5912356376
10
55.4855052974
20
66.6291489878
10
55.4890019794
20
66.6654054783
10
55.4931949855
20
66.7000925581
10
55.4980927495
20
66.733297676
10
55.5037037049
20
66.7651082813
10
55.5100362858
20
66.7956118229
10
55.5170989257
20
66.8248957499
10
55.5249000584
20
66.8530475112
10
55.5334481177
20
66.880154556
10
55.5427515373
20
66.9063043332
10
55.5528187511
20
66.9315842918
10
55.5636581927
20
66.9560818809
10
55.5752782959
20
66.9798845496
10
55.5876874945
20
67.0030797468
10
55.6008942222
20
67.0257549216
10
55.6149069128
20
67.047997523
10
55.629734
20
67.069895
10
55.6403568855
20
67.0855660961
10
55.6508402349
20
67.1020311302
10
55.661169894
20
67.1192443335
10
55.6713317086
20
67.1371599373
10
55.6813115244
20
67.1557321731
10
55.6910951873
20
67.1749152722
10
55.7006685431
20
67.1946634659
10
55.7100174376
20
67.2149309856
10
55.7191277164
20
67.2356720626
10
55.7279852255
20
67.2568409283
10
55.7365758107
20
67.278391814
10
55.7448853177
20
67.300278951
10
55.7528995922
20
67.3224565707
10
55.7606044802
20
67.3448789045
10
55.7679858274
20
67.3675001836
10
55.7750294796
20
67.3902746395
10
55.7817212825
20
67.4131565034
10
55.7880470821
20
67.4361000068
10
55.793992724
20
67.459059381
10
55.799544054
20
67.4819888572
10
55.8046869181
20
67.5048426669
10
55.8094071618
20
67.5275750414
10
55.8136906311
20
67.5501402121
10
55.8175231718
20
67.5724924102
10
55.8208906295
20
67.5945858672
10
55.8237788502
20
67.6163748144
10
55.8261736796
20
67.6378134831
10
55.8280609634
20
67.6588561046
10
55.8294265476
20
67.6794569104
10
55.8302562779
20
67.6995701318
10
55.830536
20
67.71915
10
55.8301846486
20
67.7491369996
10
55.8290601104
20
67.7778592333
10
55.8270566597
20
67.8054141659
10
55.8240685708
20
67.8318992625
10
55.8199901178
20
67.8574119882
10
55.8147155752
20
67.8820498079
10
55.808139217
20
67.9059101866
10
55.8001553175
20
67.9290905893
10
55.790658151
20
67.9516884811
10
55.7795419917
20
67.9738013269
10
55.7667011139
20
67.9955265918
10
55.7520297918
20
68.0169617407
10
55.7354222996
20
68.0382042387
10
55.7167729117
20
68.0593515508
10
55.6959759021
20
68.080501142
10
55.6729255453
20
68.1017504772
10
55.6475161154
20
68.1231970215
10
55.6196418866
20
68.1449382399
10
55.5891971333
20
68.1670715975
10
55.5560761296
20
68.1896945591
10
55.5201731498
20
68.2129045898
10
55.4813824681
20
68.2367991547
10
55.4395983589
20
68.2614757187
10
55.3947150962
20
68.2870317468
10
55.3466269545
20
68.3135647041
10
55.2952282079
20
68.3411720555
10
55.2404131306
20
68.3699512661
10
55.1820759969
20
68.3999998008
10
55.1201110811
20
68.4314151247
10
55.0544126574
20
68.4642947028
10
54.984875
20
68.498736
10
54.9401379905
20
68.5209689226
10
54.8959885741
20
68.543250798
10
54.8524863628
20
68.5655435136
10
54.8096909684
20
68.5878089565
10
54.7676620029
20
68.6100090142
10
54.7264590782
20
68.6321055738
10
54.6861418061
20
68.6540605226
10
54.6467697986
20
68.675835748
10
54.6084026675
20
68.6973931372
10
54.5711000247
20
68.7186945774
10
54.5349214821
20
68.7397019561
10
54.4999266517
20
68.7603771604
10
54.4661751453
20
68.7806820776
10
54.4337265748
20
68.800578595
10
54.4026405522
20
68.8200285999
10
54.3729766892
20
68.8389939797
10
54.3447945979
20
68.8574366214
10
54.3181538901
20
68.8753184125
10
54.2931141776
20
68.8926012403
10
54.2697350725
20
68.9092469919
10
54.2480761866
20
68.9252175547
10
54.2281971317
20
68.940474816
10
54.2101575199
20
68.9549806631
10
54.1940169629
20
68.9686969831
10
54.1798350727
20
68.9815856635
10
54.1676714612
20
68.9936085915
10
54.1575857402
20
69.0047276543
10
54.1496375217
20
69.0149047393
10
54.1438864176
20
69.0241017337
10
54.1403920397
20
69.0322805249
10
54.139214
20
69.039403
10
54.1402781263
20
69.0470527279
10
54.143434607
20
69.0567954913
10
54.1486295945
20
69.0685664984
10
54.1558092412
20
69.0823009574
10
54.1649196997
20
69.0979340765
10
54.1759071223
20
69.115401064
10
54.1887176616
20
69.134637128
10
54.20329747
20
69.1555774769
10
54.2195927
20
69.1781573187
10
54.237549504
20
69.2023118617
10
54.2571140345
20
69.2279763142
10
54.278232444
20
69.2550858844
10
54.3008508848
20
69.2835757804
10
54.3249155096
20
69.3133812105
10
54.3503724707
20
69.3444373829
10
54.3771679206
20
69.3766795058
10
54.4052480118
20
69.4100427875
10
54.4345588967
20
69.4444624361
10
54.4650467277
20
69.4798736599
10
54.4966576575
20
69.516211667
10
54.5293378383
20
69.5534116658
10
54.5630334228
20
69.5914088645
10
54.5976905633
20
69.6301384711
10
54.6332554122
20
69.669535694
10
54.6696741222
20
69.7095357414
10
54.7068928456
20
69.7500738215
10
54.7448577348
20
69.7910851425
10
54.7835149424
20
69.8325049127
10
54.8228106209
20
69.8742683401
10
54.8626909226
20
69.9163106332
10
54.903102
20
69.958567
10
54.9818832055
20
70.0416772693
10
55.05861119
20
70.1248166131
10
55.1333536672
20
70.2081029323
10
55.2061783506
20
70.2916541275
10
55.2771529536
20
70.3755880997
10
55.34634519
20
70.4600227495
10
55.4138227731
20
70.5450759777
10
55.4796534165
20
70.6308656851
10
55.5439048337
20
70.7175097725
10
55.6066447384
20
70.8051261407
10
55.667940844
20
70.8938326904
10
55.7278608641
20
70.9837473224
10
55.7864725122
20
71.0749879375
10
55.8438435018
20
71.1676724364
10
55.9000415465
20
71.26191872
10
55.9551343598
20
71.357844689
10
56.0091896553
20
71.4555682441
10
56.0622751465
20
71.5552072863
10
56.1144585469
20
71.6568797161
10
56.1658075701
20
71.7607034345
10
56.2163899296
20
71.8667963422
10
56.266273339
20
71.9752763399
10
56.3155255117
20
72.0862613284
10
56.3642141614
20
72.1998692086
10
56.4124070015
20
72.3162178811
10
56.4601717456
20
72.4354252469
10
56.5075761073
20
72.5576092065
10
56.5546878
20
72.6828876609
10
56.6015745373
20
72.8113785107
10
56.6483040328
20
72.9431996568
10
56.694944
20
73.078469
10
56.731209285
20
73.1854046531
10
56.7650272565
20
73.2859747348
10
56.7963895726
20
73.380394219
10
56.8252878916
20
73.4688780794
10
56.8517138719
20
73.55164129
10
56.8756591718
20
73.6288988245
10
56.8971154494
20
73.7008656569
10
56.9160743631
20
73.767756761
10
56.9325275712
20
73.8297871106
10
56.946466732
20
73.8871716797
10
56.9578835038
20
73.9401254419
10
56.9667695448
20
73.9888633713
10
56.9731165133
20
74.0336004416
10
56.9769160676
20
74.0745516268
10
56.978159866
20
74.1119319005
10
56.9768395669
20
74.1459562368
10
56.9729468283
20
74.1768396094
10
56.9664733088
20
74.2047969923
10
56.9574106665
20
74.2300433592
10
56.9457505597
20
74.252793684
10
56.9314846467
20
74.2732629405
10
56.9146045859
20
74.2916661027
10
56.8951020354
20
74.3082181443
10
56.8729686536
20
74.3231340392
10
56.8481960988
20
74.3366287613
10
56.8207760292
20
74.3489172844
10
56.7907001032
20
74.3602145824
10
56.7579599789
20
74.3707356291
10
56.7225473148
20
74.3806953984
10
56.6844537691
20
74.3903088641
10
56.643671
20
74.399791
10
56.5432688227
20
74.4225479538
10
56.4474930551
20
74.4445706016
10
56.3561774241
20
74.465921913
10
56.2691556568
20
74.4866648577
10
56.1862614803
20
74.5068624055
10
56.1073286216
20
74.5265775259
10
56.0321908077
20
74.5458731886
10
55.9606817657
20
74.5648123635
10
55.8926352225
20
74.5834580201
10
55.8278849052
20
74.6018731282
10
55.7662645409
20
74.6201206573
10
55.7076078565
20
74.6382635774
10
55.6517485791
20
74.6563648579
10
55.5985204358
20
74.6744874686
10
55.5477571535
20
74.6926943792
10
55.4992924594
20
74.7110485594
10
55.4529600803
20
74.7296129789
10
55.4085937434
20
74.7484506073
10
55.3660271758
20
74.7676244143
10
55.3250941043
20
74.7871973697
10
55.2856282561
20
74.8072324431
10
55.2474633582
20
74.8277926042
10
55.2104331376
20
74.8489408228
10
55.1743713213
20
74.8707400684
10
55.1391116364
20
74.8932533108
10
55.10448781
20
74.9165435196
10
55.070333569
20
74.9406736646
10
55.0364826404
20
74.9657067155
10
55.0027687514
20
74.9917056419
10
54.9690256289
20
75.0187334135
10
54.935087
20
75.046853
10
54.9143030628
20
75.0649059319
10
54.8931633734
20
75.0843680803
10
54.8717112764
20
75.1051744099
10
54.8499901162
20
75.1272598856
10
54.8280432376
20
75.1505594719
10
54.8059139851
20
75.1750081337
10
54.7836457031
20
75.2005408356
10
54.7612817364
20
75.2270925424
10
54.7388654294
20
75.2545982188
10
54.7164401268
20
75.2829928295
10
54.694049173
20
75.3122113392
10
54.6717359128
20
75.3421887127
10
54.6495436905
20
75.3728599146
10
54.6275158509
20
75.4041599097
10
54.6056957384
20
75.4360236628
10
54.5841266976
20
75.4683861385
10
54.5628520732
20
75.5011823015
10
54.5419152096
20
75.5343471166
10
54.5213594515
20
75.5678155485
10
54.5012281433
20
75.6015225619
10
54.4815646297
20
75.6354031216
10
54.4624122553
20
75.6693921922
10
54.4438143645
20
75.7034247385
10
54.4258143021
20
75.7374357253
10
54.4084554124
20
75.7713601171
10
54.3917810402
20
75.8051328788
10
54.37583453
20
75.838688975
10
54.3606592262
20
75.8719633705
10
54.3462984736
20
75.90489103
10
54.3327956167
20
75.9374069183
10
54.320194
20
75.969446
10
54.3000931577
20
76.0224216294
10
54.2813247743
20
76.072771449
10
54.2638865494
20
76.1207699529
10
54.2477761821
20
76.1666916354
10
54.232991372
20
76.2108109904
10
54.2195298184
20
76.2534025122
10
54.2073892206
20
76.2947406947
10
54.1965672781
20
76.3351000322
10
54.1870616902
20
76.3747550186
10
54.1788701562
20
76.4139801482
10
54.1719903756
20
76.4530499151
10
54.1664200477
20
76.4922388133
10
54.1621568719
20
76.5318213369
10
54.1591985476
20
76.5720719801
10
54.1575427741
20
76.613265237
10
54.1571872509
20
76.6556756017
10
54.1581296772
20
76.6995775683
10
54.1603677524
20
76.7452456308
10
54.163899176
20
76.7929542835
10
54.1687216473
20
76.8429780204
10
54.1748328656
20
76.8955913356
10
54.1822305304
20
76.9510687233
10
54.190912341
20
77.0096846775
10
54.2008759968
20
77.0717136924
10
54.2121191972
20
77.137430262
10
54.2246396415
20
77.2071088805
10
54.2384350291
20
77.281024042
10
54.2535030594
20
77.3594502406
10
54.2698414317
20
77.4426619704
10
54.2874478455
20
77.5309337255
10
54.30632
20
77.62454
10
54.3206197446
20
77.6965389205
10
54.3342247098
20
77.7678240574
10
54.3471381706
20
77.8384471669
10
54.3593634017
20
77.9084600055
10
54.370903678
20
77.9779143295
10
54.3817622742
20
78.0468618953
10
54.3919424652
20
78.1153544592
10
54.4014475258
20
78.1834437777
10
54.4102807308
20
78.251181607
10
54.418445355
20
78.3186197036
10
54.4259446732
20
78.3858098238
10
54.4327819603
20
78.4528037241
10
54.4389604911
20
78.5196531607
10
54.4444835403
20
78.58640989
10
54.4493543829
20
78.6531256685
10
54.4535762935
20
78.7198522524
10
54.4571525471
20
78.7866413982
10
54.4600864184
20
78.8535448622
10
54.4623811822
20
78.9206144008
10
54.4640401135
20
78.9879017703
10
54.4650664869
20
79.0554587272
10
54.4654635772
20
79.1233370278
10
54.4652346595
20
79.1915884284
10
54.4643830083
20
79.2602646854
10
54.4629118986
20
79.3294175553
10
54.4608246051
20
79.3990987943
10
54.4581244027
20
79.4693601589
10
54.4548145661
20
79.5402534054
10
54.4508983703
20
79.6118302902
10
54.44637909
20
79.6841425696
10
54.44126
20
79.757242
10
54.4347849226
20
79.8473854535
10
54.4289905087
20
79.9334196053
10
54.4239153408
20
80.0156389164
10
54.4195980013
20
80.0943378477
10
54.4160770724
20
80.1698108604
10
54.4133911367
20
80.2423524154
10
54.4115787765
20
80.3122569736
10
54.4106785742
20
80.3798189963
10
54.4107291122
20
80.4453329442
10
54.4117689728
20
80.5090932786
10
54.4138367386
20
80.5713944603
10
54.4169709918
20
80.6325309504
10
54.4212103148
20
80.6927972098
10
54.4265932901
20
80.7524876997
10
54.4331585
20
80.811896881
10
54.440944527
20
80.8713192147
10
54.4499899534
20
80.9310491619
10
54.4603333615
20
80.9913811835
10
54.4720133339
20
81.0526097406
10
54.4850684529
20
81.1150292941
10
54.4995373008
20
81.1789343052
10
54.5154584601
20
81.2446192347
10
54.5328705132
20
81.3123785438
10
54.5518120424
20
81.3825066934
10
54.5723216302
20
81.4552981445
10
54.5944378589
20
81.5310473581
10
54.6181993109
20
81.6100487953
10
54.6436445686
20
81.6925969171
10
54.6708122145
20
81.7789861845
10
54.6997408308
20
81.8695110584
10
54.730469
20
81.964466
10
54.7542916479
20
82.0365084428
10
54.7788603293
20
82.1084663893
10
54.8041692792
20
82.1803281862
10
54.8302127329
20
82.2520821801
10
54.8569849258
20
82.3237167175
10
54.8844800929
20
82.3952201451
10
54.9126924697
20
82.4665808096
10
54.9416162912
20
82.5377870575
10
54.9712457928
20
82.6088272354
10
55.0015752096
20
82.67968969
10
55.0325987769
20
82.7503627679
10
55.06431073
20
82.8208348157
10
55.0967053041
20
82.89109418
10
55.1297767345
20
82.9611292073
10
55.1635192563
20
83.0309282445
10
55.1979271048
20
83.1004796379
10
55.2329945153
20
83.1697717344
10
55.2687157229
20
83.2387928804
10
55.305084963
20
83.3075314226
10
55.3420964707
20
83.3759757076
10
55.3797444814
20
83.4441140821
10
55.4180232301
20
83.5119348926
10
55.4569269523
20
83.5794264857
10
55.4964498831
20
83.6465772081
10
55.5365862577
20
83.7133754064
10
55.5773303115
20
83.7798094271
10
55.6186762796
20
83.845867617
10
55.6606183972
20
83.9115383226
10
55.7031508997
20
83.9768098906
10
55.7462680222
20
84.0416706675
10
55.789964
20
84.106109
10
55.8573695238
20
84.2052717606
10
55.9209683029
20
84.3004141152
10
55.980798681
20
84.3916806567
10
56.0368990019
20
84.4792159781
10
56.0893076091
20
84.5631646722
10
56.1380628466
20
84.643671332
10
56.183203058
20
84.7208805504
10
56.2247665871
20
84.7949369204
10
56.2627917775
20
84.8659850348
10
56.2973169731
20
84.9341694867
10
56.3283805174
20
84.999634869
10
56.3560207543
20
85.0625257745
10
56.3802760275
20
85.1229867962
10
56.4011846807
20
85.181162527
10
56.4187850577
20
85.23719756
10
56.4331155021
20
85.2912364879
10
56.4442143578
20
85.3434239038
10
56.4521199683
20
85.3939044005
10
56.4568706775
20
85.442822571
10
56.4585048291
20
85.4903230083
10
56.4570607668
20
85.5365503052
10
56.4525768343
20
85.5816490546
10
56.4450913754
20
85.6257638497
10
56.4346427338
20
85.6690392831
10
56.4212692533
20
85.7116199479
10
56.4050092774
20
85.7536504371
10
56.3859011501
20
85.7952753435
10
56.3639832149
20
85.83663926
10
56.3392938157
20
85.8778867797
10
56.3118712962
20
85.9191624954
10
56.281754
20
85.960611
10
56.2574366285
20
85.9929738804
10
56.2348451969
20
86.0236191751
10
56.2140176971
20
86.0527063807
10
56.1949921208
20
86.0803949938
10
56.17780646
20
86.106844511
10
56.1624987065
20
86.1322144287
10
56.1491068523
20
86.1566642436
10
56.1376688892
20
86.1803534521
10
56.1282228091
20
86.203441551
10
56.1208066038
20
86.2260880367
10
56.1154582653
20
86.2484524058
10
56.1122157854
20
86.2706941548
10
56.1111171559
20
86.2929727803
10
56.1122003689
20
86.3154477789
10
56.1155034161
20
86.3382786471
10
56.1210642894
20
86.3616248815
10
56.1289209807
20
86.3856459787
10
56.1391114819
20
86.4105014351
10
56.1516737849
20
86.4363507474
10
56.1666458814
20
86.4633534121
10
56.1840657635
20
86.4916689259
10
56.203971423
20
86.5214567851
10
56.2264008517
20
86.5528764865
10
56.2513920416
20
86.5860875265
10
56.2789829844
20
86.6212494017
10
56.3092116722
20
86.6585216087
10
56.3421160967
20
86.6980636441
10
56.3777342499
20
86.7400350043
10
56.4161041236
20
86.784595186
10
56.4572637096
20
86.8319036857
10
56.501251
20
86.88212
10
56.5428353419
20
86.9283913982
10
56.5857864385
20
86.9740557957
10
56.6300562995
20
87.0190844643
10
56.6755969345
20
87.0634486758
10
56.7223603533
20
87.1071197021
10
56.7702985655
20
87.1500688151
10
56.8193635808
20
87.1922672866
10
56.8695074087
20
87.2336863885
10
56.9206820591
20
87.2742973927
10
56.9728395415
20
87.3140715709
10
57.0259318657
20
87.3529801952
10
57.0799110412
20
87.3909945373
10
57.1347290778
20
87.4280858691
10
57.1903379852
20
87.4642254624
10
57.2466897729
20
87.4993845891
10
57.3037364508
20
87.5335345212
10
57.3614300283
20
87.5666465303
10
57.4197225153
20
87.5986918885
10
57.4785659213
20
87.6296418675
10
57.5379122561
20
87.6594677393
10
57.5977135293
20
87.6881407756
10
57.6579217505
20
87.7156322483
10
57.7184889295
20
87.7419134294
10
57.7793670759
20
87.7669555906
10
57.8405081993
20
87.7907300039
10
57.9018643095
20
87.813207941
10
57.9633874161
20
87.8343606739
10
58.0250295288
20
87.8541594743
10
58.0867426572
20
87.8725756143
10
58.1484788111
20
87.8895803655
10
58.21019
20
87.905145
10
58.2801190023
20
87.9225534662
10
58.352011305
20
87.941581052
10
58.425578335
20
87.9621066837
10
58.5005315198
20
87.9840092872
10
58.5765822864
20
88.0071677888
10
58.6534420622
20
88.0314611145
10
58.7308222742
20
88.0567681904
10
58.8084343498
20
88.0829679428
10
58.8859897161
20
88.1099392976
10
58.9631998003
20
88.1375611811
10
59.0397760296
20
88.1657125193
10
59.1154298314
20
88.1942722383
10
59.1898726326
20
88.2231192643
10
59.2628158607
20
88.2521325234
10
59.3339709427
20
88.2811909417
10
59.403049306
20
88.3101734454
10
59.4697623776
20
88.3389589605
10
59.5338215848
20
88.3674264131
10
59.5949383549
20
88.3954547294
10
59.652824115
20
88.4229228356
10
59.7071902923
20
88.4497096576
10
59.7577483141
20
88.4756941217
10
59.8042096076
20
88.500755154
10
59.8462855999
20
88.5247716805
10
59.8836877183
20
88.5476226275
10
59.9161273899
20
88.5691869209
10
59.9433160421
20
88.589343487
10
59.964965102
20
88.6079712518
10
59.9807859968
20
88.6249491415
10
59.9904901537
20
88.6401560822
10
59.993789
20
88.653471
10
59.9934128508
20
88.6603970532
10
59.9922957026
20
88.6669725409
10
59.9904545041
20
88.6731950038
10
59.9879062043
20
88.6790619825
10
59.984667752
20
88.6845710178
10
59.9807560961
20
88.6897196503
10
59.9761881855
20
88.6945054206
10
59.9709809691
20
88.6989258695
10
59.9651513958
20
88.7029785375
10
59.9587164143
20
88.7066609654
10
59.9516929737
20
88.7099706939
10
59.9440980227
20
88.7129052635
10
59.9359485103
20
88.715462215
10
59.9272613854
20
88.717639089
10
59.9180535967
20
88.7194334262
10
59.9083420932
20
88.7208427673
10
59.8981438238
20
88.7218646529
10
59.8874757373
20
88.7224966237
10
59.8763547827
20
88.7227362204
10
59.8647979087
20
88.7225809836
10
59.8528220644
20
88.7220284539
10
59.8404441984
20
88.7210761722
10
59.8276812598
20
88.7197216789
10
59.8145501974
20
88.7179625149
10
59.8010679601
20
88.7157962207
10
59.7872514967
20
88.713220337
10
59.7731177562
20
88.7102324046
10
59.7586836874
20
88.706829964
10
59.7439662392
20
88.7030105559
10
59.7289823604
20
88.698771721
10
59.713749
20
88.694111
10
59.6376194153
20
88.671925997
10
59.559732424
20
88.6530672922
10
59.4802696064
20
88.6374857936
10
59.3994125423
20
88.6251324092
10
59.3173428117
20
88.6159580469
10
59.2342419947
20
88.6099136149
10
59.1502916713
20
88.606950021
10
59.0656734215
20
88.6070181733
10
58.9805688252
20
88.6100689798
10
58.8951594626
20
88.6160533484
10
58.8096269135
20
88.6249221871
10
58.724152758
20
88.636626404
10
58.6389185762
20
88.651116907
10
58.554105948
20
88.6683446041
10
58.4698964534
20
88.6882604033
10
58.3864716725
20
88.7108152127
10
58.3040131852
20
88.7359599401
10
58.2227025716
20
88.7636454936
10
58.1427214116
20
88.7938227812
10
58.0642512853
20
88.8264427109
10
57.9874737726
20
88.8614561907
10
57.9125704537
20
88.8988141285
10
57.8397229084
20
88.9384674323
10
57.7691127168
20
88.9803670102
10
57.700921459
20
89.0244637701
10
57.6353307148
20
89.0707086201
10
57.5725220644
20
89.1190524681
10
57.5126770877
20
89.169446222
10
57.4559773647
20
89.22184079
10
57.4026044755
20
89.27618708
10
57.35274
20
89.332436
10
57.2809635433
20
89.4187817561
10
57.2122211834
20
89.5034664338
10
57.1463829192
20
89.5867940828
10
57.0833187496
20
89.6690687526
10
57.0228986734
20
89.7505944928
10
56.9649926897
20
89.8316753532
10
56.9094707974
20
89.9126153832
10
56.8562029954
20
89.9937186325
10
56.8050592826
20
90.0752891507
10
56.7559096579
20
90.1576309874
10
56.7086241204
20
90.2410481923
10
56.6630726688
20
90.3258448149
10
56.6191253021
20
90.4123249048
10
56.5766520193
20
90.5007925118
10
56.5355228193
20
90.5915516853
10
56.495607701
20
90.684906475
10
56.4567766633
20
90.7811609305
10
56.4188997051
20
90.8806191014
10
56.3818468255
20
90.9835850374
10
56.3454880232
20
91.090362788
10
56.3096932973
20
91.2012564028
10
56.2743326466
20
91.3165699315
10
56.2392760702
20
91.4366074237
10
56.2043935668
20
91.561672929
10
56.1695551354
20
91.692070497
10
56.1346307751
20
91.8281041773
10
56.0994904846
20
91.9700780195
10
56.0640042629
20
92.1182960733
10
56.028042109
20
92.2730623882
10
55.9914740217
20
92.4346810139
10
55.95417
20
92.603456
10
55.9397506479
20
92.6677609877
10
55.9243427668
20
92.7333812815
10
55.9079912326
20
92.800187942
10
55.8907409211
20
92.8680520295
10
55.8726367082
20
92.9368446048
10
55.8537234697
20
93.0064367282
10
55.8340460814
20
93.0766994603
10
55.8136494191
20
93.1475038617
10
55.7925783588
20
93.2187209928
10
55.7708777762
20
93.2902219142
10
55.7485925471
20
93.3618776864
10
55.7257675474
20
93.4335593699
10
55.702447653
20
93.5051380252
10
55.6786777396
20
93.5764847129
10
55.6545026832
20
93.6474704935
10
55.6299673595
20
93.7179664274
10
55.6051166443
20
93.7878435753
10
55.5799954136
20
93.8569729977
10
55.5546485431
20
93.925225755
10
55.5291209087
20
93.9924729078
10
55.5034573862
20
94.0585855166
10
55.4777028514
20
94.1234346419
10
55.4519021802
20
94.1868913443
10
55.4261002485
20
94.2488266843
10
55.400341932
20
94.3091117224
10
55.3746721065
20
94.367617519
10
55.3491356481
20
94.4242151349
10
55.3237774323
20
94.4787756304
10
55.2986423352
20
94.531170066
10
55.2737752324
20
94.5812695024
10
55.249221
20
94.628945
10
55.2253529608
20
94.6749157316
10
55.2015572732
20
94.721790647
10
55.1778717437
20
94.7694709559
10
55.1543341786
20
94.817857868
10
55.1309823843
20
94.8668525932
10
55.1078541672
20
94.9163563412
10
55.0849873337
20
94.9662703217
10
55.0624196901
20
95.0164957446
10
55.0401890428
20
95.0669338195
10
55.0183331983
20
95.1174857563
10
54.9968899629
20
95.1680527646
10
54.975897143
20
95.2185360543
10
54.955392545
20
95.2688368352
10
54.9354139752
20
95.3188563169
10
54.9159992401
20
95.3684957093
10
54.897186146
20
95.417656222
10
54.8790124993
20
95.466239065
10
54.8615161064
20
95.5141454479
10
54.8447347738
20
95.5612765804
10
54.8287063076
20
95.6075336724
10
54.8134685145
20
95.6528179336
10
54.7990592007
20
95.6970305738
10
54.7855161726
20
95.7400728028
10
54.7728772366
20
95.7818458302
10
54.7611801991
20
95.8222508659
10
54.7504628665
20
95.8611891196
10
54.7407630451
20
95.898561801
10
54.7321185414
20
95.9342701201
10
54.7245671617
20
95.9682152864
10
54.7181467125
20
96.0002985098
10
54.712895
20
96.030421
10
54.6976355392
20
96.1219876802
10
54.6824202893
20
96.2057207434
10
54.6672801753
20
96.2816751429
10
54.652246122
20
96.3499058318
10
54.6373490542
20
96.4104677635
10
54.6226198968
20
96.4634158911
10
54.6080895747
20
96.5088051679
10
54.5937890125
20
96.5466905472
10
54.5797491353
20
96.5771269821
10
54.5660008679
20
96.600169426
10
54.552575135
20
96.6158728321
10
54.5395028616
20
96.6242921536
10
54.5268149724
20
96.6254823437
10
54.5145423924
20
96.6194983557
10
54.5027160463
20
96.6063951429
10
54.491366859
20
96.5862276584
10
54.4805257554
20
96.5590508555
10
54.4702236603
20
96.5249196875
10
54.4604914985
20
96.4838891076
10
54.4513601949
20
96.436014069
10
54.4428606743
20
96.3813495251
10
54.4350238615
20
96.3199504289
10
54.4278806815
20
96.2518717338
10
54.421462059
20
96.177168393
10
54.415798919
20
96.0958953597
10
54.4109221861
20
96.0081075872
10
54.4068627854
20
95.9138600288
10
54.4036516415
20
95.8132076376
10
54.4013196795
20
95.7062053669
10
54.399897824
20
95.59290817
10
54.399417
20
95.473371
10
54.3992580822
20
95.407579821
10
54.3987866899
20
95.3426527919
10
54.3980108647
20
95.2786775775
10
54.3969386483
20
95.2157418429
10
54.3955780822
20
95.1539332529
10
54.3939372081
20
95.0933394724
10
54.3920240676
20
95.0340481665
10
54.3898467024
20
94.976147
10
54.387413154
20
94.9197236379
10
54.3847314641
20
94.8648657451
10
54.3818096743
20
94.8116609865
10
54.3786558262
20
94.7601970271
10
54.3752779615
20
94.7105615317
10
54.3716841218
20
94.6628421655
10
54.3678823486
20
94.6171265931
10
54.3638806837
20
94.5735024797
10
54.3596871686
20
94.5320574901
10
54.3553098449
20
94.4928792893
10
54.3507567544
20
94.4560555421
10
54.3460359386
20
94.4216739136
10
54.3411554391
20
94.3898220687
10
54.3361232976
20
94.3605876722
10
54.3309475557
20
94.3340583892
10
54.3256362549
20
94.3103218845
10
54.320197437
20
94.2894658231
10
54.3146391436
20
94.2715778699
10
54.3089694162
20
94.2567456899
10
54.3031962966
20
94.245056948
10
54.2973278262
20
94.2365993091
10
54.2913720468
20
94.2314604381
10
54.285337
20
94.229728
10
54.2789171589
20
94.2306224698
10
54.2718199781
20
94.2332757046
10
54.2640729709
20
94.2376424422
10
54.2557036509
20
94.2436774204
10
54.2467395315
20
94.2513353772
10
54.2372081262
20
94.2605710505
10
54.2271369485
20
94.271339178
10
54.2165535118
20
94.2835944977
10
54.2054853297
20
94.2972917474
10
54.1939599156
20
94.3123856651
10
54.1820047831
20
94.3288309885
10
54.1696474454
20
94.3465824556
10
54.1569154163
20
94.3655948043
10
54.143836209
20
94.3858227724
10
54.1304373372
20
94.4072210977
10
54.1167463142
20
94.4297445183
10
54.1027906536
20
94.4533477718
10
54.0885978689
20
94.4779855963
10
54.0741954734
20
94.5036127296
10
54.0596109807
20
94.5301839095
10
54.0448719043
20
94.557653874
10
54.0300057577
20
94.5859773608
10
54.0150400542
20
94.615109108
10
54.0000023075
20
94.6450038532
10
53.984920031
20
94.6756163346
10
53.969820738
20
94.7069012898
10
53.9547319423
20
94.7388134568
10
53.9396811571
20
94.7713075734
10
53.924695896
20
94.8043383776
10
53.9098036725
20
94.8378606072
10
53.895032
20
94.871829
10
53.8297201557
20
95.0394022014
10
53.7733330126
20
95.2171032501
10
53.7257352845
20
95.4043017001
10
53.686791685
20
95.6003671052
10
53.6563669278
20
95.8046690193
10
53.6343257267
20
96.0165769963
10
53.6205327953
20
96.2354605901
10
53.6148528474
20
96.4606893546
10
53.6171505966
20
96.6916328437
10
53.6272907567
20
96.9276606112
10
53.6451380413
20
97.1681422111
10
53.6705571642
20
97.4124471973
10
53.7034128391
20
97.6599451236
10
53.7435697797
20
97.910005544
10
53.7908926997
20
98.1619980123
10
53.8452463128
20
98.4152920824
10
53.9064953326
20
98.6692573082
10
53.974504473
20
98.9232632437
10
54.0491384476
20
99.1766794427
10
54.1302619701
20
99.428875459
10
54.2177397542
20
99.6792208466
10
54.3114365137
20
99.9270851594
10
54.4112169622
20
100.171837951
10
54.5169458134
20
100.412848776
10
54.6284877811
20
100.649487188
10
54.7457075789
20
100.88112274
10
54.8684699206
20
101.107124987
10
54.9966395198
20
101.326863483
10
55.1300810904
20
101.539707781
10
55.2686593458
20
101.745027435
10
55.412239
20
101.942192
10
55.470314439
20
102.016042382
10
55.5351965681
20
102.093316896
10
55.6064960734
20
102.17371121
10
55.6838236407
20
102.256920988
10
55.7667899562
20
102.342641899
10
55.8550057057
20
102.430569608
10
55.9480815752
20
102.520399781
10
56.0456282507
20
102.611828086
10
56.1472564183
20
102.704550188
10
56.2525767637
20
102.798261754
10
56.3611999732
20
102.89265845
10
56.4727367326
20
102.987435942
10
56.5867977279
20
103.082289898
10
56.7029936451
20
103.176915984
10
56.8209351702
20
103.271009865
10
56.9402329891
20
103.364267209
10
57.0604977878
20
103.456383681
10
57.1813402523
20
103.547054949
10
57.3023710686
20
103.635976678
10
57.4232009227
20
103.722844535
10
57.5434405005
20
103.807354186
10
57.6627004881
20
103.889201298
10
57.7805915714
20
103.968081537
10
57.8967244363
20
104.04369057
10
58.0107097689
20
104.115724063
10
58.1221582551
20
104.183877683
10
58.2306805809
20
104.247847095
10
58.3358874323
20
104.307327966
10
58.4373894954
20
104.362015963
10
58.5347974559
20
104.411606752
10
58.627722
20
104.455796
10
58.7071423029
20
104.490227234
10
58.7932512831
20
104.524071808
10
58.8856162731
20
104.557268023
10
58.9838046059
20
104.589754186
10
59.0873836141
20
104.6214686
10
59.1959206305
20
104.652349569
10
59.3089829878
20
104.682335397
10
59.4261380188
20
104.711364389
10
59.5469530563
20
104.739374849
10
59.6709954329
20
104.766305081
10
59.7978324815
20
104.792093389
10
59.9270315348
20
104.816678078
10
60.0581599256
20
104.839997451
10
60.1907849865
20
104.861989813
10
60.3244740505
20
104.882593468
10
60.4587944501
20
104.90174672
10
60.5933135181
20
104.919387873
10
60.7275985874
20
104.935455232
10
60.8612169907
20
104.9498871
10
60.9937360606
20
104.962621782
10
61.12472313
20
104.973597583
10
61.2537455317
20
104.982752805
10
61.3803705983
20
104.990025754
10
61.5041656626
20
104.995354734
10
61.6246980574
20
104.998678048
10
61.7415351154
20
104.999934002
10
61.8542441693
20
104.999060898
10
61.962392552
20
104.995997042
10
62.0655475962
20
104.990680738
10
62.1632766346
20
104.983050289
10
62.255147
20
104.973044
10
62.3540761004
20
104.959282793
10
62.459351387
20
104.942259467
10
62.5704210313
20
104.922152236
10
62.686733205
20
104.899139318
10
62.8077360796
20
104.873398926
10
62.9328778268
20
104.845109278
10
63.0616066181
20
104.814448587
10
63.1933706251
20
104.781595071
10
63.3276180195
20
104.746726944
10
63.4637969728
20
104.710022422
10
63.6013556566
20
104.671659721
10
63.7397422426
20
104.631817056
10
63.8784049023
20
104.590672642
10
64.0167918072
20
104.548404696
10
64.1543511291
20
104.505191433
10
64.2905310395
20
104.461211068
10
64.4247797099
20
104.416641818
10
64.5565453121
20
104.371661897
10
64.6852760176
20
104.326449521
10
64.8104199979
20
104.281182906
10
64.9314254247
20
104.236040267
10
65.0477404696
20
104.19119982
10
65.1588133041
20
104.14683978
10
65.2640920999
20
104.103138364
10
65.3630250286
20
104.060273786
10
65.4550602617
20
104.018424262
10
65.5396459709
20
103.977768008
10
65.6162303277
20
103.938483239
10
65.6842615038
20
103.900748171
10
65.7431876707
20
103.86474102
10
65.792457
20
103.83064
10
66.0516120547
20
103.634796096
10
66.2968513651
20
103.444787589
10
66.5285925375
20
103.259717352
10
66.7472531782
20
103.078688258
10
66.9532508935
20
102.90080318
10
67.1470032897
20
102.725164991
10
67.3289279732
20
102.550876562
10
67.4994425503
20
102.377040768
10
67.6589646273
20
102.202760481
10
67.8079118105
20
102.027138573
10
67.9467017063
20
101.849277919
10
68.075751921
20
101.668281389
10
68.1954800609
20
101.483251858
10
68.3063037324
20
101.293292198
10
68.4086405417
20
101.097505282
10
68.5029080952
20
100.894993982
10
68.5895239992
20
100.684861172
10
68.66890586
20
100.466209724
10
68.741471284
20
100.238142511
10
68.8076378774
20
99.9997624061
10
68.8678232467
20
99.750172282
10
68.9224449981
20
99.4884750114
10
68.971920738
20
99.2137734672
10
69.0166680726
20
98.9251705221
10
69.0571046083
20
98.621769049
10
69.0936479515
20
98.3026719208
10
69.1267157084
20
97.9669820101
10
69.1567254854
20
97.6138021899
10
69.1840948888
20
97.242235333
10
69.2092415249
20
96.851384312
10
69.232583
20
96.440352
10
69.2575817579
20
96.0018955987
10
69.2851886759
20
95.5713573643
10
69.3154371402
20
95.1485708475
10
69.3483605366
20
94.7333695991
10
69.3839922511
20
94.32558717
10
69.4223656698
20
93.9250571109
10
69.4635141786
20
93.5316129727
10
69.5074711635
20
93.1450883061
10
69.5542700106
20
92.765316662
10
69.6039441057
20
92.3921315912
10
69.6565268349
20
92.0253666444
10
69.7120515842
20
91.6648553724
10
69.7705517396
20
91.3104313262
10
69.832060687
20
90.9619280564
10
69.8966118124
20
90.6191791139
10
69.9642385019
20
90.2820180495
10
70.0349741414
20
89.950278414
10
70.1088521168
20
89.6237937581
10
70.1859058143
20
89.3023976328
10
70.2661686198
20
88.9859235887
10
70.3496739193
20
88.6742051768
10
70.4364550987
20
88.3670759478
10
70.5265455441
20
88.0643694525
10
70.6199786414
20
87.7659192417
10
70.7167877766
20
87.4715588662
10
70.8170063358
20
87.1811218768
10
70.9206677048
20
86.8944418244
10
71.0278052698
20
86.6113522597
10
71.1384524167
20
86.3316867335
10
71.2526425314
20
86.0552787967
10
71.370409
20
85.781962
10
71.4618434048
20
85.5737368342
10
71.5475075955
20
85.3773536001
10
71.6276152621
20
85.1914728534
10
71.7023800948
20
85.0147551503
10
71.7720157836
20
84.8458610465
10
71.8367360187
20
84.6834510981
10
71.8967544902
20
84.526185861
10
71.9522848882
20
84.3727258911
10
72.0035409027
20
84.2217317444
10
72.050736224
20
84.0718639768
10
72.0940845421
20
83.9217831442
10
72.1337995471
20
83.7701498026
10
72.1700949291
20
83.615624508
10
72.2031843783
20
83.4568678162
10
72.2332815847
20
83.2925402832
10
72.2606002384
20
83.121302465
10
72.2853540296
20
82.9418149174
10
72.3077566484
20
82.7527381965
10
72.3280217849
20
82.5527328581
10
72.3463631291
20
82.3404594583
10
72.3629943712
20
82.1145785529
10
72.3781292013
20
81.8737506979
10
72.3919813096
20
81.6166364492
10
72.404764386
20
81.3418963627
10
72.4166921207
20
81.0481909945
10
72.4279782039
20
80.7341809004
10
72.4388363256
20
80.3985266364
10
72.449480176
20
80.0398887584
10
72.4601234451
20
79.6569278224
10
72.4709798231
20
79.2483043843
10
72.482263
20
78.812679
10
72.4932366496
20
78.3873683123
10
72.5037009626
20
77.9888731363
10
72.513875437
20
77.6156738996
10
72.5239795708
20
77.2662510294
10
72.5342328619
20
76.9390849533
10
72.5448548083
20
76.6326560987
0
LWPOLYLINE
5
59
100
AcDbEntity
8
Engraving
6
ByLayer
62
256
370
-1
100
AcDbPolyline
90
94
70
1
43
0
10
73.3694110476
20
63.2935372682
10
73.3887927902
20
63.1220662233
10
73.4089946838
20
62.9456174702
10
73.4300084013
20
62.7642848129
10
73.4518256157
20
62.5781620549
10
73.474438
20
62.387343
10
73.4866442475
20
62.2887055287
10
73.498559066
20
62.1999523991
10
73.5101604087
20
62.1209439571
10
73.5214262285
20
62.0515405485
10
73.5323344785
20
61.9916025193
10
73.5428631115
20
61.9409902153
10
73.5529900808
20
61.8995639824
10
73.5626933391
20
61.8671841665
10
73.5719508396
20
61.8437111135
10
73.5807405353
20
61.8290051691
10
73.5890403792
20
61.8229266794
10
73.5968283242
20
61.8253359901
10
73.6040823234
20
61.8360934472
10
73.6107803298
20
61.8550593965
10
73.6169002963
20
61.8820941839
10
73.6224201761
20
61.9170581553
10
73.6273179221
20
61.9598116566
10
73.6315714872
20
62.0102150336
10
73.6351588246
20
62.0681286322
10
73.6380578872
20
62.1334127983
10
73.640246628
20
62.2059278777
10
73.6417030001
20
62.2855342164
10
73.6424049564
20
62.3720921602
10
73.6423304499
20
62.465462055
10
73.6414574337
20
62.5655042467
10
73.6397638608
20
62.6720790811
10
73.6372276841
20
62.7850469041
10
73.6338268566
20
62.9042680617
10
73.6295393315
20
63.0296028996
10
73.6243430616
20
63.1609117637
10
73.618216
20
63.298055
10
73.618216
20
63.298055
10
73.6115807847
20
63.428149912
10
73.604016076
20
63.5570936757
10
73.5955664407
20
63.6846419296
10
73.5862764456
20
63.810550312
10
73.5761906578
20
63.9345744614
10
73.565353644
20
64.0564700162
10
73.5538099711
20
64.1759926148
10
73.5416042061
20
64.2928978956
10
73.5287809158
20
64.4069414971
10
73.515384667
20
64.5178790576
10
73.5014600268
20
64.6254662156
10
73.4870515619
20
64.7294586094
10
73.4722038392
20
64.8296118775
10
73.4569614257
20
64.9256816584
10
73.4413688881
20
65.0174235903
10
73.4254707935
20
65.1045933118
10
73.4093117086
20
65.1869464613
10
73.3929362003
20
65.2642386771
10
73.3763888356
20
65.3362255977
10
73.3597141813
20
65.4026628614
10
73.3429568043
20
65.4633061068
10
73.3261612715
20
65.5179109722
10
73.3093721498
20
65.566233096
10
73.292634006
20
65.6080281167
10
73.275991407
20
65.6430516727
10
73.2594889197
20
65.6710594023
10
73.2431711111
20
65.691806944
10
73.2270825479
20
65.7050499362
10
73.2112677971
20
65.7105440173
10
73.1957714255
20
65.7080448258
10
73.180638
20
65.697308
10
73.1757730378
20
65.6881824623
10
73.1719447287
20
65.6716403203
10
73.1691447459
20
65.6477753778
10
73.1673647623
20
65.6166814386
10
73.1665964509
20
65.5784523062
10
73.1668314846
20
65.5331817844
10
73.1680615365
20
65.4809636768
10
73.1702782795
20
65.4218917873
10
73.1734733867
20
65.3560599195
10
73.177638531
20
65.283561877
10
73.1827653855
20
65.2044914636
10
73.188845623
20
65.118942483
10
73.1958709166
20
65.0270087389
10
73.2038329393
20
64.928784035
10
73.212723364
20
64.8243621749
10
73.2225338639
20
64.7138369624
10
73.2332561117
20
64.5973022012
10
73.2448817806
20
64.474851695
10
73.2574025435
20
64.3465792475
10
73.2708100734
20
64.2125786623
10
73.2850960434
20
64.0729437432
10
73.3002521263
20
63.9277682938
10
73.3162699952
20
63.777146118
10
73.333141323
20
63.6211710193
10
73.3508577828
20
63.4599368015
0
LWPOLYLINE
5
5A
100
AcDbEntity
8
Engraving
6
ByLayer
62
256
370
-1
100
AcDbPolyline
90
127
70
1
43
0
10
70.654306742
20
57.4913843538
10
70.6575243277
20
57.5661596649
10
70.6593541621
20
57.6391023379
10
70.659769
20
57.710086
10
70.657426
20
58.256609
10
70.263161
20
57.541232
10
70.2421312736
20
57.5032158662
10
70.2210364396
20
57.4653577395
10
70.1999130159
20
57.4277167734
10
70.1787975202
20
57.3903521216
10
70.1577264703
20
57.353322938
10
70.136736384
20
57.3166883762
10
70.1158637793
20
57.2805075899
10
70.0951451737
20
57.2448397328
10
70.0746170853
20
57.2097439586
10
70.0543160317
20
57.175279421
10
70.0342785308
20
57.1415052738
10
70.0145411004
20
57.1084806705
10
69.9951402583
20
57.076264765
10
69.9761125223
20
57.044916711
10
69.9574944103
20
57.014495662
10
69.9393224399
20
56.9850607719
10
69.9216331291
20
56.9566711944
10
69.9044629956
20
56.929386083
10
69.8878485572
20
56.9032645917
10
69.8718263318
20
56.878365874
10
69.8564328372
20
56.8547490836
10
69.8417045911
20
56.8324733744
10
69.8276781114
20
56.8115978999
10
69.8143899158
20
56.7921818138
10
69.8018765223
20
56.77428427
10
69.7901744486
20
56.757964422
10
69.7793202124
20
56.7432814236
10
69.7693503317
20
56.7302944285
10
69.7603013242
20
56.7190625904
10
69.7522097077
20
56.709645063
10
69.745112
20
56.702101
10
69.7305167412
20
56.6814245325
10
69.7168399335
20
56.6500193139
10
69.7040850624
20
56.6086587494
10
69.6922556134
20
56.5581162439
10
69.6813550721
20
56.4991652026
10
69.6713869238
20
56.4325790305
10
69.662354654
20
56.3591311326
10
69.6542617483
20
56.279594914
10
69.6471116921
20
56.1947437798
10
69.6409079709
20
56.1053511349
10
69.6356540702
20
56.0121903846
10
69.6313534755
20
55.9160349337
10
69.6280096722
20
55.8176581875
10
69.6256261458
20
55.7178335508
10
69.6242063819
20
55.6173344289
10
69.6237538658
20
55.5169342267
10
69.6242720831
20
55.4174063493
10
69.6257645193
20
55.3195242017
10
69.6282346598
20
55.2240611891
10
69.6316859901
20
55.1317907164
10
69.6361219958
20
55.0434861887
10
69.6415461622
20
54.9599210111
10
69.6479619749
20
54.8818685886
10
69.6553729193
20
54.8101023263
10
69.663782481
20
54.7453956293
10
69.6731941454
20
54.6885219025
10
69.683611398
20
54.6402545511
10
69.6950377243
20
54.6013669801
10
69.7074766097
20
54.5726325945
10
69.7209315398
20
54.5548247995
10
69.735406
20
54.548717
10
69.7418059268
20
54.549577903
10
69.7488440363
20
54.5521315665
10
69.7564938226
20
54.5563344222
10
69.7647287796
20
54.5621429018
10
69.7735224013
20
54.5695134368
10
69.7828481815
20
54.5784024591
10
69.7926796142
20
54.5887664002
10
69.8029901933
20
54.6005616919
10
69.8137534129
20
54.6137447658
10
69.8249427668
20
54.6282720535
10
69.836531749
20
54.6440999869
10
69.8484938534
20
54.6611849974
10
69.8608025739
20
54.6794835169
10
69.8734314046
20
54.698951977
10
69.8863538393
20
54.7195468093
10
69.899543372
20
54.7412244456
10
69.9129734966
20
54.7639413175
10
69.926617707
20
54.7876538566
10
69.9404494973
20
54.8123184947
10
69.9544423613
20
54.8378916635
10
69.968569793
20
54.8643297945
10
69.9828052864
20
54.8915893196
10
69.9971223353
20
54.9196266702
10
70.0114944337
20
54.9483982782
10
70.0258950756
20
54.9778605752
10
70.0402977548
20
55.0079699929
10
70.0546759654
20
55.0386829629
10
70.0690032013
20
55.069955917
10
70.0832529564
20
55.1017452867
10
70.0973987246
20
55.1340075038
10
70.111414
20
55.166699
10
70.111402
20
55.166699
10
70.1424151522
20
55.241480737
10
70.1728034132
20
55.31796828
10
70.2025395379
20
55.3960352559
10
70.2315962815
20
55.4755552919
10
70.2599463988
20
55.5564020148
10
70.2875626449
20
55.6384490518
10
70.3144177747
20
55.7215700297
10
70.3404845433
20
55.8056385756
10
70.3657357056
20
55.8905283165
10
70.3901440167
20
55.9761128794
10
70.4136822315
20
56.0622658912
10
70.436323105
20
56.1488609791
10
70.4580393923
20
56.23577177
10
70.4788038482
20
56.3228718909
10
70.4985892279
20
56.4100349687
10
70.5173682862
20
56.4971346306
10
70.5351137782
20
56.5840445035
10
70.5517984589
20
56.6706382144
10
70.5673950833
20
56.7567893903
10
70.5818764064
20
56.8423716582
10
70.5952151831
20
56.9272586451
10
70.6073841684
20
57.011323978
10
70.6183561175
20
57.0944412839
10
70.6281037851
20
57.1764841899
10
70.6365999264
20
57.2573263228
10
70.6438172963
20
57.3368413098
10
70.6497286498
20
57.4149027778
0
LWPOLYLINE
5
5B
100
AcDbEntity
8
Engraving
6
ByLayer
62
256
370
-1
100
AcDbPolyline
90
282
70
1
43
0
10
58.6588452503
20
20.0630777697
10
58.5693506291
20
19.7183901433
10
58.4840901147
20
19.3876168687
10
58.403705463
20
19.0731394127
10
58.3288384299
20
18.7773392419
10
58.2601307713
20
18.5025978229
10
58.1982242431
20
18.2512966226
10
58.1437606012
20
18.0258171075
10
58.0973816016
20
17.8285407445
10
58.059729
20
17.661849
10
58.0268651127
20
17.5102457323
10
57.9943626817
20
17.3563936121
10
57.9622466826
20
17.2004613246
10
57.9305420911
20
17.0426175552
10
57.8992738827
20
16.8830309894
10
57.868467033
20
16.7218703124
10
57.8381465177
20
16.5593042097
10
57.8083373123
20
16.3955013667
10
57.7790643924
20
16.2306304687
10
57.7503527337
20
16.064860201
10
57.7222273116
20
15.8983592492
10
57.6947131019
20
15.7312962984
10
57.6678350801
20
15.5638400342
10
57.6416182218
20
15.3961591419
10
57.6160875026
20
15.2284223069
10
57.5912678981
20
15.0607982145
10
57.5671843838
20
14.8934555501
10
57.5438619355
20
14.7265629991
10
57.5213255287
20
14.5602892468
10
57.4996001389
20
14.3948029787
10
57.4787107419
20
14.2302728801
10
57.4586823131
20
14.0668676364
10
57.4395398282
20
13.904755933
10
57.4213082627
20
13.7441064552
10
57.4040125924
20
13.5850878884
10
57.3876777927
20
13.427868918
10
57.3723288392
20
13.2726182294
10
57.3579907076
20
13.1195045079
10
57.3446883735
20
12.9686964389
10
57.3324468124
20
12.8203627078
10
57.321291
20
12.674672
10
57.231842
20
11.457419
10
58.421274
20
12.071733
10
58.4996015474
20
12.1124925276
10
58.5759856821
20
12.152862499
10
58.650448288
20
12.1928584482
10
58.7230112488
20
12.2324959096
10
58.7936964486
20
12.2717904173
10
58.862525771
20
12.3107575057
10
58.9295211
20
12.3494127088
10
58.9947043195
20
12.3877715609
10
59.0580973133
20
12.4258495963
10
59.1197219652
20
12.4636623491
10
59.1796001591
20
12.5012253537
10
59.2377537789
20
12.5385541441
10
59.2942047084
20
12.5756642547
10
59.3489748315
20
12.6125712196
10
59.402086032
20
12.6492905731
10
59.4535601938
20
12.6858378494
10
59.5034192008
20
12.7222285827
10
59.5516849368
20
12.7584783072
10
59.5983792857
20
12.7946025573
10
59.6435241313
20
12.8306168669
10
59.6871413574
20
12.8665367705
10
59.729252848
20
12.9023778023
10
59.769880487
20
12.9381554963
10
59.809046158
20
12.973885387
10
59.8467717451
20
13.0095830084
10
59.8830791321
20
13.0452638948
10
59.9179902028
20
13.0809435805
10
59.9515268411
20
13.1166375996
10
59.9837109308
20
13.1523614865
10
60.0145643558
20
13.1881307752
10
60.044109
20
13.223961
10
60.044109
20
13.223961
10
60.0680448217
20
13.2539002086
10
60.0936615902
20
13.2863858115
10
60.1208777445
20
13.321304742
10
60.1496117235
20
13.3585439334
10
60.1797819663
20
13.3979903189
10
60.2113069119
20
13.439530832
10
60.2441049993
20
13.4830524058
10
60.2780946673
20
13.5284419737
10
60.3131943552
20
13.575586469
10
60.3493225017
20
13.6243728251
10
60.386397546
20
13.6746879751
10
60.424337927
20
13.7264188524
10
60.4630620837
20
13.7794523903
10
60.5024884551
20
13.8336755221
10
60.5425354801
20
13.8889751811
10
60.5831215979
20
13.9452383007
10
60.6241652473
20
14.002351814
10
60.6655848674
20
14.0602026545
10
60.7072988972
20
14.1186777553
10
60.7492257755
20
14.1776640499
10
60.7912839416
20
14.2370484715
10
60.8333918342
20
14.2967179534
10
60.8754678925
20
14.356559429
10
60.9174305554
20
14.4164598315
10
60.9591982619
20
14.4763060942
10
61.0006894509
20
14.5359851504
10
61.0418225616
20
14.5953839334
10
61.0825160329
20
14.6543893766
10
61.1226883037
20
14.7128884132
10
61.1622578131
20
14.7707679766
10
61.201143
20
14.827915
10
61.2853779369
20
14.9526266697
10
61.3643498084
20
15.0713191255
10
61.4382095282
20
15.1849746667
10
61.5071080101
20
15.2945755923
10
61.5711961679
20
15.4011042014
10
61.6306249153
20
15.5055427934
10
61.6855451662
20
15.6088736672
10
61.7361078342
20
15.7120791221
10
61.7824638332
20
15.8161414571
10
61.8247640768
20
15.9220429715
10
61.863159479
20
16.0307659645
10
61.8978009533
20
16.143292735
10
61.9288394137
20
16.2606055824
10
61.9564257739
20
16.3836868057
10
61.9807109475
20
16.5135187041
10
62.0018458485
20
16.6510835768
10
62.0199813906
20
16.7973637229
10
62.0352684874
20
16.9533414415
10
62.0478580529
20
17.1199990319
10
62.0579010007
20
17.2983187931
10
62.0655482447
20
17.4892830243
10
62.0709506986
20
17.6938740247
10
62.0742592761
20
17.9130740934
10
62.075624891
20
18.1478655295
10
62.0751984572
20
18.3992306322
10
62.0731308883
20
18.6681517007
10
62.0695730981
20
18.9556110342
10
62.0646760004
20
19.2625909317
10
62.058590509
20
19.5900736924
10
62.0514675376
20
19.9390416154
10
62.043458
20
20.310477
10
62.0384913438
20
20.5293850038
10
62.0333723552
20
20.7397746347
10
62.0280781169
20
20.9419339028
10
62.0225857116
20
21.1361508181
10
62.0168722221
20
21.3227133909
10
62.0109147311
20
21.501909631
10
62.0046903214
20
21.6740275486
10
61.9981760757
20
21.8393551538
10
61.9913490767
20
21.9981804566
10
61.9841864072
20
22.1507914671
10
61.97666515
20
22.2974761954
10
61.9687623878
20
22.4385226515
10
61.9604552032
20
22.5742188455
10
61.9517206792
20
22.7048527875
10
61.9425358984
20
22.8307124876
10
61.9328779435
20
22.9520859557
10
61.9227238973
20
23.0692612021
10
61.9120508425
20
23.1825262367
10
61.900835862
20
23.2921690696
10
61.8890560383
20
23.398477711
10
61.8766884544
20
23.5017401708
10
61.8637101928
20
23.6022444591
10
61.8500983364
20
23.700278586
10
61.8358299679
20
23.7961305617
10
61.8208821701
20
23.8900883961
10
61.8052320256
20
23.9824400993
10
61.7888566172
20
24.0734736813
10
61.7717330278
20
24.1634771524
10
61.7538383399
20
24.2527385225
10
61.7351496364
20
24.3415458017
10
61.715644
20
24.430187
10
61.7016062015
20
24.4928101969
10
61.6875190894
20
24.5559560948
10
61.6734071858
20
24.6195077669
10
61.6592950127
20
24.6833482867
10
61.6452070922
20
24.7473607276
10
61.6311679463
20
24.8114281631
10
61.617202097
20
24.8754336665
10
61.6033340664
20
24.9392603113
10
61.5895883765
20
25.0027911708
10
61.5759895493
20
25.0659093185
10
61.5625621069
20
25.1284978278
10
61.5493305714
20
25.190439772
10
61.5363194647
20
25.2516182247
10
61.5235533089
20
25.3119162592
10
61.511056626
20
25.371216949
10
61.498853938
20
25.4294033674
10
61.4869697671
20
25.4863585878
10
61.4754286352
20
25.5419656837
10
61.4642550644
20
25.5961077285
10
61.4534735767
20
25.6486677955
10
61.4431086942
20
25.6995289583
10
61.4331849388
20
25.7485742902
10
61.4237268327
20
25.7956868646
10
61.4147588978
20
25.8407497549
10
61.4063056562
20
25.8836460346
10
61.39839163
20
25.924258777
10
61.3910413411
20
25.9624710557
10
61.3842793116
20
25.9981659438
10
61.3781300636
20
26.031226515
10
61.372618119
20
26.0615358426
10
61.367768
20
26.088977
10
61.360549931
20
26.1297118497
10
61.3534132939
20
26.1681508381
10
61.3462960888
20
26.2043590758
10
61.3391363157
20
26.2384016734
10
61.3318719747
20
26.2703437415
10
61.3244410659
20
26.3002503907
10
61.3167815893
20
26.3281867316
10
61.3088315451
20
26.3542178749
10
61.3005289332
20
26.3784089311
10
61.2918117538
20
26.4008250108
10
61.2826180069
20
26.4215312247
10
61.2728856926
20
26.4405926833
10
61.2625528109
20
26.4580744972
10
61.251557362
20
26.4740417771
10
61.2398373458
20
26.4885596335
10
61.2273307624
20
26.5016931771
10
61.213975612
20
26.5135075184
10
61.1997098946
20
26.5240677682
10
61.1844716102
20
26.5334390368
10
61.168198759
20
26.5416864351
10
61.1508293409
20
26.5488750735
10
61.132301356
20
26.5550700627
10
61.1125528045
20
26.5603365132
10
61.0915216864
20
26.5647395358
10
61.0691460017
20
26.5683442409
10
61.0453637506
20
26.5712157393
10
61.020112933
20
26.5734191414
10
60.9933315491
20
26.575019558
10
60.9649575989
20
26.5760820995
10
60.9349290825
20
26.5766718766
10
60.903184
20
26.576854
10
60.8810001028
20
26.5765722389
10
60.8590358004
20
26.5757325561
10
60.8373094349
20
26.5743433526
10
60.8158393481
20
26.5724130292
10
60.7946438822
20
26.569949987
10
60.773741379
20
26.5669626269
10
60.7531501806
20
26.5634593497
10
60.7328886289
20
26.5594485565
10
60.712975066
20
26.554938648
10
60.6934278337
20
26.5499380254
10
60.6742652741
20
26.5444550894
10
60.6555057292
20
26.538498241
10
60.637167541
20
26.5320758812
10
60.6192690514
20
26.5251964108
10
60.6018286024
20
26.5178682308
10
60.584864536
20
26.5100997421
10
60.5683951942
20
26.5018993457
10
60.5524389189
20
26.4932754424
10
60.5370140522
20
26.4842364333
10
60.5221389361
20
26.4747907191
10
60.5078319124
20
26.4649467009
10
60.4941113232
20
26.4547127796
10
60.4809955105
20
26.4440973561
10
60.4685028163
20
26.4331088313
10
60.4566515825
20
26.4217556062
10
60.4454601511
20
26.4100460816
10
60.4349468642
20
26.3979886586
10
60.4251300636
20
26.385591738
10
60.4160280914
20
26.3728637207
10
60.4076592895
20
26.3598130078
10
60.400042
20
26.346448
10
60.3797612715
20
26.298155704
10
60.34959602
20
26.2113854929
10
60.3101880014
20
26.0885188332
10
60.2621789717
20
25.9319371916
10
60.2062106867
20
25.7440220349
10
60.1429249023
20
25.5271548298
10
60.0729633744
20
25.2837170428
10
59.996967859
20
25.0160901408
10
59.9155801118
20
24.7266555903
10
59.8294418889
20
24.4177948581
10
59.7391949461
20
24.0918894109
10
59.6454810393
20
23.7513207152
10
59.5489419244
20
23.398470238
10
59.4502193574
20
23.0357194457
10
59.3499550941
20
22.6654498051
10
59.2487908903
20
22.2900427829
10
59.1473685021
20
21.9118798457
10
59.0463296853
20
21.5333424603
10
58.9463161959
20
21.1568120933
10
58.8479697896
20
20.7846702114
10
58.7519322225
20
20.4192982813
0
ENDSEC
0
SECTION
2
OBJECTS
0
DICTIONARY
5
C
330
0
100
AcDbDictionary
281
1
3
ACAD_GROUP
350
D
0
DICTIONARY
5
D
330
C
100
AcDbDictionary
281
1
0
ENDSEC
0
EOF
