999
dxfrw 0.5.10
0
SECTION
2
HEADER
9
$ACADVER
1
AC1021
9
$HANDSEED
5
20000
9
$DWGCODEPAGE
3
ANSI_1252
9
$INSBASE
10
0
20
0
30
0
9
$EXTMIN
10
7
20
-1.66533453694e-16
30
0
9
$EXTMAX
10
113
20
110
30
0
9
$LIMMIN
10
0
20
0
9
$LIMMAX
10
420
20
297
9
$ORTHOMODE
70
0
9
$LTSCALE
40
1
9
$TEXTSTYLE
7
STANDARD
9
$CLAYER
8
Engraving
9
$DIMASZ
40
2.5
9
$DIMLFAC
40
1
9
$DIMSCALE
40
1
9
$DIMEXO
40
0.625
9
$DIMEXE
40
1.25
9
$DIMTXT
40
2.5
9
$DIMTSZ
40
0
9
$DIMAUNIT
70
0
9
$DIMADEC
70
0
9
$DIMLUNIT
70
2
9
$DIMSTYLE
2
STANDARD
9
$DIMGAP
40
0.625
9
$DIMTIH
70
0
9
$LUNITS
70
2
9
$LUPREC
70
4
9
$AUNITS
70
0
9
$AUPREC
70
2
9
$SPLINESEGS
70
8
9
$GRIDMODE
70
1
9
$SNAPSTYLE
70
0
9
$PINSBASE
10
0
20
0
30
0
9
$PLIMMIN
10
0
20
0
9
$PLIMMAX
10
210
20
297
9
$INSUNITS
70
4
9
$PSVPSCALE
40
1
0
ENDSEC
0
SECTION
2
CLASSES
0
ENDSEC
0
SECTION
2
TABLES
0
TABLE
2
VPORT
5
8
330
0
100
AcDbSymbolTable
70
1
0
VPORT
5
31
330
2
100
AcDbSymbolTableRecord
100
AcDbViewportTableRecord
2
*ACTIVE
70
0
10
0
20
0
11
1
21
1
12
131.920592425
22
115.250887936
13
0
23
0
14
10
24
10
15
10
25
10
16
0
26
0
36
1
17
0
27
0
37
0
40
431.113047142
41
1.65333333333
42
50
43
0
44
0
50
0
51
0
71
0
72
100
73
1
74
3
75
0
76
1
77
0
78
0
281
0
65
1
110
0
120
0
130
0
111
1
121
0
131
0
112
0
122
1
132
0
79
0
146
0
348
10020
60
7
61
5
292
1
282
1
141
0
142
0
63
250
421
3358443
0
ENDTAB
0
TABLE
2
LTYPE
5
5
330
0
100
AcDbSymbolTable
70
4
0
LTYPE
5
14
330
5
100
AcDbSymbolTableRecord
100
AcDbLinetypeTableRecord
2
ByBlock
70
0
3

72
65
73
0
40
0
0
LTYPE
5
15
330
5
100
AcDbSymbolTableRecord
100
AcDbLinetypeTableRecord
2
ByLayer
70
0
3

72
65
73
0
40
0
0
LTYPE
5
16
330
5
100
AcDbSymbolTableRecord
100
AcDbLinetypeTableRecord
2
Continuous
70
0
3
Solid line
72
65
73
0
40
0
0
LTYPE
5
32
330
5
100
AcDbSymbolTableRecord
100
AcDbLinetypeTableRecord
2
DOT
70
0
3
Dot . . . . . . . . . . . . . . . . . . . . . .
72
65
73
2
40
6.35
49
0
74
0
49
-6.35
74
0
0
LTYPE
5
33
330
5
100
AcDbSymbolTableRecord
100
AcDbLinetypeTableRecord
2
DOT2
70
0
3
Dot (.5x) .....................................
72
65
73
2
40
3.175
49
0
74
0
49
-3.175
74
0
0
LTYPE
5
34
330
5
100
AcDbSymbolTableRecord
100
AcDbLinetypeTableRecord
2
DOTX2
70
0
3
Dot (2x) .  .  .  .  .  .  .  .  .  .  .  .  .
72
65
73
2
40
12.7
49
0
74
0
49
-12.7
74
0
0
LTYPE
5
35
330
5
100
AcDbSymbolTableRecord
100
AcDbLinetypeTableRecord
2
DASHED
70
0
3
Dot . . . . . . . . . . . . . . . . . . . . . .
72
65
73
2
40
19.05
49
12.7
74
0
49
-6.35
74
0
0
LTYPE
5
36
330
5
100
AcDbSymbolTableRecord
100
AcDbLinetypeTableRecord
2
DASHED2
70
0
3
Dashed (.5x) _ _ _ _ _ _ _ _ _ _ _ _ _ _ _ _ _
72
65
73
2
40
9.525
49
6.35
74
0
49
-3.175
74
0
0
LTYPE
5
37
330
5
100
AcDbSymbolTableRecord
100
AcDbLinetypeTableRecord
2
DASHEDX2
70
0
3
Dashed (2x) ____  ____  ____  ____  ____  ___
72
65
73
2
40
38.1
49
25.4
74
0
49
-12.7
74
0
0
LTYPE
5
38
330
5
100
AcDbSymbolTableRecord
100
AcDbLinetypeTableRecord
2
DASHDOT
70
0
3
Dash dot __ . __ . __ . __ . __ . __ . __ . __
72
65
73
4
40
25.4
49
12.7
74
0
49
-6.35
74
0
49
0
74
0
49
-6.35
74
0
0
LTYPE
5
39
330
5
100
AcDbSymbolTableRecord
100
AcDbLinetypeTableRecord
2
DASHDOT2
70
0
3
Dash dot (.5x) _._._._._._._._._._._._._._._.
72
65
73
4
40
12.7
49
6.35
74
0
49
-3.175
74
0
49
0
74
0
49
-3.175
74
0
0
LTYPE
5
3A
330
5
100
AcDbSymbolTableRecord
100
AcDbLinetypeTableRecord
2
DASHDOTX2
70
0
3
Dash dot (2x) ____  .  ____  .  ____  .  ___
72
65
73
4
40
50.8
49
25.4
74
0
49
-12.7
74
0
49
0
74
0
49
-12.7
74
0
0
LTYPE
5
3B
330
5
100
AcDbSymbolTableRecord
100
AcDbLinetypeTableRecord
2
DIVIDE
70
0
3
Divide ____ . . ____ . . ____ . . ____ . . ____
72
65
73
6
40
31.75
49
12.7
74
0
49
-6.35
74
0
49
0
74
0
49
-6.35
74
0
49
0
74
0
49
-6.35
74
0
0
LTYPE
5
3C
330
5
100
AcDbSymbolTableRecord
100
AcDbLinetypeTableRecord
2
DIVIDE2
70
0
3
Divide (.5x) __..__..__..__..__..__..__..__.._
72
65
73
6
40
15.875
49
6.35
74
0
49
-3.175
74
0
49
0
74
0
49
-3.175
74
0
49
0
74
0
49
-3.175
74
0
0
LTYPE
5
3D
330
5
100
AcDbSymbolTableRecord
100
AcDbLinetypeTableRecord
2
DIVIDEX2
70
0
3
Divide (2x) ________  .  .  ________  .  .  _
72
65
73
6
40
63.5
49
25.4
74
0
49
-12.7
74
0
49
0
74
0
49
-12.7
74
0
49
0
74
0
49
-12.7
74
0
0
LTYPE
5
3E
330
5
100
AcDbSymbolTableRecord
100
AcDbLinetypeTableRecord
2
BORDER
70
0
3
Border __ __ . __ __ . __ __ . __ __ . __ __ .
72
65
73
6
40
44.45
49
12.7
74
0
49
-6.35
74
0
49
12.7
74
0
49
-6.35
74
0
49
0
74
0
49
-6.35
74
0
0
LTYPE
5
3F
330
5
100
AcDbSymbolTableRecord
100
AcDbLinetypeTableRecord
2
BORDER2
70
0
3
Border (.5x) __.__.__.__.__.__.__.__.__.__.__.
72
65
73
6
40
22.225
49
6.35
74
0
49
-3.175
74
0
49
6.35
74
0
49
-3.175
74
0
49
0
74
0
49
-3.175
74
0
0
LTYPE
5
40
330
5
100
AcDbSymbolTableRecord
100
AcDbLinetypeTableRecord
2
BORDERX2
70
0
3
Border (2x) ____  ____  .  ____  ____  .  ___
72
65
73
6
40
88.9
49
25.4
74
0
49
-12.7
74
0
49
25.4
74
0
49
-12.7
74
0
49
0
74
0
49
-12.7
74
0
0
LTYPE
5
41
330
5
100
AcDbSymbolTableRecord
100
AcDbLinetypeTableRecord
2
CENTER
70
0
3
Center ____ _ ____ _ ____ _ ____ _ ____ _ ____
72
65
73
4
40
50.8
49
31.75
74
0
49
-6.35
74
0
49
6.35
74
0
49
-6.35
74
0
0
LTYPE
5
42
330
5
100
AcDbSymbolTableRecord
100
AcDbLinetypeTableRecord
2
CENTER2
70
0
3
Center (.5x) ___ _ ___ _ ___ _ ___ _ ___ _ ___
72
65
73
4
40
28.575
49
19.05
74
0
49
-3.175
74
0
49
3.175
74
0
49
-3.175
74
0
0
LTYPE
5
43
330
5
100
AcDbSymbolTableRecord
100
AcDbLinetypeTableRecord
2
CENTERX2
70
0
3
Center (2x) ________  __  ________  __  _____
72
65
73
4
40
101.6
49
63.5
74
0
49
-12.7
74
0
49
12.7
74
0
49
-12.7
74
0
0
ENDTAB
0
TABLE
2
LAYER
5
2
330
0
100
AcDbSymbolTable
70
1
0
LAYER
5
10
330
2
100
AcDbSymbolTableRecord
100
AcDbLayerTableRecord
2
0
70
0
62
7
6
CONTINUOUS
370
0
390
F
0
LAYER
5
44
330
2
100
AcDbSymbolTableRecord
100
AcDbLayerTableRecord
2
Panel
70
0
62
1
6
CONTINUOUS
370
0
390
F
0
LAYER
5
45
330
2
100
AcDbSymbolTableRecord
100
AcDbLayerTableRecord
2
Engraving
70
0
62
7
6
CONTINUOUS
370
0
390
F
0
ENDTAB
0
TABLE
2
STYLE
5
3
330
0
100
AcDbSymbolTable
70
3
0
STYLE
5
46
330
2
100
AcDbSymbolTableRecord
100
AcDbTextStyleTableRecord
2
Standard
70
0
40
0
41
1
50
0
71
0
42
1
3
txt
4

0
ENDTAB
0
TABLE
2
VIEW
5
6
330
0
100
AcDbSymbolTable
70
0
0
ENDTAB
0
TABLE
2
UCS
5
7
330
0
100
AcDbSymbolTable
70
0
0
ENDTAB
0
TABLE
2
APPID
5
9
330
0
100
AcDbSymbolTable
70
1
0
APPID
5
12
330
9
100
AcDbSymbolTableRecord
100
AcDbRegAppTableRecord
2
ACAD
70
0
0
ENDTAB
0
TABLE
2
DIMSTYLE
5
A
330
0
100
AcDbSymbolTable
70
1
100
AcDbDimStyleTable
71
1
0
DIMSTYLE
105
47
330
A
100
AcDbSymbolTableRecord
100
AcDbDimStyleTableRecord
2
Standard
70
0
40
1
41
2.5
42
0.625
43
0.38
44
1.25
45
0
46
0
47
0
48
0
140
2.5
141
0.09
142
0
143
25.4
144
1
145
0
146
1
147
0.625
148
0
71
0
72
0
73
0
74
1
75
0
76
0
77
0
78
0
79
0
170
0
171
2
172
0
173
0
174
0
175
0
176
0
177
0
178
0
179
0
271
4
272
4
273
2
274
2
275
0
276
0
277
2
278
46
279
0
280
0
281
0
282
0
283
1
284
0
285
0
286
0
288
0
289
3
340
Standard
341

371
-2
372
-2
0
ENDTAB
0
TABLE
2
BLOCK_RECORD
5
1
330
0
100
AcDbSymbolTable
70
2
0
BLOCK_RECORD
5
1F
330
1
100
AcDbSymbolTableRecord
100
AcDbBlockTableRecord
2
*Model_Space
70
0
280
1
281
0
0
BLOCK_RECORD
5
1E
330
1
100
AcDbSymbolTableRecord
100
AcDbBlockTableRecord
2
*Paper_Space
70
0
280
1
281
0
0
ENDTAB
0
ENDSEC
0
SECTION
2
BLOCKS
0
BLOCK
5
20
330
1F
100
AcDbEntity
8
0
100
AcDbBlockBegin
2
*Model_Space
70
0
10
0
20
0
30
0
3
*Model_Space
1

0
ENDBLK
5
21
330
1F
100
AcDbEntity
8
0
100
AcDbBlockEnd
0
BLOCK
5
1C
330
1B
100
AcDbEntity
8
0
100
AcDbBlockBegin
2
*Paper_Space
70
0
10
0
20
0
30
0
3
*Paper_Space
1

0
ENDBLK
5
1D
330
1F
100
AcDbEntity
8
0
100
AcDbBlockEnd
0
ENDSEC
0
SECTION
2
ENTITIES
0
LINE
5
48
100
AcDbEntity
8
Panel
6
ByLayer
62
256
370
-1
100
AcDbLine
10
110
20
0
11
10
21
0
0
LINE
5
49
100
AcDbEntity
8
Panel
6
ByLayer
62
256
370
-1
100
AcDbLine
10
110
20
-1.66533453694e-16
11
110.6
21
-1.66533453694e-16
0
LINE
5
4A
100
AcDbEntity
8
Panel
6
ByLayer
62
256
370
-1
100
AcDbLine
10
110.6
20
-1.66533453694e-16
11
110.6
21
3
0
LINE
5
4B
100
AcDbEntity
8
Panel
6
ByLayer
62
256
370
-1
100
AcDbLine
10
110.6
20
3
11
110
21
3
0
LINE
5
4C
100
AcDbEntity
8
Panel
6
ByLayer
62
256
370
-1
100
AcDbLine
10
10
20
0
11
9.4
21
0
0
LINE
5
4D
100
AcDbEntity
8
Panel
6
ByLayer
62
256
370
-1
100
AcDbLine
10
9.4
20
0
11
9.4
21
3
0
LINE
5
4E
100
AcDbEntity
8
Panel
6
ByLayer
62
256
370
-1
100
AcDbLine
10
9.4
20
3
11
10
21
3
0
LINE
5
4F
100
AcDbEntity
8
Panel
6
ByLayer
62
256
370
-1
100
AcDbLine
10
10
20
110
11
110
21
110
0
LINE
5
50
100
AcDbEntity
8
Panel
6
ByLayer
62
256
370
-1
100
AcDbLine
10
7
20
110
11
10
21
110
0
LINE
5
51
100
AcDbEntity
8
Panel
6
ByLayer
62
256
370
-1
100
AcDbLine
10
10
20
107
11
7
21
107
0
LINE
5
52
100
AcDbEntity
8
Panel
6
ByLayer
62
256
370
-1
100
AcDbLine
10
7
20
107
11
7
21
110
0
LINE
5
53
100
AcDbEntity
8
Panel
6
ByLayer
62
256
370
-1
100
AcDbLine
10
110
20
110
11
113
21
110
0
LINE
5
54
100
AcDbEntity
8
Panel
6
ByLayer
62
256
370
-1
100
AcDbLine
10
113
20
110
11
113
21
107
0
LINE
5
55
100
AcDbEntity
8
Panel
6
ByLayer
62
256
370
-1
100
AcDbLine
10
113
20
107
11
110
21
107
0
LINE
5
56
100
AcDbEntity
8
Panel
6
ByLayer
62
256
370
-1
100
AcDbLine
10
110
20
107
11
110
21
3
0
LINE
5
57
100
AcDbEntity
8
Panel
6
ByLayer
62
256
370
-1
100
AcDbLine
10
10
20
3
11
10
21
107
0
LWPOLYLINE
5
58
100
AcDbEntity
8
Engraving
6
ByLayer
62
256
370
-1
100
AcDbPolyline
90
3615
70
1
43
0
10
61.6130106867
20
70.1400177594
10
61.5753980498
20
70.2684422828
10
61.540839241
20
70.4000393164
10
61.5087535725
20
70.5358562908
10
61.4785603567
20
70.6769406364
10
61.4496789059
20
70.8243397837
10
61.4215285325
20
70.9791011632
10
61.3935285489
20
71.1422722054
10
61.3650982672
20
71.3149003408
10
61.335657
20
71.498033
10
61.3151546306
20
71.6276110724
10
61.2959381967
20
71.7513114648
10
61.2779998065
20
71.8693758914
10
61.2613315682
20
71.9820460668
10
61.24592559
20
72.0895637051
10
61.2317739802
20
72.1921705207
10
61.218868847
20
72.2901082281
10
61.2072022986
20
72.3836185414
10
61.1967664433
20
72.4729431751
10
61.1875533892
20
72.5583238435
10
61.1795552445
20
72.640002261
10
61.1727641176
20
72.7182201419
10
61.1671721165
20
72.7932192005
10
61.1627713496
20
72.8652411512
10
61.1595539251
20
72.9345277083
10
61.1575119511
20
73.0013205862
10
61.1566375359
20
73.0658614992
10
61.1569227877
20
73.1283921616
10
61.1583598148
20
73.1891542879
10
61.1609407253
20
73.2483895923
10
61.1646576275
20
73.3063397891
10
61.1695026296
20
73.3632465928
10
61.1754678398
20
73.4193517177
10
61.1825453663
20
73.4748968781
10
61.1907273174
20
73.5301237883
10
61.2000058012
20
73.5852741628
10
61.2103729261
20
73.6405897158
10
61.2218208002
20
73.6963121616
10
61.2343415317
20
73.7526832147
10
61.2479272289
20
73.8099445894
10
61.26257
20
73.868338
10
61.2918673198
20
73.986886829
10
61.3188027959
20
74.1044426344
10
61.3433761869
20
74.221011458
10
61.3655872515
20
74.3365993417
10
61.3854357485
20
74.4512123275
10
61.4029214367
20
74.5648564571
10
61.4180440746
20
74.6775377725
10
61.4308034211
20
74.7892623157
10
61.4411992348
20
74.9000361284
10
61.4492312745
20
75.0098652525
10
61.4548992989
20
75.1187557301
10
61.4582030668
20
75.2267136028
10
61.4591423367
20
75.3337449128
10
61.4577168675
20
75.4398557017
10
61.4539264179
20
75.5450520116
10
61.4477707465
20
75.6493398843
10
61.4392496122
20
75.7527253618
10
61.4283627736
20
75.8552144858
10
61.4151099894
20
75.9568132983
10
61.3994910184
20
76.0575278412
10
61.3815056193
20
76.1573641564
10
61.3611535508
20
76.2563282858
10
61.3384345716
20
76.3544262712
10
61.3133484405
20
76.4516641546
10
61.2858949161
20
76.5480479778
10
61.2560737572
20
76.6435837828
10
61.2238847225
20
76.7382776114
10
61.1893275707
20
76.8321355056
10
61.1524020605
20
76.9251635071
10
61.1131079507
20
77.017367658
10
61.071445
20
77.108754
10
61.0395635174
20
77.1753906478
10
61.00943285
20
77.2399646664
10
60.9810079585
20
77.3027238135
10
60.9542438038
20
77.3639158471
10
60.9290953467
20
77.423788525
10
60.9055175482
20
77.482589605
10
60.8834653688
20
77.5405668451
10
60.8628937696
20
77.5979680029
10
60.8437577114
20
77.6550408364
10
60.8260121548
20
77.7120331034
10
60.8096120609
20
77.7691925618
10
60.7945123904
20
77.8267669694
10
60.7806681042
20
77.8850040841
10
60.768034163
20
77.9441516637
10
60.7565655277
20
78.004457466
10
60.7462171591
20
78.0661692489
10
60.7369440181
20
78.1295347703
10
60.7287010655
20
78.1948017879
10
60.721443262
20
78.2622180597
10
60.7151255686
20
78.3320313435
10
60.7097029461
20
78.4044893971
10
60.7051303552
20
78.4798399784
10
60.7013627569
20
78.5583308452
10
60.6983551119
20
78.6402097554
10
60.6960623811
20
78.7257244668
10
60.6944395253
20
78.8151227372
10
60.6934415053
20
78.9086523246
10
60.6930232819
20
79.0065609867
10
60.693139816
20
79.1090964814
10
60.6937460684
20
79.2165065665
10
60.694797
20
79.329039
10
60.6959566959
20
79.4869597941
10
60.695781937
20
79.6377137357
10
60.6941301142
20
79.7816895832
10
60.6908586187
20
79.919276095
10
60.6858248416
20
80.0508620293
10
60.678886174
20
80.1768361445
10
60.6699000069
20
80.297587199
10
60.6587237314
20
80.4135039512
10
60.6452147387
20
80.5249751593
10
60.6292304198
20
80.6323895817
10
60.6106281659
20
80.7361359768
10
60.5892653679
20
80.836603103
10
60.564999417
20
80.9341797185
10
60.5376877044
20
81.0292545818
10
60.507187621
20
81.1222164511
10
60.473356558
20
81.2134540848
10
60.4360519064
20
81.3033562413
10
60.3951310575
20
81.392311679
10
60.3504514021
20
81.4807091561
10
60.3018703315
20
81.5689374311
10
60.2492452368
20
81.6573852622
10
60.1924335089
20
81.7464414078
10
60.1312925391
20
81.8364946264
10
60.0656797184
20
81.9279336761
10
59.9954524379
20
82.0211473154
10
59.9204680887
20
82.1165243027
10
59.8405840618
20
82.2144533962
10
59.7556577484
20
82.3153233543
10
59.6655465396
20
82.4195229355
10
59.5701078264
20
82.5274408979
10
59.469199
20
82.639466
10
58.670897
20
83.53958
10
59.047545
20
84.039644
10
59.0909628376
20
84.0979282303
10
59.13365066
20
84.1566112782
10
59.1755896737
20
84.2156548729
10
59.2167610851
20
84.2750207436
10
59.2571461008
20
84.3346706194
10
59.2967259273
20
84.3945662297
10
59.3354817709
20
84.4546693034
10
59.3733948381
20
84.5149415699
10
59.4104463355
20
84.5753447582
10
59.4466174695
20
84.6358405976
10
59.4818894466
20
84.6963908173
10
59.5162434732
20
84.7569571464
10
59.5496607559
20
84.8175013141
10
59.582122501
20
84.8779850496
10
59.6136099151
20
84.938370082
10
59.6441042046
20
84.9986181406
10
59.673586576
20
85.0586909546
10
59.7020382358
20
85.118550253
10
59.7294403905
20
85.1781577652
10
59.7557742464
20
85.2374752202
10
59.7810210102
20
85.2964643472
10
59.8051618882
20
85.3550868755
10
59.8281780869
20
85.4133045342
10
59.8500508129
20
85.4710790525
10
59.8707612725
20
85.5283721595
10
59.8902906723
20
85.5851455845
10
59.9086202187
20
85.6413610566
10
59.9257311182
20
85.6969803051
10
59.9416045773
20
85.751965059
10
59.9562218024
20
85.8062770476
10
59.969564
20
85.859878
10
59.9779778327
20
85.8973607275
10
59.9855158476
20
85.9324464399
10
59.992088046
20
85.9652358518
10
59.9976044291
20
85.9958296776
10
60.0019749981
20
86.0243286317
10
60.0051097542
20
86.0508334286
10
60.0069186986
20
86.0754447827
10
60.0073118326
20
86.0982634085
10
60.0061991572
20
86.1193900203
10
60.0034906738
20
86.1389253328
10
59.9990963836
20
86.1569700602
10
59.9929262877
20
86.173624917
10
59.9848903873
20
86.1889906177
10
59.9748986838
20
86.2031678767
10
59.9628611782
20
86.2162574085
10
59.9486878718
20
86.2283599276
10
59.9322887658
20
86.2395761482
10
59.9135738614
20
86.250006785
10
59.8924531598
20
86.2597525523
10
59.8688366622
20
86.2689141646
10
59.8426343699
20
86.2775923363
10
59.813756284
20
86.2858877819
10
59.7821124057
20
86.2939012159
10
59.7476127363
20
86.3017333526
10
59.710167277
20
86.3094849064
10
59.6696860289
20
86.317256592
10
59.6260789934
20
86.3251491236
10
59.5792561715
20
86.3332632158
10
59.5291275645
20
86.341699583
10
59.4756031736
20
86.3505589395
10
59.418593
20
86.359942
10
59.3828656901
20
86.3662167336
10
59.3447331184
20
86.3736031277
10
59.3043140313
20
86.382076408
10
59.2617271753
20
86.3916118001
10
59.2170912968
20
86.4021845296
10
59.1705251423
20
86.4137698221
10
59.1221474583
20
86.4263429032
10
59.0720769913
20
86.4398789984
10
59.0204324876
20
86.4543533335
10
58.9673326939
20
86.469741134
10
58.9128963564
20
86.4860176255
10
58.8572422218
20
86.5031580336
10
58.8004890365
20
86.5211375839
10
58.7427555469
20
86.5399315021
10
58.6841604996
20
86.5595150137
10
58.6248226409
20
86.5798633443
10
58.5648607174
20
86.6009517196
10
58.5043934754
20
86.6227553651
10
58.4435396616
20
86.6452495065
10
58.3824180223
20
86.6684093693
10
58.3211473041
20
86.6922101792
10
58.2598462533
20
86.7166271618
10
58.1986336164
20
86.7416355427
10
58.13762814
20
86.7672105474
10
58.0769485705
20
86.7933274016
10
58.0167136543
20
86.8199613309
10
57.9570421379
20
86.8470875609
10
57.8980527678
20
86.8746813172
10
57.8398642905
20
86.9027178255
10
57.7825954524
20
86.9311723112
10
57.726365
20
86.96002
10
56.680661
20
87.460084
10
57.602679
20
87.960151
10
57.7149345929
20
88.0185071353
10
57.8245128605
20
88.0774454207
10
57.9314293913
20
88.1369859978
10
58.0356997737
20
88.1971490084
10
58.137339596
20
88.2579545942
10
58.2363644467
20
88.3194228969
10
58.3327899141
20
88.3815740583
10
58.4266315868
20
88.4444282201
10
58.5179050529
20
88.508005524
10
58.6066259011
20
88.5723261116
10
58.6928097196
20
88.6374101248
10
58.7764720968
20
88.7032777052
10
58.8576286213
20
88.7699489947
10
58.9362948812
20
88.8374441348
10
59.0124864652
20
88.9057832673
10
59.0862189615
20
88.974986534
10
59.1575079585
20
89.0450740765
10
59.2263690447
20
89.1160660366
10
59.2928178085
20
89.1879825559
10
59.3568698382
20
89.2608437763
10
59.4185407222
20
89.3346698395
10
59.477846049
20
89.4094808871
10
59.534801407
20
89.4852970609
10
59.5894223845
20
89.5621385025
10
59.64172457
20
89.6400253538
10
59.6917235518
20
89.7189777565
10
59.7394349183
20
89.7990158522
10
59.784874258
20
89.8801597827
10
59.8280571593
20
89.9624296896
10
59.8689992105
20
90.0458457148
10
59.907716
20
90.130428
10
59.940954919
20
90.2053624561
10
59.974031589
20
90.2753185935
10
60.006898654
20
90.3403135337
10
60.0395087578
20
90.4003643981
10
60.0718145444
20
90.4554883083
10
60.1037686575
20
90.5057023858
10
60.1353237412
20
90.5510237519
10
60.1664324392
20
90.5914695282
10
60.1970473955
20
90.6270568363
10
60.2271212539
20
90.6578027974
10
60.2566066584
20
90.6837245332
10
60.2854562528
20
90.7048391651
10
60.313622681
20
90.7211638146
10
60.341058587
20
90.7327156032
10
60.3677166144
20
90.7395116523
10
60.3935494074
20
90.7415690834
10
60.4185096097
20
90.7389050181
10
60.4425498653
20
90.7315365777
10
60.4656228179
20
90.7194808838
10
60.4876811116
20
90.7027550578
10
60.5086773902
20
90.6813762213
10
60.5285642975
20
90.6553614957
10
60.5472944776
20
90.6247280025
10
60.5648205741
20
90.5894928631
10
60.5810952311
20
90.5496731991
10
60.5960710925
20
90.5052861319
10
60.609700802
20
90.456348783
10
60.6219370037
20
90.4028782738
10
60.6327323413
20
90.344891726
10
60.6420394588
20
90.2824062609
10
60.649811
20
90.215439
10
60.6533014399
20
90.1776577637
10
60.657022919
20
90.1417296592
10
60.6609887408
20
90.1076345445
10
60.6652122087
20
90.0753522777
10
60.6697066262
20
90.0448627169
10
60.6744852968
20
90.0161457202
10
60.679561524
20
89.9891811455
10
60.6849486112
20
89.9639488512
10
60.690659862
20
89.9404286951
10
60.6967085798
20
89.9186005354
10
60.7031080681
20
89.8984442301
10
60.7098716304
20
89.8799396374
10
60.7170125701
20
89.8630666153
10
60.7245441908
20
89.8478050218
10
60.7324797959
20
89.8341347151
10
60.740832689
20
89.8220355533
10
60.7496161734
20
89.8114873944
10
60.7588435527
20
89.8024700965
10
60.7685281303
20
89.7949635177
10
60.7786832097
20
89.788947516
10
60.7893220945
20
89.7844019495
10
60.800458088
20
89.7813066764
10
60.8121044939
20
89.7796415547
10
60.8242746155
20
89.7793864424
10
60.8369817563
20
89.7805211976
10
60.8502392198
20
89.7830256785
10
60.8640603095
20
89.7868797431
10
60.8784583289
20
89.7920632495
10
60.8934465815
20
89.7985560557
10
60.9090383707
20
89.8063380198
10
60.925247
20
89.815389
10
60.938085526
20
89.8196423873
10
60.9520040985
20
89.8229347646
10
60.96695379
20
89.8252917129
10
60.9828856732
20
89.8267388132
10
60.9997508204
20
89.8273016464
10
61.0175003044
20
89.8270057937
10
61.0360851976
20
89.8258768361
10
61.0554565726
20
89.8239403544
10
61.0755655018
20
89.8212219299
10
61.0963630579
20
89.8177471434
10
61.1178003133
20
89.813541576
10
61.1398283407
20
89.8086308087
10
61.1623982125
20
89.8030404226
10
61.1854610013
20
89.7967959986
10
61.2089677796
20
89.7899231177
10
61.23286962
20
89.782447361
10
61.257117595
20
89.7743943095
10
61.2816627771
20
89.7657895441
10
61.3064562389
20
89.756658646
10
61.331449053
20
89.7470271961
10
61.3565922918
20
89.7369207754
10
61.3818370279
20
89.726364965
10
61.4071343338
20
89.7153853459
10
61.4324352821
20
89.704007499
10
61.4576909453
20
89.6922570054
10
61.482852396
20
89.6801594462
10
61.5078707067
20
89.6677404022
10
61.5326969499
20
89.6550254546
10
61.5572821981
20
89.6420401844
10
61.581577524
20
89.6288101725
10
61.605534
20
89.615361
10
61.6543890296
20
89.578519767
10
61.7003419104
20
89.5454251007
10
61.743403459
20
89.5160770017
10
61.7835844922
20
89.4904754705
10
61.8208958267
20
89.4686205079
10
61.8553482794
20
89.4505121144
10
61.886952667
20
89.4361502905
10
61.9157198062
20
89.425535037
10
61.9416605138
20
89.4186663544
10
61.9647856065
20
89.4155442433
10
61.9851059012
20
89.4161687043
10
62.0026322145
20
89.420539738
10
62.0173753632
20
89.4286573451
10
62.0293461641
20
89.4405215261
10
62.038555434
20
89.4561322816
10
62.0450139895
20
89.4754896123
10
62.0487326475
20
89.4985935187
10
62.0497222247
20
89.5254440014
10
62.0479935378
20
89.5560410612
10
62.0435574037
20
89.5903846984
10
62.0364246391
20
89.6284749139
10
62.0266060606
20
89.6703117081
10
62.0141124852
20
89.7158950816
10
61.9989547295
20
89.7652250352
10
61.9811436103
20
89.8183015693
10
61.9606899443
20
89.8751246846
10
61.9376045484
20
89.9356943817
10
61.9118982393
20
90.0000106612
10
61.8835818336
20
90.0680735236
10
61.8526661483
20
90.1398829697
10
61.819162
20
90.215439
10
61.8070720487
20
90.244773813
10
61.7951634011
20
90.2746524735
10
61.7834506408
20
90.304994411
10
61.7719483513
20
90.3357190546
10
61.7606711163
20
90.3667458338
10
61.7496335195
20
90.3979941777
10
61.7388501442
20
90.4293835156
10
61.7283355743
20
90.4608332769
10
61.7181043932
20
90.4922628909
10
61.7081711847
20
90.5235917867
10
61.6985505321
20
90.5547393938
10
61.6892570193
20
90.5856251415
10
61.6803052297
20
90.6161684589
10
61.671709747
20
90.6462887754
10
61.6634851548
20
90.6759055203
10
61.6556460367
20
90.7049381228
10
61.6482069762
20
90.7333060124
10
61.6411825569
20
90.7609286181
10
61.6345873626
20
90.7877253695
10
61.6284359767
20
90.8136156956
10
61.6227429829
20
90.8385190259
10
61.6175229647
20
90.8623547897
10
61.6127905058
20
90.8850424161
10
61.6085601898
20
90.9065013345
10
61.6048466002
20
90.9266509743
10
61.6016643207
20
90.9454107646
10
61.5990279348
20
90.9627001347
10
61.5969520262
20
90.9784385141
10
61.5954511785
20
90.9925453319
10
61.5945399752
20
91.0049400174
10
61.594233
20
91.015542
10
61.5958122101
20
91.0436389354
10
61.6004562833
20
91.0698478743
10
61.6080248839
20
91.0941541128
10
61.6183776762
20
91.1165429467
10
61.6313743246
20
91.1369996721
10
61.6468744933
20
91.1555095849
10
61.6647378468
20
91.1720579811
10
61.6848240494
20
91.1866301566
10
61.7069927653
20
91.1992114073
10
61.7311036589
20
91.2097870294
10
61.7570163946
20
91.2183423186
10
61.7845906366
20
91.224862571
10
61.8136860493
20
91.2293330826
10
61.844162297
20
91.2317391493
10
61.8758790441
20
91.232066067
10
61.9086959549
20
91.2302991318
10
61.9424726936
20
91.2264236395
10
61.9770689247
20
91.2204248862
10
62.0123443124
20
91.2122881678
10
62.0481585211
20
91.2019987802
10
62.0843712152
20
91.1895420195
10
62.1208420588
20
91.1749031816
10
62.1574307165
20
91.1580675625
10
62.1939968524
20
91.1390204581
10
62.230400131
20
91.1177471643
10
62.2665002165
20
91.0942329772
10
62.3021567734
20
91.0684631927
10
62.3372294658
20
91.0404231068
10
62.3715779581
20
91.0100980154
10
62.4050619148
20
90.9774732145
10
62.437541
20
90.942534
10
62.4657517331
20
90.9116444804
10
62.5012038451
20
90.8772521014
10
62.5433851727
20
90.8396630357
10
62.5917835526
20
90.7991834561
10
62.6458868216
20
90.7561195356
10
62.7051828163
20
90.7107774467
10
62.7691593736
20
90.6634633625
10
62.8373043301
20
90.6144834556
10
62.9091055226
20
90.5641438989
10
62.9840507879
20
90.5127508652
10
63.0616279625
20
90.4606105272
10
63.1413248833
20
90.4080290578
10
63.222629387
20
90.3553126299
10
63.3050293104
20
90.3027674161
10
63.38801249
20
90.2506995893
10
63.4710667628
20
90.1994153223
10
63.5536799654
20
90.1492207879
10
63.6353399345
20
90.1004221589
10
63.7155345069
20
90.0533256081
10
63.7937515193
20
90.0082373084
10
63.8694788084
20
89.9654634324
10
63.942204211
20
89.9253101531
10
64.0114155637
20
89.8880836432
10
64.0766007034
20
89.8540900756
10
64.1372474667
20
89.823635623
10
64.1928436904
20
89.7970264582
10
64.2428772112
20
89.7745687541
10
64.2868358658
20
89.7565686834
10
64.324207491
20
89.7433324189
10
64.3544799235
20
89.7351661335
10
64.377141
20
89.732376
10
64.3805643508
20
89.7336181503
10
64.3825256751
20
89.7373177439
10
64.3830550423
20
89.7434344943
10
64.3821825215
20
89.7519281155
10
64.3799381822
20
89.762758321
10
64.3763520936
20
89.7758848247
10
64.3714543249
20
89.7912673402
10
64.3652749454
20
89.8088655814
10
64.3578440245
20
89.828639262
10
64.3491916314
20
89.8505480956
10
64.3393478354
20
89.8745517961
10
64.3283427058
20
89.9006100771
10
64.3162063118
20
89.9286826525
10
64.3029687227
20
89.9587292359
10
64.2886600079
20
89.9907095412
10
64.2733102366
20
90.0245832819
10
64.2569494781
20
90.060310172
10
64.2396078017
20
90.097849925
10
64.2213152766
20
90.1371622548
10
64.2021019721
20
90.1782068751
10
64.1819979576
20
90.2209434996
10
64.1610333022
20
90.2653318421
10
64.1392380754
20
90.3113316163
10
64.1166423463
20
90.3589025359
10
64.0932761843
20
90.4080043148
10
64.0691696586
20
90.4585966665
10
64.0443528385
20
90.5106393049
10
64.0188557933
20
90.5640919437
10
63.9927085923
20
90.6189142967
10
63.9659413048
20
90.6750660775
10
63.938584
20
90.732507
10
63.9110546126
20
90.7816274465
10
63.8837774666
20
90.832113577
10
63.856792506
20
90.8838324493
10
63.8301396747
20
90.9366511208
10
63.8038589164
20
90.9904366494
10
63.7779901752
20
91.0450560925
10
63.7525733948
20
91.1003765079
10
63.7276485191
20
91.1562649532
10
63.703255492
20
91.212588486
10
63.6794342575
20
91.2692141639
10
63.6562247593
20
91.3260090446
10
63.6336669413
20
91.3828401857
10
63.6118007474
20
91.4395746449
10
63.5906661216
20
91.4960794797
10
63.5703030076
20
91.5522217479
10
63.5507513493
20
91.607868507
10
63.5320510907
20
91.6628868147
10
63.5142421756
20
91.7171437287
10
63.4973645478
20
91.7705063065
10
63.4814581513
20
91.8228416058
10
63.4665629298
20
91.8740166842
10
63.4527188274
20
91.9238985993
10
63.4399657879
20
91.9723544089
10
63.4283437551
20
92.0192511705
10
63.4178926729
20
92.0644559418
10
63.4086524852
20
92.1078357804
10
63.4006631359
20
92.1492577439
10
63.3939645689
20
92.18858889
10
63.388596728
20
92.2256962763
10
63.384599557
20
92.2604469604
10
63.382013
20
92.292708
10
63.3790547148
20
92.3398591401
10
63.3765250762
20
92.3845528376
10
63.3744776841
20
92.4268293793
10
63.3729661382
20
92.4667290523
10
63.3720440384
20
92.5042921432
10
63.3717649845
20
92.539558939
10
63.3721825763
20
92.5725697266
10
63.3733504136
20
92.6033647927
10
63.3753220962
20
92.6319844244
10
63.378151224
20
92.6584689083
10
63.3818913967
20
92.6828585315
10
63.3865962141
20
92.7051935807
10
63.3923192762
20
92.7255143429
10
63.3991141826
20
92.7438611049
10
63.4070345332
20
92.7602741535
10
63.4161339278
20
92.7747937757
10
63.4264659662
20
92.7874602583
10
63.4380842483
20
92.7983138881
10
63.4510423738
20
92.807394952
10
63.4653939426
20
92.814743737
10
63.4811925544
20
92.8204005298
10
63.4984918091
20
92.8244056173
10
63.5173453065
20
92.8267992864
10
63.5378066464
20
92.8276218239
10
63.5599294286
20
92.8269135168
10
63.583767253
20
92.8247146518
10
63.6093737192
20
92.8210655159
10
63.6368024273
20
92.8160063959
10
63.6661069769
20
92.8095775787
10
63.6973409678
20
92.8018193511
10
63.730558
20
92.792772
10
63.7532530845
20
92.7901469755
10
63.7806430734
20
92.7873143578
10
63.8125735538
20
92.7842914756
10
63.8488901128
20
92.7810956576
10
63.8894383374
20
92.7777442326
10
63.9340638146
20
92.7742545292
10
63.9826121315
20
92.7706438761
10
64.0349288752
20
92.7669296022
10
64.0908596328
20
92.7631290362
10
64.1502499912
20
92.7592595066
10
64.2129455376
20
92.7553383424
10
64.278791859
20
92.7513828721
10
64.3476345424
20
92.7474104246
10
64.4193191749
20
92.7434383286
10
64.4936913436
20
92.7394839127
10
64.5705966356
20
92.7355645057
10
64.6498806378
20
92.7316974363
10
64.7313889373
20
92.7279000332
10
64.8149671213
20
92.7241896253
10
64.9004607767
20
92.7205835411
10
64.9877154906
20
92.7170991094
10
65.0765768501
20
92.713753659
10
65.1668904421
20
92.7105645185
10
65.2585018539
20
92.7075490167
10
65.3512566724
20
92.7047244823
10
65.4450004847
20
92.702108244
10
65.5395788778
20
92.6997176306
10
65.6348374389
20
92.6975699708
10
65.7306217549
20
92.6956825933
10
65.8267774129
20
92.6940728268
10
65.92315
20
92.692758
10
66.0469855607
20
92.687210632
10
66.1656716969
20
92.682184742
10
66.2792660413
20
92.6776835541
10
66.3878262265
20
92.6737102922
10
66.4914098854
20
92.6702681804
10
66.5900746505
20
92.6673604429
10
66.6838781547
20
92.6649903036
10
66.7728780306
20
92.6631609867
10
66.8571319109
20
92.6618757161
10
66.9366974284
20
92.661137716
10
67.0116322157
20
92.6609502104
10
67.0819939056
20
92.6613164234
10
67.1478401307
20
92.662239579
10
67.2092285238
20
92.6637229013
10
67.2662167176
20
92.6657696144
10
67.3188623448
20
92.6683829423
10
67.3672230381
20
92.6715661091
10
67.4113564301
20
92.6753223388
10
67.4513201537
20
92.6796548555
10
67.4871718415
20
92.6845668832
10
67.5189691262
20
92.6900616461
10
67.5467696406
20
92.6961423682
10
67.5706310173
20
92.7028122735
10
67.590610889
20
92.7100745861
10
67.6067668885
20
92.7179325301
10
67.6191566485
20
92.7263893295
10
67.6278378016
20
92.7354482084
10
67.6328679806
20
92.7451123908
10
67.6343048182
20
92.7553851008
10
67.6322059471
20
92.7662695626
10
67.626629
20
92.777769
10
67.6206610522
20
92.7868098068
10
67.613905101
20
92.7959136562
10
67.6063900172
20
92.8050561756
10
67.5981446714
20
92.8142129923
10
67.5891979346
20
92.8233597339
10
67.5795786773
20
92.8324720278
10
67.5693157703
20
92.8415255012
10
67.5584380844
20
92.8504957816
10
67.5469744902
20
92.8593584965
10
67.5349538585
20
92.8680892732
10
67.5224050601
20
92.8766637392
10
67.5093569656
20
92.8850575218
10
67.4958384459
20
92.8932462484
10
67.4818783716
20
92.9012055465
10
67.4675056134
20
92.9089110434
10
67.4527490422
20
92.9163383666
10
67.4376375285
20
92.9234631434
10
67.4221999433
20
92.9302610013
10
67.4064651572
20
92.9367075677
10
67.3904620409
20
92.94277847
10
67.3742194651
20
92.9484493355
10
67.3577663007
20
92.9536957917
10
67.3411314182
20
92.958493466
10
67.3243436886
20
92.9628179858
10
67.3074319824
20
92.9666449785
10
67.2904251705
20
92.9699500715
10
67.2733521236
20
92.9727088921
10
67.2562417123
20
92.9748970679
10
67.2391228075
20
92.9764902262
10
67.2220242798
20
92.9774639945
10
67.204975
20
92.977794
10
67.1601340025
20
92.9808990324
10
67.1128044806
20
92.9901456431
10
67.063056576
20
93.0054311025
10
67.0109604305
20
93.0266526808
10
66.9565861856
20
93.0537076484
10
66.900003983
20
93.0864932756
10
66.8412839643
20
93.1249068327
10
66.7804962713
20
93.1688455901
10
66.7177110454
20
93.218206818
10
66.6529984286
20
93.2728877867
10
66.5864285622
20
93.3327857666
10
66.5180715881
20
93.3977980281
10
66.4479976478
20
93.4678218413
10
66.3762768831
20
93.5427544767
10
66.3029794356
20
93.6224932045
10
66.2281754468
20
93.706935295
10
66.1519350586
20
93.7959780187
10
66.0743284125
20
93.8895186457
10
65.9954256502
20
93.9874544464
10
65.9152969133
20
94.0896826912
10
65.8340123436
20
94.1961006503
10
65.7516420825
20
94.3066055941
10
65.6682562719
20
94.4210947929
10
65.5839250534
20
94.5394655169
10
65.4987185685
20
94.6616150366
10
65.412706959
20
94.7874406221
10
65.3259603666
20
94.916839544
10
65.2385489328
20
95.0497090723
10
65.1505427993
20
95.1859464776
10
65.0620121079
20
95.32544903
10
64.973027
20
95.468114
10
64.8903562069
20
95.6061300055
10
64.8124965075
20
95.7376277464
10
64.7394215345
20
95.8627079384
10
64.6711049206
20
95.9814712972
10
64.6075202985
20
96.0940185383
10
64.5486413009
20
96.2004503774
10
64.4944415605
20
96.3008675303
10
64.4448947101
20
96.3953707124
10
64.3999743823
20
96.4840606396
10
64.3596542099
20
96.5670380274
10
64.3239078255
20
96.6444035915
10
64.2927088619
20
96.7162580475
10
64.2660309518
20
96.7827021112
10
64.2438477278
20
96.8438364981
10
64.2261328227
20
96.8997619239
10
64.2128598693
20
96.9505791042
10
64.2040025001
20
96.9963887548
10
64.1995343479
20
97.0372915912
10
64.1994290455
20
97.0733883292
10
64.2036602255
20
97.1047796843
10
64.2122015206
20
97.1315663722
10
64.2250265636
20
97.1538491086
10
64.2421089871
20
97.1717286091
10
64.2634224239
20
97.1853055894
10
64.2889405066
20
97.1946807651
10
64.318636868
20
97.1999548519
10
64.3524851408
20
97.2012285655
10
64.3904589577
20
97.1986026214
10
64.4325319514
20
97.1921777354
10
64.4786777546
20
97.182054623
10
64.52887
20
97.168334
10
64.5474011564
20
97.1625531102
10
64.5664380126
20
97.1562611831
10
64.5859367783
20
97.1494842035
10
64.6058536634
20
97.1422481558
10
64.6261448775
20
97.1345790248
10
64.6467666303
20
97.1265027951
10
64.6676751317
20
97.1180454513
10
64.6888265912
20
97.1092329781
10
64.7101772187
20
97.10009136
10
64.7316832238
20
97.0906465817
10
64.7533008163
20
97.0809246277
10
64.774986206
20
97.0709514829
10
64.7966956025
20
97.0607531317
10
64.8183852155
20
97.0503555587
10
64.8400112549
20
97.0397847487
10
64.8615299303
20
97.0290666862
10
64.8828974515
20
97.0182273559
10
64.9040700281
20
97.0072927424
10
64.92500387
20
96.9962888304
10
64.9456551868
20
96.9852416043
10
64.9659801883
20
96.9741770489
10
64.9859350842
20
96.9631211489
10
65.0054760842
20
96.9520998887
10
65.024559398
20
96.9411392531
10
65.0431412354
20
96.9302652267
10
65.0611778062
20
96.9195037941
10
65.07862532
20
96.9088809399
10
65.0954399865
20
96.8984226488
10
65.1115780155
20
96.8881549053
10
65.1269956168
20
96.8781036942
10
65.141649
20
96.868295
10
65.1892226952
20
96.8317945154
10
65.2330137128
20
96.7996489088
10
65.2730590151
20
96.7717484025
10
65.3093955643
20
96.7479832191
10
65.3420603227
20
96.7282435809
10
65.3710902527
20
96.7124197104
10
65.3965223166
20
96.7004018299
10
65.4183934767
20
96.692080162
10
65.4367406952
20
96.6873449289
10
65.4516009345
20
96.6860863531
10
65.4630111569
20
96.688194657
10
65.4710083246
20
96.6935600631
10
65.4756294001
20
96.7020727938
10
65.4769113455
20
96.7136230714
10
65.4748911233
20
96.7281011185
10
65.4696056956
20
96.7453971573
10
65.4610920249
20
96.7654014104
10
65.4493870734
20
96.7880041001
10
65.4345278034
20
96.8130954488
10
65.4165511772
20
96.8405656791
10
65.3954941571
20
96.8703050132
10
65.3713937054
20
96.9022036736
10
65.3442867845
20
96.9361518828
10
65.3142103567
20
96.9720398631
10
65.2812013841
20
97.0097578369
10
65.2452968292
20
97.0491960268
10
65.2065336543
20
97.090244655
10
65.1649488216
20
97.132793944
10
65.1205792934
20
97.1767341162
10
65.0734620321
20
97.2219553941
10
65.023634
20
97.268348
10
64.9954985605
20
97.2973739516
10
64.9677187668
20
97.326339457
10
64.9403330516
20
97.3551840884
10
64.9133798473
20
97.3838474183
10
64.8868975865
20
97.4122690193
10
64.8609247018
20
97.4403884636
10
64.8354996256
20
97.4681453237
10
64.8106607906
20
97.495479172
10
64.7864466294
20
97.5223295809
10
64.7628955743
20
97.5486361229
10
64.740046058
20
97.5743383704
10
64.7179365131
20
97.5993758958
10
64.6966053721
20
97.6236882715
10
64.6760910674
20
97.64721507
10
64.6564320318
20
97.6698958636
10
64.6376666977
20
97.6916702248
10
64.6198334976
20
97.7124777261
10
64.6029708642
20
97.7322579397
10
64.5871172299
20
97.7509504382
10
64.5723110273
20
97.768494794
10
64.558590689
20
97.7848305795
10
64.5459946474
20
97.7998973671
10
64.5345613353
20
97.8136347292
10
64.524329185
20
97.8259822383
10
64.5153366291
20
97.8368794667
10
64.5076221003
20
97.846265987
10
64.501224031
20
97.8540813715
10
64.4961808537
20
97.8602651926
10
64.4925310011
20
97.8647570228
10
64.4903129057
20
97.8674964344
10
64.489565
20
97.868423
10
64.4907745368
20
97.8742913514
10
64.4943620023
20
97.8806387021
10
64.5002656789
20
97.8874195288
10
64.5084238489
20
97.8945883084
10
64.5187747949
20
97.9020995179
10
64.5312567993
20
97.909907634
10
64.5458081444
20
97.9179671336
10
64.5623671129
20
97.9262324936
10
64.5808719869
20
97.9346581908
10
64.6012610491
20
97.9431987021
10
64.6234725819
20
97.9518085042
10
64.6474448676
20
97.9604420742
10
64.6731161887
20
97.9690538888
10
64.7004248277
20
97.9775984249
10
64.729309067
20
97.9860301594
10
64.759707189
20
97.994303569
10
64.7915574761
20
98.0023731307
10
64.8247982108
20
98.0101933214
10
64.8593676756
20
98.0177186178
10
64.8952041528
20
98.0249034968
10
64.9322459248
20
98.0317024353
10
64.9704312742
20
98.0380699101
10
65.0096984834
20
98.0439603982
10
65.0499858347
20
98.0493283763
10
65.0912316107
20
98.0541283212
10
65.1333740938
20
98.05831471
10
65.1763515663
20
98.0618420193
10
65.2201023107
20
98.0646647262
10
65.2645646095
20
98.0667373073
10
65.3096767452
20
98.0680142396
10
65.355377
20
98.06845
10
65.4015095817
20
98.0744088861
10
65.4479049149
20
98.0808348888
10
65.4944803172
20
98.0876830894
10
65.5411531062
20
98.0949085692
10
65.5878405994
20
98.1024664095
10
65.6344601144
20
98.1103116915
10
65.6809289688
20
98.1183994964
10
65.7271644802
20
98.1266849056
10
65.7730839662
20
98.1351230003
10
65.8186047443
20
98.1436688617
10
65.8636441321
20
98.1522775712
10
65.9081194472
20
98.1609042101
10
65.9519480071
20
98.1695038595
10
65.9950471296
20
98.1780316007
10
66.037334132
20
98.186442515
10
66.0787263321
20
98.1946916837
10
66.1191410473
20
98.2027341881
10
66.1584955953
20
98.2105251093
10
66.1967072937
20
98.2180195288
10
66.23369346
20
98.2251725276
10
66.2693714118
20
98.2319391872
10
66.3036584667
20
98.2382745887
10
66.3364719422
20
98.2441338135
10
66.367729156
20
98.2494719427
10
66.3973474256
20
98.2542440578
10
66.4252440686
20
98.2584052398
10
66.4513364026
20
98.2619105702
10
66.4755417452
20
98.2647151301
10
66.4977774139
20
98.2667740009
10
66.5179607263
20
98.2680422638
10
66.536009
20
98.268475
10
66.5603870165
20
98.2778449129
10
66.5828481599
20
98.2866105318
10
66.6033700714
20
98.294792
10
66.621930392
20
98.3024094605
10
66.6385067626
20
98.3094830565
10
66.6530768243
20
98.3160329311
10
66.6656182182
20
98.3220792274
10
66.6761085852
20
98.3276420886
10
66.6845255665
20
98.3327416578
10
66.690846803
20
98.3373980781
10
66.6950499358
20
98.3416314927
10
66.6971126059
20
98.3454620447
10
66.6970124544
20
98.3489098772
10
66.6947271222
20
98.3519951333
10
66.6902342504
20
98.3547379563
10
66.6835114801
20
98.3571584891
10
66.6745364522
20
98.359276875
10
66.6632868079
20
98.3611132571
10
66.649740188
20
98.3626877784
10
66.6338742338
20
98.3640205822
10
66.6156665862
20
98.3651318116
10
66.5950948861
20
98.3660416096
10
66.5721367748
20
98.3667701195
10
66.5467698932
20
98.3673374844
10
66.5189718822
20
98.3677638473
10
66.4887203831
20
98.3680693514
10
66.4559930368
20
98.3682741399
10
66.4207674842
20
98.3683983559
10
66.3830213666
20
98.3684621425
10
66.3427323248
20
98.3684856428
10
66.299878
20
98.368489
10
66.2362437821
20
98.3715397141
10
66.1611015868
20
98.3786009959
10
66.0753278112
20
98.3894371675
10
65.9797988525
20
98.403812551
10
65.8753911078
20
98.4214914685
10
65.7629809744
20
98.4422382422
10
65.6434448494
20
98.4658171941
10
65.5176591299
20
98.4919926463
10
65.3865002131
20
98.520528921
10
65.2508444963
20
98.5511903403
10
65.1115683765
20
98.5837412263
10
64.9695482509
20
98.6179459011
10
64.8256605167
20
98.6535686868
10
64.6807815711
20
98.6903739054
10
64.5357878112
20
98.7281258793
10
64.3915556342
20
98.7665889303
10
64.2489614372
20
98.8055273807
10
64.1088816175
20
98.8447055526
10
63.9721925722
20
98.883887768
10
63.8397706985
20
98.9228383491
10
63.7124923934
20
98.961321618
10
63.5912340543
20
98.9991018968
10
63.4768720782
20
99.0359435077
10
63.3702828624
20
99.0716107726
10
63.272342804
20
99.1058680138
10
63.1839283001
20
99.1384795533
10
63.1059157479
20
99.1692097133
10
63.0391815447
20
99.1978228159
10
62.9846020875
20
99.2240831831
10
62.9430537736
20
99.2477551371
10
62.915413
20
99.268603
10
62.9094506256
20
99.2760928182
10
62.9050678754
20
99.2851797743
10
62.9022350191
20
99.2958249916
10
62.900922326
20
99.3079895937
10
62.9011000657
20
99.3216347037
10
62.9027385076
20
99.3367214451
10
62.9058079213
20
99.3532109412
10
62.910278576
20
99.3710643154
10
62.9161207415
20
99.3902426911
10
62.9233046871
20
99.4107071915
10
62.9318006823
20
99.4324189401
10
62.9415789966
20
99.4553390603
10
62.9526098994
20
99.4794286753
10
62.9648636603
20
99.5046489086
10
62.9783105488
20
99.5309608834
10
62.9929208342
20
99.5583257232
10
63.0086647861
20
99.5867045514
10
63.0255126739
20
99.6160584912
10
63.0434347672
20
99.646348666
10
63.0624013354
20
99.6775361993
10
63.082382648
20
99.7095822143
10
63.1033489744
20
99.7424478344
10
63.1252705842
20
99.776094183
10
63.1481177468
20
99.8104823834
10
63.1718607317
20
99.8455735591
10
63.1964698084
20
99.8813288332
10
63.2219152463
20
99.9177093293
10
63.2481673149
20
99.9546761707
10
63.2751962838
20
99.9921904807
10
63.3029724223
20
100.030213383
10
63.331466
20
100.068706
10
63.3973077521
20
100.155623069
10
63.4611620293
20
100.242268197
10
63.5231030405
20
100.328806556
10
63.5832049943
20
100.41540332
10
63.6415420997
20
100.50222366
10
63.6981885653
20
100.589432749
10
63.7532185999
20
100.67719576
10
63.8067064125
20
100.765677865
10
63.8587262116
20
100.855044236
10
63.9093522062
20
100.945460047
10
63.958658605
20
101.037090469
10
64.0067196169
20
101.130100675
10
64.0536094505
20
101.224655838
10
64.0994023147
20
101.32092113
10
64.1441724182
20
101.419061724
10
64.1879939699
20
101.519242791
10
64.2309411786
20
101.621629506
10
64.273088253
20
101.726387039
10
64.3145094019
20
101.833680564
10
64.3552788341
20
101.943675253
10
64.3954707584
20
102.056536279
10
64.4351593836
20
102.172428814
10
64.4744189184
20
102.29151803
10
64.5133235717
20
102.413969101
10
64.5519475523
20
102.539947198
10
64.5903650689
20
102.669617494
10
64.6286503303
20
102.803145162
10
64.6668775454
20
102.940695374
10
64.7051209228
20
103.082433303
10
64.7434546714
20
103.228524121
10
64.781953
20
103.379133
10
64.8108774647
20
103.49382058
10
64.8384317293
20
103.603704086
10
64.8646080994
20
103.708849988
10
64.8893988806
20
103.809324757
10
64.9127963784
20
103.905194865
10
64.9347928984
20
103.996526782
10
64.9553807463
20
104.083386979
10
64.9745522277
20
104.165841927
10
64.9922996481
20
104.243958096
10
65.0086153131
20
104.317801959
10
65.0234915284
20
104.387439985
10
65.0369205995
20
104.452938645
10
65.048894832
20
104.51436441
10
65.0594065315
20
104.571783752
10
65.0684480037
20
104.625263141
10
65.0760115541
20
104.674869047
10
65.0820894882
20
104.720667943
10
65.0866741118
20
104.762726298
10
65.0897577304
20
104.801110584
10
65.0913326496
20
104.835887271
10
65.0913911749
20
104.867122831
10
65.0899256121
20
104.894883734
10
65.0869282666
20
104.919236451
10
65.0823914441
20
104.940247453
10
65.0763074502
20
104.957983211
10
65.0686685904
20
104.972510195
10
65.0594671704
20
104.983894877
10
65.0486954958
20
104.992203728
10
65.0363458721
20
104.997503218
10
65.022410605
20
104.999859818
10
65.006882
20
104.99934
10
65.006805
20
104.878326
10
64.9992120259
20
104.876926658
10
64.9912841004
20
104.875045413
10
64.983020686
20
104.87267502
10
64.9744212454
20
104.869808229
10
64.9654852413
20
104.866437796
10
64.9562121364
20
104.862556473
10
64.9466013932
20
104.858157013
10
64.9366524745
20
104.853232169
10
64.9263648428
20
104.847774695
10
64.915737961
20
104.841777343
10
64.9047712915
20
104.835232866
10
64.8934642971
20
104.828134018
10
64.8818164404
20
104.820473552
10
64.8698271841
20
104.812244221
10
64.8574959909
20
104.803438778
10
64.8448223234
20
104.794049976
10
64.8318056442
20
104.784070568
10
64.818445416
20
104.773493308
10
64.8047411014
20
104.762310948
10
64.7906921632
20
104.750516242
10
64.776298064
20
104.738101942
10
64.7615582664
20
104.725060803
10
64.7464722331
20
104.711385576
10
64.7310394268
20
104.697069015
10
64.71525931
20
104.682103873
10
64.6991313455
20
104.666482904
10
64.682654996
20
104.65019886
10
64.665829724
20
104.633244494
10
64.6486549922
20
104.61561256
10
64.6311302633
20
104.597295811
10
64.613255
20
104.578287
10
64.5524854967
20
104.520576508
10
64.489236403
20
104.46353679
10
64.4233803599
20
104.407089286
10
64.3547900079
20
104.351155438
10
64.2833379878
20
104.295656687
10
64.2088969404
20
104.240514475
10
64.1313395063
20
104.185650243
10
64.0505383264
20
104.130985431
10
63.9663660413
20
104.076441482
10
63.8786952917
20
104.021939837
10
63.7873987184
20
103.967401936
10
63.6923489622
20
103.912749223
10
63.5934186637
20
103.857903136
10
63.4904804637
20
103.802785119
10
63.383407003
20
103.747316612
10
63.2720709221
20
103.691419056
10
63.156344862
20
103.635013894
10
63.0361014632
20
103.578022565
10
62.9112133666
20
103.520366512
10
62.7815532129
20
103.461967176
10
62.6469936427
20
103.402745998
10
62.5074072969
20
103.342624419
10
62.3626668162
20
103.281523881
10
62.2126448412
20
103.219365825
10
62.0572140128
20
103.156071693
10
61.8962469716
20
103.091562924
10
61.7296163584
20
103.025760963
10
61.5571948139
20
102.958587248
10
61.3788549789
20
102.889963221
10
61.194469494
20
102.819810325
10
61.003911
20
102.74805
10
60.9193882117
20
102.718711924
10
60.8342172767
20
102.688809851
10
60.7485553716
20
102.658404211
10
60.6625596732
20
102.627555431
10
60.5763873585
20
102.59632394
10
60.4901956041
20
102.564770167
10
60.4041415869
20
102.532954539
10
60.3183824836
20
102.500937486
10
60.2330754711
20
102.468779435
10
60.1483777262
20
102.436540815
10
60.0644464256
20
102.404282054
10
59.9814387462
20
102.372063581
10
59.8995118648
20
102.339945824
10
59.8188229581
20
102.307989211
10
59.739529203
20
102.276254171
10
59.6617877762
20
102.244801133
10
59.5857558546
20
102.213690524
10
59.5115906149
20
102.182982773
10
59.439449234
20
102.152738308
10
59.3694888886
20
102.123017558
10
59.3018667556
20
102.093880951
10
59.2367400117
20
102.065388916
10
59.1742658338
20
102.037601881
10
59.1146013986
20
102.010580273
10
59.0579038829
20
101.984384523
10
59.0043304636
20
101.959075058
10
58.9540383174
20
101.934712306
10
58.9071846212
20
101.911356696
10
58.8639265516
20
101.889068656
10
58.8244212857
20
101.867908614
10
58.788826
20
101.847937
10
58.7071059775
20
101.810469145
10
58.6206533307
20
101.775487537
10
58.5297245136
20
101.742980695
10
58.4345759799
20
101.712937137
10
58.3354641835
20
101.685345382
10
58.2326455782
20
101.660193947
10
58.1263766178
20
101.637471351
10
58.0169137562
20
101.617166111
10
57.9045134471
20
101.599266747
10
57.7894321445
20
101.583761776
10
57.6719263021
20
101.570639717
10
57.5522523737
20
101.559889087
10
57.4306668133
20
101.551498406
10
57.3074260746
20
101.54545619
10
57.1827866114
20
101.541750959
10
57.0570048776
20
101.540371231
10
56.9303373271
20
101.541305523
10
56.8030404135
20
101.544542355
10
56.6753705909
20
101.550070244
10
56.5475843129
20
101.557877708
10
56.4199380335
20
101.567953265
10
56.2926882064
20
101.580285435
10
56.1660912855
20
101.594862735
10
56.0404037245
20
101.611673683
10
55.9158819775
20
101.630706797
10
55.7927824981
20
101.651950596
10
55.6713617402
20
101.675393598
10
55.5518761576
20
101.701024322
10
55.4345822041
20
101.728831284
10
55.3197363337
20
101.758803004
10
55.207595
20
101.790928
10
55.1240201224
20
101.821310251
10
55.0398237647
20
101.854274823
10
54.9552338559
20
101.889656546
10
54.8704783249
20
101.927290245
10
54.7857851005
20
101.96701075
10
54.7013821117
20
102.008652888
10
54.6174972874
20
102.052051486
10
54.5343585565
20
102.097041372
10
54.4521938479
20
102.143457374
10
54.3712310904
20
102.19113432
10
54.2916982131
20
102.239907037
10
54.2138231447
20
102.289610353
10
54.1378338143
20
102.340079095
10
54.0639581507
20
102.391148092
10
53.9924240828
20
102.442652171
10
53.9234595395
20
102.49442616
10
53.8572924497
20
102.546304886
10
53.7941507424
20
102.598123177
10
53.7342623464
20
102.649715862
10
53.6778551907
20
102.700917767
10
53.6251572041
20
102.75156372
10
53.5763963155
20
102.801488549
10
53.5318004539
20
102.850527082
10
53.4915975482
20
102.898514146
10
53.4560155272
20
102.945284569
10
53.4252823199
20
102.990673179
10
53.3996258551
20
103.034514804
10
53.3792740619
20
103.07664427
10
53.364454869
20
103.116896407
10
53.3553962054
20
103.155106041
10
53.352326
20
103.191108
10
53.3520938641
20
103.200783408
10
53.3514050126
20
103.210438655
10
53.3502707799
20
103.2200536
10
53.3487025003
20
103.2296081
10
53.3467115082
20
103.239082013
10
53.344309138
20
103.248455199
10
53.341506724
20
103.257707514
10
53.3383156006
20
103.266818817
10
53.3347471022
20
103.275768966
10
53.3308125631
20
103.284537818
10
53.3265233176
20
103.293105233
10
53.3218907002
20
103.301451068
10
53.3169260452
20
103.309555181
10
53.311640687
20
103.317397431
10
53.3060459599
20
103.324957675
10
53.3001531983
20
103.332215771
10
53.2939737365
20
103.339151578
10
53.287518909
20
103.345744953
10
53.28080005
20
103.351975755
10
53.273828494
20
103.357823842
10
53.2666155753
20
103.363269071
10
53.2591726283
20
103.368291302
10
53.2515109873
20
103.372870391
10
53.2436419867
20
103.376986198
10
53.2355769609
20
103.380618579
10
53.2273272441
20
103.383747394
10
53.2189041709
20
103.386352501
10
53.2103190755
20
103.388413756
10
53.2015832923
20
103.389911019
10
53.1927081557
20
103.390824148
10
53.183705
20
103.391133
10
53.1735937108
20
103.390515287
10
53.1639920848
20
103.388689004
10
53.1549008717
20
103.385694436
10
53.1463208212
20
103.381571871
10
53.1382526827
20
103.376361593
10
53.130697206
20
103.370103887
10
53.1236551406
20
103.36283904
10
53.1171272362
20
103.354607338
10
53.1111142425
20
103.345449065
10
53.105616909
20
103.335404508
10
53.1006359853
20
103.324513952
10
53.0961722211
20
103.312817683
10
53.092226366
20
103.300355987
10
53.0887991696
20
103.287169148
10
53.0858913816
20
103.273297454
10
53.0835037516
20
103.258781189
10
53.0816370291
20
103.243660639
10
53.0802919638
20
103.22797609
10
53.0794693054
20
103.211767828
10
53.0791698035
20
103.195076137
10
53.0793942076
20
103.177941304
10
53.0801432674
20
103.160403615
10
53.0814177325
20
103.142503355
10
53.0832183526
20
103.12428081
10
53.0855458773
20
103.105776265
10
53.0884010561
20
103.087030006
10
53.0917846388
20
103.068082319
10
53.0956973749
20
103.048973489
10
53.100140014
20
103.029743802
10
53.1051133059
20
103.010433544
10
53.110618
20
102.991083
10
53.1157534451
20
102.970497356
10
53.1210607968
20
102.947536855
10
53.1265281282
20
102.922324368
10
53.1321435124
20
102.894982769
10
53.1378950226
20
102.865634929
10
53.1437707318
20
102.834403721
10
53.1497587132
20
102.801412017
10
53.1558470399
20
102.766782688
10
53.162023785
20
102.730638608
10
53.1682770215
20
102.693102649
10
53.1745948227
20
102.654297681
10
53.1809652615
20
102.614346579
10
53.1873764112
20
102.573372214
10
53.1938163448
20
102.531497458
10
53.2002731354
20
102.488845184
10
53.2067348562
20
102.445538263
10
53.2131895803
20
102.401699569
10
53.2196253807
20
102.357451972
10
53.2260303306
20
102.312918346
10
53.232392503
20
102.268221562
10
53.2386999712
20
102.223484493
10
53.2449408082
20
102.178830011
10
53.251103087
20
102.134380988
10
53.2571748809
20
102.090260297
10
53.263144263
20
102.046590809
10
53.2689993062
20
102.003495396
10
53.2747280839
20
101.961096932
10
53.2803186689
20
101.919518288
10
53.2857591346
20
101.878882337
10
53.2910375539
20
101.83931195
10
53.296142
20
101.80093
10
53.3042622349
20
101.735025542
10
53.3116469968
20
101.672704493
10
53.3182425651
20
101.613803695
10
53.323995219
20
101.558159993
10
53.328851238
20
101.505610229
10
53.3327569014
20
101.455991245
10
53.3356584885
20
101.409139885
10
53.3375022787
20
101.364892991
10
53.3382345514
20
101.323087408
10
53.3378015858
20
101.283559977
10
53.3361496613
20
101.246147541
10
53.3332250573
20
101.210686943
10
53.3289740531
20
101.177015027
10
53.3233429281
20
101.144968636
10
53.3162779615
20
101.114384611
10
53.3077254328
20
101.085099797
10
53.2976316214
20
101.056951036
10
53.2859428064
20
101.02977517
10
53.2726052674
20
101.003409044
10
53.2575652835
20
100.9776895
10
53.2407691343
20
100.95245338
10
53.222163099
20
100.927537529
10
53.201693457
20
100.902778788
10
53.1793064875
20
100.878014001
10
53.1549484701
20
100.85308001
10
53.1285656839
20
100.827813659
10
53.1001044084
20
100.802051791
10
53.069510923
20
100.775631247
10
53.0367315068
20
100.748388873
10
53.0017124394
20
100.720161509
10
52.9644
20
100.690786
10
52.9415299108
20
100.671740951
10
52.9185145563
20
100.653320321
10
52.8953953701
20
100.635524111
10
52.8722137863
20
100.618352321
10
52.8490112386
20
100.601804951
10
52.825829161
20
100.585882003
10
52.8027089871
20
100.570583477
10
52.7796921511
20
100.555909373
10
52.7568200865
20
100.541859693
10
52.7341342275
20
100.528434436
10
52.7116760077
20
100.515633603
10
52.689486861
20
100.503457196
10
52.6676082213
20
100.491905214
10
52.6460815225
20
100.480977658
10
52.6249481984
20
100.470674529
10
52.6042496829
20
100.460995828
10
52.5840274098
20
100.451941554
10
52.564322813
20
100.443511709
10
52.5451773263
20
100.435706293
10
52.5266323836
20
100.428525307
10
52.5087294188
20
100.421968752
10
52.4915098656
20
100.416036627
10
52.475015158
20
100.410728934
10
52.4592867298
20
100.406045673
10
52.4443660149
20
100.401986845
10
52.4302944471
20
100.398552451
10
52.4171134603
20
100.39574249
10
52.4048644883
20
100.393556964
10
52.3935889651
20
100.391995873
10
52.3833283243
20
100.391059218
10
52.374124
20
100.390747
10
52.3638105128
20
100.394777999
10
52.3502590158
20
100.402171826
10
52.3335679239
20
100.412844275
10
52.313835652
20
100.426711139
10
52.2911606147
20
100.443688213
10
52.2656412271
20
100.46369129
10
52.2373759038
20
100.486636164
10
52.2064630597
20
100.512438629
10
52.1730011097
20
100.541014478
10
52.1370884685
20
100.572279506
10
52.0988235509
20
100.606149505
10
52.0583047719
20
100.64254027
10
52.0156305462
20
100.681367594
10
51.9708992886
20
100.722547272
10
51.9242094141
20
100.765995097
10
51.8756593372
20
100.811626863
10
51.8253474731
20
100.859358363
10
51.7733722363
20
100.909105391
10
51.7198320418
20
100.960783742
10
51.6648253044
20
101.014309208
10
51.6084504389
20
101.069597584
10
51.5508058602
20
101.126564663
10
51.4919899829
20
101.18512624
10
51.4321012221
20
101.245198107
10
51.3712379925
20
101.306696059
10
51.3094987089
20
101.36953589
10
51.2469817861
20
101.433633392
10
51.183785639
20
101.498904361
10
51.1200086824
20
101.565264589
10
51.0557493311
20
101.632629871
10
50.991106
20
101.700916
10
50.883987691
20
101.812803431
10
50.7833520609
20
101.918321675
10
50.6890008291
20
102.017782947
10
50.600735715
20
102.111499462
10
50.5183584382
20
102.199783435
10
50.4416707179
20
102.282947083
10
50.3704742738
20
102.361302619
10
50.3045708252
20
102.43516226
10
50.2437620916
20
102.50483822
10
50.1878497924
20
102.570642716
10
50.1366356471
20
102.632887962
10
50.0899213751
20
102.691886173
10
50.0475086959
20
102.747949565
10
50.0091993289
20
102.801390353
10
49.9747949935
20
102.852520753
10
49.9440974092
20
102.90165298
10
49.9169082955
20
102.949099249
10
49.8930293718
20
102.995171775
10
49.8722623575
20
103.040182774
10
49.854408972
20
103.084444461
10
49.839270935
20
103.128269051
10
49.8266499656
20
103.17196876
10
49.8163477835
20
103.215855803
10
49.8081661081
20
103.260242394
10
49.8019066588
20
103.305440751
10
49.797371155
20
103.351763087
10
49.7943613162
20
103.399521618
10
49.7926788619
20
103.44902856
10
49.7921255114
20
103.500596127
10
49.7925029843
20
103.554536535
10
49.793613
20
103.611162
10
49.804856
20
104.21124
10
49.529381
20
103.611162
10
49.5143790928
20
103.581204765
10
49.4986881918
20
103.549466895
10
49.4823492054
20
103.516041048
10
49.465403042
20
103.481019883
10
49.44789061
20
103.444496057
10
49.4298528177
20
103.406562228
10
49.4113305737
20
103.367311054
10
49.3923647862
20
103.326835194
10
49.3729963638
20
103.285227304
10
49.3532662147
20
103.242580043
10
49.3332152473
20
103.198986069
10
49.3128843702
20
103.15453804
10
49.2923144915
20
103.109328613
10
49.2715465198
20
103.063450447
10
49.2506213635
20
103.016996199
10
49.229579931
20
102.970058527
10
49.2084631305
20
102.92273009
10
49.1873118706
20
102.875103545
10
49.1661670596
20
102.82727155
10
49.1450696059
20
102.779326763
10
49.124060418
20
102.731361842
10
49.1031804042
20
102.683469445
10
49.0824704729
20
102.63574223
10
49.0619715324
20
102.588272854
10
49.0417244913
20
102.541153976
10
49.0217702579
20
102.494478253
10
49.0021497406
20
102.448338344
10
48.9829038477
20
102.402826906
10
48.9640734877
20
102.358036598
10
48.945699569
20
102.314060076
10
48.927823
20
102.27099
10
48.9093232688
20
102.231977178
10
48.8913938833
20
102.192424531
10
48.8740483939
20
102.15241666
10
48.8573003514
20
102.112038162
10
48.8411633063
20
102.07137364
10
48.8256508092
20
102.030507692
10
48.8107764107
20
101.989524918
10
48.7965536615
20
101.948509918
10
48.7829961121
20
101.907547291
10
48.7701173131
20
101.866721638
10
48.7579308151
20
101.826117559
10
48.7464501687
20
101.785819652
10
48.7356889246
20
101.745912518
10
48.7256606334
20
101.706480756
10
48.7163788456
20
101.667608968
10
48.7078571118
20
101.629381751
10
48.7001089827
20
101.591883705
10
48.6931480088
20
101.555199432
10
48.6869877407
20
101.51941353
10
48.6816417292
20
101.4846106
10
48.6771235246
20
101.45087524
10
48.6734466778
20
101.418292051
10
48.6706247391
20
101.386945633
10
48.6686712594
20
101.356920585
10
48.6675997891
20
101.328301507
10
48.6674238789
20
101.301172999
10
48.6681570794
20
101.275619661
10
48.6698129411
20
101.251726092
10
48.6724050147
20
101.229576892
10
48.6759468508
20
101.209256662
10
48.680452
20
101.19085
10
48.6959468075
20
101.14020373
10
48.7165090299
20
101.085281128
10
48.7418703029
20
101.026426638
10
48.7717622622
20
100.963984702
10
48.8059165431
20
100.898299763
10
48.8440647815
20
100.829716264
10
48.8859386128
20
100.758578648
10
48.9312696727
20
100.685231357
10
48.9797895968
20
100.610018835
10
49.0312300205
20
100.533285523
10
49.0853225797
20
100.455375866
10
49.1417989097
20
100.376634306
10
49.2003906463
20
100.297405285
10
49.2608294251
20
100.218033247
10
49.3228468815
20
100.138862634
10
49.3861746513
20
100.060237889
10
49.4505443699
20
99.9825034546
10
49.5156876731
20
99.9060037742
10
49.5813361964
20
99.8310832904
10
49.6472215754
20
99.7580864459
10
49.7130754456
20
99.6873576836
10
49.7786294428
20
99.6192414463
10
49.8436152024
20
99.5540821768
10
49.9077643601
20
99.4922243179
10
49.9708085515
20
99.4340123124
10
50.0324794121
20
99.3797906033
10
50.0925085776
20
99.3299036332
10
50.1506276835
20
99.284695845
10
50.2065683655
20
99.2445116815
10
50.2600622591
20
99.2096955856
10
50.310841
20
99.180592
10
50.3646799601
20
99.1515193748
10
50.4149308243
20
99.1222271923
10
50.4615934718
20
99.092495895
10
50.5046677818
20
99.0621059255
10
50.5441536333
20
99.0308377266
10
50.5800509057
20
98.9984717407
10
50.6123594779
20
98.9647884105
10
50.6410792293
20
98.9295681786
10
50.6662100388
20
98.8925914876
10
50.6877517858
20
98.8536387802
10
50.7057043493
20
98.812490499
10
50.7200676086
20
98.7689270866
10
50.7308414427
20
98.7227289855
10
50.7380257308
20
98.6736766385
10
50.7416203522
20
98.6215504881
10
50.7416251858
20
98.566130977
10
50.738040111
20
98.5071985477
10
50.7308650068
20
98.444533643
10
50.7200997525
20
98.3779167053
10
50.7057442271
20
98.3071281774
10
50.6877983099
20
98.2319485018
10
50.66626188
20
98.1521581211
10
50.6411348165
20
98.067537478
10
50.6124169987
20
97.9778670151
10
50.5801083056
20
97.8829271751
10
50.5442086164
20
97.7824984004
10
50.5047178103
20
97.6763611338
10
50.4616357665
20
97.5642958178
10
50.414962364
20
97.4460828951
10
50.3646974822
20
97.3215028083
10
50.310841
20
97.190336
10
50.267838455
20
97.0852300757
10
50.2237721819
20
96.9716701685
10
50.1788099012
20
96.8503189803
10
50.1331193335
20
96.7218392128
10
50.086868199
20
96.5868935679
10
50.0402242183
20
96.4461447474
10
49.9933551118
20
96.3002554532
10
49.9464286
20
96.149888387
10
49.8996124033
20
95.9957062506
10
49.8530742423
20
95.838371746
10
49.8069818372
20
95.6785475749
10
49.7615029086
20
95.5168964392
10
49.716805177
20
95.3540810406
10
49.6730563628
20
95.190764081
10
49.6304241864
20
95.0276082623
10
49.5890763683
20
94.8652762861
10
49.5491806289
20
94.7044308545
10
49.5109046888
20
94.5457346691
10
49.4744162683
20
94.3898504318
10
49.4398830879
20
94.2374408444
10
49.4074728681
20
94.0891686088
10
49.3773533292
20
93.9456964268
10
49.3496921919
20
93.8076870001
10
49.3246571764
20
93.6758030307
10
49.3024160034
20
93.5507072203
10
49.2831363931
20
93.4330622708
10
49.2669860661
20
93.323530884
10
49.2541327429
20
93.2227757617
10
49.2447441438
20
93.1314596057
10
49.2389879894
20
93.0502451179
10
49.237032
20
92.979795
10
49.2378937153
20
92.9595155315
10
49.240449768
20
92.9374493852
10
49.2446565187
20
92.9136831758
10
49.2504703275
20
92.8883035177
10
49.257847555
20
92.8613970258
10
49.2667445615
20
92.8330503145
10
49.2771177074
20
92.8033499985
10
49.288923353
20
92.7723826924
10
49.3021178587
20
92.7402350108
10
49.3166575849
20
92.7069935684
10
49.332498892
20
92.6727449797
10
49.3495981404
20
92.6375758593
10
49.3679116904
20
92.601572822
10
49.3873959024
20
92.5648224822
10
49.4080071368
20
92.5274114546
10
49.4297017539
20
92.4894263539
10
49.4524361143
20
92.4509537946
10
49.4761665781
20
92.4120803914
10
49.5008495058
20
92.3728927588
10
49.5264412578
20
92.3334775115
10
49.5528981945
20
92.2939212641
10
49.5801766762
20
92.2543106312
10
49.6082330633
20
92.2147322275
10
49.6370237162
20
92.1752726675
10
49.6665049952
20
92.1360185658
10
49.6966332608
20
92.0970565372
10
49.7273648733
20
92.0584731961
10
49.7586561931
20
92.0203551572
10
49.7904635805
20
91.9827890352
10
49.8227433961
20
91.9458614446
10
49.855452
20
91.909659
10
50.473881
20
91.209567
10
50.018523
20
90.509478
10
49.9939227857
20
90.4707732742
10
49.9686679974
20
90.4321289947
10
49.9428159009
20
90.393605589
10
49.9164237618
20
90.3552634849
10
49.8895488461
20
90.3171631098
10
49.8622484193
20
90.2793648913
10
49.8345797473
20
90.241929257
10
49.8066000958
20
90.2049166345
10
49.7783667305
20
90.1683874513
10
49.7499369173
20
90.1324021351
10
49.7213679218
20
90.0970211135
10
49.6927170099
20
90.0623048139
10
49.6640414472
20
90.028313664
10
49.6353984995
20
89.9951080913
10
49.6068454326
20
89.9627485235
10
49.5784395122
20
89.9312953881
10
49.5502380041
20
89.9008091127
10
49.5222981741
20
89.8713501248
10
49.4946772877
20
89.8429788521
10
49.467432611
20
89.8157557221
10
49.4406214095
20
89.7897411625
10
49.414300949
20
89.7649956007
10
49.3885284953
20
89.7415794644
10
49.3633613141
20
89.7195531811
10
49.3388566712
20
89.6989771784
10
49.3150718324
20
89.679911884
10
49.2920640633
20
89.6624177253
10
49.2698906298
20
89.64655513
10
49.2486087976
20
89.6323845256
10
49.2282758324
20
89.6199663398
10
49.208949
20
89.609361
10
49.1767440966
20
89.5906180982
10
49.1468434729
20
89.5730636231
10
49.1193384202
20
89.5566371463
10
49.0943202296
20
89.541278239
10
49.0718801923
20
89.5269264728
10
49.0521095996
20
89.513521419
10
49.0350997426
20
89.501002649
10
49.0209419125
20
89.4893097343
10
49.0097274005
20
89.4783822463
10
49.0015474979
20
89.4681597563
10
48.9964934957
20
89.4585818359
10
48.9946566853
20
89.4495880564
10
48.9961283577
20
89.4411179892
10
49.0009998043
20
89.4331112057
10
49.0093623161
20
89.4255072774
10
49.0213071844
20
89.4182457757
10
49.0369257004
20
89.4112662719
10
49.0563091553
20
89.4045083376
10
49.0795488402
20
89.3979115441
10
49.1067360464
20
89.3914154628
10
49.1379620651
20
89.3849596651
10
49.1733181874
20
89.3784837225
10
49.2128957046
20
89.3719272064
10
49.2567859078
20
89.3652296881
10
49.3050800883
20
89.3583307392
10
49.3578695371
20
89.351169931
10
49.4152455457
20
89.3436868348
10
49.477299405
20
89.3358210223
10
49.5441224064
20
89.3275120647
10
49.615805841
20
89.3186995334
10
49.692441
20
89.309323
10
50.530129
20
89.292333
10
49.804885
20
88.692255
10
49.766568317
20
88.6535502742
10
49.7287840837
20
88.6149059947
10
49.691581378
20
88.576382589
10
49.6550092782
20
88.5380404849
10
49.6191168623
20
88.4999401098
10
49.5839532084
20
88.4621418913
10
49.5495673947
20
88.424706257
10
49.5160084993
20
88.3876936345
10
49.4833256002
20
88.3511644513
10
49.4515677757
20
88.3151791351
10
49.4207841037
20
88.2797981135
10
49.3910236624
20
88.2450818139
10
49.36233553
20
88.211090664
10
49.3347687844
20
88.1778850913
10
49.3083725039
20
88.1455255235
10
49.2831957666
20
88.1140723881
10
49.2592876505
20
88.0835861127
10
49.2366972338
20
88.0541271248
10
49.2154735946
20
88.0257558521
10
49.195665811
20
87.9985327221
10
49.1773229611
20
87.9725181625
10
49.160494123
20
87.9477726007
10
49.1452283748
20
87.9243564644
10
49.1315747946
20
87.9023301811
10
49.1195824606
20
87.8817541784
10
49.1093004509
20
87.862688884
10
49.1007778435
20
87.8451947253
10
49.0940637167
20
87.82933213
10
49.0892071484
20
87.8151615256
10
49.0862572168
20
87.8027433398
10
49.085263
20
87.792138
10
49.085709839
20
87.7809192473
10
49.0870352397
20
87.7667032145
10
49.0892165274
20
87.7496147882
10
49.0922310277
20
87.7297788546
10
49.0960560659
20
87.7073203004
10
49.1006689674
20
87.6823640118
10
49.1060470578
20
87.6550348754
10
49.1121676625
20
87.6254577777
10
49.1190081068
20
87.5937576049
10
49.1265457163
20
87.5600592437
10
49.1347578163
20
87.5244875803
10
49.1436217322
20
87.4871675014
10
49.1531147896
20
87.4482238933
10
49.1632143139
20
87.4077816424
10
49.1738976304
20
87.3659656352
10
49.1851420647
20
87.3229007581
10
49.1969249421
20
87.2787118977
10
49.2092235881
20
87.2335239403
10
49.2220153281
20
87.1874617723
10
49.2352774876
20
87.1406502802
10
49.248987392
20
87.0932143505
10
49.2631223667
20
87.0452788696
10
49.2776597371
20
86.9969687239
10
49.2925768287
20
86.9484087999
10
49.307850967
20
86.899723984
10
49.3234594773
20
86.8510391627
10
49.3393796851
20
86.8024792224
10
49.3555889159
20
86.7541690495
10
49.372064495
20
86.7062335305
10
49.3887837479
20
86.6587975519
10
49.405724
20
86.611986
10
49.4225329738
20
86.5634524727
10
49.4388670354
20
86.5147013926
10
49.4547106686
20
86.4658274317
10
49.4700483577
20
86.4169252618
10
49.4848645867
20
86.3680895549
10
49.4991438399
20
86.319414983
10
49.5128706012
20
86.2709962181
10
49.5260293548
20
86.222927932
10
49.5386045847
20
86.1753047967
10
49.5505807752
20
86.1282214842
10
49.5619424103
20
86.0817726664
10
49.572673974
20
86.0360530153
10
49.5827599506
20
85.9911572027
10
49.5921848241
20
85.9471799008
10
49.6009330786
20
85.9042157813
10
49.6089891982
20
85.8623595163
10
49.6163376671
20
85.8217057777
10
49.6229629693
20
85.7823492374
10
49.6288495889
20
85.7443845675
10
49.6339820101
20
85.7079064397
10
49.638344717
20
85.6730095262
10
49.6419221936
20
85.6397884988
10
49.6446989241
20
85.6083380295
10
49.6466593926
20
85.5787527902
10
49.6477880831
20
85.551127453
10
49.6480694798
20
85.5255566896
10
49.6474880669
20
85.5021351721
10
49.6460283283
20
85.4809575725
10
49.6436747482
20
85.4621185626
10
49.6404118108
20
85.4457128145
10
49.636224
20
85.431835
10
49.6297996525
20
85.4212299322
10
49.6198991446
20
85.4088119833
10
49.6066199563
20
85.3946415833
10
49.5900595671
20
85.3787791621
10
49.5703154568
20
85.3612851497
10
49.5474851051
20
85.3422199762
10
49.5216659917
20
85.3216440715
10
49.4929555962
20
85.2996178657
10
49.4614513985
20
85.2762017887
10
49.4272508782
20
85.2514562705
10
49.3904515151
20
85.2254417412
10
49.3511507888
20
85.1982186306
10
49.309446179
20
85.1698473689
10
49.2654351655
20
85.140388386
10
49.2192152279
20
85.1099021119
10
49.170883846
20
85.0784489766
10
49.1205384995
20
85.0460894101
10
49.0682766681
20
85.0128838423
10
49.0141958314
20
84.9788927034
10
48.9583934693
20
84.9441764232
10
48.9009670614
20
84.9087954319
10
48.8420140874
20
84.8728101593
10
48.7816320271
20
84.8362810354
10
48.71991836
20
84.7992684904
10
48.6569705661
20
84.7618329541
10
48.5928861249
20
84.7240348565
10
48.5277625161
20
84.6859346277
10
48.4616972196
20
84.6475926977
10
48.3947877149
20
84.6090694964
10
48.3271314818
20
84.5704254538
10
48.258826
20
84.531721
10
48.1695090088
20
84.4842496391
10
48.0835686281
20
84.438564974
10
48.0009488441
20
84.3945803897
10
47.921593643
20
84.3522092708
10
47.8454470109
20
84.3113650022
10
47.772452934
20
84.2719609686
10
47.7025553984
20
84.2339105549
10
47.6356983905
20
84.1971271457
10
47.5718258962
20
84.161524126
10
47.5108819018
20
84.1270148804
10
47.4528103934
20
84.0935127937
10
47.3975553573
20
84.0609312507
10
47.3450607796
20
84.0291836363
10
47.2952706464
20
83.9981833351
10
47.248128944
20
83.967843732
10
47.2035796585
20
83.9380782118
10
47.161566776
20
83.9088001591
10
47.1220342828
20
83.8799229589
10
47.084926165
20
83.8513599959
10
47.0501864088
20
83.8230246548
10
47.0177590004
20
83.7948303205
10
46.9875879259
20
83.7666903777
10
46.9596171715
20
83.7385182112
10
46.9337907233
20
83.7102272058
10
46.9100525676
20
83.6817307462
10
46.8883466905
20
83.6529422173
10
46.8686170781
20
83.6237750039
10
46.8508077168
20
83.5941424907
10
46.8348625925
20
83.5639580624
10
46.8207256915
20
83.5331351039
10
46.808341
20
83.501587
10
46.7990732195
20
83.4787379649
10
46.7886774633
20
83.4490504051
10
46.7771967548
20
83.4127418646
10
46.7646741174
20
83.3700298872
10
46.7511525743
20
83.321132017
10
46.7366751489
20
83.2662657978
10
46.7212848645
20
83.2056487738
10
46.7050247445
20
83.1394984887
10
46.6879378121
20
83.0680324866
10
46.6700670908
20
82.9914683115
10
46.6514556037
20
82.9100235072
10
46.6321463744
20
82.8239156178
10
46.612182426
20
82.7333621871
10
46.5916067819
20
82.6385807593
10
46.5704624655
20
82.5397888781
10
46.5487925001
20
82.4372040876
10
46.526639909
20
82.3310439317
10
46.5040477155
20
82.2215259544
10
46.481058943
20
82.1088676996
10
46.4577166148
20
81.9932867113
10
46.4340637542
20
81.8750005335
10
46.4101433845
20
81.75422671
10
46.3859985292
20
81.631182785
10
46.3616722114
20
81.5060863022
10
46.3372074546
20
81.3791548057
10
46.3126472821
20
81.2506058394
10
46.2880347172
20
81.1206569474
10
46.2634127832
20
80.9895256734
10
46.2388245034
20
80.8574295616
10
46.2143129012
20
80.7245861558
10
46.189921
20
80.591213
10
46.1641710421
20
80.4526060451
10
46.1356294078
20
80.3042317852
10
46.1044085204
20
80.1465635793
10
46.0706208033
20
79.9800747863
10
46.03437868
20
79.8052387652
10
45.9957945739
20
79.6225288748
10
45.9549809084
20
79.4324184741
10
45.9120501069
20
79.2353809221
10
45.8671145929
20
79.0318895777
10
45.8202867897
20
78.8224177998
10
45.7716791207
20
78.6074389473
10
45.7214040095
20
78.3874263792
10
45.6695738794
20
78.1628534544
10
45.6163011537
20
77.9341935319
10
45.5616982561
20
77.7019199706
10
45.5058776097
20
77.4665061293
10
45.4489516381
20
77.2284253672
10
45.3910327648
20
76.988151043
10
45.332233413
20
76.7461565157
10
45.2726660062
20
76.5029151443
10
45.2124429679
20
76.2589002876
10
45.1516767214
20
76.0145853047
10
45.0904796902
20
75.7704435545
10
45.0289642976
20
75.5269483958
10
44.9672429672
20
75.2845731876
10
44.9054281223
20
75.0437912889
10
44.8436321863
20
74.8050760586
10
44.7819675827
20
74.5689008557
10
44.7205467348
20
74.3357390389
10
44.6594820661
20
74.1060639674
10
44.598886
20
73.880349
10
44.5385986402
20
73.6563063274
10
44.4784493502
20
73.4315928891
10
44.4185344435
20
73.2065994571
10
44.3589502335
20
72.9817168037
10
44.2997930335
20
72.757335701
10
44.2411591569
20
72.5338469213
10
44.1831449172
20
72.3116412366
10
44.1258466276
20
72.0911094192
10
44.0693606016
20
71.8726422412
10
44.0137831525
20
71.6566304749
10
43.9592105938
20
71.4434648925
10
43.9057392388
20
71.233536266
10
43.8534654009
20
71.0272353676
10
43.8024853934
20
70.8249529697
10
43.7528955299
20
70.6270798442
10
43.7047921236
20
70.4340067635
10
43.6582714879
20
70.2461244996
10
43.6134299363
20
70.0638238249
10
43.570363782
20
69.8874955114
10
43.5291693386
20
69.7175303313
10
43.4899429193
20
69.5543190568
10
43.4527808376
20
69.3982524601
10
43.4177794068
20
69.2497213134
10
43.3850349403
20
69.1091163888
10
43.3546437515
20
68.9768284586
10
43.3267021538
20
68.8532482948
10
43.3013064606
20
68.7387666698
10
43.2785529852
20
68.6337743556
10
43.2585380411
20
68.5386621244
10
43.2413579415
20
68.4538207485
10
43.227109
20
68.379641
10
43.1918151795
20
68.1945550086
10
43.1533703446
20
68.0034442761
10
43.1118785962
20
67.8066532454
10
43.0674440354
20
67.6045263596
10
43.0201707633
20
67.3974080617
10
42.9701628808
20
67.1856427947
10
42.9175244891
20
66.9695750016
10
42.8623596891
20
66.7495491255
10
42.804772582
20
66.5259096094
10
42.7448672686
20
66.2990008963
10
42.6827478501
20
66.0691674292
10
42.6185184276
20
65.8367536511
10
42.5522831019
20
65.602104005
10
42.4841459742
20
65.3655629341
10
42.4142111456
20
65.1274748812
10
42.342582717
20
64.8881842894
10
42.2693647895
20
64.6480356018
10
42.1946614642
20
64.4073732614
10
42.118576842
20
64.1665417111
10
42.041215024
20
63.9258853939
10
41.9626801112
20
63.685748753
10
41.8830762047
20
63.4464762314
10
41.8025074056
20
63.208412272
10
41.7210778147
20
62.9719013178
10
41.6388915333
20
62.737287812
10
41.5560526623
20
62.5049161974
10
41.4726653028
20
62.2751309172
10
41.3888335557
20
62.0482764143
10
41.3046615222
20
61.8246971318
10
41.2202533033
20
61.6047375127
10
41.135713
20
61.388742
10
41.0831938022
20
61.2634773244
10
41.0319577731
20
61.1418477044
10
40.9819817113
20
61.0238539438
10
40.9332424149
20
60.9094968465
10
40.8857166825
20
60.7987772162
10
40.8393813123
20
60.6916958567
10
40.7942131027
20
60.5882535718
10
40.7501888522
20
60.4884511653
10
40.7072853589
20
60.3922894411
10
40.6654794214
20
60.2997692028
10
40.6247478379
20
60.2108912544
10
40.5850674069
20
60.1256563997
10
40.5464149267
20
60.0440654423
10
40.5087671956
20
59.9661191861
10
40.472101012
20
59.891818435
10
40.4363931743
20
59.8211639927
10
40.4016204808
20
59.754156663
10
40.36775973
20
59.6907972497
10
40.3347877201
20
59.6310865566
10
40.3026812495
20
59.5750253876
10
40.2714171166
20
59.5226145464
10
40.2409721197
20
59.4738548368
10
40.2113230573
20
59.4287470626
10
40.1824467276
20
59.3872920276
10
40.1543199291
20
59.3494905356
10
40.1269194601
20
59.3153433905
10
40.1002221189
20
59.284851396
10
40.0742047039
20
59.2580153558
10
40.0488440136
20
59.2348360739
10
40.0241168461
20
59.2153143541
10
40
20
59.199451
10
40
20
55.128926
10
40.0017550307
20
55.1285320895
10
40.003520329
20
55.1281260351
10
40.0052952361
20
55.1277080303
10
40.0070790937
20
55.1272782684
10
40.008871243
20
55.1268369427
10
40.0106710255
20
55.1263842467
10
40.0124777826
20
55.1259203735
10
40.0142908556
20
55.1254455166
10
40.0161095861
20
55.1249598694
10
40.0179333154
20
55.1244636251
10
40.019761385
20
55.1239569772
10
40.0215931362
20
55.1234401189
10
40.0234279104
20
55.1229132436
10
40.0252650492
20
55.1223765447
10
40.0271038938
20
55.1218302155
10
40.0289437857
20
55.1212744494
10
40.0307840663
20
55.1207094397
10
40.0326240771
20
55.1201353797
10
40.0344631593
20
55.1195524628
10
40.0363006546
20
55.1189608823
10
40.0381359041
20
55.1183608317
10
40.0399682495
20
55.1177525042
10
40.041797032
20
55.1171360931
10
40.0436215931
20
55.116511792
10
40.0454412742
20
55.1158797939
10
40.0472554167
20
55.1152402924
10
40.0490633621
20
55.1145934808
10
40.0508644517
20
55.1139395524
10
40.0526580269
20
55.1132787006
10
40.0544434292
20
55.1126111187
10
40.05622
20
55.111937
10
40.0699609318
20
55.1066460439
10
40.0839552962
20
55.1014245851
10
40.0981734144
20
55.0962796736
10
40.1125856076
20
55.0912183593
10
40.1271621971
20
55.0862476922
10
40.1418735042
20
55.081374722
10
40.1566898501
20
55.0766064988
10
40.1715815559
20
55.0719500724
10
40.186518943
20
55.0674124928
10
40.2014723326
20
55.0630008099
10
40.2164120459
20
55.0587220735
10
40.2313084041
20
55.0545833337
10
40.2461317286
20
55.0505916403
10
40.2608523405
20
55.0467540433
10
40.2754405611
20
55.0430775925
10
40.2898667116
20
55.0395693378
10
40.3041011132
20
55.0362363293
10
40.3181140872
20
55.0330856167
10
40.3318759549
20
55.03012425
10
40.3453570374
20
55.0273592792
10
40.358527656
20
55.0247977541
10
40.3713581319
20
55.0224467247
10
40.3838187864
20
55.0203132408
10
40.3958799408
20
55.0184043524
10
40.4075119162
20
55.0167271094
10
40.4186850339
20
55.0152885617
10
40.4293696151
20
55.0140957593
10
40.4395359811
20
55.013155752
10
40.4491544531
20
55.0124755897
10
40.4581953523
20
55.0120623224
10
40.466629
20
55.011923
10
40.4897006191
20
55.0071860056
10
40.5120829938
20
55.0011151533
10
40.5337721093
20
54.9937253489
10
40.5547639511
20
54.9850314983
10
40.5750545047
20
54.9750485072
10
40.5946397555
20
54.9637912816
10
40.6135156889
20
54.9512747272
10
40.6316782903
20
54.93751375
10
40.6491235453
20
54.9225232557
10
40.6658474391
20
54.9063181502
10
40.6818459573
20
54.8889133394
10
40.6971150853
20
54.8703237291
10
40.7116508085
20
54.8505642251
10
40.7254491124
20
54.8296497333
10
40.7385059823
20
54.8075951595
10
40.7508174037
20
54.7844154097
10
40.7623793621
20
54.7601253895
10
40.7731878429
20
54.7347400049
10
40.7832388314
20
54.7082741617
10
40.7925283132
20
54.6807427657
10
40.8010522737
20
54.6521607228
10
40.8088066982
20
54.6225429389
10
40.8157875723
20
54.5919043198
10
40.8219908814
20
54.5602597712
10
40.8274126108
20
54.5276241992
10
40.8320487461
20
54.4940125094
10
40.8358952726
20
54.4594396079
10
40.8389481759
20
54.4239204003
10
40.8412034412
20
54.3874697926
10
40.8426570541
20
54.3501026905
10
40.843305
20
54.311834
10
40.8447151358
20
54.2643670034
10
40.8484537494
20
54.2187128885
10
40.854587924
20
54.1748112259
10
40.863184743
20
54.1326015863
10
40.8743112898
20
54.0920235403
10
40.8880346477
20
54.0530166585
10
40.9044219001
20
54.0155205114
10
40.9235401303
20
53.9794746697
10
40.9454564217
20
53.9448187041
10
40.9702378576
20
53.911492185
10
40.9979515213
20
53.8794346832
10
41.0286644962
20
53.8485857692
10
41.0624438657
20
53.8188850136
10
41.0993567131
20
53.7902719871
10
41.1394701217
20
53.7626862602
10
41.1828511749
20
53.7360674036
10
41.229566956
20
53.7103549879
10
41.2796845484
20
53.6854885837
10
41.3332710355
20
53.6614077615
10
41.3903935006
20
53.638052092
10
41.4511190269
20
53.6153611459
10
41.515514698
20
53.5932744936
10
41.583647597
20
53.5717317059
10
41.6555848075
20
53.5506723533
10
41.7313934126
20
53.5300360065
10
41.8111404958
20
53.509762236
10
41.8948931405
20
53.4897906124
10
41.9827184298
20
53.4700607065
10
42.0746834473
20
53.4505120887
10
42.1708552763
20
53.4310843296
10
42.271301
20
53.411717
10
42.3109951822
20
53.4040895097
10
42.3510339058
20
53.3955688863
10
42.3913416626
20
53.3862111266
10
42.4318429439
20
53.3760722276
10
42.4724622415
20
53.3652081861
10
42.5131240468
20
53.3536749991
10
42.5537528513
20
53.3415286636
10
42.5942731468
20
53.3288251763
10
42.6346094246
20
53.3156205343
10
42.6746861764
20
53.3019707343
10
42.7144278937
20
53.2879317735
10
42.7537590681
20
53.2735596486
10
42.7926041912
20
53.2589103566
10
42.8308877545
20
53.2440398943
10
42.8685342495
20
53.2290042587
10
42.9054681678
20
53.2138594468
10
42.941614001
20
53.1986614553
10
42.9768962406
20
53.1834662813
10
43.0112393783
20
53.1683299217
10
43.0445679054
20
53.1533083732
10
43.0768063137
20
53.138457633
10
43.1078790947
20
53.1238336978
10
43.1377107398
20
53.1094925646
10
43.1662257408
20
53.0954902303
10
43.193348589
20
53.0818826918
10
43.2190037762
20
53.0687259461
10
43.2431157938
20
53.0560759899
10
43.2656091335
20
53.0439888203
10
43.2864082867
20
53.0325204342
10
43.305437745
20
53.0217268285
10
43.322622
20
53.011664
10
43.3511615402
20
52.9834913733
10
43.3776266673
20
52.9567508909
10
43.4018500441
20
52.9310014234
10
43.4236643333
20
52.9058018414
10
43.4429021979
20
52.8807110154
10
43.4593963006
20
52.8552878161
10
43.4729793042
20
52.829091114
10
43.4834838716
20
52.8016797798
10
43.4907426655
20
52.7726126841
10
43.4945883489
20
52.7414486974
10
43.4948535845
20
52.7077466904
10
43.4913710351
20
52.6710655336
10
43.4839733635
20
52.6309640977
10
43.4724932326
20
52.5870012533
10
43.4567633053
20
52.5387358709
10
43.4366162442
20
52.4857268211
10
43.4118847122
20
52.4275329746
10
43.3824013722
20
52.363713202
10
43.3479988869
20
52.2938263738
10
43.3085099192
20
52.2174313606
10
43.2637671319
20
52.1340870331
10
43.2136031877
20
52.0433522618
10
43.1578507497
20
51.9447859174
10
43.0963424804
20
51.8379468704
10
43.0289110428
20
51.7223939914
10
42.9553890997
20
51.5976861511
10
42.8756093139
20
51.46338222
10
42.7894043482
20
51.3190410688
10
42.6966068655
20
51.164221568
10
42.5970495285
20
50.9984825882
10
42.490565
20
50.821383
10
42.3985625857
20
50.6685124656
10
42.3095530658
20
50.519328094
10
42.2233247663
20
50.3733947974
10
42.1396660133
20
50.2302774879
10
42.0583651331
20
50.0895410774
10
41.9792104517
20
49.9507504782
10
41.9019902953
20
49.8134706023
10
41.8264929901
20
49.6772663618
10
41.7525068621
20
49.5417026688
10
41.6798202375
20
49.4063444353
10
41.6082214425
20
49.2707565735
10
41.5374988031
20
49.1345039955
10
41.4674406456
20
48.9971516132
10
41.397835296
20
48.8582643389
10
41.3284710805
20
48.7174070846
10
41.2591363253
20
48.5741447624
10
41.1896193564
20
48.4280422844
10
41.1197085001
20
48.2786645626
10
41.0491920824
20
48.1255765092
10
40.9778584296
20
47.9683430363
10
40.9054958676
20
47.8065290558
10
40.8318927227
20
47.63969948
10
40.7568373211
20
47.4674192209
10
40.6801179888
20
47.2892531906
10
40.6015230519
20
47.1047663012
10
40.5208408367
20
46.9135234647
10
40.4378596693
20
46.7150895933
10
40.3523678758
20
46.509029599
10
40.2641537823
20
46.294908394
10
40.173005715
20
46.0722908903
10
40.078712
20
45.840742
10
40.0763616089
20
45.8282217758
10
40.0739839033
20
45.816204375
10
40.0715804074
20
45.804674286
10
40.0691526454
20
45.793615997
10
40.0667021417
20
45.7830139964
10
40.0642304203
20
45.7728527726
10
40.0617390055
20
45.7631168138
10
40.0592294215
20
45.7537906085
10
40.0567031926
20
45.7448586449
10
40.0541618429
20
45.7363054114
10
40.0516068967
20
45.7281153964
10
40.0490398782
20
45.720273088
10
40.0464623116
20
45.7127629748
10
40.0438757212
20
45.705569545
10
40.0412816311
20
45.698677287
10
40.0386815656
20
45.6920706891
10
40.0360770488
20
45.6857342396
10
40.0334696051
20
45.6796524268
10
40.0308607586
20
45.6738097392
10
40.0282520336
20
45.668190665
10
40.0256449542
20
45.6627796926
10
40.0230410447
20
45.6575613103
10
40.0204418293
20
45.6525200065
10
40.0178488322
20
45.6476402694
10
40.0152635777
20
45.6429065875
10
40.0126875899
20
45.638303449
10
40.0101223931
20
45.6338153423
10
40.0075695115
20
45.6294267557
10
40.0050304693
20
45.6251221775
10
40.0025067907
20
45.6208860962
10
40
20
45.616703
10
40
20
26.535249
10
40.0527578305
20
26.5295887928
10
40.1046609269
20
26.5253978046
10
40.1557152774
20
26.5226965821
10
40.2059268701
20
26.521505672
10
40.2553016931
20
26.5218456211
10
40.3038457346
20
26.5237369762
10
40.3515649825
20
26.5272002839
10
40.3984654251
20
26.532256091
10
40.4445530505
20
26.5389249443
10
40.4898338468
20
26.5472273905
10
40.5343138021
20
26.5571839763
10
40.5779989045
20
26.5688152485
10
40.6208951422
20
26.5821417538
10
40.6630085032
20
26.597184039
10
40.7043449757
20
26.6139626508
10
40.7449105477
20
26.6324981359
10
40.7847112075
20
26.6528110412
10
40.8237529432
20
26.6749219132
10
40.8620417427
20
26.6988512989
10
40.8995835944
20
26.7246197449
10
40.9363844862
20
26.7522477979
10
40.9724504063
20
26.7817560047
10
41.0077873428
20
26.8131649121
10
41.0424012839
20
26.8464950668
10
41.0762982176
20
26.8817670155
10
41.109484132
20
26.919001305
10
41.1419650154
20
26.958218482
10
41.1737468558
20
26.9994390932
10
41.2048356412
20
27.0426836855
10
41.2352373599
20
27.0879728055
10
41.264958
20
27.135327
10
41.3383306657
20
27.2512708256
10
41.4099431011
20
27.3782529681
10
41.4797515441
20
27.516009555
10
41.5477122326
20
27.6642767137
10
41.6137814045
20
27.8227905717
10
41.6779152978
20
27.9912872566
10
41.7400701504
20
28.1695028958
10
41.8002022002
20
28.3571736168
10
41.8582676851
20
28.554035547
10
41.9142228431
20
28.7598248141
10
41.968023912
20
28.9742775454
10
42.0196271299
20
29.1971298685
10
42.0689887346
20
29.4281179108
10
42.116064964
20
29.6669777999
10
42.1608120561
20
29.9134456632
10
42.2031862488
20
30.1672576282
10
42.24314378
20
30.4281498224
10
42.2806408877
20
30.6958583732
10
42.3156338098
20
30.9701194083
10
42.3480787841
20
31.250669055
10
42.3779320487
20
31.5372434408
10
42.4051498414
20
31.8295786933
10
42.4296884002
20
32.1274109399
10
42.451503963
20
32.4304763082
10
42.4705527677
20
32.7385109255
10
42.4867910523
20
33.0512509194
10
42.5001750546
20
33.3684324174
10
42.5106610126
20
33.689791547
10
42.5182051642
20
34.0150644356
10
42.5227637474
20
34.3439872108
10
42.524293
20
34.676296
10
42.524293
20
37.016596
10
43.142712
20
37.216623
10
43.2335062372
20
37.245704009
10
43.3187488756
20
37.2750549159
10
43.3984906121
20
37.3049456373
10
43.4727821435
20
37.3356460898
10
43.5416741664
20
37.3674261901
10
43.6052173778
20
37.4005558547
10
43.6634624744
20
37.4353050003
10
43.7164601529
20
37.4719435435
10
43.7642611103
20
37.510741401
10
43.8069160432
20
37.5519684892
10
43.8444756484
20
37.595894725
10
43.8769906228
20
37.6427900248
10
43.9045116631
20
37.6929243053
10
43.9270894662
20
37.7465674832
10
43.9447747287
20
37.8039894749
10
43.9576181475
20
37.8654601973
10
43.9656704194
20
37.9312495668
10
43.9689822412
20
38.0016275001
10
43.9676043096
20
38.0768639138
10
43.9615873214
20
38.1572287245
10
43.9509819735
20
38.2429918489
10
43.9358389626
20
38.3344232036
10
43.9162089855
20
38.4317927052
10
43.8921427389
20
38.5353702702
10
43.8636909198
20
38.6454258154
10
43.8309042248
20
38.7622292574
10
43.7938333508
20
38.8860505127
10
43.7525289945
20
39.017159498
10
43.7070418528
20
39.1558261299
10
43.6574226223
20
39.302320325
10
43.603722
20
39.456912
10
43.5438855248
20
39.624898719
10
43.4874434598
20
39.7883552882
10
43.434368523
20
39.9475596805
10
43.3846334326
20
40.1027898689
10
43.3382109067
20
40.2543238262
10
43.2950736635
20
40.4024395255
10
43.2551944211
20
40.5474149396
10
43.2185458977
20
40.6895280416
10
43.1851008113
20
40.8290568044
10
43.1548318802
20
40.9662792008
10
43.1277118224
20
41.101473204
10
43.1037133561
20
41.2349167867
10
43.0828091994
20
41.366887922
10
43.0649720704
20
41.4976645827
10
43.0501746874
20
41.6275247419
10
43.0383897684
20
41.7567463725
10
43.0295900316
20
41.8856074475
10
43.023748195
20
42.0143859396
10
43.0208369769
20
42.1433598221
10
43.0208290954
20
42.2728070676
10
43.0236972686
20
42.4030056493
10
43.0294142147
20
42.5342335401
10
43.0379526517
20
42.6667687128
10
43.0492852979
20
42.8008891405
10
43.0633848713
20
42.936872796
10
43.0802240902
20
43.0749976524
10
43.0997756725
20
43.2155416826
10
43.1220123365
20
43.3587828595
10
43.1469068004
20
43.5049991561
10
43.1744317822
20
43.6544685453
10
43.20456
20
43.807469
10
43.2363919216
20
43.9606157079
10
43.2697401055
20
44.1124188612
10
43.3046934384
20
44.2630960039
10
43.3413408068
20
44.4128646802
10
43.3797710975
20
44.5619424343
10
43.420073197
20
44.7105468103
10
43.462335992
20
44.8588953524
10
43.5066483692
20
45.0072056047
10
43.5530992152
20
45.1556951115
10
43.6017774167
20
45.3045814168
10
43.6527718602
20
45.4540820649
10
43.7061714324
20
45.6044145998
10
43.7620650201
20
45.7557965658
10
43.8205415097
20
45.9084455069
10
43.881689788
20
46.0625789674
10
43.9455987416
20
46.2184144915
10
44.0123572572
20
46.3761696231
10
44.0820542213
20
46.5360619066
10
44.1547785207
20
46.6983088861
10
44.230619042
20
46.8631281058
10
44.3096646718
20
47.0307371097
10
44.3920042967
20
47.2013534421
10
44.4777268035
20
47.3751946471
10
44.5669210787
20
47.5524782688
10
44.659676009
20
47.7334218515
10
44.7560804811
20
47.9182429393
10
44.8562233815
20
48.1071590763
10
44.960193597
20
48.3003878068
10
45.0680800141
20
48.4981466747
10
45.1799715196
20
48.7006532244
10
45.295957
20
48.908125
10
45.3466818383
20
48.9963221493
10
45.3983278961
20
49.086557747
10
45.4507877455
20
49.1786223081
10
45.5039539587
20
49.2723063475
10
45.5577191078
20
49.3674003803
10
45.6119757652
20
49.4636949215
10
45.6666165029
20
49.5609804859
10
45.7215338932
20
49.6590475887
10
45.7766205081
20
49.7576867448
10
45.83176892
20
49.8566884692
10
45.886871701
20
49.9558432768
10
45.9418214233
20
50.0549416828
10
45.9965106591
20
50.1537742019
10
46.0508319806
20
50.2521313494
10
46.1046779599
20
50.34980364
10
46.1579411692
20
50.4465815889
10
46.2105141807
20
50.542255711
10
46.2622895667
20
50.6366165213
10
46.3131598992
20
50.7294545347
10
46.3630177506
20
50.8205602664
10
46.4117556929
20
50.9097242311
10
46.4592662983
20
50.9967369441
10
46.5054421391
20
51.0813889201
10
46.5501757874
20
51.1634706743
10
46.5933598155
20
51.2427727216
10
46.6348867954
20
51.319085577
10
46.6746492994
20
51.3921997555
10
46.7125398997
20
51.461905772
10
46.7484511684
20
51.5279941417
10
46.7822756778
20
51.5902553793
10
46.813906
20
51.64848
10
46.8755212428
20
51.7615319731
10
46.9343553409
20
51.8664603156
10
46.9904236553
20
51.9632589848
10
47.043741547
20
52.0519219379
10
47.094324377
20
52.1324431323
10
47.1421875064
20
52.2048165253
10
47.1873462962
20
52.2690360742
10
47.2298161074
20
52.3250957363
10
47.2696123009
20
52.3729894689
10
47.3067502379
20
52.4127112292
10
47.3412452793
20
52.4442549747
10
47.3731127861
20
52.4676146625
10
47.4023681194
20
52.4827842501
10
47.4290266401
20
52.4897576947
10
47.4531037094
20
52.4885289535
10
47.4746146881
20
52.479091984
10
47.4935749374
20
52.4614407434
10
47.5099998182
20
52.435569189
10
47.5239046916
20
52.4014712781
10
47.5353049185
20
52.3591409681
10
47.54421586
20
52.3085722161
10
47.550652877
20
52.2497589796
10
47.5546313307
20
52.1826952158
10
47.556166582
20
52.1073748821
10
47.555273992
20
52.0237919357
10
47.5519689216
20
51.9319403339
10
47.5462667319
20
51.831814034
10
47.5381827839
20
51.7234069934
10
47.5277324385
20
51.6067131693
10
47.5149310569
20
51.4817265191
10
47.499794
20
51.348441
10
47.486452066
20
51.2430115452
10
47.4711758492
20
51.1373665767
10
47.4537609214
20
51.03097835
10
47.4340028541
20
50.9233191205
10
47.4116972189
20
50.8138611435
10
47.3866395875
20
50.7020766744
10
47.3586255315
20
50.5874379686
10
47.3274506225
20
50.4694172814
10
47.292910432
20
50.3474868683
10
47.2548005318
20
50.2211189846
10
47.2129164935
20
50.0897858857
10
47.1670538886
20
49.952959827
10
47.1170082887
20
49.8101130639
10
47.0625752655
20
49.6607178517
10
47.0035503907
20
49.5042464458
10
46.9397292357
20
49.3401711016
10
46.8709073723
20
49.1679640745
10
46.7968803721
20
48.9870976198
10
46.7174438066
20
48.797043993
10
46.6323932474
20
48.5972754493
10
46.5415242663
20
48.3872642443
10
46.4446324348
20
48.1664826332
10
46.3415133245
20
47.9344028715
10
46.231962507
20
47.6904972146
10
46.115775554
20
47.4342379177
10
45.9927480371
20
47.1650972363
10
45.8626755278
20
46.8825474258
10
45.7253535979
20
46.5860607415
10
45.5805778188
20
46.2751094389
10
45.4281437623
20
45.9491657733
10
45.267847
20
45.607702
10
43.856716
20
42.597314
10
44.27275
20
42.09725
10
44.3622055429
20
41.9826033866
10
44.4557547385
20
41.8671993841
10
44.5531864049
20
41.7512172653
10
44.6542893605
20
41.6348363028
10
44.7588524232
20
41.5182357695
10
44.8666644113
20
41.4015949381
10
44.977514143
20
41.2850930812
10
45.0911904364
20
41.1689094717
10
45.2074821096
20
41.0532233822
10
45.3261779809
20
40.9382140855
10
45.4470668685
20
40.8240608543
10
45.5699375904
20
40.7109429614
10
45.6945789648
20
40.5990396794
10
45.8207798099
20
40.4885302812
10
45.948328944
20
40.3795940395
10
46.0770151851
20
40.2724102269
10
46.2066273514
20
40.1671581163
10
46.336954261
20
40.0640169803
10
46.4677847322
20
39.9631660917
10
46.5989075832
20
39.8647847232
10
46.730111632
20
39.7690521476
10
46.8611856968
20
39.6761476376
10
46.9919185959
20
39.5862504659
10
47.1220991473
20
39.4995399053
10
47.2515161693
20
39.4161952284
10
47.37995848
20
39.3363957081
10
47.5072148976
20
39.260320617
10
47.6330742402
20
39.188149228
10
47.757325326
20
39.1200608136
10
47.8797569732
20
39.0562346467
10
48.000158
20
38.99685
10
48.517385
20
38.796825
10
48.416192
20
35.926456
10
48.4095461968
20
35.746686388
10
48.4026266298
20
35.5713099368
10
48.3954361596
20
35.4003488037
10
48.3879776465
20
35.2338251465
10
48.3802539513
20
35.0717611227
10
48.3722679343
20
34.9141788898
10
48.3640224561
20
34.7611006054
10
48.3555203773
20
34.6125484271
10
48.3467645584
20
34.4685445124
10
48.3377578598
20
34.329111019
10
48.3285031422
20
34.1942701043
10
48.3190032661
20
34.0640439259
10
48.3092610919
20
33.9384546414
10
48.2992794803
20
33.8175244084
10
48.2890612917
20
33.7012753844
10
48.2786093867
20
33.589729727
10
48.2679266258
20
33.4829095937
10
48.2570158696
20
33.3808371422
10
48.2458799784
20
33.2835345299
10
48.234521813
20
33.1910239145
10
48.2229442338
20
33.1033274535
10
48.2111501014
20
33.0204673044
10
48.1991422762
20
32.9424656249
10
48.1869236188
20
32.8693445725
10
48.1744969898
20
32.8011263048
10
48.1618652496
20
32.7378329793
10
48.1490312588
20
32.6794867536
10
48.1359978779
20
32.6261097852
10
48.1227679674
20
32.5777242318
10
48.109344388
20
32.5343522509
10
48.09573
20
32.496016
10
48.0749921489
20
32.4391954042
10
48.0521922651
20
32.365905985
10
48.0274265303
20
32.2767258431
10
48.0007911261
20
32.172233079
10
47.9723822342
20
32.0530057934
10
47.9422960363
20
31.9196220869
10
47.910628714
20
31.7726600603
10
47.8774764491
20
31.612697814
10
47.8429354231
20
31.4403134487
10
47.8071018177
20
31.2560850652
10
47.7700718146
20
31.0605907639
10
47.7319415954
20
30.8544086456
10
47.692807342
20
30.6381168108
10
47.6527652357
20
30.4122933603
10
47.6119114585
20
30.1775163946
10
47.5703421919
20
29.9343640144
10
47.5281536175
20
29.6834143203
10
47.4854419172
20
29.4252454129
10
47.4423032724
20
29.1604353929
10
47.3988338649
20
28.889562361
10
47.3551298764
20
28.6132044177
10
47.3112874885
20
28.3319396637
10
47.2674028829
20
28.0463461996
10
47.2235722412
20
27.757002126
10
47.1798917452
20
27.4644855437
10
47.1364575764
20
27.1693745531
10
47.0933659165
20
26.872247255
10
47.0507129473
20
26.5736817501
10
47.0085948504
20
26.2742561388
10
46.9671078074
20
25.9745485219
10
46.926348
20
25.675137
10
46.9165138546
20
25.593638475
10
46.9067768161
20
25.5042096885
10
46.8971508843
20
25.4071628556
10
46.8876500589
20
25.3028101914
10
46.8782883395
20
25.191463911
10
46.869079726
20
25.0734362295
10
46.8600382181
20
24.949039362
10
46.8511778155
20
24.8185855236
10
46.8425125178
20
24.6823869295
10
46.834056325
20
24.5407557946
10
46.8258232366
20
24.3940043341
10
46.8178272525
20
24.2424447631
10
46.8100823724
20
24.0863892968
10
46.8026025959
20
23.9261501501
10
46.7954019228
20
23.7620395382
10
46.7884943529
20
23.5943696762
10
46.7818938859
20
23.4234527792
10
46.7756145215
20
23.2496010622
10
46.7696702594
20
23.0731267405
10
46.7640750995
20
22.894342029
10
46.7588430413
20
22.713559143
10
46.7539880847
20
22.5310902974
10
46.7495242293
20
22.3472477074
10
46.7454654749
20
22.162343588
10
46.7418258213
20
21.9766901545
10
46.7386192682
20
21.7905996218
10
46.7358598152
20
21.6043842051
10
46.7335614622
20
21.4183561195
10
46.7317382088
20
21.23282758
10
46.7304040548
20
21.0481108018
10
46.729573
20
20.864518
10
46.7287895205
20
20.5676208088
10
46.728393414
20
20.286012075
10
46.7284588232
20
20.0186826389
10
46.7290598912
20
19.7646233408
10
46.7302707609
20
19.5228250211
10
46.7321655752
20
19.29227852
10
46.7348184771
20
19.071974678
10
46.7383036094
20
18.8609043352
10
46.7426951151
20
18.6580583321
10
46.7480671372
20
18.4624275089
10
46.7544938185
20
18.273002706
10
46.762049302
20
18.0887747637
10
46.7708077306
20
17.9087345223
10
46.7808432473
20
17.7318728222
10
46.7922299949
20
17.5571805036
10
46.8050421164
20
17.3836484069
10
46.8193537548
20
17.2102673724
10
46.835239053
20
17.0360282404
10
46.8527721538
20
16.8599218513
10
46.8720272003
20
16.6809390453
10
46.8930783353
20
16.4980706628
10
46.9159997018
20
16.3103075441
10
46.9408654427
20
16.1166405295
10
46.9677497009
20
15.9160604594
10
46.9967266194
20
15.707558174
10
47.0278703411
20
15.4901245138
10
47.0612550089
20
15.2627503189
10
47.0969547658
20
15.0244264298
10
47.1350437546
20
14.7741436867
10
47.1755961184
20
14.51089293
10
47.218686
20
14.233665
10
47.3085790739
20
13.6629286237
10
47.3956936857
20
13.1248056211
10
47.4808254693
20
12.6179403752
10
47.5647700583
20
12.1409772692
10
47.6483230864
20
11.6925606861
10
47.7322801873
20
11.271335009
10
47.8174369948
20
10.8759446209
10
47.9045891426
20
10.505033905
10
47.9945322643
20
10.1572472442
10
48.0880619938
20
9.83122902168
10
48.1859739646
20
9.52562362049
10
48.2890638106
20
9.23907542369
10
48.3981271654
20
8.97022881434
10
48.5139596628
20
8.71772817552
10
48.6373569365
20
8.4802178903
10
48.7691146202
20
8.25634234175
10
48.9100283475
20
8.04474591293
10
49.0608937523
20
7.84407298691
10
49.2225064683
20
7.65296794676
10
49.395662129
20
7.47007517556
10
49.5811563684
20
7.29403905636
10
49.77978482
20
7.12350397224
10
49.9923431176
20
6.95711430627
10
50.2196268949
20
6.79351444151
10
50.4624317856
20
6.63134876104
10
50.7215534235
20
6.46926164791
10
50.9977874422
20
6.30589748521
10
51.2919294755
20
6.139900656
10
51.6047751571
20
5.96991554335
10
51.9371201207
20
5.79458653033
10
52.28976
20
5.612558
10
52.3722622398
20
5.57476977745
10
52.4514934148
20
5.53879443604
10
52.5277694986
20
5.50457154577
10
52.601406465
20
5.47204067665
10
52.6727202877
20
5.44114139868
10
52.7420269402
20
5.41181328186
10
52.8096423964
20
5.38399589621
10
52.8758826298
20
5.35762881172
10
52.9410636142
20
5.3326515984
10
53.0055013232
20
5.30900382626
10
53.0695117306
20
5.28662506529
10
53.13341081
20
5.2654548855
10
53.1975145351
20
5.2454328569
10
53.2621388795
20
5.22649854949
10
53.3275998171
20
5.20859153328
10
53.3942133213
20
5.19165137827
10
53.4622953661
20
5.17561765446
10
53.5321619249
20
5.16042993186
10
53.6041289715
20
5.14602778047
10
53.6785124796
20
5.1323507703
10
53.7556284229
20
5.11933847135
10
53.835792775
20
5.10693045363
10
53.9193215097
20
5.09506628713
10
54.0065306005
20
5.08368554188
10
54.0977360213
20
5.07272778786
10
54.1932537456
20
5.06213259508
10
54.2933997472
20
5.05183953355
10
54.3984899998
20
5.04178817327
10
54.508840477
20
5.03191808425
10
54.6247671525
20
5.02216883649
10
54.746586
20
5.01248
10
54.9118922887
20
5.00613497523
10
55.0734181741
20
5.00201432835
10
55.2312376694
20
5.00013195861
10
55.3854247876
20
5.00050176523
10
55.5360535415
20
5.00313764744
10
55.6831979444
20
5.00805350448
10
55.8269320092
20
5.01526323557
10
55.9673297489
20
5.02478073995
10
56.1044651766
20
5.03661991685
10
56.2384123053
20
5.0507946655
10
56.3692451479
20
5.06731888513
10
56.4970377176
20
5.08620647498
10
56.6218640274
20
5.10747133426
10
56.7437980902
20
5.13112736222
10
56.8629139192
20
5.15718845809
10
56.9792855272
20
5.1856685211
10
57.0929869275
20
5.21658145047
10
57.2040921329
20
5.24994114545
10
57.3126751565
20
5.28576150525
10
57.4188100113
20
5.32405642912
10
57.5225707103
20
5.36483981629
10
57.6240312667
20
5.40812556598
10
57.7232656933
20
5.45392757742
10
57.8203480033
20
5.50225974986
10
57.9153522096
20
5.55313598251
10
58.0083523253
20
5.60657017462
10
58.0994223633
20
5.6625762254
10
58.1886363368
20
5.7211680341
10
58.2760682587
20
5.78235949995
10
58.3617921421
20
5.84616452217
10
58.445882
20
5.912597
10
58.4778690483
20
5.94131745665
10
58.5109711125
20
5.96939333373
10
58.5451211524
20
5.99680448871
10
58.5802521278
20
6.02353077906
10
58.6162969983
20
6.04955206227
10
58.6531887238
20
6.0748481958
10
58.6908602641
20
6.09939903713
10
58.7292445788
20
6.12318444372
10
58.7682746277
20
6.14618427307
10
58.8078833705
20
6.16837838263
10
58.8480037671
20
6.18974662989
10
58.8885687772
20
6.21026887231
10
58.9295113605
20
6.22992496737
10
58.9707644768
20
6.24869477255
10
59.0122610858
20
6.26655814531
10
59.0539341473
20
6.28349494314
10
59.095716621
20
6.2994850235
10
59.1375414668
20
6.31450824387
10
59.1793416442
20
6.32854446172
10
59.2210501132
20
6.34157353452
10
59.2625998334
20
6.35357531976
10
59.3039237646
20
6.3645296749
10
59.3449548666
20
6.37441645742
10
59.3856260991
20
6.38321552479
10
59.4258704218
20
6.39090673448
10
59.4656207946
20
6.39746994398
10
59.5048101771
20
6.40288501074
10
59.5433715292
20
6.40713179225
10
59.5812378105
20
6.41019014598
10
59.6183419809
20
6.41203992941
10
59.654617
20
6.412661
10
59.869376378
20
6.44375688533
10
60.0793300321
20
6.47884509828
10
60.28420192
20
6.51773428072
10
60.4837159994
20
6.56023307452
10
60.6775962281
20
6.60615012155
10
60.8655665638
20
6.65529406368
10
61.047350964
20
6.70747354278
10
61.2226733867
20
6.76249720073
10
61.3912577894
20
6.8201736794
10
61.5528281299
20
6.88031162066
10
61.7071083658
20
6.94271966638
10
61.8538224549
20
7.00720645843
10
61.9926943549
20
7.07358063868
10
62.1234480235
20
7.14165084901
10
62.2458074184
20
7.21122573129
10
62.3594964973
20
7.28211392739
10
62.4642392179
20
7.35412407918
10
62.5597595379
20
7.42706482854
10
62.645781415
20
7.50074481733
10
62.7220288069
20
7.57497268742
10
62.7882256714
20
7.6495570807
10
62.8440959661
20
7.72430663902
10
62.8893636487
20
7.79903000426
10
62.9237526769
20
7.8735358183
10
62.9469870086
20
7.947632723
10
62.9587906012
20
8.02112936024
10
62.9588874126
20
8.09383437189
10
62.9470014005
20
8.16555639982
10
62.9228565226
20
8.2361040859
10
62.8861767365
20
8.305286072
10
62.836686
20
8.372911
10
62.8284008969
20
8.38351634883
10
62.8200980432
20
8.39593456067
10
62.8117913801
20
8.41010520614
10
62.803494849
20
8.42596785583
10
62.7952223912
20
8.44346208036
10
62.786987948
20
8.46252745034
10
62.7788054608
20
8.48310353637
10
62.7706888709
20
8.50512990907
10
62.7626521196
20
8.52854613904
10
62.7547091483
20
8.55329179688
10
62.7468738982
20
8.57930645322
10
62.7391603106
20
8.60652967866
10
62.731582327
20
8.63490104381
10
62.7241538886
20
8.66436011926
10
62.7168889368
20
8.69484647565
10
62.7098014128
20
8.72629968356
10
62.7029052581
20
8.75865931362
10
62.6962144139
20
8.79186493642
10
62.6897428215
20
8.82585612259
10
62.6835044223
20
8.86057244272
10
62.6775131577
20
8.89595346742
10
62.6717829688
20
8.93193876731
10
62.6663277971
20
8.96846791299
10
62.6611615839
20
9.00548047508
10
62.6562982705
20
9.04291602417
10
62.6517517982
20
9.08071413088
10
62.6475361084
20
9.11881436582
10
62.6436651423
20
9.15715629959
10
62.6401528413
20
9.1956795028
10
62.6370131468
20
9.23432354607
10
62.63426
20
9.273028
10
62.6299306093
20
9.3389351439
10
62.625432766
20
9.40127499305
10
62.6206586732
20
9.46022681877
10
62.6155005339
20
9.51596989238
10
62.609850551
20
9.56868348521
10
62.6036009277
20
9.61854686858
10
62.5966438668
20
9.66573931382
10
62.5888715715
20
9.71044009224
10
62.5801762448
20
9.75282847518
10
62.5704500896
20
9.79308373395
10
62.559585309
20
9.83138513987
10
62.547474106
20
9.86791196428
10
62.5340086836
20
9.9028434785
10
62.5190812448
20
9.93635895385
10
62.5025839926
20
9.96863766164
10
62.4844091301
20
9.99985887322
10
62.4644488603
20
10.0302018599
10
62.4425953861
20
10.059845893
10
62.4187409106
20
10.0889702438
10
62.3927776369
20
10.1177541838
10
62.3645977678
20
10.1463769841
10
62.3340935065
20
10.1750179161
10
62.3011570559
20
10.2038562512
10
62.2656806191
20
10.2330712606
10
62.2275563991
20
10.2628422157
10
62.1866765988
20
10.2933483878
10
62.1429334214
20
10.3247690483
10
62.0962190698
20
10.3572834684
10
62.046425747
20
10.3910709195
10
61.9934456561
20
10.426310673
10
61.937171
20
10.463182
10
61.8679504672
20
10.5109729261
10
61.8028215031
20
10.5576479459
10
61.7417619305
20
10.6033400021
10
61.6847495722
20
10.6481820375
10
61.6317622507
20
10.6923069948
10
61.5827777888
20
10.7358478169
10
61.5377740092
20
10.7789374464
10
61.4967287346
20
10.8217088262
10
61.4596197877
20
10.8642948991
10
61.4264249911
20
10.9068286077
10
61.3971221677
20
10.9494428949
10
61.37168914
20
10.9922707034
10
61.3501037308
20
11.0354449761
10
61.3323437627
20
11.0790986556
10
61.3183870585
20
11.1233646847
10
61.3082114409
20
11.1683760062
10
61.3017947326
20
11.214265563
10
61.2991147562
20
11.2611662976
10
61.3001493345
20
11.309211153
10
61.3048762902
20
11.3585330718
10
61.3132734459
20
11.4092649969
10
61.3253186244
20
11.461539871
10
61.3409896483
20
11.5154906368
10
61.3602643404
20
11.5712502372
10
61.3831205233
20
11.628951615
10
61.4095360198
20
11.6887277128
10
61.4394886526
20
11.7507114735
10
61.4729562443
20
11.8150358398
10
61.5099166176
20
11.8818337544
10
61.5503475953
20
11.9512381602
10
61.594227
20
12.023382
10
61.6315559719
20
12.0810089011
10
61.6662839342
20
12.1378381329
10
61.6984050053
20
12.1940086817
10
61.7279133038
20
12.2496595337
10
61.7548029479
20
12.3049296753
10
61.7790680562
20
12.3599580927
10
61.8007027471
20
12.414883772
10
61.8197011389
20
12.4698456998
10
61.8360573501
20
12.5249828621
10
61.8497654992
20
12.5804342453
10
61.8608197045
20
12.6363388357
10
61.8692140846
20
12.6928356194
10
61.8749427577
20
12.7500635829
10
61.8779998423
20
12.8081617123
10
61.878379457
20
12.8672689939
10
61.8760757199
20
12.927524414
10
61.8710827498
20
12.9890669589
10
61.8633946648
20
13.0520356148
10
61.8530055835
20
13.1165693681
10
61.8399096243
20
13.1828072049
10
61.8241009056
20
13.2508881116
10
61.8055735458
20
13.3209510744
10
61.7843216634
20
13.3931350796
10
61.7603393768
20
13.4675791135
10
61.7336208043
20
13.5444221623
10
61.7041600645
20
13.6238032123
10
61.6719512758
20
13.7058612498
10
61.6369885566
20
13.7907352611
10
61.5992660252
20
13.8785642323
10
61.5587778002
20
13.9694871499
10
61.515518
20
14.063643
10
61.4638511306
20
14.1771432528
10
61.4118094299
20
14.2966360255
10
61.3595340977
20
14.4216197588
10
61.3071663341
20
14.5515928937
10
61.2548473387
20
14.6860538709
10
61.2027183116
20
14.8245011312
10
61.1509204527
20
14.9664331154
10
61.0995949618
20
15.1113482643
10
61.0488830388
20
15.2587450187
10
60.9989258836
20
15.4081218194
10
60.9498646961
20
15.5589771073
10
60.9018406762
20
15.7108093231
10
60.8549950239
20
15.8631169077
10
60.8094689389
20
16.0153983017
10
60.7654036212
20
16.1671519462
10
60.7229402706
20
16.3178762817
10
60.6822200871
20
16.4670697493
10
60.6433842706
20
16.6142307895
10
60.6065740209
20
16.7588578434
10
60.571930538
20
16.9004493516
10
60.5395950217
20
17.038503755
10
60.5097086719
20
17.1725194943
10
60.4824126886
20
17.3019950104
10
60.4578482716
20
17.4264287442
10
60.4361566207
20
17.5453191362
10
60.417478936
20
17.6581646275
10
60.4019564172
20
17.7644636588
10
60.3897302644
20
17.8637146709
10
60.3809416773
20
17.9554161046
10
60.3757318559
20
18.0390664007
10
60.374242
20
18.114164
10
60.3749836911
20
18.1445204015
10
60.3768076561
20
18.1774289126
10
60.3796856194
20
18.2127565895
10
60.3835893053
20
18.2503704888
10
60.3884904383
20
18.2901376669
10
60.3943607428
20
18.3319251802
10
60.4011719432
20
18.3756000851
10
60.4088957639
20
18.421029438
10
60.4175039293
20
18.4680802955
10
60.4269681639
20
18.5166197138
10
60.4372601921
20
18.5665147495
10
60.4483517382
20
18.6176324589
10
60.4602145268
20
18.6698398986
10
60.4728202821
20
18.7230041248
10
60.4861407286
20
18.7769921941
10
60.5001475908
20
18.8316711628
10
60.514812593
20
18.8869080875
10
60.5301074597
20
18.9425700244
10
60.5460039152
20
18.9985240301
10
60.5624736841
20
19.054637161
10
60.5794884906
20
19.1107764735
10
60.5970200592
20
19.166809024
10
60.6150401144
20
19.222601869
10
60.6335203805
20
19.2780220648
10
60.6524325819
20
19.3329366679
10
60.6717484431
20
19.3872127348
10
60.6914396885
20
19.4407173218
10
60.7114780424
20
19.4933174854
10
60.7318352294
20
19.544880282
10
60.7524829738
20
19.5952727681
10
60.773393
20
19.644362
10
60.7949814772
20
19.6940732159
10
60.8176411921
20
19.7463224476
10
60.8413087957
20
19.8009626513
10
60.8659209388
20
19.8578467836
10
60.8914142722
20
19.9168278007
10
60.9177254468
20
19.9777586592
10
60.9447911136
20
20.0404923153
10
60.9725479233
20
20.1048817256
10
61.0009325268
20
20.1707798463
10
61.0298815751
20
20.2380396338
10
61.0593317189
20
20.3065140447
10
61.0892196091
20
20.3760560352
10
61.1194818966
20
20.4465185618
10
61.1500552324
20
20.5177545809
10
61.1808762671
20
20.5896170488
10
61.2118816517
20
20.661958922
10
61.2430080372
20
20.7346331569
10
61.2741920742
20
20.8074927097
10
61.3053704138
20
20.8803905371
10
61.3364797067
20
20.9531795952
10
61.3674566039
20
21.0257128407
10
61.3982377562
20
21.0978432297
10
61.4287598145
20
21.1694237188
10
61.4589594296
20
21.2403072643
10
61.4887732524
20
21.3103468226
10
61.5181379338
20
21.3793953501
10
61.5469901247
20
21.4473058033
10
61.5752664759
20
21.5139311385
10
61.6029036382
20
21.579124312
10
61.6298382627
20
21.6427382804
10
61.656007
20
21.704626
10
61.6821724346
20
21.7633611038
10
61.7090788888
20
21.8233269427
10
61.7366643626
20
21.8843805016
10
61.7648668557
20
21.9463787653
10
61.793624368
20
22.0091787188
10
61.8228748994
20
22.0726373468
10
61.8525564498
20
22.1366116342
10
61.8826070191
20
22.2009585659
10
61.912964607
20
22.2655351268
10
61.9435672135
20
22.3301983017
10
61.9743528384
20
22.3948050755
10
62.0052594816
20
22.4592124329
10
62.036225143
20
22.523277359
10
62.0671878224
20
22.5868568386
10
62.0980855197
20
22.6498078564
10
62.1288562347
20
22.7119873975
10
62.1594379674
20
22.7732524465
10
62.1897687176
20
22.8334599885
10
62.2197864851
20
22.8924670083
10
62.2494292698
20
22.9501304906
10
62.2786350716
20
23.0063074205
10
62.3073418904
20
23.0608547827
10
62.335487726
20
23.113629562
10
62.3630105783
20
23.1644887435
10
62.3898484471
20
23.2132893119
10
62.4159393323
20
23.2598882521
10
62.4412212338
20
23.3041425489
10
62.4656321515
20
23.3459091873
10
62.4891100852
20
23.385045152
10
62.5115930347
20
23.4214074279
10
62.533019
20
23.454853
10
62.5909874681
20
23.5475936276
10
62.6552533319
20
23.6511509948
10
62.7254107321
20
23.7648523283
10
62.8010538093
20
23.8880248546
10
62.8817767043
20
24.0199958003
10
62.9671735579
20
24.1600923922
10
63.0568385107
20
24.3076418567
10
63.1503657034
20
24.4619714205
10
63.2473492767
20
24.6224083102
10
63.3473833715
20
24.7882797524
10
63.4500621283
20
24.9589129737
10
63.5549796879
20
25.1336352008
10
63.661730191
20
25.3117736602
10
63.7699077783
20
25.4926555786
10
63.8791065905
20
25.6756081826
10
63.9889207685
20
25.8599586988
10
64.0989444527
20
26.0450343537
10
64.2087717841
20
26.2301623741
10
64.3179969032
20
26.4146699865
10
64.4262139508
20
26.5978844175
10
64.5330170677
20
26.7791328938
10
64.6380003944
20
26.957742642
10
64.7407580719
20
27.1330408886
10
64.8408842406
20
27.3043548603
10
64.9379730415
20
27.4710117837
10
65.0316186151
20
27.6323388854
10
65.1214151022
20
27.787663392
10
65.2069566436
20
27.9363125302
10
65.2878373798
20
28.0776135265
10
65.3636514517
20
28.2108936076
10
65.433993
20
28.33548
10
65.4972144401
20
28.4473566249
10
65.5584735549
20
28.5546104624
10
65.617816246
20
28.6573019405
10
65.675288415
20
28.7554914871
10
65.7309359635
20
28.8492395302
10
65.784804793
20
28.9386064979
10
65.8369408052
20
29.023652818
10
65.8873899016
20
29.1044389186
10
65.9361979838
20
29.1810252277
10
65.9834109534
20
29.2534721731
10
66.029074712
20
29.321840183
10
66.0732351611
20
29.3861896853
10
66.1159382023
20
29.446581108
10
66.1572297372
20
29.5030748791
10
66.1971556674
20
29.5557314264
10
66.2357618945
20
29.6046111781
10
66.27309432
20
29.6497745621
10
66.3091988456
20
29.6912820064
10
66.3441213728
20
29.729193939
10
66.3779078031
20
29.7635707878
10
66.4106040383
20
29.7944729809
10
66.4422559798
20
29.8219609461
10
66.4729095292
20
29.8460951116
10
66.5026105881
20
29.8669359052
10
66.5314050582
20
29.884543755
10
66.5593388409
20
29.8989790889
10
66.5864578379
20
29.910302335
10
66.6128079507
20
29.9185739211
10
66.6384350809
20
29.9238542754
10
66.6633851302
20
29.9262038257
10
66.687704
20
29.925683
10
66.7232831728
20
29.9219045831
10
66.7573912719
20
29.9189151718
10
66.7900852007
20
29.9167482023
10
66.8214218627
20
29.9154371111
10
66.8514581613
20
29.9150153344
10
66.880251
20
29.9155163087
10
66.9078572821
20
29.9169734701
10
66.934333911
20
29.9194202551
10
66.9597377903
20
29.9228901001
10
66.9841258234
20
29.9274164413
10
67.0075549136
20
29.9330327151
10
67.0300819644
20
29.9397723579
10
67.0517638792
20
29.9476688059
10
67.0726575614
20
29.9567554955
10
67.0928199145
20
29.9670658631
10
67.112307842
20
29.978633345
10
67.1311782471
20
29.9914913775
10
67.1494880334
20
30.005673397
10
67.1672941043
20
30.0212128399
10
67.1846533632
20
30.0381431423
10
67.2016227136
20
30.0564977408
10
67.2182590588
20
30.0763100716
10
67.2346193023
20
30.0976135711
10
67.2507603475
20
30.1204416756
10
67.2667390978
20
30.1448278214
10
67.2826124568
20
30.170805445
10
67.2984373277
20
30.1984079825
10
67.3142706141
20
30.2276688705
10
67.3301692193
20
30.2586215452
10
67.3461900468
20
30.2912994429
10
67.36239
20
30.325736
10
67.3717639245
20
30.3457042664
10
67.3810317621
20
30.3668408343
10
67.3901798671
20
30.3890651312
10
67.399194594
20
30.4122965847
10
67.408062297
20
30.4364546222
10
67.4167693305
20
30.4614586712
10
67.4253020487
20
30.4872281591
10
67.4336468061
20
30.5136825135
10
67.441789957
20
30.5407411618
10
67.4497178557
20
30.5683235315
10
67.4574168566
20
30.59634905
10
67.4648733139
20
30.6247371449
10
67.472073582
20
30.6534072436
10
67.4790040153
20
30.6822787737
10
67.4856509681
20
30.7112711625
10
67.4920007947
20
30.7403038375
10
67.4980398494
20
30.7692962263
10
67.5037544867
20
30.7981677564
10
67.5091310607
20
30.8268378551
10
67.514155926
20
30.85522595
10
67.5188154367
20
30.8832514685
10
67.5230959472
20
30.9108338382
10
67.526983812
20
30.9378924865
10
67.5304653852
20
30.9643468409
10
67.5335270212
20
30.9901163288
10
67.5361550745
20
31.0151203778
10
67.5383358992
20
31.0392784153
10
67.5400558498
20
31.0625098688
10
67.5413012806
20
31.0847341657
10
67.5420585459
20
31.1058707336
10
67.542314
20
31.125839
10
67.543385756
20
31.1464333727
10
67.5465907246
20
31.1694549743
10
67.5519134566
20
31.1948333042
10
67.5593385027
20
31.2224978619
10
67.5688504137
20
31.2523781469
10
67.5804337403
20
31.2844036585
10
67.5940730334
20
31.3185038963
10
67.6097528437
20
31.3546083596
10
67.6274577219
20
31.392646548
10
67.6471722189
20
31.4325479608
10
67.6688808854
20
31.4742420975
10
67.6925682722
20
31.5176584576
10
67.7182189301
20
31.5627265404
10
67.7458174098
20
31.6093758456
10
67.775348262
20
31.6575358724
10
67.8067960377
20
31.7071361203
10
67.8401452874
20
31.7581060889
10
67.8753805621
20
31.8103752775
10
67.9124864125
20
31.8638731855
10
67.9514473893
20
31.9185293125
10
67.9922480433
20
31.9742731579
10
68.0348729253
20
32.031034221
10
68.0793065861
20
32.0887420015
10
68.1255335764
20
32.1473259986
10
68.173538447
20
32.2067157119
10
68.2233057486
20
32.2668406408
10
68.2748200322
20
32.3276302848
10
68.3280658483
20
32.3890141432
10
68.3830277478
20
32.4509217156
10
68.4396902814
20
32.5132825014
10
68.498038
20
32.576026
10
68.6711674122
20
32.772339316
10
68.8337030227
20
32.9570563784
10
68.9859782473
20
33.1306948586
10
69.1283265018
20
33.2937724281
10
69.261081202
20
33.4468067583
10
69.3845757637
20
33.5903155206
10
69.4991436027
20
33.7248163865
10
69.6051181348
20
33.8508270274
10
69.7028327758
20
33.9688651148
10
69.7926209415
20
34.0794483202
10
69.8748160477
20
34.1830943149
10
69.9497515101
20
34.2803207704
10
70.0177607447
20
34.3716453581
10
70.0791771671
20
34.4575857496
10
70.1343341931
20
34.5386596162
10
70.1835652387
20
34.6153846294
10
70.2272037195
20
34.6882784606
10
70.2655830514
20
34.7578587813
10
70.2990366501
20
34.8246432629
10
70.3278979315
20
34.8891495769
10
70.3525003114
20
34.9518953947
10
70.3731772055
20
35.0133983878
10
70.3902620296
20
35.0741762275
10
70.4040881996
20
35.1347465854
10
70.4149891312
20
35.1956271329
10
70.4232982403
20
35.2573355414
10
70.4293489426
20
35.3203894824
10
70.4334746539
20
35.3853066273
10
70.43600879
20
35.4526046476
10
70.4372847668
20
35.5228012147
10
70.437636
20
35.596414
10
70.4370052522
20
35.6374717501
10
70.4351339304
20
35.6830958741
10
70.4320534167
20
35.7331071015
10
70.4277950934
20
35.7873261621
10
70.4223903428
20
35.8455737855
10
70.4158705469
20
35.9076707015
10
70.4082670882
20
35.9734376397
10
70.3996113488
20
36.0426953298
10
70.3899347109
20
36.1152645015
10
70.3792685568
20
36.1909658845
10
70.3676442687
20
36.2696202084
10
70.3550932288
20
36.3510482029
10
70.3416468194
20
36.4350705978
10
70.3273364227
20
36.5215081227
10
70.3121934209
20
36.6101815073
10
70.2962491962
20
36.7009114813
10
70.2795351309
20
36.7935187743
10
70.2620826072
20
36.887824116
10
70.2439230074
20
36.9836482362
10
70.2250877136
20
37.0808118645
10
70.2056081081
20
37.1791357305
10
70.1855155732
20
37.2784405641
10
70.164841491
20
37.3785470948
10
70.1436172437
20
37.4792760523
10
70.1218742137
20
37.5804481664
10
70.0996437832
20
37.6818841666
10
70.0769573343
20
37.7834047828
10
70.0538462493
20
37.8848307445
10
70.0303419104
20
37.9859827815
10
70.0064756999
20
38.0866816234
10
69.982279
20
38.186748
10
69.9252925017
20
38.4203281727
10
69.8721911197
20
38.6394940788
10
69.8230197331
20
38.8448802197
10
69.7778232209
20
39.0371210967
10
69.7366464622
20
39.2168512112
10
69.699534336
20
39.3847050645
10
69.6665317214
20
39.5413171581
10
69.6376834975
20
39.6873219932
10
69.6130345433
20
39.8233540713
10
69.5926297378
20
39.9500478936
10
69.5765139602
20
40.0680379616
10
69.5647320895
20
40.1779587765
10
69.5573290047
20
40.2804448399
10
69.5543495849
20
40.3761306529
10
69.5558387091
20
40.4656507171
10
69.5618412565
20
40.5496395337
10
69.5724021061
20
40.6287316041
10
69.5875661369
20
40.7035614296
10
69.6073782279
20
40.7747635117
10
69.6318832583
20
40.8429723516
10
69.6611261071
20
40.9088224508
10
69.6951516534
20
40.9729483106
10
69.7340047762
20
41.0359844324
10
69.7777303546
20
41.0985653174
10
69.8263732676
20
41.1613254672
10
69.8799783942
20
41.224899383
10
69.9385906137
20
41.2899215661
10
70.0022548049
20
41.3570265181
10
70.071015847
20
41.4268487401
10
70.144918619
20
41.5000227336
10
70.224008
20
41.577183
10
70.3285057764
20
41.6791126905
10
70.4260326962
20
41.7743730883
10
70.5166054677
20
41.8636631504
10
70.6002407994
20
41.9476818337
10
70.6769553997
20
42.0271280953
10
70.746765977
20
42.1027008922
10
70.8096892396
20
42.1750991813
10
70.865741896
20
42.2450219197
10
70.9149406546
20
42.3131680643
10
70.9573022238
20
42.3802365722
10
70.9928433119
20
42.4469264004
10
71.0215806274
20
42.5139365058
10
71.0435308788
20
42.5819658455
10
71.0587107743
20
42.6517133765
10
71.0671370224
20
42.7238780557
10
71.0688263314
20
42.7991588402
10
71.0637954099
20
42.878254687
10
71.0520609662
20
42.961864553
10
71.0336397087
20
43.0506873953
10
71.0085483457
20
43.1454221709
10
70.9768035858
20
43.2467678367
10
70.9384221373
20
43.3554233498
10
70.8934207086
20
43.4720876672
10
70.8418160081
20
43.5974597459
10
70.7836247442
20
43.7322385428
10
70.7188636253
20
43.877123015
10
70.6475493598
20
44.0328121194
10
70.5696986561
20
44.2000048132
10
70.4853282227
20
44.3794000532
10
70.3944547678
20
44.5716967964
10
70.297095
20
44.777594
10
70.2061008802
20
44.9726214517
10
70.1200332463
20
45.1590136241
10
70.0388636708
20
45.3368772754
10
69.962563726
20
45.5063191636
10
69.8911049842
20
45.6674460469
10
69.8244590179
20
45.8203646836
10
69.7625973992
20
45.9651818316
10
69.7054917007
20
46.1020042493
10
69.6531134947
20
46.2309386946
10
69.6054343535
20
46.3520919259
10
69.5624258495
20
46.4655707012
10
69.5240595549
20
46.5714817786
10
69.4903070423
20
46.6699319164
10
69.4611398839
20
46.7610278726
10
69.4365296521
20
46.8448764054
10
69.4164479192
20
46.921584273
10
69.4008662576
20
46.9912582336
10
69.3897562397
20
47.0540050451
10
69.3830894378
20
47.1099314659
10
69.3808374242
20
47.1591442541
10
69.3829717714
20
47.2017501678
10
69.3894640516
20
47.2378559651
10
69.4002858372
20
47.2675684042
10
69.4154087006
20
47.2909942433
10
69.4348042142
20
47.3082402405
10
69.4584439502
20
47.3194131539
10
69.4862994811
20
47.3246197417
10
69.5183423791
20
47.3239667621
10
69.5545442167
20
47.3175609732
10
69.5948765662
20
47.3055091331
10
69.639311
20
47.287918
10
69.7021362492
20
47.2598208632
10
69.7654006065
20
47.2336105145
10
69.8290043414
20
47.2093004493
10
69.8928477232
20
47.1869041635
10
69.9568310213
20
47.1664351525
10
70.0208545052
20
47.147906912
10
70.0848184443
20
47.1313329377
10
70.148623108
20
47.1167267251
10
70.2121687656
20
47.1041017698
10
70.2753556867
20
47.0934715675
10
70.3380841405
20
47.0848496138
10
70.4002543966
20
47.0782494044
10
70.4617667243
20
47.0736844348
10
70.5225213931
20
47.0711682006
10
70.5824186723
20
47.0707141975
10
70.6413588314
20
47.0723359211
10
70.6992421397
20
47.076046867
10
70.7559688667
20
47.0818605309
10
70.8114392819
20
47.0897904083
10
70.8655536545
20
47.0998499949
10
70.918212254
20
47.1120527863
10
70.9693153499
20
47.1264122781
10
71.0187632115
20
47.1429419659
10
71.0664561083
20
47.1616553454
10
71.1122943096
20
47.1825659121
10
71.1561780848
20
47.2056871618
10
71.1980077035
20
47.2310325899
10
71.2376834349
20
47.2586156922
10
71.2751055485
20
47.2884499642
10
71.3101743138
20
47.3205489016
10
71.34279
20
47.354926
10
71.4044040197
20
47.4228380361
10
71.4598678208
20
47.4912194188
10
71.5091037899
20
47.5602897048
10
71.5520343142
20
47.6302684509
10
71.5885817804
20
47.701375214
10
71.6186685755
20
47.7738295508
10
71.6422170863
20
47.8478510181
10
71.6591496998
20
47.9236591726
10
71.6693888028
20
48.0014735711
10
71.6728567822
20
48.0815137705
10
71.669476025
20
48.1639993274
10
71.6591689181
20
48.2491497987
10
71.6418578482
20
48.3371847412
10
71.6174652024
20
48.4283237116
10
71.5859133675
20
48.5227862667
10
71.5471247304
20
48.6207919633
10
71.501021678
20
48.7225603581
10
71.4475265972
20
48.828311008
10
71.3865618749
20
48.9382634697
10
71.318049898
20
49.0526373001
10
71.2419130533
20
49.1716520558
10
71.1580737279
20
49.2955272936
10
71.0664543085
20
49.4244825704
10
70.9669771822
20
49.5587374429
10
70.8595647357
20
49.6985114679
10
70.7441393559
20
49.8440242022
10
70.6206234298
20
49.9954952025
10
70.4889393443
20
50.1531440257
10
70.3490094862
20
50.3171902285
10
70.2007562425
20
50.4878533677
10
70.044102
20
50.665353
10
69.9516174343
20
50.7692014542
10
69.8642178305
20
50.8679638217
10
69.7817635863
20
50.9618616745
10
69.7041150997
20
51.0511165847
10
69.6311327684
20
51.1359501243
10
69.5626769902
20
51.2165838653
10
69.4986081631
20
51.2932393797
10
69.4387866849
20
51.3661382396
10
69.3830729534
20
51.4355020169
10
69.3313273664
20
51.5015522837
10
69.2834103218
20
51.564510612
10
69.2391822174
20
51.6245985738
10
69.198503451
20
51.6820377411
10
69.1612344206
20
51.737049686
10
69.1272355239
20
51.7898559804
10
69.0963671587
20
51.8406781965
10
69.068489723
20
51.8897379061
10
69.0434636145
20
51.9372566814
10
69.0211492311
20
51.9834560943
10
69.0014069706
20
52.0285577169
10
68.9840972309
20
52.0727831211
10
68.9690804098
20
52.1163538791
10
68.9562169051
20
52.1594915627
10
68.9453671147
20
52.2024177441
10
68.9363914364
20
52.2453539953
10
68.9291502681
20
52.2885218882
10
68.9235040075
20
52.3321429949
10
68.9193130526
20
52.3764388874
10
68.9164378011
20
52.4216311378
10
68.914738651
20
52.4679413179
10
68.914076
20
52.515591
10
68.9126377802
20
52.5862699952
10
68.9089314531
20
52.6625305971
10
68.9030502266
20
52.7439598757
10
68.8950873087
20
52.8301449008
10
68.8851359072
20
52.9206727423
10
68.8732892302
20
53.01513047
10
68.8596404855
20
53.1131051537
10
68.8442828813
20
53.2141838633
10
68.8273096253
20
53.3179536688
10
68.8088139255
20
53.4240016398
10
68.78888899
20
53.5319148463
10
68.7676280266
20
53.6412803581
10
68.7451242433
20
53.7516852451
10
68.721470848
20
53.8627165772
10
68.6967610487
20
53.9739614241
10
68.6710880533
20
54.0850068558
10
68.6445450698
20
54.1954399421
10
68.6172253062
20
54.3048477528
10
68.5892219703
20
54.4128173578
10
68.5606282701
20
54.518935827
10
68.5315374137
20
54.6227902301
10
68.5020426088
20
54.7239676372
10
68.4722370636
20
54.8220551179
10
68.4422139858
20
54.9166397422
10
68.4120665836
20
55.00730858
10
68.3818880647
20
55.093648701
10
68.3517716372
20
55.1752471751
10
68.3218105091
20
55.2516910722
10
68.2920978882
20
55.3225674622
10
68.2627269825
20
55.3874634148
10
68.233791
20
55.445966
10
68.215746686
20
55.4837575797
10
68.1988960055
20
55.5197564215
10
68.1832386731
20
55.5540430983
10
68.1687744033
20
55.5866981834
10
68.1555029108
20
55.6178022499
10
68.1434239102
20
55.6474358708
10
68.1325371161
20
55.6756796194
10
68.1228422431
20
55.7026140687
10
68.1143390059
20
55.728319792
10
68.107027119
20
55.7528773622
10
68.100906297
20
55.7763673525
10
68.0959762546
20
55.7988703361
10
68.0922367064
20
55.820466886
10
68.089687367
20
55.8412375755
10
68.0883279509
20
55.8612629776
10
68.0881581729
20
55.8806236655
10
68.0891777475
20
55.8994002122
10
68.0913863893
20
55.917673191
10
68.094783813
20
55.9355231749
10
68.0993697332
20
55.953030737
10
68.1051438644
20
55.9702764505
10
68.1121059213
20
55.9873408886
10
68.1202556185
20
56.0043046243
10
68.1295926706
20
56.0212482307
10
68.1401167922
20
56.0382522811
10
68.1518276979
20
56.0553973485
10
68.1647251024
20
56.072764006
10
68.1788087203
20
56.0904328268
10
68.1940782661
20
56.1084843839
10
68.2105334544
20
56.1269992506
10
68.228174
20
56.146058
10
68.2427369408
20
56.16636164
10
68.2567731996
20
56.1885969867
10
68.2702868664
20
56.2128224546
10
68.2832820314
20
56.2390964579
10
68.2957627847
20
56.2674774111
10
68.3077332163
20
56.2980237284
10
68.3191974164
20
56.3307938242
10
68.3301594751
20
56.3658461129
10
68.3406234824
20
56.4032390089
10
68.3505935284
20
56.4430309264
10
68.3600737032
20
56.4852802798
10
68.369068097
20
56.5300454836
10
68.3775807998
20
56.577384952
10
68.3856159017
20
56.6273570994
10
68.3931774928
20
56.6800203401
10
68.4002696633
20
56.7354330886
10
68.4068965031
20
56.7936537591
10
68.4130621024
20
56.854740766
10
68.4187705513
20
56.9187525237
10
68.4240259398
20
56.9857474465
10
68.4288323582
20
57.0557839487
10
68.4331938964
20
57.1289204448
10
68.4371146446
20
57.2052153491
10
68.4405986928
20
57.2847270759
10
68.4436501312
20
57.3675140396
10
68.4462730498
20
57.4536346545
10
68.4484715388
20
57.543147335
10
68.4502496882
20
57.6361104955
10
68.4516115882
20
57.7325825502
10
68.4525613287
20
57.8326219136
10
68.453103
20
57.936287
10
68.4534348381
20
58.0716536561
10
68.4534623586
20
58.1993438558
10
68.4530771833
20
58.3198611715
10
68.4521709343
20
58.433709176
10
68.4506352336
20
58.5413914418
10
68.448361703
20
58.6434115416
10
68.4452419645
20
58.740273048
10
68.4411676402
20
58.8324795336
10
68.436030352
20
58.920534571
10
68.4297217218
20
59.004941733
10
68.4221333716
20
59.086204592
10
68.4131569234
20
59.1648267207
10
68.4026839992
20
59.2413116918
10
68.3906062208
20
59.3161630778
10
68.3768152104
20
59.3898844514
10
68.3612025898
20
59.4629793852
10
68.343659981
20
59.5359514518
10
68.324079006
20
59.6093042239
10
68.3023512868
20
59.6835412741
10
68.2783684453
20
59.7591661749
10
68.2520221034
20
59.8366824991
10
68.2232038832
20
59.9165938192
10
68.1918054066
20
59.9994037078
10
68.1577182956
20
60.0856157377
10
68.1208341722
20
60.1757334813
10
68.0810446582
20
60.2702605114
10
68.0382413758
20
60.3697004005
10
67.9923159467
20
60.4745567213
10
67.9431599931
20
60.5853330464
10
67.8906651369
20
60.7025329484
10
67.834723
20
60.82666
10
67.7648241613
20
60.981319551
10
67.6977729813
20
61.1284154403
10
67.6329902383
20
61.2688138126
10
67.5698967107
20
61.4033808127
10
67.5079131769
20
61.5329825853
10
67.4464604152
20
61.6584852752
10
67.384959204
20
61.7807550271
10
67.3228303215
20
61.9006579857
10
67.2594945463
20
62.0190602958
10
67.1943726566
20
62.1368281021
10
67.1268854308
20
62.2548275494
10
67.0564536472
20
62.3739247824
10
66.9824980843
20
62.4949859458
10
66.9044395203
20
62.6188771845
10
66.8216987336
20
62.746464643
10
66.7336965026
20
62.8786144662
10
66.6398536056
20
63.0161927989
10
66.539590821
20
63.1600657857
10
66.4323289272
20
63.3110995714
10
66.3174887024
20
63.4701603008
10
66.1944909251
20
63.6381141185
10
66.0627563736
20
63.8158271693
10
65.9217058262
20
64.0041655981
10
65.7707600614
20
64.2039955494
10
65.6093398574
20
64.4161831681
10
65.4368659927
20
64.6415945988
10
65.2527592456
20
64.8810959864
10
65.0564403944
20
65.1355534756
10
64.8473302175
20
65.4058332111
10
64.6248494932
20
65.6928013377
10
64.388419
20
65.997324
10
64.1367081698
20
66.3209532148
10
63.9008262961
20
66.6247114689
10
63.6801926912
20
66.9096461927
10
63.4742266674
20
67.1768048168
10
63.2823475371
20
67.4272347715
10
63.1039746127
20
67.6619834876
10
62.9385272064
20
67.8820983953
10
62.7854246307
20
68.0886269253
10
62.6440861978
20
68.282616508
10
62.5139312201
20
68.465114574
10
62.39437901
20
68.6371685537
10
62.2848488798
20
68.7998258776
10
62.1847601418
20
68.9541339763
10
62.0935321083
20
69.1011402802
10
62.0105840918
20
69.2418922198
10
61.9353354046
20
69.3774372256
10
61.8672053589
20
69.5088227282
10
61.8056132672
20
69.637096158
10
61.7499784418
20
69.7633049455
10
61.699720195
20
69.8884965212
10
61.6542578392
20
70.0137183157
0
LWPOLYLINE
5
59
100
AcDbEntity
8
Engraving
6
ByLayer
62
256
370
-1
100
AcDbPolyline
90
714
70
1
43
0
10
50.1096364186
20
66.2255800521
10
50.0801320104
20
66.1245301661
10
50.0516909264
20
66.0252629241
10
50.0244571483
20
65.9282798837
10
49.9985746578
20
65.834082602
10
49.9741874365
20
65.7431726366
10
49.9514394661
20
65.6560515449
10
49.9304747284
20
65.5732208841
10
49.9114372049
20
65.4951822117
10
49.8944708773
20
65.4224370851
10
49.8797197273
20
65.3554870616
10
49.8673277366
20
65.2948336987
10
49.8574388868
20
65.2409785537
10
49.8501971597
20
65.194423184
10
49.8457465369
20
65.155669147
10
49.844231
20
65.125218
10
49.8440215217
20
65.1061729512
10
49.8433999559
20
65.0877523213
10
49.8423766064
20
65.0699561109
10
49.8409617769
20
65.0527843207
10
49.8391657714
20
65.0362369512
10
49.8369988935
20
65.020314003
10
49.8344714471
20
65.0050154768
10
49.8315937359
20
64.9903413731
10
49.8283760636
20
64.9762916926
10
49.8248287342
20
64.9628664358
10
49.8209620514
20
64.9500656033
10
49.8167863188
20
64.9378891959
10
49.8123118405
20
64.926337214
10
49.80754892
20
64.9154096582
10
49.8025078613
20
64.9051065293
10
49.797198968
20
64.8954278277
10
49.7916325441
20
64.8863735541
10
49.7858188931
20
64.877943709
10
49.779768319
20
64.8701382932
10
49.7734911255
20
64.8629573072
10
49.7669976165
20
64.8564007515
10
49.7602980956
20
64.8504686269
10
49.7534028666
20
64.8451609339
10
49.7463222335
20
64.8404776731
10
49.7390664998
20
64.8364188451
10
49.7316459695
20
64.8329844505
10
49.7240709463
20
64.8301744899
10
49.7163517339
20
64.827988964
10
49.7084986362
20
64.8264278733
10
49.700521957
20
64.8254912184
10
49.692432
20
64.825179
10
49.6833776511
20
64.8245612866
10
49.6725395332
20
64.8227350035
10
49.6599770076
20
64.8197404363
10
49.6457494353
20
64.8156178708
10
49.6299161776
20
64.8104075925
10
49.6125365955
20
64.8041498872
10
49.5936700503
20
64.7968850404
10
49.5733759031
20
64.7886533379
10
49.5517135149
20
64.7794950653
10
49.528742247
20
64.7694505082
10
49.5045214606
20
64.7585599523
10
49.4791105167
20
64.7468636833
10
49.4525687766
20
64.7344019868
10
49.4249556013
20
64.7212151485
10
49.396330352
20
64.707343454
10
49.3667523899
20
64.6928271891
10
49.3362810761
20
64.6777066392
10
49.3049757718
20
64.6620220902
10
49.2728958381
20
64.6458138276
10
49.2401006362
20
64.6291221372
10
49.2066495271
20
64.6119873045
10
49.1726018722
20
64.5944496153
10
49.1380170324
20
64.5765493551
10
49.102954369
20
64.5583268097
10
49.0674732432
20
64.5398222647
10
49.0316330159
20
64.5210760058
10
48.9954930485
20
64.5021283186
10
48.9591127021
20
64.4830194887
10
48.9225513378
20
64.4637898019
10
48.8858683167
20
64.4444795438
10
48.849123
20
64.425129
10
48.7883991712
20
64.3876395582
10
48.7314690875
20
64.3525068451
10
48.6782652726
20
64.31958986
10
48.6287202498
20
64.2887476023
10
48.5827665427
20
64.2598390712
10
48.5403366748
20
64.232723266
10
48.5013631696
20
64.207259186
10
48.4657785507
20
64.1833058306
10
48.4335153416
20
64.160722199
10
48.4045060657
20
64.1393672904
10
48.3786832466
20
64.1191001043
10
48.3559794078
20
64.0997796399
10
48.3363270728
20
64.0812648964
10
48.3196587651
20
64.0634148733
10
48.3059070083
20
64.0460885697
10
48.2950043258
20
64.029144985
10
48.2868832412
20
64.0124431184
10
48.2814762779
20
63.9958419694
10
48.2787159595
20
63.979200537
10
48.2785348096
20
63.9623778208
10
48.2808653516
20
63.9452328199
10
48.285640109
20
63.9276245336
10
48.2927916054
20
63.9094119613
10
48.3022523642
20
63.8904541022
10
48.313954909
20
63.8706099557
10
48.3278317633
20
63.8497385209
10
48.3438154505
20
63.8276987973
10
48.3618384943
20
63.8043497841
10
48.3818334182
20
63.7795504806
10
48.4037327456
20
63.7531598862
10
48.427469
20
63.725037
10
48.4422316321
20
63.7150563599
10
48.4575888724
20
63.704511694
10
48.4735012209
20
63.6934634324
10
48.4899291778
20
63.6819720049
10
48.5068332429
20
63.6700978417
10
48.5241739163
20
63.6579013727
10
48.5419116981
20
63.6454430278
10
48.5600070882
20
63.6327832372
10
48.5784205866
20
63.6199824307
10
48.5971126934
20
63.6071010385
10
48.6160439086
20
63.5941994904
10
48.6351747322
20
63.5813382165
10
48.6544656642
20
63.5685776467
10
48.6738772047
20
63.5559782112
10
48.6933698536
20
63.5436003398
10
48.712904111
20
63.5315044625
10
48.7324404769
20
63.5197510094
10
48.7519394513
20
63.5084004105
10
48.7713615342
20
63.4975130957
10
48.7906672256
20
63.487149495
10
48.8098170256
20
63.4773700385
10
48.8287714342
20
63.4682351562
10
48.8474909514
20
63.4598052779
10
48.8659360772
20
63.4521408338
10
48.8840673116
20
63.4453022538
10
48.9018451546
20
63.4393499679
10
48.9192301063
20
63.4343444061
10
48.9361826667
20
63.4303459984
10
48.9526633357
20
63.4274151749
10
48.9686326135
20
63.4256123654
10
48.984051
20
63.424998
10
49.0043256954
20
63.4174007626
10
49.0235412025
20
63.4095100486
10
49.0417060392
20
63.4013196136
10
49.0588287239
20
63.392823213
10
49.0749177745
20
63.3840146023
10
49.0899817093
20
63.3748875371
10
49.1040290465
20
63.3654357728
10
49.117068304
20
63.355653065
10
49.1291080002
20
63.345533169
10
49.140156653
20
63.3350698405
10
49.1502227808
20
63.3242568349
10
49.1593149016
20
63.3130879077
10
49.1674415335
20
63.3015568144
10
49.1746111948
20
63.2896573105
10
49.1808324034
20
63.2773831516
10
49.1861136777
20
63.264728093
10
49.1904635357
20
63.2516858903
10
49.1938904956
20
63.238250299
10
49.1964030755
20
63.2244150746
10
49.1980097936
20
63.2101739726
10
49.198719168
20
63.1955207485
10
49.1985397168
20
63.1804491577
10
49.1974799582
20
63.1649529559
10
49.1955484104
20
63.1490258984
10
49.1927535914
20
63.1326617407
10
49.1891040194
20
63.1158542385
10
49.1846082126
20
63.0985971471
10
49.1792746892
20
63.080884222
10
49.1731119671
20
63.0627092188
10
49.1661285647
20
63.044065893
10
49.158333
20
63.024948
10
49.1521819532
20
63.0043589987
10
49.1456673728
20
62.9813749971
10
49.1388080019
20
62.9560987241
10
49.1316225838
20
62.928632909
10
49.1241298616
20
62.8990802807
10
49.1163485785
20
62.8675435684
10
49.1082974777
20
62.8341255011
10
49.0999953023
20
62.7989288079
10
49.0914607955
20
62.7620562179
10
49.0827127006
20
62.7236104601
10
49.0737697606
20
62.6836942637
10
49.0646507188
20
62.6424103578
10
49.0553743183
20
62.5998614713
10
49.0459593023
20
62.5561503334
10
49.036424414
20
62.5113796732
10
49.0267883966
20
62.4656522197
10
49.0170699932
20
62.419070702
10
49.0072879471
20
62.3717378492
10
48.9974610013
20
62.3237563904
10
48.9876078991
20
62.2752290547
10
48.9777473837
20
62.2262585711
10
48.9678981982
20
62.1769476687
10
48.9580790858
20
62.1273990766
10
48.9483087897
20
62.0777155239
10
48.9386060531
20
62.0279997396
10
48.9289896191
20
61.9783544529
10
48.9194782309
20
61.9288823928
10
48.9100906318
20
61.8796862883
10
48.9008455648
20
61.8308688687
10
48.8917617731
20
61.7825328629
10
48.882858
20
61.734781
10
48.8702981048
20
61.6592115412
10
48.8579191693
20
61.5873080952
10
48.8456902863
20
61.5189900903
10
48.8335805488
20
61.4541769543
10
48.8215590496
20
61.3927881156
10
48.8095948817
20
61.334743002
10
48.7976571378
20
61.2799610418
10
48.7857149109
20
61.2283616629
10
48.7737372938
20
61.1798642935
10
48.7616933795
20
61.1343883616
10
48.7495522608
20
61.0918532954
10
48.7372830305
20
61.0521785229
10
48.7248547817
20
61.0152834722
10
48.712236607
20
60.9810875713
10
48.6993975995
20
60.9495102484
10
48.6863068521
20
60.9204709316
10
48.6729334575
20
60.8938890489
10
48.6592465087
20
60.8696840284
10
48.6452150985
20
60.8477752981
10
48.6308083199
20
60.8280822863
10
48.6159952657
20
60.8105244209
10
48.6007450288
20
60.79502113
10
48.585026702
20
60.7814918418
10
48.5688093783
20
60.7698559843
10
48.5520621506
20
60.7600329855
10
48.5347541116
20
60.7519422736
10
48.5168543544
20
60.7455032767
10
48.4983319717
20
60.7406354227
10
48.4791560565
20
60.7372581399
10
48.4592957016
20
60.7352908563
10
48.43872
20
60.734653
10
48.4104096199
20
60.7325111413
10
48.3833890756
20
60.7262601365
10
48.3576951646
20
60.7161618428
10
48.3333646841
20
60.7024781171
10
48.3104344315
20
60.6854708166
10
48.2889412043
20
60.6654017984
10
48.2689217996
20
60.6425329194
10
48.2504130149
20
60.6171260368
10
48.2334516476
20
60.5894430077
10
48.218074495
20
60.5597456891
10
48.2043183544
20
60.528295938
10
48.1922200232
20
60.4953556117
10
48.1818162988
20
60.461186567
10
48.1731439785
20
60.4260506612
10
48.1662398597
20
60.3902097512
10
48.1611407397
20
60.3539256942
10
48.1578834159
20
60.3174603472
10
48.1565046856
20
60.2810755672
10
48.1570413462
20
60.2450332114
10
48.159530195
20
60.2095951369
10
48.1640080295
20
60.1750232006
10
48.1705116469
20
60.1415792597
10
48.1790778446
20
60.1095251713
10
48.18974342
20
60.0791227924
10
48.2025451703
20
60.05063398
10
48.2175198931
20
60.0243205913
10
48.2347043856
20
60.0004444833
10
48.2541354452
20
59.9792675131
10
48.2758498692
20
59.9610515378
10
48.299884455
20
59.9460584144
10
48.326276
20
59.93455
10
48.3359199691
20
59.9298251931
10
48.3447484834
20
59.9224465545
10
48.3527631308
20
59.9124453055
10
48.3599654991
20
59.8998526672
10
48.3663571762
20
59.8846998612
10
48.3719397499
20
59.8670181086
10
48.3767148082
20
59.8468386308
10
48.3806839388
20
59.8241926491
10
48.3838487296
20
59.7991113848
10
48.3862107686
20
59.7716260592
10
48.3877716435
20
59.7417678936
10
48.3885329422
20
59.7095681094
10
48.3884962526
20
59.6750579277
10
48.3876631625
20
59.63826857
10
48.3860352598
20
59.5992312576
10
48.3836141325
20
59.5579772117
10
48.3804013682
20
59.5145376537
10
48.3763985549
20
59.4689438048
10
48.3716072805
20
59.4212268865
10
48.3660291328
20
59.3714181199
10
48.3596656997
20
59.3195487264
10
48.352518569
20
59.2656499274
10
48.3445893287
20
59.209752944
10
48.3358795665
20
59.1518889977
10
48.3263908703
20
59.0920893097
10
48.316124828
20
59.0303851013
10
48.3050830274
20
58.9668075939
10
48.2932670565
20
58.9013880088
10
48.280678503
20
58.8341575672
10
48.2673189549
20
58.7651474905
10
48.25319
20
58.694389
10
48.2288345457
20
58.5674421211
10
48.2055977915
20
58.4477990618
10
48.18339815
20
58.335270478
10
48.1621540342
20
58.2296670258
10
48.1417838569
20
58.1307993615
10
48.1222060308
20
58.0384781411
10
48.1033389687
20
57.9525140206
10
48.0851010835
20
57.8727176563
10
48.067410788
20
57.7988997042
10
48.0501864949
20
57.7308708203
10
48.0333466172
20
57.6684416609
10
48.0168095675
20
57.611422882
10
48.0004937588
20
57.5596251398
10
47.9843176038
20
57.5128590902
10
47.9681995153
20
57.4709353895
10
47.9520579062
20
57.4336646937
10
47.9358111892
20
57.400857659
10
47.9193777771
20
57.3723249414
10
47.9026760828
20
57.347877197
10
47.8856245191
20
57.327325082
10
47.8681414988
20
57.3104792525
10
47.8501454347
20
57.2971503645
10
47.8315547396
20
57.2871490742
10
47.8122878263
20
57.2802860376
10
47.7922631077
20
57.2763719109
10
47.7713989964
20
57.2752173502
10
47.7496139054
20
57.2766330116
10
47.7268262475
20
57.2804295512
10
47.7029544354
20
57.286417625
10
47.6779168819
20
57.2944078893
10
47.651632
20
57.304211
10
47.6408123037
20
57.3079297528
10
47.6296043988
20
57.3109567603
10
47.6180355124
20
57.3132934362
10
47.6061328718
20
57.3149411945
10
47.5939237044
20
57.315901449
10
47.5814352374
20
57.3161756135
10
47.568694698
20
57.3157651019
10
47.5557293137
20
57.314671328
10
47.5425663116
20
57.3128957058
10
47.5292329191
20
57.3104396489
10
47.5157563634
20
57.3073045714
10
47.5021638718
20
57.303491887
10
47.4884826716
20
57.2990030096
10
47.4747399901
20
57.293839353
10
47.4609630545
20
57.2880023311
10
47.4471790922
20
57.2814933578
10
47.4334153304
20
57.2743138468
10
47.4196989965
20
57.2664652121
10
47.4060573176
20
57.2579488674
10
47.3925175211
20
57.2487662267
10
47.3791068343
20
57.2389187038
10
47.3658524844
20
57.2284077126
10
47.3527816988
20
57.2172346668
10
47.3399217047
20
57.2054009803
10
47.3272997294
20
57.1929080671
10
47.3149430001
20
57.1797573408
10
47.3028787442
20
57.1659502155
10
47.291134189
20
57.1514881049
10
47.2797365617
20
57.1363724229
10
47.2687130896
20
57.1206045833
10
47.258091
20
57.104186
10
47.2286842073
20
57.0670291914
10
47.1999641567
20
57.0329743699
10
47.1719713072
20
57.0020013936
10
47.144746118
20
56.9740901206
10
47.1183290481
20
56.9492204089
10
47.0927605565
20
56.9273721166
10
47.0680811024
20
56.9085251018
10
47.0443311447
20
56.8926592227
10
47.0215511427
20
56.8797543371
10
46.9997815552
20
56.8697903033
10
46.9790628414
20
56.8627469793
10
46.9594354604
20
56.8586042232
10
46.9409398712
20
56.8573418931
10
46.9236165329
20
56.858939847
10
46.9075059045
20
56.863377943
10
46.8926484451
20
56.8706360393
10
46.8790846138
20
56.8806939938
10
46.8668548697
20
56.8935316647
10
46.8559996717
20
56.90912891
10
46.8465594791
20
56.9274655878
10
46.8385747507
20
56.9485215562
10
46.8320859458
20
56.9722766733
10
46.8271335233
20
56.9987107971
10
46.8237579424
20
57.0278037858
10
46.821999662
20
57.0595354973
10
46.8218991413
20
57.0938857899
10
46.8234968393
20
57.1308345215
10
46.8268332152
20
57.1703615502
10
46.8319487278
20
57.2124467341
10
46.8388838364
20
57.2570699314
10
46.847679
20
57.304211
10
46.852836596
20
57.3261618439
10
46.8585960072
20
57.3531826439
10
46.8649332009
20
57.3850981573
10
46.8718241441
20
57.4217331415
10
46.8792448041
20
57.4629123538
10
46.887171148
20
57.5084605515
10
46.8955791431
20
57.5582024921
10
46.9044447564
20
57.6119629329
10
46.9137439551
20
57.6695666311
10
46.9234527065
20
57.7308383442
10
46.9335469776
20
57.7956028294
10
46.9440027358
20
57.8636848442
10
46.954795948
20
57.9349091458
10
46.9659025815
20
58.0091004917
10
46.9772986036
20
58.0860836391
10
46.9889599812
20
58.1656833453
10
47.0008626817
20
58.2477243679
10
47.0129826722
20
58.332031464
10
47.0252959198
20
58.418429391
10
47.0377783918
20
58.5067429063
10
47.0504060552
20
58.5967967672
10
47.0631548774
20
58.688415731
10
47.0760008253
20
58.7814245552
10
47.0889198663
20
58.8756479969
10
47.1018879675
20
58.9709108137
10
47.114881096
20
59.0670377628
10
47.1278752191
20
59.1638536015
10
47.1408463038
20
59.2611830873
10
47.1537703174
20
59.3588509774
10
47.1666232271
20
59.4566820292
10
47.179381
20
59.554501
10
47.1922143463
20
59.6525700837
10
47.2052878974
20
59.7511528162
10
47.2185745991
20
59.8500759681
10
47.2320473971
20
59.9491663099
10
47.245679237
20
60.0482506123
10
47.2594430647
20
60.1471556458
10
47.2733118258
20
60.2457081809
10
47.2872584661
20
60.3437349883
10
47.3012559312
20
60.4410628384
10
47.315277167
20
60.5375185019
10
47.329295119
20
60.6329287494
10
47.3432827331
20
60.7271203513
10
47.357212955
20
60.8199200784
10
47.3710587304
20
60.9111547011
10
47.384793005
20
61.0006509899
10
47.3983887245
20
61.0882357156
10
47.4118188346
20
61.1737356486
10
47.4250562812
20
61.2569775595
10
47.4380740098
20
61.3377882189
10
47.4508449663
20
61.4159943973
10
47.4633420963
20
61.4914228654
10
47.4755383456
20
61.5639003936
10
47.4874066598
20
61.6332537526
10
47.4989199848
20
61.699309713
10
47.5100512662
20
61.7618950452
10
47.5207734497
20
61.8208365199
10
47.5310594811
20
61.8759609076
10
47.5408823062
20
61.9270949789
10
47.5502148705
20
61.9740655043
10
47.5590301199
20
62.0166992545
10
47.567301
20
62.054823
10
47.5754614276
20
62.0982355228
10
47.583948527
20
62.1508533721
10
47.5927397651
20
62.2123905174
10
47.6018126086
20
62.2825609281
10
47.6111445244
20
62.3610785738
10
47.6207129793
20
62.4476574241
10
47.63049544
20
62.5420114484
10
47.6404693735
20
62.6438546163
10
47.6506122466
20
62.7529008972
10
47.660901526
20
62.8688642608
10
47.6713146786
20
62.9914586765
10
47.6818291712
20
63.1203981138
10
47.6924224706
20
63.2553965423
10
47.7030720437
20
63.3961679316
10
47.7137553572
20
63.542426251
10
47.724449878
20
63.6938854701
10
47.7351330729
20
63.8502595586
10
47.7457824087
20
64.0112624858
10
47.7563753522
20
64.1766082212
10
47.7668893703
20
64.3460107346
10
47.7773019298
20
64.5191839952
10
47.7875904974
20
64.6958419727
10
47.7977325401
20
64.8756986366
10
47.8077055246
20
65.0584679564
10
47.8174869177
20
65.2438639016
10
47.8270541863
20
65.4316004418
10
47.8363847972
20
65.6213915464
10
47.8454562172
20
65.812951185
10
47.8542459131
20
66.0059933271
10
47.8627313518
20
66.2002319423
10
47.87089
20
66.395381
10
47.8904975191
20
66.8525272124
10
47.9116180608
20
67.300375461
10
47.9342000216
20
67.7385571306
10
47.9581917977
20
68.1667036059
10
47.9835417854
20
68.5844462717
10
48.0101983811
20
68.9914165129
10
48.0381099809
20
69.3872457141
10
48.0672249812
20
69.7715652602
10
48.0974917783
20
70.144006536
10
48.1288587684
20
70.5042009262
10
48.161274348
20
70.8517798155
10
48.1946869132
20
71.1863745889
10
48.2290448603
20
71.5076166311
10
48.2642965858
20
71.8151373268
10
48.3003904857
20
72.1085680609
10
48.3372749565
20
72.387540218
10
48.3748983945
20
72.6516851831
10
48.4132091959
20
72.9006343408
10
48.452155757
20
73.134019076
10
48.4916864741
20
73.3514707734
10
48.5317497436
20
73.5526208179
10
48.5722939616
20
73.7371005941
10
48.6132675245
20
73.9045414869
10
48.6546188287
20
74.0545748811
10
48.6962962704
20
74.1868321614
10
48.7382482458
20
74.3009447127
10
48.7804231513
20
74.3965439196
10
48.8227693832
20
74.473261167
10
48.8652353377
20
74.5307278397
10
48.9077694112
20
74.5685753224
10
48.95032
20
74.586435
10
48.950277
20
74.564425
10
48.9531198003
20
74.5648646557
10
48.9559752752
20
74.5652167162
10
48.95884252
20
74.5654809827
10
48.9617206297
20
74.5656572563
10
48.9646086993
20
74.5657453384
10
48.9675058241
20
74.56574503
10
48.970411099
20
74.5656561325
10
48.9733236192
20
74.565478447
10
48.9762424797
20
74.5652117748
10
48.9791667758
20
74.5648559171
10
48.9820956024
20
74.564410675
10
48.9850280546
20
74.5638758499
10
48.9879632276
20
74.5632512428
10
48.9909002165
20
74.5625366551
10
48.9938381163
20
74.561731888
10
48.9967760221
20
74.5608367426
10
48.9997130291
20
74.5598510202
10
49.0026482323
20
74.558774522
10
49.0055807269
20
74.5576070492
10
49.0085096078
20
74.556348403
10
49.0114339703
20
74.5549983847
10
49.0143529094
20
74.5535567954
10
49.0172655203
20
74.5520234364
10
49.0201708979
20
74.5503981089
10
49.0230681374
20
74.5486806141
10
49.025956334
20
74.5468707532
10
49.0288345826
20
74.5449683274
10
49.0317019784
20
74.542973138
10
49.0345576165
20
74.5408849862
10
49.037400592
20
74.5387036731
10
49.04023
20
74.536429
10
49.0506830672
20
74.5275661895
10
49.0609937301
20
74.5185964157
10
49.0711484065
20
74.5095251173
10
49.0811335142
20
74.5003577327
10
49.090935471
20
74.4910997004
10
49.1005406945
20
74.4817564588
10
49.1099356027
20
74.4723334465
10
49.1191066132
20
74.462836102
10
49.1280401439
20
74.4532698637
10
49.1367226125
20
74.4436401702
10
49.1451404369
20
74.4339524598
10
49.1532800347
20
74.4242121712
10
49.1611278238
20
74.4144247427
10
49.168670222
20
74.4045956129
10
49.1758936469
20
74.3947302203
10
49.1827845165
20
74.3848340034
10
49.1893292484
20
74.3749124006
10
49.1955142605
20
74.3649708504
10
49.2013259705
20
74.3550147914
10
49.2067507962
20
74.3450496619
10
49.2117751554
20
74.3350809006
10
49.2163854659
20
74.3251139459
10
49.2205681454
20
74.3151542362
10
49.2243096117
20
74.3052072101
10
49.2275962826
20
74.295278306
10
49.2304145759
20
74.2853729625
10
49.2327509093
20
74.275496618
10
49.2345917007
20
74.265654711
10
49.2359233677
20
74.25585268
10
49.2367323282
20
74.2460959635
10
49.237005
20
74.23639
10
49.2373020739
20
74.2277285157
10
49.2381833267
20
74.217664696
10
49.2396338054
20
74.2062698455
10
49.2416385567
20
74.1936152687
10
49.2441826275
20
74.1797722701
10
49.2472510645
20
74.1648121544
10
49.2508289147
20
74.148806226
10
49.2549012248
20
74.1318257896
10
49.2594530416
20
74.1139421496
10
49.2644694121
20
74.0952266107
10
49.2699353829
20
74.0757504774
10
49.275836001
20
74.0555850542
10
49.2821563132
20
74.0348016457
10
49.2888813663
20
74.0134715565
10
49.2959962071
20
73.9916660911
10
49.3034858824
20
73.9694565541
10
49.3113354391
20
73.9469142499
10
49.319529924
20
73.9241104833
10
49.328054384
20
73.9011165587
10
49.3368938658
20
73.8780037807
10
49.3460334162
20
73.8548434538
10
49.3554580822
20
73.8317068826
10
49.3651529105
20
73.8086653717
10
49.375102948
20
73.7857902256
10
49.3852932414
20
73.7631527488
10
49.3957088377
20
73.740824246
10
49.4063347836
20
73.7188760216
10
49.4171561259
20
73.6973793803
10
49.4281579116
20
73.6764056265
10
49.4393251873
20
73.6560260649
10
49.450643
20
73.636312
10
49.4821951904
20
73.563777845
10
49.5158913161
20
73.4821491634
10
49.5515158701
20
73.3921349854
10
49.5888533454
20
73.2944443413
10
49.6276882351
20
73.1897862612
10
49.6678050323
20
73.0788697752
10
49.7089882299
20
72.9624039136
10
49.751022321
20
72.8410977066
10
49.7936917986
20
72.7156601842
10
49.8367811558
20
72.5868003767
10
49.8800748856
20
72.4552273143
10
49.923357481
20
72.3216500271
10
49.9664134351
20
72.1867775453
10
50.0090272409
20
72.0513188991
10
50.0509833914
20
71.9159831186
10
50.0920663797
20
71.7814792341
10
50.1320606988
20
71.6485162758
10
50.1707508417
20
71.5178032737
10
50.2079213015
20
71.3900492581
10
50.2433565712
20
71.2659632591
10
50.2768411439
20
71.146254307
10
50.3081595125
20
71.0316314318
10
50.3370961702
20
70.9228036639
10
50.3634356098
20
70.8204800333
10
50.3869623246
20
70.7253695702
10
50.4074608075
20
70.6381813049
10
50.4247155516
20
70.5596242674
10
50.4385110498
20
70.490407488
10
50.4486317953
20
70.4312399969
10
50.454862281
20
70.3828308241
10
50.456987
20
70.345889
10
50.4573000173
20
70.3262262378
10
50.4582285413
20
70.3059793248
10
50.4597567798
20
70.2851885473
10
50.461868941
20
70.2638941915
10
50.4645492327
20
70.2421365437
10
50.467781863
20
70.2199558902
10
50.4715510398
20
70.1973925172
10
50.4758409712
20
70.174486711
10
50.4806358651
20
70.1512787578
10
50.4859199294
20
70.1278089439
10
50.4916773722
20
70.1041175556
10
50.4978924015
20
70.0802448792
10
50.5045492252
20
70.0562312008
10
50.5116320513
20
70.0321168067
10
50.5191250878
20
70.0079419833
10
50.5270125427
20
69.9837470167
10
50.535278624
20
69.9595721933
10
50.5439075396
20
69.9354577992
10
50.5528834976
20
69.9114441208
10
50.5621907058
20
69.8875714444
10
50.5718133724
20
69.8638800561
10
50.5817357052
20
69.8404102422
10
50.5919419123
20
69.817202289
10
50.6024162016
20
69.7942964828
10
50.6131427811
20
69.7717331098
10
50.6241058588
20
69.7495524563
10
50.6352896428
20
69.7277948085
10
50.6466783409
20
69.7065004527
10
50.6582561611
20
69.6857096752
10
50.6700073115
20
69.6654627622
10
50.681916
20
69.6458
10
50.7030735464
20
69.6054277791
10
50.7226088517
20
69.5618548717
10
50.7405275606
20
69.5152524913
10
50.7568353175
20
69.4657918516
10
50.771537767
20
69.4136441662
10
50.7846405535
20
69.3589806486
10
50.7961493217
20
69.3019725124
10
50.806069716
20
69.2427909712
10
50.8144073809
20
69.1816072387
10
50.821167961
20
69.1185925283
10
50.8263571008
20
69.0539180537
10
50.8299804448
20
68.9877550284
10
50.8320436376
20
68.9202746661
10
50.8325523237
20
68.8516481804
10
50.8315121475
20
68.7820467848
10
50.8289287537
20
68.7116416929
10
50.8248077866
20
68.6406041183
10
50.819154891
20
68.5691052745
10
50.8119757113
20
68.4973163753
10
50.8032758919
20
68.4254086342
10
50.7930610775
20
68.3535532646
10
50.7813369126
20
68.2819214804
10
50.7681090416
20
68.2106844949
10
50.7533831091
20
68.1400135219
10
50.7371647597
20
68.0700797749
10
50.7194596378
20
68.0010544675
10
50.700273388
20
67.9331088133
10
50.6796116548
20
67.8664140258
10
50.6574800827
20
67.8011413188
10
50.6338843163
20
67.7374619056
10
50.60883
20
67.675547
10
50.5818939116
20
67.6141866127
10
50.5537174407
20
67.5465839513
10
50.5244445689
20
67.4732405733
10
50.494219278
20
67.394658036
10
50.4631855495
20
67.3113378967
10
50.4314873652
20
67.223781713
10
50.3992687067
20
67.1324910422
10
50.3666735557
20
67.0379674416
10
50.3338458939
20
66.9407124687
10
50.3009297029
20
66.8412276807
10
50.2680689645
20
66.7400146352
10
50.2354076602
20
66.6375748895
10
50.2030897718
20
66.5344100009
10
50.171259281
20
66.4310215269
10
50.1400601693
20
66.3279110249
0
LWPOLYLINE
5
5A
100
AcDbEntity
8
Engraving
6
ByLayer
62
256
370
-1
100
AcDbPolyline
90
782
70
1
43
0
10
57.5891410718
20
40.7952286915
10
57.6065352461
20
40.9142641657
10
57.624664434
20
41.0319399885
10
57.6434313252
20
41.147676045
10
57.6627386093
20
41.2608922203
10
57.682488976
20
41.3710083996
10
57.702585115
20
41.477444468
10
57.722929716
20
41.5796203106
10
57.7434254685
20
41.6769558126
10
57.7639750624
20
41.768870859
10
57.7844811872
20
41.8547853351
10
57.8048465327
20
41.9341191259
10
57.8249737885
20
42.0062921167
10
57.8447656443
20
42.0707241924
10
57.8641247897
20
42.1268352384
10
57.8829539144
20
42.1740451396
10
57.9011557081
20
42.2117737812
10
57.9186328605
20
42.2394410484
10
57.9352880613
20
42.2564668263
10
57.951024
20
42.262271
10
57.951154
20
42.372284
10
57.9568293683
20
42.3710485731
10
57.9629266779
20
42.3673960064
10
57.9694269295
20
42.3614068709
10
57.9763111237
20
42.3531617373
10
57.9835602611
20
42.3427411767
10
57.9911553424
20
42.3302257599
10
57.9990773682
20
42.3156960578
10
58.0073073392
20
42.2992326414
10
58.0158262559
20
42.2809160816
10
58.0246151191
20
42.2608269492
10
58.0336549294
20
42.2390458152
10
58.0429266873
20
42.2156532506
10
58.0524113936
20
42.1907298261
10
58.0620900489
20
42.1643561128
10
58.0719436538
20
42.1366126815
10
58.0819532089
20
42.1075801031
10
58.0920997149
20
42.0773389486
10
58.1023641725
20
42.0459697889
10
58.1127275822
20
42.0135531948
10
58.1231709447
20
41.9801697373
10
58.1336752607
20
41.9458999873
10
58.1442215307
20
41.9108245157
10
58.1547907555
20
41.8750238935
10
58.1653639356
20
41.8385786914
10
58.1759220717
20
41.8015694805
10
58.1864461645
20
41.7640768317
10
58.1969172145
20
41.7261813158
10
58.2073162224
20
41.6879635037
10
58.2176241889
20
41.6495039665
10
58.2278221145
20
41.6108832749
10
58.237891
20
41.572182
10
58.247981582
20
41.5331720511
10
58.2582621557
20
41.4936383796
10
58.2687110268
20
41.4536816999
10
58.2793065012
20
41.4134027265
10
58.2900268848
20
41.3729021739
10
58.3008504835
20
41.3322807564
10
58.3117556032
20
41.2916391885
10
58.3227205496
20
41.2510781848
10
58.3337236287
20
41.2106984595
10
58.3447431463
20
41.1706007271
10
58.3557574083
20
41.1308857022
10
58.3667447205
20
41.0916540991
10
58.3776833889
20
41.0530066323
10
58.3885517192
20
41.0150440162
10
58.3993280174
20
40.9778669653
10
58.4099905893
20
40.941576194
10
58.4205177407
20
40.9062724167
10
58.4308877776
20
40.872056348
10
58.4410790058
20
40.8390287022
10
58.4510697312
20
40.8072901937
10
58.4608382595
20
40.7769415372
10
58.4703628968
20
40.7480834469
10
58.4796219488
20
40.7208166373
10
58.4885937215
20
40.6952418229
10
58.4972565206
20
40.6714597181
10
58.5055886521
20
40.6495710374
10
58.5135684218
20
40.6296764951
10
58.5211741356
20
40.6118768058
10
58.5283840993
20
40.5962726839
10
58.5351766188
20
40.5829648438
10
58.54153
20
40.572054
10
58.5477552498
20
40.5632078052
10
58.5541848624
20
40.5529629099
10
58.5608035355
20
40.5413692672
10
58.5675959669
20
40.52847683
10
58.5745468544
20
40.5143355513
10
58.5816408958
20
40.4989953842
10
58.588862789
20
40.4825062816
10
58.5961972316
20
40.4649181966
10
58.6036289215
20
40.4462810821
10
58.6111425565
20
40.4266448912
10
58.6187228343
20
40.4060595769
10
58.6263544529
20
40.3845750921
10
58.6340221099
20
40.36224139
10
58.6417105032
20
40.3391084234
10
58.6494043305
20
40.3152261454
10
58.6570882897
20
40.2906445091
10
58.6647470785
20
40.2654134673
10
58.6723653948
20
40.2395829732
10
58.6799279363
20
40.2132029797
10
58.6874194008
20
40.1863234398
10
58.6948244862
20
40.1589943065
10
58.7021278902
20
40.1312655329
10
58.7093143106
20
40.1031870719
10
58.7163684452
20
40.0748088766
10
58.7232749918
20
40.0461808999
10
58.7300186482
20
40.0173530949
10
58.7365841122
20
39.9883754146
10
58.7429560816
20
39.9592978119
10
58.7491192541
20
39.9301702399
10
58.7550583277
20
39.9010426516
10
58.760758
20
39.871965
10
58.7948655341
20
39.7035127748
10
58.8293436528
20
39.5444793857
10
58.8645741788
20
39.3946049882
10
58.900938935
20
39.2536297379
10
58.9388197443
20
39.1212937904
10
58.9785984295
20
38.9973373012
10
59.0206568133
20
38.8815004258
10
59.0653767187
20
38.7735233198
10
59.1131399684
20
38.6731461387
10
59.1643283854
20
38.5801090381
10
59.2193237923
20
38.4941521736
10
59.2785080122
20
38.4150157007
10
59.3422628677
20
38.3424397749
10
59.4109701817
20
38.2761645518
10
59.4850117771
20
38.215930187
10
59.5647694768
20
38.1614768359
10
59.6506251034
20
38.1125446542
10
59.7429604799
20
38.0688737974
10
59.8421574291
20
38.0302044211
10
59.9485977738
20
37.9962766807
10
60.0626633368
20
37.9668307319
10
60.1847359411
20
37.9416067302
10
60.3151974093
20
37.9203448311
10
60.4544295644
20
37.9027851903
10
60.6028142292
20
37.8886679631
10
60.7607332265
20
37.8777333053
10
60.9285683792
20
37.8697213724
10
61.1067015101
20
37.8643723198
10
61.2955144419
20
37.8614263032
10
61.4953889976
20
37.8606234781
10
61.706707
20
37.861704
10
61.8582525332
20
37.8625807291
10
62.0012107764
20
37.8625620015
10
62.1359239693
20
37.8614518317
10
62.2627343515
20
37.8590542345
10
62.3819841627
20
37.8551732244
10
62.4940156427
20
37.8496128162
10
62.599171031
20
37.8421770243
10
62.6977925673
20
37.8326698635
10
62.7902224914
20
37.8208953484
10
62.8768030428
20
37.8066574937
10
62.9578764612
20
37.7897603139
10
63.0337849864
20
37.7700078237
10
63.1048708579
20
37.7472040378
10
63.1714763155
20
37.7211529707
10
63.2339435988
20
37.6916586371
10
63.2926149475
20
37.6585250517
10
63.3478326013
20
37.6215562291
10
63.3999387997
20
37.5805561839
10
63.4492757826
20
37.5353289307
10
63.4961857896
20
37.4856784842
10
63.5410110603
20
37.4314088591
10
63.5840938343
20
37.3723240699
10
63.6257763515
20
37.3082281313
10
63.6664008514
20
37.2389250579
10
63.7063095738
20
37.1642188644
10
63.7458447582
20
37.0839135654
10
63.7853486444
20
36.9978131755
10
63.825163472
20
36.9057217094
10
63.8656314806
20
36.8074431817
10
63.9070949101
20
36.702781607
10
63.949896
20
36.591541
10
64.202928
20
35.891452
10
63.623854
20
35.391388
10
63.5664170403
20
35.3348736523
10
63.5110126495
20
35.2814613098
10
63.4575940436
20
35.23113083
10
63.4061144387
20
35.1838620704
10
63.3565270508
20
35.1396348885
10
63.308785096
20
35.0984291417
10
63.2628417904
20
35.0602246875
10
63.21865035
20
35.0250013834
10
63.176163991
20
34.9927390868
10
63.1353359294
20
34.9634176553
10
63.0961193813
20
34.9370169462
10
63.0584675628
20
34.9135168172
10
63.0223336898
20
34.8928971255
10
62.9876709786
20
34.8751377288
10
62.9544326451
20
34.8602184845
10
62.9225719054
20
34.8481192501
10
62.8920419757
20
34.838819883
10
62.8627960719
20
34.8323002407
10
62.8347874102
20
34.8285401808
10
62.8079692066
20
34.8275195605
10
62.7822946772
20
34.8292182376
10
62.7577170381
20
34.8336160693
10
62.7341895053
20
34.8406929132
10
62.711665295
20
34.8504286268
10
62.6900976231
20
34.8628030675
10
62.6694397058
20
34.8777960928
10
62.6496447591
20
34.8953875602
10
62.6306659991
20
34.9155573271
10
62.6124566418
20
34.9382852511
10
62.5949699035
20
34.9635511896
10
62.578159
20
34.991335
10
62.5583425165
20
35.0175946652
10
62.5366877501
20
35.0384358827
10
62.5133826947
20
35.054060082
10
62.4886153441
20
35.0646686926
10
62.4625736924
20
35.0704631439
10
62.4354457332
20
35.0716448655
10
62.4074194607
20
35.0684152868
10
62.3786828686
20
35.0609758373
10
62.3494239508
20
35.0495279466
10
62.3198307012
20
35.034273044
10
62.2900911137
20
35.0154125592
10
62.2603931823
20
34.9931479216
10
62.2309249007
20
34.9676805607
10
62.2018742629
20
34.939211906
10
62.1734292628
20
34.9079433869
10
62.1457778943
20
34.8740764331
10
62.1191081512
20
34.8378124738
10
62.0936080275
20
34.7993529388
10
62.069465517
20
34.7588992574
10
62.0468686136
20
34.7166528591
10
62.0260053113
20
34.6728151734
10
62.0070636039
20
34.6275876299
10
61.9902314852
20
34.581171658
10
61.9756969493
20
34.5337686872
10
61.96364799
20
34.485580147
10
61.9542726011
20
34.4368074669
10
61.9477587766
20
34.3876520764
10
61.9442945103
20
34.338315405
10
61.9440677962
20
34.2889988821
10
61.9472666281
20
34.2399039373
10
61.954079
20
34.191232
10
61.9598478223
20
34.1621775126
10
61.9642550953
20
34.1330122567
10
61.9672355445
20
34.103625445
10
61.9687238953
20
34.0739062905
10
61.9686548733
20
34.0437440058
10
61.9669632038
20
34.0130278038
10
61.9635836123
20
33.9816468972
10
61.9584508242
20
33.9494904987
10
61.9514995651
20
33.9164478213
10
61.9426645604
20
33.8824080777
10
61.9318805355
20
33.8472604806
10
61.9190822159
20
33.8108942428
10
61.904204327
20
33.7731985772
10
61.8871815943
20
33.7340626965
10
61.8679487432
20
33.6933758134
10
61.8464404992
20
33.6510271408
10
61.8225915878
20
33.6069058915
10
61.7963367344
20
33.5609012782
10
61.7676106645
20
33.5129025137
10
61.7363481034
20
33.4627988108
10
61.7024837767
20
33.4104793823
10
61.6659524099
20
33.3558334409
10
61.6266887283
20
33.2987501995
10
61.5846274575
20
33.2391188708
10
61.5397033228
20
33.1768286676
10
61.4918510497
20
33.1117688027
10
61.4410053638
20
33.0438284889
10
61.3871009904
20
32.9728969389
10
61.330072655
20
32.8988633656
10
61.269855083
20
32.8216169817
10
61.206383
20
32.741047
10
61.1623720223
20
32.6832986619
10
61.1189380399
20
32.6262432401
10
61.0761397693
20
32.5699492202
10
61.034035927
20
32.5144850876
10
60.9926852294
20
32.4599193279
10
60.9521463929
20
32.4063204265
10
60.9124781341
20
32.3537568691
10
60.8737391693
20
32.302297141
10
60.8359882151
20
32.2520097279
10
60.7992839879
20
32.2029631153
10
60.7636852041
20
32.1552257886
10
60.7292505803
20
32.1088662333
10
60.6960388328
20
32.0639529351
10
60.6641086782
20
32.0205543793
10
60.6335188328
20
31.9787390516
10
60.6043280132
20
31.9385754374
10
60.5765949358
20
31.9001320223
10
60.550378317
20
31.8634772918
10
60.5257368734
20
31.8286797313
10
60.5027293214
20
31.7958078264
10
60.4814143774
20
31.7649300627
10
60.4618507578
20
31.7361149255
10
60.4440971793
20
31.7094309006
10
60.4282123581
20
31.6849464733
10
60.4142550108
20
31.6627301291
10
60.4022838539
20
31.6428503537
10
60.3923576037
20
31.6253756325
10
60.3845349768
20
31.610374451
10
60.3788746895
20
31.5979152947
10
60.3754354585
20
31.5880666492
10
60.374276
20
31.580897
10
60.3740036462
20
31.5743001557
10
60.3732981064
20
31.5672992548
10
60.3721710498
20
31.5599148424
10
60.3706341457
20
31.5521674633
10
60.3686990635
20
31.5440776624
10
60.3663774724
20
31.5356659848
10
60.3636810417
20
31.5269529753
10
60.3606214407
20
31.5179591788
10
60.3572103387
20
31.5087051403
10
60.3534594051
20
31.4992114047
10
60.349380309
20
31.4894985169
10
60.3449847198
20
31.479587022
10
60.3402843068
20
31.4694974647
10
60.3352907394
20
31.45925039
10
60.3300156867
20
31.4488663429
10
60.324470818
20
31.4383658683
10
60.3186678028
20
31.4277695111
10
60.3126183102
20
31.4170978163
10
60.3063340096
20
31.4063713287
10
60.2998265703
20
31.3956105934
10
60.2931076615
20
31.3848361551
10
60.2861889526
20
31.374068559
10
60.2790821129
20
31.3633283498
10
60.2717988116
20
31.3526360726
10
60.264350718
20
31.3420122722
10
60.2567495015
20
31.3314774936
10
60.2490068314
20
31.3210522818
10
60.2411343768
20
31.3107571815
10
60.2331438072
20
31.3006127379
10
60.2250467918
20
31.2906394957
10
60.216855
20
31.280858
10
60.2013067538
20
31.2608336783
10
60.1849706994
20
31.2393046857
10
60.167665347
20
31.2160152066
10
60.1492092068
20
31.1907094253
10
60.1294207892
20
31.1631315264
10
60.1081186042
20
31.1330256942
10
60.0851211621
20
31.1001361132
10
60.0602469731
20
31.0642069677
10
60.0333145475
20
31.0249824422
10
60.0041423955
20
30.9822067211
10
59.9725490273
20
30.9356239888
10
59.9383529531
20
30.8849784298
10
59.9013726831
20
30.8300142284
10
59.8614267276
20
30.7704755691
10
59.8183335967
20
30.7061066363
10
59.7719118008
20
30.6366516144
10
59.72197985
20
30.5618546879
10
59.6683562545
20
30.4814600411
10
59.6108595246
20
30.3952118584
10
59.5493081704
20
30.3028543244
10
59.4835207023
20
30.2041316233
10
59.4133156304
20
30.0987879397
10
59.3385114649
20
29.9865674579
10
59.2589267162
20
29.8672143624
10
59.1743798943
20
29.7404728375
10
59.0846895095
20
29.6060870678
10
58.989674072
20
29.4638012375
10
58.8891520921
20
29.3133595312
10
58.78294208
20
29.1545061332
10
58.6708625459
20
28.986985228
10
58.552732
20
28.810541
10
58.4584833879
20
28.667129566
10
58.3701147492
20
28.5326434529
10
58.2872638159
20
28.4064542023
10
58.20956832
20
28.2879333557
10
58.1366659935
20
28.1764524546
10
58.0681945684
20
28.0713830407
10
58.0037917768
20
27.9720966554
10
57.9430953505
20
27.8779648402
10
57.8857430217
20
27.7883591368
10
57.8313725223
20
27.7026510866
10
57.7796215843
20
27.6202122312
10
57.7301279397
20
27.5404141121
10
57.6825293205
20
27.462628271
10
57.6364634588
20
27.3862262492
10
57.5915680864
20
27.3105795883
10
57.5474809355
20
27.23505983
10
57.5038397379
20
27.1590385157
10
57.4602822258
20
27.0818871869
10
57.416446131
20
27.0029773853
10
57.3719691857
20
26.9216806522
10
57.3264891218
20
26.8373685294
10
57.2796436713
20
26.7494125583
10
57.2310705662
20
26.6571842805
10
57.1804075385
20
26.5600552375
10
57.1272923202
20
26.4573969708
10
57.0713626433
20
26.348581022
10
57.0122562399
20
26.2329789326
10
56.9496108418
20
26.1099622441
10
56.8830641811
20
25.9789024982
10
56.8122539899
20
25.8391712363
10
56.736818
20
25.69014
10
56.6969886993
20
25.6111835137
10
56.6554858296
20
25.5293083282
10
56.612417004
20
25.4447178858
10
56.5678898357
20
25.3576156289
10
56.5220119376
20
25.2682049997
10
56.474890923
20
25.1766894405
10
56.4266344049
20
25.0832723937
10
56.3773499964
20
24.9881573016
10
56.3271453106
20
24.8915476065
10
56.2761279607
20
24.7936467507
10
56.2244055598
20
24.6946581765
10
56.1720857209
20
24.5947853263
10
56.1192760571
20
24.4942316423
10
56.0660841816
20
24.3932005669
10
56.0126177075
20
24.2918955424
10
55.9589842478
20
24.1905200111
10
55.9052914157
20
24.0892774154
10
55.8516468243
20
23.9883711974
10
55.7981580866
20
23.8880047996
10
55.7449328159
20
23.7883816643
10
55.6920786251
20
23.6897052337
10
55.6397031275
20
23.5921789502
10
55.587913936
20
23.4960062562
10
55.5368186638
20
23.4013905938
10
55.4865249241
20
23.3085354055
10
55.4371403298
20
23.2176441335
10
55.3887724942
20
23.1289202202
10
55.3415290303
20
23.0425671079
10
55.2955175512
20
22.9587882389
10
55.2508456701
20
22.8777870555
10
55.207621
20
22.799767
10
55.1652961555
20
22.7223581561
10
55.1233023562
20
22.6450721842
10
55.0817008973
20
22.5680319563
10
55.0405530737
20
22.4913603444
10
54.9999201805
20
22.4151802206
10
54.9598635126
20
22.3396144568
10
54.9204443651
20
22.2647859251
10
54.881724033
20
22.1908174974
10
54.8437638114
20
22.1178320458
10
54.8066249952
20
22.0459524422
10
54.7703688795
20
21.9753015588
10
54.7350567593
20
21.9060022674
10
54.7007499296
20
21.8381774402
10
54.6675096854
20
21.771949949
10
54.6353973219
20
21.707442666
10
54.6044741339
20
21.6447784631
10
54.5748014165
20
21.5840802123
10
54.5464404648
20
21.5254707856
10
54.5194525737
20
21.4690730552
10
54.4938990383
20
21.4150098928
10
54.4698411536
20
21.3634041707
10
54.4473402147
20
21.3143787607
10
54.4264575164
20
21.2680565349
10
54.407254354
20
21.2245603652
10
54.3897920223
20
21.1840131238
10
54.3741318164
20
21.1465376826
10
54.3603350314
20
21.1122569136
10
54.3484629622
20
21.0812936889
10
54.3385769039
20
21.0537708803
10
54.3307381515
20
21.02981136
10
54.325008
20
21.009538
10
54.3154135848
20
20.9717632061
10
54.3049688176
20
20.9358818653
10
54.2937340293
20
20.9019141194
10
54.2817695504
20
20.8698801104
10
54.2691357117
20
20.8397999803
10
54.2558928439
20
20.8116938709
10
54.2421012778
20
20.7855819242
10
54.2278213439
20
20.761484282
10
54.213113373
20
20.7394210864
10
54.1980376959
20
20.7194124792
10
54.1826546431
20
20.7014786024
10
54.1670245455
20
20.6856395978
10
54.1512077337
20
20.6719156074
10
54.1352645385
20
20.6603267732
10
54.1192552905
20
20.650893237
10
54.1032403204
20
20.6436351407
10
54.0872799589
20
20.6385726264
10
54.0714345368
20
20.6357258359
10
54.0557643847
20
20.635114911
10
54.0403298334
20
20.6367599939
10
54.0251912136
20
20.6406812263
10
54.0104088559
20
20.6468987502
10
53.9960430911
20
20.6554327076
10
53.9821542498
20
20.6663032402
10
53.9688026628
20
20.6795304902
10
53.9560486608
20
20.6951345993
10
53.9439525745
20
20.7131357095
10
53.9325747345
20
20.7335539628
10
53.9219754717
20
20.756409501
10
53.9122151166
20
20.7817224661
10
53.903354
20
20.809513
10
53.8743210255
20
20.9133399006
10
53.846518504
20
21.0140124213
10
53.8198955544
20
21.1118105485
10
53.7944012956
20
21.2070142684
10
53.7699848466
20
21.2999035676
10
53.7465953262
20
21.3907584324
10
53.7241818534
20
21.4798588491
10
53.7026935471
20
21.5674848041
10
53.6820795263
20
21.6539162838
10
53.6622889099
20
21.7394332746
10
53.6432708168
20
21.8243157628
10
53.6249743659
20
21.9088437348
10
53.6073486762
20
21.993297177
10
53.5903428666
20
22.0779560757
10
53.573906056
20
22.1631004173
10
53.5579873634
20
22.2490101883
10
53.5425359076
20
22.3359653749
10
53.5275008077
20
22.4242459635
10
53.5128311825
20
22.5141319406
10
53.498476151
20
22.6059032924
10
53.4843848321
20
22.6998400053
10
53.4705063447
20
22.7962220658
10
53.4567898077
20
22.8953294602
10
53.4431843402
20
22.9974421749
10
53.4296390609
20
23.1028401961
10
53.4161030889
20
23.2118035104
10
53.4025255431
20
23.3246121041
10
53.3888555423
20
23.4415459635
10
53.3750422056
20
23.5628850751
10
53.3610346519
20
23.6889094251
10
53.346782
20
23.819899
10
53.3256576248
20
24.0226273496
10
53.3050692566
20
24.2333906852
10
53.285053354
20
24.4512946631
10
53.2656463755
20
24.6754449395
10
53.2468847799
20
24.9049471706
10
53.2288050255
20
25.1389070126
10
53.2114435712
20
25.3764301216
10
53.1948368754
20
25.616622154
10
53.1790213967
20
25.8585887658
10
53.1640335938
20
26.1014356134
10
53.1499099252
20
26.3442683529
10
53.1366868495
20
26.5861926405
10
53.1244008254
20
26.8263141324
10
53.1130883114
20
27.0637384849
10
53.1027857661
20
27.2975713541
10
53.0935296481
20
27.5269183962
10
53.085356416
20
27.7508852675
10
53.0783025284
20
27.9685776241
10
53.0724044439
20
28.1791011223
10
53.0676986211
20
28.3815614182
10
53.0642215186
20
28.5750641681
10
53.062009595
20
28.7587150281
10
53.0610993088
20
28.9316196546
10
53.0615271187
20
29.0928837036
10
53.0633294833
20
29.2416128314
10
53.0665428611
20
29.3769126941
10
53.0712037108
20
29.4978889481
10
53.077348491
20
29.6036472495
10
53.0850136601
20
29.6932932544
10
53.0942356769
20
29.7659326192
10
53.105051
20
29.820671
10
53.1107581799
20
29.8400181867
10
53.1169658124
20
29.8593049452
10
53.1236615532
20
29.8784708474
10
53.1308330579
20
29.897455465
10
53.1384679821
20
29.9161983698
10
53.1465539814
20
29.9346391338
10
53.1550787114
20
29.9527173287
10
53.1640298277
20
29.9703725262
10
53.1733949859
20
29.9875442983
10
53.1831618415
20
30.0041722168
10
53.1933180503
20
30.0201958534
10
53.2038512677
20
30.0355547801
10
53.2147491495
20
30.0501885685
10
53.2259993511
20
30.0640367905
10
53.2375895282
20
30.077039018
10
53.2495073365
20
30.0891348228
10
53.2617404314
20
30.1002637766
10
53.2742764686
20
30.1103654513
10
53.2871031038
20
30.1193794187
10
53.3002079924
20
30.1272452506
10
53.3135787901
20
30.1339025189
10
53.3272031525
20
30.1392907953
10
53.3410687353
20
30.1433496517
10
53.3551631939
20
30.1460186599
10
53.369474184
20
30.1472373917
10
53.3839893613
20
30.1469454189
10
53.3986963812
20
30.1450823134
10
53.4135828994
20
30.1415876469
10
53.4286365716
20
30.1364009913
10
53.4438450532
20
30.1294619184
10
53.459196
20
30.12071
10
53.4956104418
20
30.1201433877
10
53.5316910535
20
30.1241068977
10
53.5673337969
20
30.1323850017
10
53.6024346338
20
30.1447621719
10
53.6368895261
20
30.1610228799
10
53.6705944354
20
30.1809515977
10
53.7034453237
20
30.2043327973
10
53.7353381527
20
30.2309509504
10
53.7661688843
20
30.2605905289
10
53.7958334801
20
30.2930360048
10
53.8242279021
20
30.32807185
10
53.851248112
20
30.3654825363
10
53.8767900716
20
30.4050525356
10
53.9007497427
20
30.4465663198
10
53.9230230872
20
30.4898083607
10
53.9435060668
20
30.5345631304
10
53.9620946433
20
30.5806151006
10
53.9786847786
20
30.6277487433
10
53.9931724343
20
30.6757485303
10
54.0054535724
20
30.7243989336
10
54.0154241546
20
30.7734844249
10
54.0229801428
20
30.8227894763
10
54.0280174987
20
30.8720985595
10
54.0304321841
20
30.9211961466
10
54.0301201608
20
30.9698667092
10
54.0269773907
20
31.0178947195
10
54.0208998355
20
31.0650646492
10
54.011783457
20
31.1111609702
10
53.9995242171
20
31.1559681544
10
53.9840180775
20
31.1992706737
10
53.965161
20
31.240853
10
53.956129658
20
31.2598983207
10
53.9466030027
20
31.2783191868
10
53.9366082515
20
31.2961155996
10
53.9261726219
20
31.3132875602
10
53.9153233312
20
31.3298350699
10
53.904087597
20
31.3457581299
10
53.8924926365
20
31.3610567413
10
53.8805656672
20
31.3757309054
10
53.8683339065
20
31.3897806234
10
53.8558245719
20
31.4032058965
10
53.8430648807
20
31.4160067259
10
53.8300820504
20
31.4281831129
10
53.8169032983
20
31.4397350585
10
53.803555842
20
31.4506625641
10
53.7900668988
20
31.4609656308
10
53.776463686
20
31.4706442599
10
53.7627734213
20
31.4796984526
10
53.7490233218
20
31.48812821
10
53.7352406052
20
31.4959335333
10
53.7214524887
20
31.5031144239
10
53.7076861898
20
31.5096708829
10
53.693968926
20
31.5156029114
10
53.6803279145
20
31.5209105108
10
53.6667903729
20
31.5255936822
10
53.6533835185
20
31.5296524268
10
53.6401345689
20
31.5330867459
10
53.6270707413
20
31.5358966406
10
53.6142192532
20
31.5380821121
10
53.601607322
20
31.5396431618
10
53.5892621651
20
31.5405797906
10
53.577211
20
31.540892
10
53.5579536316
20
31.5415130706
10
53.5394033829
20
31.543362854
10
53.5215661353
20
31.5464212077
10
53.50444777
20
31.5506679893
10
53.4880541686
20
31.556083056
10
53.4723912123
20
31.5626462655
10
53.4574647825
20
31.5703374752
10
53.4432807607
20
31.5791365426
10
53.4298450281
20
31.5890233251
10
53.4171634662
20
31.5999776802
10
53.4052419563
20
31.6119794655
10
53.3940863798
20
31.6250085383
10
53.3837026181
20
31.6390447561
10
53.3740965525
20
31.6540679765
10
53.3652740645
20
31.6700580569
10
53.3572410354
20
31.6869948547
10
53.3500033465
20
31.7048582275
10
53.3435668793
20
31.7236280326
10
53.3379375151
20
31.7432841277
10
53.3331211353
20
31.7638063701
10
53.3291236212
20
31.7851746174
10
53.3259508543
20
31.8073687269
10
53.3236087159
20
31.8303685563
10
53.3221030874
20
31.8541539629
10
53.3214398502
20
31.8787048042
10
53.3216248855
20
31.9040009377
10
53.3226640749
20
31.9300222209
10
53.3245632997
20
31.9567485113
10
53.3273284412
20
31.9841596663
10
53.3309653809
20
32.0122355434
10
53.33548
20
32.040956
10
53.356951907
20
32.1731214388
10
53.3779513409
20
32.302505136
10
53.3984816459
20
32.4291352915
10
53.4185461656
20
32.5530401055
10
53.4381482441
20
32.6742477781
10
53.4572912252
20
32.7927865091
10
53.4759784528
20
32.9086844989
10
53.4942132709
20
33.0219699473
10
53.5119990232
20
33.1326710545
10
53.5293390537
20
33.2408160205
10
53.5462367064
20
33.3464330453
10
53.562695325
20
33.4495503292
10
53.5787182536
20
33.550196072
10
53.5943088359
20
33.6483984738
10
53.6094704159
20
33.7441857348
10
53.6242063375
20
33.837586055
10
53.6385199445
20
33.9286276344
10
53.652414581
20
34.0173386731
10
53.6658935907
20
34.1037473712
10
53.6789603175
20
34.1878819286
10
53.6916181055
20
34.2697705456
10
53.7038702983
20
34.3494414221
10
53.7157202401
20
34.4269227582
10
53.7271712745
20
34.502242754
10
53.7382267457
20
34.5754296095
10
53.7488899973
20
34.6465115248
10
53.7591643734
20
34.7155166999
10
53.7690532178
20
34.7824733349
10
53.7785598745
20
34.8474096299
10
53.7876876872
20
34.9103537849
10
53.79644
20
34.971334
10
53.8026435629
20
35.0115538684
10
53.8095808361
20
35.0546864125
10
53.8172231803
20
35.1005845888
10
53.8255419562
20
35.1491013539
10
53.8345085244
20
35.2000896645
10
53.8440942456
20
35.2534024771
10
53.8542704806
20
35.3088927483
10
53.86500859
20
35.3664134347
10
53.8762799344
20
35.425817493
10
53.8880558746
20
35.4869578797
10
53.9003077712
20
35.5496875514
10
53.9130069849
20
35.6138594647
10
53.9261248764
20
35.6793265763
10
53.9396328064
20
35.7459418426
10
53.9535021355
20
35.8135582204
10
53.9677042245
20
35.8820286662
10
53.982210434
20
35.9512061366
10
53.9969921246
20
36.0209435881
10
54.0120206571
20
36.0910939775
10
54.0272673922
20
36.1615102613
10
54.0427036904
20
36.2320453961
10
54.0583009126
20
36.3025523384
10
54.0740304194
20
36.372884045
10
54.0898635714
20
36.4428934723
10
54.1057717294
20
36.5124335771
10
54.121726254
20
36.5813573158
10
54.1376985059
20
36.6495176451
10
54.1536598457
20
36.7167675215
10
54.1695816343
20
36.7829599018
10
54.1854352321
20
36.8479477424
10
54.201192
20
36.911584
10
54.49913
20
38.081733
10
55.336838
20
38.171745
10
55.3821795891
20
38.1768915607
10
55.4287225776
20
38.1826323262
10
55.4763614261
20
38.188937083
10
55.5249905955
20
38.1957756177
10
55.5745045464
20
38.2031177168
10
55.6247977397
20
38.2109331667
10
55.6757646361
20
38.219191754
10
55.7272996962
20
38.2278632652
10
55.7792973809
20
38.2369174869
10
55.8316521509
20
38.2463242055
10
55.884258467
20
38.2560532075
10
55.9370107898
20
38.2660742794
10
55.9898035801
20
38.2763572079
10
56.0425312987
20
38.2868717793
10
56.0950884063
20
38.2975877802
10
56.1473693637
20
38.3084749971
10
56.1992686316
20
38.3195032165
10
56.2506806707
20
38.330642225
10
56.3014999418
20
38.341861809
10
56.3516209056
20
38.3531317551
10
56.4009380229
20
38.3644218497
10
56.4493457544
20
38.3757018794
10
56.4967385608
20
38.3869416307
10
56.543010903
20
38.3981108901
10
56.5880572415
20
38.4091794441
10
56.6317720373
20
38.4201170793
10
56.674049751
20
38.4308935821
10
56.7147848434
20
38.441478739
10
56.7538717752
20
38.4518423367
10
56.7912050071
20
38.4619541615
10
56.826679
20
38.471784
10
57.473163
20
38.671809
10
57.473163
20
39.471912
10
57.4741468055
20
39.5620143319
10
57.4770333486
20
39.6577183907
10
57.4817253189
20
39.7584440617
10
57.4881254061
20
39.8636112298
10
57.4961362998
20
39.9726397804
10
57.5056606898
20
40.0849495984
10
57.5166012656
20
40.1999605691
10
57.528860717
20
40.3170925775
10
57.5423417337
20
40.4357655088
10
57.5569470052
20
40.5553992482
10
57.5725792214
20
40.6754136807
0
ENDSEC
0
SECTION
2
OBJECTS
0
DICTIONARY
5
C
330
0
100
AcDbDictionary
281
1
3
ACAD_GROUP
350
D
0
DICTIONARY
5
D
330
C
100
AcDbDictionary
281
1
0
ENDSEC
0
EOF
