999
dxfrw 0.5.10
0
SECTION
2
HEADER
9
$ACADVER
1
AC1021
9
$HANDSEED
5
20000
9
$DWGCODEPAGE
3
ANSI_1252
9
$INSBASE
10
0
20
0
30
0
9
$EXTMIN
10
0
20
3e-06
30
0
9
$EXTMAX
10
60.716908
20
100.000002825
30
0
9
$LIMMIN
10
0
20
0
9
$LIMMAX
10
420
20
297
9
$ORTHOMODE
70
0
9
$LTSCALE
40
1
9
$TEXTSTYLE
7
STANDARD
9
$CLAYER
8
0
9
$DIMASZ
40
2.5
9
$DIMLFAC
40
1
9
$DIMSCALE
40
1
9
$DIMEXO
40
0.625
9
$DIMEXE
40
1.25
9
$DIMTXT
40
2.5
9
$DIMTSZ
40
0
9
$DIMAUNIT
70
0
9
$DIMADEC
70
0
9
$DIMLUNIT
70
2
9
$DIMSTYLE
2
Standard
9
$DIMGAP
40
0.625
9
$DIMTIH
70
0
9
$LUNITS
70
2
9
$LUPREC
70
4
9
$AUNITS
70
0
9
$AUPREC
70
2
9
$SPLINESEGS
70
8
9
$GRIDMODE
70
1
9
$SNAPSTYLE
70
0
9
$PINSBASE
10
0
20
0
30
0
9
$PLIMMIN
10
0
20
0
9
$PLIMMAX
10
210
20
297
9
$INSUNITS
70
4
9
$PSVPSCALE
40
1
0
ENDSEC
0
SECTION
2
CLASSES
0
ENDSEC
0
SECTION
2
TABLES
0
TABLE
2
VPORT
5
8
330
0
100
AcDbSymbolTable
70
1
0
VPORT
5
31
330
2
100
AcDbSymbolTableRecord
100
AcDbViewportTableRecord
2
*ACTIVE
70
0
10
0
20
0
11
1
21
1
12
83.5830477987
22
62.3929793427
13
0
23
0
14
10
24
10
15
10
25
10
16
0
26
0
36
1
17
0
27
0
37
0
40
160.530821636
41
1.65333333333
42
50
43
0
44
0
50
0
51
0
71
0
72
100
73
1
74
3
75
0
76
1
77
0
78
0
281
0
65
1
110
0
120
0
130
0
111
1
121
0
131
0
112
0
122
1
132
0
79
0
146
0
348
10020
60
7
61
5
292
1
282
1
141
0
142
0
63
250
421
3358443
0
ENDTAB
0
TABLE
2
LTYPE
5
5
330
0
100
AcDbSymbolTable
70
4
0
LTYPE
5
14
330
5
100
AcDbSymbolTableRecord
100
AcDbLinetypeTableRecord
2
ByBlock
70
0
3

72
65
73
0
40
0
0
LTYPE
5
15
330
5
100
AcDbSymbolTableRecord
100
AcDbLinetypeTableRecord
2
ByLayer
70
0
3

72
65
73
0
40
0
0
LTYPE
5
16
330
5
100
AcDbSymbolTableRecord
100
AcDbLinetypeTableRecord
2
Continuous
70
0
3
Solid line
72
65
73
0
40
0
0
LTYPE
5
32
330
5
100
AcDbSymbolTableRecord
100
AcDbLinetypeTableRecord
2
DOT
70
0
3
Dot . . . . . . . . . . . . . . . . . . . . . .
72
65
73
2
40
6.35
49
0
74
0
49
-6.35
74
0
0
LTYPE
5
33
330
5
100
AcDbSymbolTableRecord
100
AcDbLinetypeTableRecord
2
DOT2
70
0
3
Dot (.5x) .....................................
72
65
73
2
40
3.175
49
0
74
0
49
-3.175
74
0
0
LTYPE
5
34
330
5
100
AcDbSymbolTableRecord
100
AcDbLinetypeTableRecord
2
DOTX2
70
0
3
Dot (2x) .  .  .  .  .  .  .  .  .  .  .  .  .
72
65
73
2
40
12.7
49
0
74
0
49
-12.7
74
0
0
LTYPE
5
35
330
5
100
AcDbSymbolTableRecord
100
AcDbLinetypeTableRecord
2
DASHED
70
0
3
Dot . . . . . . . . . . . . . . . . . . . . . .
72
65
73
2
40
19.05
49
12.7
74
0
49
-6.35
74
0
0
LTYPE
5
36
330
5
100
AcDbSymbolTableRecord
100
AcDbLinetypeTableRecord
2
DASHED2
70
0
3
Dashed (.5x) _ _ _ _ _ _ _ _ _ _ _ _ _ _ _ _ _
72
65
73
2
40
9.525
49
6.35
74
0
49
-3.175
74
0
0
LTYPE
5
37
330
5
100
AcDbSymbolTableRecord
100
AcDbLinetypeTableRecord
2
DASHEDX2
70
0
3
Dashed (2x) ____  ____  ____  ____  ____  ___
72
65
73
2
40
38.1
49
25.4
74
0
49
-12.7
74
0
0
LTYPE
5
38
330
5
100
AcDbSymbolTableRecord
100
AcDbLinetypeTableRecord
2
DASHDOT
70
0
3
Dash dot __ . __ . __ . __ . __ . __ . __ . __
72
65
73
4
40
25.4
49
12.7
74
0
49
-6.35
74
0
49
0
74
0
49
-6.35
74
0
0
LTYPE
5
39
330
5
100
AcDbSymbolTableRecord
100
AcDbLinetypeTableRecord
2
DASHDOT2
70
0
3
Dash dot (.5x) _._._._._._._._._._._._._._._.
72
65
73
4
40
12.7
49
6.35
74
0
49
-3.175
74
0
49
0
74
0
49
-3.175
74
0
0
LTYPE
5
3A
330
5
100
AcDbSymbolTableRecord
100
AcDbLinetypeTableRecord
2
DASHDOTX2
70
0
3
Dash dot (2x) ____  .  ____  .  ____  .  ___
72
65
73
4
40
50.8
49
25.4
74
0
49
-12.7
74
0
49
0
74
0
49
-12.7
74
0
0
LTYPE
5
3B
330
5
100
AcDbSymbolTableRecord
100
AcDbLinetypeTableRecord
2
DIVIDE
70
0
3
Divide ____ . . ____ . . ____ . . ____ . . ____
72
65
73
6
40
31.75
49
12.7
74
0
49
-6.35
74
0
49
0
74
0
49
-6.35
74
0
49
0
74
0
49
-6.35
74
0
0
LTYPE
5
3C
330
5
100
AcDbSymbolTableRecord
100
AcDbLinetypeTableRecord
2
DIVIDE2
70
0
3
Divide (.5x) __..__..__..__..__..__..__..__.._
72
65
73
6
40
15.875
49
6.35
74
0
49
-3.175
74
0
49
0
74
0
49
-3.175
74
0
49
0
74
0
49
-3.175
74
0
0
LTYPE
5
3D
330
5
100
AcDbSymbolTableRecord
100
AcDbLinetypeTableRecord
2
DIVIDEX2
70
0
3
Divide (2x) ________  .  .  ________  .  .  _
72
65
73
6
40
63.5
49
25.4
74
0
49
-12.7
74
0
49
0
74
0
49
-12.7
74
0
49
0
74
0
49
-12.7
74
0
0
LTYPE
5
3E
330
5
100
AcDbSymbolTableRecord
100
AcDbLinetypeTableRecord
2
BORDER
70
0
3
Border __ __ . __ __ . __ __ . __ __ . __ __ .
72
65
73
6
40
44.45
49
12.7
74
0
49
-6.35
74
0
49
12.7
74
0
49
-6.35
74
0
49
0
74
0
49
-6.35
74
0
0
LTYPE
5
3F
330
5
100
AcDbSymbolTableRecord
100
AcDbLinetypeTableRecord
2
BORDER2
70
0
3
Border (.5x) __.__.__.__.__.__.__.__.__.__.__.
72
65
73
6
40
22.225
49
6.35
74
0
49
-3.175
74
0
49
6.35
74
0
49
-3.175
74
0
49
0
74
0
49
-3.175
74
0
0
LTYPE
5
40
330
5
100
AcDbSymbolTableRecord
100
AcDbLinetypeTableRecord
2
BORDERX2
70
0
3
Border (2x) ____  ____  .  ____  ____  .  ___
72
65
73
6
40
88.9
49
25.4
74
0
49
-12.7
74
0
49
25.4
74
0
49
-12.7
74
0
49
0
74
0
49
-12.7
74
0
0
LTYPE
5
41
330
5
100
AcDbSymbolTableRecord
100
AcDbLinetypeTableRecord
2
CENTER
70
0
3
Center ____ _ ____ _ ____ _ ____ _ ____ _ ____
72
65
73
4
40
50.8
49
31.75
74
0
49
-6.35
74
0
49
6.35
74
0
49
-6.35
74
0
0
LTYPE
5
42
330
5
100
AcDbSymbolTableRecord
100
AcDbLinetypeTableRecord
2
CENTER2
70
0
3
Center (.5x) ___ _ ___ _ ___ _ ___ _ ___ _ ___
72
65
73
4
40
28.575
49
19.05
74
0
49
-3.175
74
0
49
3.175
74
0
49
-3.175
74
0
0
LTYPE
5
43
330
5
100
AcDbSymbolTableRecord
100
AcDbLinetypeTableRecord
2
CENTERX2
70
0
3
Center (2x) ________  __  ________  __  _____
72
65
73
4
40
101.6
49
63.5
74
0
49
-12.7
74
0
49
12.7
74
0
49
-12.7
74
0
0
ENDTAB
0
TABLE
2
LAYER
5
2
330
0
100
AcDbSymbolTable
70
1
0
LAYER
5
10
330
2
100
AcDbSymbolTableRecord
100
AcDbLayerTableRecord
2
0
70
0
62
7
6
CONTINUOUS
370
-3
390
F
0
ENDTAB
0
TABLE
2
STYLE
5
3
330
0
100
AcDbSymbolTable
70
3
0
STYLE
5
44
330
2
100
AcDbSymbolTableRecord
100
AcDbTextStyleTableRecord
2
Standard
70
0
40
0
41
1
50
0
71
0
42
1
3
txt
4

0
ENDTAB
0
TABLE
2
VIEW
5
6
330
0
100
AcDbSymbolTable
70
0
0
ENDTAB
0
TABLE
2
UCS
5
7
330
0
100
AcDbSymbolTable
70
0
0
ENDTAB
0
TABLE
2
APPID
5
9
330
0
100
AcDbSymbolTable
70
1
0
APPID
5
12
330
9
100
AcDbSymbolTableRecord
100
AcDbRegAppTableRecord
2
ACAD
70
0
0
ENDTAB
0
TABLE
2
DIMSTYLE
5
A
330
0
100
AcDbSymbolTable
70
1
100
AcDbDimStyleTable
71
1
0
DIMSTYLE
105
45
330
A
100
AcDbSymbolTableRecord
100
AcDbDimStyleTableRecord
2
Standard
70
0
40
1
41
2.5
42
0.625
43
0.38
44
1.25
45
0
46
0
47
0
48
0
140
2.5
141
0.09
142
0
143
25.4
144
1
145
0
146
1
147
0.625
148
0
71
0
72
0
73
0
74
1
75
0
76
0
77
0
78
0
79
0
170
0
171
2
172
0
173
0
174
0
175
0
176
0
177
0
178
0
179
0
271
4
272
4
273
2
274
2
275
0
276
0
277
2
278
46
279
0
280
0
281
0
282
0
283
1
284
0
285
0
286
0
288
0
289
3
340
Standard
341

371
-2
372
-2
0
ENDTAB
0
TABLE
2
BLOCK_RECORD
5
1
330
0
100
AcDbSymbolTable
70
2
0
BLOCK_RECORD
5
1F
330
1
100
AcDbSymbolTableRecord
100
AcDbBlockTableRecord
2
*Model_Space
70
0
280
1
281
0
0
BLOCK_RECORD
5
1E
330
1
100
AcDbSymbolTableRecord
100
AcDbBlockTableRecord
2
*Paper_Space
70
0
280
1
281
0
0
ENDTAB
0
ENDSEC
0
SECTION
2
BLOCKS
0
BLOCK
5
20
330
1F
100
AcDbEntity
8
0
100
AcDbBlockBegin
2
*Model_Space
70
0
10
0
20
0
30
0
3
*Model_Space
1

0
ENDBLK
5
21
330
1F
100
AcDbEntity
8
0
100
AcDbBlockEnd
0
BLOCK
5
1C
330
1B
100
AcDbEntity
8
0
100
AcDbBlockBegin
2
*Paper_Space
70
0
10
0
20
0
30
0
3
*Paper_Space
1

0
ENDBLK
5
1D
330
1F
100
AcDbEntity
8
0
100
AcDbBlockEnd
0
ENDSEC
0
SECTION
2
ENTITIES
0
LWPOLYLINE
5
46
100
AcDbEntity
8
0
6
ByLayer
62
256
370
-1
100
AcDbPolyline
90
3057
70
1
43
0
10
11.5732744993
20
56.3061656945
10
11.5688883088
20
56.7079891914
10
11.5647283537
20
57.1143404071
10
11.5608046923
20
57.5244484423
10
11.5571273824
20
57.9375423977
10
11.5537064823
20
58.3528513738
10
11.55055205
20
58.7696044711
10
11.5476741436
20
59.1870307904
10
11.5450828211
20
59.6043594322
10
11.5427881405
20
60.0208194972
10
11.5408001601
20
60.4356400858
10
11.5391289378
20
60.8480502987
10
11.5377845318
20
61.2572792366
10
11.536777
20
61.662556
10
11.521085
20
69.234885
10
12.073578
20
70.356947
10
12.1287977656
20
70.4672394938
10
12.1841223079
20
70.5739062801
10
12.2397386244
20
70.6771314453
10
12.2958337123
20
70.777099076
10
12.3525945689
20
70.8739932586
10
12.4102081917
20
70.9679980796
10
12.468861578
20
71.0592976254
10
12.5287417252
20
71.1480759826
10
12.5900356305
20
71.2345172375
10
12.6529302913
20
71.3188054767
10
12.717612705
20
71.4011247866
10
12.784269869
20
71.4816592538
10
12.8530887805
20
71.5605929646
10
12.9242564369
20
71.6381100055
10
12.9979598356
20
71.714394463
10
13.074385974
20
71.7896304236
10
13.1537218492
20
71.8640019737
10
13.2361544589
20
71.9376931999
10
13.3218708001
20
72.0108881885
10
13.4110578704
20
72.083771026
10
13.5039026671
20
72.156525799
10
13.6005921874
20
72.2293365939
10
13.7013134289
20
72.3023874971
10
13.8062533887
20
72.3758625952
10
13.9155990642
20
72.4499459745
10
14.0295374529
20
72.5248217216
10
14.148255552
20
72.600673923
10
14.271940359
20
72.677686665
10
14.400778871
20
72.7560440342
10
14.5349580856
20
72.835930117
10
14.674665
20
72.917529
10
14.7557894894
20
72.9650550464
10
14.8324864244
20
73.0111364388
10
14.9047514241
20
73.0557654763
10
14.9725801079
20
73.098934458
10
15.0359680951
20
73.1406356832
10
15.0949110048
20
73.180861451
10
15.1494044565
20
73.2196040605
10
15.1994440694
20
73.2568558109
10
15.2450254627
20
73.2926090013
10
15.2861442558
20
73.326855931
10
15.3227960679
20
73.3595888989
10
15.3549765184
20
73.3908002043
10
15.3826812264
20
73.4204821464
10
15.4059058113
20
73.4486270242
10
15.4246458924
20
73.475227137
10
15.4388970889
20
73.5002747839
10
15.4486550201
20
73.523762264
10
15.4539153053
20
73.5456818765
10
15.4546735638
20
73.5660259205
10
15.4509254149
20
73.5847866953
10
15.4426664778
20
73.6019564998
10
15.4298923718
20
73.6175276334
10
15.4125987163
20
73.6314923951
10
15.3907811304
20
73.6438430841
10
15.3644352335
20
73.6545719996
10
15.3335566448
20
73.6636714406
10
15.2981409837
20
73.6711337064
10
15.2581838693
20
73.6769510961
10
15.2136809211
20
73.6811159088
10
15.1646277582
20
73.6836204437
10
15.11102
20
73.684457
10
15.0910454098
20
73.6850632657
10
15.069759815
20
73.6868616107
10
15.0472289957
20
73.6898213565
10
15.0235187321
20
73.6939118249
10
14.9986948041
20
73.6991023375
10
14.9728229919
20
73.7053622161
10
14.9459690755
20
73.7126607822
10
14.918198835
20
73.7209673576
10
14.8895780504
20
73.730251264
10
14.8601725018
20
73.7404818229
10
14.8300479693
20
73.7516283562
10
14.7992702329
20
73.7636601854
10
14.7679050727
20
73.7765466322
10
14.7360182689
20
73.7902570184
10
14.7036756014
20
73.8047606655
10
14.6709428503
20
73.8200268953
10
14.6378857956
20
73.8360250295
10
14.6045702176
20
73.8527243896
10
14.5710618961
20
73.8700942974
10
14.5374266114
20
73.8881040746
10
14.5037301434
20
73.9067230428
10
14.4700382722
20
73.9259205237
10
14.436416778
20
73.945665839
10
14.4029314406
20
73.9659283104
10
14.3696480403
20
73.9866772595
10
14.3366323572
20
74.007882008
10
14.3039501711
20
74.0295118775
10
14.2716672623
20
74.0515361898
10
14.2398494108
20
74.0739242666
10
14.2085623967
20
74.0966454294
10
14.177872
20
74.119669
10
14.1273756777
20
74.1583533416
10
14.0799995503
20
74.1950870167
10
14.0356667805
20
74.2300660978
10
13.9943005312
20
74.2634866571
10
13.9558239649
20
74.2955447672
10
13.9201602443
20
74.3264365003
10
13.8872325322
20
74.3563579287
10
13.8569639913
20
74.385505125
10
13.8292777842
20
74.4140741614
10
13.8040970737
20
74.4422611104
10
13.7813450224
20
74.4702620442
10
13.7609447931
20
74.4982730353
10
13.7428195485
20
74.5264901561
10
13.7268924512
20
74.5551094788
10
13.713086664
20
74.5843270759
10
13.7013253495
20
74.6143390198
10
13.6915316705
20
74.6453413828
10
13.6836287897
20
74.6775302373
10
13.6775398697
20
74.7111016556
10
13.6731880733
20
74.7462517102
10
13.6704965632
20
74.7831764734
10
13.669388502
20
74.8220720176
10
13.6697870524
20
74.8631344151
10
13.6716153773
20
74.9065597383
10
13.6747966392
20
74.9525440596
10
13.6792540008
20
75.0012834513
10
13.6849106249
20
75.0529739859
10
13.6916896742
20
75.1078117357
10
13.6995143113
20
75.1659927731
10
13.708307699
20
75.2277131704
10
13.717993
20
75.293169
10
13.828706
20
76.031457
10
12.42261
20
75.913908
10
12.3474050048
20
75.9076828949
10
12.2715646
20
75.9015264246
10
12.1952293992
20
75.8954472112
10
12.1185400158
20
75.8894538772
10
12.041637063
20
75.8835550447
10
11.9646611544
20
75.8777593361
10
11.8877529034
20
75.8720753736
10
11.8110529233
20
75.8665117794
10
11.7347018276
20
75.8610771759
10
11.6588402296
20
75.8557801852
10
11.5836087428
20
75.8506294298
10
11.5091479806
20
75.8456335317
10
11.4355985564
20
75.8408011134
10
11.3631010835
20
75.8361407971
10
11.2917961755
20
75.831661205
10
11.2218244457
20
75.8273709594
10
11.1533265075
20
75.8232786826
10
11.0864429743
20
75.8193929969
10
11.0213144596
20
75.8157225245
10
10.9580815767
20
75.8122758876
10
10.896884939
20
75.8090617086
10
10.8378651599
20
75.8060886098
10
10.781162853
20
75.8033652133
10
10.7269186315
20
75.8009001415
10
10.6752731088
20
75.7987020166
10
10.6263668985
20
75.796779461
10
10.5803406138
20
75.7951410968
10
10.5373348682
20
75.7937955463
10
10.4974902751
20
75.7927514318
10
10.4609474479
20
75.7920173757
10
10.427847
20
75.791602
10
10.3748157419
20
75.7912634189
10
10.3250724586
20
75.7912016463
10
10.2785162738
20
75.791520284
10
10.2350463111
20
75.7923229334
10
10.194561694
20
75.7937131962
10
10.1569615463
20
75.7957946738
10
10.1221449916
20
75.7986709678
10
10.0900111535
20
75.8024456798
10
10.0604591556
20
75.8072224113
10
10.0333881215
20
75.8131047639
10
10.0086971749
20
75.8201963392
10
9.98628543939
20
75.8286007387
10
9.96605203864
20
75.8384215639
10
9.94789609624
20
75.8497624165
10
9.93171673583
20
75.862726898
10
9.91741308103
20
75.8774186098
10
9.90488425548
20
75.8939411537
10
9.8940293828
20
75.9123981312
10
9.88474758662
20
75.9328931437
10
9.87693799057
20
75.955529793
10
9.87049971827
20
75.9804116804
10
9.86533189336
20
76.0076424076
10
9.86133363945
20
76.0373255762
10
9.85840408019
20
76.0695647877
10
9.8564423392
20
76.1044636436
10
9.8553475401
20
76.1421257456
10
9.85501880652
20
76.1826546951
10
9.85535526209
20
76.2261540937
10
9.85625603045
20
76.272727543
10
9.85762023521
20
76.3224786446
10
9.859347
20
76.375511
10
9.86084777611
20
76.4077526089
10
9.86318787067
20
76.4417478921
10
9.86634390078
20
76.4773996955
10
9.87029248354
20
76.5146108651
10
9.87501023604
20
76.5532842468
10
9.8804737754
20
76.5933226866
10
9.88665971871
20
76.6346290305
10
9.89354468306
20
76.6771061244
10
9.90110528556
20
76.7206568143
10
9.9093181433
20
76.7651839462
10
9.91815987338
20
76.8105903659
10
9.92760709291
20
76.8567789196
10
9.93763641899
20
76.903652453
10
9.9482244687
20
76.9511138123
10
9.95934785915
20
76.9990658432
10
9.97098320745
20
77.0474113919
10
9.98310713068
20
77.0960533043
10
9.99569624595
20
77.1448944263
10
10.0087271704
20
77.1938376038
10
10.022176521
20
77.242785683
10
10.036020915
20
77.2916415096
10
10.0502369694
20
77.3403079297
10
10.0648013013
20
77.3886877892
10
10.0796905279
20
77.4366839341
10
10.0948812662
20
77.4841992104
10
10.1103501334
20
77.5311364639
10
10.1260737464
20
77.5773985408
10
10.1420287225
20
77.6228882868
10
10.1581916788
20
77.6675085481
10
10.1745392322
20
77.7111621705
10
10.191048
20
77.753752
10
10.2073821676
20
77.7956681988
10
10.2232118112
20
77.8373238439
10
10.2385223837
20
77.8786558637
10
10.2532993383
20
77.9196011863
10
10.2675281281
20
77.9600967399
10
10.281194206
20
78.0000794527
10
10.2942830251
20
78.0394862529
10
10.3067800385
20
78.0782540687
10
10.3186706993
20
78.1163198283
10
10.3299404605
20
78.1536204599
10
10.3405747751
20
78.1900928918
10
10.3505590962
20
78.225674052
10
10.3598788769
20
78.2603008689
10
10.3685195703
20
78.2939102706
10
10.3764666293
20
78.3264391852
10
10.383705507
20
78.3578245411
10
10.3902216566
20
78.3880032664
10
10.396000531
20
78.4169122893
10
10.4010275833
20
78.444488538
10
10.4052882665
20
78.4706689407
10
10.4087680338
20
78.4953904256
10
10.4114523382
20
78.5185899209
10
10.4133266326
20
78.5402043548
10
10.4143763703
20
78.5601706556
10
10.4145870042
20
78.5784257513
10
10.4139439874
20
78.5949065702
10
10.412432773
20
78.6095500406
10
10.410038814
20
78.6222930905
10
10.4067475635
20
78.6330726483
10
10.4025444744
20
78.641825642
10
10.397415
20
78.648489
10
10.3908966834
20
78.6535650114
10
10.3825735392
20
78.6576098964
10
10.3725013079
20
78.6606408993
10
10.36073573
20
78.6626752642
10
10.3473325461
20
78.6637302351
10
10.3323474966
20
78.6638230563
10
10.3158363221
20
78.6629709718
10
10.2978547631
20
78.6611912258
10
10.2784585602
20
78.6585010624
10
10.2577034539
20
78.6549177258
10
10.2356451847
20
78.6504584601
10
10.212339493
20
78.6451405094
10
10.1878421196
20
78.6389811179
10
10.1622088048
20
78.6319975296
10
10.1354952892
20
78.6242069888
10
10.1077573133
20
78.6156267396
10
10.0790506177
20
78.606274026
10
10.0494309429
20
78.5961660923
10
10.0189540293
20
78.5853201826
10
9.98767561764
20
78.573753541
10
9.95565144829
20
78.5614834116
10
9.92293726182
20
78.5485270385
10
9.88958879876
20
78.534901666
10
9.85566179964
20
78.5206245381
10
9.82121200497
20
78.505712899
10
9.78629515528
20
78.4901839928
10
9.7509669911
20
78.4740550636
10
9.71528325296
20
78.4573433556
10
9.67929968138
20
78.4400661129
10
9.64307201688
20
78.4222405797
10
9.606656
20
78.403884
10
9.53272726864
20
78.3647763493
10
9.46110618449
20
78.3240403987
10
9.39176373502
20
78.2816292637
10
9.32467090772
20
78.2374960596
10
9.25979869007
20
78.1915939018
10
9.19711806955
20
78.1438759057
10
9.13660003363
20
78.0942951866
10
9.0782155698
20
78.0428048599
10
9.02193566554
20
77.9893580409
10
8.96773130831
20
77.9339078451
10
8.91557348562
20
77.8764073878
10
8.86543318492
20
77.8168097844
10
8.81728139371
20
77.7550681503
10
8.77108909946
20
77.6911356008
10
8.72682728965
20
77.6249652512
10
8.68446695176
20
77.556510217
10
8.64397907328
20
77.4857236136
10
8.60533464167
20
77.4125585563
10
8.56850464442
20
77.3369681604
10
8.53346006901
20
77.2589055414
10
8.50017190292
20
77.1783238146
10
8.46861113363
20
77.0951760954
10
8.43874874862
20
77.0094154991
10
8.41055573536
20
76.9209951412
10
8.38400308133
20
76.829868137
10
8.35906177403
20
76.7359876018
10
8.33570280091
20
76.6393066511
10
8.31389714947
20
76.5397784002
10
8.29361580719
20
76.4373559645
10
8.27482976154
20
76.3319924593
10
8.25751
20
76.223641
10
8.140706
20
75.45046
10
7.859215
20
75.979909
10
7.84407649035
20
76.0090200873
10
7.82864787805
20
76.0399305746
10
7.81296150582
20
76.0725473646
10
7.79704971639
20
76.1067773598
10
7.78094485247
20
76.142527463
10
7.76467925679
20
76.1797045766
10
7.74828527206
20
76.2182156033
10
7.73179524101
20
76.2579674458
10
7.71524150636
20
76.2988670067
10
7.69865641083
20
76.3408211886
10
7.68207229714
20
76.3837368941
10
7.66552150801
20
76.4275210258
10
7.64903638616
20
76.4720804864
10
7.63264927431
20
76.5173221784
10
7.61639251519
20
76.5631530046
10
7.60029845151
20
76.6094798674
10
7.584399426
20
76.6562096697
10
7.56872778138
20
76.7032493139
10
7.55331586036
20
76.7505057026
10
7.53819600567
20
76.7978857386
10
7.52340056003
20
76.8452963244
10
7.50896186617
20
76.8926443627
10
7.49491226679
20
76.939836756
10
7.48128410463
20
76.9867804071
10
7.4681097224
20
77.0333822184
10
7.45542146282
20
77.0795490927
10
7.44325166862
20
77.1251879326
10
7.43163268252
20
77.1702056406
10
7.42059684724
20
77.2145091194
10
7.41017650549
20
77.2580052717
10
7.400404
20
77.300601
10
7.39043441972
20
77.3432315514
10
7.3794302631
20
77.3868302375
10
7.36743382579
20
77.4313022189
10
7.35448740344
20
77.4765526564
10
7.34063329173
20
77.5224867106
10
7.32591378631
20
77.5690095422
10
7.31037118284
20
77.616026312
10
7.29404777698
20
77.6634421805
10
7.27698586439
20
77.7111623085
10
7.25922774073
20
77.7590918566
10
7.24081570165
20
77.8071359856
10
7.22179204283
20
77.8551998562
10
7.20219905992
20
77.9031886289
10
7.18207904857
20
77.9510074646
10
7.16147430445
20
77.9985615238
10
7.14042712323
20
78.0457559673
10
7.11897980054
20
78.0924959558
10
7.09717463207
20
78.13868665
10
7.07505391346
20
78.1842332104
10
7.05265994038
20
78.2290407979
10
7.03003500849
20
78.2730145731
10
7.00722141345
20
78.3160596967
10
6.98426145091
20
78.3580813294
10
6.96119741654
20
78.3989846318
10
6.93807160599
20
78.4386747647
10
6.91492631493
20
78.4770568888
10
6.89180383901
20
78.5140361646
10
6.8687464739
20
78.549517753
10
6.84579651526
20
78.5834068145
10
6.82299625874
20
78.61560851
10
6.800388
20
78.646028
10
6.73790354657
20
78.7293398597
10
6.67893071807
20
78.810887333
10
6.62345008633
20
78.8907830036
10
6.57144222322
20
78.969139455
10
6.52288770058
20
79.0460692707
10
6.47776709026
20
79.1216850342
10
6.43606096412
20
79.1960993291
10
6.39774989399
20
79.2694247389
10
6.36281445175
20
79.3417738471
10
6.33123520922
20
79.4132592373
10
6.30299273828
20
79.483993493
10
6.27806761075
20
79.5540891977
10
6.25644039851
20
79.6236589349
10
6.23809167339
20
79.6928152883
10
6.22300200725
20
79.7616708413
10
6.21115197194
20
79.8303381774
10
6.2025221393
20
79.8989298803
10
6.1970930812
20
79.9675585333
10
6.19484536947
20
80.0363367201
10
6.19575957598
20
80.1053770242
10
6.19981627257
20
80.1747920291
10
6.20699603108
20
80.2446943184
10
6.21727942338
20
80.3151964755
10
6.23064702132
20
80.386411084
10
6.24707939673
20
80.4584507275
10
6.26655712148
20
80.5314279895
10
6.28906076741
20
80.6054554534
10
6.31457090638
20
80.6806457029
10
6.34306811023
20
80.7571113215
10
6.37453295082
20
80.8349648927
10
6.408946
20
80.914319
10
6.45843751892
20
81.0260036064
10
6.50367544164
20
81.1307440821
10
6.54451133329
20
81.2286184444
10
6.58079675895
20
81.3197047102
10
6.61238328374
20
81.4040808967
10
6.63912247276
20
81.4818250211
10
6.66086589111
20
81.5530151004
10
6.67746510389
20
81.6177291518
10
6.68877167621
20
81.6760451924
10
6.69463717317
20
81.7280412393
10
6.69491315988
20
81.7737953096
10
6.68945120144
20
81.8133854205
10
6.67810286295
20
81.846889589
10
6.66071970951
20
81.8743858323
10
6.63715330623
20
81.8959521676
10
6.60725521822
20
81.9116666118
10
6.57087701057
20
81.9216071822
10
6.5278702484
20
81.9258518959
10
6.47808649679
20
81.92447877
10
6.42137732087
20
81.9175658215
10
6.35759428572
20
81.9051910677
10
6.28658895646
20
81.8874325256
10
6.20821289819
20
81.8643682124
10
6.12231767601
20
81.8360761452
10
6.02875485502
20
81.802634341
10
5.92737600034
20
81.7641208171
10
5.81803267705
20
81.7206135905
10
5.70057645027
20
81.6721906784
10
5.5748588851
20
81.6189300979
10
5.44073154664
20
81.560909866
10
5.298046
20
81.498208
10
5.24681137424
20
81.4756717116
10
5.19608211359
20
81.453598989
10
5.14593065913
20
81.4320156918
10
5.09642945192
20
81.4109476791
10
5.04765093303
20
81.3904208104
10
4.99966754355
20
81.3704609451
10
4.95255172455
20
81.3510939424
10
4.90637591709
20
81.3323456617
10
4.86121256225
20
81.3142419624
10
4.8171341011
20
81.2968087039
10
4.77421297472
20
81.2800717455
10
4.73252162418
20
81.2640569465
10
4.69213249055
20
81.2487901663
10
4.6531180149
20
81.2342972642
10
4.61555063831
20
81.2206040997
10
4.57950280185
20
81.207736532
10
4.54504694659
20
81.1957204205
10
4.51225551361
20
81.1845816246
10
4.48120094398
20
81.1743460036
10
4.45195567876
20
81.1650394169
10
4.42459215904
20
81.1566877238
10
4.39918282589
20
81.1493167837
10
4.37580012037
20
81.1429524559
10
4.35451648357
20
81.1376205998
10
4.33540435655
20
81.1333470747
10
4.31853618039
20
81.1301577401
10
4.30398439616
20
81.1280784551
10
4.29182144493
20
81.1271350793
10
4.28211976778
20
81.127353472
10
4.27495180578
20
81.1287594924
10
4.27039
20
81.131379
10
4.26810733621
20
81.1352808138
10
4.26770029425
20
81.1404906842
10
4.26912597566
20
81.1469695773
10
4.27234148199
20
81.154678459
10
4.27730391477
20
81.1635782956
10
4.28397037555
20
81.173630053
10
4.29229796586
20
81.1847946973
10
4.30224378725
20
81.1970331946
10
4.31376494126
20
81.210306511
10
4.32681852942
20
81.2245756124
10
4.34136165328
20
81.239801465
10
4.35735141439
20
81.2559450348
10
4.37474491427
20
81.272967288
10
4.39349925447
20
81.2908291905
10
4.41357153654
20
81.3094917084
10
4.43491886201
20
81.3289158078
10
4.45749833242
20
81.3490624547
10
4.48126704931
20
81.3698926153
10
4.50618211423
20
81.3913672555
10
4.53220062871
20
81.4134473414
10
4.5592796943
20
81.4360938392
10
4.58737641254
20
81.4592677148
10
4.61644788497
20
81.4829299344
10
4.64645121312
20
81.507041464
10
4.67734349854
20
81.5315632696
10
4.70908184277
20
81.5564563173
10
4.74162334735
20
81.5816815732
10
4.77492511383
20
81.6072000034
10
4.80894424373
20
81.6329725739
10
4.84363783861
20
81.6589602507
10
4.878963
20
81.685124
10
4.91431536649
20
81.7115260394
10
4.9490902295
20
81.7382205484
10
4.98324329888
20
81.7651564355
10
5.01673028448
20
81.7922826095
10
5.04950689614
20
81.8195479791
10
5.08152884371
20
81.8469014528
10
5.11275183703
20
81.8742919394
10
5.14313158595
20
81.9016683475
10
5.17262380031
20
81.9289795858
10
5.20118418996
20
81.9561745629
10
5.22876846474
20
81.9832021876
10
5.2553323345
20
82.0100113684
10
5.28083150908
20
82.0365510141
10
5.30522169833
20
82.0627700332
10
5.3284586121
20
82.0886173346
10
5.35049796022
20
82.1140418267
10
5.37129545255
20
82.1389924184
10
5.39080679893
20
82.1634180182
10
5.40898770921
20
82.1872675348
10
5.42579389322
20
82.2104898769
10
5.44118106082
20
82.2330339532
10
5.45510492186
20
82.2548486723
10
5.46752118616
20
82.2758829428
10
5.47838556359
20
82.2960856735
10
5.48765376399
20
82.315405773
10
5.4952814972
20
82.33379215
10
5.50122447306
20
82.3511937131
10
5.50543840143
20
82.367559371
10
5.50787899215
20
82.3828380323
10
5.50850195505
20
82.3969786058
10
5.507263
20
82.40993
10
5.50370323168
20
82.4226914682
10
5.49744261827
20
82.4362692417
10
5.48855429388
20
82.4506218256
10
5.4771113926
20
82.4657077251
10
5.46318704854
20
82.4814854453
10
5.44685439579
20
82.4979134913
10
5.42818656846
20
82.5149503682
10
5.40725670065
20
82.5325545811
10
5.38413792645
20
82.5506846352
10
5.35890337998
20
82.5692990356
10
5.33162619533
20
82.5883562874
10
5.3023795066
20
82.6078148957
10
5.27123644789
20
82.6276333656
10
5.2382701533
20
82.6477702023
10
5.20355375694
20
82.6681839109
10
5.1671603929
20
82.6888329965
10
5.12916319529
20
82.7096759642
10
5.08963529821
20
82.7306713191
10
5.04864983576
20
82.7517775663
10
5.00627994203
20
82.772953211
10
4.96259875113
20
82.7941567583
10
4.91767939717
20
82.8153467134
10
4.87159501423
20
82.8364815812
10
4.82441873643
20
82.857519867
10
4.77622369786
20
82.8784200759
10
4.72708303263
20
82.8991407129
10
4.67706987483
20
82.9196402832
10
4.62625735856
20
82.939877292
10
4.57471861794
20
82.9598102443
10
4.52252678705
20
82.9793976453
10
4.469755
20
82.998598
10
4.41693217217
20
83.0178052423
10
4.36458894132
20
83.037413834
10
4.31280102518
20
83.0573819113
10
4.26164414142
20
83.0776676104
10
4.21119400775
20
83.0982290674
10
4.16152634188
20
83.1190244185
10
4.1127168615
20
83.1400117998
10
4.06484128431
20
83.1611493475
10
4.01797532802
20
83.1823951976
10
3.97219471032
20
83.2037074864
10
3.9275751489
20
83.22504435
10
3.88419236149
20
83.2463639246
10
3.84212206576
20
83.2676243463
10
3.80143997942
20
83.2887837512
10
3.76222182018
20
83.3098002755
10
3.72454330573
20
83.3306320554
10
3.68848015377
20
83.3512372269
10
3.654108082
20
83.3715739264
10
3.62150280813
20
83.3916002898
10
3.59074004985
20
83.4112744533
10
3.56189552486
20
83.4305545531
10
3.53504495086
20
83.4493987254
10
3.51026404555
20
83.4677651062
10
3.48762852664
20
83.4856118318
10
3.46721411181
20
83.5028970383
10
3.44909651878
20
83.5195788618
10
3.43335146524
20
83.5356154385
10
3.42005466889
20
83.5509649045
10
3.40928184744
20
83.565585396
10
3.40110871857
20
83.5794350491
10
3.395611
20
83.592472
10
3.39035655483
20
83.6091632736
10
3.38585396519
20
83.6249010713
10
3.38211499503
20
83.6396901002
10
3.37915140831
20
83.6535350675
10
3.37697496898
20
83.6664406805
10
3.37559744101
20
83.6784116463
10
3.37503058833
20
83.6894526721
10
3.37528617492
20
83.6995684651
10
3.37637596472
20
83.7087637325
10
3.37831172169
20
83.7170431816
10
3.38110520979
20
83.7244115194
10
3.38476819298
20
83.7308734532
10
3.3893124352
20
83.7364336902
10
3.39474970041
20
83.7410969375
10
3.40109175258
20
83.7448679025
10
3.40835035564
20
83.7477512921
10
3.41653727357
20
83.7497518138
10
3.42566427032
20
83.7508741745
10
3.43574310983
20
83.7511230817
10
3.44678555607
20
83.7505032423
10
3.458803373
20
83.7490193637
10
3.47180832456
20
83.746676153
10
3.48581217472
20
83.7434783174
10
3.50082668742
20
83.7394305641
10
3.51686362663
20
83.7345376003
10
3.5339347563
20
83.7288041333
10
3.55205184039
20
83.7222348701
10
3.57122664285
20
83.7148345179
10
3.59147092763
20
83.7066077841
10
3.6127964587
20
83.6975593757
10
3.635215
20
83.687694
10
3.70790370135
20
83.6572466642
10
3.78445614672
20
83.6291051908
10
3.86470833195
20
83.6032643807
10
3.94849625286
20
83.5797190349
10
4.03565590531
20
83.5584639545
10
4.12602328512
20
83.5394939404
10
4.21943438814
20
83.5228037935
10
4.3157252102
20
83.5083883149
10
4.41473174714
20
83.4962423056
10
4.5162899948
20
83.4863605664
10
4.62023594901
20
83.4787378985
10
4.72640560562
20
83.4733691027
10
4.83463496046
20
83.4702489801
10
4.94476000937
20
83.4693723316
10
5.05661674818
20
83.4707339582
10
5.17004117274
20
83.4743286609
10
5.28486927888
20
83.4801512407
10
5.40093706243
20
83.4881964986
10
5.51808051925
20
83.4984592355
10
5.63613564516
20
83.5109342524
10
5.754938436
20
83.5256163503
10
5.87432488762
20
83.5425003302
10
5.99413099584
20
83.5615809931
10
6.1141927565
20
83.5828531399
10
6.23434616545
20
83.6063115716
10
6.35442721852
20
83.6319510892
10
6.47427191155
20
83.6597664937
10
6.59371624037
20
83.689752586
10
6.71259620083
20
83.7219041672
10
6.83074778876
20
83.7562160382
10
6.948007
20
83.792683
10
7.08721428915
20
83.8391169621
10
7.22306286989
20
83.8878419479
10
7.35561700574
20
83.9389164126
10
7.48494096019
20
83.9923988119
10
7.61109899674
20
84.0483476011
10
7.73415537891
20
84.1068212356
10
7.85417437018
20
84.1678781709
10
7.97122023406
20
84.2315768624
10
8.08535723406
20
84.2979757657
10
8.19664963368
20
84.367133336
10
8.30516169642
20
84.4391080289
10
8.41095768578
20
84.5139582998
10
8.51410186526
20
84.5917426041
10
8.61465849837
20
84.6725193973
10
8.71269184861
20
84.7563471348
10
8.80826617948
20
84.8432842721
10
8.90144575449
20
84.9333892645
10
8.99229483713
20
85.0267205676
10
9.08087769091
20
85.1233366367
10
9.16725857934
20
85.2232959274
10
9.2515017659
20
85.326656895
10
9.33367151412
20
85.433477995
10
9.41383208748
20
85.5438176828
10
9.49204774949
20
85.6577344139
10
9.56838276365
20
85.7752866437
10
9.64290139347
20
85.8965328277
10
9.71566790245
20
86.0215314212
10
9.78674655409
20
86.1503408798
10
9.8562016119
20
86.2830196588
10
9.92409733936
20
86.4196262137
10
9.990498
20
86.560219
10
10.0154155312
20
86.6141824964
10
10.0411040873
20
86.6695406587
10
10.0675031281
20
86.7261692227
10
10.0945521134
20
86.783943924
10
10.1221905031
20
86.8427404984
10
10.150357757
20
86.9024346816
10
10.178993335
20
86.9629022092
10
10.2080366969
20
87.0240188169
10
10.2374273025
20
87.0856602404
10
10.2671046117
20
87.1477022154
10
10.2970080843
20
87.2100204776
10
10.3270771802
20
87.2724907627
10
10.3572513591
20
87.3349888065
10
10.3874700809
20
87.3973903444
10
10.4176728055
20
87.4595711124
10
10.4477989926
20
87.521406846
10
10.4777881022
20
87.582773281
10
10.5075795941
20
87.643546153
10
10.5371129281
20
87.7036011977
10
10.566327564
20
87.7628141509
10
10.5951629616
20
87.8210607482
10
10.6235585809
20
87.8782167253
10
10.6514538816
20
87.9341578179
10
10.6787883237
20
87.9887597617
10
10.7055013668
20
88.0418982924
10
10.7315324709
20
88.0934491457
10
10.7568210958
20
88.1432880572
10
10.7813067013
20
88.1912907627
10
10.8049287473
20
88.2373329979
10
10.8276266936
20
88.2812904984
10
10.84934
20
88.323039
10
10.8709265468
20
88.3654948214
10
10.893249061
20
88.4115504205
10
10.9162534019
20
88.4610457414
10
10.9398854286
20
88.5138207282
10
10.9640910005
20
88.5697153251
10
10.9888159766
20
88.6285694762
10
11.0140062163
20
88.6902231257
10
11.0396075788
20
88.7545162177
10
11.0655659232
20
88.8212886964
10
11.0918271089
20
88.8903805058
10
11.1183369949
20
88.9616315902
10
11.1450414406
20
89.0348818938
10
11.1718863051
20
89.1099713605
10
11.1988174477
20
89.1867399346
10
11.2257807276
20
89.2650275603
10
11.252722004
20
89.3446741816
10
11.2795871361
20
89.4255197428
10
11.3063219831
20
89.5074041879
10
11.3328724044
20
89.5901674611
10
11.359184259
20
89.6736495065
10
11.3852034062
20
89.7576902684
10
11.4108757053
20
89.8421296907
10
11.4361470154
20
89.9268077178
10
11.4609631957
20
90.0115642937
10
11.4852701056
20
90.0962393625
10
11.5090136041
20
90.1806728685
10
11.5321395506
20
90.2647047557
10
11.5545938042
20
90.3481749683
10
11.5763222241
20
90.4309234505
10
11.5972706697
20
90.5127901463
10
11.617385
20
90.593615
10
11.6932122297
20
90.8881095071
10
11.7760561303
20
91.1819459954
10
11.8658103735
20
91.4749573348
10
11.9623686312
20
91.7669763951
10
12.0656245752
20
92.0578360461
10
12.1754718774
20
92.3473691578
10
12.2918042097
20
92.6354086
10
12.4145152439
20
92.9217872426
10
12.5434986518
20
93.2063379554
10
12.6786481053
20
93.4888936083
10
12.8198572762
20
93.7692870711
10
12.9670198364
20
94.0473512138
10
13.1200294578
20
94.322918906
10
13.2787798121
20
94.5958230179
10
13.4431645712
20
94.8658964191
10
13.613077407
20
95.1329719795
10
13.7884119913
20
95.396882569
10
13.9690619959
20
95.6574610575
10
14.1549210928
20
95.9145403149
10
14.3458829537
20
96.1679532109
10
14.5418412506
20
96.4175326154
10
14.7426896552
20
96.6631113984
10
14.9483218393
20
96.9045224296
10
15.158631475
20
97.1415985789
10
15.3735122339
20
97.3741727163
10
15.592857788
20
97.6020777114
10
15.816561809
20
97.8251464343
10
16.0445179689
20
98.0432117547
10
16.2766199394
20
98.2561065426
10
16.5127613925
20
98.4636636677
10
16.752836
20
98.665716
10
16.9122832937
20
98.7973181402
10
17.0606812488
20
98.9200376188
10
17.1992105244
20
99.0341817327
10
17.3290517799
20
99.1400577788
10
17.4513856746
20
99.2379730538
10
17.5673928676
20
99.3282348546
10
17.6782540182
20
99.4111504781
10
17.7851497858
20
99.487027221
10
17.8892608295
20
99.5561723802
10
17.9917678086
20
99.6188932525
10
18.0938513824
20
99.6754971348
10
18.1966922101
20
99.726291324
10
18.3014709511
20
99.7715831167
10
18.4093682644
20
99.8116798099
10
18.5215648095
20
99.8468887005
10
18.6392412456
20
99.8775170852
10
18.7635782319
20
99.9038722608
10
18.8957564277
20
99.9262615243
10
19.0369564923
20
99.9449921724
10
19.1883590848
20
99.960371502
10
19.3511448647
20
99.9727068099
10
19.526494491
20
99.982305393
10
19.7155886232
20
99.989474548
10
19.9196079204
20
99.9945215719
10
20.1397330419
20
99.9977537614
10
20.377144647
20
99.9994784134
10
20.6330233949
20
100.000002825
10
20.9085499449
20
99.9996342922
10
21.2049049562
20
99.9986801127
10
21.5232690882
20
99.997447583
10
21.864823
20
99.996244
10
22.2313570733
20
99.9942276148
10
22.594257291
20
99.990456244
10
22.953253456
20
99.9849544358
10
23.3080753714
20
99.9777467384
10
23.6584528402
20
99.9688577001
10
24.0041156655
20
99.9583118691
10
24.3447936503
20
99.9461337936
10
24.6802165975
20
99.9323480218
10
25.0101143103
20
99.9169791019
10
25.3342165917
20
99.9000515822
10
25.6522532446
20
99.8815900108
10
25.9639540722
20
99.8616189361
10
26.2690488774
20
99.8401629061
10
26.5672674633
20
99.8172464692
10
26.8583396329
20
99.7928941735
10
27.1419951892
20
99.7671305674
10
27.4179639352
20
99.7399801989
10
27.6859756741
20
99.7114676163
10
27.9457602088
20
99.6816173678
10
28.1970473423
20
99.6504540017
10
28.4395668776
20
99.6180020661
10
28.6730486179
20
99.5842861094
10
28.8972223661
20
99.5493306796
10
29.1118179252
20
99.5131603251
10
29.3165650983
20
99.475799594
10
29.5111936884
20
99.4372730345
10
29.6954334985
20
99.397605195
10
29.8690143317
20
99.3568206235
10
30.031665991
20
99.3149438684
10
30.1831182794
20
99.2719994778
10
30.323101
20
99.228012
10
30.4817512679
20
99.1729357126
10
30.6421551679
20
99.1124171056
10
30.8041583448
20
99.0465702714
10
30.9676064431
20
98.9755093024
10
31.1323451076
20
98.8993482912
10
31.2982199829
20
98.8182013301
10
31.4650767137
20
98.7321825116
10
31.6327609445
20
98.6414059281
10
31.8011183202
20
98.5459856721
10
31.9699944853
20
98.4460358361
10
32.1392350845
20
98.3416705124
10
32.3086857624
20
98.2330037935
10
32.4781921637
20
98.1201497719
10
32.6475999331
20
98.00322254
10
32.8167547152
20
97.8823361902
10
32.9855021547
20
97.757604815
10
33.1536878962
20
97.6291425069
10
33.3211575845
20
97.4970633582
10
33.4877568641
20
97.3614814614
10
33.6533313796
20
97.2225109091
10
33.8177267759
20
97.0802657935
10
33.9807886975
20
96.9348602072
10
34.1423627891
20
96.7864082426
10
34.3022946953
20
96.6350239921
10
34.4604300608
20
96.4808215482
10
34.6166145303
20
96.3239150033
10
34.7706937483
20
96.1644184499
10
34.9225133597
20
96.0024459805
10
35.071919009
20
95.8381116874
10
35.2187563409
20
95.6715296631
10
35.362871
20
95.502814
10
35.432453816
20
95.4195638288
10
35.5022863663
20
95.3350708113
10
35.5722469662
20
95.2495040304
10
35.6422139305
20
95.1630325691
10
35.7120655745
20
95.0758255104
10
35.7816802132
20
94.9880519371
10
35.8509361616
20
94.8998809323
10
35.9197117347
20
94.8114815788
10
35.9878852477
20
94.7230229597
10
36.0553350156
20
94.6346741578
10
36.1219393535
20
94.5466042561
10
36.1875765764
20
94.4589823376
10
36.2521249995
20
94.3719774851
10
36.3154629376
20
94.2857587817
10
36.377468706
20
94.2004953103
10
36.4380206197
20
94.1163561538
10
36.4969969937
20
94.0335103952
10
36.5542761431
20
93.9521271174
10
36.609736383
20
93.8723754033
10
36.6632560284
20
93.794424336
10
36.7147133943
20
93.7184429983
10
36.763986796
20
93.6446004732
10
36.8109545483
20
93.5730658437
10
36.8554949664
20
93.5040081926
10
36.8974863654
20
93.437596603
10
36.9368070602
20
93.3740001577
10
36.973335366
20
93.3133879397
10
37.0069495978
20
93.2559290321
10
37.0375280707
20
93.2017925176
10
37.0649490998
20
93.1511474792
10
37.089091
20
93.104163
10
37.163716721
20
92.9465500535
10
37.2363505973
20
92.777282113
10
37.3070162472
20
92.5961837203
10
37.375737289
20
92.4030794172
10
37.4425373412
20
92.1977937455
10
37.507440022
20
91.9801512472
10
37.5704689498
20
91.749976464
10
37.6316477429
20
91.5070939378
10
37.6910000197
20
91.2513282104
10
37.7485493985
20
90.9825038237
10
37.8043194977
20
90.7004453196
10
37.8583339355
20
90.4049772397
10
37.9106163304
20
90.0959241261
10
37.9611903007
20
89.7731105205
10
38.0100794646
20
89.4363609648
10
38.0573074407
20
89.0855000008
10
38.1028978471
20
88.7203521704
10
38.1468743023
20
88.3407420154
10
38.1892604245
20
87.9464940776
10
38.2300798322
20
87.537432899
10
38.2693561436
20
87.1133830212
10
38.3071129772
20
86.6741689862
10
38.3433739512
20
86.2196153359
10
38.3781626839
20
85.749546612
10
38.4115027938
20
85.2637873563
10
38.4434178992
20
84.7621621109
10
38.4739316184
20
84.2444954174
10
38.5030675697
20
83.7106118177
10
38.5308493715
20
83.1603358537
10
38.5573006422
20
82.5934920672
10
38.582445
20
82.009905
10
38.665966
20
79.991613
10
38.105376
20
81.168951
10
38.0455711616
20
81.2945857401
10
37.9896442046
20
81.4117180573
10
37.9374000465
20
81.520121258
10
37.8886436052
20
81.6195686488
10
37.8431797985
20
81.7098335362
10
37.8008135439
20
81.7906892266
10
37.7613497593
20
81.8619090266
10
37.7245933623
20
81.9232662426
10
37.6903492707
20
81.9745341812
10
37.6584224023
20
82.0154861489
10
37.6286176747
20
82.0458954521
10
37.6007400056
20
82.0655353974
10
37.5745943129
20
82.0741792913
10
37.5499855142
20
82.0716004403
10
37.5267185273
20
82.0575721509
10
37.5045982698
20
82.0318677295
10
37.4834296596
20
81.9942604827
10
37.4630176142
20
81.944523717
10
37.4431670516
20
81.8824307389
10
37.4236828893
20
81.8077548549
10
37.4043700452
20
81.7202693714
10
37.3850334369
20
81.6197475951
10
37.3654779821
20
81.5059628323
10
37.3455085987
20
81.3786883897
10
37.3249302043
20
81.2376975736
10
37.3035477166
20
81.0827636907
10
37.2811660534
20
80.9136600473
10
37.2575901325
20
80.7301599501
10
37.2326248714
20
80.5320367054
10
37.206075188
20
80.3190636199
10
37.177746
20
80.091014
10
37.1500710617
20
79.8693859753
10
37.1242009449
20
79.6626524743
10
37.100381052
20
79.4700845828
10
37.0788567851
20
79.2909533865
10
37.0598735466
20
79.1245299711
10
37.0436767385
20
78.9700854222
10
37.0305117633
20
78.8268908257
10
37.020624023
20
78.694217267
10
37.01425892
20
78.5713358321
10
37.0116618565
20
78.4575176065
10
37.0130782346
20
78.3520336759
10
37.0187534567
20
78.2541551261
10
37.028932925
20
78.1631530428
10
37.0438620418
20
78.0782985116
10
37.0637862091
20
77.9988626182
10
37.0889508294
20
77.9241164484
10
37.1196013048
20
77.8533310878
10
37.1559830375
20
77.7857776222
10
37.1983414298
20
77.7207271372
10
37.246921884
20
77.6574507185
10
37.3019698022
20
77.5952194518
10
37.3637305868
20
77.5333044229
10
37.4324496398
20
77.4709767174
10
37.5083723637
20
77.407507421
10
37.5917441605
20
77.3421676194
10
37.6828104326
20
77.2742283983
10
37.7818165822
20
77.2029608434
10
37.8890080115
20
77.1276360405
10
38.0046301227
20
77.0475250751
10
38.1289283181
20
76.9618990331
10
38.262148
20
76.870029
10
38.3783256116
20
76.7885157931
10
38.4919432504
20
76.7064088432
10
38.6028866713
20
76.6238409629
10
38.7110416289
20
76.540944965
10
38.8162938779
20
76.457853662
10
38.918529173
20
76.3746998666
10
39.0176332689
20
76.2916163916
10
39.1134919202
20
76.2087360495
10
39.2059908817
20
76.126191653
10
39.2950159081
20
76.0441160149
10
39.380452754
20
75.9626419476
10
39.4621871741
20
75.881902264
10
39.5401049232
20
75.8020297766
10
39.6140917558
20
75.7231572982
10
39.6840334268
20
75.6454176414
10
39.7498156908
20
75.5689436188
10
39.8113243024
20
75.4938680431
10
39.8684450165
20
75.420323727
10
39.9210635876
20
75.3484434831
10
39.9690657705
20
75.2783601242
10
40.0123373198
20
75.2102064628
10
40.0507639903
20
75.1441153116
10
40.0842315366
20
75.0802194833
10
40.1126257134
20
75.0186517905
10
40.1358322755
20
74.959545046
10
40.1537369774
20
74.9030320623
10
40.166225574
20
74.8492456521
10
40.1731838198
20
74.7983186281
10
40.1744974696
20
74.750383803
10
40.1700522781
20
74.7055739894
10
40.159734
20
74.664022
10
40.1557282227
20
74.6543362981
10
40.1507268764
20
74.6462498206
10
40.1447613911
20
74.6397388327
10
40.1378631967
20
74.6347795993
10
40.1300637232
20
74.6313483855
10
40.1213944006
20
74.6294214563
10
40.1118866588
20
74.6289750769
10
40.1015719277
20
74.6299855122
10
40.0904816374
20
74.6324290273
10
40.0786472178
20
74.6362818872
10
40.0661000988
20
74.641520357
10
40.0528717104
20
74.6481207018
10
40.0389934827
20
74.6560591865
10
40.0244968455
20
74.6653120762
10
40.0094132288
20
74.675855636
10
39.9937740626
20
74.6876661309
10
39.9776107768
20
74.700719826
10
39.9609548014
20
74.7149929863
10
39.9438375663
20
74.7304618768
10
39.9262905016
20
74.7471027626
10
39.9083450372
20
74.7648919088
10
39.890032603
20
74.7838055804
10
39.871384629
20
74.8038200424
10
39.8524325452
20
74.8249115599
10
39.8332077815
20
74.847056398
10
39.8137417679
20
74.8702308216
10
39.7940659344
20
74.8944110958
10
39.7742117109
20
74.9195734858
10
39.7542105273
20
74.9456942564
10
39.7340938137
20
74.9727496728
10
39.713893
20
75.000716
10
39.6935977489
20
75.0289572319
10
39.6732012887
20
75.0568275182
10
39.6527398172
20
75.0842892284
10
39.6322495321
20
75.1113047323
10
39.6117666313
20
75.1378363994
10
39.5913273125
20
75.1638465995
10
39.5709677735
20
75.1892977021
10
39.5507242121
20
75.2141520769
10
39.5306328261
20
75.2383720936
10
39.5107298131
20
75.2619201217
10
39.4910513711
20
75.284758531
10
39.4716336978
20
75.306849691
10
39.4525129909
20
75.3281559714
10
39.4337254483
20
75.3486397419
10
39.4153072677
20
75.368263372
10
39.3972946469
20
75.3869892315
10
39.3797237837
20
75.40477969
10
39.3626308759
20
75.421597117
10
39.3460521211
20
75.4374038824
10
39.3300237173
20
75.4521623556
10
39.3145818622
20
75.4658349064
10
39.2997627535
20
75.4783839043
10
39.2856025891
20
75.4897717191
10
39.2721375667
20
75.4999607204
10
39.2594038842
20
75.5089132777
10
39.2474377391
20
75.5165917608
10
39.2362753295
20
75.5229585393
10
39.225952853
20
75.5279759828
10
39.2165065074
20
75.531606461
10
39.2079724905
20
75.5338123435
10
39.200387
20
75.534556
10
39.1932035681
20
75.5331501275
10
39.1858621631
20
75.5289799374
10
39.178378637
20
75.5221165713
10
39.1707688418
20
75.5126311706
10
39.1630486295
20
75.5005948767
10
39.1552338523
20
75.4860788309
10
39.1473403621
20
75.4691541748
10
39.1393840109
20
75.4498920497
10
39.1313806509
20
75.428363597
10
39.123346134
20
75.4046399582
10
39.1152963122
20
75.3787922747
10
39.1072470377
20
75.350891688
10
39.0992141625
20
75.3210093393
10
39.0912135385
20
75.2892163702
10
39.0832610178
20
75.255583922
10
39.0753724525
20
75.2201831362
10
39.0675636946
20
75.1830851543
10
39.0598505961
20
75.1443611175
10
39.0522490091
20
75.1040821674
10
39.0447747856
20
75.0623194453
10
39.0374437776
20
75.0191440927
10
39.0302718372
20
74.974627251
10
39.0232748164
20
74.9288400617
10
39.0164685672
20
74.881853666
10
39.0098689417
20
74.8337392055
10
39.0034917919
20
74.7845678216
10
38.9973529699
20
74.7344106556
10
38.9914683276
20
74.683338849
10
38.9858537172
20
74.6314235433
10
38.9805249907
20
74.5787358798
10
38.975498
20
74.525347
10
38.9693084203
20
74.4615854796
10
38.9623333767
20
74.3981346475
10
38.9545768642
20
74.3350076456
10
38.946042878
20
74.2722176158
10
38.936735413
20
74.2097777002
10
38.9266584642
20
74.1477010407
10
38.9158160268
20
74.0860007792
10
38.9042120957
20
74.0246900577
10
38.8918506659
20
73.9637820182
10
38.8787357325
20
73.9032898025
10
38.8648712906
20
73.8432265528
10
38.8502613351
20
73.7836054108
10
38.8349098611
20
73.7244395186
10
38.8188208636
20
73.6657420182
10
38.8019983377
20
73.6075260514
10
38.7844462783
20
73.5498047603
10
38.7661686806
20
73.4925912867
10
38.7471695395
20
73.4358987728
10
38.7274528501
20
73.3797403603
10
38.7070226074
20
73.3241291913
10
38.6858828065
20
73.2690784077
10
38.6640374423
20
73.2146011515
10
38.64149051
20
73.1607105646
10
38.6182460044
20
73.107419789
10
38.5943079208
20
73.0547419666
10
38.569680254
20
73.0026902394
10
38.5443669992
20
72.9512777494
10
38.5183721514
20
72.9005176385
10
38.4916997055
20
72.8504230487
10
38.4643536567
20
72.8010071218
10
38.436338
20
72.752283
10
37.988694
20
71.988431
10
38.529534
20
71.372451
10
38.5957349299
20
71.295234834
10
38.6610968753
20
71.2153519299
10
38.7256024083
20
71.1328403883
10
38.7892341012
20
71.04773831
10
38.8519745262
20
70.9600837955
10
38.9138062553
20
70.8699149454
10
38.9747118609
20
70.7772698605
10
39.034673915
20
70.6821866412
10
39.0936749899
20
70.5847033884
10
39.1516976578
20
70.4848582025
10
39.2087244909
20
70.3826891843
10
39.2647380612
20
70.2782344343
10
39.3197209411
20
70.1715320533
10
39.3736557027
20
70.0626201418
10
39.4265249182
20
69.9515368004
10
39.4783111598
20
69.8383201299
10
39.5289969997
20
69.7230082308
10
39.57856501
20
69.6056392038
10
39.6269977629
20
69.4862511494
10
39.6742778307
20
69.3648821685
10
39.7203877855
20
69.2415703615
10
39.7653101995
20
69.1163538291
10
39.8090276448
20
68.989270672
10
39.8515226938
20
68.8603589907
10
39.8927779185
20
68.729656886
10
39.9327758911
20
68.5972024584
10
39.9714991839
20
68.4630338086
10
40.008930369
20
68.3271890373
10
40.0450520186
20
68.1897062449
10
40.0798467048
20
68.0506235323
10
40.113297
20
67.909979
10
40.1343590599
20
67.8178140624
10
40.1541047944
20
67.7285876012
10
40.1725425357
20
67.6419954018
10
40.1896806161
20
67.5577332497
10
40.2055273679
20
67.4754969302
10
40.2200911233
20
67.394982229
10
40.2333802145
20
67.3158849313
10
40.2454029738
20
67.2379008226
10
40.2561677334
20
67.1607256883
10
40.2656828256
20
67.084055314
10
40.2739565826
20
67.007585485
10
40.2809973367
20
66.9310119867
10
40.2868134202
20
66.8540306047
10
40.2914131652
20
66.7763371243
10
40.2948049041
20
66.697627331
10
40.296996969
20
66.6175970103
10
40.2979976922
20
66.5359419475
10
40.297815406
20
66.4523579281
10
40.2964584427
20
66.3665407375
10
40.2939351343
20
66.2781861612
10
40.2902538133
20
66.1869899847
10
40.2854228119
20
66.0926479933
10
40.2794504623
20
65.9948559724
10
40.2723450967
20
65.8933097077
10
40.2641150474
20
65.7877049844
10
40.2547686467
20
65.677737588
10
40.2443142267
20
65.5631033039
10
40.2327601199
20
65.4434979177
10
40.2201146583
20
65.3186172146
10
40.2063861742
20
65.1881569803
10
40.191583
20
65.051813
10
40.1713646934
20
64.8754786899
10
40.1499780932
20
64.703574584
10
40.1273655179
20
64.5359327574
10
40.1034692858
20
64.3723852852
10
40.0782317152
20
64.2127642425
10
40.0515951245
20
64.0569017044
10
40.0235018321
20
63.9046297462
10
39.9938941563
20
63.7557804428
10
39.9627144154
20
63.6101858694
10
39.9299049278
20
63.4676781012
10
39.8954080118
20
63.3280892133
10
39.8591659859
20
63.1912512807
10
39.8211211683
20
63.0569963786
10
39.7812158774
20
62.9251565822
10
39.7393924315
20
62.7955639666
10
39.6955931491
20
62.6680506068
10
39.6497603484
20
62.542448578
10
39.6018363479
20
62.4185899554
10
39.5517634657
20
62.296306814
10
39.4994840204
20
62.175431229
10
39.4449403303
20
62.0557952755
10
39.3880747137
20
61.9372310286
10
39.3288294889
20
61.8195705635
10
39.2671469744
20
61.7026459552
10
39.2029694884
20
61.5862892789
10
39.1362393493
20
61.4703326097
10
39.0668988755
20
61.3546080228
10
38.9948903853
20
61.2389475933
10
38.9201561971
20
61.1231833962
10
38.8426386292
20
61.0071475067
10
38.76228
20
60.890672
10
38.6793903385
20
60.7719766887
10
38.6014579397
20
60.6593653264
10
38.5282999084
20
60.5522497062
10
38.4597333491
20
60.4500416209
10
38.3955753666
20
60.3521528635
10
38.3356430653
20
60.257995227
10
38.27975355
20
60.1669805043
10
38.2277239252
20
60.0785204885
10
38.1793712957
20
59.9920269723
10
38.1345127659
20
59.9069117489
10
38.0929654407
20
59.8225866112
10
38.0545464245
20
59.738463352
10
38.019072822
20
59.6539537645
10
37.9863617379
20
59.5684696414
10
37.9562302768
20
59.4814227759
10
37.9284955432
20
59.3922249608
10
37.9029746419
20
59.3002879892
10
37.8794846775
20
59.2050236539
10
37.8578427545
20
59.1058437479
10
37.8378659776
20
59.0021600642
10
37.8193714515
20
58.8933843957
10
37.8021762808
20
58.7789285355
10
37.7860975701
20
58.6582042764
10
37.770952424
20
58.5306234114
10
37.7565579472
20
58.3955977334
10
37.7427312443
20
58.2525390355
10
37.7292894199
20
58.1008591106
10
37.7160495786
20
57.9399697517
10
37.7028288251
20
57.7692827516
10
37.689444264
20
57.5882099034
10
37.675713
20
57.396163
10
37.655149952
20
57.143243894
10
37.6285359313
20
56.8800923973
10
37.5960144938
20
56.6072325646
10
37.5577291954
20
56.3251884508
10
37.513823592
20
56.0344841104
10
37.4644412395
20
55.7356435982
10
37.4097256938
20
55.429190969
10
37.3498205109
20
55.1156502774
10
37.2848692466
20
54.7955455781
10
37.2150154568
20
54.4694009259
10
37.1404026975
20
54.1377403754
10
37.0611745245
20
53.8010879815
10
36.9774744938
20
53.4599677988
10
36.8894461612
20
53.1149038819
10
36.7972330827
20
52.7664202858
10
36.7009788142
20
52.4150410649
10
36.6008269116
20
52.0612902741
10
36.4969209308
20
51.7056919681
10
36.3894044276
20
51.3487702016
10
36.2784209581
20
50.9910490293
10
36.1641140781
20
50.633052506
10
36.0466273435
20
50.2753046862
10
35.9261043102
20
49.9183296248
10
35.8026885341
20
49.5626513765
10
35.6765235711
20
49.2087939959
10
35.5477529772
20
48.8572815379
10
35.4165203083
20
48.508638057
10
35.2829691202
20
48.1633876081
10
35.1472429688
20
47.8220542458
10
35.0094854101
20
47.4851620249
10
34.86984
20
47.153235
10
34.8307096209
20
47.0609033678
10
34.7916510964
20
46.967453241
10
34.7527275714
20
46.8730656776
10
34.7140021909
20
46.7779217356
10
34.6755380996
20
46.6822024729
10
34.6373984425
20
46.5860889475
10
34.5996463646
20
46.4897622174
10
34.5623450108
20
46.3934033405
10
34.5255575259
20
46.2971933748
10
34.4893470548
20
46.2013133784
10
34.4537767425
20
46.105944409
10
34.4189097339
20
46.0112675249
10
34.3848091739
20
45.9174637838
10
34.3515382074
20
45.8247142437
10
34.3191599794
20
45.7331999627
10
34.2877376346
20
45.6431019988
10
34.257334318
20
45.5546014098
10
34.2280131747
20
45.4678792537
10
34.1998373493
20
45.3831165886
10
34.1728699869
20
45.3004944723
10
34.1471742324
20
45.2201939629
10
34.1228132306
20
45.1423961184
10
34.0998501266
20
45.0672819966
10
34.0783480651
20
44.9950326557
10
34.0583701912
20
44.9258291534
10
34.0399796496
20
44.8598525479
10
34.0232395854
20
44.7972838971
10
34.0082131434
20
44.7383042589
10
33.9949634686
20
44.6830946913
10
33.9835537058
20
44.6318362524
10
33.974047
20
44.58471
10
33.9651833051
20
44.5385245513
10
33.955680883
20
44.4900571662
10
33.9455703405
20
44.4394412858
10
33.9348822845
20
44.3868103514
10
33.9236473217
20
44.3322978042
10
33.9118960591
20
44.2760370855
10
33.8996591034
20
44.2181616365
10
33.8869670615
20
44.1588048985
10
33.8738505402
20
44.0981003126
10
33.8603401463
20
44.0361813202
10
33.8464664866
20
43.9731813625
10
33.832260168
20
43.9092338806
10
33.8177517973
20
43.844472316
10
33.8029719814
20
43.7790301097
10
33.787951327
20
43.7130407031
10
33.772720441
20
43.6466375373
10
33.7573099302
20
43.5799540537
10
33.7417504014
20
43.5131236934
10
33.7260724615
20
43.4462798977
10
33.7103067174
20
43.3795561079
10
33.6944837757
20
43.3130857651
10
33.6786342434
20
43.2470023107
10
33.6627887273
20
43.1814391858
10
33.6469778341
20
43.1165298318
10
33.6312321709
20
43.0524076897
10
33.6155823442
20
42.989206201
10
33.6000589611
20
42.9270588068
10
33.5846926283
20
42.8660989483
10
33.5695139526
20
42.8064600669
10
33.5545535409
20
42.7482756037
10
33.539842
20
42.691679
10
33.5043554756
20
42.5463863587
10
33.4719794056
20
42.394311112
10
33.4426893347
20
42.2359940824
10
33.4164608077
20
42.071976092
10
33.3932693695
20
41.9027979633
10
33.3730905649
20
41.7290005185
10
33.3558999388
20
41.55112458
10
33.341673036
20
41.3697109702
10
33.3303854012
20
41.1853005113
10
33.3220125794
20
40.9984340257
10
33.3165301153
20
40.8096523357
10
33.3139135538
20
40.6194962636
10
33.3141384398
20
40.4285066318
10
33.3171803179
20
40.2372242626
10
33.3230147332
20
40.0461899783
10
33.3316172304
20
39.8559446013
10
33.3429633543
20
39.6670289538
10
33.3570286497
20
39.4799838583
10
33.3737886616
20
39.295350137
10
33.3932189346
20
39.1136686123
10
33.4152950138
20
38.9354801065
10
33.4399924438
20
38.7613254419
10
33.4672867695
20
38.5917454408
10
33.4971535357
20
38.4272809257
10
33.5295682873
20
38.2684727187
10
33.5645065691
20
38.1158616423
10
33.6019439259
20
37.9699885188
10
33.6418559026
20
37.8313941705
10
33.6842180439
20
37.7006194197
10
33.7290058948
20
37.5782050888
10
33.776195
20
37.464692
10
33.8396167587
20
37.3247751106
10
33.9041441473
20
37.1879625516
10
33.9697299154
20
37.0543094547
10
34.0363268128
20
36.9238709516
10
34.103887589
20
36.796702174
10
34.1723649937
20
36.6728582536
10
34.2417117764
20
36.5523943221
10
34.3118806868
20
36.4353655111
10
34.3828244745
20
36.3218269523
10
34.4544958892
20
36.2118337774
10
34.5268476804
20
36.1054411181
10
34.5998325978
20
36.0027041061
10
34.673403391
20
35.903677873
10
34.7475128096
20
35.8084175506
10
34.8221136033
20
35.7169782705
10
34.8971585216
20
35.6294151644
10
34.9726003142
20
35.5457833641
10
35.0483917308
20
35.4661380011
10
35.1244855208
20
35.3905342071
10
35.2008344341
20
35.319027114
10
35.2773912201
20
35.2516718532
10
35.3541086285
20
35.1885235566
10
35.4309394089
20
35.1296373557
10
35.507836311
20
35.0750683824
10
35.5847520844
20
35.0248717682
10
35.6616394786
20
34.9791026449
10
35.7384512434
20
34.9378161441
10
35.8151401283
20
34.9010673975
10
35.8916588829
20
34.8689115369
10
35.967960257
20
34.8414036938
10
36.043997
20
34.818599
10
36.1741080331
20
34.7816971955
10
36.3109782055
20
34.7392876152
10
36.4543298364
20
34.6915136216
10
36.6038852452
20
34.6385185773
10
36.7593667511
20
34.5804458449
10
36.9204966735
20
34.5174387868
10
37.0869973315
20
34.4496407657
10
37.2585910446
20
34.3771951441
10
37.4350001321
20
34.3002452845
10
37.6159469131
20
34.2189345497
10
37.801153707
20
34.133406302
10
37.990342833
20
34.043803904
10
38.1832366106
20
33.9502707184
10
38.3795573589
20
33.8529501076
10
38.5790273973
20
33.7519854343
10
38.781369045
20
33.647520061
10
38.9863046213
20
33.5396973502
10
39.1935564456
20
33.4286606645
10
39.4028468371
20
33.3145533665
10
39.6138981151
20
33.1975188187
10
39.8264325989
20
33.0777003837
10
40.0401726078
20
32.9552414241
10
40.2548404611
20
32.8302853023
10
40.470158478
20
32.7029753811
10
40.6858489779
20
32.5734550228
10
40.9016342801
20
32.4418675901
10
41.1172367038
20
32.3083564456
10
41.3323785684
20
32.1730649517
10
41.5467821931
20
32.0361364711
10
41.7601698972
20
31.8977143664
10
41.972264
20
31.757942
10
42.2190542623
20
31.593894512
10
42.4507261673
20
31.439580679
10
42.6678642629
20
31.294473544
10
42.871053097
20
31.15804615
10
43.0608772176
20
31.0297715401
10
43.2379211726
20
30.9091227575
10
43.4027695101
20
30.7955728451
10
43.5560067779
20
30.688594846
10
43.698217524
20
30.5876618034
10
43.8299862963
20
30.4922467602
10
43.9518976429
20
30.4018227595
10
44.0645361116
20
30.3158628444
10
44.1684862504
20
30.233840058
10
44.2643326072
20
30.1552274433
10
44.3526597301
20
30.0794980434
10
44.4340521669
20
30.0061249014
10
44.5090944656
20
29.9345810603
10
44.5783711742
20
29.8643395632
10
44.6424668406
20
29.7948734532
10
44.7019660127
20
29.7256557733
10
44.7574532385
20
29.6561595666
10
44.809513066
20
29.5858578761
10
44.8587300431
20
29.514223745
10
44.9056887178
20
29.4407302163
10
44.950973638
20
29.3648503331
10
44.9951693516
20
29.2860571383
10
45.0388604067
20
29.2038236752
10
45.0826313511
20
29.1176229867
10
45.1270667328
20
29.026928116
10
45.1727510998
20
28.9312121061
10
45.220269
20
28.829948
10
45.617666
20
27.978329
10
46.649891
20
28.059544
10
46.7201226916
20
28.0646148951
10
46.7906234505
20
28.0687895066
10
46.8614474803
20
28.0720617233
10
46.9326489846
20
28.0744254344
10
47.0042821671
20
28.0758745289
10
47.0764012314
20
28.0764028957
10
47.1490603811
20
28.076004424
10
47.2223138198
20
28.0746730027
10
47.2962157511
20
28.0724025209
10
47.3708203787
20
28.0691868676
10
47.4461819061
20
28.0650199319
10
47.522354537
20
28.0598956027
10
47.5993924751
20
28.0538077691
10
47.6773499238
20
28.0467503201
10
47.7562810869
20
28.0387171447
10
47.836240168
20
28.0297021321
10
47.9172813706
20
28.0196991711
10
47.9994588985
20
28.0087021508
10
48.0828269552
20
27.9967049603
10
48.1674397443
20
27.9837014885
10
48.2533514694
20
27.9696856246
10
48.3406163342
20
27.9546512574
10
48.4292885423
20
27.9385922762
10
48.5194222974
20
27.9215025698
10
48.6110718029
20
27.9033760273
10
48.7042912626
20
27.8842065377
10
48.7991348801
20
27.8639879902
10
48.895656859
20
27.8427142736
10
48.9939114028
20
27.820379277
10
49.0939527153
20
27.7969768895
10
49.195835
20
27.772501
10
49.2782584476
20
27.7528221525
10
49.3642404264
20
27.7330118207
10
49.4535555844
20
27.7131059331
10
49.5459785694
20
27.6931404185
10
49.6412840292
20
27.6731512056
10
49.7392466118
20
27.6531742231
10
49.8396409648
20
27.6332453998
10
49.9422417363
20
27.6134006642
10
50.0468235739
20
27.5936759452
10
50.1531611257
20
27.5741071713
10
50.2610290393
20
27.5547302714
10
50.3702019628
20
27.5355811741
10
50.4804545438
20
27.5166958082
10
50.5915614303
20
27.4981101023
10
50.7032972701
20
27.4798599851
10
50.8154367111
20
27.4619813854
10
50.9277544011
20
27.4445102317
10
51.0400249879
20
27.427482453
10
51.1520231194
20
27.4109339778
10
51.2635234435
20
27.3949007348
10
51.3743006079
20
27.3794186528
10
51.4841292606
20
27.3645236605
10
51.5927840494
20
27.3502516865
10
51.7000396221
20
27.3366386596
10
51.8056706265
20
27.3237205084
10
51.9094517106
20
27.3115331617
10
52.0111575222
20
27.3001125482
10
52.110562709
20
27.2894945966
10
52.2074419191
20
27.2797152355
10
52.3015698001
20
27.2708103938
10
52.392721
20
27.262816
10
52.6458287437
20
27.2394192575
10
52.8936747041
20
27.2122409197
10
53.1361123945
20
27.1813483695
10
53.3729953282
20
27.1468089896
10
53.6041770184
20
27.1086901628
10
53.8295109784
20
27.0670592721
10
54.0488507216
20
27.0219837003
10
54.262049761
20
26.9735308301
10
54.4689616102
20
26.9217680445
10
54.6694397822
20
26.8667627262
10
54.8633377904
20
26.8085822581
10
55.0505091481
20
26.747294023
10
55.2308073685
20
26.6829654038
10
55.404085965
20
26.6156637833
10
55.5701984507
20
26.5454565443
10
55.7289983391
20
26.4724110697
10
55.8803391432
20
26.3965947422
10
56.0240743765
20
26.3180749448
10
56.1600575522
20
26.2369190602
10
56.2881421836
20
26.1531944714
10
56.4081817839
20
26.066968561
10
56.5200298664
20
25.978308712
10
56.6235399445
20
25.8872823072
10
56.7185655313
20
25.7939567295
10
56.8049601402
20
25.6983993616
10
56.8825772844
20
25.6006775864
10
56.9512704772
20
25.5008587867
10
57.0108932319
20
25.3990103454
10
57.0612990617
20
25.2951996453
10
57.10234148
20
25.1894940692
10
57.133874
20
25.081961
10
57.1398635219
20
25.058610169
10
57.1466558175
20
25.033862939
10
57.1542209653
20
25.0077928172
10
57.1625290439
20
24.980473311
10
57.1715501317
20
24.9519779276
10
57.1812543074
20
24.9223801744
10
57.1916116495
20
24.8917535586
10
57.2025922365
20
24.8601715876
10
57.214166147
20
24.8277077687
10
57.2263034596
20
24.7944356091
10
57.2389742527
20
24.7604286162
10
57.2521486049
20
24.7257602972
10
57.2657965949
20
24.6905041595
10
57.279888301
20
24.6547337104
10
57.294393802
20
24.6185224572
10
57.3092831762
20
24.5819439071
10
57.3245265023
20
24.5450715674
10
57.3400938588
20
24.5079789456
10
57.3559553243
20
24.4707395488
10
57.3720809773
20
24.4334268843
10
57.3884408963
20
24.3961144596
10
57.4050051599
20
24.3588757818
10
57.4217438467
20
24.3217843583
10
57.4386270352
20
24.2849136963
10
57.4556248039
20
24.2483373032
10
57.4727072314
20
24.2121286863
10
57.4898443963
20
24.1763613529
10
57.507006377
20
24.1411088103
10
57.5241632522
20
24.1064445657
10
57.5412851003
20
24.0724421265
10
57.558342
20
24.039175
10
57.5840392134
20
23.9901666253
10
57.6091846147
20
23.943597865
10
57.6338859424
20
23.8993919421
10
57.6582509346
20
23.8574720799
10
57.68238733
20
23.8177615015
10
57.7064028667
20
23.7801834299
10
57.7304052832
20
23.7446610882
10
57.7545023179
20
23.7111176997
10
57.7788017092
20
23.6794764875
10
57.8034111954
20
23.6496606745
10
57.8284385149
20
23.6215934841
10
57.8539914061
20
23.5951981392
10
57.8801776073
20
23.570397863
10
57.907104857
20
23.5471158787
10
57.9348808935
20
23.5252754094
10
57.9636134551
20
23.5047996781
10
57.9934102804
20
23.485611908
10
58.0243791076
20
23.4676353222
10
58.0566276751
20
23.4507931438
10
58.0902637213
20
23.4350085961
10
58.1253949846
20
23.420204902
10
58.1621292034
20
23.4063052846
10
58.200574116
20
23.3932329673
10
58.2408374608
20
23.3809111729
10
58.2830269762
20
23.3692631248
10
58.3272504005
20
23.3582120459
10
58.3736154722
20
23.3476811594
10
58.4222299296
20
23.3375936885
10
58.4732015112
20
23.3278728562
10
58.5266379552
20
23.3184418856
10
58.582647
20
23.309224
10
58.6922751478
20
23.2914140362
10
58.8008501428
20
23.2731084685
10
58.9081996835
20
23.2543536534
10
59.0141514683
20
23.2351959475
10
59.1185331957
20
23.2156817074
10
59.221172564
20
23.1958572895
10
59.3218972717
20
23.1757690505
10
59.4205350172
20
23.1554633469
10
59.516913499
20
23.1349865353
10
59.6108604155
20
23.1143849721
10
59.7022034651
20
23.093705014
10
59.7907703462
20
23.0729930175
10
59.8763887574
20
23.0522953391
10
59.958886397
20
23.0316583355
10
60.0380909634
20
23.0111283631
10
60.1138301552
20
22.9907517785
10
60.1859316706
20
22.9705749382
10
60.2542232083
20
22.9506441989
10
60.3185324664
20
22.931005917
10
60.3786871437
20
22.9117064491
10
60.4345149383
20
22.8927921517
10
60.4858435489
20
22.8743093815
10
60.5325006738
20
22.8563044949
10
60.5743140114
20
22.8388238485
10
60.6111112602
20
22.8219137989
10
60.6427201186
20
22.8056207026
10
60.6689682851
20
22.7899909162
10
60.689683458
20
22.7750707961
10
60.7046933358
20
22.7609066991
10
60.713825617
20
22.7475449815
10
60.716908
20
22.735032
10
60.7159842546
20
22.7284955123
10
60.7132441807
20
22.7212381466
10
60.7087345215
20
22.7132886936
10
60.7025020202
20
22.7046759445
10
60.6945934201
20
22.6954286903
10
60.6850554644
20
22.6855757218
10
60.6739348964
20
22.6751458301
10
60.6612784593
20
22.6641678061
10
60.6471328963
20
22.6526704409
10
60.6315449508
20
22.6406825253
10
60.6145613658
20
22.6282328505
10
60.5962288848
20
22.6153502072
10
60.5765942509
20
22.6020633867
10
60.5557042074
20
22.5884011797
10
60.5336054976
20
22.5743923773
10
60.5103448646
20
22.5600657705
10
60.4859690517
20
22.5454501502
10
60.4605248021
20
22.5305743074
10
60.4340588592
20
22.5154670331
10
60.4066179661
20
22.5001571183
10
60.3782488661
20
22.484673354
10
60.3489983024
20
22.469044531
10
60.3189130184
20
22.4532994405
10
60.2880397571
20
22.4374668734
10
60.2564252619
20
22.4215756206
10
60.2241162761
20
22.4056544731
10
60.1911595427
20
22.3897322219
10
60.1576018052
20
22.3738376581
10
60.1234898068
20
22.3579995725
10
60.0888702906
20
22.3422467561
10
60.05379
20
22.326608
10
59.9230433776
20
22.2647991249
10
59.7925835434
20
22.1950487664
10
59.662681708
20
22.1177450018
10
59.533609082
20
22.0332759086
10
59.4056368761
20
21.9420295641
10
59.2790363008
20
21.8443940457
10
59.1540785669
20
21.7407574309
10
59.031034885
20
21.6315077971
10
58.9101764656
20
21.5170332217
10
58.7917745195
20
21.397721782
10
58.6761002572
20
21.2739615555
10
58.5634248895
20
21.1461406197
10
58.4540196268
20
21.0146470518
10
58.34815568
20
20.8798689293
10
58.2461042595
20
20.7421943296
10
58.1481365761
20
20.6020113301
10
58.0545238403
20
20.4597080083
10
57.9655372629
20
20.3156724415
10
57.8814480543
20
20.1702927071
10
57.8025274254
20
20.0239568825
10
57.7290465867
20
19.8770530452
10
57.6612767487
20
19.7299692726
10
57.5994891223
20
19.583093642
10
57.543954918
20
19.4368142309
10
57.4949453464
20
19.2915191166
10
57.4527316182
20
19.1475963766
10
57.417584944
20
19.0054340883
10
57.3897765345
20
18.8654203291
10
57.3695776002
20
18.7279431764
10
57.3572593518
20
18.5933907075
10
57.353093
20
18.462151
10
57.3524174213
20
18.4379760058
10
57.3504124326
20
18.4126272257
10
57.3471106552
20
18.3861707696
10
57.3425447104
20
18.3586727474
10
57.3367472194
20
18.3301992691
10
57.3297508035
20
18.3008164447
10
57.321588084
20
18.2705903842
10
57.312291682
20
18.2395871975
10
57.301894219
20
18.2078729946
10
57.290428316
20
18.1755138854
10
57.2779265945
20
18.14257598
10
57.2644216756
20
18.1091253882
10
57.2499461807
20
18.0752282201
10
57.2345327309
20
18.0409505856
10
57.2182139476
20
18.0063585947
10
57.201022452
20
17.9715183574
10
57.1829908653
20
17.9364959836
10
57.1641518089
20
17.9013575832
10
57.144537904
20
17.8661692663
10
57.1241817718
20
17.8309971428
10
57.1031160336
20
17.7959073227
10
57.0813733107
20
17.7609659159
10
57.0589862243
20
17.7262390325
10
57.0359873958
20
17.6917927823
10
57.0124094462
20
17.6576932754
10
56.988284997
20
17.6240066216
10
56.9636466694
20
17.5907989311
10
56.9385270847
20
17.5581363137
10
56.912958864
20
17.5260848794
10
56.8869746287
20
17.4947107382
10
56.860607
20
17.46408
10
56.834148772
20
17.4333640881
10
56.8072371407
20
17.4009879476
10
56.779927298
20
17.3670438743
10
56.7522744358
20
17.3316241638
10
56.724333746
20
17.2948211121
10
56.6961604205
20
17.2567270149
10
56.6678096512
20
17.217434168
10
56.63933663
20
17.1770348672
10
56.6107965489
20
17.1356214083
10
56.5822445996
20
17.0932860871
10
56.5537359742
20
17.0501211994
10
56.5253258645
20
17.0062190409
10
56.4970694624
20
16.9616719076
10
56.4690219599
20
16.9165720951
10
56.4412385488
20
16.8710118992
10
56.413774421
20
16.8250836159
10
56.3866847685
20
16.7788795407
10
56.3600247832
20
16.7324919697
10
56.3338496568
20
16.6860131984
10
56.3082145815
20
16.6395355228
10
56.283174749
20
16.5931512386
10
56.2587853512
20
16.5469526417
10
56.2351015802
20
16.5010320277
10
56.2121786277
20
16.4554816926
10
56.1900716856
20
16.4103939321
10
56.168835946
20
16.3658610419
10
56.1485266006
20
16.321975318
10
56.1291988414
20
16.278829056
10
56.1109078603
20
16.2365145518
10
56.0937088492
20
16.1951241012
10
56.077657
20
16.15475
10
56.0619758356
20
16.114787184
10
56.0458769441
20
16.0746170954
10
56.0293967439
20
16.0343112088
10
56.0125716536
20
15.9939409986
10
55.9954380916
20
15.9535779395
10
55.9780324766
20
15.9132935059
10
55.9603912269
20
15.8731591724
10
55.9425507612
20
15.8332464135
10
55.9245474979
20
15.7936267039
10
55.9064178556
20
15.7543715179
10
55.8881982528
20
15.7155523302
10
55.869925108
20
15.6772406153
10
55.8516348396
20
15.6395078477
10
55.8333638663
20
15.602425502
10
55.8151486065
20
15.5660650527
10
55.7970254788
20
15.5304979744
10
55.7790309016
20
15.4957957415
10
55.7612012936
20
15.4620298287
10
55.7435730731
20
15.4292717104
10
55.7261826588
20
15.3975928613
10
55.709066469
20
15.3670647558
10
55.6922609225
20
15.3377588685
10
55.6758024375
20
15.3097466739
10
55.6597274328
20
15.2830996465
10
55.6440723268
20
15.257889261
10
55.6288735379
20
15.2341869918
10
55.6141674848
20
15.2120643136
10
55.599990586
20
15.1915927007
10
55.5863792599
20
15.1728436278
10
55.573369925
20
15.1558885694
10
55.560999
20
15.140799
10
55.5490326063
20
15.126335492
10
55.5372234088
20
15.1112376873
10
55.5255873512
20
15.0955453744
10
55.5141403769
20
15.0792983419
10
55.5028984294
20
15.0625363786
10
55.491877452
20
15.0452992728
10
55.4810933884
20
15.0276268133
10
55.4705621819
20
15.0095587887
10
55.4602997761
20
14.9911349874
10
55.4503221144
20
14.9723951982
10
55.4406451402
20
14.9533792096
10
55.4312847972
20
14.9341268101
10
55.4222570287
20
14.9146777885
10
55.4135777782
20
14.8950719333
10
55.4052629891
20
14.8753490331
10
55.397328605
20
14.8555488764
10
55.3897905694
20
14.8357112519
10
55.3826648257
20
14.8158759482
10
55.3759673173
20
14.7960827539
10
55.3697139877
20
14.7763714575
10
55.3639207805
20
14.7567818476
10
55.3586036391
20
14.7373537129
10
55.353778507
20
14.7181268419
10
55.3494613275
20
14.6991410233
10
55.3456680443
20
14.6804360456
10
55.3424146008
20
14.6620516974
10
55.3397169405
20
14.6440277673
10
55.3375910067
20
14.6264040439
10
55.3360527431
20
14.6092203159
10
55.335118093
20
14.5925163717
10
55.334803
20
14.576332
10
55.3272902897
20
14.4894092042
10
55.3052208266
20
14.3954087014
10
55.2692976122
20
14.2949314797
10
55.2202236481
20
14.1885785271
10
55.1587019359
20
14.0769508317
10
55.0854354772
20
13.9606493816
10
55.0011272735
20
13.8402751649
10
54.9064803264
20
13.7164291697
10
54.8021976376
20
13.5897123841
10
54.6889822085
20
13.4607257961
10
54.5675370408
20
13.3300703938
10
54.4385651359
20
13.1983471654
10
54.3027694957
20
13.0661570988
10
54.1608531214
20
12.9341011822
10
54.0135190149
20
12.8027804037
10
53.8614701776
20
12.6727957513
10
53.7054096111
20
12.5447482132
10
53.546040317
20
12.4192387773
10
53.3840652969
20
12.2968684319
10
53.2201875524
20
12.1782381649
10
53.055110085
20
12.0639489646
10
52.8895358962
20
11.9546018188
10
52.7241679878
20
11.8507977158
10
52.5597093613
20
11.7531376436
10
52.3968630181
20
11.6622225903
10
52.23633196
20
11.578653544
10
52.0788191885
20
11.5030314927
10
51.9250277052
20
11.4359574246
10
51.7756605116
20
11.3780323277
10
51.6314206093
20
11.3298571902
10
51.493011
20
11.292033
10
51.422896326
20
11.2749700772
10
51.3564464676
20
11.2582332719
10
51.2934814764
20
11.2416779483
10
51.2338214044
20
11.2251594707
10
51.1772863031
20
11.2085332031
10
51.1236962245
20
11.1916545097
10
51.0728712202
20
11.1743787548
10
51.024631342
20
11.1565613024
10
50.9787966417
20
11.1380575167
10
50.935187171
20
11.118722762
10
50.8936229817
20
11.0984124024
10
50.8539241256
20
11.076981802
10
50.8159106544
20
11.054286325
10
50.7794026198
20
11.0301813357
10
50.7442200737
20
11.0045221981
10
50.7101830678
20
10.9771642764
10
50.6771116539
20
10.9479629349
10
50.6448258836
20
10.9167735376
10
50.6131458089
20
10.8834514488
10
50.5818914814
20
10.8478520326
10
50.5508829528
20
10.8098306532
10
50.5199402751
20
10.7692426747
10
50.4888834998
20
10.7259434614
10
50.4575326789
20
10.6797883774
10
50.425707864
20
10.6306327868
10
50.3932291069
20
10.5783320539
10
50.3599164593
20
10.5227415428
10
50.3255899731
20
10.4637166177
10
50.2900697
20
10.4011126428
10
50.2531756917
20
10.3347849821
10
50.214728
20
10.264589
10
50.1905388613
20
10.2207314132
10
50.1660363095
20
10.177449871
10
50.1412682865
20
10.1348028132
10
50.116282734
20
10.0928486798
10
50.0911275938
20
10.0516459106
10
50.0658508078
20
10.0112529458
10
50.0405003177
20
9.97172822503
10
50.0151240654
20
9.93313018841
10
49.9897699925
20
9.89551727582
10
49.964486041
20
9.85894792719
10
49.9393201526
20
9.82348058246
10
49.9143202691
20
9.78917368155
10
49.8895343322
20
9.7560856644
10
49.8650102839
20
9.72427497093
10
49.8407960659
20
9.69380004109
10
49.8169396199
20
9.66471931479
10
49.7934888878
20
9.63709123198
10
49.7704918114
20
9.61097423259
10
49.7479963324
20
9.58642675654
10
49.7260503927
20
9.56350724376
10
49.704701934
20
9.5422741342
10
49.6839988982
20
9.52278586778
10
49.663989227
20
9.50510088443
10
49.6447208623
20
9.48927762408
10
49.6262417458
20
9.47537452667
10
49.6085998193
20
9.46345003212
10
49.5918430246
20
9.45356258038
10
49.5760193035
20
9.44577061136
10
49.5611765979
20
9.440132565
10
49.5473628495
20
9.43670688124
10
49.534626
20
9.435552
10
49.5217826194
20
9.43617046554
10
49.5076530615
20
9.43800499802
10
49.4922906535
20
9.4410243012
10
49.4757487227
20
9.44519707885
10
49.4580805965
20
9.45049203474
10
49.4393396022
20
9.45687787265
10
49.4195790671
20
9.46432329633
10
49.3988523186
20
9.47279700957
10
49.3772126838
20
9.48226771612
10
49.3547134902
20
9.49270411977
10
49.331408065
20
9.50407492427
10
49.3073497356
20
9.51634883341
10
49.2825918293
20
9.52949455094
10
49.2571876734
20
9.54348078064
10
49.2311905952
20
9.55827622628
10
49.204653922
20
9.57384959162
10
49.1776309811
20
9.59016958044
10
49.1501750999
20
9.60720489651
10
49.1223396057
20
9.6249242436
10
49.0941778257
20
9.64329632547
10
49.0657430873
20
9.66228984589
10
49.0370887179
20
9.68187350864
10
49.0082680446
20
9.70201601749
10
48.9793343949
20
9.7226860762
10
48.950341096
20
9.74385238854
10
48.9213414753
20
9.76548365829
10
48.89238886
20
9.7875485892
10
48.8635365776
20
9.81001588507
10
48.8348379552
20
9.83285424964
10
48.8063463202
20
9.85603238669
10
48.778115
20
9.879519
10
48.7436578724
20
9.9081983587
10
48.7100602522
20
9.93552322027
10
48.6773151054
20
9.9614963113
10
48.6454153984
20
9.9861203584
10
48.6143540972
20
10.0093980881
10
48.5841241681
20
10.0313322271
10
48.5547185774
20
10.051925502
10
48.5261302911
20
10.0711806393
10
48.4983522755
20
10.0891003656
10
48.4713774967
20
10.1056874076
10
48.4451989211
20
10.1209444918
10
48.4198095147
20
10.1348743448
10
48.3952022438
20
10.1474796932
10
48.3713700746
20
10.1587632636
10
48.3483059733
20
10.1687277827
10
48.326002906
20
10.1773759769
10
48.304453839
20
10.184710573
10
48.2836517385
20
10.1907342974
10
48.2635895706
20
10.1954498769
10
48.2442603016
20
10.1988600379
10
48.2256568977
20
10.2009675071
10
48.207772325
20
10.2017750111
10
48.1905995497
20
10.2012852764
10
48.1741315381
20
10.1995010297
10
48.1583612564
20
10.1964249976
10
48.1432816707
20
10.1920599066
10
48.1288857473
20
10.1864084834
10
48.1151664523
20
10.1794734546
10
48.102116752
20
10.1712575466
10
48.0897296125
20
10.1617634863
10
48.077998
20
10.150994
10
48.0675072902
20
10.1372146398
10
48.0544516516
20
10.1144039927
10
48.0389123365
20
10.0828097248
10
48.0209705971
20
10.0426795023
10
48.0007076856
20
9.99426099154
10
47.9782048544
20
9.93780185862
10
47.9535433557
20
9.87354976976
10
47.9268044417
20
9.80175239119
10
47.8980693647
20
9.72265738911
10
47.8674193769
20
9.63651242973
10
47.8349357307
20
9.54356517925
10
47.8006996782
20
9.44406330388
10
47.7647924718
20
9.33825446984
10
47.7272953636
20
9.22638634333
10
47.688289606
20
9.10870659055
10
47.6478564512
20
8.98546287771
10
47.6060771515
20
8.85690287103
10
47.563032959
20
8.72327423672
10
47.5188051261
20
8.58482464097
10
47.4734749051
20
8.44180174999
10
47.4271235482
20
8.29445323
10
47.3798323075
20
8.14302674721
10
47.3316824355
20
7.98776996781
10
47.2827551844
20
7.82893055802
10
47.2331318064
20
7.66675618405
10
47.1828935537
20
7.5014945121
10
47.1321216787
20
7.33339320839
10
47.0808974335
20
7.16269993911
10
47.0293020705
20
6.98966237048
10
46.9774168419
20
6.81452816871
10
46.925323
20
6.637545
10
46.8044366499
20
6.22645439438
10
46.6881668633
20
5.83305421124
10
46.5763810194
20
5.45697015921
10
46.4689464976
20
5.09782794693
10
46.365730677
20
4.75525328304
10
46.266600937
20
4.42887187617
10
46.1714246568
20
4.11830943496
10
46.0800692157
20
3.82319166805
10
45.992401993
20
3.54314428408
10
45.908290368
20
3.27779299168
10
45.8276017199
20
3.02676349948
10
45.750203428
20
2.78968151613
10
45.6759628717
20
2.56617275026
10
45.6047474301
20
2.35586291051
10
45.5364244825
20
2.15837770552
10
45.4708614082
20
1.97334284391
10
45.4079255866
20
1.80038403434
10
45.3474843968
20
1.63912698543
10
45.2894052182
20
1.48919740583
10
45.2335554299
20
1.35022100416
10
45.1798024114
20
1.22182348907
10
45.1280135418
20
1.1036305692
10
45.0780562005
20
0.995267953174
10
45.0297977667
20
0.896361349636
10
44.9831056198
20
0.806536467222
10
44.9378471388
20
0.725419014568
10
44.8938897033
20
0.652634700312
10
44.8511006923
20
0.587809233091
10
44.8093474853
20
0.53056832154
10
44.7684974614
20
0.480537674298
10
44.728418
20
0.437343
10
44.6971120794
20
0.406928632842
10
44.664786229
20
0.378381053372
10
44.6300991228
20
0.351630834917
10
44.5917094345
20
0.326608550804
10
44.5482758379
20
0.303244774361
10
44.498457007
20
0.281470078916
10
44.4409116155
20
0.261215037797
10
44.3742983373
20
0.242410224329
10
44.2972758461
20
0.224986211843
10
44.2085028159
20
0.208873573663
10
44.1066379204
20
0.194002883119
10
43.9903398334
20
0.180304713538
10
43.8582672289
20
0.167709638246
10
43.7090787806
20
0.156148230573
10
43.5414331623
20
0.145551063845
10
43.3539890479
20
0.135848711389
10
43.1454051112
20
0.126971746534
10
42.914340026
20
0.118850742607
10
42.6594524662
20
0.111416272935
10
42.3794011056
20
0.104598910846
10
42.072844618
20
0.0983292296667
10
41.7384416773
20
0.0925378027257
10
41.3748509572
20
0.08715520335
10
40.9807311316
20
0.0821120048672
10
40.5547408744
20
0.0773387806049
10
40.0955388593
20
0.0727661038904
10
39.6017837601
20
0.0683245480514
10
39.0721342508
20
0.0639446864154
10
38.5052490051
20
0.0595570923098
10
37.8997866969
20
0.0550923390621
10
37.254406
20
0.050481
10
30.115403
20
3e-06
10
30.219814
20
1.353961
10
30.2292934302
20
1.47744831087
10
30.2380434725
20
1.59319536414
10
30.2460145936
20
1.70145245373
10
30.2531572599
20
1.80246987355
10
30.259421938
20
1.89649791753
10
30.2647590943
20
1.98378687956
10
30.2691191954
20
2.06458705357
10
30.2724527078
20
2.13914873348
10
30.274710098
20
2.20772221319
10
30.2758418326
20
2.27055778661
10
30.275798378
20
2.32790574768
10
30.2745302007
20
2.38001639029
10
30.2719877674
20
2.42714000836
10
30.2681215444
20
2.46952689581
10
30.2628819984
20
2.50742734655
10
30.2562195958
20
2.54109165449
10
30.2480848031
20
2.57077011356
10
30.2384280869
20
2.59671301766
10
30.2271999137
20
2.6191706607
10
30.21435075
20
2.63839333661
10
30.1998310623
20
2.6546313393
10
30.1835913172
20
2.66813496267
10
30.1655819811
20
2.67915450065
10
30.1457535205
20
2.68794024716
10
30.1240564021
20
2.69474249609
10
30.1004410922
20
2.69981154137
10
30.0748580575
20
2.70339767692
10
30.0472577644
20
2.70575119664
10
30.0175906794
20
2.70712239445
10
29.9858072691
20
2.70776156426
10
29.951858
20
2.707919
10
29.9046945098
20
2.70864018442
10
29.8579190276
20
2.71086216941
10
29.811375584
20
2.7146726026
10
29.7649082101
20
2.72015913158
10
29.7183609365
20
2.72740940398
10
29.671577794
20
2.7365110674
10
29.6244028136
20
2.74755176946
10
29.576680026
20
2.76061915777
10
29.528253462
20
2.77580087993
10
29.4789671524
20
2.79318458357
10
29.4286651281
20
2.81285791628
10
29.3771914199
20
2.8349085257
10
29.3243900585
20
2.85942405941
10
29.2701050749
20
2.88649216505
10
29.2141804997
20
2.91620049022
10
29.1564603639
20
2.94863668252
10
29.0967886983
20
2.98388838958
10
29.0350095336
20
3.022043259
10
28.9709669006
20
3.0631889384
10
28.9045048303
20
3.10741307539
10
28.8354673533
20
3.15480331758
10
28.7636985006
20
3.20544731258
10
28.6890423028
20
3.259432708
10
28.611342791
20
3.31684715146
10
28.5304439958
20
3.37777829056
10
28.446189948
20
3.44231377292
10
28.3584246786
20
3.51054124615
10
28.2669922183
20
3.58254835786
10
28.1717365978
20
3.65842275566
10
28.0725018481
20
3.73825208717
10
27.969132
20
3.822124
10
27.9209735743
20
3.86105438988
10
27.8727298928
20
3.89947342916
10
27.8244829943
20
3.93732924484
10
27.7763149175
20
3.97456996395
10
27.7283077012
20
4.0111437135
10
27.6805433841
20
4.04699862052
10
27.6331040049
20
4.08208281202
10
27.5860716024
20
4.11634441502
10
27.5395282153
20
4.14973155654
10
27.4935558824
20
4.1821923636
10
27.4482366423
20
4.21367496321
10
27.4036525339
20
4.24412748239
10
27.3598855958
20
4.27349804817
10
27.3170178667
20
4.30173478755
10
27.2751313856
20
4.32878582757
10
27.2343081909
20
4.35459929522
10
27.1946303216
20
4.37912331755
10
27.1561798163
20
4.40230602155
10
27.1190387138
20
4.42409553426
10
27.0832890528
20
4.44443998268
10
27.049012872
20
4.46328749384
10
27.0162922103
20
4.48058619476
10
26.9852091062
20
4.49628421245
10
26.9558455986
20
4.51032967393
10
26.9282837262
20
4.52267070622
10
26.9026055277
20
4.53325543634
10
26.8788930419
20
4.54203199131
10
26.8572283075
20
4.54894849814
10
26.8376933632
20
4.55395308385
10
26.8203702478
20
4.55699387547
10
26.805341
20
4.558019
10
26.7776032319
20
4.55545359605
10
26.7462284768
20
4.54765859464
10
26.7110662033
20
4.53448581142
10
26.6719658801
20
4.51578706203
10
26.628776976
20
4.49141416213
10
26.5813489595
20
4.46121892736
10
26.5295312995
20
4.42505317337
10
26.4731734646
20
4.38276871582
10
26.4121249235
20
4.33421737035
10
26.3462351449
20
4.2792509526
10
26.2753535975
20
4.21772127824
10
26.19932975
20
4.1494801629
10
26.1180130712
20
4.07437942224
10
26.0312530296
20
3.99227087191
10
25.9388990941
20
3.90300632755
10
25.8408007332
20
3.80643760481
10
25.7368074158
20
3.70241651935
10
25.6267686104
20
3.59079488681
10
25.5105337859
20
3.47142452284
10
25.3879524108
20
3.34415724309
10
25.258873954
20
3.20884486321
10
25.123147884
20
3.06533919885
10
24.9806236697
20
2.91349206566
10
24.8311507796
20
2.75315527928
10
24.6745786825
20
2.58418065537
10
24.5107568471
20
2.40642000957
10
24.3395347421
20
2.21972515753
10
24.1607618362
20
2.02394791491
10
23.9742875981
20
1.81894009734
10
23.7799614965
20
1.60455352049
10
23.577633
20
1.38064
10
22.347104
20
0.016866
10
14.83171
20
0.036367
10
14.4337338685
20
0.0375033953879
10
14.0401977468
20
0.0388323212715
10
13.6516515283
20
0.0403470969085
10
13.2686451063
20
0.0420410415562
10
12.8917283742
20
0.0439074744722
10
12.5214512252
20
0.0459397149139
10
12.1583635527
20
0.0481310821389
10
11.80301525
20
0.0504748954047
10
11.4559562105
20
0.0529644739686
10
11.1177363274
20
0.0555931370884
10
10.7889054941
20
0.0583542040213
10
10.4700136039
20
0.061240994025
10
10.1616105501
20
0.064246826357
10
9.86424622611
20
0.0673650202746
10
9.57847052516
20
0.0705888950354
10
9.30483334061
20
0.0739117698969
10
9.04388456577
20
0.0773269641167
10
8.79617409399
20
0.0808277969521
10
8.56225181857
20
0.0844075876607
10
8.34266763284
20
0.0880596555
10
8.13797143013
20
0.0917773197274
10
7.94871310376
20
0.0955538996006
10
7.77544254704
20
0.0993827143768
10
7.61870965332
20
0.103257083314
10
7.4790643159
20
0.107170325669
10
7.35705642812
20
0.1111157607
10
7.25323588329
20
0.115086707663
10
7.16815257474
20
0.119076485818
10
7.10235639579
20
0.12307841442
10
7.05639723977
20
0.127085812729
10
7.030825
20
0.131092
10
7.030811
20
0.131101
10
7.00606359155
20
0.13778837518
10
6.98298700819
20
0.144438667416
10
6.96158642254
20
0.151152481588
10
6.94186700725
20
0.158030422577
10
6.92383393495
20
0.165173095264
10
6.90749237827
20
0.172681104528
10
6.89284750985
20
0.180655055252
10
6.87990450233
20
0.189195552314
10
6.86866852835
20
0.198403200597
10
6.85914476053
20
0.208378604981
10
6.85133837152
20
0.219222370347
10
6.84525453395
20
0.231035101574
10
6.84089842046
20
0.243917403545
10
6.83827520369
20
0.257969881139
10
6.83739005626
20
0.273293139237
10
6.83824815082
20
0.28998778272
10
6.84085466
20
0.308154416468
10
6.84521475644
20
0.327893645363
10
6.85133361277
20
0.349306074284
10
6.85921640163
20
0.372492308113
10
6.86886829566
20
0.39755295173
10
6.88029446749
20
0.424588610016
10
6.89350008976
20
0.453699887852
10
6.9084903351
20
0.484987390118
10
6.92527037615
20
0.518551721694
10
6.94384538555
20
0.554493487463
10
6.96422053593
20
0.592913292303
10
6.98640099993
20
0.633911741096
10
7.01039195019
20
0.677589438723
10
7.03619855933
20
0.724046990064
10
7.063826
20
0.773385
10
7.12859710765
20
0.888142019301
10
7.19229213904
20
0.999860070122
10
7.25490030197
20
1.10852380313
10
7.31641080427
20
1.21411786899
10
7.37681285375
20
1.31662691836
10
7.43609565822
20
1.41603560193
10
7.4942484255
20
1.51232857034
10
7.5512603634
20
1.60549047427
10
7.60712067974
20
1.69550596439
10
7.66181858232
20
1.78235969135
10
7.71534327898
20
1.86603630583
10
7.76768397751
20
1.94652045849
10
7.81882988574
20
2.02379680001
10
7.86877021147
20
2.09784998103
10
7.91749416253
20
2.16866465224
10
7.96499094673
20
2.2362254643
10
8.01124977188
20
2.30051706787
10
8.05625984579
20
2.36152411362
10
8.10001037629
20
2.41923125222
10
8.14249057118
20
2.47362313434
10
8.18368963828
20
2.52468441063
10
8.2235967854
20
2.57239973176
10
8.26220122037
20
2.61675374841
10
8.29949215099
20
2.65773111124
10
8.33545878507
20
2.69531647091
10
8.37009033044
20
2.7294944781
10
8.4033759949
20
2.76024978346
10
8.43530498627
20
2.78756703766
10
8.46586651237
20
2.81143089138
10
8.49504978101
20
2.83182599527
10
8.522844
20
2.848737
10
8.54540222668
20
2.86157296529
10
8.56655127025
20
2.87406813961
10
8.58629854698
20
2.88626285996
10
8.60465147313
20
2.89819746336
10
8.62161746497
20
2.90991228683
10
8.63720393877
20
2.92144766738
10
8.6514183108
20
2.93284394203
10
8.66426799731
20
2.94414144779
10
8.67576041459
20
2.95538052167
10
8.68590297889
20
2.96660150069
10
8.69470310648
20
2.97784472186
10
8.70216821362
20
2.9891505222
10
8.70830571659
20
3.00055923873
10
8.71312303165
20
3.01211120845
10
8.71662757507
20
3.02384676839
10
8.71882676312
20
3.03580625555
10
8.71972801205
20
3.04803000695
10
8.71933873814
20
3.06055835961
10
8.71766635766
20
3.07343165053
10
8.71471828687
20
3.08669021674
10
8.71050194203
20
3.10037439525
10
8.70502473942
20
3.11452452308
10
8.6982940953
20
3.12918093723
10
8.69031742593
20
3.14438397472
10
8.68110214759
20
3.16017397258
10
8.67065567655
20
3.1765912678
10
8.65898542906
20
3.19367619741
10
8.64609882139
20
3.21146909842
10
8.63200326981
20
3.23001030784
10
8.61670619059
20
3.2493401627
10
8.600215
20
3.269499
10
8.58822673821
20
3.28328200047
10
8.57506678705
20
3.29717591323
10
8.56078420429
20
3.3111551053
10
8.5454280477
20
3.32519394371
10
8.52904737505
20
3.33926679548
10
8.5116912441
20
3.35334802763
10
8.49340871263
20
3.36741200718
10
8.47424883841
20
3.38143310117
10
8.4542606792
20
3.39538567661
10
8.43349329277
20
3.40924410053
10
8.4119957369
20
3.42298273996
10
8.38981706935
20
3.4365759619
10
8.36700634789
20
3.4499981334
10
8.34361263029
20
3.46322362146
10
8.31968497432
20
3.47622679313
10
8.29527243775
20
3.48898201541
10
8.27042407835
20
3.50146365533
10
8.24518895388
20
3.51364607992
10
8.21961612212
20
3.5255036562
10
8.19375464083
20
3.5370107512
10
8.16765356779
20
3.54814173193
10
8.14136196076
20
3.55887096543
10
8.11492887751
20
3.5691728187
10
8.08840337582
20
3.57902165879
10
8.06183451344
20
3.58839185271
10
8.03527134816
20
3.59725776748
10
8.00876293773
20
3.60559377013
10
7.98235833993
20
3.61337422769
10
7.95610661253
20
3.62057350717
10
7.9300568133
20
3.6271659756
10
7.904258
20
3.633126
10
7.85187311621
20
3.64743692739
10
7.79614136048
20
3.66811401853
10
7.73702739885
20
3.69519509167
10
7.67449589735
20
3.72871796509
10
7.60851152204
20
3.76872045705
10
7.53903893894
20
3.81524038582
10
7.4660428141
20
3.86831556967
10
7.38948781357
20
3.92798382686
10
7.30933860337
20
3.99428297566
10
7.22555984955
20
4.06725083435
10
7.13811621815
20
4.14692522117
10
7.04697237521
20
4.23334395442
10
6.95209298677
20
4.32654485234
10
6.85344271887
20
4.42656573321
10
6.75098623755
20
4.53344441529
10
6.64468820886
20
4.64721871686
10
6.53451329882
20
4.76792645618
10
6.42042617348
20
4.89560545151
10
6.30239149888
20
5.03029352113
10
6.18037394106
20
5.1720284833
10
6.05433816606
20
5.32084815629
10
5.92424883992
20
5.47679035836
10
5.79007062868
20
5.63989290779
10
5.65176819838
20
5.81019362284
10
5.50930621506
20
5.98773032178
10
5.36264934477
20
6.17254082287
10
5.21176225353
20
6.36466294438
10
5.0566096074
20
6.56413450458
10
4.8971560724
20
6.77099332174
10
4.73336631459
20
6.98527721413
10
4.565205
20
7.207024
10
4.50945391111
20
7.28042930476
10
4.45385438673
20
7.35287046303
10
4.39849516928
20
7.42424966339
10
4.34346500121
20
7.49446909442
10
4.28885262495
20
7.56343094471
10
4.23474678295
20
7.63103740284
10
4.18123621765
20
7.69719065738
10
4.12840967148
20
7.76179289692
10
4.07635588688
20
7.82474631003
10
4.02516360629
20
7.88595308529
10
3.97492157215
20
7.9453154113
10
3.9257185269
20
8.00273547662
10
3.87764321298
20
8.05811546984
10
3.83078437283
20
8.11135757954
10
3.78523074888
20
8.16236399429
10
3.74107108358
20
8.21103690269
10
3.69839411936
20
8.2572784933
10
3.65728859867
20
8.30099095472
10
3.61784326394
20
8.34207647551
10
3.58014685761
20
8.38043724427
10
3.54428812212
20
8.41597544957
10
3.51035579991
20
8.44859327998
10
3.47843863341
20
8.4781929241
10
3.44862536508
20
8.50467657051
10
3.42100473734
20
8.52794640777
10
3.39566549263
20
8.54790462448
10
3.3726963734
20
8.56445340922
10
3.35218612208
20
8.57749495056
10
3.33422348112
20
8.58693143708
10
3.31889719294
20
8.59266505737
10
3.306296
20
8.594598
10
3.28156711366
20
8.59737076594
10
3.25293272821
20
8.60559161968
10
3.22053696368
20
8.61911439515
10
3.18452394012
20
8.63779292625
10
3.14503777755
20
8.66148104689
10
3.10222259602
20
8.69003259098
10
3.05622251556
20
8.72330139243
10
3.0071816562
20
8.76114128515
10
2.95524413799
20
8.80340610305
10
2.90055408096
20
8.84994968004
10
2.84325560515
20
8.90062585002
10
2.78349283059
20
8.95528844691
10
2.72140987731
20
9.01379130462
10
2.65715086536
20
9.07598825706
10
2.59085991477
20
9.14173313813
10
2.52268114558
20
9.21087978175
10
2.45275867782
20
9.28328202182
10
2.38123663153
20
9.35879369226
10
2.30825912675
20
9.43726862697
10
2.23397028351
20
9.51856065986
10
2.15851422185
20
9.60252362485
10
2.0820350618
20
9.68901135585
10
2.0046769234
20
9.77787768675
10
1.92658392669
20
9.86897645148
10
1.8479001917
20
9.96216148394
10
1.76876983847
20
10.057286618
10
1.68933698704
20
10.1542056877
10
1.60974575744
20
10.2527725268
10
1.53014026971
20
10.3528409693
10
1.45066464389
20
10.454264849
10
1.371463
20
10.556898
10
1.31161533685
20
10.6370004351
10
1.25105481444
20
10.7218260822
10
1.18996281078
20
10.810986809
10
1.12852070387
20
10.9040944831
10
1.06690987171
20
11.000760972
10
1.00531169229
20
11.1005981435
10
0.943907543621
20
11.203217865
10
0.882878803699
20
11.3082320042
10
0.822406850525
20
11.4152524288
10
0.762673062099
20
11.5238910063
10
0.703858816421
20
11.6337596043
10
0.646145491491
20
11.7444700905
10
0.589714465308
20
11.8556343324
10
0.534747115874
20
11.9668641978
10
0.481424821188
20
12.0777715541
10
0.429928959249
20
12.187968269
10
0.380440908059
20
12.2970662101
10
0.333142045618
20
12.4046772451
10
0.288213749924
20
12.5104132414
10
0.24583739898
20
12.6138860669
10
0.206194370783
20
12.7147075889
10
0.169466043335
20
12.8124896753
10
0.135833794636
20
12.9068441935
10
0.105479002685
20
12.9973830112
10
0.0785830454835
20
13.083717996
10
0.0553273010305
20
13.1654610155
10
0.0358931473264
20
13.2422239373
10
0.0204619623712
20
13.313618629
10
0.00921512416502
20
13.3792569583
10
0.00233401070793
20
13.4387507928
10
0
20
13.491712
10
0.000240629250445
20
13.520507077
10
0.0010179413917
20
13.5475955442
10
0.00241507300863
20
13.5730094495
10
0.00451516068611
20
13.5967808408
10
0.00740134100903
20
13.6189417659
10
0.0111567505623
20
13.6395242726
10
0.0158645259307
20
13.6585604089
10
0.0216078036991
20
13.6760822227
10
0.0284697204525
20
13.6921217617
10
0.0365334127757
20
13.7067110739
10
0.0458820172535
20
13.7198822071
10
0.0565986704709
20
13.7316672092
10
0.0687665090128
20
13.742098128
10
0.0824686694639
20
13.7512070114
10
0.0977882884093
20
13.7590259074
10
0.114808502434
20
13.7655868637
10
0.133612448122
20
13.7709219282
10
0.154283262059
20
13.7750631488
10
0.17690408083
20
13.7780425734
10
0.201558041019
20
13.7798922497
10
0.228328279212
20
13.7806442258
10
0.257297931993
20
13.7803305494
10
0.288550135947
20
13.7789832685
10
0.322168027659
20
13.7766344308
10
0.358234743715
20
13.7733160843
10
0.396833420698
20
13.7690602768
10
0.438047195193
20
13.7638990562
10
0.481959203786
20
13.7578644703
10
0.528652583062
20
13.7509885671
10
0.578210469605
20
13.7433033944
10
0.630716
20
13.734841
10
0.747923220436
20
13.7165698904
10
0.866380643819
20
13.6998944666
10
0.985878106811
20
13.6848059732
10
1.10620544607
20
13.6712956549
10
1.22715249827
20
13.6593547562
10
1.34850910006
20
13.6489745217
10
1.47006508811
20
13.640146196
10
1.59161029908
20
13.6328610238
10
1.71293456964
20
13.6271102496
10
1.83382773643
20
13.622885118
10
1.95407963613
20
13.6201768737
10
2.0734801054
20
13.6189767613
10
2.1918189809
20
13.6192760253
10
2.30888609929
20
13.6210659103
10
2.42447129724
20
13.6243376611
10
2.5383644114
20
13.6290825221
10
2.65035527844
20
13.6352917379
10
2.76023373502
20
13.6429565533
10
2.8677896178
20
13.6520682127
10
2.97281276345
20
13.6626179608
10
3.07509300863
20
13.6745970422
10
3.17442018999
20
13.6879967015
10
3.2705841442
20
13.7028081833
10
3.36337470793
20
13.7190227322
10
3.45258171783
20
13.7366315928
10
3.53799501057
20
13.7556260097
10
3.61940442281
20
13.7759972275
10
3.69659979121
20
13.7977364909
10
3.76937095244
20
13.8208350443
10
3.83750774314
20
13.8452841325
10
3.9008
20
13.871075
10
4.521878
20
14.14136
10
4.425815
20
15.287199
10
4.41963692303
20
15.3647843138
10
4.41421331036
20
15.4412200472
10
4.4095482829
20
15.5165545659
10
4.40564596157
20
15.5908362353
10
4.40251046726
20
15.664113421
10
4.40014592088
20
15.7364344885
10
4.39855644336
20
15.8078478034
10
4.39774615558
20
15.8784017313
10
4.39771917848
20
15.9481446376
10
4.39847963294
20
16.017124888
10
4.40003163989
20
16.085390848
10
4.40237932023
20
16.1529908831
10
4.40552679487
20
16.2199733588
10
4.40947818472
20
16.2863866408
10
4.41423761069
20
16.3522790945
10
4.41980919368
20
16.4176990855
10
4.42619705461
20
16.4826949794
10
4.43340531439
20
16.5473151417
10
4.44143809392
20
16.611607938
10
4.45029951412
20
16.6756217337
10
4.45999369588
20
16.7394048945
10
4.47052476013
20
16.8030057859
10
4.48189682777
20
16.8664727734
10
4.4941140197
20
16.9298542226
10
4.50718045685
20
16.993198499
10
4.52110026011
20
17.0565539682
10
4.5358775504
20
17.1199689957
10
4.55151644863
20
17.1834919471
10
4.56802107569
20
17.2471711879
10
4.58539555252
20
17.3110550837
10
4.603644
20
17.375192
10
4.61813325451
20
17.4259931711
10
4.63243221087
20
17.4780267423
10
4.64652156158
20
17.531177736
10
4.66038199913
20
17.5853311747
10
4.673994216
20
17.6403720806
10
4.6873389047
20
17.6961854762
10
4.70039675771
20
17.7526563838
10
4.71314846752
20
17.8096698259
10
4.72557472663
20
17.8671108249
10
4.73765622752
20
17.9248644031
10
4.74937366268
20
17.9828155829
10
4.76070772461
20
18.0408493867
10
4.7716391058
20
18.098850837
10
4.78214849874
20
18.156704956
10
4.79221659592
20
18.2142967662
10
4.80182408983
20
18.27151129
10
4.81095167295
20
18.3282335497
10
4.8195800378
20
18.3843485678
10
4.82768987684
20
18.4397413667
10
4.83526188258
20
18.4942969686
10
4.84227674751
20
18.5479003961
10
4.84871516411
20
18.6004366715
10
4.85455782488
20
18.6517908172
10
4.85978542231
20
18.7018478555
10
4.86437864889
20
18.750492809
10
4.86831819711
20
18.7976106999
10
4.87158475946
20
18.8430865506
10
4.87415902843
20
18.8868053836
10
4.87602169652
20
18.9286522213
10
4.87715345621
20
18.9685120859
10
4.877535
20
19.00627
10
4.8778773826
20
19.0525183907
10
4.87890966953
20
19.0977376
10
4.8806395695
20
19.1419498452
10
4.88307479121
20
19.1851773433
10
4.88622304337
20
19.2274423116
10
4.89009203467
20
19.2687669673
10
4.89468947383
20
19.3091735275
10
4.90002306955
20
19.3486842094
10
4.90610053053
20
19.3873212302
10
4.91292956547
20
19.4251068071
10
4.92051788309
20
19.4620631572
10
4.92887319207
20
19.4982124978
10
4.93800320113
20
19.533577046
10
4.94791561898
20
19.568179019
10
4.95861815431
20
19.6020406339
10
4.97011851583
20
19.635184108
10
4.98242441224
20
19.6676316585
10
4.99554355225
20
19.6994055024
10
5.00948364456
20
19.730527857
10
5.02425239787
20
19.7610209395
10
5.0398575209
20
19.7909069671
10
5.05630672233
20
19.8202081569
10
5.07360771089
20
19.8489467261
10
5.09176819526
20
19.8771448919
10
5.11079588416
20
19.9048248714
10
5.13069848629
20
19.9320088819
10
5.15148371035
20
19.9587191406
10
5.17315926505
20
19.9849778645
10
5.19573285908
20
20.010807271
10
5.21921220117
20
20.0362295771
10
5.243605
20
20.061267
10
5.2634658562
20
20.081568583
10
5.28404549371
20
20.1034561031
10
5.30529306428
20
20.1268563943
10
5.32715771968
20
20.1516962909
10
5.34958861166
20
20.1779026267
10
5.37253489198
20
20.2054022359
10
5.3959457124
20
20.2341219527
10
5.41977022467
20
20.263988611
10
5.44395758054
20
20.2949290449
10
5.46845693179
20
20.3268700885
10
5.49321743016
20
20.3597385759
10
5.51818822742
20
20.3934613412
10
5.54331847531
20
20.4279652185
10
5.5685573256
20
20.4631770418
10
5.59385393005
20
20.4990236451
10
5.6191574404
20
20.5354318627
10
5.64441700843
20
20.5723285285
10
5.66958178587
20
20.6096404766
10
5.69460092451
20
20.6472945412
10
5.71942357608
20
20.6852175562
10
5.74399889235
20
20.7233363558
10
5.76827602507
20
20.7615777741
10
5.79220412601
20
20.799868645
10
5.81573234692
20
20.8381358028
10
5.83880983955
20
20.8763060814
10
5.86138575566
20
20.914306315
10
5.88340924702
20
20.9520633377
10
5.90482946538
20
20.9895039834
10
5.92559556249
20
21.0265550863
10
5.94565669011
20
21.0631434805
10
5.964962
20
21.099196
10
5.98439640361
20
21.1352154676
10
6.00483988654
20
21.1717058216
10
6.02623508274
20
21.2085955699
10
6.04852462616
20
21.2458132202
10
6.07165115075
20
21.2832872803
10
6.09555729046
20
21.3209462577
10
6.12018567923
20
21.3587186604
10
6.14547895103
20
21.396532996
10
6.17137973979
20
21.4343177723
10
6.19783067947
20
21.472001497
10
6.22477440401
20
21.5095126778
10
6.25215354738
20
21.5467798225
10
6.27991074351
20
21.5837314388
10
6.30798862636
20
21.6202960345
10
6.33632982988
20
21.6564021173
10
6.36487698802
20
21.6919781949
10
6.39357273472
20
21.7269527751
10
6.42235970394
20
21.7612543655
10
6.45118052962
20
21.7948114741
10
6.47997784573
20
21.8275526084
10
6.50869428619
20
21.8594062762
10
6.53727248498
20
21.8903009853
10
6.56565507603
20
21.9201652433
10
6.5937846933
20
21.9489275581
10
6.62160397073
20
21.9765164374
10
6.64905554228
20
22.0028603888
10
6.67608204189
20
22.0278879202
10
6.70262610352
20
22.0515275393
10
6.72863036112
20
22.0737077538
10
6.75403744863
20
22.0943570715
10
6.77879
20
22.113404
10
6.81902167836
20
22.1432957293
10
6.85712452365
20
22.1712420218
10
6.89324563828
20
22.1972554698
10
6.92753212467
20
22.2213486657
10
6.96013108523
20
22.2435342017
10
6.99118962237
20
22.2638246703
10
7.02085483851
20
22.2822326636
10
7.04927383606
20
22.2987707741
10
7.07659371743
20
22.3134515941
10
7.10296158504
20
22.3262877159
10
7.1285245413
20
22.3372917318
10
7.15342968863
20
22.3464762342
10
7.17782412944
20
22.3538538153
10
7.20185496613
20
22.3594370676
10
7.22566930113
20
22.3632385833
10
7.24941423685
20
22.3652709547
10
7.2732368757
20
22.3655467743
10
7.2972843201
20
22.3640786342
10
7.32170367245
20
22.3608791269
10
7.34664203518
20
22.3559608447
10
7.37224651069
20
22.3493363798
10
7.3986642014
20
22.3410183247
10
7.42604220973
20
22.3310192717
10
7.45452763808
20
22.319351813
10
7.48426758887
20
22.306028541
10
7.51540916451
20
22.291062048
10
7.54809946742
20
22.2744649264
10
7.58248560001
20
22.2562497685
10
7.6187146647
20
22.2364291665
10
7.65693376389
20
22.2150157129
10
7.69729
20
22.192022
10
7.72349741335
20
22.1776738682
10
7.75307074069
20
22.1627290537
10
7.78588270978
20
22.1472262182
10
7.82180604834
20
22.1312040236
10
7.86071348411
20
22.1147011314
10
7.90247774482
20
22.0977562036
10
7.94697155822
20
22.0804079018
10
7.99406765204
20
22.0626948878
10
8.04363875402
20
22.0446558233
10
8.09555759189
20
22.02632937
10
8.14969689339
20
22.0077541898
10
8.20592938626
20
21.9889689442
10
8.26412779823
20
21.9700122952
10
8.32416485704
20
21.9509229044
10
8.38591329042
20
21.9317394336
10
8.44924582612
20
21.9125005445
10
8.51403519187
20
21.8932448989
10
8.5801541154
20
21.8740111585
10
8.64747532446
20
21.854837985
10
8.71587154678
20
21.8357640402
10
8.78521551009
20
21.8168279859
10
8.85537994213
20
21.7980684837
10
8.92623757064
20
21.7795241955
10
8.99766112336
20
21.7612337829
10
9.06952332802
20
21.7432359077
10
9.14169691236
20
21.7255692317
10
9.21405460411
20
21.7082724166
10
9.28646913101
20
21.6913841241
10
9.3588132208
20
21.674943016
10
9.43095960122
20
21.6589877541
10
9.502781
20
21.643557
10
9.57468154221
20
21.62827206
10
9.64706192249
20
21.6127493217
10
9.71979088423
20
21.5970200691
10
9.79273717079
20
21.5811155862
10
9.86576952556
20
21.5650671568
10
9.93875669192
20
21.5489060649
10
10.0115674132
20
21.5326635945
10
10.0840704329
20
21.5163710295
10
10.1561344943
20
21.5000596538
10
10.2276283408
20
21.4837607515
10
10.2984207158
20
21.4675056064
10
10.3683803626
20
21.4513255024
10
10.4373760247
20
21.4352517236
10
10.5052764454
20
21.4193155539
10
10.5719503681
20
21.4035482772
10
10.6372665362
20
21.3879811775
10
10.701093693
20
21.3726455387
10
10.763300582
20
21.3575726447
10
10.8237559464
20
21.3427937796
10
10.8823285298
20
21.3283402271
10
10.9388870754
20
21.3142432714
10
10.9933003267
20
21.3005341963
10
11.045437027
20
21.2872442858
10
11.0951659197
20
21.2744048238
10
11.1423557482
20
21.2620470943
10
11.1868752559
20
21.2502023812
10
11.2285931861
20
21.2389019685
10
11.2673782823
20
21.22817714
10
11.3030992877
20
21.2180591799
10
11.3356249458
20
21.2085793719
10
11.364824
20
21.199769
10
11.4389608061
20
21.1780637579
10
11.5147530793
20
21.1580498247
10
11.5920042471
20
21.1397199227
10
11.670517737
20
21.1230667738
10
11.7500969767
20
21.1080831002
10
11.8305453937
20
21.094761624
10
11.9116664155
20
21.0830950673
10
11.9932634696
20
21.0730761521
10
12.0751399837
20
21.0646976006
10
12.1570993852
20
21.0579521348
10
12.2389451017
20
21.052832477
10
12.3204805607
20
21.049331349
10
12.4015091898
20
21.0474414732
10
12.4818344166
20
21.0471555714
10
12.5612596685
20
21.048466366
10
12.6395883731
20
21.0513665789
10
12.716623958
20
21.0558489322
10
12.7921698508
20
21.0619061481
10
12.8660294788
20
21.0695309486
10
12.9380062698
20
21.0787160558
10
13.0079036512
20
21.0894541919
10
13.0755250507
20
21.1017380789
10
13.1406738956
20
21.115560439
10
13.2031536136
20
21.1309139941
10
13.2627676323
20
21.1477914665
10
13.3193193791
20
21.1661855782
10
13.3726122817
20
21.1860890514
10
13.4224497675
20
21.207494608
10
13.4686352641
20
21.2303949703
10
13.5109721991
20
21.2547828602
10
13.549264
20
21.280651
10
13.5772067578
20
21.3018935105
10
13.6035114049
20
21.3235783136
10
13.6282236951
20
21.3460837688
10
13.6513893824
20
21.3697882353
10
13.6730542209
20
21.3950700724
10
13.6932639644
20
21.4223076394
10
13.7120643668
20
21.4518792956
10
13.7295011822
20
21.4841634004
10
13.7456201645
20
21.519538313
10
13.7604670677
20
21.5583823927
10
13.7740876457
20
21.6010739989
10
13.7865276524
20
21.6479914908
10
13.7978328418
20
21.6995132277
10
13.8080489679
20
21.756017569
10
13.8172217846
20
21.8178828739
10
13.8253970458
20
21.8854875018
10
13.8326205056
20
21.9592098119
10
13.8389379178
20
22.0394281636
10
13.8443950365
20
22.1265209161
10
13.8490376155
20
22.2208664288
10
13.8529114089
20
22.322843061
10
13.8560621705
20
22.4328291719
10
13.8585356544
20
22.5512031209
10
13.8603776144
20
22.6783432673
10
13.8616338046
20
22.8146279704
10
13.8623499789
20
22.9604355894
10
13.8625718912
20
23.1161444838
10
13.8623452956
20
23.2821330127
10
13.8617159458
20
23.4587795355
10
13.860729596
20
23.6464624115
10
13.859432
20
23.84556
10
13.856745221
20
24.1267608696
10
13.8526329171
20
24.401016753
10
13.8470193635
20
24.6688845621
10
13.8398288354
20
24.9309212086
10
13.8309856081
20
25.1876836043
10
13.8204139569
20
25.4397286611
10
13.808038157
20
25.6876132908
10
13.7937824836
20
25.9318944052
10
13.777571212
20
26.1731289161
10
13.7593286174
20
26.4118737354
10
13.7389789752
20
26.6486857748
10
13.7164465605
20
26.8841219462
10
13.6916556486
20
27.1187391615
10
13.6645305148
20
27.3530943323
10
13.6349954343
20
27.5877443706
10
13.6029746823
20
27.8232461882
10
13.5683925341
20
28.0601566968
10
13.531173265
20
28.2990328084
10
13.4912411502
20
28.5404314346
10
13.448520465
20
28.7849094874
10
13.4029354845
20
29.0330238786
10
13.3544104842
20
29.2853315199
10
13.3028697391
20
29.5423893233
10
13.2482375246
20
29.8047542004
10
13.1904381159
20
30.0729830632
10
13.1293957883
20
30.3476328234
10
13.065034817
20
30.6292603929
10
12.9972794773
20
30.9184226835
10
12.9260540444
20
31.215676607
10
12.8512827935
20
31.5215790752
10
12.77289
20
31.836687
10
12.690375473
20
32.1709585379
10
12.6092921339
20
32.5098928184
10
12.5297263774
20
32.8529177932
10
12.4517645985
20
33.199461414
10
12.3754931921
20
33.5489516326
10
12.300998553
20
33.9008164007
10
12.2283670761
20
34.25448367
10
12.1576851564
20
34.6093813923
10
12.0890391886
20
34.9649375192
10
12.0225155678
20
35.3205800026
10
11.9582006887
20
35.6757367941
10
11.8961809463
20
36.0298358455
10
11.8365427354
20
36.3823051085
10
11.7793724509
20
36.7325725348
10
11.7247564877
20
37.0800660762
10
11.6727812407
20
37.4242136844
10
11.6235331048
20
37.7644433112
10
11.5770984748
20
38.1001829082
10
11.5335637457
20
38.4308604271
10
11.4930153123
20
38.7559038198
10
11.4555395696
20
39.074741038
10
11.4212229123
20
39.3868000333
10
11.3901517354
20
39.6915087576
10
11.3624124338
20
39.9882951625
10
11.3380914023
20
40.2765871997
10
11.3172750358
20
40.5558128211
10
11.3000497293
20
40.8253999783
10
11.2865018775
20
41.084776623
10
11.2767178755
20
41.3333707071
10
11.270784118
20
41.5706101822
10
11.268787
20
41.795923
10
11.2691614581
20
41.8922461072
10
11.2702722006
20
41.9925373434
10
11.27210028
20
42.0965380968
10
11.2746267486
20
42.2039897555
10
11.2778326589
20
42.3146337076
10
11.2816990632
20
42.4282113413
10
11.286207014
20
42.5444640447
10
11.2913375636
20
42.663133206
10
11.2970717644
20
42.7839602133
10
11.3033906689
20
42.9066864547
10
11.3102753294
20
43.0310533184
10
11.3177067983
20
43.1568021925
10
11.3256661281
20
43.2836744651
10
11.3341343711
20
43.4114115245
10
11.3430925797
20
43.5397547586
10
11.3525218064
20
43.6684455557
10
11.3624031034
20
43.7972253039
10
11.3727175233
20
43.9258353913
10
11.3834461184
20
44.054017206
10
11.3945699412
20
44.1815121363
10
11.4060700439
20
44.3080615702
10
11.4179274791
20
44.4334068959
10
11.4301232991
20
44.5572895016
10
11.4426385562
20
44.6794507752
10
11.455454303
20
44.7996321051
10
11.4685515919
20
44.9175748793
10
11.4819114751
20
45.033020486
10
11.4955150051
20
45.1457103132
10
11.5093432343
20
45.2553857492
10
11.5233772152
20
45.3617881821
10
11.537598
20
45.464659
10
11.5579339249
20
45.6109020301
10
11.5771051742
20
45.7544823707
10
11.5951235409
20
45.895837478
10
11.6120008175
20
46.0354048083
10
11.6277487969
20
46.1736218178
10
11.6423792718
20
46.3109259626
10
11.655904035
20
46.4477546991
10
11.6683348792
20
46.5845454833
10
11.6796835972
20
46.7217357715
10
11.6899619817
20
46.85976302
10
11.6991818256
20
46.9990646849
10
11.7073549215
20
47.1400782224
10
11.7144930622
20
47.2832410889
10
11.7206080405
20
47.4289907403
10
11.7257116491
20
47.5777646331
10
11.7298156808
20
47.7300002233
10
11.7329319283
20
47.8861349673
10
11.7350721844
20
48.0466063211
10
11.7362482419
20
48.2118517411
10
11.7364718935
20
48.3823086835
10
11.7357549319
20
48.5584146043
10
11.7341091499
20
48.74060696
10
11.7315463404
20
48.9293232066
10
11.7280782959
20
49.1250008004
10
11.7237168094
20
49.3280771976
10
11.7184736735
20
49.5389898544
10
11.7123606809
20
49.758176227
10
11.7053896246
20
49.9860737717
10
11.6975722971
20
50.2231199446
10
11.6889204914
20
50.469752202
10
11.679446
20
50.726408
10
11.6727075005
20
50.9149087592
10
11.6660141912
20
51.1218134265
10
11.6593761302
20
51.3463511025
10
11.6528033756
20
51.5877508879
10
11.6463059854
20
51.8452418831
10
11.6398940177
20
52.1180531887
10
11.6335775306
20
52.4054139055
10
11.6273665822
20
52.706553134
10
11.6212712305
20
53.0206999748
10
11.6153015336
20
53.3470835285
10
11.6094675495
20
53.6849328957
10
11.6037793364
20
54.033477177
10
11.5982469523
20
54.391945473
10
11.5928804552
20
54.7595668843
10
11.5876899034
20
55.1355705115
10
11.5826853547
20
55.5191854552
10
11.5778768673
20
55.909640816
0
ENDSEC
0
SECTION
2
OBJECTS
0
DICTIONARY
5
C
330
0
100
AcDbDictionary
281
1
3
ACAD_GROUP
350
D
0
DICTIONARY
5
D
330
C
100
AcDbDictionary
281
1
0
ENDSEC
0
EOF
