999
dxfrw 0.5.10
0
SECTION
2
HEADER
9
$ACADVER
1
AC1021
9
$HANDSEED
5
20000
9
$DWGCODEPAGE
3
ANSI_1252
9
$INSBASE
10
0
20
0
30
0
9
$EXTMIN
10
0
20
0.000131958611661
30
0
9
$EXTMAX
10
31.6728567822
20
99.9998598185
30
0
9
$LIMMIN
10
0
20
0
9
$LIMMAX
10
420
20
297
9
$ORTHOMODE
70
0
9
$LTSCALE
40
1
9
$TEXTSTYLE
7
STANDARD
9
$CLAYER
8
0
9
$DIMASZ
40
2.5
9
$DIMLFAC
40
1
9
$DIMSCALE
40
1
9
$DIMEXO
40
0.625
9
$DIMEXE
40
1.25
9
$DIMTXT
40
2.5
9
$DIMTSZ
40
0
9
$DIMAUNIT
70
0
9
$DIMADEC
70
0
9
$DIMLUNIT
70
2
9
$DIMSTYLE
2
Standard
9
$DIMGAP
40
0.625
9
$DIMTIH
70
0
9
$LUNITS
70
2
9
$LUPREC
70
4
9
$AUNITS
70
0
9
$AUPREC
70
2
9
$SPLINESEGS
70
8
9
$GRIDMODE
70
1
9
$SNAPSTYLE
70
0
9
$PINSBASE
10
0
20
0
30
0
9
$PLIMMIN
10
0
20
0
9
$PLIMMAX
10
210
20
297
9
$INSUNITS
70
4
9
$PSVPSCALE
40
1
0
ENDSEC
0
SECTION
2
CLASSES
0
ENDSEC
0
SECTION
2
TABLES
0
TABLE
2
VPORT
5
8
330
0
100
AcDbSymbolTable
70
1
0
VPORT
5
31
330
2
100
AcDbSymbolTableRecord
100
AcDbViewportTableRecord
2
*ACTIVE
70
0
10
0
20
0
11
1
21
1
12
78.4458481606
22
59.6102829815
13
0
23
0
14
10
24
10
15
10
25
10
16
0
26
0
36
1
17
0
27
0
37
0
40
160.530385049
41
1.65333333333
42
50
43
0
44
0
50
0
51
0
71
0
72
100
73
1
74
3
75
0
76
1
77
0
78
0
281
0
65
1
110
0
120
0
130
0
111
1
121
0
131
0
112
0
122
1
132
0
79
0
146
0
348
10020
60
7
61
5
292
1
282
1
141
0
142
0
63
250
421
3358443
0
ENDTAB
0
TABLE
2
LTYPE
5
5
330
0
100
AcDbSymbolTable
70
4
0
LTYPE
5
14
330
5
100
AcDbSymbolTableRecord
100
AcDbLinetypeTableRecord
2
ByBlock
70
0
3

72
65
73
0
40
0
0
LTYPE
5
15
330
5
100
AcDbSymbolTableRecord
100
AcDbLinetypeTableRecord
2
ByLayer
70
0
3

72
65
73
0
40
0
0
LTYPE
5
16
330
5
100
AcDbSymbolTableRecord
100
AcDbLinetypeTableRecord
2
Continuous
70
0
3
Solid line
72
65
73
0
40
0
0
LTYPE
5
32
330
5
100
AcDbSymbolTableRecord
100
AcDbLinetypeTableRecord
2
DOT
70
0
3
Dot . . . . . . . . . . . . . . . . . . . . . .
72
65
73
2
40
6.35
49
0
74
0
49
-6.35
74
0
0
LTYPE
5
33
330
5
100
AcDbSymbolTableRecord
100
AcDbLinetypeTableRecord
2
DOT2
70
0
3
Dot (.5x) .....................................
72
65
73
2
40
3.175
49
0
74
0
49
-3.175
74
0
0
LTYPE
5
34
330
5
100
AcDbSymbolTableRecord
100
AcDbLinetypeTableRecord
2
DOTX2
70
0
3
Dot (2x) .  .  .  .  .  .  .  .  .  .  .  .  .
72
65
73
2
40
12.7
49
0
74
0
49
-12.7
74
0
0
LTYPE
5
35
330
5
100
AcDbSymbolTableRecord
100
AcDbLinetypeTableRecord
2
DASHED
70
0
3
Dot . . . . . . . . . . . . . . . . . . . . . .
72
65
73
2
40
19.05
49
12.7
74
0
49
-6.35
74
0
0
LTYPE
5
36
330
5
100
AcDbSymbolTableRecord
100
AcDbLinetypeTableRecord
2
DASHED2
70
0
3
Dashed (.5x) _ _ _ _ _ _ _ _ _ _ _ _ _ _ _ _ _
72
65
73
2
40
9.525
49
6.35
74
0
49
-3.175
74
0
0
LTYPE
5
37
330
5
100
AcDbSymbolTableRecord
100
AcDbLinetypeTableRecord
2
DASHEDX2
70
0
3
Dashed (2x) ____  ____  ____  ____  ____  ___
72
65
73
2
40
38.1
49
25.4
74
0
49
-12.7
74
0
0
LTYPE
5
38
330
5
100
AcDbSymbolTableRecord
100
AcDbLinetypeTableRecord
2
DASHDOT
70
0
3
Dash dot __ . __ . __ . __ . __ . __ . __ . __
72
65
73
4
40
25.4
49
12.7
74
0
49
-6.35
74
0
49
0
74
0
49
-6.35
74
0
0
LTYPE
5
39
330
5
100
AcDbSymbolTableRecord
100
AcDbLinetypeTableRecord
2
DASHDOT2
70
0
3
Dash dot (.5x) _._._._._._._._._._._._._._._.
72
65
73
4
40
12.7
49
6.35
74
0
49
-3.175
74
0
49
0
74
0
49
-3.175
74
0
0
LTYPE
5
3A
330
5
100
AcDbSymbolTableRecord
100
AcDbLinetypeTableRecord
2
DASHDOTX2
70
0
3
Dash dot (2x) ____  .  ____  .  ____  .  ___
72
65
73
4
40
50.8
49
25.4
74
0
49
-12.7
74
0
49
0
74
0
49
-12.7
74
0
0
LTYPE
5
3B
330
5
100
AcDbSymbolTableRecord
100
AcDbLinetypeTableRecord
2
DIVIDE
70
0
3
Divide ____ . . ____ . . ____ . . ____ . . ____
72
65
73
6
40
31.75
49
12.7
74
0
49
-6.35
74
0
49
0
74
0
49
-6.35
74
0
49
0
74
0
49
-6.35
74
0
0
LTYPE
5
3C
330
5
100
AcDbSymbolTableRecord
100
AcDbLinetypeTableRecord
2
DIVIDE2
70
0
3
Divide (.5x) __..__..__..__..__..__..__..__.._
72
65
73
6
40
15.875
49
6.35
74
0
49
-3.175
74
0
49
0
74
0
49
-3.175
74
0
49
0
74
0
49
-3.175
74
0
0
LTYPE
5
3D
330
5
100
AcDbSymbolTableRecord
100
AcDbLinetypeTableRecord
2
DIVIDEX2
70
0
3
Divide (2x) ________  .  .  ________  .  .  _
72
65
73
6
40
63.5
49
25.4
74
0
49
-12.7
74
0
49
0
74
0
49
-12.7
74
0
49
0
74
0
49
-12.7
74
0
0
LTYPE
5
3E
330
5
100
AcDbSymbolTableRecord
100
AcDbLinetypeTableRecord
2
BORDER
70
0
3
Border __ __ . __ __ . __ __ . __ __ . __ __ .
72
65
73
6
40
44.45
49
12.7
74
0
49
-6.35
74
0
49
12.7
74
0
49
-6.35
74
0
49
0
74
0
49
-6.35
74
0
0
LTYPE
5
3F
330
5
100
AcDbSymbolTableRecord
100
AcDbLinetypeTableRecord
2
BORDER2
70
0
3
Border (.5x) __.__.__.__.__.__.__.__.__.__.__.
72
65
73
6
40
22.225
49
6.35
74
0
49
-3.175
74
0
49
6.35
74
0
49
-3.175
74
0
49
0
74
0
49
-3.175
74
0
0
LTYPE
5
40
330
5
100
AcDbSymbolTableRecord
100
AcDbLinetypeTableRecord
2
BORDERX2
70
0
3
Border (2x) ____  ____  .  ____  ____  .  ___
72
65
73
6
40
88.9
49
25.4
74
0
49
-12.7
74
0
49
25.4
74
0
49
-12.7
74
0
49
0
74
0
49
-12.7
74
0
0
LTYPE
5
41
330
5
100
AcDbSymbolTableRecord
100
AcDbLinetypeTableRecord
2
CENTER
70
0
3
Center ____ _ ____ _ ____ _ ____ _ ____ _ ____
72
65
73
4
40
50.8
49
31.75
74
0
49
-6.35
74
0
49
6.35
74
0
49
-6.35
74
0
0
LTYPE
5
42
330
5
100
AcDbSymbolTableRecord
100
AcDbLinetypeTableRecord
2
CENTER2
70
0
3
Center (.5x) ___ _ ___ _ ___ _ ___ _ ___ _ ___
72
65
73
4
40
28.575
49
19.05
74
0
49
-3.175
74
0
49
3.175
74
0
49
-3.175
74
0
0
LTYPE
5
43
330
5
100
AcDbSymbolTableRecord
100
AcDbLinetypeTableRecord
2
CENTERX2
70
0
3
Center (2x) ________  __  ________  __  _____
72
65
73
4
40
101.6
49
63.5
74
0
49
-12.7
74
0
49
12.7
74
0
49
-12.7
74
0
0
ENDTAB
0
TABLE
2
LAYER
5
2
330
0
100
AcDbSymbolTable
70
1
0
LAYER
5
10
330
2
100
AcDbSymbolTableRecord
100
AcDbLayerTableRecord
2
0
70
0
62
7
6
CONTINUOUS
370
-3
390
F
0
ENDTAB
0
TABLE
2
STYLE
5
3
330
0
100
AcDbSymbolTable
70
3
0
STYLE
5
44
330
2
100
AcDbSymbolTableRecord
100
AcDbTextStyleTableRecord
2
Standard
70
0
40
0
41
1
50
0
71
0
42
1
3
txt
4

0
ENDTAB
0
TABLE
2
VIEW
5
6
330
0
100
AcDbSymbolTable
70
0
0
ENDTAB
0
TABLE
2
UCS
5
7
330
0
100
AcDbSymbolTable
70
0
0
ENDTAB
0
TABLE
2
APPID
5
9
330
0
100
AcDbSymbolTable
70
1
0
APPID
5
12
330
9
100
AcDbSymbolTableRecord
100
AcDbRegAppTableRecord
2
ACAD
70
0
0
ENDTAB
0
TABLE
2
DIMSTYLE
5
A
330
0
100
AcDbSymbolTable
70
1
100
AcDbDimStyleTable
71
1
0
DIMSTYLE
105
45
330
A
100
AcDbSymbolTableRecord
100
AcDbDimStyleTableRecord
2
Standard
70
0
40
1
41
2.5
42
0.625
43
0.38
44
1.25
45
0
46
0
47
0
48
0
140
2.5
141
0.09
142
0
143
25.4
144
1
145
0
146
1
147
0.625
148
0
71
0
72
0
73
0
74
1
75
0
76
0
77
0
78
0
79
0
170
0
171
2
172
0
173
0
174
0
175
0
176
0
177
0
178
0
179
0
271
4
272
4
273
2
274
2
275
0
276
0
277
2
278
46
279
0
280
0
281
0
282
0
283
1
284
0
285
0
286
0
288
0
289
3
340
Standard
341

371
-2
372
-2
0
ENDTAB
0
TABLE
2
BLOCK_RECORD
5
1
330
0
100
AcDbSymbolTable
70
2
0
BLOCK_RECORD
5
1F
330
1
100
AcDbSymbolTableRecord
100
AcDbBlockTableRecord
2
*Model_Space
70
0
280
1
281
0
0
BLOCK_RECORD
5
1E
330
1
100
AcDbSymbolTableRecord
100
AcDbBlockTableRecord
2
*Paper_Space
70
0
280
1
281
0
0
ENDTAB
0
ENDSEC
0
SECTION
2
BLOCKS
0
BLOCK
5
20
330
1F
100
AcDbEntity
8
0
100
AcDbBlockBegin
2
*Model_Space
70
0
10
0
20
0
30
0
3
*Model_Space
1

0
ENDBLK
5
21
330
1F
100
AcDbEntity
8
0
100
AcDbBlockEnd
0
BLOCK
5
1C
330
1B
100
AcDbEntity
8
0
100
AcDbBlockBegin
2
*Paper_Space
70
0
10
0
20
0
30
0
3
*Paper_Space
1

0
ENDBLK
5
1D
330
1F
100
AcDbEntity
8
0
100
AcDbBlockEnd
0
ENDSEC
0
SECTION
2
ENTITIES
0
LWPOLYLINE
5
46
100
AcDbEntity
8
0
6
ByLayer
62
256
370
-1
100
AcDbPolyline
90
3615
70
1
43
0
10
21.6130106867
20
65.1400177594
10
21.5753980498
20
65.2684422828
10
21.540839241
20
65.4000393164
10
21.5087535725
20
65.5358562908
10
21.4785603567
20
65.6769406364
10
21.4496789059
20
65.8243397837
10
21.4215285325
20
65.9791011632
10
21.3935285489
20
66.1422722054
10
21.3650982672
20
66.3149003408
10
21.335657
20
66.498033
10
21.3151546306
20
66.6276110724
10
21.2959381967
20
66.7513114648
10
21.2779998065
20
66.8693758914
10
21.2613315682
20
66.9820460668
10
21.24592559
20
67.0895637051
10
21.2317739802
20
67.1921705207
10
21.218868847
20
67.2901082281
10
21.2072022986
20
67.3836185414
10
21.1967664433
20
67.4729431751
10
21.1875533892
20
67.5583238435
10
21.1795552445
20
67.640002261
10
21.1727641176
20
67.7182201419
10
21.1671721165
20
67.7932192005
10
21.1627713496
20
67.8652411512
10
21.1595539251
20
67.9345277083
10
21.1575119511
20
68.0013205862
10
21.1566375359
20
68.0658614992
10
21.1569227877
20
68.1283921616
10
21.1583598148
20
68.1891542879
10
21.1609407253
20
68.2483895923
10
21.1646576275
20
68.3063397891
10
21.1695026296
20
68.3632465928
10
21.1754678398
20
68.4193517177
10
21.1825453663
20
68.4748968781
10
21.1907273174
20
68.5301237883
10
21.2000058012
20
68.5852741628
10
21.2103729261
20
68.6405897158
10
21.2218208002
20
68.6963121616
10
21.2343415317
20
68.7526832147
10
21.2479272289
20
68.8099445894
10
21.26257
20
68.868338
10
21.2918673198
20
68.986886829
10
21.3188027959
20
69.1044426344
10
21.3433761869
20
69.221011458
10
21.3655872515
20
69.3365993417
10
21.3854357485
20
69.4512123275
10
21.4029214367
20
69.5648564571
10
21.4180440746
20
69.6775377725
10
21.4308034211
20
69.7892623157
10
21.4411992348
20
69.9000361284
10
21.4492312745
20
70.0098652525
10
21.4548992989
20
70.1187557301
10
21.4582030668
20
70.2267136028
10
21.4591423367
20
70.3337449128
10
21.4577168675
20
70.4398557017
10
21.4539264179
20
70.5450520116
10
21.4477707465
20
70.6493398843
10
21.4392496122
20
70.7527253618
10
21.4283627736
20
70.8552144858
10
21.4151099894
20
70.9568132983
10
21.3994910184
20
71.0575278412
10
21.3815056193
20
71.1573641564
10
21.3611535508
20
71.2563282858
10
21.3384345716
20
71.3544262712
10
21.3133484405
20
71.4516641546
10
21.2858949161
20
71.5480479778
10
21.2560737572
20
71.6435837828
10
21.2238847225
20
71.7382776114
10
21.1893275707
20
71.8321355056
10
21.1524020605
20
71.9251635071
10
21.1131079507
20
72.017367658
10
21.071445
20
72.108754
10
21.0395635174
20
72.1753906478
10
21.00943285
20
72.2399646664
10
20.9810079585
20
72.3027238135
10
20.9542438038
20
72.3639158471
10
20.9290953467
20
72.423788525
10
20.9055175482
20
72.482589605
10
20.8834653688
20
72.5405668451
10
20.8628937696
20
72.5979680029
10
20.8437577114
20
72.6550408364
10
20.8260121548
20
72.7120331034
10
20.8096120609
20
72.7691925618
10
20.7945123904
20
72.8267669694
10
20.7806681042
20
72.8850040841
10
20.768034163
20
72.9441516637
10
20.7565655277
20
73.004457466
10
20.7462171591
20
73.0661692489
10
20.7369440181
20
73.1295347703
10
20.7287010655
20
73.1948017879
10
20.721443262
20
73.2622180597
10
20.7151255686
20
73.3320313435
10
20.7097029461
20
73.4044893971
10
20.7051303552
20
73.4798399784
10
20.7013627569
20
73.5583308452
10
20.6983551119
20
73.6402097554
10
20.6960623811
20
73.7257244668
10
20.6944395253
20
73.8151227372
10
20.6934415053
20
73.9086523246
10
20.6930232819
20
74.0065609867
10
20.693139816
20
74.1090964814
10
20.6937460684
20
74.2165065665
10
20.694797
20
74.329039
10
20.6959566959
20
74.4869597941
10
20.695781937
20
74.6377137357
10
20.6941301142
20
74.7816895832
10
20.6908586187
20
74.919276095
10
20.6858248416
20
75.0508620293
10
20.678886174
20
75.1768361445
10
20.6699000069
20
75.297587199
10
20.6587237314
20
75.4135039512
10
20.6452147387
20
75.5249751593
10
20.6292304198
20
75.6323895817
10
20.6106281659
20
75.7361359768
10
20.5892653679
20
75.836603103
10
20.564999417
20
75.9341797185
10
20.5376877044
20
76.0292545818
10
20.507187621
20
76.1222164511
10
20.473356558
20
76.2134540848
10
20.4360519064
20
76.3033562413
10
20.3951310575
20
76.392311679
10
20.3504514021
20
76.4807091561
10
20.3018703315
20
76.5689374311
10
20.2492452368
20
76.6573852622
10
20.1924335089
20
76.7464414078
10
20.1312925391
20
76.8364946264
10
20.0656797184
20
76.9279336761
10
19.9954524379
20
77.0211473154
10
19.9204680887
20
77.1165243027
10
19.8405840618
20
77.2144533962
10
19.7556577484
20
77.3153233543
10
19.6655465396
20
77.4195229355
10
19.5701078264
20
77.5274408979
10
19.469199
20
77.639466
10
18.670897
20
78.53958
10
19.047545
20
79.039644
10
19.0909628376
20
79.0979282303
10
19.13365066
20
79.1566112782
10
19.1755896737
20
79.2156548729
10
19.2167610851
20
79.2750207436
10
19.2571461008
20
79.3346706194
10
19.2967259273
20
79.3945662297
10
19.3354817709
20
79.4546693034
10
19.3733948381
20
79.5149415699
10
19.4104463355
20
79.5753447582
10
19.4466174695
20
79.6358405976
10
19.4818894466
20
79.6963908173
10
19.5162434732
20
79.7569571464
10
19.5496607559
20
79.8175013141
10
19.582122501
20
79.8779850496
10
19.6136099151
20
79.938370082
10
19.6441042046
20
79.9986181406
10
19.673586576
20
80.0586909546
10
19.7020382358
20
80.118550253
10
19.7294403905
20
80.1781577652
10
19.7557742464
20
80.2374752202
10
19.7810210102
20
80.2964643472
10
19.8051618882
20
80.3550868755
10
19.8281780869
20
80.4133045342
10
19.8500508129
20
80.4710790525
10
19.8707612725
20
80.5283721595
10
19.8902906723
20
80.5851455845
10
19.9086202187
20
80.6413610566
10
19.9257311182
20
80.6969803051
10
19.9416045773
20
80.751965059
10
19.9562218024
20
80.8062770476
10
19.969564
20
80.859878
10
19.9779778327
20
80.8973607275
10
19.9855158476
20
80.9324464399
10
19.992088046
20
80.9652358518
10
19.9976044291
20
80.9958296776
10
20.0019749981
20
81.0243286317
10
20.0051097542
20
81.0508334286
10
20.0069186986
20
81.0754447827
10
20.0073118326
20
81.0982634085
10
20.0061991572
20
81.1193900203
10
20.0034906738
20
81.1389253328
10
19.9990963836
20
81.1569700602
10
19.9929262877
20
81.173624917
10
19.9848903873
20
81.1889906177
10
19.9748986838
20
81.2031678767
10
19.9628611782
20
81.2162574085
10
19.9486878718
20
81.2283599276
10
19.9322887658
20
81.2395761482
10
19.9135738614
20
81.250006785
10
19.8924531598
20
81.2597525523
10
19.8688366622
20
81.2689141646
10
19.8426343699
20
81.2775923363
10
19.813756284
20
81.2858877819
10
19.7821124057
20
81.2939012159
10
19.7476127363
20
81.3017333526
10
19.710167277
20
81.3094849064
10
19.6696860289
20
81.317256592
10
19.6260789934
20
81.3251491236
10
19.5792561715
20
81.3332632158
10
19.5291275645
20
81.341699583
10
19.4756031736
20
81.3505589395
10
19.418593
20
81.359942
10
19.3828656901
20
81.3662167336
10
19.3447331184
20
81.3736031277
10
19.3043140313
20
81.382076408
10
19.2617271753
20
81.3916118001
10
19.2170912968
20
81.4021845296
10
19.1705251423
20
81.4137698221
10
19.1221474583
20
81.4263429032
10
19.0720769913
20
81.4398789984
10
19.0204324876
20
81.4543533335
10
18.9673326939
20
81.469741134
10
18.9128963564
20
81.4860176255
10
18.8572422218
20
81.5031580336
10
18.8004890365
20
81.5211375839
10
18.7427555469
20
81.5399315021
10
18.6841604996
20
81.5595150137
10
18.6248226409
20
81.5798633443
10
18.5648607174
20
81.6009517196
10
18.5043934754
20
81.6227553651
10
18.4435396616
20
81.6452495065
10
18.3824180223
20
81.6684093693
10
18.3211473041
20
81.6922101792
10
18.2598462533
20
81.7166271618
10
18.1986336164
20
81.7416355427
10
18.13762814
20
81.7672105474
10
18.0769485705
20
81.7933274016
10
18.0167136543
20
81.8199613309
10
17.9570421379
20
81.8470875609
10
17.8980527678
20
81.8746813172
10
17.8398642905
20
81.9027178255
10
17.7825954524
20
81.9311723112
10
17.726365
20
81.96002
10
16.680661
20
82.460084
10
17.602679
20
82.960151
10
17.7149345929
20
83.0185071353
10
17.8245128605
20
83.0774454207
10
17.9314293913
20
83.1369859978
10
18.0356997737
20
83.1971490084
10
18.137339596
20
83.2579545942
10
18.2363644467
20
83.3194228969
10
18.3327899141
20
83.3815740583
10
18.4266315868
20
83.4444282201
10
18.5179050529
20
83.508005524
10
18.6066259011
20
83.5723261116
10
18.6928097196
20
83.6374101248
10
18.7764720968
20
83.7032777052
10
18.8576286213
20
83.7699489947
10
18.9362948812
20
83.8374441348
10
19.0124864652
20
83.9057832673
10
19.0862189615
20
83.974986534
10
19.1575079585
20
84.0450740765
10
19.2263690447
20
84.1160660366
10
19.2928178085
20
84.1879825559
10
19.3568698382
20
84.2608437763
10
19.4185407222
20
84.3346698395
10
19.477846049
20
84.4094808871
10
19.534801407
20
84.4852970609
10
19.5894223845
20
84.5621385025
10
19.64172457
20
84.6400253538
10
19.6917235518
20
84.7189777565
10
19.7394349183
20
84.7990158522
10
19.784874258
20
84.8801597827
10
19.8280571593
20
84.9624296896
10
19.8689992105
20
85.0458457148
10
19.907716
20
85.130428
10
19.940954919
20
85.2053624561
10
19.974031589
20
85.2753185935
10
20.006898654
20
85.3403135337
10
20.0395087578
20
85.4003643981
10
20.0718145444
20
85.4554883083
10
20.1037686575
20
85.5057023858
10
20.1353237412
20
85.5510237519
10
20.1664324392
20
85.5914695282
10
20.1970473955
20
85.6270568363
10
20.2271212539
20
85.6578027974
10
20.2566066584
20
85.6837245332
10
20.2854562528
20
85.7048391651
10
20.313622681
20
85.7211638146
10
20.341058587
20
85.7327156032
10
20.3677166144
20
85.7395116523
10
20.3935494074
20
85.7415690834
10
20.4185096097
20
85.7389050181
10
20.4425498653
20
85.7315365777
10
20.4656228179
20
85.7194808838
10
20.4876811116
20
85.7027550578
10
20.5086773902
20
85.6813762213
10
20.5285642975
20
85.6553614957
10
20.5472944776
20
85.6247280025
10
20.5648205741
20
85.5894928631
10
20.5810952311
20
85.5496731991
10
20.5960710925
20
85.5052861319
10
20.609700802
20
85.456348783
10
20.6219370037
20
85.4028782738
10
20.6327323413
20
85.344891726
10
20.6420394588
20
85.2824062609
10
20.649811
20
85.215439
10
20.6533014399
20
85.1776577637
10
20.657022919
20
85.1417296592
10
20.6609887408
20
85.1076345445
10
20.6652122087
20
85.0753522777
10
20.6697066262
20
85.0448627169
10
20.6744852968
20
85.0161457202
10
20.679561524
20
84.9891811455
10
20.6849486112
20
84.9639488512
10
20.690659862
20
84.9404286951
10
20.6967085798
20
84.9186005354
10
20.7031080681
20
84.8984442301
10
20.7098716304
20
84.8799396374
10
20.7170125701
20
84.8630666153
10
20.7245441908
20
84.8478050218
10
20.7324797959
20
84.8341347151
10
20.740832689
20
84.8220355533
10
20.7496161734
20
84.8114873944
10
20.7588435527
20
84.8024700965
10
20.7685281303
20
84.7949635177
10
20.7786832097
20
84.788947516
10
20.7893220945
20
84.7844019495
10
20.800458088
20
84.7813066764
10
20.8121044939
20
84.7796415547
10
20.8242746155
20
84.7793864424
10
20.8369817563
20
84.7805211976
10
20.8502392198
20
84.7830256785
10
20.8640603095
20
84.7868797431
10
20.8784583289
20
84.7920632495
10
20.8934465815
20
84.7985560557
10
20.9090383707
20
84.8063380198
10
20.925247
20
84.815389
10
20.938085526
20
84.8196423873
10
20.9520040985
20
84.8229347646
10
20.96695379
20
84.8252917129
10
20.9828856732
20
84.8267388132
10
20.9997508204
20
84.8273016464
10
21.0175003044
20
84.8270057937
10
21.0360851976
20
84.8258768361
10
21.0554565726
20
84.8239403544
10
21.0755655018
20
84.8212219299
10
21.0963630579
20
84.8177471434
10
21.1178003133
20
84.813541576
10
21.1398283407
20
84.8086308087
10
21.1623982125
20
84.8030404226
10
21.1854610013
20
84.7967959986
10
21.2089677796
20
84.7899231177
10
21.23286962
20
84.782447361
10
21.257117595
20
84.7743943095
10
21.2816627771
20
84.7657895441
10
21.3064562389
20
84.756658646
10
21.331449053
20
84.7470271961
10
21.3565922918
20
84.7369207754
10
21.3818370279
20
84.726364965
10
21.4071343338
20
84.7153853459
10
21.4324352821
20
84.704007499
10
21.4576909453
20
84.6922570054
10
21.482852396
20
84.6801594462
10
21.5078707067
20
84.6677404022
10
21.5326969499
20
84.6550254546
10
21.5572821981
20
84.6420401844
10
21.581577524
20
84.6288101725
10
21.605534
20
84.615361
10
21.6543890296
20
84.578519767
10
21.7003419104
20
84.5454251007
10
21.743403459
20
84.5160770017
10
21.7835844922
20
84.4904754705
10
21.8208958267
20
84.4686205079
10
21.8553482794
20
84.4505121144
10
21.886952667
20
84.4361502905
10
21.9157198062
20
84.425535037
10
21.9416605138
20
84.4186663544
10
21.9647856065
20
84.4155442433
10
21.9851059012
20
84.4161687043
10
22.0026322145
20
84.420539738
10
22.0173753632
20
84.4286573451
10
22.0293461641
20
84.4405215261
10
22.038555434
20
84.4561322816
10
22.0450139895
20
84.4754896123
10
22.0487326475
20
84.4985935187
10
22.0497222247
20
84.5254440014
10
22.0479935378
20
84.5560410612
10
22.0435574037
20
84.5903846984
10
22.0364246391
20
84.6284749139
10
22.0266060606
20
84.6703117081
10
22.0141124852
20
84.7158950816
10
21.9989547295
20
84.7652250352
10
21.9811436103
20
84.8183015693
10
21.9606899443
20
84.8751246846
10
21.9376045484
20
84.9356943817
10
21.9118982393
20
85.0000106612
10
21.8835818336
20
85.0680735236
10
21.8526661483
20
85.1398829697
10
21.819162
20
85.215439
10
21.8070720487
20
85.244773813
10
21.7951634011
20
85.2746524735
10
21.7834506408
20
85.304994411
10
21.7719483513
20
85.3357190546
10
21.7606711163
20
85.3667458338
10
21.7496335195
20
85.3979941777
10
21.7388501442
20
85.4293835156
10
21.7283355743
20
85.4608332769
10
21.7181043932
20
85.4922628909
10
21.7081711847
20
85.5235917867
10
21.6985505321
20
85.5547393938
10
21.6892570193
20
85.5856251415
10
21.6803052297
20
85.6161684589
10
21.671709747
20
85.6462887754
10
21.6634851548
20
85.6759055203
10
21.6556460367
20
85.7049381228
10
21.6482069762
20
85.7333060124
10
21.6411825569
20
85.7609286181
10
21.6345873626
20
85.7877253695
10
21.6284359767
20
85.8136156956
10
21.6227429829
20
85.8385190259
10
21.6175229647
20
85.8623547897
10
21.6127905058
20
85.8850424161
10
21.6085601898
20
85.9065013345
10
21.6048466002
20
85.9266509743
10
21.6016643207
20
85.9454107646
10
21.5990279348
20
85.9627001347
10
21.5969520262
20
85.9784385141
10
21.5954511785
20
85.9925453319
10
21.5945399752
20
86.0049400174
10
21.594233
20
86.015542
10
21.5958122101
20
86.0436389354
10
21.6004562833
20
86.0698478743
10
21.6080248839
20
86.0941541128
10
21.6183776762
20
86.1165429467
10
21.6313743246
20
86.1369996721
10
21.6468744933
20
86.1555095849
10
21.6647378468
20
86.1720579811
10
21.6848240494
20
86.1866301566
10
21.7069927653
20
86.1992114073
10
21.7311036589
20
86.2097870294
10
21.7570163946
20
86.2183423186
10
21.7845906366
20
86.224862571
10
21.8136860493
20
86.2293330826
10
21.844162297
20
86.2317391493
10
21.8758790441
20
86.232066067
10
21.9086959549
20
86.2302991318
10
21.9424726936
20
86.2264236395
10
21.9770689247
20
86.2204248862
10
22.0123443124
20
86.2122881678
10
22.0481585211
20
86.2019987802
10
22.0843712152
20
86.1895420195
10
22.1208420588
20
86.1749031816
10
22.1574307165
20
86.1580675625
10
22.1939968524
20
86.1390204581
10
22.230400131
20
86.1177471643
10
22.2665002165
20
86.0942329772
10
22.3021567734
20
86.0684631927
10
22.3372294658
20
86.0404231068
10
22.3715779581
20
86.0100980154
10
22.4050619148
20
85.9774732145
10
22.437541
20
85.942534
10
22.4657517331
20
85.9116444804
10
22.5012038451
20
85.8772521014
10
22.5433851727
20
85.8396630357
10
22.5917835526
20
85.7991834561
10
22.6458868216
20
85.7561195356
10
22.7051828163
20
85.7107774467
10
22.7691593736
20
85.6634633625
10
22.8373043301
20
85.6144834556
10
22.9091055226
20
85.5641438989
10
22.9840507879
20
85.5127508652
10
23.0616279625
20
85.4606105272
10
23.1413248833
20
85.4080290578
10
23.222629387
20
85.3553126299
10
23.3050293104
20
85.3027674161
10
23.38801249
20
85.2506995893
10
23.4710667628
20
85.1994153223
10
23.5536799654
20
85.1492207879
10
23.6353399345
20
85.1004221589
10
23.7155345069
20
85.0533256081
10
23.7937515193
20
85.0082373084
10
23.8694788084
20
84.9654634324
10
23.942204211
20
84.9253101531
10
24.0114155637
20
84.8880836432
10
24.0766007034
20
84.8540900756
10
24.1372474667
20
84.823635623
10
24.1928436904
20
84.7970264582
10
24.2428772112
20
84.7745687541
10
24.2868358658
20
84.7565686834
10
24.324207491
20
84.7433324189
10
24.3544799235
20
84.7351661335
10
24.377141
20
84.732376
10
24.3805643508
20
84.7336181503
10
24.3825256751
20
84.7373177439
10
24.3830550423
20
84.7434344943
10
24.3821825215
20
84.7519281155
10
24.3799381822
20
84.762758321
10
24.3763520936
20
84.7758848247
10
24.3714543249
20
84.7912673402
10
24.3652749454
20
84.8088655814
10
24.3578440245
20
84.828639262
10
24.3491916314
20
84.8505480956
10
24.3393478354
20
84.8745517961
10
24.3283427058
20
84.9006100771
10
24.3162063118
20
84.9286826525
10
24.3029687227
20
84.9587292359
10
24.2886600079
20
84.9907095412
10
24.2733102366
20
85.0245832819
10
24.2569494781
20
85.060310172
10
24.2396078017
20
85.097849925
10
24.2213152766
20
85.1371622548
10
24.2021019721
20
85.1782068751
10
24.1819979576
20
85.2209434996
10
24.1610333022
20
85.2653318421
10
24.1392380754
20
85.3113316163
10
24.1166423463
20
85.3589025359
10
24.0932761843
20
85.4080043148
10
24.0691696586
20
85.4585966665
10
24.0443528385
20
85.5106393049
10
24.0188557933
20
85.5640919437
10
23.9927085923
20
85.6189142967
10
23.9659413048
20
85.6750660775
10
23.938584
20
85.732507
10
23.9110546126
20
85.7816274465
10
23.8837774666
20
85.832113577
10
23.856792506
20
85.8838324493
10
23.8301396747
20
85.9366511208
10
23.8038589164
20
85.9904366494
10
23.7779901752
20
86.0450560925
10
23.7525733948
20
86.1003765079
10
23.7276485191
20
86.1562649532
10
23.703255492
20
86.212588486
10
23.6794342575
20
86.2692141639
10
23.6562247593
20
86.3260090446
10
23.6336669413
20
86.3828401857
10
23.6118007474
20
86.4395746449
10
23.5906661216
20
86.4960794797
10
23.5703030076
20
86.5522217479
10
23.5507513493
20
86.607868507
10
23.5320510907
20
86.6628868147
10
23.5142421756
20
86.7171437287
10
23.4973645478
20
86.7705063065
10
23.4814581513
20
86.8228416058
10
23.4665629298
20
86.8740166842
10
23.4527188274
20
86.9238985993
10
23.4399657879
20
86.9723544089
10
23.4283437551
20
87.0192511705
10
23.4178926729
20
87.0644559418
10
23.4086524852
20
87.1078357804
10
23.4006631359
20
87.1492577439
10
23.3939645689
20
87.18858889
10
23.388596728
20
87.2256962763
10
23.384599557
20
87.2604469604
10
23.382013
20
87.292708
10
23.3790547148
20
87.3398591401
10
23.3765250762
20
87.3845528376
10
23.3744776841
20
87.4268293793
10
23.3729661382
20
87.4667290523
10
23.3720440384
20
87.5042921432
10
23.3717649845
20
87.539558939
10
23.3721825763
20
87.5725697266
10
23.3733504136
20
87.6033647927
10
23.3753220962
20
87.6319844244
10
23.378151224
20
87.6584689083
10
23.3818913967
20
87.6828585315
10
23.3865962141
20
87.7051935807
10
23.3923192762
20
87.7255143429
10
23.3991141826
20
87.7438611049
10
23.4070345332
20
87.7602741535
10
23.4161339278
20
87.7747937757
10
23.4264659662
20
87.7874602583
10
23.4380842483
20
87.7983138881
10
23.4510423738
20
87.807394952
10
23.4653939426
20
87.814743737
10
23.4811925544
20
87.8204005298
10
23.4984918091
20
87.8244056173
10
23.5173453065
20
87.8267992864
10
23.5378066464
20
87.8276218239
10
23.5599294286
20
87.8269135168
10
23.583767253
20
87.8247146518
10
23.6093737192
20
87.8210655159
10
23.6368024273
20
87.8160063959
10
23.6661069769
20
87.8095775787
10
23.6973409678
20
87.8018193511
10
23.730558
20
87.792772
10
23.7532530845
20
87.7901469755
10
23.7806430734
20
87.7873143578
10
23.8125735538
20
87.7842914756
10
23.8488901128
20
87.7810956576
10
23.8894383374
20
87.7777442326
10
23.9340638146
20
87.7742545292
10
23.9826121315
20
87.7706438761
10
24.0349288752
20
87.7669296022
10
24.0908596328
20
87.7631290362
10
24.1502499912
20
87.7592595066
10
24.2129455376
20
87.7553383424
10
24.278791859
20
87.7513828721
10
24.3476345424
20
87.7474104246
10
24.4193191749
20
87.7434383286
10
24.4936913436
20
87.7394839127
10
24.5705966356
20
87.7355645057
10
24.6498806378
20
87.7316974363
10
24.7313889373
20
87.7279000332
10
24.8149671213
20
87.7241896253
10
24.9004607767
20
87.7205835411
10
24.9877154906
20
87.7170991094
10
25.0765768501
20
87.713753659
10
25.1668904421
20
87.7105645185
10
25.2585018539
20
87.7075490167
10
25.3512566724
20
87.7047244823
10
25.4450004847
20
87.702108244
10
25.5395788778
20
87.6997176306
10
25.6348374389
20
87.6975699708
10
25.7306217549
20
87.6956825933
10
25.8267774129
20
87.6940728268
10
25.92315
20
87.692758
10
26.0469855607
20
87.687210632
10
26.1656716969
20
87.682184742
10
26.2792660413
20
87.6776835541
10
26.3878262265
20
87.6737102922
10
26.4914098854
20
87.6702681804
10
26.5900746505
20
87.6673604429
10
26.6838781547
20
87.6649903036
10
26.7728780306
20
87.6631609867
10
26.8571319109
20
87.6618757161
10
26.9366974284
20
87.661137716
10
27.0116322157
20
87.6609502104
10
27.0819939056
20
87.6613164234
10
27.1478401307
20
87.662239579
10
27.2092285238
20
87.6637229013
10
27.2662167176
20
87.6657696144
10
27.3188623448
20
87.6683829423
10
27.3672230381
20
87.6715661091
10
27.4113564301
20
87.6753223388
10
27.4513201537
20
87.6796548555
10
27.4871718415
20
87.6845668832
10
27.5189691262
20
87.6900616461
10
27.5467696406
20
87.6961423682
10
27.5706310173
20
87.7028122735
10
27.590610889
20
87.7100745861
10
27.6067668885
20
87.7179325301
10
27.6191566485
20
87.7263893295
10
27.6278378016
20
87.7354482084
10
27.6328679806
20
87.7451123908
10
27.6343048182
20
87.7553851008
10
27.6322059471
20
87.7662695626
10
27.626629
20
87.777769
10
27.6206610522
20
87.7868098068
10
27.613905101
20
87.7959136562
10
27.6063900172
20
87.8050561756
10
27.5981446714
20
87.8142129923
10
27.5891979346
20
87.8233597339
10
27.5795786773
20
87.8324720278
10
27.5693157703
20
87.8415255012
10
27.5584380844
20
87.8504957816
10
27.5469744902
20
87.8593584965
10
27.5349538585
20
87.8680892732
10
27.5224050601
20
87.8766637392
10
27.5093569656
20
87.8850575218
10
27.4958384459
20
87.8932462484
10
27.4818783716
20
87.9012055465
10
27.4675056134
20
87.9089110434
10
27.4527490422
20
87.9163383666
10
27.4376375285
20
87.9234631434
10
27.4221999433
20
87.9302610013
10
27.4064651572
20
87.9367075677
10
27.3904620409
20
87.94277847
10
27.3742194651
20
87.9484493355
10
27.3577663007
20
87.9536957917
10
27.3411314182
20
87.958493466
10
27.3243436886
20
87.9628179858
10
27.3074319824
20
87.9666449785
10
27.2904251705
20
87.9699500715
10
27.2733521236
20
87.9727088921
10
27.2562417123
20
87.9748970679
10
27.2391228075
20
87.9764902262
10
27.2220242798
20
87.9774639945
10
27.204975
20
87.977794
10
27.1601340025
20
87.9808990324
10
27.1128044806
20
87.9901456431
10
27.063056576
20
88.0054311025
10
27.0109604305
20
88.0266526808
10
26.9565861856
20
88.0537076484
10
26.900003983
20
88.0864932756
10
26.8412839643
20
88.1249068327
10
26.7804962713
20
88.1688455901
10
26.7177110454
20
88.218206818
10
26.6529984286
20
88.2728877867
10
26.5864285622
20
88.3327857666
10
26.5180715881
20
88.3977980281
10
26.4479976478
20
88.4678218413
10
26.3762768831
20
88.5427544767
10
26.3029794356
20
88.6224932045
10
26.2281754468
20
88.706935295
10
26.1519350586
20
88.7959780187
10
26.0743284125
20
88.8895186457
10
25.9954256502
20
88.9874544464
10
25.9152969133
20
89.0896826912
10
25.8340123436
20
89.1961006503
10
25.7516420825
20
89.3066055941
10
25.6682562719
20
89.4210947929
10
25.5839250534
20
89.5394655169
10
25.4987185685
20
89.6616150366
10
25.412706959
20
89.7874406221
10
25.3259603666
20
89.916839544
10
25.2385489328
20
90.0497090723
10
25.1505427993
20
90.1859464776
10
25.0620121079
20
90.32544903
10
24.973027
20
90.468114
10
24.8903562069
20
90.6061300055
10
24.8124965075
20
90.7376277464
10
24.7394215345
20
90.8627079384
10
24.6711049206
20
90.9814712972
10
24.6075202985
20
91.0940185383
10
24.5486413009
20
91.2004503774
10
24.4944415605
20
91.3008675303
10
24.4448947101
20
91.3953707124
10
24.3999743823
20
91.4840606396
10
24.3596542099
20
91.5670380274
10
24.3239078255
20
91.6444035915
10
24.2927088619
20
91.7162580475
10
24.2660309518
20
91.7827021112
10
24.2438477278
20
91.8438364981
10
24.2261328227
20
91.8997619239
10
24.2128598693
20
91.9505791042
10
24.2040025001
20
91.9963887548
10
24.1995343479
20
92.0372915912
10
24.1994290455
20
92.0733883292
10
24.2036602255
20
92.1047796843
10
24.2122015206
20
92.1315663722
10
24.2250265636
20
92.1538491086
10
24.2421089871
20
92.1717286091
10
24.2634224239
20
92.1853055894
10
24.2889405066
20
92.1946807651
10
24.318636868
20
92.1999548519
10
24.3524851408
20
92.2012285655
10
24.3904589577
20
92.1986026214
10
24.4325319514
20
92.1921777354
10
24.4786777546
20
92.182054623
10
24.52887
20
92.168334
10
24.5474011564
20
92.1625531102
10
24.5664380126
20
92.1562611831
10
24.5859367783
20
92.1494842035
10
24.6058536634
20
92.1422481558
10
24.6261448775
20
92.1345790248
10
24.6467666303
20
92.1265027951
10
24.6676751317
20
92.1180454513
10
24.6888265912
20
92.1092329781
10
24.7101772187
20
92.10009136
10
24.7316832238
20
92.0906465817
10
24.7533008163
20
92.0809246277
10
24.774986206
20
92.0709514829
10
24.7966956025
20
92.0607531317
10
24.8183852155
20
92.0503555587
10
24.8400112549
20
92.0397847487
10
24.8615299303
20
92.0290666862
10
24.8828974515
20
92.0182273559
10
24.9040700281
20
92.0072927424
10
24.92500387
20
91.9962888304
10
24.9456551868
20
91.9852416043
10
24.9659801883
20
91.9741770489
10
24.9859350842
20
91.9631211489
10
25.0054760842
20
91.9520998887
10
25.024559398
20
91.9411392531
10
25.0431412354
20
91.9302652267
10
25.0611778062
20
91.9195037941
10
25.07862532
20
91.9088809399
10
25.0954399865
20
91.8984226488
10
25.1115780155
20
91.8881549053
10
25.1269956168
20
91.8781036942
10
25.141649
20
91.868295
10
25.1892226952
20
91.8317945154
10
25.2330137128
20
91.7996489088
10
25.2730590151
20
91.7717484025
10
25.3093955643
20
91.7479832191
10
25.3420603227
20
91.7282435809
10
25.3710902527
20
91.7124197104
10
25.3965223166
20
91.7004018299
10
25.4183934767
20
91.692080162
10
25.4367406952
20
91.6873449289
10
25.4516009345
20
91.6860863531
10
25.4630111569
20
91.688194657
10
25.4710083246
20
91.6935600631
10
25.4756294001
20
91.7020727938
10
25.4769113455
20
91.7136230714
10
25.4748911233
20
91.7281011185
10
25.4696056956
20
91.7453971573
10
25.4610920249
20
91.7654014104
10
25.4493870734
20
91.7880041001
10
25.4345278034
20
91.8130954488
10
25.4165511772
20
91.8405656791
10
25.3954941571
20
91.8703050132
10
25.3713937054
20
91.9022036736
10
25.3442867845
20
91.9361518828
10
25.3142103567
20
91.9720398631
10
25.2812013841
20
92.0097578369
10
25.2452968292
20
92.0491960268
10
25.2065336543
20
92.090244655
10
25.1649488216
20
92.132793944
10
25.1205792934
20
92.1767341162
10
25.0734620321
20
92.2219553941
10
25.023634
20
92.268348
10
24.9954985605
20
92.2973739516
10
24.9677187668
20
92.326339457
10
24.9403330516
20
92.3551840884
10
24.9133798473
20
92.3838474183
10
24.8868975865
20
92.4122690193
10
24.8609247018
20
92.4403884636
10
24.8354996256
20
92.4681453237
10
24.8106607906
20
92.495479172
10
24.7864466294
20
92.5223295809
10
24.7628955743
20
92.5486361229
10
24.740046058
20
92.5743383704
10
24.7179365131
20
92.5993758958
10
24.6966053721
20
92.6236882715
10
24.6760910674
20
92.64721507
10
24.6564320318
20
92.6698958636
10
24.6376666977
20
92.6916702248
10
24.6198334976
20
92.7124777261
10
24.6029708642
20
92.7322579397
10
24.5871172299
20
92.7509504382
10
24.5723110273
20
92.768494794
10
24.558590689
20
92.7848305795
10
24.5459946474
20
92.7998973671
10
24.5345613353
20
92.8136347292
10
24.524329185
20
92.8259822383
10
24.5153366291
20
92.8368794667
10
24.5076221003
20
92.846265987
10
24.501224031
20
92.8540813715
10
24.4961808537
20
92.8602651926
10
24.4925310011
20
92.8647570228
10
24.4903129057
20
92.8674964344
10
24.489565
20
92.868423
10
24.4907745368
20
92.8742913514
10
24.4943620023
20
92.8806387021
10
24.5002656789
20
92.8874195288
10
24.5084238489
20
92.8945883084
10
24.5187747949
20
92.9020995179
10
24.5312567993
20
92.909907634
10
24.5458081444
20
92.9179671336
10
24.5623671129
20
92.9262324936
10
24.5808719869
20
92.9346581908
10
24.6012610491
20
92.9431987021
10
24.6234725819
20
92.9518085042
10
24.6474448676
20
92.9604420742
10
24.6731161887
20
92.9690538888
10
24.7004248277
20
92.9775984249
10
24.729309067
20
92.9860301594
10
24.759707189
20
92.994303569
10
24.7915574761
20
93.0023731307
10
24.8247982108
20
93.0101933214
10
24.8593676756
20
93.0177186178
10
24.8952041528
20
93.0249034968
10
24.9322459248
20
93.0317024353
10
24.9704312742
20
93.0380699101
10
25.0096984834
20
93.0439603982
10
25.0499858347
20
93.0493283763
10
25.0912316107
20
93.0541283212
10
25.1333740938
20
93.05831471
10
25.1763515663
20
93.0618420193
10
25.2201023107
20
93.0646647262
10
25.2645646095
20
93.0667373073
10
25.3096767452
20
93.0680142396
10
25.355377
20
93.06845
10
25.4015095817
20
93.0744088861
10
25.4479049149
20
93.0808348888
10
25.4944803172
20
93.0876830894
10
25.5411531062
20
93.0949085692
10
25.5878405994
20
93.1024664095
10
25.6344601144
20
93.1103116915
10
25.6809289688
20
93.1183994964
10
25.7271644802
20
93.1266849056
10
25.7730839662
20
93.1351230003
10
25.8186047443
20
93.1436688617
10
25.8636441321
20
93.1522775712
10
25.9081194472
20
93.1609042101
10
25.9519480071
20
93.1695038595
10
25.9950471296
20
93.1780316007
10
26.037334132
20
93.186442515
10
26.0787263321
20
93.1946916837
10
26.1191410473
20
93.2027341881
10
26.1584955953
20
93.2105251093
10
26.1967072937
20
93.2180195288
10
26.23369346
20
93.2251725276
10
26.2693714118
20
93.2319391872
10
26.3036584667
20
93.2382745887
10
26.3364719422
20
93.2441338135
10
26.367729156
20
93.2494719427
10
26.3973474256
20
93.2542440578
10
26.4252440686
20
93.2584052398
10
26.4513364026
20
93.2619105702
10
26.4755417452
20
93.2647151301
10
26.4977774139
20
93.2667740009
10
26.5179607263
20
93.2680422638
10
26.536009
20
93.268475
10
26.5603870165
20
93.2778449129
10
26.5828481599
20
93.2866105318
10
26.6033700714
20
93.294792
10
26.621930392
20
93.3024094605
10
26.6385067626
20
93.3094830565
10
26.6530768243
20
93.3160329311
10
26.6656182182
20
93.3220792274
10
26.6761085852
20
93.3276420886
10
26.6845255665
20
93.3327416578
10
26.690846803
20
93.3373980781
10
26.6950499358
20
93.3416314927
10
26.6971126059
20
93.3454620447
10
26.6970124544
20
93.3489098772
10
26.6947271222
20
93.3519951333
10
26.6902342504
20
93.3547379563
10
26.6835114801
20
93.3571584891
10
26.6745364522
20
93.359276875
10
26.6632868079
20
93.3611132571
10
26.649740188
20
93.3626877784
10
26.6338742338
20
93.3640205822
10
26.6156665862
20
93.3651318116
10
26.5950948861
20
93.3660416096
10
26.5721367748
20
93.3667701195
10
26.5467698932
20
93.3673374844
10
26.5189718822
20
93.3677638473
10
26.4887203831
20
93.3680693514
10
26.4559930368
20
93.3682741399
10
26.4207674842
20
93.3683983559
10
26.3830213666
20
93.3684621425
10
26.3427323248
20
93.3684856428
10
26.299878
20
93.368489
10
26.2362437821
20
93.3715397141
10
26.1611015868
20
93.3786009959
10
26.0753278112
20
93.3894371675
10
25.9797988525
20
93.403812551
10
25.8753911078
20
93.4214914685
10
25.7629809744
20
93.4422382422
10
25.6434448494
20
93.4658171941
10
25.5176591299
20
93.4919926463
10
25.3865002131
20
93.520528921
10
25.2508444963
20
93.5511903403
10
25.1115683765
20
93.5837412263
10
24.9695482509
20
93.6179459011
10
24.8256605167
20
93.6535686868
10
24.6807815711
20
93.6903739054
10
24.5357878112
20
93.7281258793
10
24.3915556342
20
93.7665889303
10
24.2489614372
20
93.8055273807
10
24.1088816175
20
93.8447055526
10
23.9721925722
20
93.883887768
10
23.8397706985
20
93.9228383491
10
23.7124923934
20
93.961321618
10
23.5912340543
20
93.9991018968
10
23.4768720782
20
94.0359435077
10
23.3702828624
20
94.0716107726
10
23.272342804
20
94.1058680138
10
23.1839283001
20
94.1384795533
10
23.1059157479
20
94.1692097133
10
23.0391815447
20
94.1978228159
10
22.9846020875
20
94.2240831831
10
22.9430537736
20
94.2477551371
10
22.915413
20
94.268603
10
22.9094506256
20
94.2760928182
10
22.9050678754
20
94.2851797743
10
22.9022350191
20
94.2958249916
10
22.900922326
20
94.3079895937
10
22.9011000657
20
94.3216347037
10
22.9027385076
20
94.3367214451
10
22.9058079213
20
94.3532109412
10
22.910278576
20
94.3710643154
10
22.9161207415
20
94.3902426911
10
22.9233046871
20
94.4107071915
10
22.9318006823
20
94.4324189401
10
22.9415789966
20
94.4553390603
10
22.9526098994
20
94.4794286753
10
22.9648636603
20
94.5046489086
10
22.9783105488
20
94.5309608834
10
22.9929208342
20
94.5583257232
10
23.0086647861
20
94.5867045514
10
23.0255126739
20
94.6160584912
10
23.0434347672
20
94.646348666
10
23.0624013354
20
94.6775361993
10
23.082382648
20
94.7095822143
10
23.1033489744
20
94.7424478344
10
23.1252705842
20
94.776094183
10
23.1481177468
20
94.8104823834
10
23.1718607317
20
94.8455735591
10
23.1964698084
20
94.8813288332
10
23.2219152463
20
94.9177093293
10
23.2481673149
20
94.9546761707
10
23.2751962838
20
94.9921904807
10
23.3029724223
20
95.0302133827
10
23.331466
20
95.068706
10
23.3973077521
20
95.1556230688
10
23.4611620293
20
95.2422681967
10
23.5231030405
20
95.3288065562
10
23.5832049943
20
95.4154033197
10
23.6415420997
20
95.5022236599
10
23.6981885653
20
95.5894327491
10
23.7532185999
20
95.6771957599
10
23.8067064125
20
95.7656778648
10
23.8587262116
20
95.8550442363
10
23.9093522062
20
95.9454600469
10
23.958658605
20
96.037090469
10
24.0067196169
20
96.1301006753
10
24.0536094505
20
96.2246558382
10
24.0994023147
20
96.3209211301
10
24.1441724182
20
96.4190617237
10
24.1879939699
20
96.5192427914
10
24.2309411786
20
96.6216295057
10
24.273088253
20
96.726387039
10
24.3145094019
20
96.833680564
10
24.3552788341
20
96.9436752531
10
24.3954707584
20
97.0565362788
10
24.4351593836
20
97.1724288137
10
24.4744189184
20
97.2915180301
10
24.5133235717
20
97.4139691007
10
24.5519475523
20
97.5399471978
10
24.5903650689
20
97.6696174941
10
24.6286503303
20
97.8031451621
10
24.6668775454
20
97.9406953741
10
24.7051209228
20
98.0824333028
10
24.7434546714
20
98.2285241206
10
24.781953
20
98.379133
10
24.8108774647
20
98.49382058
10
24.8384317293
20
98.6037040857
10
24.8646080994
20
98.7088499878
10
24.8893988806
20
98.8093247574
10
24.9127963784
20
98.9051948652
10
24.9347928984
20
98.9965267821
10
24.9553807463
20
99.083386979
10
24.9745522277
20
99.1658419269
10
24.9922996481
20
99.2439580965
10
25.0086153131
20
99.3178019587
10
25.0234915284
20
99.3874399846
10
25.0369205995
20
99.4529386448
10
25.048894832
20
99.5143644103
10
25.0594065315
20
99.571783752
10
25.0684480037
20
99.6252631408
10
25.0760115541
20
99.6748690475
10
25.0820894882
20
99.7206679431
10
25.0866741118
20
99.7627262983
10
25.0897577304
20
99.8011105841
10
25.0913326496
20
99.8358872714
10
25.0913911749
20
99.8671228311
10
25.0899256121
20
99.8948837339
10
25.0869282666
20
99.9192364509
10
25.0823914441
20
99.9402474528
10
25.0763074502
20
99.9579832106
10
25.0686685904
20
99.9725101952
10
25.0594671704
20
99.9838948774
10
25.0486954958
20
99.9922037281
10
25.0363458721
20
99.9975032182
10
25.022410605
20
99.9998598185
10
25.006882
20
99.99934
10
25.006805
20
99.878326
10
24.9992120259
20
99.876926658
10
24.9912841004
20
99.8750454134
10
24.983020686
20
99.8726750196
10
24.9744212454
20
99.8698082295
10
24.9654852413
20
99.8664377963
10
24.9562121364
20
99.8625564732
10
24.9466013932
20
99.8581570131
10
24.9366524745
20
99.8532321692
10
24.9263648428
20
99.8477746947
10
24.915737961
20
99.8417773427
10
24.9047712915
20
99.8352328662
10
24.8934642971
20
99.8281340184
10
24.8818164404
20
99.8204735524
10
24.8698271841
20
99.8122442213
10
24.8574959909
20
99.8034387782
10
24.8448223234
20
99.7940499762
10
24.8318056442
20
99.7840705685
10
24.818445416
20
99.7734933082
10
24.8047411014
20
99.7623109483
10
24.7906921632
20
99.750516242
10
24.776298064
20
99.7381019424
10
24.7615582664
20
99.7250608027
10
24.7464722331
20
99.7113855758
10
24.7310394268
20
99.697069015
10
24.71525931
20
99.6821038734
10
24.6991313455
20
99.666482904
10
24.682654996
20
99.65019886
10
24.665829724
20
99.6332444944
10
24.6486549922
20
99.6156125605
10
24.6311302633
20
99.5972958114
10
24.613255
20
99.578287
10
24.5524854967
20
99.5205765083
10
24.489236403
20
99.4635367899
10
24.4233803599
20
99.4070892861
10
24.3547900079
20
99.3511554381
10
24.2833379878
20
99.2956566873
10
24.2088969404
20
99.240514475
10
24.1313395063
20
99.1856502425
10
24.0505383264
20
99.1309854311
10
23.9663660413
20
99.0764414821
10
23.8786952917
20
99.0219398368
10
23.7873987184
20
98.9674019365
10
23.6923489622
20
98.9127492226
10
23.5934186637
20
98.8579031362
10
23.4904804637
20
98.8027851189
10
23.383407003
20
98.7473166118
10
23.2720709221
20
98.6914190563
10
23.156344862
20
98.6350138936
10
23.0361014632
20
98.5780225651
10
22.9112133666
20
98.5203665121
10
22.7815532129
20
98.4619671759
10
22.6469936427
20
98.4027459978
10
22.5074072969
20
98.3426244191
10
22.3626668162
20
98.2815238811
10
22.2126448412
20
98.2193658251
10
22.0572140128
20
98.1560716925
10
21.8962469716
20
98.0915629245
10
21.7296163584
20
98.0257609625
10
21.5571948139
20
97.9585872477
10
21.3788549789
20
97.8899632215
10
21.194469494
20
97.8198103252
10
21.003911
20
97.74805
10
20.9193882117
20
97.7187119236
10
20.8342172767
20
97.6888098511
10
20.7485553716
20
97.6584042108
10
20.6625596732
20
97.627555431
10
20.5763873585
20
97.5963239403
10
20.4901956041
20
97.5647701669
10
20.4041415869
20
97.5329545393
10
20.3183824836
20
97.5009374858
10
20.2330754711
20
97.4687794348
10
20.1483777262
20
97.4365408147
10
20.0644464256
20
97.4042820539
10
19.9814387462
20
97.3720635807
10
19.8995118648
20
97.3399458237
10
19.8188229581
20
97.307989211
10
19.739529203
20
97.2762541712
10
19.6617877762
20
97.2448011326
10
19.5857558546
20
97.2136905236
10
19.5115906149
20
97.1829827726
10
19.439449234
20
97.1527383079
10
19.3694888886
20
97.123017558
10
19.3018667556
20
97.0938809512
10
19.2367400117
20
97.0653889159
10
19.1742658338
20
97.0376018805
10
19.1146013986
20
97.0105802734
10
19.0579038829
20
96.984384523
10
19.0043304636
20
96.9590750576
10
18.9540383174
20
96.9347123057
10
18.9071846212
20
96.9113566956
10
18.8639265516
20
96.8890686557
10
18.8244212857
20
96.8679086143
10
18.788826
20
96.847937
10
18.7071059775
20
96.8104691446
10
18.6206533307
20
96.7754875369
10
18.5297245136
20
96.7429806951
10
18.4345759799
20
96.7129371374
10
18.3354641835
20
96.6853453819
10
18.2326455782
20
96.6601939469
10
18.1263766178
20
96.6374713507
10
18.0169137562
20
96.6171661113
10
17.9045134471
20
96.5992667471
10
17.7894321445
20
96.5837617763
10
17.6719263021
20
96.570639717
10
17.5522523737
20
96.5598890874
10
17.4306668133
20
96.5514984058
10
17.3074260746
20
96.5454561904
10
17.1827866114
20
96.5417509594
10
17.0570048776
20
96.540371231
10
16.9303373271
20
96.5413055234
10
16.8030404135
20
96.5445423548
10
16.6753705909
20
96.5500702435
10
16.5475843129
20
96.5578777076
10
16.4199380335
20
96.5679532653
10
16.2926882064
20
96.580285435
10
16.1660912855
20
96.5948627347
10
16.0404037245
20
96.6116736826
10
15.9158819775
20
96.6307067971
10
15.7927824981
20
96.6519505963
10
15.6713617402
20
96.6753935983
10
15.5518761576
20
96.7010243215
10
15.4345822041
20
96.7288312841
10
15.3197363337
20
96.7588030042
10
15.207595
20
96.790928
10
15.1240201224
20
96.8213102507
10
15.0398237647
20
96.8542748233
10
14.9552338559
20
96.8896565457
10
14.8704783249
20
96.9272902454
10
14.7857851005
20
96.9670107502
10
14.7013821117
20
97.0086528877
10
14.6174972874
20
97.0520514858
10
14.5343585565
20
97.097041372
10
14.4521938479
20
97.143457374
10
14.3712310904
20
97.1911343197
10
14.2916982131
20
97.2399070366
10
14.2138231447
20
97.2896103525
10
14.1378338143
20
97.3400790951
10
14.0639581507
20
97.391148092
10
13.9924240828
20
97.4426521711
10
13.9234595395
20
97.4944261598
10
13.8572924497
20
97.5463048861
10
13.7941507424
20
97.5981231775
10
13.7342623464
20
97.6497158618
10
13.6778551907
20
97.7009177667
10
13.6251572041
20
97.7515637198
10
13.5763963155
20
97.801488549
10
13.5318004539
20
97.8505270817
10
13.4915975482
20
97.8985141459
10
13.4560155272
20
97.9452845691
10
13.4252823199
20
97.9906731791
10
13.3996258551
20
98.0345148035
10
13.3792740619
20
98.0766442701
10
13.364454869
20
98.1168964066
10
13.3553962054
20
98.1551060407
10
13.352326
20
98.191108
10
13.3520938641
20
98.2007834078
10
13.3514050126
20
98.210438655
10
13.3502707799
20
98.2200535996
10
13.3487025003
20
98.2296080998
10
13.3467115082
20
98.2390820135
10
13.344309138
20
98.2484551988
10
13.341506724
20
98.2577075139
10
13.3383156006
20
98.2668188168
10
13.3347471022
20
98.2757689656
10
13.3308125631
20
98.2845378184
10
13.3265233176
20
98.2931052332
10
13.3218907002
20
98.3014510682
10
13.3169260452
20
98.3095551813
10
13.311640687
20
98.3173974308
10
13.3060459599
20
98.3249576746
10
13.3001531983
20
98.3322157708
10
13.2939737365
20
98.3391515776
10
13.287518909
20
98.3457449529
10
13.28080005
20
98.3519757549
10
13.273828494
20
98.3578238417
10
13.2666155753
20
98.3632690713
10
13.2591726283
20
98.3682913018
10
13.2515109873
20
98.3728703913
10
13.2436419867
20
98.3769861978
10
13.2355769609
20
98.3806185795
10
13.2273272441
20
98.3837473944
10
13.2189041709
20
98.3863525007
10
13.2103190755
20
98.3884137562
10
13.2015832923
20
98.3899110193
10
13.1927081557
20
98.3908241478
10
13.183705
20
98.391133
10
13.1735937108
20
98.3905152866
10
13.1639920848
20
98.3886890035
10
13.1549008717
20
98.3856944363
10
13.1463208212
20
98.3815718708
10
13.1382526827
20
98.3763615925
10
13.130697206
20
98.3701038872
10
13.1236551406
20
98.3628390404
10
13.1171272362
20
98.3546073379
10
13.1111142425
20
98.3454490653
10
13.105616909
20
98.3354045082
10
13.1006359853
20
98.3245139523
10
13.0961722211
20
98.3128176833
10
13.092226366
20
98.3003559868
10
13.0887991696
20
98.2871691485
10
13.0858913816
20
98.273297454
10
13.0835037516
20
98.2587811891
10
13.0816370291
20
98.2436606392
10
13.0802919638
20
98.2279760902
10
13.0794693054
20
98.2117678276
10
13.0791698035
20
98.1950761372
10
13.0793942076
20
98.1779413045
10
13.0801432674
20
98.1604036153
10
13.0814177325
20
98.1425033551
10
13.0832183526
20
98.1242808097
10
13.0855458773
20
98.1057762647
10
13.0884010561
20
98.0870300058
10
13.0917846388
20
98.0680823186
10
13.0956973749
20
98.0489734887
10
13.100140014
20
98.0297438019
10
13.1051133059
20
98.0104335438
10
13.110618
20
97.991083
10
13.1157534451
20
97.9704973559
10
13.1210607968
20
97.9475368546
10
13.1265281282
20
97.9223243682
10
13.1321435124
20
97.8949827691
10
13.1378950226
20
97.8656349293
10
13.1437707318
20
97.8344037211
10
13.1497587132
20
97.8014120167
10
13.1558470399
20
97.7667826884
10
13.162023785
20
97.7306386082
10
13.1682770215
20
97.6931026486
10
13.1745948227
20
97.6542976815
10
13.1809652615
20
97.6143465793
10
13.1873764112
20
97.5733722142
10
13.1938163448
20
97.5314974584
10
13.2002731354
20
97.488845184
10
13.2067348562
20
97.4455382634
10
13.2131895803
20
97.4016995687
10
13.2196253807
20
97.357451972
10
13.2260303306
20
97.3129183457
10
13.232392503
20
97.268221562
10
13.2386999712
20
97.223484493
10
13.2449408082
20
97.1788300109
10
13.251103087
20
97.134380988
10
13.2571748809
20
97.0902602965
10
13.263144263
20
97.0465908086
10
13.2689993062
20
97.0034953964
10
13.2747280839
20
96.9610969323
10
13.2803186689
20
96.9195182884
10
13.2857591346
20
96.8788823369
10
13.2910375539
20
96.83931195
10
13.296142
20
96.80093
10
13.3042622349
20
96.7350255418
10
13.3116469968
20
96.6727044926
10
13.3182425651
20
96.6138036954
10
13.323995219
20
96.5581599931
10
13.328851238
20
96.5056102286
10
13.3327569014
20
96.4559912449
10
13.3356584885
20
96.4091398849
10
13.3375022787
20
96.3648929915
10
13.3382345514
20
96.3230874077
10
13.3378015858
20
96.2835599765
10
13.3361496613
20
96.2461475407
10
13.3332250573
20
96.2106869434
10
13.3289740531
20
96.1770150274
10
13.3233429281
20
96.1449686356
10
13.3162779615
20
96.1143846111
10
13.3077254328
20
96.0850997968
10
13.2976316214
20
96.0569510355
10
13.2859428064
20
96.0297751704
10
13.2726052674
20
96.0034090441
10
13.2575652835
20
95.9776894998
10
13.2407691343
20
95.9524533804
10
13.222163099
20
95.9275375288
10
13.201693457
20
95.9027787879
10
13.1793064875
20
95.8780140007
10
13.1549484701
20
95.8530800101
10
13.1285656839
20
95.827813659
10
13.1001044084
20
95.8020517905
10
13.069510923
20
95.7756312474
10
13.0367315068
20
95.7483888726
10
13.0017124394
20
95.7201615092
10
12.9644
20
95.690786
10
12.9415299108
20
95.6717409512
10
12.9185145563
20
95.6533203213
10
12.8953953701
20
95.6355241109
10
12.8722137863
20
95.6183523207
10
12.8490112386
20
95.6018049512
10
12.825829161
20
95.585882003
10
12.8027089871
20
95.5705834768
10
12.7796921511
20
95.5559093731
10
12.7568200865
20
95.5418596926
10
12.7341342275
20
95.5284344358
10
12.7116760077
20
95.5156336033
10
12.689486861
20
95.5034571959
10
12.6676082213
20
95.491905214
10
12.6460815225
20
95.4809776582
10
12.6249481984
20
95.4706745293
10
12.6042496829
20
95.4609958277
10
12.5840274098
20
95.4519415541
10
12.564322813
20
95.443511709
10
12.5451773263
20
95.4357062932
10
12.5266323836
20
95.4285253072
10
12.5087294188
20
95.4219687515
10
12.4915098656
20
95.4160366269
10
12.475015158
20
95.4107289339
10
12.4592867298
20
95.4060456731
10
12.4443660149
20
95.4019868451
10
12.4302944471
20
95.3985524505
10
12.4171134603
20
95.3957424899
10
12.4048644883
20
95.393556964
10
12.3935889651
20
95.3919958733
10
12.3833283243
20
95.3910592184
10
12.374124
20
95.390747
10
12.3638105128
20
95.3947779989
10
12.3502590158
20
95.402171826
10
12.3335679239
20
95.4128442748
10
12.313835652
20
95.4267111394
10
12.2911606147
20
95.4436882133
10
12.2656412271
20
95.4636912904
10
12.2373759038
20
95.4866361643
10
12.2064630597
20
95.512438629
10
12.1730011097
20
95.5410144781
10
12.1370884685
20
95.5722795055
10
12.0988235509
20
95.6061495047
10
12.0583047719
20
95.6425402698
10
12.0156305462
20
95.6813675943
10
11.9708992886
20
95.7225472721
10
11.9242094141
20
95.7659950969
10
11.8756593372
20
95.8116268625
10
11.8253474731
20
95.8593583627
10
11.7733722363
20
95.9091053911
10
11.7198320418
20
95.9607837417
10
11.6648253044
20
96.014309208
10
11.6084504389
20
96.069597584
10
11.5508058602
20
96.1265646634
10
11.4919899829
20
96.1851262399
10
11.4321012221
20
96.2451981072
10
11.3712379925
20
96.3066960593
10
11.3094987089
20
96.3695358897
10
11.2469817861
20
96.4336333924
10
11.183785639
20
96.4989043609
10
11.1200086824
20
96.5652645892
10
11.0557493311
20
96.632629871
10
10.991106
20
96.700916
10
10.883987691
20
96.8128034313
10
10.7833520609
20
96.9183216752
10
10.6890008291
20
97.017782947
10
10.600735715
20
97.111499462
10
10.5183584382
20
97.1997834355
10
10.4416707179
20
97.2829470827
10
10.3704742738
20
97.3613026191
10
10.3045708252
20
97.4351622599
10
10.2437620916
20
97.5048382203
10
10.1878497924
20
97.5706427158
10
10.1366356471
20
97.6328879615
10
10.0899213751
20
97.6918861729
10
10.0475086959
20
97.7479495651
10
10.0091993289
20
97.8013903535
10
9.97479499349
20
97.8525207534
10
9.94409740922
20
97.9016529802
10
9.91690829549
20
97.949099249
10
9.89302937176
20
97.9951717752
10
9.87226235746
20
98.0401827741
10
9.85440897204
20
98.0844444609
10
9.83927093495
20
98.1282690511
10
9.82664996563
20
98.1719687599
10
9.81634778353
20
98.2158558026
10
9.80816610809
20
98.2602423944
10
9.80190665876
20
98.3054407508
10
9.79737115498
20
98.3517630869
10
9.7943613162
20
98.3995216181
10
9.79267886187
20
98.4490285598
10
9.79212551143
20
98.5005961271
10
9.79250298432
20
98.5545365354
10
9.793613
20
98.611162
10
9.804856
20
99.21124
10
9.529381
20
98.611162
10
9.51437909278
20
98.5812047645
10
9.49868819177
20
98.5494668946
10
9.48234920536
20
98.516041048
10
9.46540304196
20
98.4810198829
10
9.44789060995
20
98.4444960569
10
9.42985281773
20
98.4065622282
10
9.4113305737
20
98.3673110545
10
9.39236478624
20
98.3268351939
10
9.37299636377
20
98.2852273042
10
9.35326621466
20
98.2425800434
10
9.33321524732
20
98.1989860693
10
9.31288437015
20
98.1545380399
10
9.29231449152
20
98.1093286131
10
9.27154651985
20
98.0634504468
10
9.25062136353
20
98.0169961989
10
9.22957993095
20
97.9700585274
10
9.20846313051
20
97.9227300902
10
9.1873118706
20
97.8751035451
10
9.16616705962
20
97.8272715501
10
9.14506960595
20
97.7793267632
10
9.12406041801
20
97.7313618422
10
9.10318040418
20
97.683469445
10
9.08247047286
20
97.6357422296
10
9.06197153244
20
97.5882728539
10
9.04172449132
20
97.5411539758
10
9.0217702579
20
97.4944782532
10
9.00214974056
20
97.448338344
10
8.98290384771
20
97.4028269062
10
8.96407348773
20
97.3580365976
10
8.94569956903
20
97.3140600763
10
8.927823
20
97.27099
10
8.90932326884
20
97.231977178
10
8.89139388329
20
97.1924245312
10
8.87404839394
20
97.1524166595
10
8.85730035141
20
97.1120381625
10
8.8411633063
20
97.07137364
10
8.8256508092
20
97.0305076919
10
8.81077641073
20
96.9895249179
10
8.79655366147
20
96.9485099178
10
8.78299611205
20
96.9075472914
10
8.77011731305
20
96.8667216384
10
8.75793081508
20
96.8261175587
10
8.74645016874
20
96.7858196519
10
8.73568892464
20
96.7459125179
10
8.72566063338
20
96.7064807565
10
8.71637884556
20
96.6676089675
10
8.70785711178
20
96.6293817505
10
8.70010898265
20
96.5918837055
10
8.69314800876
20
96.5551994321
10
8.68698774073
20
96.5194135302
10
8.68164172915
20
96.4846105995
10
8.67712352462
20
96.4508752398
10
8.67344667776
20
96.418292051
10
8.67062473915
20
96.3869456326
10
8.66867125941
20
96.3569205847
10
8.66759978913
20
96.3283015068
10
8.66742387892
20
96.3011729989
10
8.66815707939
20
96.2756196606
10
8.66981294112
20
96.2517260918
10
8.67240501474
20
96.2295768923
10
8.67594685083
20
96.2092566617
10
8.680452
20
96.19085
10
8.69594680746
20
96.1402037297
10
8.71650902991
20
96.0852811281
10
8.74187030294
20
96.0264266378
10
8.77176226216
20
95.9639847019
10
8.80591654315
20
95.898299763
10
8.84406478151
20
95.829716264
10
8.88593861284
20
95.7585786478
10
8.93126967272
20
95.6852313571
10
8.97978959676
20
95.6100188347
10
9.03123002054
20
95.5332855235
10
9.08532257967
20
95.4553758663
10
9.14179890974
20
95.3766343059
10
9.20039064634
20
95.2974052851
10
9.26082942506
20
95.2180332468
10
9.32284688151
20
95.1388626337
10
9.38617465127
20
95.0602378887
10
9.45054436994
20
94.9825034546
10
9.51568767312
20
94.9060037742
10
9.5813361964
20
94.8310832904
10
9.64722157538
20
94.7580864459
10
9.71307544564
20
94.6873576836
10
9.77862944278
20
94.6192414463
10
9.84361520241
20
94.5540821768
10
9.90776436011
20
94.4922243179
10
9.97080855148
20
94.4340123124
10
10.0324794121
20
94.3797906033
10
10.0925085776
20
94.3299036332
10
10.1506276835
20
94.284695845
10
10.2065683655
20
94.2445116815
10
10.2600622591
20
94.2096955856
10
10.310841
20
94.180592
10
10.3646799601
20
94.1515193748
10
10.4149308243
20
94.1222271923
10
10.4615934718
20
94.092495895
10
10.5046677818
20
94.0621059255
10
10.5441536333
20
94.0308377266
10
10.5800509057
20
93.9984717407
10
10.6123594779
20
93.9647884105
10
10.6410792293
20
93.9295681786
10
10.6662100388
20
93.8925914876
10
10.6877517858
20
93.8536387802
10
10.7057043493
20
93.812490499
10
10.7200676086
20
93.7689270866
10
10.7308414427
20
93.7227289855
10
10.7380257308
20
93.6736766385
10
10.7416203522
20
93.6215504881
10
10.7416251858
20
93.566130977
10
10.738040111
20
93.5071985477
10
10.7308650068
20
93.444533643
10
10.7200997525
20
93.3779167053
10
10.7057442271
20
93.3071281774
10
10.6877983099
20
93.2319485018
10
10.66626188
20
93.1521581211
10
10.6411348165
20
93.067537478
10
10.6124169987
20
92.9778670151
10
10.5801083056
20
92.8829271751
10
10.5442086164
20
92.7824984004
10
10.5047178103
20
92.6763611338
10
10.4616357665
20
92.5642958178
10
10.414962364
20
92.4460828951
10
10.3646974822
20
92.3215028083
10
10.310841
20
92.190336
10
10.267838455
20
92.0852300757
10
10.2237721819
20
91.9716701685
10
10.1788099012
20
91.8503189803
10
10.1331193335
20
91.7218392128
10
10.086868199
20
91.5868935679
10
10.0402242183
20
91.4461447474
10
9.99335511181
20
91.3002554532
10
9.94642860001
20
91.149888387
10
9.89961240334
20
90.9957062506
10
9.85307424225
20
90.838371746
10
9.8069818372
20
90.6785475749
10
9.76150290863
20
90.5168964392
10
9.716805177
20
90.3540810406
10
9.67305636276
20
90.190764081
10
9.63042418637
20
90.0276082623
10
9.58907636827
20
89.8652762861
10
9.54918062891
20
89.7044308545
10
9.51090468877
20
89.5457346691
10
9.47441626827
20
89.3898504318
10
9.43988308788
20
89.2374408444
10
9.40747286805
20
89.0891686088
10
9.37735332923
20
88.9456964268
10
9.34969219187
20
88.8076870001
10
9.32465717643
20
88.6758030307
10
9.30241600336
20
88.5507072203
10
9.28313639311
20
88.4330622708
10
9.26698606613
20
88.323530884
10
9.25413274288
20
88.2227757617
10
9.2447441438
20
88.1314596057
10
9.23898798936
20
88.0502451179
10
9.237032
20
87.979795
10
9.23789371528
20
87.9595155315
10
9.24044976805
20
87.9374493852
10
9.24465651868
20
87.9136831758
10
9.25047032755
20
87.8883035177
10
9.25784755503
20
87.8613970258
10
9.26674456151
20
87.8330503145
10
9.27711770736
20
87.8033499985
10
9.28892335296
20
87.7723826924
10
9.30211785868
20
87.7402350108
10
9.31665758491
20
87.7069935684
10
9.33249889201
20
87.6727449797
10
9.34959814038
20
87.6375758593
10
9.36791169038
20
87.601572822
10
9.38739590239
20
87.5648224822
10
9.40800713679
20
87.5274114546
10
9.42970175395
20
87.4894263539
10
9.45243611426
20
87.4509537946
10
9.47616657809
20
87.4120803914
10
9.50084950582
20
87.3728927588
10
9.52644125783
20
87.3334775115
10
9.55289819449
20
87.2939212641
10
9.58017667618
20
87.2543106312
10
9.60823306327
20
87.2147322275
10
9.63702371616
20
87.1752726675
10
9.6665049952
20
87.1360185658
10
9.69663326078
20
87.0970565372
10
9.72736487328
20
87.0584731961
10
9.75865619308
20
87.0203551572
10
9.79046358054
20
86.9827890352
10
9.82274339606
20
86.9458614446
10
9.855452
20
86.909659
10
10.473881
20
86.209567
10
10.018523
20
85.509478
10
9.99392278571
20
85.4707732742
10
9.96866799742
20
85.4321289947
10
9.94281590088
20
85.393605589
10
9.91642376184
20
85.3552634849
10
9.88954884606
20
85.3171631098
10
9.86224841929
20
85.2793648913
10
9.83457974727
20
85.241929257
10
9.80660009577
20
85.2049166345
10
9.77836673052
20
85.1683874513
10
9.74993691729
20
85.1324021351
10
9.72136792182
20
85.0970211135
10
9.69271700987
20
85.0623048139
10
9.66404144718
20
85.028313664
10
9.63539849951
20
84.9951080913
10
9.60684543261
20
84.9627485235
10
9.57843951224
20
84.9312953881
10
9.55023800413
20
84.9008091127
10
9.52229817405
20
84.8713501248
10
9.49467728774
20
84.8429788521
10
9.46743261096
20
84.8157557221
10
9.44062140945
20
84.7897411625
10
9.41430094898
20
84.7649956007
10
9.38852849528
20
84.7415794644
10
9.36336131412
20
84.7195531811
10
9.33885667124
20
84.6989771784
10
9.3150718324
20
84.679911884
10
9.29206406334
20
84.6624177253
10
9.26989062982
20
84.64655513
10
9.24860879759
20
84.6323845256
10
9.2282758324
20
84.6199663398
10
9.208949
20
84.609361
10
9.17674409657
20
84.5906180982
10
9.14684347289
20
84.5730636231
10
9.11933842016
20
84.5566371463
10
9.09432022957
20
84.541278239
10
9.07188019231
20
84.5269264728
10
9.05210959958
20
84.513521419
10
9.03509974257
20
84.501002649
10
9.02094191249
20
84.4893097343
10
9.00972740052
20
84.4783822463
10
9.00154749787
20
84.4681597563
10
8.99649349572
20
84.4585818359
10
8.99465668527
20
84.4495880564
10
8.99612835773
20
84.4411179892
10
9.00099980427
20
84.4331112057
10
9.0093623161
20
84.4255072774
10
9.02130718442
20
84.4182457757
10
9.03692570041
20
84.4112662719
10
9.05630915528
20
84.4045083376
10
9.07954884022
20
84.3979115441
10
9.10673604642
20
84.3914154628
10
9.13796206509
20
84.3849596651
10
9.17331818741
20
84.3784837225
10
9.21289570458
20
84.3719272064
10
9.25678590779
20
84.3652296881
10
9.30508008825
20
84.3583307392
10
9.35786953714
20
84.351169931
10
9.41524554567
20
84.3436868348
10
9.47729940502
20
84.3358210223
10
9.5441224064
20
84.3275120647
10
9.61580584099
20
84.3186995334
10
9.692441
20
84.309323
10
10.530129
20
84.292333
10
9.804885
20
83.692255
10
9.76656831704
20
83.6535502742
10
9.72878408368
20
83.6149059947
10
9.69158137803
20
83.576382589
10
9.6550092782
20
83.5380404849
10
9.61911686231
20
83.4999401098
10
9.58395320845
20
83.4621418913
10
9.54956739475
20
83.424706257
10
9.51600849931
20
83.3876936345
10
9.48332560025
20
83.3511644513
10
9.45156777567
20
83.3151791351
10
9.42078410369
20
83.2797981135
10
9.39102366241
20
83.2450818139
10
9.36233552996
20
83.211090664
10
9.33476878443
20
83.1778850913
10
9.30837250394
20
83.1455255235
10
9.28319576661
20
83.1140723881
10
9.25928765053
20
83.0835861127
10
9.23669723383
20
83.0541271248
10
9.21547359461
20
83.0257558521
10
9.19566581098
20
82.9985327221
10
9.17732296106
20
82.9725181625
10
9.16049412296
20
82.9477726007
10
9.14522837478
20
82.9243564644
10
9.13157479464
20
82.9023301811
10
9.11958246064
20
82.8817541784
10
9.10930045091
20
82.862688884
10
9.10077784354
20
82.8451947253
10
9.09406371666
20
82.82933213
10
9.08920714837
20
82.8151615256
10
9.08625721678
20
82.8027433398
10
9.085263
20
82.792138
10
9.08570983901
20
82.7809192473
10
9.08703523967
20
82.7667032145
10
9.08921652741
20
82.7496147882
10
9.09223102766
20
82.7297788546
10
9.09605606586
20
82.7073203004
10
9.10066896744
20
82.6823640118
10
9.10604705784
20
82.6550348754
10
9.11216766248
20
82.6254577777
10
9.11900810681
20
82.5937576049
10
9.12654571626
20
82.5600592437
10
9.13475781625
20
82.5244875803
10
9.14362173223
20
82.4871675014
10
9.15311478963
20
82.4482238933
10
9.16321431389
20
82.4077816424
10
9.17389763043
20
82.3659656352
10
9.18514206468
20
82.3229007581
10
9.1969249421
20
82.2787118977
10
9.2092235881
20
82.2335239403
10
9.22201532812
20
82.1874617723
10
9.2352774876
20
82.1406502802
10
9.24898739196
20
82.0932143505
10
9.26312236665
20
82.0452788696
10
9.2776597371
20
81.9969687239
10
9.29257682874
20
81.9484087999
10
9.307850967
20
81.899723984
10
9.32345947733
20
81.8510391627
10
9.33937968514
20
81.8024792224
10
9.35558891588
20
81.7541690495
10
9.37206449498
20
81.7062335305
10
9.38878374788
20
81.6587975519
10
9.405724
20
81.611986
10
9.42253297385
20
81.5634524727
10
9.43886703535
20
81.5147013926
10
9.45471066859
20
81.4658274317
10
9.47004835769
20
81.4169252618
10
9.48486458675
20
81.3680895549
10
9.49914383988
20
81.319414983
10
9.51287060119
20
81.2709962181
10
9.52602935477
20
81.222927932
10
9.53860458474
20
81.1753047967
10
9.5505807752
20
81.1282214842
10
9.56194241026
20
81.0817726664
10
9.57267397402
20
81.0360530153
10
9.58275995059
20
80.9911572027
10
9.59218482407
20
80.9471799008
10
9.60093307858
20
80.9042157813
10
9.60898919821
20
80.8623595163
10
9.61633766708
20
80.8217057777
10
9.62296296929
20
80.7823492374
10
9.62884958894
20
80.7443845675
10
9.63398201014
20
80.7079064397
10
9.638344717
20
80.6730095262
10
9.64192219362
20
80.6397884988
10
9.6446989241
20
80.6083380295
10
9.64665939257
20
80.5787527902
10
9.64778808311
20
80.551127453
10
9.64806947984
20
80.5255566896
10
9.64748806687
20
80.5021351721
10
9.64602832829
20
80.4809575725
10
9.64367474821
20
80.4621185626
10
9.64041181075
20
80.4457128145
10
9.636224
20
80.431835
10
9.62979965245
20
80.4212299322
10
9.61989914464
20
80.4088119833
10
9.6066199563
20
80.3946415833
10
9.59005956712
20
80.3787791621
10
9.57031545682
20
80.3612851497
10
9.5474851051
20
80.3422199762
10
9.52166599168
20
80.3216440715
10
9.49295559625
20
80.2996178657
10
9.46145139854
20
80.2762017887
10
9.42725087825
20
80.2514562705
10
9.39045151509
20
80.2254417412
10
9.35115078876
20
80.1982186306
10
9.30944617898
20
80.1698473689
10
9.26543516545
20
80.140388386
10
9.21921522789
20
80.1099021119
10
9.17088384599
20
80.0784489766
10
9.12053849948
20
80.0460894101
10
9.06827666805
20
80.0128838423
10
9.01419583143
20
79.9788927034
10
8.9583934693
20
79.9441764232
10
8.90096706139
20
79.9087954319
10
8.84201408741
20
79.8728101593
10
8.78163202706
20
79.8362810354
10
8.71991836004
20
79.7992684904
10
8.65697056608
20
79.7618329541
10
8.59288612487
20
79.7240348565
10
8.52776251613
20
79.6859346277
10
8.46169721956
20
79.6475926977
10
8.39478771488
20
79.6090694964
10
8.32713148179
20
79.5704254538
10
8.258826
20
79.531721
10
8.16950900879
20
79.4842496391
10
8.08356862811
20
79.438564974
10
8.00094884411
20
79.3945803897
10
7.92159364298
20
79.3522092708
10
7.84544701088
20
79.3113650022
10
7.77245293397
20
79.2719609686
10
7.70255539844
20
79.2339105549
10
7.63569839045
20
79.1971271457
10
7.57182589618
20
79.161524126
10
7.51088190178
20
79.1270148804
10
7.45281039344
20
79.0935127937
10
7.39755535732
20
79.0609312507
10
7.3450607796
20
79.0291836363
10
7.29527064644
20
78.9981833351
10
7.24812894401
20
78.967843732
10
7.20357965849
20
78.9380782118
10
7.16156677604
20
78.9088001591
10
7.12203428284
20
78.8799229589
10
7.08492616505
20
78.8513599959
10
7.05018640885
20
78.8230246548
10
7.0177590004
20
78.7948303205
10
6.98758792588
20
78.7666903777
10
6.95961717146
20
78.7385182112
10
6.93379072331
20
78.7102272058
10
6.91005256759
20
78.6817307462
10
6.88834669048
20
78.6529422173
10
6.86861707814
20
78.6237750039
10
6.85080771676
20
78.5941424907
10
6.83486259249
20
78.5639580624
10
6.82072569152
20
78.5331351039
10
6.808341
20
78.501587
10
6.79907321946
20
78.4787379649
10
6.78867746329
20
78.4490504051
10
6.77719675483
20
78.4127418646
10
6.76467411738
20
78.3700298872
10
6.7511525743
20
78.321132017
10
6.7366751489
20
78.2662657978
10
6.72128486452
20
78.2056487738
10
6.70502474449
20
78.1394984887
10
6.68793781212
20
78.0680324866
10
6.67006709077
20
77.9914683115
10
6.65145560374
20
77.9100235072
10
6.63214637437
20
77.8239156178
10
6.612182426
20
77.7333621871
10
6.59160678195
20
77.6385807593
10
6.57046246554
20
77.5397888781
10
6.54879250012
20
77.4372040876
10
6.526639909
20
77.3310439317
10
6.50404771552
20
77.2215259544
10
6.481058943
20
77.1088676996
10
6.45771661478
20
76.9932867113
10
6.43406375419
20
76.8750005335
10
6.41014338455
20
76.75422671
10
6.38599852919
20
76.631182785
10
6.36167221144
20
76.5060863022
10
6.33720745463
20
76.3791548057
10
6.3126472821
20
76.2506058394
10
6.28803471716
20
76.1206569474
10
6.26341278316
20
75.9895256734
10
6.23882450341
20
75.8574295616
10
6.21431290125
20
75.7245861558
10
6.189921
20
75.591213
10
6.16417104213
20
75.4526060451
10
6.13562940777
20
75.3042317852
10
6.10440852036
20
75.1465635793
10
6.0706208033
20
74.9800747863
10
6.03437868
20
74.8052387652
10
5.9957945739
20
74.6225288748
10
5.9549809084
20
74.4324184741
10
5.91205010691
20
74.2353809221
10
5.86711459286
20
74.0318895777
10
5.82028678967
20
73.8224177998
10
5.77167912074
20
73.6074389473
10
5.7214040095
20
73.3874263792
10
5.66957387936
20
73.1628534544
10
5.61630115374
20
72.9341935319
10
5.56169825605
20
72.7019199706
10
5.50587760971
20
72.4665061293
10
5.44895163815
20
72.2284253672
10
5.39103276476
20
71.988151043
10
5.33223341298
20
71.7461565157
10
5.27266600621
20
71.5029151443
10
5.21244296788
20
71.2589002876
10
5.15167672139
20
71.0145853047
10
5.09047969017
20
70.7704435545
10
5.02896429764
20
70.5269483958
10
4.9672429672
20
70.2845731876
10
4.90542812229
20
70.0437912889
10
4.8436321863
20
69.8050760586
10
4.78196758266
20
69.5689008557
10
4.72054673479
20
69.3357390389
10
4.65948206609
20
69.1060639674
10
4.598886
20
68.880349
10
4.53859864016
20
68.6563063274
10
4.47844935021
20
68.4315928891
10
4.41853444352
20
68.2065994571
10
4.35895023349
20
67.9817168037
10
4.2997930335
20
67.757335701
10
4.24115915693
20
67.5338469213
10
4.18314491716
20
67.3116412366
10
4.12584662757
20
67.0911094192
10
4.06936060156
20
66.8726422412
10
4.0137831525
20
66.6566304749
10
3.95921059377
20
66.4434648925
10
3.90573923876
20
66.233536266
10
3.85346540086
20
66.0272353676
10
3.80248539344
20
65.8249529697
10
3.75289552989
20
65.6270798442
10
3.70479212359
20
65.4340067635
10
3.65827148793
20
65.2461244996
10
3.61342993629
20
65.0638238249
10
3.57036378205
20
64.8874955114
10
3.52916933859
20
64.7175303313
10
3.4899429193
20
64.5543190568
10
3.45278083757
20
64.3982524601
10
3.41777940677
20
64.2497213134
10
3.38503494028
20
64.1091163888
10
3.3546437515
20
63.9768284586
10
3.3267021538
20
63.8532482948
10
3.30130646058
20
63.7387666698
10
3.2785529852
20
63.6337743556
10
3.25853804105
20
63.5386621244
10
3.24135794153
20
63.4538207485
10
3.227109
20
63.379641
10
3.19181517952
20
63.1945550086
10
3.15337034457
20
63.0034442761
10
3.11187859619
20
62.8066532454
10
3.06744403541
20
62.6045263596
10
3.02017076328
20
62.3974080617
10
2.97016288084
20
62.1856427947
10
2.91752448911
20
61.9695750016
10
2.86235968913
20
61.7495491255
10
2.80477258195
20
61.5259096094
10
2.7448672686
20
61.2990008963
10
2.68274785012
20
61.0691674292
10
2.61851842755
20
60.8367536511
10
2.55228310191
20
60.602104005
10
2.48414597425
20
60.3655629341
10
2.41421114561
20
60.1274748812
10
2.34258271703
20
59.8881842894
10
2.26936478953
20
59.6480356018
10
2.19466146417
20
59.4073732614
10
2.11857684197
20
59.1665417111
10
2.04121502397
20
58.9258853939
10
1.96268011121
20
58.685748753
10
1.88307620473
20
58.4464762314
10
1.80250740556
20
58.208412272
10
1.72107781474
20
57.9719013178
10
1.63889153332
20
57.737287812
10
1.55605266231
20
57.5049161974
10
1.47266530278
20
57.2751309172
10
1.38883355574
20
57.0482764143
10
1.30466152224
20
56.8246971318
10
1.22025330331
20
56.6047375127
10
1.135713
20
56.388742
10
1.08319380216
20
56.2634773244
10
1.03195777312
20
56.1418477044
10
0.981981711255
20
56.0238539438
10
0.933242414924
20
55.9094968465
10
0.885716682488
20
55.7987772162
10
0.839381312309
20
55.6916958567
10
0.794213102749
20
55.5882535718
10
0.75018885217
20
55.4884511653
10
0.707285358934
20
55.3922894411
10
0.665479421402
20
55.2997692028
10
0.624747837938
20
55.2108912544
10
0.585067406901
20
55.1256563997
10
0.546414926656
20
55.0440654423
10
0.508767195562
20
54.9661191861
10
0.472101011983
20
54.891818435
10
0.436393174281
20
54.8211639927
10
0.401620480816
20
54.754156663
10
0.367759729952
20
54.6907972497
10
0.33478772005
20
54.6310865566
10
0.302681249471
20
54.5750253876
10
0.271417116579
20
54.5226145464
10
0.240972119734
20
54.4738548368
10
0.211323057299
20
54.4287470626
10
0.182446727636
20
54.3872920276
10
0.154319929106
20
54.3494905356
10
0.126919460072
20
54.3153433905
10
0.100222118895
20
54.284851396
10
0.0742047039374
20
54.2580153558
10
0.0488440135611
20
54.2348360739
10
0.024116846128
20
54.2153143541
10
0
20
54.199451
10
0
20
50.128926
10
0.00175503071397
20
50.1285320895
10
0.00352032895841
20
50.1281260351
10
0.00529523614514
20
50.1277080303
10
0.00707909368601
20
50.1272782684
10
0.00887124299285
20
50.1268369427
10
0.0106710254775
20
50.1263842467
10
0.0124777825518
20
50.1259203735
10
0.0142908556275
20
50.1254455166
10
0.0161095861166
20
50.1249598694
10
0.0179333154308
20
50.1244636251
10
0.019761384982
20
50.1239569772
10
0.0215931361821
20
50.1234401189
10
0.0234279104428
20
50.1229132436
10
0.0252650491759
20
50.1223765447
10
0.0271038937934
20
50.1218302155
10
0.0289437857071
20
50.1212744494
10
0.0307840663288
20
50.1207094397
10
0.0326240770703
20
50.1201353797
10
0.0344631593434
20
50.1195524628
10
0.0363006545601
20
50.1189608823
10
0.0381359041321
20
50.1183608317
10
0.0399682494713
20
50.1177525042
10
0.0417970319895
20
50.1171360931
10
0.0436215930986
20
50.116511792
10
0.0454412742103
20
50.1158797939
10
0.0472554167366
20
50.1152402924
10
0.0490633620892
20
50.1145934808
10
0.05086445168
20
50.1139395524
10
0.0526580269209
20
50.1132787006
10
0.0544434292236
20
50.1126111187
10
0.05622
20
50.111937
10
0.0699609317915
20
50.1066460439
10
0.0839552961633
20
50.1014245851
10
0.0981734143533
20
50.0962796736
10
0.1125856076
20
50.0912183593
10
0.12716219714
20
50.0862476922
10
0.141873504213
20
50.081374722
10
0.156689850055
20
50.0766064988
10
0.171581555906
20
50.0719500724
10
0.186518943003
20
50.0674124928
10
0.201472332584
20
50.0630008099
10
0.216412045886
20
50.0587220735
10
0.231308404149
20
50.0545833337
10
0.246131728609
20
50.0505916403
10
0.260852340506
20
50.0467540433
10
0.275440561075
20
50.0430775925
10
0.289866711557
20
50.0395693378
10
0.304101113189
20
50.0362363293
10
0.318114087208
20
50.0330856167
10
0.331875954852
20
50.03012425
10
0.34535703736
20
50.0273592792
10
0.35852765597
20
50.0247977541
10
0.371358131919
20
50.0224467247
10
0.383818786446
20
50.0203132408
10
0.395879940787
20
50.0184043524
10
0.407511916183
20
50.0167271094
10
0.418685033869
20
50.0152885617
10
0.429369615085
20
50.0140957593
10
0.439535981068
20
50.013155752
10
0.449154453056
20
50.0124755897
10
0.458195352288
20
50.0120623224
10
0.466629
20
50.011923
10
0.489700619147
20
50.0071860056
10
0.512082993757
20
50.0011151533
10
0.533772109261
20
49.9937253489
10
0.554763951093
20
49.9850314983
10
0.575054504683
20
49.9750485072
10
0.594639755463
20
49.9637912816
10
0.613515688866
20
49.9512747272
10
0.631678290323
20
49.93751375
10
0.649123545265
20
49.9225232557
10
0.665847439126
20
49.9063181502
10
0.681845957336
20
49.8889133394
10
0.697115085328
20
49.8703237291
10
0.711650808533
20
49.8505642251
10
0.725449112383
20
49.8296497333
10
0.73850598231
20
49.8075951595
10
0.750817403746
20
49.7844154097
10
0.762379362123
20
49.7601253895
10
0.773187842872
20
49.7347400049
10
0.783238831426
20
49.7082741617
10
0.792528313215
20
49.6807427657
10
0.801052273673
20
49.6521607228
10
0.808806698231
20
49.6225429389
10
0.81578757232
20
49.5919043198
10
0.821990881374
20
49.5602597712
10
0.827412610822
20
49.5276241992
10
0.832048746098
20
49.4940125094
10
0.835895272633
20
49.4594396079
10
0.838948175858
20
49.4239204003
10
0.841203441207
20
49.3874697926
10
0.84265705411
20
49.3501026905
10
0.843305
20
49.311834
10
0.844715135813
20
49.2643670034
10
0.848453749354
20
49.2187128885
10
0.85458792397
20
49.1748112259
10
0.86318474301
20
49.1326015863
10
0.874311289819
20
49.0920235403
10
0.888034647746
20
49.0530166585
10
0.904421900138
20
49.0155205114
10
0.923540130341
20
48.9794746697
10
0.945456421705
20
48.9448187041
10
0.970237857574
20
48.911492185
10
0.997951521298
20
48.8794346832
10
1.02866449622
20
48.8485857692
10
1.0624438657
20
48.8188850136
10
1.09935671307
20
48.7902719871
10
1.13947012168
20
48.7626862602
10
1.18285117489
20
48.7360674036
10
1.22956695603
20
48.7103549879
10
1.27968454845
20
48.6854885837
10
1.33327103551
20
48.6614077615
10
1.39039350055
20
48.638052092
10
1.45111902692
20
48.6153611459
10
1.51551469796
20
48.5932744936
10
1.58364759703
20
48.5717317059
10
1.65558480746
20
48.5506723533
10
1.73139341261
20
48.5300360065
10
1.81114049582
20
48.509762236
10
1.89489314045
20
48.4897906124
10
1.98271842983
20
48.4700607065
10
2.07468344732
20
48.4505120887
10
2.17085527626
20
48.4310843296
10
2.271301
20
48.411717
10
2.31099518217
20
48.4040895097
10
2.35103390584
20
48.3955688863
10
2.39134166258
20
48.3862111266
10
2.43184294394
20
48.3760722276
10
2.47246224148
20
48.3652081861
10
2.51312404676
20
48.3536749991
10
2.55375285133
20
48.3415286636
10
2.59427314676
20
48.3288251763
10
2.63460942459
20
48.3156205343
10
2.6746861764
20
48.3019707343
10
2.71442789373
20
48.2879317735
10
2.75375906814
20
48.2735596486
10
2.7926041912
20
48.2589103566
10
2.83088775446
20
48.2440398943
10
2.86853424947
20
48.2290042587
10
2.9054681678
20
48.2138594468
10
2.94161400101
20
48.1986614553
10
2.97689624064
20
48.1834662813
10
3.01123937827
20
48.1683299217
10
3.04456790544
20
48.1533083732
10
3.07680631372
20
48.138457633
10
3.10787909466
20
48.1238336978
10
3.13771073982
20
48.1094925646
10
3.16622574076
20
48.0954902303
10
3.19334858904
20
48.0818826918
10
3.21900377621
20
48.0687259461
10
3.24311579383
20
48.0560759899
10
3.26560913346
20
48.0439888203
10
3.28640828666
20
48.0325204342
10
3.30543774499
20
48.0217268285
10
3.322622
20
48.011664
10
3.35116154023
20
47.9834913733
10
3.37762666732
20
47.9567508909
10
3.40185004407
20
47.9310014234
10
3.42366433332
20
47.9058018414
10
3.44290219788
20
47.8807110154
10
3.45939630056
20
47.8552878161
10
3.47297930419
20
47.829091114
10
3.48348387157
20
47.8016797798
10
3.49074266554
20
47.7726126841
10
3.4945883489
20
47.7414486974
10
3.49485358447
20
47.7077466904
10
3.49137103508
20
47.6710655336
10
3.48397336353
20
47.6309640977
10
3.47249323265
20
47.5870012533
10
3.45676330526
20
47.5387358709
10
3.43661624417
20
47.4857268211
10
3.41188471219
20
47.4275329746
10
3.38240137216
20
47.363713202
10
3.34799888688
20
47.2938263738
10
3.30850991917
20
47.2174313606
10
3.26376713185
20
47.1340870331
10
3.21360318774
20
47.0433522618
10
3.15785074966
20
46.9447859174
10
3.09634248041
20
46.8379468704
10
3.02891104283
20
46.7223939914
10
2.95538909973
20
46.5976861511
10
2.87560931392
20
46.46338222
10
2.78940434823
20
46.3190410688
10
2.69660686546
20
46.164221568
10
2.59704952845
20
45.9984825882
10
2.490565
20
45.821383
10
2.39856258575
20
45.6685124656
10
2.30955306579
20
45.519328094
10
2.22332476627
20
45.3733947974
10
2.13966601333
20
45.2302774879
10
2.05836513309
20
45.0895410774
10
1.97921045171
20
44.9507504782
10
1.90199029532
20
44.8134706023
10
1.82649299006
20
44.6772663618
10
1.75250686207
20
44.5417026688
10
1.67982023749
20
44.4063444353
10
1.60822144245
20
44.2707565735
10
1.53749880309
20
44.1345039955
10
1.46744064556
20
43.9971516132
10
1.397835296
20
43.8582643389
10
1.32847108053
20
43.7174070846
10
1.2591363253
20
43.5741447624
10
1.18961935645
20
43.4280422844
10
1.11970850012
20
43.2786645626
10
1.04919208244
20
43.1255765092
10
0.977858429559
20
42.9683430363
10
0.905495867611
20
42.8065290558
10
0.831892722735
20
42.63969948
10
0.75683732107
20
42.4674192209
10
0.680117988755
20
42.2892531906
10
0.601523051928
20
42.1047663012
10
0.520840836729
20
41.9135234647
10
0.437859669296
20
41.7150895933
10
0.352367875768
20
41.509029599
10
0.264153782283
20
41.294908394
10
0.173005714981
20
41.0722908903
10
0.078712
20
40.840742
10
0.0763616088752
20
40.8282217758
10
0.0739839032594
20
40.816204375
10
0.0715804073714
20
40.804674286
10
0.0691526454298
20
40.793615997
10
0.0667021416535
20
40.7830139964
10
0.0642304202612
20
40.7728527726
10
0.0617390054715
20
40.7631168138
10
0.0592294215031
20
40.7537906085
10
0.0567031925749
20
40.7448586449
10
0.0541618429056
20
40.7363054114
10
0.0516068967138
20
40.7281153964
10
0.0490398782183
20
40.720273088
10
0.0464623116377
20
40.7127629748
10
0.043875721191
20
40.705569545
10
0.0412816310966
20
40.698677287
10
0.0386815655735
20
40.6920706891
10
0.0360770488403
20
40.6857342396
10
0.0334696051156
20
40.6796524268
10
0.0308607586184
20
40.6738097392
10
0.0282520335672
20
40.668190665
10
0.0256449541808
20
40.6627796926
10
0.0230410446779
20
40.6575613103
10
0.0204418292773
20
40.6525200065
10
0.0178488321976
20
40.6476402694
10
0.0152635776577
20
40.6429065875
10
0.0126875898761
20
40.638303449
10
0.0101223930717
20
40.6338153423
10
0.00756951146319
20
40.6294267557
10
0.00503046926924
20
40.6251221775
10
0.0025067907086
20
40.6208860962
10
0
20
40.616703
10
0
20
21.535249
10
0.0527578304857
20
21.5295887928
10
0.104660926924
20
21.5253978046
10
0.155715277433
20
21.5226965821
10
0.205926870129
20
21.521505672
10
0.255301693129
20
21.5218456211
10
0.303845734551
20
21.5237369762
10
0.351564982511
20
21.5272002839
10
0.398465425128
20
21.532256091
10
0.444553050519
20
21.5389249443
10
0.489833846799
20
21.5472273905
10
0.534313802088
20
21.5571839763
10
0.577998904501
20
21.5688152485
10
0.620895142157
20
21.5821417538
10
0.663008503172
20
21.597184039
10
0.704344975664
20
21.6139626508
10
0.744910547749
20
21.6324981359
10
0.784711207546
20
21.6528110412
10
0.823752943171
20
21.6749219132
10
0.862041742741
20
21.6988512989
10
0.899583594374
20
21.7246197449
10
0.936384486187
20
21.7522477979
10
0.972450406297
20
21.7817560047
10
1.00778734282
20
21.8131649121
10
1.04240128388
20
21.8464950668
10
1.07629821758
20
21.8817670155
10
1.10948413205
20
21.919001305
10
1.14196501541
20
21.958218482
10
1.17374685576
20
21.9994390932
10
1.20483564123
20
22.0426836855
10
1.23523735994
20
22.0879728055
10
1.264958
20
22.135327
10
1.33833066574
20
22.2512708256
10
1.40994310114
20
22.3782529681
10
1.47975154412
20
22.516009555
10
1.54771223262
20
22.6642767137
10
1.61378140455
20
22.8227905717
10
1.67791529784
20
22.9912872566
10
1.74007015041
20
23.1695028958
10
1.80020220019
20
23.3571736168
10
1.85826768511
20
23.554035547
10
1.91422284307
20
23.7598248141
10
1.96802391202
20
23.9742775454
10
2.01962712987
20
24.1971298685
10
2.06898873455
20
24.4281179108
10
2.11606496398
20
24.6669777999
10
2.16081205609
20
24.9134456632
10
2.2031862488
20
25.1672576282
10
2.24314378003
20
25.4281498224
10
2.28064088772
20
25.6958583732
10
2.31563380977
20
25.9701194083
10
2.34807878413
20
26.250669055
10
2.37793204871
20
26.5372434408
10
2.40514984143
20
26.8295786933
10
2.42968840022
20
27.1274109399
10
2.45150396301
20
27.4304763082
10
2.47055276772
20
27.7385109255
10
2.48679105226
20
28.0512509194
10
2.50017505458
20
28.3684324174
10
2.51066101259
20
28.689791547
10
2.51820516421
20
29.0150644356
10
2.52276374737
20
29.3439872108
10
2.524293
20
29.676296
10
2.524293
20
32.016596
10
3.142712
20
32.216623
10
3.23350623719
20
32.245704009
10
3.31874887563
20
32.2750549159
10
3.39849061213
20
32.3049456373
10
3.47278214347
20
32.3356460898
10
3.54167416643
20
32.3674261901
10
3.6052173778
20
32.4005558547
10
3.66346247437
20
32.4353050003
10
3.71646015293
20
32.4719435435
10
3.76426111027
20
32.510741401
10
3.80691604317
20
32.5519684892
10
3.84447564842
20
32.595894725
10
3.87699062281
20
32.6427900248
10
3.90451166312
20
32.6929243053
10
3.92708946615
20
32.7465674832
10
3.94477472868
20
32.8039894749
10
3.95761814749
20
32.8654601973
10
3.96567041939
20
32.9312495668
10
3.96898224115
20
33.0016275001
10
3.96760430956
20
33.0768639138
10
3.96158732141
20
33.1572287245
10
3.95098197348
20
33.2429918489
10
3.93583896257
20
33.3344232036
10
3.91620898547
20
33.4317927052
10
3.89214273895
20
33.5353702702
10
3.86369091981
20
33.6454258154
10
3.83090422483
20
33.7622292574
10
3.79383335081
20
33.8860505127
10
3.75252899453
20
34.017159498
10
3.70704185277
20
34.1558261299
10
3.65742262234
20
34.302320325
10
3.603722
20
34.456912
10
3.54388552482
20
34.624898719
10
3.48744345977
20
34.7883552882
10
3.43436852298
20
34.9475596805
10
3.38463343258
20
35.1027898689
10
3.33821090672
20
35.2543238262
10
3.29507366352
20
35.4024395255
10
3.25519442113
20
35.5474149396
10
3.21854589769
20
35.6895280416
10
3.18510081132
20
35.8290568044
10
3.15483188017
20
35.9662792008
10
3.12771182236
20
36.101473204
10
3.10371335605
20
36.2349167867
10
3.08280919936
20
36.366887922
10
3.06497207042
20
36.4976645827
10
3.05017468739
20
36.6275247419
10
3.03838976839
20
36.7567463725
10
3.02959003155
20
36.8856074475
10
3.02374819503
20
37.0143859396
10
3.02083697694
20
37.1433598221
10
3.02082909543
20
37.2728070676
10
3.02369726864
20
37.4030056493
10
3.0294142147
20
37.5342335401
10
3.03795265174
20
37.6667687128
10
3.04928529791
20
37.8008891405
10
3.06338487134
20
37.936872796
10
3.08022409016
20
38.0749976524
10
3.09977567252
20
38.2155416826
10
3.12201233654
20
38.3587828595
10
3.14690680038
20
38.5049991561
10
3.17443178215
20
38.6544685453
10
3.20456
20
38.807469
10
3.23639192162
20
38.9606157079
10
3.26974010554
20
39.1124188612
10
3.30469343839
20
39.2630960039
10
3.34134080682
20
39.4128646802
10
3.37977109748
20
39.5619424343
10
3.42007319701
20
39.7105468103
10
3.46233599204
20
39.8588953524
10
3.50664836924
20
40.0072056047
10
3.55309921523
20
40.1556951115
10
3.60177741667
20
40.3045814168
10
3.65277186019
20
40.4540820649
10
3.70617143245
20
40.6044145998
10
3.76206502007
20
40.7557965658
10
3.82054150972
20
40.9084455069
10
3.88168978802
20
41.0625789674
10
3.94559874163
20
41.2184144915
10
4.01235725719
20
41.3761696231
10
4.08205422134
20
41.5360619066
10
4.15477852073
20
41.6983088861
10
4.23061904199
20
41.8631281058
10
4.30966467178
20
42.0307371097
10
4.39200429673
20
42.2013534421
10
4.4777268035
20
42.3751946471
10
4.56692107872
20
42.5524782688
10
4.65967600903
20
42.7334218515
10
4.75608048108
20
42.9182429393
10
4.85622338152
20
43.1071590763
10
4.96019359699
20
43.3003878068
10
5.06808001413
20
43.4981466747
10
5.17997151959
20
43.7006532244
10
5.295957
20
43.908125
10
5.34668183834
20
43.9963221493
10
5.39832789611
20
44.086557747
10
5.45078774549
20
44.1786223081
10
5.50395395868
20
44.2723063475
10
5.55771910785
20
44.3674003803
10
5.6119757652
20
44.4636949215
10
5.6666165029
20
44.5609804859
10
5.72153389316
20
44.6590475887
10
5.77662050814
20
44.7576867448
10
5.83176892004
20
44.8566884692
10
5.88687170105
20
44.9558432768
10
5.94182142335
20
45.0549416828
10
5.99651065913
20
45.1537742019
10
6.05083198056
20
45.2521313494
10
6.10467795985
20
45.34980364
10
6.15794116918
20
45.4465815889
10
6.21051418073
20
45.542255711
10
6.26228956668
20
45.6366165213
10
6.31315989923
20
45.7294545347
10
6.36301775056
20
45.8205602664
10
6.41175569286
20
45.9097242311
10
6.45926629831
20
45.9967369441
10
6.5054421391
20
46.0813889201
10
6.55017578742
20
46.1634706743
10
6.59335981545
20
46.2427727216
10
6.63488679537
20
46.319085577
10
6.67464929939
20
46.3921997555
10
6.71253989967
20
46.461905772
10
6.74845116841
20
46.5279941417
10
6.78227567779
20
46.5902553793
10
6.813906
20
46.64848
10
6.87552124279
20
46.7615319731
10
6.93435534087
20
46.8664603156
10
6.99042365527
20
46.9632589848
10
7.04374154698
20
47.0519219379
10
7.09432437703
20
47.1324431323
10
7.14218750643
20
47.2048165253
10
7.1873462962
20
47.2690360742
10
7.22981610735
20
47.3250957363
10
7.2696123009
20
47.3729894689
10
7.30675023786
20
47.4127112292
10
7.34124527925
20
47.4442549747
10
7.37311278608
20
47.4676146625
10
7.40236811936
20
47.4827842501
10
7.42902664013
20
47.4897576947
10
7.45310370938
20
47.4885289535
10
7.47461468813
20
47.479091984
10
7.4935749374
20
47.4614407434
10
7.5099998182
20
47.435569189
10
7.52390469155
20
47.4014712781
10
7.53530491847
20
47.3591409681
10
7.54421585996
20
47.3085722161
10
7.55065287704
20
47.2497589796
10
7.55463133074
20
47.1826952158
10
7.55616658205
20
47.1073748821
10
7.55527399201
20
47.0237919357
10
7.55196892162
20
46.9319403339
10
7.5462667319
20
46.831814034
10
7.53818278386
20
46.7234069934
10
7.52773243852
20
46.6067131693
10
7.5149310569
20
46.4817265191
10
7.499794
20
46.348441
10
7.48645206596
20
46.2430115452
10
7.47117584922
20
46.1373665767
10
7.45376092139
20
46.03097835
10
7.43400285408
20
45.9233191205
10
7.41169721893
20
45.8138611435
10
7.38663958753
20
45.7020766744
10
7.3586255315
20
45.5874379686
10
7.32745062247
20
45.4694172814
10
7.29291043204
20
45.3474868683
10
7.25480053184
20
45.2211189846
10
7.21291649347
20
45.0897858857
10
7.16705388856
20
44.952959827
10
7.11700828871
20
44.8101130639
10
7.06257526555
20
44.6607178517
10
7.00355039069
20
44.5042464458
10
6.93972923574
20
44.3401711016
10
6.87090737233
20
44.1679640745
10
6.79688037206
20
43.9870976198
10
6.71744380655
20
43.797043993
10
6.63239324742
20
43.5972754493
10
6.54152426629
20
43.3872642443
10
6.44463243476
20
43.1664826332
10
6.34151332446
20
42.9344028715
10
6.231962507
20
42.6904972146
10
6.11577555399
20
42.4342379177
10
5.99274803706
20
42.1650972363
10
5.86267552781
20
41.8825474258
10
5.72535359787
20
41.5860607415
10
5.58057781884
20
41.2751094389
10
5.42814376234
20
40.9491657733
10
5.267847
20
40.607702
10
3.856716
20
37.597314
10
4.27275
20
37.09725
10
4.36220554288
20
36.9826033866
10
4.45575473848
20
36.8671993841
10
4.55318640495
20
36.7512172653
10
4.65428936048
20
36.6348363028
10
4.75885242322
20
36.5182357695
10
4.86666441133
20
36.4015949381
10
4.977514143
20
36.2850930812
10
5.09119043637
20
36.1689094717
10
5.20748210963
20
36.0532233822
10
5.32617798093
20
35.9382140855
10
5.44706686845
20
35.8240608543
10
5.56993759035
20
35.7109429614
10
5.69457896479
20
35.5990396794
10
5.82077980994
20
35.4885302812
10
5.94832894398
20
35.3795940395
10
6.07701518506
20
35.2724102269
10
6.20662735135
20
35.1671581163
10
6.33695426102
20
35.0640169803
10
6.46778473223
20
34.9631660917
10
6.59890758316
20
34.8647847232
10
6.73011163197
20
34.7690521476
10
6.86118569682
20
34.6761476376
10
6.99191859588
20
34.5862504659
10
7.12209914733
20
34.4995399053
10
7.25151616931
20
34.4161952284
10
7.37995848001
20
34.3363957081
10
7.50721489759
20
34.260320617
10
7.63307424021
20
34.188149228
10
7.75732532604
20
34.1200608136
10
7.87975697325
20
34.0562346467
10
8.000158
20
33.99685
10
8.517385
20
33.796825
10
8.416192
20
30.926456
10
8.40954619684
20
30.746686388
10
8.40262662985
20
30.5713099368
10
8.39543615958
20
30.4003488037
10
8.38797764654
20
30.2338251465
10
8.38025395126
20
30.0717611227
10
8.37226793428
20
29.9141788898
10
8.36402245611
20
29.7611006054
10
8.3555203773
20
29.6125484271
10
8.34676455836
20
29.4685445124
10
8.33775785982
20
29.329111019
10
8.32850314222
20
29.1942701043
10
8.31900326609
20
29.0640439259
10
8.30926109194
20
28.9384546414
10
8.29927948031
20
28.8175244084
10
8.28906129173
20
28.7012753844
10
8.27860938673
20
28.589729727
10
8.26792662583
20
28.4829095937
10
8.25701586956
20
28.3808371422
10
8.24587997845
20
28.2835345299
10
8.23452181303
20
28.1910239145
10
8.22294423383
20
28.1033274535
10
8.21115010137
20
28.0204673044
10
8.19914227619
20
27.9424656249
10
8.18692361881
20
27.8693445725
10
8.17449698976
20
27.8011263048
10
8.16186524957
20
27.7378329793
10
8.14903125877
20
27.6794867536
10
8.13599787788
20
27.6261097852
10
8.12276796744
20
27.5777242318
10
8.10934438797
20
27.5343522509
10
8.09573
20
27.496016
10
8.0749921489
20
27.4391954042
10
8.05219226511
20
27.365905985
10
8.02742653029
20
27.2767258431
10
8.00079112611
20
27.172233079
10
7.97238223423
20
27.0530057934
10
7.94229603632
20
26.9196220869
10
7.91062871404
20
26.7726600603
10
7.87747644906
20
26.612697814
10
7.84293542305
20
26.4403134487
10
7.80710181766
20
26.2560850652
10
7.77007181457
20
26.0605907639
10
7.73194159545
20
25.8544086456
10
7.69280734195
20
25.6381168108
10
7.65276523574
20
25.4122933603
10
7.61191145849
20
25.1775163946
10
7.57034219187
20
24.9343640144
10
7.52815361754
20
24.6834143203
10
7.48544191716
20
24.4252454129
10
7.4423032724
20
24.1604353929
10
7.39883386493
20
23.889562361
10
7.35512987641
20
23.6132044177
10
7.3112874885
20
23.3319396637
10
7.26740288288
20
23.0463461996
10
7.22357224121
20
22.757002126
10
7.17989174516
20
22.4644855437
10
7.13645757638
20
22.1693745531
10
7.09336591655
20
21.872247255
10
7.05071294733
20
21.5736817501
10
7.00859485039
20
21.2742561388
10
6.96710780739
20
20.9745485219
10
6.926348
20
20.675137
10
6.91651385462
20
20.593638475
10
6.90677681615
20
20.5042096885
10
6.89715088433
20
20.4071628556
10
6.88765005888
20
20.3028101914
10
6.87828833953
20
20.191463911
10
6.86907972602
20
20.0734362295
10
6.86003821809
20
19.949039362
10
6.85117781545
20
19.8185855236
10
6.84251251784
20
19.6823869295
10
6.834056325
20
19.5407557946
10
6.82582323665
20
19.3940043341
10
6.81782725253
20
19.2424447631
10
6.81008237236
20
19.0863892968
10
6.80260259588
20
18.9261501501
10
6.79540192283
20
18.7620395382
10
6.78849435293
20
18.5943696762
10
6.78189388591
20
18.4234527792
10
6.7756145215
20
18.2496010622
10
6.76967025944
20
18.0731267405
10
6.76407509946
20
17.894342029
10
6.75884304129
20
17.713559143
10
6.75398808466
20
17.5310902974
10
6.7495242293
20
17.3472477074
10
6.74546547494
20
17.162343588
10
6.74182582132
20
16.9766901545
10
6.73861926817
20
16.7905996218
10
6.73585981521
20
16.6043842051
10
6.73356146219
20
16.4183561195
10
6.73173820882
20
16.23282758
10
6.73040405485
20
16.0481108018
10
6.729573
20
15.864518
10
6.72878952053
20
15.5676208088
10
6.72839341395
20
15.286012075
10
6.7284588232
20
15.0186826389
10
6.72905989121
20
14.7646233408
10
6.7302707609
20
14.5228250211
10
6.73216557521
20
14.29227852
10
6.73481847706
20
14.071974678
10
6.73830360938
20
13.8609043352
10
6.7426951151
20
13.6580583321
10
6.74806713716
20
13.4624275089
10
6.75449381847
20
13.273002706
10
6.76204930197
20
13.0887747637
10
6.77080773059
20
12.9087345223
10
6.78084324726
20
12.7318728222
10
6.7922299949
20
12.5571805036
10
6.80504211644
20
12.3836484069
10
6.81935375483
20
12.2102673724
10
6.83523905297
20
12.0360282404
10
6.8527721538
20
11.8599218513
10
6.87202720026
20
11.6809390453
10
6.89307833527
20
11.4980706628
10
6.91599970176
20
11.3103075441
10
6.94086544265
20
11.1166405295
10
6.96774970088
20
10.9160604594
10
6.99672661938
20
10.707558174
10
7.02787034108
20
10.4901245138
10
7.0612550089
20
10.2627503189
10
7.09695476577
20
10.0244264298
10
7.13504375462
20
9.77414368672
10
7.17559611839
20
9.51089293001
10
7.218686
20
9.233665
10
7.30857907388
20
8.66292862368
10
7.39569368574
20
8.12480562106
10
7.4808254693
20
7.61794037521
10
7.56477005827
20
7.14097726921
10
7.64832308637
20
6.69256068611
10
7.7322801873
20
6.271335009
10
7.8174369948
20
5.87594462093
10
7.90458914256
20
5.50503390497
10
7.99453226431
20
5.1572472442
10
8.08806199376
20
4.83122902168
10
8.18597396462
20
4.52562362049
10
8.28906381061
20
4.23907542369
10
8.39812716545
20
3.97022881434
10
8.51395966285
20
3.71772817552
10
8.63735693652
20
3.4802178903
10
8.76911462019
20
3.25634234175
10
8.91002834755
20
3.04474591293
10
9.06089375234
20
2.84407298691
10
9.22250646826
20
2.65296794676
10
9.39566212903
20
2.47007517556
10
9.58115636837
20
2.29403905636
10
9.77978481998
20
2.12350397224
10
9.99234311759
20
1.95711430627
10
10.2196268949
20
1.79351444151
10
10.4624317856
20
1.63134876104
10
10.7215534235
20
1.46926164791
10
10.9977874422
20
1.30589748521
10
11.2919294755
20
1.139900656
10
11.6047751571
20
0.969915543352
10
11.9371201207
20
0.794586530328
10
12.28976
20
0.612558
10
12.3722622398
20
0.57476977745
10
12.4514934148
20
0.538794436038
10
12.5277694986
20
0.504571545769
10
12.601406465
20
0.472040676647
10
12.6727202877
20
0.441141398677
10
12.7420269402
20
0.411813281864
10
12.8096423964
20
0.38399589621
10
12.8758826298
20
0.357628811722
10
12.9410636142
20
0.332651598402
10
13.0055013232
20
0.309003826256
10
13.0695117306
20
0.286625065288
10
13.13341081
20
0.265454885502
10
13.1975145351
20
0.245432856903
10
13.2621388795
20
0.226498549495
10
13.3275998171
20
0.208591533282
10
13.3942133213
20
0.191651378269
10
13.4622953661
20
0.175617654459
10
13.5321619249
20
0.160429931859
10
13.6041289715
20
0.146027780471
10
13.6785124796
20
0.1323507703
10
13.7556284229
20
0.11933847135
10
13.835792775
20
0.106930453627
10
13.9193215097
20
0.0950662871337
10
14.0065306005
20
0.0836855418751
10
14.0977360213
20
0.0727277878554
10
14.1932537456
20
0.0621325950791
10
14.2933997472
20
0.0518395335504
10
14.3984899998
20
0.0417881732738
10
14.508840477
20
0.0319180842536
10
14.6247671525
20
0.0221688364942
10
14.746586
20
0.01248
10
14.9118922887
20
0.00613497522742
10
15.0734181741
20
0.0020143283542
10
15.2312376694
20
0.000131958611661
10
15.3854247876
20
0.00050176523111
10
15.5360535415
20
0.00313764744386
10
15.6831979444
20
0.00805350448122
10
15.8269320092
20
0.0152632355745
10
15.9673297489
20
0.024780739955
10
16.1044651766
20
0.0366199168541
10
16.2384123053
20
0.050794665503
10
16.3692451479
20
0.0673188851331
10
16.4970377176
20
0.0862064749757
10
16.6218640274
20
0.107471334262
10
16.7437980902
20
0.131127362223
10
16.8629139192
20
0.157188458091
10
16.9792855272
20
0.185668521097
10
17.0929869275
20
0.216581450472
10
17.2040921329
20
0.249941145447
10
17.3126751565
20
0.285761505253
10
17.4188100113
20
0.324056429123
10
17.5225707103
20
0.364839816287
10
17.6240312667
20
0.408125565976
10
17.7232656933
20
0.453927577423
10
17.8203480033
20
0.502259749857
10
17.9153522096
20
0.553135982511
10
18.0083523253
20
0.606570174616
10
18.0994223633
20
0.662576225404
10
18.1886363368
20
0.721168034104
10
18.2760682587
20
0.78235949995
10
18.3617921421
20
0.846164522171
10
18.445882
20
0.912597
10
18.4778690483
20
0.941317456648
10
18.5109711125
20
0.969393333725
10
18.5451211524
20
0.996804488705
10
18.5802521278
20
1.02353077906
10
18.6162969983
20
1.04955206227
10
18.6531887238
20
1.0748481958
10
18.6908602641
20
1.09939903713
10
18.7292445788
20
1.12318444372
10
18.7682746277
20
1.14618427307
10
18.8078833705
20
1.16837838263
10
18.8480037671
20
1.18974662989
10
18.8885687772
20
1.21026887231
10
18.9295113605
20
1.22992496737
10
18.9707644768
20
1.24869477255
10
19.0122610858
20
1.26655814531
10
19.0539341473
20
1.28349494314
10
19.095716621
20
1.2994850235
10
19.1375414668
20
1.31450824387
10
19.1793416442
20
1.32854446172
10
19.2210501132
20
1.34157353452
10
19.2625998334
20
1.35357531976
10
19.3039237646
20
1.3645296749
10
19.3449548666
20
1.37441645742
10
19.3856260991
20
1.38321552479
10
19.4258704218
20
1.39090673448
10
19.4656207946
20
1.39746994398
10
19.5048101771
20
1.40288501074
10
19.5433715292
20
1.40713179225
10
19.5812378105
20
1.41019014598
10
19.6183419809
20
1.41203992941
10
19.654617
20
1.412661
10
19.869376378
20
1.44375688533
10
20.0793300321
20
1.47884509828
10
20.28420192
20
1.51773428072
10
20.4837159994
20
1.56023307452
10
20.6775962281
20
1.60615012155
10
20.8655665638
20
1.65529406368
10
21.047350964
20
1.70747354278
10
21.2226733867
20
1.76249720073
10
21.3912577894
20
1.8201736794
10
21.5528281299
20
1.88031162066
10
21.7071083658
20
1.94271966638
10
21.8538224549
20
2.00720645843
10
21.9926943549
20
2.07358063868
10
22.1234480235
20
2.14165084901
10
22.2458074184
20
2.21122573129
10
22.3594964973
20
2.28211392739
10
22.4642392179
20
2.35412407918
10
22.5597595379
20
2.42706482854
10
22.645781415
20
2.50074481733
10
22.7220288069
20
2.57497268742
10
22.7882256714
20
2.6495570807
10
22.8440959661
20
2.72430663902
10
22.8893636487
20
2.79903000426
10
22.9237526769
20
2.8735358183
10
22.9469870086
20
2.947632723
10
22.9587906012
20
3.02112936024
10
22.9588874126
20
3.09383437189
10
22.9470014005
20
3.16555639982
10
22.9228565226
20
3.2361040859
10
22.8861767365
20
3.305286072
10
22.836686
20
3.372911
10
22.8284008969
20
3.38351634883
10
22.8200980432
20
3.39593456067
10
22.8117913801
20
3.41010520614
10
22.803494849
20
3.42596785583
10
22.7952223912
20
3.44346208036
10
22.786987948
20
3.46252745034
10
22.7788054608
20
3.48310353637
10
22.7706888709
20
3.50512990907
10
22.7626521196
20
3.52854613904
10
22.7547091483
20
3.55329179688
10
22.7468738982
20
3.57930645322
10
22.7391603106
20
3.60652967866
10
22.731582327
20
3.63490104381
10
22.7241538886
20
3.66436011926
10
22.7168889368
20
3.69484647565
10
22.7098014128
20
3.72629968356
10
22.7029052581
20
3.75865931362
10
22.6962144139
20
3.79186493642
10
22.6897428215
20
3.82585612259
10
22.6835044223
20
3.86057244272
10
22.6775131577
20
3.89595346742
10
22.6717829688
20
3.93193876731
10
22.6663277971
20
3.96846791299
10
22.6611615839
20
4.00548047508
10
22.6562982705
20
4.04291602417
10
22.6517517982
20
4.08071413088
10
22.6475361084
20
4.11881436582
10
22.6436651423
20
4.15715629959
10
22.6401528413
20
4.1956795028
10
22.6370131468
20
4.23432354607
10
22.63426
20
4.273028
10
22.6299306093
20
4.3389351439
10
22.625432766
20
4.40127499305
10
22.6206586732
20
4.46022681877
10
22.6155005339
20
4.51596989238
10
22.609850551
20
4.56868348521
10
22.6036009277
20
4.61854686858
10
22.5966438668
20
4.66573931382
10
22.5888715715
20
4.71044009224
10
22.5801762448
20
4.75282847518
10
22.5704500896
20
4.79308373395
10
22.559585309
20
4.83138513987
10
22.547474106
20
4.86791196428
10
22.5340086836
20
4.9028434785
10
22.5190812448
20
4.93635895385
10
22.5025839926
20
4.96863766164
10
22.4844091301
20
4.99985887322
10
22.4644488603
20
5.03020185989
10
22.4425953861
20
5.05984589299
10
22.4187409106
20
5.08897024383
10
22.3927776369
20
5.11775418375
10
22.3645977678
20
5.14637698406
10
22.3340935065
20
5.17501791608
10
22.3011570559
20
5.20385625115
10
22.2656806191
20
5.23307126058
10
22.2275563991
20
5.2628422157
10
22.1866765988
20
5.29334838784
10
22.1429334214
20
5.3247690483
10
22.0962190698
20
5.35728346843
10
22.046425747
20
5.39107091954
10
21.9934456561
20
5.42631067295
10
21.937171
20
5.463182
10
21.8679504672
20
5.51097292612
10
21.8028215031
20
5.55764794589
10
21.7417619305
20
5.60334000208
10
21.6847495722
20
5.64818203746
10
21.6317622507
20
5.6923069948
10
21.5827777888
20
5.73584781686
10
21.5377740092
20
5.77893744641
10
21.4967287346
20
5.82170882622
10
21.4596197877
20
5.86429489906
10
21.4264249911
20
5.9068286077
10
21.3971221677
20
5.9494428949
10
21.37168914
20
5.99227070343
10
21.3501037308
20
6.03544497607
10
21.3323437627
20
6.07909865557
10
21.3183870585
20
6.1233646847
10
21.3082114409
20
6.16837600624
10
21.3017947326
20
6.21426556296
10
21.2991147562
20
6.26116629761
10
21.3001493345
20
6.30921115297
10
21.3048762902
20
6.3585330718
10
21.3132734459
20
6.40926499688
10
21.3253186244
20
6.46153987097
10
21.3409896483
20
6.51549063684
10
21.3602643404
20
6.57125023725
10
21.3831205233
20
6.62895161498
10
21.4095360198
20
6.6887277128
10
21.4394886526
20
6.75071147347
10
21.4729562443
20
6.81503583975
10
21.5099166176
20
6.88183375442
10
21.5503475953
20
6.95123816025
10
21.594227
20
7.023382
10
21.6315559719
20
7.08100890111
10
21.6662839342
20
7.13783813293
10
21.6984050053
20
7.19400868172
10
21.7279133038
20
7.24965953375
10
21.7548029479
20
7.3049296753
10
21.7790680562
20
7.35995809265
10
21.8007027471
20
7.41488377205
10
21.8197011389
20
7.46984569978
10
21.8360573501
20
7.52498286211
10
21.8497654992
20
7.58043424531
10
21.8608197045
20
7.63633883566
10
21.8692140846
20
7.69283561942
10
21.8749427577
20
7.75006358286
10
21.8779998423
20
7.80816171226
10
21.878379457
20
7.86726899389
10
21.8760757199
20
7.92752441402
10
21.8710827498
20
7.98906695891
10
21.8633946648
20
8.05203561485
10
21.8530055835
20
8.1165693681
10
21.8399096243
20
8.18280720493
10
21.8241009056
20
8.25088811161
10
21.8055735458
20
8.32095107442
10
21.7843216634
20
8.39313507962
10
21.7603393768
20
8.46757911349
10
21.7336208043
20
8.5444221623
10
21.7041600645
20
8.62380321231
10
21.6719512758
20
8.70586124981
10
21.6369885566
20
8.79073526105
10
21.5992660252
20
8.87856423232
10
21.5587778002
20
8.96948714988
10
21.515518
20
9.063643
10
21.4638511306
20
9.17714325279
10
21.4118094299
20
9.29663602548
10
21.3595340977
20
9.42161975885
10
21.3071663341
20
9.55159289373
10
21.2548473387
20
9.6860538709
10
21.2027183116
20
9.82450113118
10
21.1509204527
20
9.96643311537
10
21.0995949618
20
10.1113482643
10
21.0488830388
20
10.2587450187
10
20.9989258836
20
10.4081218194
10
20.9498646961
20
10.5589771073
10
20.9018406762
20
10.7108093231
10
20.8549950239
20
10.8631169077
10
20.8094689389
20
11.0153983017
10
20.7654036212
20
11.1671519462
10
20.7229402706
20
11.3178762817
10
20.6822200871
20
11.4670697493
10
20.6433842706
20
11.6142307895
10
20.6065740209
20
11.7588578434
10
20.571930538
20
11.9004493516
10
20.5395950217
20
12.038503755
10
20.5097086719
20
12.1725194943
10
20.4824126886
20
12.3019950104
10
20.4578482716
20
12.4264287442
10
20.4361566207
20
12.5453191362
10
20.417478936
20
12.6581646275
10
20.4019564172
20
12.7644636588
10
20.3897302644
20
12.8637146709
10
20.3809416773
20
12.9554161046
10
20.3757318559
20
13.0390664007
10
20.374242
20
13.114164
10
20.3749836911
20
13.1445204015
10
20.3768076561
20
13.1774289126
10
20.3796856194
20
13.2127565895
10
20.3835893053
20
13.2503704888
10
20.3884904383
20
13.2901376669
10
20.3943607428
20
13.3319251802
10
20.4011719432
20
13.3756000851
10
20.4088957639
20
13.421029438
10
20.4175039293
20
13.4680802955
10
20.4269681639
20
13.5166197138
10
20.4372601921
20
13.5665147495
10
20.4483517382
20
13.6176324589
10
20.4602145268
20
13.6698398986
10
20.4728202821
20
13.7230041248
10
20.4861407286
20
13.7769921941
10
20.5001475908
20
13.8316711628
10
20.514812593
20
13.8869080875
10
20.5301074597
20
13.9425700244
10
20.5460039152
20
13.9985240301
10
20.5624736841
20
14.054637161
10
20.5794884906
20
14.1107764735
10
20.5970200592
20
14.166809024
10
20.6150401144
20
14.222601869
10
20.6335203805
20
14.2780220648
10
20.6524325819
20
14.3329366679
10
20.6717484431
20
14.3872127348
10
20.6914396885
20
14.4407173218
10
20.7114780424
20
14.4933174854
10
20.7318352294
20
14.544880282
10
20.7524829738
20
14.5952727681
10
20.773393
20
14.644362
10
20.7949814772
20
14.6940732159
10
20.8176411921
20
14.7463224476
10
20.8413087957
20
14.8009626513
10
20.8659209388
20
14.8578467836
10
20.8914142722
20
14.9168278007
10
20.9177254468
20
14.9777586592
10
20.9447911136
20
15.0404923153
10
20.9725479233
20
15.1048817256
10
21.0009325268
20
15.1707798463
10
21.0298815751
20
15.2380396338
10
21.0593317189
20
15.3065140447
10
21.0892196091
20
15.3760560352
10
21.1194818966
20
15.4465185618
10
21.1500552324
20
15.5177545809
10
21.1808762671
20
15.5896170488
10
21.2118816517
20
15.661958922
10
21.2430080372
20
15.7346331569
10
21.2741920742
20
15.8074927097
10
21.3053704138
20
15.8803905371
10
21.3364797067
20
15.9531795952
10
21.3674566039
20
16.0257128407
10
21.3982377562
20
16.0978432297
10
21.4287598145
20
16.1694237188
10
21.4589594296
20
16.2403072643
10
21.4887732524
20
16.3103468226
10
21.5181379338
20
16.3793953501
10
21.5469901247
20
16.4473058033
10
21.5752664759
20
16.5139311385
10
21.6029036382
20
16.579124312
10
21.6298382627
20
16.6427382804
10
21.656007
20
16.704626
10
21.6821724346
20
16.7633611038
10
21.7090788888
20
16.8233269427
10
21.7366643626
20
16.8843805016
10
21.7648668557
20
16.9463787653
10
21.793624368
20
17.0091787188
10
21.8228748994
20
17.0726373468
10
21.8525564498
20
17.1366116342
10
21.8826070191
20
17.2009585659
10
21.912964607
20
17.2655351268
10
21.9435672135
20
17.3301983017
10
21.9743528384
20
17.3948050755
10
22.0052594816
20
17.4592124329
10
22.036225143
20
17.523277359
10
22.0671878224
20
17.5868568386
10
22.0980855197
20
17.6498078564
10
22.1288562347
20
17.7119873975
10
22.1594379674
20
17.7732524465
10
22.1897687176
20
17.8334599885
10
22.2197864851
20
17.8924670083
10
22.2494292698
20
17.9501304906
10
22.2786350716
20
18.0063074205
10
22.3073418904
20
18.0608547827
10
22.335487726
20
18.113629562
10
22.3630105783
20
18.1644887435
10
22.3898484471
20
18.2132893119
10
22.4159393323
20
18.2598882521
10
22.4412212338
20
18.3041425489
10
22.4656321515
20
18.3459091873
10
22.4891100852
20
18.385045152
10
22.5115930347
20
18.4214074279
10
22.533019
20
18.454853
10
22.5909874681
20
18.5475936276
10
22.6552533319
20
18.6511509948
10
22.7254107321
20
18.7648523283
10
22.8010538093
20
18.8880248546
10
22.8817767043
20
19.0199958003
10
22.9671735579
20
19.1600923922
10
23.0568385107
20
19.3076418567
10
23.1503657034
20
19.4619714205
10
23.2473492767
20
19.6224083102
10
23.3473833715
20
19.7882797524
10
23.4500621283
20
19.9589129737
10
23.5549796879
20
20.1336352008
10
23.661730191
20
20.3117736602
10
23.7699077783
20
20.4926555786
10
23.8791065905
20
20.6756081826
10
23.9889207685
20
20.8599586988
10
24.0989444527
20
21.0450343537
10
24.2087717841
20
21.2301623741
10
24.3179969032
20
21.4146699865
10
24.4262139508
20
21.5978844175
10
24.5330170677
20
21.7791328938
10
24.6380003944
20
21.957742642
10
24.7407580719
20
22.1330408886
10
24.8408842406
20
22.3043548603
10
24.9379730415
20
22.4710117837
10
25.0316186151
20
22.6323388854
10
25.1214151022
20
22.787663392
10
25.2069566436
20
22.9363125302
10
25.2878373798
20
23.0776135265
10
25.3636514517
20
23.2108936076
10
25.433993
20
23.33548
10
25.4972144401
20
23.4473566249
10
25.5584735549
20
23.5546104624
10
25.617816246
20
23.6573019405
10
25.675288415
20
23.7554914871
10
25.7309359635
20
23.8492395302
10
25.784804793
20
23.9386064979
10
25.8369408052
20
24.023652818
10
25.8873899016
20
24.1044389186
10
25.9361979838
20
24.1810252277
10
25.9834109534
20
24.2534721731
10
26.029074712
20
24.321840183
10
26.0732351611
20
24.3861896853
10
26.1159382023
20
24.446581108
10
26.1572297372
20
24.5030748791
10
26.1971556674
20
24.5557314264
10
26.2357618945
20
24.6046111781
10
26.27309432
20
24.6497745621
10
26.3091988456
20
24.6912820064
10
26.3441213728
20
24.729193939
10
26.3779078031
20
24.7635707878
10
26.4106040383
20
24.7944729809
10
26.4422559798
20
24.8219609461
10
26.4729095292
20
24.8460951116
10
26.5026105881
20
24.8669359052
10
26.5314050582
20
24.884543755
10
26.5593388409
20
24.8989790889
10
26.5864578379
20
24.910302335
10
26.6128079507
20
24.9185739211
10
26.6384350809
20
24.9238542754
10
26.6633851302
20
24.9262038257
10
26.687704
20
24.925683
10
26.7232831728
20
24.9219045831
10
26.7573912719
20
24.9189151718
10
26.7900852007
20
24.9167482023
10
26.8214218627
20
24.9154371111
10
26.8514581613
20
24.9150153344
10
26.880251
20
24.9155163087
10
26.9078572821
20
24.9169734701
10
26.934333911
20
24.9194202551
10
26.9597377903
20
24.9228901001
10
26.9841258234
20
24.9274164413
10
27.0075549136
20
24.9330327151
10
27.0300819644
20
24.9397723579
10
27.0517638792
20
24.9476688059
10
27.0726575614
20
24.9567554955
10
27.0928199145
20
24.9670658631
10
27.112307842
20
24.978633345
10
27.1311782471
20
24.9914913775
10
27.1494880334
20
25.005673397
10
27.1672941043
20
25.0212128399
10
27.1846533632
20
25.0381431423
10
27.2016227136
20
25.0564977408
10
27.2182590588
20
25.0763100716
10
27.2346193023
20
25.0976135711
10
27.2507603475
20
25.1204416756
10
27.2667390978
20
25.1448278214
10
27.2826124568
20
25.170805445
10
27.2984373277
20
25.1984079825
10
27.3142706141
20
25.2276688705
10
27.3301692193
20
25.2586215452
10
27.3461900468
20
25.2912994429
10
27.36239
20
25.325736
10
27.3717639245
20
25.3457042664
10
27.3810317621
20
25.3668408343
10
27.3901798671
20
25.3890651312
10
27.399194594
20
25.4122965847
10
27.408062297
20
25.4364546222
10
27.4167693305
20
25.4614586712
10
27.4253020487
20
25.4872281591
10
27.4336468061
20
25.5136825135
10
27.441789957
20
25.5407411618
10
27.4497178557
20
25.5683235315
10
27.4574168566
20
25.59634905
10
27.4648733139
20
25.6247371449
10
27.472073582
20
25.6534072436
10
27.4790040153
20
25.6822787737
10
27.4856509681
20
25.7112711625
10
27.4920007947
20
25.7403038375
10
27.4980398494
20
25.7692962263
10
27.5037544867
20
25.7981677564
10
27.5091310607
20
25.8268378551
10
27.514155926
20
25.85522595
10
27.5188154367
20
25.8832514685
10
27.5230959472
20
25.9108338382
10
27.526983812
20
25.9378924865
10
27.5304653852
20
25.9643468409
10
27.5335270212
20
25.9901163288
10
27.5361550745
20
26.0151203778
10
27.5383358992
20
26.0392784153
10
27.5400558498
20
26.0625098688
10
27.5413012806
20
26.0847341657
10
27.5420585459
20
26.1058707336
10
27.542314
20
26.125839
10
27.543385756
20
26.1464333727
10
27.5465907246
20
26.1694549743
10
27.5519134566
20
26.1948333042
10
27.5593385027
20
26.2224978619
10
27.5688504137
20
26.2523781469
10
27.5804337403
20
26.2844036585
10
27.5940730334
20
26.3185038963
10
27.6097528437
20
26.3546083596
10
27.6274577219
20
26.392646548
10
27.6471722189
20
26.4325479608
10
27.6688808854
20
26.4742420975
10
27.6925682722
20
26.5176584576
10
27.7182189301
20
26.5627265404
10
27.7458174098
20
26.6093758456
10
27.775348262
20
26.6575358724
10
27.8067960377
20
26.7071361203
10
27.8401452874
20
26.7581060889
10
27.8753805621
20
26.8103752775
10
27.9124864125
20
26.8638731855
10
27.9514473893
20
26.9185293125
10
27.9922480433
20
26.9742731579
10
28.0348729253
20
27.031034221
10
28.0793065861
20
27.0887420015
10
28.1255335764
20
27.1473259986
10
28.173538447
20
27.2067157119
10
28.2233057486
20
27.2668406408
10
28.2748200322
20
27.3276302848
10
28.3280658483
20
27.3890141432
10
28.3830277478
20
27.4509217156
10
28.4396902814
20
27.5132825014
10
28.498038
20
27.576026
10
28.6711674122
20
27.772339316
10
28.8337030227
20
27.9570563784
10
28.9859782473
20
28.1306948586
10
29.1283265018
20
28.2937724281
10
29.261081202
20
28.4468067583
10
29.3845757637
20
28.5903155206
10
29.4991436027
20
28.7248163865
10
29.6051181348
20
28.8508270274
10
29.7028327758
20
28.9688651148
10
29.7926209415
20
29.0794483202
10
29.8748160477
20
29.1830943149
10
29.9497515101
20
29.2803207704
10
30.0177607447
20
29.3716453581
10
30.0791771671
20
29.4575857496
10
30.1343341931
20
29.5386596162
10
30.1835652387
20
29.6153846294
10
30.2272037195
20
29.6882784606
10
30.2655830514
20
29.7578587813
10
30.2990366501
20
29.8246432629
10
30.3278979315
20
29.8891495769
10
30.3525003114
20
29.9518953947
10
30.3731772055
20
30.0133983878
10
30.3902620296
20
30.0741762275
10
30.4040881996
20
30.1347465854
10
30.4149891312
20
30.1956271329
10
30.4232982403
20
30.2573355414
10
30.4293489426
20
30.3203894824
10
30.4334746539
20
30.3853066273
10
30.43600879
20
30.4526046476
10
30.4372847668
20
30.5228012147
10
30.437636
20
30.596414
10
30.4370052522
20
30.6374717501
10
30.4351339304
20
30.6830958741
10
30.4320534167
20
30.7331071015
10
30.4277950934
20
30.7873261621
10
30.4223903428
20
30.8455737855
10
30.4158705469
20
30.9076707015
10
30.4082670882
20
30.9734376397
10
30.3996113488
20
31.0426953298
10
30.3899347109
20
31.1152645015
10
30.3792685568
20
31.1909658845
10
30.3676442687
20
31.2696202084
10
30.3550932288
20
31.3510482029
10
30.3416468194
20
31.4350705978
10
30.3273364227
20
31.5215081227
10
30.3121934209
20
31.6101815073
10
30.2962491962
20
31.7009114813
10
30.2795351309
20
31.7935187743
10
30.2620826072
20
31.887824116
10
30.2439230074
20
31.9836482362
10
30.2250877136
20
32.0808118645
10
30.2056081081
20
32.1791357305
10
30.1855155732
20
32.2784405641
10
30.164841491
20
32.3785470948
10
30.1436172437
20
32.4792760523
10
30.1218742137
20
32.5804481664
10
30.0996437832
20
32.6818841666
10
30.0769573343
20
32.7834047828
10
30.0538462493
20
32.8848307445
10
30.0303419104
20
32.9859827815
10
30.0064756999
20
33.0866816234
10
29.982279
20
33.186748
10
29.9252925017
20
33.4203281727
10
29.8721911197
20
33.6394940788
10
29.8230197331
20
33.8448802197
10
29.7778232209
20
34.0371210967
10
29.7366464622
20
34.2168512112
10
29.699534336
20
34.3847050645
10
29.6665317214
20
34.5413171581
10
29.6376834975
20
34.6873219932
10
29.6130345433
20
34.8233540713
10
29.5926297378
20
34.9500478936
10
29.5765139602
20
35.0680379616
10
29.5647320895
20
35.1779587765
10
29.5573290047
20
35.2804448399
10
29.5543495849
20
35.3761306529
10
29.5558387091
20
35.4656507171
10
29.5618412565
20
35.5496395337
10
29.5724021061
20
35.6287316041
10
29.5875661369
20
35.7035614296
10
29.6073782279
20
35.7747635117
10
29.6318832583
20
35.8429723516
10
29.6611261071
20
35.9088224508
10
29.6951516534
20
35.9729483106
10
29.7340047762
20
36.0359844324
10
29.7777303546
20
36.0985653174
10
29.8263732676
20
36.1613254672
10
29.8799783942
20
36.224899383
10
29.9385906137
20
36.2899215661
10
30.0022548049
20
36.3570265181
10
30.071015847
20
36.4268487401
10
30.144918619
20
36.5000227336
10
30.224008
20
36.577183
10
30.3285057764
20
36.6791126905
10
30.4260326962
20
36.7743730883
10
30.5166054677
20
36.8636631504
10
30.6002407994
20
36.9476818337
10
30.6769553997
20
37.0271280953
10
30.746765977
20
37.1027008922
10
30.8096892396
20
37.1750991813
10
30.865741896
20
37.2450219197
10
30.9149406546
20
37.3131680643
10
30.9573022238
20
37.3802365722
10
30.9928433119
20
37.4469264004
10
31.0215806274
20
37.5139365058
10
31.0435308788
20
37.5819658455
10
31.0587107743
20
37.6517133765
10
31.0671370224
20
37.7238780557
10
31.0688263314
20
37.7991588402
10
31.0637954099
20
37.878254687
10
31.0520609662
20
37.961864553
10
31.0336397087
20
38.0506873953
10
31.0085483457
20
38.1454221709
10
30.9768035858
20
38.2467678367
10
30.9384221373
20
38.3554233498
10
30.8934207086
20
38.4720876672
10
30.8418160081
20
38.5974597459
10
30.7836247442
20
38.7322385428
10
30.7188636253
20
38.877123015
10
30.6475493598
20
39.0328121194
10
30.5696986561
20
39.2000048132
10
30.4853282227
20
39.3794000532
10
30.3944547678
20
39.5716967964
10
30.297095
20
39.777594
10
30.2061008802
20
39.9726214517
10
30.1200332463
20
40.1590136241
10
30.0388636708
20
40.3368772754
10
29.962563726
20
40.5063191636
10
29.8911049842
20
40.6674460469
10
29.8244590179
20
40.8203646836
10
29.7625973992
20
40.9651818316
10
29.7054917007
20
41.1020042493
10
29.6531134947
20
41.2309386946
10
29.6054343535
20
41.3520919259
10
29.5624258495
20
41.4655707012
10
29.5240595549
20
41.5714817786
10
29.4903070423
20
41.6699319164
10
29.4611398839
20
41.7610278726
10
29.4365296521
20
41.8448764054
10
29.4164479192
20
41.921584273
10
29.4008662576
20
41.9912582336
10
29.3897562397
20
42.0540050451
10
29.3830894378
20
42.1099314659
10
29.3808374242
20
42.1591442541
10
29.3829717714
20
42.2017501678
10
29.3894640516
20
42.2378559651
10
29.4002858372
20
42.2675684042
10
29.4154087006
20
42.2909942433
10
29.4348042142
20
42.3082402405
10
29.4584439502
20
42.3194131539
10
29.4862994811
20
42.3246197417
10
29.5183423791
20
42.3239667621
10
29.5545442167
20
42.3175609732
10
29.5948765662
20
42.3055091331
10
29.639311
20
42.287918
10
29.7021362492
20
42.2598208632
10
29.7654006065
20
42.2336105145
10
29.8290043414
20
42.2093004493
10
29.8928477232
20
42.1869041635
10
29.9568310213
20
42.1664351525
10
30.0208545052
20
42.147906912
10
30.0848184443
20
42.1313329377
10
30.148623108
20
42.1167267251
10
30.2121687656
20
42.1041017698
10
30.2753556867
20
42.0934715675
10
30.3380841405
20
42.0848496138
10
30.4002543966
20
42.0782494044
10
30.4617667243
20
42.0736844348
10
30.5225213931
20
42.0711682006
10
30.5824186723
20
42.0707141975
10
30.6413588314
20
42.0723359211
10
30.6992421397
20
42.076046867
10
30.7559688667
20
42.0818605309
10
30.8114392819
20
42.0897904083
10
30.8655536545
20
42.0998499949
10
30.918212254
20
42.1120527863
10
30.9693153499
20
42.1264122781
10
31.0187632115
20
42.1429419659
10
31.0664561083
20
42.1616553454
10
31.1122943096
20
42.1825659121
10
31.1561780848
20
42.2056871618
10
31.1980077035
20
42.2310325899
10
31.2376834349
20
42.2586156922
10
31.2751055485
20
42.2884499642
10
31.3101743138
20
42.3205489016
10
31.34279
20
42.354926
10
31.4044040197
20
42.4228380361
10
31.4598678208
20
42.4912194188
10
31.5091037899
20
42.5602897048
10
31.5520343142
20
42.6302684509
10
31.5885817804
20
42.701375214
10
31.6186685755
20
42.7738295508
10
31.6422170863
20
42.8478510181
10
31.6591496998
20
42.9236591726
10
31.6693888028
20
43.0014735711
10
31.6728567822
20
43.0815137705
10
31.669476025
20
43.1639993274
10
31.6591689181
20
43.2491497987
10
31.6418578482
20
43.3371847412
10
31.6174652024
20
43.4283237116
10
31.5859133675
20
43.5227862667
10
31.5471247304
20
43.6207919633
10
31.501021678
20
43.7225603581
10
31.4475265972
20
43.828311008
10
31.3865618749
20
43.9382634697
10
31.318049898
20
44.0526373001
10
31.2419130533
20
44.1716520558
10
31.1580737279
20
44.2955272936
10
31.0664543085
20
44.4244825704
10
30.9669771822
20
44.5587374429
10
30.8595647357
20
44.6985114679
10
30.7441393559
20
44.8440242022
10
30.6206234298
20
44.9954952025
10
30.4889393443
20
45.1531440257
10
30.3490094862
20
45.3171902285
10
30.2007562425
20
45.4878533677
10
30.044102
20
45.665353
10
29.9516174343
20
45.7692014542
10
29.8642178305
20
45.8679638217
10
29.7817635863
20
45.9618616745
10
29.7041150997
20
46.0511165847
10
29.6311327684
20
46.1359501243
10
29.5626769902
20
46.2165838653
10
29.4986081631
20
46.2932393797
10
29.4387866849
20
46.3661382396
10
29.3830729534
20
46.4355020169
10
29.3313273664
20
46.5015522837
10
29.2834103218
20
46.564510612
10
29.2391822174
20
46.6245985738
10
29.198503451
20
46.6820377411
10
29.1612344206
20
46.737049686
10
29.1272355239
20
46.7898559804
10
29.0963671587
20
46.8406781965
10
29.068489723
20
46.8897379061
10
29.0434636145
20
46.9372566814
10
29.0211492311
20
46.9834560943
10
29.0014069706
20
47.0285577169
10
28.9840972309
20
47.0727831211
10
28.9690804098
20
47.1163538791
10
28.9562169051
20
47.1594915627
10
28.9453671147
20
47.2024177441
10
28.9363914364
20
47.2453539953
10
28.9291502681
20
47.2885218882
10
28.9235040075
20
47.3321429949
10
28.9193130526
20
47.3764388874
10
28.9164378011
20
47.4216311378
10
28.914738651
20
47.4679413179
10
28.914076
20
47.515591
10
28.9126377802
20
47.5862699952
10
28.9089314531
20
47.6625305971
10
28.9030502266
20
47.7439598757
10
28.8950873087
20
47.8301449008
10
28.8851359072
20
47.9206727423
10
28.8732892302
20
48.01513047
10
28.8596404855
20
48.1131051537
10
28.8442828813
20
48.2141838633
10
28.8273096253
20
48.3179536688
10
28.8088139255
20
48.4240016398
10
28.78888899
20
48.5319148463
10
28.7676280266
20
48.6412803581
10
28.7451242433
20
48.7516852451
10
28.721470848
20
48.8627165772
10
28.6967610487
20
48.9739614241
10
28.6710880533
20
49.0850068558
10
28.6445450698
20
49.1954399421
10
28.6172253062
20
49.3048477528
10
28.5892219703
20
49.4128173578
10
28.5606282701
20
49.518935827
10
28.5315374137
20
49.6227902301
10
28.5020426088
20
49.7239676372
10
28.4722370636
20
49.8220551179
10
28.4422139858
20
49.9166397422
10
28.4120665836
20
50.00730858
10
28.3818880647
20
50.093648701
10
28.3517716372
20
50.1752471751
10
28.3218105091
20
50.2516910722
10
28.2920978882
20
50.3225674622
10
28.2627269825
20
50.3874634148
10
28.233791
20
50.445966
10
28.215746686
20
50.4837575797
10
28.1988960055
20
50.5197564215
10
28.1832386731
20
50.5540430983
10
28.1687744033
20
50.5866981834
10
28.1555029108
20
50.6178022499
10
28.1434239102
20
50.6474358708
10
28.1325371161
20
50.6756796194
10
28.1228422431
20
50.7026140687
10
28.1143390059
20
50.728319792
10
28.107027119
20
50.7528773622
10
28.100906297
20
50.7763673525
10
28.0959762546
20
50.7988703361
10
28.0922367064
20
50.820466886
10
28.089687367
20
50.8412375755
10
28.0883279509
20
50.8612629776
10
28.0881581729
20
50.8806236655
10
28.0891777475
20
50.8994002122
10
28.0913863893
20
50.917673191
10
28.094783813
20
50.9355231749
10
28.0993697332
20
50.953030737
10
28.1051438644
20
50.9702764505
10
28.1121059213
20
50.9873408886
10
28.1202556185
20
51.0043046243
10
28.1295926706
20
51.0212482307
10
28.1401167922
20
51.0382522811
10
28.1518276979
20
51.0553973485
10
28.1647251024
20
51.072764006
10
28.1788087203
20
51.0904328268
10
28.1940782661
20
51.1084843839
10
28.2105334544
20
51.1269992506
10
28.228174
20
51.146058
10
28.2427369408
20
51.16636164
10
28.2567731996
20
51.1885969867
10
28.2702868664
20
51.2128224546
10
28.2832820314
20
51.2390964579
10
28.2957627847
20
51.2674774111
10
28.3077332163
20
51.2980237284
10
28.3191974164
20
51.3307938242
10
28.3301594751
20
51.3658461129
10
28.3406234824
20
51.4032390089
10
28.3505935284
20
51.4430309264
10
28.3600737032
20
51.4852802798
10
28.369068097
20
51.5300454836
10
28.3775807998
20
51.577384952
10
28.3856159017
20
51.6273570994
10
28.3931774928
20
51.6800203401
10
28.4002696633
20
51.7354330886
10
28.4068965031
20
51.7936537591
10
28.4130621024
20
51.854740766
10
28.4187705513
20
51.9187525237
10
28.4240259398
20
51.9857474465
10
28.4288323582
20
52.0557839487
10
28.4331938964
20
52.1289204448
10
28.4371146446
20
52.2052153491
10
28.4405986928
20
52.2847270759
10
28.4436501312
20
52.3675140396
10
28.4462730498
20
52.4536346545
10
28.4484715388
20
52.543147335
10
28.4502496882
20
52.6361104955
10
28.4516115882
20
52.7325825502
10
28.4525613287
20
52.8326219136
10
28.453103
20
52.936287
10
28.4534348381
20
53.0716536561
10
28.4534623586
20
53.1993438558
10
28.4530771833
20
53.3198611715
10
28.4521709343
20
53.433709176
10
28.4506352336
20
53.5413914418
10
28.448361703
20
53.6434115416
10
28.4452419645
20
53.740273048
10
28.4411676402
20
53.8324795336
10
28.436030352
20
53.920534571
10
28.4297217218
20
54.004941733
10
28.4221333716
20
54.086204592
10
28.4131569234
20
54.1648267207
10
28.4026839992
20
54.2413116918
10
28.3906062208
20
54.3161630778
10
28.3768152104
20
54.3898844514
10
28.3612025898
20
54.4629793852
10
28.343659981
20
54.5359514518
10
28.324079006
20
54.6093042239
10
28.3023512868
20
54.6835412741
10
28.2783684453
20
54.7591661749
10
28.2520221034
20
54.8366824991
10
28.2232038832
20
54.9165938192
10
28.1918054066
20
54.9994037078
10
28.1577182956
20
55.0856157377
10
28.1208341722
20
55.1757334813
10
28.0810446582
20
55.2702605114
10
28.0382413758
20
55.3697004005
10
27.9923159467
20
55.4745567213
10
27.9431599931
20
55.5853330464
10
27.8906651369
20
55.7025329484
10
27.834723
20
55.82666
10
27.7648241613
20
55.981319551
10
27.6977729813
20
56.1284154403
10
27.6329902383
20
56.2688138126
10
27.5698967107
20
56.4033808127
10
27.5079131769
20
56.5329825853
10
27.4464604152
20
56.6584852752
10
27.384959204
20
56.7807550271
10
27.3228303215
20
56.9006579857
10
27.2594945463
20
57.0190602958
10
27.1943726566
20
57.1368281021
10
27.1268854308
20
57.2548275494
10
27.0564536472
20
57.3739247824
10
26.9824980843
20
57.4949859458
10
26.9044395203
20
57.6188771845
10
26.8216987336
20
57.746464643
10
26.7336965026
20
57.8786144662
10
26.6398536056
20
58.0161927989
10
26.539590821
20
58.1600657857
10
26.4323289272
20
58.3110995714
10
26.3174887024
20
58.4701603008
10
26.1944909251
20
58.6381141185
10
26.0627563736
20
58.8158271693
10
25.9217058262
20
59.0041655981
10
25.7707600614
20
59.2039955494
10
25.6093398574
20
59.4161831681
10
25.4368659927
20
59.6415945988
10
25.2527592456
20
59.8810959864
10
25.0564403944
20
60.1355534756
10
24.8473302175
20
60.4058332111
10
24.6248494932
20
60.6928013377
10
24.388419
20
60.997324
10
24.1367081698
20
61.3209532148
10
23.9008262961
20
61.6247114689
10
23.6801926912
20
61.9096461927
10
23.4742266674
20
62.1768048168
10
23.2823475371
20
62.4272347715
10
23.1039746127
20
62.6619834876
10
22.9385272064
20
62.8820983953
10
22.7854246307
20
63.0886269253
10
22.6440861978
20
63.282616508
10
22.5139312201
20
63.465114574
10
22.39437901
20
63.6371685537
10
22.2848488798
20
63.7998258776
10
22.1847601418
20
63.9541339763
10
22.0935321083
20
64.1011402802
10
22.0105840918
20
64.2418922198
10
21.9353354046
20
64.3774372256
10
21.8672053589
20
64.5088227282
10
21.8056132672
20
64.637096158
10
21.7499784418
20
64.7633049455
10
21.699720195
20
64.8884965212
10
21.6542578392
20
65.0137183157
0
LWPOLYLINE
5
47
100
AcDbEntity
8
0
6
ByLayer
62
256
370
-1
100
AcDbPolyline
90
714
70
1
43
0
10
10.1096364186
20
61.2255800521
10
10.0801320104
20
61.1245301661
10
10.0516909264
20
61.0252629241
10
10.0244571483
20
60.9282798837
10
9.99857465778
20
60.834082602
10
9.97418743651
20
60.7431726366
10
9.95143946615
20
60.6560515449
10
9.93047472837
20
60.5732208841
10
9.91143720486
20
60.4951822117
10
9.89447087728
20
60.4224370851
10
9.8797197273
20
60.3554870616
10
9.8673277366
20
60.2948336987
10
9.85743888685
20
60.2409785537
10
9.85019715971
20
60.194423184
10
9.84574653687
20
60.155669147
10
9.844231
20
60.125218
10
9.84402152167
20
60.1061729512
10
9.84339995586
20
60.0877523213
10
9.84237660636
20
60.0699561109
10
9.84096177695
20
60.0527843207
10
9.83916577141
20
60.0362369512
10
9.83699889352
20
60.020314003
10
9.83447144708
20
60.0050154768
10
9.83159373586
20
59.9903413731
10
9.82837606364
20
59.9762916926
10
9.82482873422
20
59.9628664358
10
9.82096205136
20
59.9500656033
10
9.81678631885
20
59.9378891959
10
9.81231184049
20
59.926337214
10
9.80754892004
20
59.9154096582
10
9.8025078613
20
59.9051065293
10
9.79719896804
20
59.8954278277
10
9.79163254406
20
59.8863735541
10
9.78581889312
20
59.877943709
10
9.77976831902
20
59.8701382932
10
9.77349112554
20
59.8629573072
10
9.76699761646
20
59.8564007515
10
9.76029809557
20
59.8504686269
10
9.75340286664
20
59.8451609339
10
9.74632223346
20
59.8404776731
10
9.73906649982
20
59.8364188451
10
9.73164596949
20
59.8329844505
10
9.72407094626
20
59.8301744899
10
9.71635173391
20
59.827988964
10
9.70849863623
20
59.8264278733
10
9.700521957
20
59.8254912184
10
9.692432
20
59.825179
10
9.68337765107
20
59.8245612866
10
9.67253953321
20
59.8227350035
10
9.65997700759
20
59.8197404363
10
9.64574943533
20
59.8156178708
10
9.6299161776
20
59.8104075925
10
9.61253659555
20
59.8041498872
10
9.59367005032
20
59.7968850404
10
9.57337590306
20
59.7886533379
10
9.55171351492
20
59.7794950653
10
9.52874224705
20
59.7694505082
10
9.50452146061
20
59.7585599523
10
9.47911051673
20
59.7468636833
10
9.45256877658
20
59.7344019868
10
9.42495560129
20
59.7212151485
10
9.39633035202
20
59.707343454
10
9.36675238992
20
59.6928271891
10
9.33628107613
20
59.6777066392
10
9.30497577181
20
59.6620220902
10
9.27289583811
20
59.6458138276
10
9.24010063617
20
59.6291221372
10
9.20664952714
20
59.6119873045
10
9.17260187218
20
59.5944496153
10
9.13801703243
20
59.5765493551
10
9.10295436904
20
59.5583268097
10
9.06747324316
20
59.5398222647
10
9.03163301594
20
59.5210760058
10
8.99549304854
20
59.5021283186
10
8.95911270209
20
59.4830194887
10
8.92255133775
20
59.4637898019
10
8.88586831667
20
59.4444795438
10
8.849123
20
59.425129
10
8.78839917119
20
59.3876395582
10
8.73146908754
20
59.3525068451
10
8.67826527257
20
59.31958986
10
8.62872024977
20
59.2887476023
10
8.58276654268
20
59.2598390712
10
8.5403366748
20
59.232723266
10
8.50136316965
20
59.207259186
10
8.46577855074
20
59.1833058306
10
8.43351534158
20
59.160722199
10
8.40450606569
20
59.1393672904
10
8.37868324658
20
59.1191001043
10
8.35597940777
20
59.0997796399
10
8.33632707277
20
59.0812648964
10
8.3196587651
20
59.0634148733
10
8.30590700826
20
59.0460885697
10
8.29500432577
20
59.029144985
10
8.28688324115
20
59.0124431184
10
8.2814762779
20
58.9958419694
10
8.27871595955
20
58.979200537
10
8.27853480961
20
58.9623778208
10
8.28086535158
20
58.9452328199
10
8.28564010899
20
58.9276245336
10
8.29279160535
20
58.9094119613
10
8.30225236417
20
58.8904541022
10
8.31395490897
20
58.8706099557
10
8.32783176325
20
58.8497385209
10
8.34381545054
20
58.8276987973
10
8.36183849434
20
58.8043497841
10
8.38183341818
20
58.7795504806
10
8.40373274556
20
58.7531598862
10
8.427469
20
58.725037
10
8.44223163207
20
58.7150563599
10
8.45758887238
20
58.704511694
10
8.47350122094
20
58.6934634324
10
8.48992917777
20
58.6819720049
10
8.50683324289
20
58.6700978417
10
8.52417391632
20
58.6579013727
10
8.54191169806
20
58.6454430278
10
8.56000708815
20
58.6327832372
10
8.57842058659
20
58.6199824307
10
8.5971126934
20
58.6071010385
10
8.6160439086
20
58.5941994904
10
8.6351747322
20
58.5813382165
10
8.65446566423
20
58.5685776467
10
8.67387720469
20
58.5559782112
10
8.69336985361
20
58.5436003398
10
8.71290411101
20
58.5315044625
10
8.73244047689
20
58.5197510094
10
8.75193945128
20
58.5084004105
10
8.77136153419
20
58.4975130957
10
8.79066722564
20
58.487149495
10
8.80981702565
20
58.4773700385
10
8.82877143423
20
58.4682351562
10
8.84749095139
20
58.4598052779
10
8.86593607717
20
58.4521408338
10
8.88406731157
20
58.4453022538
10
8.90184515461
20
58.4393499679
10
8.91923010631
20
58.4343444061
10
8.93618266668
20
58.4303459984
10
8.95266333574
20
58.4274151749
10
8.96863261351
20
58.4256123654
10
8.984051
20
58.424998
10
9.00432569544
20
58.4174007626
10
9.02354120248
20
58.4095100486
10
9.04170603924
20
58.4013196136
10
9.05882872388
20
58.392823213
10
9.07491777453
20
58.3840146023
10
9.08998170934
20
58.3748875371
10
9.10402904646
20
58.3654357728
10
9.11706830402
20
58.355653065
10
9.12910800017
20
58.345533169
10
9.14015665305
20
58.3350698405
10
9.15022278081
20
58.3242568349
10
9.15931490158
20
58.3130879077
10
9.16744153352
20
58.3015568144
10
9.17461119476
20
58.2896573105
10
9.18083240344
20
58.2773831516
10
9.18611367772
20
58.264728093
10
9.19046353573
20
58.2516858903
10
9.19389049562
20
58.238250299
10
9.19640307553
20
58.2244150746
10
9.1980097936
20
58.2101739726
10
9.19871916797
20
58.1955207485
10
9.19853971679
20
58.1804491577
10
9.19747995821
20
58.1649529559
10
9.19554841036
20
58.1490258984
10
9.19275359139
20
58.1326617407
10
9.18910401944
20
58.1158542385
10
9.18460821265
20
58.0985971471
10
9.17927468917
20
58.080884222
10
9.17311196714
20
58.0627092188
10
9.1661285647
20
58.044065893
10
9.158333
20
58.024948
10
9.15218195321
20
58.0043589987
10
9.1456673728
20
57.9813749971
10
9.13880800195
20
57.9560987241
10
9.13162258383
20
57.928632909
10
9.12412986164
20
57.8990802807
10
9.11634857853
20
57.8675435684
10
9.10829747769
20
57.8341255011
10
9.09999530231
20
57.7989288079
10
9.09146079554
20
57.7620562179
10
9.08271270058
20
57.7236104601
10
9.0737697606
20
57.6836942637
10
9.06465071877
20
57.6424103578
10
9.05537431828
20
57.5998614713
10
9.04595930231
20
57.5561503334
10
9.03642441402
20
57.5113796732
10
9.0267883966
20
57.4656522197
10
9.01706999322
20
57.419070702
10
9.00728794706
20
57.3717378492
10
8.99746100131
20
57.3237563904
10
8.98760789913
20
57.2752290547
10
8.97774738371
20
57.2262585711
10
8.96789819821
20
57.1769476687
10
8.95807908583
20
57.1273990766
10
8.94830878974
20
57.0777155239
10
8.9386060531
20
57.0279997396
10
8.92898961911
20
56.9783544529
10
8.91947823094
20
56.9288823928
10
8.91009063177
20
56.8796862883
10
8.90084556477
20
56.8308688687
10
8.89176177312
20
56.7825328629
10
8.882858
20
56.734781
10
8.8702981048
20
56.6592115412
10
8.85791916928
20
56.5873080952
10
8.84569028633
20
56.5189900903
10
8.83358054882
20
56.4541769543
10
8.82155904965
20
56.3927881156
10
8.80959488168
20
56.334743002
10
8.79765713779
20
56.2799610418
10
8.78571491088
20
56.2283616629
10
8.77373729381
20
56.1798642935
10
8.76169337948
20
56.1343883616
10
8.74955226075
20
56.0918532954
10
8.73728303051
20
56.0521785229
10
8.72485478165
20
56.0152834722
10
8.71223660703
20
55.9810875713
10
8.69939759954
20
55.9495102484
10
8.68630685207
20
55.9204709316
10
8.67293345749
20
55.8938890489
10
8.65924650868
20
55.8696840284
10
8.64521509852
20
55.8477752981
10
8.6308083199
20
55.8280822863
10
8.61599526568
20
55.8105244209
10
8.60074502877
20
55.79502113
10
8.58502670202
20
55.7814918418
10
8.56880937834
20
55.7698559843
10
8.55206215058
20
55.7600329855
10
8.53475411164
20
55.7519422736
10
8.5168543544
20
55.7455032767
10
8.49833197174
20
55.7406354227
10
8.47915605653
20
55.7372581399
10
8.45929570165
20
55.7352908563
10
8.43872
20
55.734653
10
8.41040961989
20
55.7325111413
10
8.38338907563
20
55.7262601365
10
8.35769516458
20
55.7161618428
10
8.3333646841
20
55.7024781171
10
8.31043443154
20
55.6854708166
10
8.28894120426
20
55.6654017984
10
8.2689217996
20
55.6425329194
10
8.25041301494
20
55.6171260368
10
8.23345164761
20
55.5894430077
10
8.21807449498
20
55.5597456891
10
8.2043183544
20
55.528295938
10
8.19222002323
20
55.4953556117
10
8.18181629882
20
55.461186567
10
8.17314397852
20
55.4260506612
10
8.16623985969
20
55.3902097512
10
8.16114073969
20
55.3539256942
10
8.15788341586
20
55.3174603472
10
8.15650468558
20
55.2810755672
10
8.15704134618
20
55.2450332114
10
8.15953019503
20
55.2095951369
10
8.16400802947
20
55.1750232006
10
8.17051164687
20
55.1415792597
10
8.17907784458
20
55.1095251713
10
8.18974341996
20
55.0791227924
10
8.20254517035
20
55.05063398
10
8.21751989312
20
55.0243205913
10
8.23470438562
20
55.0004444833
10
8.2541354452
20
54.9792675131
10
8.27584986922
20
54.9610515378
10
8.29988445504
20
54.9460584144
10
8.326276
20
54.93455
10
8.33591996912
20
54.9298251931
10
8.34474848343
20
54.9224465545
10
8.35276313081
20
54.9124453055
10
8.35996549911
20
54.8998526672
10
8.36635717619
20
54.8846998612
10
8.37193974992
20
54.8670181086
10
8.37671480816
20
54.8468386308
10
8.38068393877
20
54.8241926491
10
8.38384872962
20
54.7991113848
10
8.38621076855
20
54.7716260592
10
8.38777164345
20
54.7417678936
10
8.38853294216
20
54.7095681094
10
8.38849625256
20
54.6750579277
10
8.3876631625
20
54.63826857
10
8.38603525984
20
54.5992312576
10
8.38361413246
20
54.5579772117
10
8.3804013682
20
54.5145376537
10
8.37639855493
20
54.4689438048
10
8.37160728052
20
54.4212268865
10
8.36602913283
20
54.3714181199
10
8.35966569971
20
54.3195487264
10
8.35251856903
20
54.2656499274
10
8.34458932866
20
54.209752944
10
8.33587956645
20
54.1518889977
10
8.32639087026
20
54.0920893097
10
8.31612482797
20
54.0303851013
10
8.30508302742
20
53.9668075939
10
8.29326705649
20
53.9013880088
10
8.28067850304
20
53.8341575672
10
8.26731895492
20
53.7651474905
10
8.25319
20
53.694389
10
8.22883454574
20
53.5674421211
10
8.20559779148
20
53.4477990618
10
8.18339815005
20
53.335270478
10
8.16215403424
20
53.2296670258
10
8.14178385687
20
53.1307993615
10
8.12220603075
20
53.0384781411
10
8.10333896868
20
52.9525140206
10
8.08510108348
20
52.8727176563
10
8.06741078796
20
52.7988997042
10
8.05018649491
20
52.7308708203
10
8.03334661717
20
52.6684416609
10
8.01680956752
20
52.611422882
10
8.00049375879
20
52.5596251398
10
7.98431760377
20
52.5128590902
10
7.96819951529
20
52.4709353895
10
7.95205790615
20
52.4336646937
10
7.93581118915
20
52.400857659
10
7.91937777711
20
52.3723249414
10
7.90267608284
20
52.347877197
10
7.88562451915
20
52.327325082
10
7.86814149884
20
52.3104792525
10
7.85014543473
20
52.2971503645
10
7.83155473962
20
52.2871490742
10
7.81228782632
20
52.2802860376
10
7.79226310765
20
52.2763719109
10
7.77139899641
20
52.2752173502
10
7.74961390541
20
52.2766330116
10
7.72682624746
20
52.2804295512
10
7.70295443537
20
52.286417625
10
7.67791688194
20
52.2944078893
10
7.651632
20
52.304211
10
7.64081230375
20
52.3079297528
10
7.62960439878
20
52.3109567603
10
7.61803551237
20
52.3132934362
10
7.60613287181
20
52.3149411945
10
7.59392370437
20
52.315901449
10
7.58143523735
20
52.3161756135
10
7.56869469803
20
52.3157651019
10
7.55572931369
20
52.314671328
10
7.5425663116
20
52.3128957058
10
7.52923291907
20
52.3104396489
10
7.51575636336
20
52.3073045714
10
7.50216387177
20
52.303491887
10
7.48848267158
20
52.2990030096
10
7.47473999006
20
52.293839353
10
7.46096305451
20
52.2880023311
10
7.44717909221
20
52.2814933578
10
7.43341533044
20
52.2743138468
10
7.41969899648
20
52.2664652121
10
7.40605731761
20
52.2579488674
10
7.39251752113
20
52.2487662267
10
7.37910683431
20
52.2389187038
10
7.36585248444
20
52.2284077126
10
7.3527816988
20
52.2172346668
10
7.33992170468
20
52.2054009803
10
7.32729972935
20
52.1929080671
10
7.3149430001
20
52.1797573408
10
7.30287874422
20
52.1659502155
10
7.29113418898
20
52.1514881049
10
7.27973656168
20
52.1363724229
10
7.26871308959
20
52.1206045833
10
7.258091
20
52.104186
10
7.22868420728
20
52.0670291914
10
7.19996415666
20
52.0329743699
10
7.17197130721
20
52.0020013936
10
7.14474611799
20
51.9740901206
10
7.11832904807
20
51.9492204089
10
7.09276055651
20
51.9273721166
10
7.06808110238
20
51.9085251018
10
7.04433114474
20
51.8926592227
10
7.02155114266
20
51.8797543371
10
6.9997815552
20
51.8697903033
10
6.97906284143
20
51.8627469793
10
6.95943546041
20
51.8586042232
10
6.9409398712
20
51.8573418931
10
6.92361653288
20
51.858939847
10
6.9075059045
20
51.863377943
10
6.89264844513
20
51.8706360393
10
6.87908461384
20
51.8806939938
10
6.86685486969
20
51.8935316647
10
6.85599967175
20
51.90912891
10
6.84655947907
20
51.9274655878
10
6.83857475073
20
51.9485215562
10
6.83208594579
20
51.9722766733
10
6.82713352331
20
51.9987107971
10
6.82375794237
20
52.0278037858
10
6.82199966201
20
52.0595354973
10
6.82189914132
20
52.0938857899
10
6.82349683935
20
52.1308345215
10
6.82683321517
20
52.1703615502
10
6.83194872784
20
52.2124467341
10
6.83888383643
20
52.2570699314
10
6.847679
20
52.304211
10
6.85283659599
20
52.3261618439
10
6.85859600722
20
52.3531826439
10
6.86493320087
20
52.3850981573
10
6.8718241441
20
52.4217331415
10
6.8792448041
20
52.4629123538
10
6.88717114803
20
52.5084605515
10
6.89557914306
20
52.5582024921
10
6.90444475637
20
52.6119629329
10
6.91374395512
20
52.6695666311
10
6.92345270649
20
52.7308383442
10
6.93354697764
20
52.7956028294
10
6.94400273576
20
52.8636848442
10
6.954795948
20
52.9349091458
10
6.96590258155
20
53.0091004917
10
6.97729860357
20
53.0860836391
10
6.98895998124
20
53.1656833453
10
7.00086268172
20
53.2477243679
10
7.01298267218
20
53.332031464
10
7.02529591981
20
53.418429391
10
7.03777839176
20
53.5067429063
10
7.05040605522
20
53.5967967672
10
7.06315487735
20
53.688415731
10
7.07600082532
20
53.7814245552
10
7.0889198663
20
53.8756479969
10
7.10188796747
20
53.9709108137
10
7.114881096
20
54.0670377628
10
7.12787521906
20
54.1638536015
10
7.14084630382
20
54.2611830873
10
7.15377031744
20
54.3588509774
10
7.16662322712
20
54.4566820292
10
7.179381
20
54.554501
10
7.19221434631
20
54.6525700837
10
7.20528789745
20
54.7511528162
10
7.21857459914
20
54.8500759681
10
7.2320473971
20
54.9491663099
10
7.24567923705
20
55.0482506123
10
7.25944306472
20
55.1471556458
10
7.27331182582
20
55.2457081809
10
7.28725846608
20
55.3437349883
10
7.30125593122
20
55.4410628384
10
7.31527716696
20
55.5375185019
10
7.32929511903
20
55.6329287494
10
7.34328273314
20
55.7271203513
10
7.35721295502
20
55.8199200784
10
7.37105873039
20
55.9111547011
10
7.38479300497
20
56.0006509899
10
7.39838872448
20
56.0882357156
10
7.41181883465
20
56.1737356486
10
7.42505628119
20
56.2569775595
10
7.43807400984
20
56.3377882189
10
7.4508449663
20
56.4159943973
10
7.4633420963
20
56.4914228654
10
7.47553834557
20
56.5639003936
10
7.48740665983
20
56.6332537526
10
7.49891998479
20
56.699309713
10
7.51005126619
20
56.7618950452
10
7.52077344973
20
56.8208365199
10
7.53105948115
20
56.8759609076
10
7.54088230617
20
56.9270949789
10
7.5502148705
20
56.9740655043
10
7.55903011987
20
57.0166992545
10
7.567301
20
57.054823
10
7.57546142761
20
57.0982355228
10
7.58394852704
20
57.1508533721
10
7.5927397651
20
57.2123905174
10
7.60181260861
20
57.2825609281
10
7.61114452439
20
57.3610785738
10
7.62071297926
20
57.4476574241
10
7.63049544003
20
57.5420114484
10
7.64046937354
20
57.6438546163
10
7.65061224658
20
57.7529008972
10
7.660901526
20
57.8688642608
10
7.67131467859
20
57.9914586765
10
7.68182917119
20
58.1203981138
10
7.69242247061
20
58.2553965423
10
7.70307204367
20
58.3961679316
10
7.71375535719
20
58.542426251
10
7.72444987798
20
58.6938854701
10
7.73513307287
20
58.8502595586
10
7.74578240868
20
59.0112624858
10
7.75637535222
20
59.1766082212
10
7.76688937031
20
59.3460107346
10
7.77730192978
20
59.5191839952
10
7.78759049743
20
59.6958419727
10
7.7977325401
20
59.8756986366
10
7.80770552459
20
60.0584679564
10
7.81748691773
20
60.2438639016
10
7.82705418633
20
60.4316004418
10
7.83638479722
20
60.6213915464
10
7.84545621721
20
60.812951185
10
7.85424591313
20
61.0059933271
10
7.86273135178
20
61.2002319423
10
7.87089
20
61.395381
10
7.89049751905
20
61.8525272124
10
7.91161806082
20
62.300375461
10
7.93420002162
20
62.7385571306
10
7.95819179772
20
63.1667036059
10
7.98354178544
20
63.5844462717
10
8.01019838105
20
63.9914165129
10
8.03810998087
20
64.3872457141
10
8.06722498117
20
64.7715652602
10
8.09749177826
20
65.144006536
10
8.12885876842
20
65.5042009262
10
8.16127434796
20
65.8517798155
10
8.19468691316
20
66.1863745889
10
8.22904486033
20
66.5076166311
10
8.26429658575
20
66.8151373268
10
8.30039048572
20
67.1085680609
10
8.33727495653
20
67.387540218
10
8.37489839448
20
67.6516851831
10
8.41320919586
20
67.9006343408
10
8.45215575697
20
68.134019076
10
8.4916864741
20
68.3514707734
10
8.53174974355
20
68.5526208179
10
8.5722939616
20
68.7371005941
10
8.61326752455
20
68.9045414869
10
8.65461882871
20
69.0545748811
10
8.69629627035
20
69.1868321614
10
8.73824824578
20
69.3009447127
10
8.78042315129
20
69.3965439196
10
8.82276938317
20
69.473261167
10
8.86523533772
20
69.5307278397
10
8.90776941123
20
69.5685753224
10
8.95032
20
69.586435
10
8.950277
20
69.564425
10
8.95311980028
20
69.5648646557
10
8.95597527525
20
69.5652167162
10
8.95884252002
20
69.5654809827
10
8.96172062969
20
69.5656572563
10
8.96460869934
20
69.5657453384
10
8.96750582407
20
69.56574503
10
8.97041109899
20
69.5656561325
10
8.97332361918
20
69.565478447
10
8.97624247974
20
69.5652117748
10
8.97916677577
20
69.5648559171
10
8.98209560236
20
69.564410675
10
8.98502805461
20
69.5638758499
10
8.98796322762
20
69.5632512428
10
8.99090021647
20
69.5625366551
10
8.99383811628
20
69.561731888
10
8.99677602212
20
69.5608367426
10
8.9997130291
20
69.5598510202
10
9.00264823232
20
69.558774522
10
9.00558072686
20
69.5576070492
10
9.00850960783
20
69.556348403
10
9.01143397033
20
69.5549983847
10
9.01435290944
20
69.5535567954
10
9.01726552026
20
69.5520234364
10
9.02017089789
20
69.5503981089
10
9.02306813742
20
69.5486806141
10
9.02595633396
20
69.5468707532
10
9.02883458259
20
69.5449683274
10
9.03170197842
20
69.542973138
10
9.03455761653
20
69.5408849862
10
9.03740059202
20
69.5387036731
10
9.04023
20
69.536429
10
9.0506830672
20
69.5275661895
10
9.06099373012
20
69.5185964157
10
9.07114840653
20
69.5095251173
10
9.08113351422
20
69.5003577327
10
9.09093547095
20
69.4910997004
10
9.10054069451
20
69.4817564588
10
9.10993560267
20
69.4723334465
10
9.11910661321
20
69.462836102
10
9.1280401439
20
69.4532698637
10
9.13672261253
20
69.4436401702
10
9.14514043688
20
69.4339524598
10
9.15328003471
20
69.4242121712
10
9.16112782381
20
69.4144247427
10
9.16867022195
20
69.4045956129
10
9.17589364691
20
69.3947302203
10
9.18278451646
20
69.3848340034
10
9.1893292484
20
69.3749124006
10
9.19551426048
20
69.3649708504
10
9.20132597049
20
69.3550147914
10
9.20675079621
20
69.3450496619
10
9.21177515542
20
69.3350809006
10
9.21638546588
20
69.3251139459
10
9.22056814538
20
69.3151542362
10
9.22430961169
20
69.3052072101
10
9.2275962826
20
69.295278306
10
9.23041457588
20
69.2853729625
10
9.2327509093
20
69.275496618
10
9.23459170065
20
69.265654711
10
9.23592336769
20
69.25585268
10
9.23673232822
20
69.2460959635
10
9.237005
20
69.23639
10
9.23730207388
20
69.2277285157
10
9.23818332674
20
69.217664696
10
9.23963380541
20
69.2062698455
10
9.24163855671
20
69.1936152687
10
9.24418262747
20
69.1797722701
10
9.24725106452
20
69.1648121544
10
9.25082891467
20
69.148806226
10
9.25490122477
20
69.1318257896
10
9.25945304162
20
69.1139421496
10
9.26446941207
20
69.0952266107
10
9.26993538293
20
69.0757504774
10
9.27583600104
20
69.0555850542
10
9.28215631322
20
69.0348016457
10
9.28888136629
20
69.0134715565
10
9.29599620708
20
68.9916660911
10
9.30348588241
20
68.9694565541
10
9.31133543913
20
68.9469142499
10
9.31952992404
20
68.9241104833
10
9.32805438398
20
68.9011165587
10
9.33689386576
20
68.8780037807
10
9.34603341623
20
68.8548434538
10
9.35545808221
20
68.8317068826
10
9.36515291051
20
68.8086653717
10
9.37510294797
20
68.7857902256
10
9.38529324142
20
68.7631527488
10
9.39570883767
20
68.740824246
10
9.40633478356
20
68.7188760216
10
9.41715612591
20
68.6973793803
10
9.42815791155
20
68.6764056265
10
9.4393251873
20
68.6560260649
10
9.450643
20
68.636312
10
9.48219519039
20
68.563777845
10
9.51589131607
20
68.4821491634
10
9.55151587006
20
68.3921349854
10
9.58885334541
20
68.2944443413
10
9.62768823514
20
68.1897862612
10
9.66780503229
20
68.0788697752
10
9.7089882299
20
67.9624039136
10
9.751022321
20
67.8410977066
10
9.79369179863
20
67.7156601842
10
9.83678115582
20
67.5868003767
10
9.8800748856
20
67.4552273143
10
9.92335748102
20
67.3216500271
10
9.9664134351
20
67.1867775453
10
10.0090272409
20
67.0513188991
10
10.0509833914
20
66.9159831186
10
10.0920663797
20
66.7814792341
10
10.1320606988
20
66.6485162758
10
10.1707508417
20
66.5178032737
10
10.2079213015
20
66.3900492581
10
10.2433565712
20
66.2659632591
10
10.2768411439
20
66.146254307
10
10.3081595125
20
66.0316314318
10
10.3370961702
20
65.9228036639
10
10.3634356098
20
65.8204800333
10
10.3869623246
20
65.7253695702
10
10.4074608075
20
65.6381813049
10
10.4247155516
20
65.5596242674
10
10.4385110498
20
65.490407488
10
10.4486317953
20
65.4312399969
10
10.454862281
20
65.3828308241
10
10.456987
20
65.345889
10
10.4573000173
20
65.3262262378
10
10.4582285413
20
65.3059793248
10
10.4597567798
20
65.2851885473
10
10.461868941
20
65.2638941915
10
10.4645492327
20
65.2421365437
10
10.467781863
20
65.2199558902
10
10.4715510398
20
65.1973925172
10
10.4758409712
20
65.174486711
10
10.4806358651
20
65.1512787578
10
10.4859199294
20
65.1278089439
10
10.4916773722
20
65.1041175556
10
10.4978924015
20
65.0802448792
10
10.5045492252
20
65.0562312008
10
10.5116320513
20
65.0321168067
10
10.5191250878
20
65.0079419833
10
10.5270125427
20
64.9837470167
10
10.535278624
20
64.9595721933
10
10.5439075396
20
64.9354577992
10
10.5528834976
20
64.9114441208
10
10.5621907058
20
64.8875714444
10
10.5718133724
20
64.8638800561
10
10.5817357052
20
64.8404102422
10
10.5919419123
20
64.817202289
10
10.6024162016
20
64.7942964828
10
10.6131427811
20
64.7717331098
10
10.6241058588
20
64.7495524563
10
10.6352896428
20
64.7277948085
10
10.6466783409
20
64.7065004527
10
10.6582561611
20
64.6857096752
10
10.6700073115
20
64.6654627622
10
10.681916
20
64.6458
10
10.7030735464
20
64.6054277791
10
10.7226088517
20
64.5618548717
10
10.7405275606
20
64.5152524913
10
10.7568353175
20
64.4657918516
10
10.771537767
20
64.4136441662
10
10.7846405535
20
64.3589806486
10
10.7961493217
20
64.3019725124
10
10.806069716
20
64.2427909712
10
10.8144073809
20
64.1816072387
10
10.821167961
20
64.1185925283
10
10.8263571008
20
64.0539180537
10
10.8299804448
20
63.9877550284
10
10.8320436376
20
63.9202746661
10
10.8325523237
20
63.8516481804
10
10.8315121475
20
63.7820467848
10
10.8289287537
20
63.7116416929
10
10.8248077866
20
63.6406041183
10
10.819154891
20
63.5691052745
10
10.8119757113
20
63.4973163753
10
10.8032758919
20
63.4254086342
10
10.7930610775
20
63.3535532646
10
10.7813369126
20
63.2819214804
10
10.7681090416
20
63.2106844949
10
10.7533831091
20
63.1400135219
10
10.7371647597
20
63.0700797749
10
10.7194596378
20
63.0010544675
10
10.700273388
20
62.9331088133
10
10.6796116548
20
62.8664140258
10
10.6574800827
20
62.8011413188
10
10.6338843163
20
62.7374619056
10
10.60883
20
62.675547
10
10.5818939116
20
62.6141866127
10
10.5537174407
20
62.5465839513
10
10.5244445689
20
62.4732405733
10
10.494219278
20
62.394658036
10
10.4631855495
20
62.3113378967
10
10.4314873652
20
62.223781713
10
10.3992687067
20
62.1324910422
10
10.3666735557
20
62.0379674416
10
10.3338458939
20
61.9407124687
10
10.3009297029
20
61.8412276807
10
10.2680689645
20
61.7400146352
10
10.2354076602
20
61.6375748895
10
10.2030897718
20
61.5344100009
10
10.171259281
20
61.4310215269
10
10.1400601693
20
61.3279110249
0
LWPOLYLINE
5
48
100
AcDbEntity
8
0
6
ByLayer
62
256
370
-1
100
AcDbPolyline
90
782
70
1
43
0
10
17.5891410718
20
35.7952286915
10
17.6065352461
20
35.9142641657
10
17.624664434
20
36.0319399885
10
17.6434313252
20
36.147676045
10
17.6627386093
20
36.2608922203
10
17.682488976
20
36.3710083996
10
17.702585115
20
36.477444468
10
17.722929716
20
36.5796203106
10
17.7434254685
20
36.6769558126
10
17.7639750624
20
36.768870859
10
17.7844811872
20
36.8547853351
10
17.8048465327
20
36.9341191259
10
17.8249737885
20
37.0062921167
10
17.8447656443
20
37.0707241924
10
17.8641247897
20
37.1268352384
10
17.8829539144
20
37.1740451396
10
17.9011557081
20
37.2117737812
10
17.9186328605
20
37.2394410484
10
17.9352880613
20
37.2564668263
10
17.951024
20
37.262271
10
17.951154
20
37.372284
10
17.9568293683
20
37.3710485731
10
17.9629266779
20
37.3673960064
10
17.9694269295
20
37.3614068709
10
17.9763111237
20
37.3531617373
10
17.9835602611
20
37.3427411767
10
17.9911553424
20
37.3302257599
10
17.9990773682
20
37.3156960578
10
18.0073073392
20
37.2992326414
10
18.0158262559
20
37.2809160816
10
18.0246151191
20
37.2608269492
10
18.0336549294
20
37.2390458152
10
18.0429266873
20
37.2156532506
10
18.0524113936
20
37.1907298261
10
18.0620900489
20
37.1643561128
10
18.0719436538
20
37.1366126815
10
18.0819532089
20
37.1075801031
10
18.0920997149
20
37.0773389486
10
18.1023641725
20
37.0459697889
10
18.1127275822
20
37.0135531948
10
18.1231709447
20
36.9801697373
10
18.1336752607
20
36.9458999873
10
18.1442215307
20
36.9108245157
10
18.1547907555
20
36.8750238935
10
18.1653639356
20
36.8385786914
10
18.1759220717
20
36.8015694805
10
18.1864461645
20
36.7640768317
10
18.1969172145
20
36.7261813158
10
18.2073162224
20
36.6879635037
10
18.2176241889
20
36.6495039665
10
18.2278221145
20
36.6108832749
10
18.237891
20
36.572182
10
18.247981582
20
36.5331720511
10
18.2582621557
20
36.4936383796
10
18.2687110268
20
36.4536816999
10
18.2793065012
20
36.4134027265
10
18.2900268848
20
36.3729021739
10
18.3008504835
20
36.3322807564
10
18.3117556032
20
36.2916391885
10
18.3227205496
20
36.2510781848
10
18.3337236287
20
36.2106984595
10
18.3447431463
20
36.1706007271
10
18.3557574083
20
36.1308857022
10
18.3667447205
20
36.0916540991
10
18.3776833889
20
36.0530066323
10
18.3885517192
20
36.0150440162
10
18.3993280174
20
35.9778669653
10
18.4099905893
20
35.941576194
10
18.4205177407
20
35.9062724167
10
18.4308877776
20
35.872056348
10
18.4410790058
20
35.8390287022
10
18.4510697312
20
35.8072901937
10
18.4608382595
20
35.7769415372
10
18.4703628968
20
35.7480834469
10
18.4796219488
20
35.7208166373
10
18.4885937215
20
35.6952418229
10
18.4972565206
20
35.6714597181
10
18.5055886521
20
35.6495710374
10
18.5135684218
20
35.6296764951
10
18.5211741356
20
35.6118768058
10
18.5283840993
20
35.5962726839
10
18.5351766188
20
35.5829648438
10
18.54153
20
35.572054
10
18.5477552498
20
35.5632078052
10
18.5541848624
20
35.5529629099
10
18.5608035355
20
35.5413692672
10
18.5675959669
20
35.52847683
10
18.5745468544
20
35.5143355513
10
18.5816408958
20
35.4989953842
10
18.588862789
20
35.4825062816
10
18.5961972316
20
35.4649181966
10
18.6036289215
20
35.4462810821
10
18.6111425565
20
35.4266448912
10
18.6187228343
20
35.4060595769
10
18.6263544529
20
35.3845750921
10
18.6340221099
20
35.36224139
10
18.6417105032
20
35.3391084234
10
18.6494043305
20
35.3152261454
10
18.6570882897
20
35.2906445091
10
18.6647470785
20
35.2654134673
10
18.6723653948
20
35.2395829732
10
18.6799279363
20
35.2132029797
10
18.6874194008
20
35.1863234398
10
18.6948244862
20
35.1589943065
10
18.7021278902
20
35.1312655329
10
18.7093143106
20
35.1031870719
10
18.7163684452
20
35.0748088766
10
18.7232749918
20
35.0461808999
10
18.7300186482
20
35.0173530949
10
18.7365841122
20
34.9883754146
10
18.7429560816
20
34.9592978119
10
18.7491192541
20
34.9301702399
10
18.7550583277
20
34.9010426516
10
18.760758
20
34.871965
10
18.7948655341
20
34.7035127748
10
18.8293436528
20
34.5444793857
10
18.8645741788
20
34.3946049882
10
18.900938935
20
34.2536297379
10
18.9388197443
20
34.1212937904
10
18.9785984295
20
33.9973373012
10
19.0206568133
20
33.8815004258
10
19.0653767187
20
33.7735233198
10
19.1131399684
20
33.6731461387
10
19.1643283854
20
33.5801090381
10
19.2193237923
20
33.4941521736
10
19.2785080122
20
33.4150157007
10
19.3422628677
20
33.3424397749
10
19.4109701817
20
33.2761645518
10
19.4850117771
20
33.215930187
10
19.5647694768
20
33.1614768359
10
19.6506251034
20
33.1125446542
10
19.7429604799
20
33.0688737974
10
19.8421574291
20
33.0302044211
10
19.9485977738
20
32.9962766807
10
20.0626633368
20
32.9668307319
10
20.1847359411
20
32.9416067302
10
20.3151974093
20
32.9203448311
10
20.4544295644
20
32.9027851903
10
20.6028142292
20
32.8886679631
10
20.7607332265
20
32.8777333053
10
20.9285683792
20
32.8697213724
10
21.1067015101
20
32.8643723198
10
21.2955144419
20
32.8614263032
10
21.4953889976
20
32.8606234781
10
21.706707
20
32.861704
10
21.8582525332
20
32.8625807291
10
22.0012107764
20
32.8625620015
10
22.1359239693
20
32.8614518317
10
22.2627343515
20
32.8590542345
10
22.3819841627
20
32.8551732244
10
22.4940156427
20
32.8496128162
10
22.599171031
20
32.8421770243
10
22.6977925673
20
32.8326698635
10
22.7902224914
20
32.8208953484
10
22.8768030428
20
32.8066574937
10
22.9578764612
20
32.7897603139
10
23.0337849864
20
32.7700078237
10
23.1048708579
20
32.7472040378
10
23.1714763155
20
32.7211529707
10
23.2339435988
20
32.6916586371
10
23.2926149475
20
32.6585250517
10
23.3478326013
20
32.6215562291
10
23.3999387997
20
32.5805561839
10
23.4492757826
20
32.5353289307
10
23.4961857896
20
32.4856784842
10
23.5410110603
20
32.4314088591
10
23.5840938343
20
32.3723240699
10
23.6257763515
20
32.3082281313
10
23.6664008514
20
32.2389250579
10
23.7063095738
20
32.1642188644
10
23.7458447582
20
32.0839135654
10
23.7853486444
20
31.9978131755
10
23.825163472
20
31.9057217094
10
23.8656314806
20
31.8074431817
10
23.9070949101
20
31.702781607
10
23.949896
20
31.591541
10
24.202928
20
30.891452
10
23.623854
20
30.391388
10
23.5664170403
20
30.3348736523
10
23.5110126495
20
30.2814613098
10
23.4575940436
20
30.23113083
10
23.4061144387
20
30.1838620704
10
23.3565270508
20
30.1396348885
10
23.308785096
20
30.0984291417
10
23.2628417904
20
30.0602246875
10
23.21865035
20
30.0250013834
10
23.176163991
20
29.9927390868
10
23.1353359294
20
29.9634176553
10
23.0961193813
20
29.9370169462
10
23.0584675628
20
29.9135168172
10
23.0223336898
20
29.8928971255
10
22.9876709786
20
29.8751377288
10
22.9544326451
20
29.8602184845
10
22.9225719054
20
29.8481192501
10
22.8920419757
20
29.838819883
10
22.8627960719
20
29.8323002407
10
22.8347874102
20
29.8285401808
10
22.8079692066
20
29.8275195605
10
22.7822946772
20
29.8292182376
10
22.7577170381
20
29.8336160693
10
22.7341895053
20
29.8406929132
10
22.711665295
20
29.8504286268
10
22.6900976231
20
29.8628030675
10
22.6694397058
20
29.8777960928
10
22.6496447591
20
29.8953875602
10
22.6306659991
20
29.9155573271
10
22.6124566418
20
29.9382852511
10
22.5949699035
20
29.9635511896
10
22.578159
20
29.991335
10
22.5583425165
20
30.0175946652
10
22.5366877501
20
30.0384358827
10
22.5133826947
20
30.054060082
10
22.4886153441
20
30.0646686926
10
22.4625736924
20
30.0704631439
10
22.4354457332
20
30.0716448655
10
22.4074194607
20
30.0684152868
10
22.3786828686
20
30.0609758373
10
22.3494239508
20
30.0495279466
10
22.3198307012
20
30.034273044
10
22.2900911137
20
30.0154125592
10
22.2603931823
20
29.9931479216
10
22.2309249007
20
29.9676805607
10
22.2018742629
20
29.939211906
10
22.1734292628
20
29.9079433869
10
22.1457778943
20
29.8740764331
10
22.1191081512
20
29.8378124738
10
22.0936080275
20
29.7993529388
10
22.069465517
20
29.7588992574
10
22.0468686136
20
29.7166528591
10
22.0260053113
20
29.6728151734
10
22.0070636039
20
29.6275876299
10
21.9902314852
20
29.581171658
10
21.9756969493
20
29.5337686872
10
21.96364799
20
29.485580147
10
21.9542726011
20
29.4368074669
10
21.9477587766
20
29.3876520764
10
21.9442945103
20
29.338315405
10
21.9440677962
20
29.2889988821
10
21.9472666281
20
29.2399039373
10
21.954079
20
29.191232
10
21.9598478223
20
29.1621775126
10
21.9642550953
20
29.1330122567
10
21.9672355445
20
29.103625445
10
21.9687238953
20
29.0739062905
10
21.9686548733
20
29.0437440058
10
21.9669632038
20
29.0130278038
10
21.9635836123
20
28.9816468972
10
21.9584508242
20
28.9494904987
10
21.9514995651
20
28.9164478213
10
21.9426645604
20
28.8824080777
10
21.9318805355
20
28.8472604806
10
21.9190822159
20
28.8108942428
10
21.904204327
20
28.7731985772
10
21.8871815943
20
28.7340626965
10
21.8679487432
20
28.6933758134
10
21.8464404992
20
28.6510271408
10
21.8225915878
20
28.6069058915
10
21.7963367344
20
28.5609012782
10
21.7676106645
20
28.5129025137
10
21.7363481034
20
28.4627988108
10
21.7024837767
20
28.4104793823
10
21.6659524099
20
28.3558334409
10
21.6266887283
20
28.2987501995
10
21.5846274575
20
28.2391188708
10
21.5397033228
20
28.1768286676
10
21.4918510497
20
28.1117688027
10
21.4410053638
20
28.0438284889
10
21.3871009904
20
27.9728969389
10
21.330072655
20
27.8988633656
10
21.269855083
20
27.8216169817
10
21.206383
20
27.741047
10
21.1623720223
20
27.6832986619
10
21.1189380399
20
27.6262432401
10
21.0761397693
20
27.5699492202
10
21.034035927
20
27.5144850876
10
20.9926852294
20
27.4599193279
10
20.9521463929
20
27.4063204265
10
20.9124781341
20
27.3537568691
10
20.8737391693
20
27.302297141
10
20.8359882151
20
27.2520097279
10
20.7992839879
20
27.2029631153
10
20.7636852041
20
27.1552257886
10
20.7292505803
20
27.1088662333
10
20.6960388328
20
27.0639529351
10
20.6641086782
20
27.0205543793
10
20.6335188328
20
26.9787390516
10
20.6043280132
20
26.9385754374
10
20.5765949358
20
26.9001320223
10
20.550378317
20
26.8634772918
10
20.5257368734
20
26.8286797313
10
20.5027293214
20
26.7958078264
10
20.4814143774
20
26.7649300627
10
20.4618507578
20
26.7361149255
10
20.4440971793
20
26.7094309006
10
20.4282123581
20
26.6849464733
10
20.4142550108
20
26.6627301291
10
20.4022838539
20
26.6428503537
10
20.3923576037
20
26.6253756325
10
20.3845349768
20
26.610374451
10
20.3788746895
20
26.5979152947
10
20.3754354585
20
26.5880666492
10
20.374276
20
26.580897
10
20.3740036462
20
26.5743001557
10
20.3732981064
20
26.5672992548
10
20.3721710498
20
26.5599148424
10
20.3706341457
20
26.5521674633
10
20.3686990635
20
26.5440776624
10
20.3663774724
20
26.5356659848
10
20.3636810417
20
26.5269529753
10
20.3606214407
20
26.5179591788
10
20.3572103387
20
26.5087051403
10
20.3534594051
20
26.4992114047
10
20.349380309
20
26.4894985169
10
20.3449847198
20
26.479587022
10
20.3402843068
20
26.4694974647
10
20.3352907394
20
26.45925039
10
20.3300156867
20
26.4488663429
10
20.324470818
20
26.4383658683
10
20.3186678028
20
26.4277695111
10
20.3126183102
20
26.4170978163
10
20.3063340096
20
26.4063713287
10
20.2998265703
20
26.3956105934
10
20.2931076615
20
26.3848361551
10
20.2861889526
20
26.374068559
10
20.2790821129
20
26.3633283498
10
20.2717988116
20
26.3526360726
10
20.264350718
20
26.3420122722
10
20.2567495015
20
26.3314774936
10
20.2490068314
20
26.3210522818
10
20.2411343768
20
26.3107571815
10
20.2331438072
20
26.3006127379
10
20.2250467918
20
26.2906394957
10
20.216855
20
26.280858
10
20.2013067538
20
26.2608336783
10
20.1849706994
20
26.2393046857
10
20.167665347
20
26.2160152066
10
20.1492092068
20
26.1907094253
10
20.1294207892
20
26.1631315264
10
20.1081186042
20
26.1330256942
10
20.0851211621
20
26.1001361132
10
20.0602469731
20
26.0642069677
10
20.0333145475
20
26.0249824422
10
20.0041423955
20
25.9822067211
10
19.9725490273
20
25.9356239888
10
19.9383529531
20
25.8849784298
10
19.9013726831
20
25.8300142284
10
19.8614267276
20
25.7704755691
10
19.8183335967
20
25.7061066363
10
19.7719118008
20
25.6366516144
10
19.72197985
20
25.5618546879
10
19.6683562545
20
25.4814600411
10
19.6108595246
20
25.3952118584
10
19.5493081704
20
25.3028543244
10
19.4835207023
20
25.2041316233
10
19.4133156304
20
25.0987879397
10
19.3385114649
20
24.9865674579
10
19.2589267162
20
24.8672143624
10
19.1743798943
20
24.7404728375
10
19.0846895095
20
24.6060870678
10
18.989674072
20
24.4638012375
10
18.8891520921
20
24.3133595312
10
18.78294208
20
24.1545061332
10
18.6708625459
20
23.986985228
10
18.552732
20
23.810541
10
18.4584833879
20
23.667129566
10
18.3701147492
20
23.5326434529
10
18.2872638159
20
23.4064542023
10
18.20956832
20
23.2879333557
10
18.1366659935
20
23.1764524546
10
18.0681945684
20
23.0713830407
10
18.0037917768
20
22.9720966554
10
17.9430953505
20
22.8779648402
10
17.8857430217
20
22.7883591368
10
17.8313725223
20
22.7026510866
10
17.7796215843
20
22.6202122312
10
17.7301279397
20
22.5404141121
10
17.6825293205
20
22.462628271
10
17.6364634588
20
22.3862262492
10
17.5915680864
20
22.3105795883
10
17.5474809355
20
22.23505983
10
17.5038397379
20
22.1590385157
10
17.4602822258
20
22.0818871869
10
17.416446131
20
22.0029773853
10
17.3719691857
20
21.9216806522
10
17.3264891218
20
21.8373685294
10
17.2796436713
20
21.7494125583
10
17.2310705662
20
21.6571842805
10
17.1804075385
20
21.5600552375
10
17.1272923202
20
21.4573969708
10
17.0713626433
20
21.348581022
10
17.0122562399
20
21.2329789326
10
16.9496108418
20
21.1099622441
10
16.8830641811
20
20.9789024982
10
16.8122539899
20
20.8391712363
10
16.736818
20
20.69014
10
16.6969886993
20
20.6111835137
10
16.6554858296
20
20.5293083282
10
16.612417004
20
20.4447178858
10
16.5678898357
20
20.3576156289
10
16.5220119376
20
20.2682049997
10
16.474890923
20
20.1766894405
10
16.4266344049
20
20.0832723937
10
16.3773499964
20
19.9881573016
10
16.3271453106
20
19.8915476065
10
16.2761279607
20
19.7936467507
10
16.2244055598
20
19.6946581765
10
16.1720857209
20
19.5947853263
10
16.1192760571
20
19.4942316423
10
16.0660841816
20
19.3932005669
10
16.0126177075
20
19.2918955424
10
15.9589842478
20
19.1905200111
10
15.9052914157
20
19.0892774154
10
15.8516468243
20
18.9883711974
10
15.7981580866
20
18.8880047996
10
15.7449328159
20
18.7883816643
10
15.6920786251
20
18.6897052337
10
15.6397031275
20
18.5921789502
10
15.587913936
20
18.4960062562
10
15.5368186638
20
18.4013905938
10
15.4865249241
20
18.3085354055
10
15.4371403298
20
18.2176441335
10
15.3887724942
20
18.1289202202
10
15.3415290303
20
18.0425671079
10
15.2955175512
20
17.9587882389
10
15.2508456701
20
17.8777870555
10
15.207621
20
17.799767
10
15.1652961555
20
17.7223581561
10
15.1233023562
20
17.6450721842
10
15.0817008973
20
17.5680319563
10
15.0405530737
20
17.4913603444
10
14.9999201805
20
17.4151802206
10
14.9598635126
20
17.3396144568
10
14.9204443651
20
17.2647859251
10
14.881724033
20
17.1908174974
10
14.8437638114
20
17.1178320458
10
14.8066249952
20
17.0459524422
10
14.7703688795
20
16.9753015588
10
14.7350567593
20
16.9060022674
10
14.7007499296
20
16.8381774402
10
14.6675096854
20
16.771949949
10
14.6353973219
20
16.707442666
10
14.6044741339
20
16.6447784631
10
14.5748014165
20
16.5840802123
10
14.5464404648
20
16.5254707856
10
14.5194525737
20
16.4690730552
10
14.4938990383
20
16.4150098928
10
14.4698411536
20
16.3634041707
10
14.4473402147
20
16.3143787607
10
14.4264575164
20
16.2680565349
10
14.407254354
20
16.2245603652
10
14.3897920223
20
16.1840131238
10
14.3741318164
20
16.1465376826
10
14.3603350314
20
16.1122569136
10
14.3484629622
20
16.0812936889
10
14.3385769039
20
16.0537708803
10
14.3307381515
20
16.02981136
10
14.325008
20
16.009538
10
14.3154135848
20
15.9717632061
10
14.3049688176
20
15.9358818653
10
14.2937340293
20
15.9019141194
10
14.2817695504
20
15.8698801104
10
14.2691357117
20
15.8397999803
10
14.2558928439
20
15.8116938709
10
14.2421012778
20
15.7855819242
10
14.2278213439
20
15.761484282
10
14.213113373
20
15.7394210864
10
14.1980376959
20
15.7194124792
10
14.1826546431
20
15.7014786024
10
14.1670245455
20
15.6856395978
10
14.1512077337
20
15.6719156074
10
14.1352645385
20
15.6603267732
10
14.1192552905
20
15.650893237
10
14.1032403204
20
15.6436351407
10
14.0872799589
20
15.6385726264
10
14.0714345368
20
15.6357258359
10
14.0557643847
20
15.635114911
10
14.0403298334
20
15.6367599939
10
14.0251912136
20
15.6406812263
10
14.0104088559
20
15.6468987502
10
13.9960430911
20
15.6554327076
10
13.9821542498
20
15.6663032402
10
13.9688026628
20
15.6795304902
10
13.9560486608
20
15.6951345993
10
13.9439525745
20
15.7131357095
10
13.9325747345
20
15.7335539628
10
13.9219754717
20
15.756409501
10
13.9122151166
20
15.7817224661
10
13.903354
20
15.809513
10
13.8743210255
20
15.9133399006
10
13.846518504
20
16.0140124213
10
13.8198955544
20
16.1118105485
10
13.7944012956
20
16.2070142684
10
13.7699848466
20
16.2999035676
10
13.7465953262
20
16.3907584324
10
13.7241818534
20
16.4798588491
10
13.7026935471
20
16.5674848041
10
13.6820795263
20
16.6539162838
10
13.6622889099
20
16.7394332746
10
13.6432708168
20
16.8243157628
10
13.6249743659
20
16.9088437348
10
13.6073486762
20
16.993297177
10
13.5903428666
20
17.0779560757
10
13.573906056
20
17.1631004173
10
13.5579873634
20
17.2490101883
10
13.5425359076
20
17.3359653749
10
13.5275008077
20
17.4242459635
10
13.5128311825
20
17.5141319406
10
13.498476151
20
17.6059032924
10
13.4843848321
20
17.6998400053
10
13.4705063447
20
17.7962220658
10
13.4567898077
20
17.8953294602
10
13.4431843402
20
17.9974421749
10
13.4296390609
20
18.1028401961
10
13.4161030889
20
18.2118035104
10
13.4025255431
20
18.3246121041
10
13.3888555423
20
18.4415459635
10
13.3750422056
20
18.5628850751
10
13.3610346519
20
18.6889094251
10
13.346782
20
18.819899
10
13.3256576248
20
19.0226273496
10
13.3050692566
20
19.2333906852
10
13.285053354
20
19.4512946631
10
13.2656463755
20
19.6754449395
10
13.2468847799
20
19.9049471706
10
13.2288050255
20
20.1389070126
10
13.2114435712
20
20.3764301216
10
13.1948368754
20
20.616622154
10
13.1790213967
20
20.8585887658
10
13.1640335938
20
21.1014356134
10
13.1499099252
20
21.3442683529
10
13.1366868495
20
21.5861926405
10
13.1244008254
20
21.8263141324
10
13.1130883114
20
22.0637384849
10
13.1027857661
20
22.2975713541
10
13.0935296481
20
22.5269183962
10
13.085356416
20
22.7508852675
10
13.0783025284
20
22.9685776241
10
13.0724044439
20
23.1791011223
10
13.0676986211
20
23.3815614182
10
13.0642215186
20
23.5750641681
10
13.062009595
20
23.7587150281
10
13.0610993088
20
23.9316196546
10
13.0615271187
20
24.0928837036
10
13.0633294833
20
24.2416128314
10
13.0665428611
20
24.3769126941
10
13.0712037108
20
24.4978889481
10
13.077348491
20
24.6036472495
10
13.0850136601
20
24.6932932544
10
13.0942356769
20
24.7659326192
10
13.105051
20
24.820671
10
13.1107581799
20
24.8400181867
10
13.1169658124
20
24.8593049452
10
13.1236615532
20
24.8784708474
10
13.1308330579
20
24.897455465
10
13.1384679821
20
24.9161983698
10
13.1465539814
20
24.9346391338
10
13.1550787114
20
24.9527173287
10
13.1640298277
20
24.9703725262
10
13.1733949859
20
24.9875442983
10
13.1831618415
20
25.0041722168
10
13.1933180503
20
25.0201958534
10
13.2038512677
20
25.0355547801
10
13.2147491495
20
25.0501885685
10
13.2259993511
20
25.0640367905
10
13.2375895282
20
25.077039018
10
13.2495073365
20
25.0891348228
10
13.2617404314
20
25.1002637766
10
13.2742764686
20
25.1103654513
10
13.2871031038
20
25.1193794187
10
13.3002079924
20
25.1272452506
10
13.3135787901
20
25.1339025189
10
13.3272031525
20
25.1392907953
10
13.3410687353
20
25.1433496517
10
13.3551631939
20
25.1460186599
10
13.369474184
20
25.1472373917
10
13.3839893613
20
25.1469454189
10
13.3986963812
20
25.1450823134
10
13.4135828994
20
25.1415876469
10
13.4286365716
20
25.1364009913
10
13.4438450532
20
25.1294619184
10
13.459196
20
25.12071
10
13.4956104418
20
25.1201433877
10
13.5316910535
20
25.1241068977
10
13.5673337969
20
25.1323850017
10
13.6024346338
20
25.1447621719
10
13.6368895261
20
25.1610228799
10
13.6705944354
20
25.1809515977
10
13.7034453237
20
25.2043327973
10
13.7353381527
20
25.2309509504
10
13.7661688843
20
25.2605905289
10
13.7958334801
20
25.2930360048
10
13.8242279021
20
25.32807185
10
13.851248112
20
25.3654825363
10
13.8767900716
20
25.4050525356
10
13.9007497427
20
25.4465663198
10
13.9230230872
20
25.4898083607
10
13.9435060668
20
25.5345631304
10
13.9620946433
20
25.5806151006
10
13.9786847786
20
25.6277487433
10
13.9931724343
20
25.6757485303
10
14.0054535724
20
25.7243989336
10
14.0154241546
20
25.7734844249
10
14.0229801428
20
25.8227894763
10
14.0280174987
20
25.8720985595
10
14.0304321841
20
25.9211961466
10
14.0301201608
20
25.9698667092
10
14.0269773907
20
26.0178947195
10
14.0208998355
20
26.0650646492
10
14.011783457
20
26.1111609702
10
13.9995242171
20
26.1559681544
10
13.9840180775
20
26.1992706737
10
13.965161
20
26.240853
10
13.956129658
20
26.2598983207
10
13.9466030027
20
26.2783191868
10
13.9366082515
20
26.2961155996
10
13.9261726219
20
26.3132875602
10
13.9153233312
20
26.3298350699
10
13.904087597
20
26.3457581299
10
13.8924926365
20
26.3610567413
10
13.8805656672
20
26.3757309054
10
13.8683339065
20
26.3897806234
10
13.8558245719
20
26.4032058965
10
13.8430648807
20
26.4160067259
10
13.8300820504
20
26.4281831129
10
13.8169032983
20
26.4397350585
10
13.803555842
20
26.4506625641
10
13.7900668988
20
26.4609656308
10
13.776463686
20
26.4706442599
10
13.7627734213
20
26.4796984526
10
13.7490233218
20
26.48812821
10
13.7352406052
20
26.4959335333
10
13.7214524887
20
26.5031144239
10
13.7076861898
20
26.5096708829
10
13.693968926
20
26.5156029114
10
13.6803279145
20
26.5209105108
10
13.6667903729
20
26.5255936822
10
13.6533835185
20
26.5296524268
10
13.6401345689
20
26.5330867459
10
13.6270707413
20
26.5358966406
10
13.6142192532
20
26.5380821121
10
13.601607322
20
26.5396431618
10
13.5892621651
20
26.5405797906
10
13.577211
20
26.540892
10
13.5579536316
20
26.5415130706
10
13.5394033829
20
26.543362854
10
13.5215661353
20
26.5464212077
10
13.50444777
20
26.5506679893
10
13.4880541686
20
26.556083056
10
13.4723912123
20
26.5626462655
10
13.4574647825
20
26.5703374752
10
13.4432807607
20
26.5791365426
10
13.4298450281
20
26.5890233251
10
13.4171634662
20
26.5999776802
10
13.4052419563
20
26.6119794655
10
13.3940863798
20
26.6250085383
10
13.3837026181
20
26.6390447561
10
13.3740965525
20
26.6540679765
10
13.3652740645
20
26.6700580569
10
13.3572410354
20
26.6869948547
10
13.3500033465
20
26.7048582275
10
13.3435668793
20
26.7236280326
10
13.3379375151
20
26.7432841277
10
13.3331211353
20
26.7638063701
10
13.3291236212
20
26.7851746174
10
13.3259508543
20
26.8073687269
10
13.3236087159
20
26.8303685563
10
13.3221030874
20
26.8541539629
10
13.3214398502
20
26.8787048042
10
13.3216248855
20
26.9040009377
10
13.3226640749
20
26.9300222209
10
13.3245632997
20
26.9567485113
10
13.3273284412
20
26.9841596663
10
13.3309653809
20
27.0122355434
10
13.33548
20
27.040956
10
13.356951907
20
27.1731214388
10
13.3779513409
20
27.302505136
10
13.3984816459
20
27.4291352915
10
13.4185461656
20
27.5530401055
10
13.4381482441
20
27.6742477781
10
13.4572912252
20
27.7927865091
10
13.4759784528
20
27.9086844989
10
13.4942132709
20
28.0219699473
10
13.5119990232
20
28.1326710545
10
13.5293390537
20
28.2408160205
10
13.5462367064
20
28.3464330453
10
13.562695325
20
28.4495503292
10
13.5787182536
20
28.550196072
10
13.5943088359
20
28.6483984738
10
13.6094704159
20
28.7441857348
10
13.6242063375
20
28.837586055
10
13.6385199445
20
28.9286276344
10
13.652414581
20
29.0173386731
10
13.6658935907
20
29.1037473712
10
13.6789603175
20
29.1878819286
10
13.6916181055
20
29.2697705456
10
13.7038702983
20
29.3494414221
10
13.7157202401
20
29.4269227582
10
13.7271712745
20
29.502242754
10
13.7382267457
20
29.5754296095
10
13.7488899973
20
29.6465115248
10
13.7591643734
20
29.7155166999
10
13.7690532178
20
29.7824733349
10
13.7785598745
20
29.8474096299
10
13.7876876872
20
29.9103537849
10
13.79644
20
29.971334
10
13.8026435629
20
30.0115538684
10
13.8095808361
20
30.0546864125
10
13.8172231803
20
30.1005845888
10
13.8255419562
20
30.1491013539
10
13.8345085244
20
30.2000896645
10
13.8440942456
20
30.2534024771
10
13.8542704806
20
30.3088927483
10
13.86500859
20
30.3664134347
10
13.8762799344
20
30.425817493
10
13.8880558746
20
30.4869578797
10
13.9003077712
20
30.5496875514
10
13.9130069849
20
30.6138594647
10
13.9261248764
20
30.6793265763
10
13.9396328064
20
30.7459418426
10
13.9535021355
20
30.8135582204
10
13.9677042245
20
30.8820286662
10
13.982210434
20
30.9512061366
10
13.9969921246
20
31.0209435881
10
14.0120206571
20
31.0910939775
10
14.0272673922
20
31.1615102613
10
14.0427036904
20
31.2320453961
10
14.0583009126
20
31.3025523384
10
14.0740304194
20
31.372884045
10
14.0898635714
20
31.4428934723
10
14.1057717294
20
31.5124335771
10
14.121726254
20
31.5813573158
10
14.1376985059
20
31.6495176451
10
14.1536598457
20
31.7167675215
10
14.1695816343
20
31.7829599018
10
14.1854352321
20
31.8479477424
10
14.201192
20
31.911584
10
14.49913
20
33.081733
10
15.336838
20
33.171745
10
15.3821795891
20
33.1768915607
10
15.4287225776
20
33.1826323262
10
15.4763614261
20
33.188937083
10
15.5249905955
20
33.1957756177
10
15.5745045464
20
33.2031177168
10
15.6247977397
20
33.2109331667
10
15.6757646361
20
33.219191754
10
15.7272996962
20
33.2278632652
10
15.7792973809
20
33.2369174869
10
15.8316521509
20
33.2463242055
10
15.884258467
20
33.2560532075
10
15.9370107898
20
33.2660742794
10
15.9898035801
20
33.2763572079
10
16.0425312987
20
33.2868717793
10
16.0950884063
20
33.2975877802
10
16.1473693637
20
33.3084749971
10
16.1992686316
20
33.3195032165
10
16.2506806707
20
33.330642225
10
16.3014999418
20
33.341861809
10
16.3516209056
20
33.3531317551
10
16.4009380229
20
33.3644218497
10
16.4493457544
20
33.3757018794
10
16.4967385608
20
33.3869416307
10
16.543010903
20
33.3981108901
10
16.5880572415
20
33.4091794441
10
16.6317720373
20
33.4201170793
10
16.674049751
20
33.4308935821
10
16.7147848434
20
33.441478739
10
16.7538717752
20
33.4518423367
10
16.7912050071
20
33.4619541615
10
16.826679
20
33.471784
10
17.473163
20
33.671809
10
17.473163
20
34.471912
10
17.4741468055
20
34.5620143319
10
17.4770333486
20
34.6577183907
10
17.4817253189
20
34.7584440617
10
17.4881254061
20
34.8636112298
10
17.4961362998
20
34.9726397804
10
17.5056606898
20
35.0849495984
10
17.5166012656
20
35.1999605691
10
17.528860717
20
35.3170925775
10
17.5423417337
20
35.4357655088
10
17.5569470052
20
35.5553992482
10
17.5725792214
20
35.6754136807
0
ENDSEC
0
SECTION
2
OBJECTS
0
DICTIONARY
5
C
330
0
100
AcDbDictionary
281
1
3
ACAD_GROUP
350
D
0
DICTIONARY
5
D
330
C
100
AcDbDictionary
281
1
0
ENDSEC
0
EOF
