999
dxfrw 0.5.10
0
SECTION
2
HEADER
9
$ACADVER
1
AC1021
9
$HANDSEED
5
20000
9
$DWGCODEPAGE
3
ANSI_1252
9
$INSBASE
10
0
20
0
30
0
9
$EXTMIN
10
0
20
6.02002953912e-05
30
0
9
$EXTMAX
10
24.9350587696
20
99.9999340017
30
0
9
$LIMMIN
10
0
20
0
9
$LIMMAX
10
420
20
297
9
$ORTHOMODE
70
0
9
$LTSCALE
40
1
9
$TEXTSTYLE
7
STANDARD
9
$CLAYER
8
0
9
$DIMASZ
40
2.5
9
$DIMLFAC
40
1
9
$DIMSCALE
40
1
9
$DIMEXO
40
0.625
9
$DIMEXE
40
1.25
9
$DIMTXT
40
2.5
9
$DIMTSZ
40
0
9
$DIMAUNIT
70
0
9
$DIMADEC
70
0
9
$DIMLUNIT
70
2
9
$DIMSTYLE
2
Standard
9
$DIMGAP
40
0.625
9
$DIMTIH
70
0
9
$LUNITS
70
2
9
$LUPREC
70
4
9
$AUNITS
70
0
9
$AUPREC
70
2
9
$SPLINESEGS
70
8
9
$GRIDMODE
70
1
9
$SNAPSTYLE
70
0
9
$PINSBASE
10
0
20
0
30
0
9
$PLIMMIN
10
0
20
0
9
$PLIMMAX
10
210
20
297
9
$INSUNITS
70
4
9
$PSVPSCALE
40
1
0
ENDSEC
0
SECTION
2
CLASSES
0
ENDSEC
0
SECTION
2
TABLES
0
TABLE
2
VPORT
5
8
330
0
100
AcDbSymbolTable
70
1
0
VPORT
5
31
330
2
100
AcDbSymbolTableRecord
100
AcDbViewportTableRecord
2
*ACTIVE
70
0
10
0
20
0
11
1
21
1
12
62.7567701168
22
53.8526717646
13
0
23
0
14
10
24
10
15
10
25
10
16
0
26
0
36
1
17
0
27
0
37
0
40
128.424495464
41
1.65333333333
42
50
43
0
44
0
50
0
51
0
71
0
72
100
73
1
74
3
75
0
76
1
77
0
78
0
281
0
65
1
110
0
120
0
130
0
111
1
121
0
131
0
112
0
122
1
132
0
79
0
146
0
348
10020
60
7
61
5
292
1
282
1
141
0
142
0
63
250
421
3358443
0
ENDTAB
0
TABLE
2
LTYPE
5
5
330
0
100
AcDbSymbolTable
70
4
0
LTYPE
5
14
330
5
100
AcDbSymbolTableRecord
100
AcDbLinetypeTableRecord
2
ByBlock
70
0
3

72
65
73
0
40
0
0
LTYPE
5
15
330
5
100
AcDbSymbolTableRecord
100
AcDbLinetypeTableRecord
2
ByLayer
70
0
3

72
65
73
0
40
0
0
LTYPE
5
16
330
5
100
AcDbSymbolTableRecord
100
AcDbLinetypeTableRecord
2
Continuous
70
0
3
Solid line
72
65
73
0
40
0
0
LTYPE
5
32
330
5
100
AcDbSymbolTableRecord
100
AcDbLinetypeTableRecord
2
DOT
70
0
3
Dot . . . . . . . . . . . . . . . . . . . . . .
72
65
73
2
40
6.35
49
0
74
0
49
-6.35
74
0
0
LTYPE
5
33
330
5
100
AcDbSymbolTableRecord
100
AcDbLinetypeTableRecord
2
DOT2
70
0
3
Dot (.5x) .....................................
72
65
73
2
40
3.175
49
0
74
0
49
-3.175
74
0
0
LTYPE
5
34
330
5
100
AcDbSymbolTableRecord
100
AcDbLinetypeTableRecord
2
DOTX2
70
0
3
Dot (2x) .  .  .  .  .  .  .  .  .  .  .  .  .
72
65
73
2
40
12.7
49
0
74
0
49
-12.7
74
0
0
LTYPE
5
35
330
5
100
AcDbSymbolTableRecord
100
AcDbLinetypeTableRecord
2
DASHED
70
0
3
Dot . . . . . . . . . . . . . . . . . . . . . .
72
65
73
2
40
19.05
49
12.7
74
0
49
-6.35
74
0
0
LTYPE
5
36
330
5
100
AcDbSymbolTableRecord
100
AcDbLinetypeTableRecord
2
DASHED2
70
0
3
Dashed (.5x) _ _ _ _ _ _ _ _ _ _ _ _ _ _ _ _ _
72
65
73
2
40
9.525
49
6.35
74
0
49
-3.175
74
0
0
LTYPE
5
37
330
5
100
AcDbSymbolTableRecord
100
AcDbLinetypeTableRecord
2
DASHEDX2
70
0
3
Dashed (2x) ____  ____  ____  ____  ____  ___
72
65
73
2
40
38.1
49
25.4
74
0
49
-12.7
74
0
0
LTYPE
5
38
330
5
100
AcDbSymbolTableRecord
100
AcDbLinetypeTableRecord
2
DASHDOT
70
0
3
Dash dot __ . __ . __ . __ . __ . __ . __ . __
72
65
73
4
40
25.4
49
12.7
74
0
49
-6.35
74
0
49
0
74
0
49
-6.35
74
0
0
LTYPE
5
39
330
5
100
AcDbSymbolTableRecord
100
AcDbLinetypeTableRecord
2
DASHDOT2
70
0
3
Dash dot (.5x) _._._._._._._._._._._._._._._.
72
65
73
4
40
12.7
49
6.35
74
0
49
-3.175
74
0
49
0
74
0
49
-3.175
74
0
0
LTYPE
5
3A
330
5
100
AcDbSymbolTableRecord
100
AcDbLinetypeTableRecord
2
DASHDOTX2
70
0
3
Dash dot (2x) ____  .  ____  .  ____  .  ___
72
65
73
4
40
50.8
49
25.4
74
0
49
-12.7
74
0
49
0
74
0
49
-12.7
74
0
0
LTYPE
5
3B
330
5
100
AcDbSymbolTableRecord
100
AcDbLinetypeTableRecord
2
DIVIDE
70
0
3
Divide ____ . . ____ . . ____ . . ____ . . ____
72
65
73
6
40
31.75
49
12.7
74
0
49
-6.35
74
0
49
0
74
0
49
-6.35
74
0
49
0
74
0
49
-6.35
74
0
0
LTYPE
5
3C
330
5
100
AcDbSymbolTableRecord
100
AcDbLinetypeTableRecord
2
DIVIDE2
70
0
3
Divide (.5x) __..__..__..__..__..__..__..__.._
72
65
73
6
40
15.875
49
6.35
74
0
49
-3.175
74
0
49
0
74
0
49
-3.175
74
0
49
0
74
0
49
-3.175
74
0
0
LTYPE
5
3D
330
5
100
AcDbSymbolTableRecord
100
AcDbLinetypeTableRecord
2
DIVIDEX2
70
0
3
Divide (2x) ________  .  .  ________  .  .  _
72
65
73
6
40
63.5
49
25.4
74
0
49
-12.7
74
0
49
0
74
0
49
-12.7
74
0
49
0
74
0
49
-12.7
74
0
0
LTYPE
5
3E
330
5
100
AcDbSymbolTableRecord
100
AcDbLinetypeTableRecord
2
BORDER
70
0
3
Border __ __ . __ __ . __ __ . __ __ . __ __ .
72
65
73
6
40
44.45
49
12.7
74
0
49
-6.35
74
0
49
12.7
74
0
49
-6.35
74
0
49
0
74
0
49
-6.35
74
0
0
LTYPE
5
3F
330
5
100
AcDbSymbolTableRecord
100
AcDbLinetypeTableRecord
2
BORDER2
70
0
3
Border (.5x) __.__.__.__.__.__.__.__.__.__.__.
72
65
73
6
40
22.225
49
6.35
74
0
49
-3.175
74
0
49
6.35
74
0
49
-3.175
74
0
49
0
74
0
49
-3.175
74
0
0
LTYPE
5
40
330
5
100
AcDbSymbolTableRecord
100
AcDbLinetypeTableRecord
2
BORDERX2
70
0
3
Border (2x) ____  ____  .  ____  ____  .  ___
72
65
73
6
40
88.9
49
25.4
74
0
49
-12.7
74
0
49
25.4
74
0
49
-12.7
74
0
49
0
74
0
49
-12.7
74
0
0
LTYPE
5
41
330
5
100
AcDbSymbolTableRecord
100
AcDbLinetypeTableRecord
2
CENTER
70
0
3
Center ____ _ ____ _ ____ _ ____ _ ____ _ ____
72
65
73
4
40
50.8
49
31.75
74
0
49
-6.35
74
0
49
6.35
74
0
49
-6.35
74
0
0
LTYPE
5
42
330
5
100
AcDbSymbolTableRecord
100
AcDbLinetypeTableRecord
2
CENTER2
70
0
3
Center (.5x) ___ _ ___ _ ___ _ ___ _ ___ _ ___
72
65
73
4
40
28.575
49
19.05
74
0
49
-3.175
74
0
49
3.175
74
0
49
-3.175
74
0
0
LTYPE
5
43
330
5
100
AcDbSymbolTableRecord
100
AcDbLinetypeTableRecord
2
CENTERX2
70
0
3
Center (2x) ________  __  ________  __  _____
72
65
73
4
40
101.6
49
63.5
74
0
49
-12.7
74
0
49
12.7
74
0
49
-12.7
74
0
0
ENDTAB
0
TABLE
2
LAYER
5
2
330
0
100
AcDbSymbolTable
70
1
0
LAYER
5
10
330
2
100
AcDbSymbolTableRecord
100
AcDbLayerTableRecord
2
0
70
0
62
7
6
CONTINUOUS
370
-3
390
F
0
ENDTAB
0
TABLE
2
STYLE
5
3
330
0
100
AcDbSymbolTable
70
3
0
STYLE
5
44
330
2
100
AcDbSymbolTableRecord
100
AcDbTextStyleTableRecord
2
Standard
70
0
40
0
41
1
50
0
71
0
42
1
3
txt
4

0
ENDTAB
0
TABLE
2
VIEW
5
6
330
0
100
AcDbSymbolTable
70
0
0
ENDTAB
0
TABLE
2
UCS
5
7
330
0
100
AcDbSymbolTable
70
0
0
ENDTAB
0
TABLE
2
APPID
5
9
330
0
100
AcDbSymbolTable
70
1
0
APPID
5
12
330
9
100
AcDbSymbolTableRecord
100
AcDbRegAppTableRecord
2
ACAD
70
0
0
ENDTAB
0
TABLE
2
DIMSTYLE
5
A
330
0
100
AcDbSymbolTable
70
1
100
AcDbDimStyleTable
71
1
0
DIMSTYLE
105
45
330
A
100
AcDbSymbolTableRecord
100
AcDbDimStyleTableRecord
2
Standard
70
0
40
1
41
2.5
42
0.625
43
0.38
44
1.25
45
0
46
0
47
0
48
0
140
2.5
141
0.09
142
0
143
25.4
144
1
145
0
146
1
147
0.625
148
0
71
0
72
0
73
0
74
1
75
0
76
0
77
0
78
0
79
0
170
0
171
2
172
0
173
0
174
0
175
0
176
0
177
0
178
0
179
0
271
4
272
4
273
2
274
2
275
0
276
0
277
2
278
46
279
0
280
0
281
0
282
0
283
1
284
0
285
0
286
0
288
0
289
3
340
Standard
341

371
-2
372
-2
0
ENDTAB
0
TABLE
2
BLOCK_RECORD
5
1
330
0
100
AcDbSymbolTable
70
2
0
BLOCK_RECORD
5
1F
330
1
100
AcDbSymbolTableRecord
100
AcDbBlockTableRecord
2
*Model_Space
70
0
280
1
281
0
0
BLOCK_RECORD
5
1E
330
1
100
AcDbSymbolTableRecord
100
AcDbBlockTableRecord
2
*Paper_Space
70
0
280
1
281
0
0
ENDTAB
0
ENDSEC
0
SECTION
2
BLOCKS
0
BLOCK
5
20
330
1F
100
AcDbEntity
8
0
100
AcDbBlockBegin
2
*Model_Space
70
0
10
0
20
0
30
0
3
*Model_Space
1

0
ENDBLK
5
21
330
1F
100
AcDbEntity
8
0
100
AcDbBlockEnd
0
BLOCK
5
1C
330
1B
100
AcDbEntity
8
0
100
AcDbBlockBegin
2
*Paper_Space
70
0
10
0
20
0
30
0
3
*Paper_Space
1

0
ENDBLK
5
1D
330
1F
100
AcDbEntity
8
0
100
AcDbBlockEnd
0
ENDSEC
0
SECTION
2
ENTITIES
0
LWPOLYLINE
5
46
100
AcDbEntity
8
0
6
ByLayer
62
256
370
-1
100
AcDbPolyline
90
2215
70
1
43
0
10
22.5560649079
20
71.3454448931
10
22.5680826588
20
71.0759317639
10
22.5811275589
20
70.8225971385
10
22.5954191062
20
70.5839214444
10
22.6111767986
20
70.358385109
10
22.6286201342
20
70.1444685598
10
22.6479686108
20
69.9406522242
10
22.6694417265
20
69.7454165297
10
22.6932589792
20
69.5572419037
10
22.7196398668
20
69.3746087737
10
22.7488038875
20
69.1959975671
10
22.7809705391
20
69.0198887113
10
22.8163593195
20
68.8447626337
10
22.8551897269
20
68.669099762
10
22.897681259
20
68.4913805234
10
22.944053414
20
68.3100853454
10
22.9945256898
20
68.1236946555
10
23.0493175843
20
67.9306888811
10
23.1086485955
20
67.7295484497
10
23.1727382214
20
67.5187537886
10
23.2418059599
20
67.2967853254
10
23.3160713091
20
67.0621234875
10
23.3957537668
20
66.8132487024
10
23.4810728312
20
66.5486413974
10
23.572248
20
66.266782
10
23.6802146164
20
65.929937285
10
23.7829650126
20
65.602501924
10
23.8805942669
20
65.2838498996
10
23.9731974576
20
64.9733551943
10
24.0608696633
20
64.6703917907
10
24.1437059621
20
64.3743336713
10
24.2218014326
20
64.0845548187
10
24.2952511532
20
63.8004292153
10
24.3641502021
20
63.5213308438
10
24.4285936577
20
63.2466336868
10
24.4886765986
20
62.9757117266
10
24.5444941029
20
62.7079389459
10
24.5961412492
20
62.4426893273
10
24.6437131157
20
62.1793368532
10
24.6873047809
20
61.9172555063
10
24.7270113232
20
61.655819269
10
24.7629278208
20
61.3944021239
10
24.7951493523
20
61.1323780536
10
24.8237709959
20
60.8691210405
10
24.8488878302
20
60.6040050674
10
24.8705949333
20
60.3364041166
10
24.8889873838
20
60.0656921707
10
24.9041602599
20
59.7912432123
10
24.9162086402
20
59.512431224
10
24.9252276029
20
59.2286301882
10
24.9313122264
20
58.9392140875
10
24.9345575892
20
58.6435569045
10
24.9350587696
20
58.3410326217
10
24.9329108459
20
58.0310152217
10
24.9282088966
20
57.7128786869
10
24.921048
20
57.385997
10
24.9152807118
20
57.1607973045
10
24.9096167222
20
56.9482584809
10
24.9039805536
20
56.7477490847
10
24.8982967284
20
56.5586376715
10
24.892489769
20
56.3802927967
10
24.8864841977
20
56.212083016
10
24.8802045369
20
56.0533768848
10
24.8735753091
20
55.9035429587
10
24.8665210364
20
55.7619497933
10
24.8589662414
20
55.627965944
10
24.8508354464
20
55.5009599664
10
24.8420531738
20
55.3803004161
10
24.8325439459
20
55.2653558485
10
24.8222322851
20
55.1554948193
10
24.8110427138
20
55.0500858839
10
24.7988997544
20
54.9484975979
10
24.7857279292
20
54.8500985168
10
24.7714517607
20
54.7542571962
10
24.7559957711
20
54.6603421916
10
24.7392844828
20
54.5677220586
10
24.7212424183
20
54.4757653526
10
24.7017940999
20
54.3838406292
10
24.6808640499
20
54.291316444
10
24.6583767908
20
54.1975613525
10
24.634256845
20
54.1019439101
10
24.6084287347
20
54.0038326726
10
24.5808169823
20
53.9025961953
10
24.5513461103
20
53.7976030339
10
24.519940641
20
53.6882217438
10
24.4865250968
20
53.5738208807
10
24.451024
20
53.453769
10
24.4294771091
20
53.3805176739
10
24.4079997008
20
53.3060705722
10
24.386625801
20
53.2305790099
10
24.3653894356
20
53.154194302
10
24.3443246304
20
53.0770677634
10
24.3234654112
20
52.999350709
10
24.302845804
20
52.9211944539
10
24.2824998344
20
52.842750313
10
24.2624615285
20
52.7641696013
10
24.242764912
20
52.6856036336
10
24.2234440108
20
52.6072037251
10
24.2045328507
20
52.5291211905
10
24.1860654576
20
52.451507345
10
24.1680758573
20
52.3745135034
10
24.1505980757
20
52.2982909808
10
24.1336661386
20
52.222991092
10
24.1173140719
20
52.1487651521
10
24.1015759014
20
52.075764476
10
24.0864856529
20
52.0041403787
10
24.0720773524
20
51.9340441751
10
24.0583850255
20
51.8656271801
10
24.0454426983
20
51.7990407088
10
24.0332843966
20
51.7344360762
10
24.0219441461
20
51.6719645971
10
24.0114559727
20
51.6117775865
10
24.0018539024
20
51.5540263594
10
23.9931719609
20
51.4988622308
10
23.985444174
20
51.4464365156
10
23.9787045677
20
51.3969005287
10
23.9729871677
20
51.3504055852
10
23.968326
20
51.307103
10
23.9618309352
20
51.2398335102
10
23.9560352341
20
51.1758465276
10
23.9509932009
20
51.1148969282
10
23.9467591399
20
51.0567395874
10
23.9433873556
20
51.0011293811
10
23.9409321522
20
50.947821185
10
23.939447834
20
50.8965698746
10
23.9389887054
20
50.8471303258
10
23.9396090706
20
50.7992574143
10
23.9413632341
20
50.7527060157
10
23.9443055
20
50.7072310057
10
23.9484901728
20
50.6625872601
10
23.9539715567
20
50.6185296545
10
23.9608039562
20
50.5748130647
10
23.9690416754
20
50.5311923663
10
23.9787390187
20
50.487422435
10
23.9899502905
20
50.4432581466
10
24.002729795
20
50.3984543767
10
24.0171318366
20
50.3527660011
10
24.0332107195
20
50.3059478954
10
24.0510207482
20
50.2577549354
10
24.070616227
20
50.2079419967
10
24.0920514601
20
50.1562639551
10
24.1153807518
20
50.1024756862
10
24.1406584066
20
50.0463320658
10
24.1679387287
20
49.9875879696
10
24.1972760224
20
49.9259982731
10
24.2287245921
20
49.8613178523
10
24.262338742
20
49.7933015827
10
24.2981727765
20
49.72170434
10
24.336281
20
49.646281
10
24.3596804628
20
49.5998240418
10
24.3824508233
20
49.5539773364
10
24.4045689104
20
49.5088027829
10
24.4260115531
20
49.4643622803
10
24.4467555804
20
49.4207177275
10
24.4667778213
20
49.3779310238
10
24.4860551046
20
49.336064068
10
24.5045642595
20
49.2951787592
10
24.5222821149
20
49.2553369964
10
24.5391854997
20
49.2166006788
10
24.5552512429
20
49.1790317052
10
24.5704561736
20
49.1426919747
10
24.5847771206
20
49.1076433864
10
24.598190913
20
49.0739478393
10
24.6106743797
20
49.0416672324
10
24.6222043497
20
49.0108634648
10
24.632757652
20
48.9815984354
10
24.6423111156
20
48.9539340433
10
24.6508415694
20
48.9279321876
10
24.6583258424
20
48.9036547672
10
24.6647407636
20
48.8811636813
10
24.6700631619
20
48.8605208287
10
24.6742698664
20
48.8417881087
10
24.677337706
20
48.8250274201
10
24.6792435097
20
48.810300662
10
24.6799641064
20
48.7976697334
10
24.6794763251
20
48.7871965335
10
24.6777569949
20
48.7789429611
10
24.6747829446
20
48.7729709154
10
24.6705310034
20
48.7693422954
10
24.664978
20
48.768119
10
24.6421408636
20
48.7719855431
10
24.6138195205
20
48.783302475
10
24.580399425
20
48.8016457495
10
24.542266031
20
48.8265913204
10
24.4998047928
20
48.8577151415
10
24.4534011645
20
48.8945931666
10
24.4034406002
20
48.9368013495
10
24.3503085541
20
48.9839156441
10
24.2943904802
20
49.0355120041
10
24.2360718327
20
49.0911663834
10
24.1757380658
20
49.1504547358
10
24.1137746335
20
49.2129530151
10
24.05056699
20
49.2782371751
10
23.9865005894
20
49.3458831696
10
23.9219608859
20
49.4154669524
10
23.8573333336
20
49.4865644774
10
23.7930033866
20
49.5587516983
10
23.7293564991
20
49.6316045689
10
23.6667781251
20
49.7046990432
10
23.6056537188
20
49.7776110748
10
23.5463687344
20
49.8499166176
10
23.489308626
20
49.9211916254
10
23.4348588476
20
49.9910120521
10
23.3834048535
20
50.0589538513
10
23.3353320977
20
50.124592977
10
23.2910260344
20
50.187505383
10
23.2508721178
20
50.247267023
10
23.2152558019
20
50.3034538509
10
23.1845625409
20
50.3556418205
10
23.1591777889
20
50.4034068856
10
23.139487
20
50.446325
10
23.1305333385
20
50.4676648989
10
23.1214717285
20
50.488720605
10
23.1123197159
20
50.5094637781
10
23.1030948465
20
50.5298660776
10
23.0938146662
20
50.5498991632
10
23.0844967209
20
50.5695346943
10
23.0751585562
20
50.5887443305
10
23.0658177181
20
50.6074997314
10
23.0564917525
20
50.6257725566
10
23.0471982051
20
50.6435344656
10
23.0379546217
20
50.660757118
10
23.0287785483
20
50.6774121733
10
23.0196875307
20
50.6934712911
10
23.0106991146
20
50.708906131
10
23.001830846
20
50.7236883525
10
22.9931002706
20
50.7377896152
10
22.9845249343
20
50.7511815787
10
22.976122383
20
50.7638359024
10
22.9679101624
20
50.775724246
10
22.9599058184
20
50.7868182691
10
22.9521268969
20
50.7970896312
10
22.9445909437
20
50.8065099918
10
22.9373155045
20
50.8150510105
10
22.9303181254
20
50.8226843469
10
22.923616352
20
50.8293816606
10
22.9172277302
20
50.835114611
10
22.9111698059
20
50.8398548578
10
22.9054601249
20
50.8435740606
10
22.900116233
20
50.8462438788
10
22.8951556761
20
50.8478359721
10
22.890596
20
50.848322
10
22.8857608026
20
50.8469615081
10
22.8799829761
20
50.8429261603
10
22.8732940083
20
50.8362851488
10
22.8657253866
20
50.8271076655
10
22.8573085986
20
50.8154629025
10
22.8480751319
20
50.8014200518
10
22.838056474
20
50.7850483054
10
22.8272841125
20
50.7664168555
10
22.815789535
20
50.745594894
10
22.803604229
20
50.722651613
10
22.7907596821
20
50.6976562045
10
22.7772873818
20
50.6706778605
10
22.7632188158
20
50.6417857731
10
22.7485854715
20
50.6110491344
10
22.7334188366
20
50.5785371363
10
22.7177503986
20
50.5443189709
10
22.701611645
20
50.5084638303
10
22.6850340635
20
50.4710409064
10
22.6680491416
20
50.4321193913
10
22.6506883668
20
50.3917684771
10
22.6329832268
20
50.3500573558
10
22.614965209
20
50.3070552194
10
22.5966658011
20
50.26283126
10
22.5781164906
20
50.2174546696
10
22.5593487651
20
50.1709946402
10
22.5403941121
20
50.1235203639
10
22.5212840192
20
50.0751010328
10
22.502049974
20
50.0258058387
10
22.482723464
20
49.9757039739
10
22.4633359768
20
49.9248646303
10
22.443919
20
49.873357
10
22.400895217
20
49.7606190636
10
22.3574329005
20
49.6509108159
10
22.3134276314
20
49.5440905988
10
22.2687749907
20
49.4400167547
10
22.2233705594
20
49.3385476255
10
22.1771099183
20
49.2395415535
10
22.1298886484
20
49.1428568806
10
22.0816023307
20
49.0483519491
10
22.0321465461
20
48.955885101
10
21.9814168755
20
48.8653146785
10
21.9293089
20
48.7764990237
10
21.8757182004
20
48.6892964786
10
21.8205403578
20
48.6035653855
10
21.7636709529
20
48.5191640864
10
21.7050055669
20
48.4359509235
10
21.6444397806
20
48.3537842388
10
21.5818691751
20
48.2725223745
10
21.5171893311
20
48.1920236728
10
21.4502958297
20
48.1121464756
10
21.3810842519
20
48.0327491251
10
21.3094501786
20
47.9536899635
10
21.2352891907
20
47.8748273329
10
21.1584968691
20
47.7960195754
10
21.0789687949
20
47.717125033
10
20.996600549
20
47.638002048
10
20.9112877122
20
47.5585089624
10
20.8229258657
20
47.4785041184
10
20.7314105902
20
47.397845858
10
20.6366374668
20
47.3163925234
10
20.5385020764
20
47.2340024567
10
20.4369
20
47.150534
10
19.626214
20
46.491319
10
19.687082
20
44.669913
10
19.6904017379
20
44.5647643592
10
19.6938751168
20
44.4435981046
10
19.6974928037
20
44.3069874154
10
19.7012454655
20
44.1555054707
10
19.7051237692
20
43.9897254497
10
19.7091183817
20
43.8102205315
10
19.7132199702
20
43.6175638953
10
19.7174192014
20
43.4123287202
10
19.7217067425
20
43.1950881853
10
19.7260732604
20
42.9664154699
10
19.7305094221
20
42.726883753
10
19.7350058946
20
42.4770662138
10
19.7395533448
20
42.2175360315
10
19.7441424397
20
41.9488663851
10
19.7487638464
20
41.6716304539
10
19.7534082317
20
41.386401417
10
19.7580662627
20
41.0937524536
10
19.7627286063
20
40.7942567427
10
19.7673859295
20
40.4884874636
10
19.7720288994
20
40.1770177954
10
19.7766481828
20
39.8604209172
10
19.7812344468
20
39.5392700082
10
19.7857783584
20
39.2141382476
10
19.7902705845
20
38.8855988144
10
19.7947017921
20
38.5542248878
10
19.7990626481
20
38.220589647
10
19.8033438196
20
37.8852662712
10
19.8075359736
20
37.5488279394
10
19.811629777
20
37.2118478309
10
19.8156158968
20
36.8748991247
10
19.819485
20
36.538555
10
19.8271209728
20
35.8884571831
10
19.8349706472
20
35.2698471787
10
19.8431057539
20
34.6815487369
10
19.8515980237
20
34.1223856076
10
19.8605191872
20
33.5911815411
10
19.8699409752
20
33.0867602872
10
19.8799351184
20
32.6079455962
10
19.8905733475
20
32.153561218
10
19.9019273933
20
31.7224309027
10
19.9140689864
20
31.3133784004
10
19.9270698577
20
30.925227461
10
19.9410017378
20
30.5568018348
10
19.9559363575
20
30.2069252717
10
19.9719454474
20
29.8744215218
10
19.9891007383
20
29.5581143352
10
20.007473961
20
29.2568274619
10
20.0271368461
20
28.9693846519
10
20.0481611243
20
28.6946096554
10
20.0706185265
20
28.4313262224
10
20.0945807833
20
28.178358103
10
20.1201196254
20
27.9345290471
10
20.1473067836
20
27.6986628049
10
20.1762139886
20
27.4695831264
10
20.2069129711
20
27.2461137618
10
20.2394754619
20
27.0270784609
10
20.2739731916
20
26.811300974
10
20.310477891
20
26.5976050511
10
20.3490612908
20
26.3848144421
10
20.3897951218
20
26.1717528973
10
20.4327511146
20
25.9572441665
10
20.478001
20
25.740112
10
20.5180814246
20
25.5487347252
10
20.5562081592
20
25.3617342466
10
20.5923752664
20
25.1791798413
10
20.6265768085
20
25.0011407864
10
20.6588068481
20
24.8276863589
10
20.6890594475
20
24.6588858357
10
20.7173286691
20
24.494808494
10
20.7436085754
20
24.3355236108
10
20.7678932289
20
24.181100463
10
20.790176692
20
24.0316083277
10
20.8104530271
20
23.8871164821
10
20.8287162966
20
23.7476942029
10
20.844960563
20
23.6134107674
10
20.8591798887
20
23.4843354526
10
20.8713683361
20
23.3605375354
10
20.8815199677
20
23.2420862929
10
20.889628846
20
23.1290510021
10
20.8956890333
20
23.0215009401
10
20.8996945921
20
22.9195053839
10
20.9016395848
20
22.8231336106
10
20.9015180739
20
22.732454897
10
20.8993241217
20
22.6475385204
10
20.8950517908
20
22.5684537576
10
20.8886951436
20
22.4952698858
10
20.8802482425
20
22.428056182
10
20.8697051498
20
22.3668819231
10
20.8570599282
20
22.3118163863
10
20.84230664
20
22.2629288486
10
20.8254393476
20
22.2202885869
10
20.8064521134
20
22.1839648784
10
20.785339
20
22.154027
10
20.7162651413
20
22.0759260876
10
20.637058149
20
21.9956408143
10
20.548210028
20
21.9134179243
10
20.4502127831
20
21.8295041617
10
20.3435584191
20
21.7441462708
10
20.2287389409
20
21.6575909956
10
20.1062463533
20
21.5700850805
10
19.9765726612
20
21.4818752696
10
19.8402098693
20
21.3932083071
10
19.6976499825
20
21.3043309371
10
19.5493850057
20
21.2154899039
10
19.3959069436
20
21.1269319516
10
19.2377078011
20
21.0389038244
10
19.0752795831
20
20.9516522665
10
18.9091142944
20
20.8654240221
10
18.7397039397
20
20.7804658354
10
18.5675405241
20
20.6970244505
10
18.3931160521
20
20.6153466116
10
18.2169225288
20
20.535679063
10
18.0394519589
20
20.4582685488
10
17.8611963474
20
20.3833618132
10
17.6826476989
20
20.3112056003
10
17.5042980183
20
20.2420466544
10
17.3266393106
20
20.1761317197
10
17.1501635804
20
20.1137075403
10
16.9753628327
20
20.0550208604
10
16.8027290723
20
20.0003184242
10
16.632754304
20
19.9498469758
10
16.4659305326
20
19.9038532596
10
16.302749763
20
19.8625840196
10
16.143704
20
19.826286
10
15.723485
20
19.735919
10
15.946352
20
20.337221
10
15.9646719421
20
20.3869129054
10
15.9817981109
20
20.4339581993
10
15.9977343108
20
20.4784488613
10
16.0124843461
20
20.5204768711
10
16.0260520211
20
20.5601342082
10
16.0384411401
20
20.5975128522
10
16.0496555074
20
20.6327047827
10
16.0596989273
20
20.6658019792
10
16.0685752041
20
20.6968964215
10
16.0762881421
20
20.726080089
10
16.0828415456
20
20.7534449614
10
16.088239219
20
20.7790830182
10
16.0924849664
20
20.8030862391
10
16.0955825923
20
20.8255466036
10
16.0975359008
20
20.8465560913
10
16.0983486965
20
20.8662066819
10
16.0980247834
20
20.8845903548
10
16.096567966
20
20.9017990898
10
16.0939820485
20
20.9179248663
10
16.0902708352
20
20.933059664
10
16.0854381305
20
20.9472954625
10
16.0794877386
20
20.9607242414
10
16.0724234639
20
20.9734379802
10
16.0642491107
20
20.9855286586
10
16.0549684832
20
20.9970882561
10
16.0445853857
20
21.0082087523
10
16.0331036226
20
21.0189821268
10
16.0205269982
20
21.0295003593
10
16.0068593168
20
21.0398554292
10
15.9921043826
20
21.0501393163
10
15.976266
20
21.060444
10
15.9437751806
20
21.0802358577
10
15.9127124395
20
21.0976166036
10
15.8830443526
20
21.1125368033
10
15.8547374954
20
21.1249470224
10
15.8277584439
20
21.1347978265
10
15.8020737736
20
21.1420397812
10
15.7776500605
20
21.1466234521
10
15.7544538801
20
21.1484994049
10
15.7324518083
20
21.1476182051
10
15.7116104208
20
21.1439304184
10
15.6918962933
20
21.1373866103
10
15.6732760017
20
21.1279373464
10
15.6557161215
20
21.1155331925
10
15.6391832287
20
21.100124714
10
15.6236438989
20
21.0816624766
10
15.6090647078
20
21.0600970458
10
15.5954122312
20
21.0353789874
10
15.5826530449
20
21.0074588668
10
15.5707537246
20
20.9762872498
10
15.5596808461
20
20.9418147019
10
15.549400985
20
20.9039917887
10
15.5398807172
20
20.8627690758
10
15.5310866183
20
20.8180971289
10
15.5229852642
20
20.7699265135
10
15.5155432305
20
20.7182077953
10
15.5087270931
20
20.6628915398
10
15.5025034276
20
20.6039283127
10
15.4968388098
20
20.5412686795
10
15.4916998154
20
20.474863206
10
15.4870530202
20
20.4046624576
10
15.482865
20
20.330617
10
15.4788120583
20
20.2174731917
10
15.4773746988
20
20.0857064834
10
15.4784322162
20
19.9366634987
10
15.4818639054
20
19.771690861
10
15.4875490615
20
19.5921351937
10
15.4953669791
20
19.3993431205
10
15.5051969533
20
19.1946612647
10
15.5169182789
20
18.9794362498
10
15.5304102508
20
18.7550146994
10
15.5455521639
20
18.5227432368
10
15.5622233131
20
18.2839684855
10
15.5803029932
20
18.0400370691
10
15.5996704992
20
17.7922956111
10
15.6202051259
20
17.5420907348
10
15.6417861683
20
17.2907690637
10
15.6642929212
20
17.0396772214
10
15.6876046795
20
16.7901618313
10
15.711600738
20
16.5435695169
10
15.7361603918
20
16.3012469017
10
15.7611629356
20
16.0645406091
10
15.7864876644
20
15.8347972627
10
15.812013873
20
15.6133634859
10
15.8376208564
20
15.4015859021
10
15.8631879093
20
15.2008111349
10
15.8885943268
20
15.0123858077
10
15.9137194037
20
14.837656544
10
15.9384424348
20
14.6779699673
10
15.9626427151
20
14.5346727011
10
15.9861995395
20
14.4091113688
10
16.0089922028
20
14.302632594
10
16.0309
20
14.216583
10
16.0406609852
20
14.181950425
10
16.050538816
20
14.1463377298
10
16.060514386
20
14.1098267818
10
16.0705685885
20
14.0724994483
10
16.0806823171
20
14.0344375967
10
16.0908364654
20
13.9957230943
10
16.1010119267
20
13.9564378084
10
16.1111895946
20
13.9166636064
10
16.1213503625
20
13.8764823556
10
16.131475124
20
13.8359759234
10
16.1415447726
20
13.7952261771
10
16.1515402017
20
13.754314984
10
16.1614423048
20
13.7133242116
10
16.1712319754
20
13.6723357271
10
16.1808901071
20
13.6314313978
10
16.1903975932
20
13.5906930912
10
16.1997353274
20
13.5502026746
10
16.208884203
20
13.5100420153
10
16.2178251136
20
13.4702929806
10
16.2265389527
20
13.4310374379
10
16.2350066137
20
13.3923572546
10
16.2432089902
20
13.3543342979
10
16.2511269757
20
13.3170504353
10
16.2587414635
20
13.280587534
10
16.2660333473
20
13.2450274614
10
16.2729835205
20
13.2104520849
10
16.2795728766
20
13.1769432718
10
16.2857823092
20
13.1445828894
10
16.2915927116
20
13.113452805
10
16.2969849773
20
13.0836348861
10
16.30194
20
13.055211
10
16.3070791747
20
13.0261644494
10
16.3130173041
20
12.9944997312
10
16.3197259733
20
12.960330214
10
16.3271767677
20
12.9237692661
10
16.3353412725
20
12.8849302558
10
16.3441910729
20
12.8439265517
10
16.3536977542
20
12.800871522
10
16.3638329016
20
12.7558785353
10
16.3745681004
20
12.7090609599
10
16.3858749357
20
12.6605321641
10
16.3977249929
20
12.6104055165
10
16.4100898572
20
12.5587943853
10
16.4229411138
20
12.5058121391
10
16.436250348
20
12.4515721461
10
16.449989145
20
12.3961877749
10
16.4641290901
20
12.3397723937
10
16.4786417685
20
12.2824393711
10
16.4934987655
20
12.2243020753
10
16.5086716662
20
12.1654738748
10
16.524132056
20
12.1060681381
10
16.5398515201
20
12.0461982334
10
16.5558016437
20
11.9859775292
10
16.571954012
20
11.9255193939
10
16.5882802104
20
11.864937196
10
16.604751824
20
11.8043443037
10
16.6213404382
20
11.7438540855
10
16.6380176381
20
11.6835799098
10
16.654755009
20
11.623635145
10
16.6715241361
20
11.5641331595
10
16.6882966047
20
11.5051873217
10
16.705044
20
11.446911
10
16.7415116906
20
11.3196263953
10
16.7755483992
20
11.1984314838
10
16.8071541615
20
11.0829333616
10
16.8363290129
20
10.9727391246
10
16.8630729893
20
10.8674558688
10
16.8873861262
20
10.76669069
10
16.9092684593
20
10.6700506844
10
16.9287200243
20
10.5771429479
10
16.9457408568
20
10.4875745764
10
16.9603309924
20
10.4009526659
10
16.9724904668
20
10.3168843124
10
16.9822193156
20
10.2349766119
10
16.9895175746
20
10.1548366603
10
16.9943852792
20
10.0760715535
10
16.9968224653
20
9.99828838763
10
16.9968291684
20
9.92109425857
10
16.9944054242
20
9.84409626229
10
16.9895512683
20
9.76690149478
10
16.9822667364
20
9.689117052
10
16.9725518641
20
9.61035002991
10
16.9604066871
20
9.53020752449
10
16.945831241
20
9.4482966317
10
16.9288255615
20
9.36422444752
10
16.9093896843
20
9.27759806791
10
16.8875236449
20
9.18802458884
10
16.863227479
20
9.09511110627
10
16.8365012222
20
8.99846471619
10
16.8073449103
20
8.89769251455
10
16.7757585789
20
8.79240159733
10
16.7417422636
20
8.68219906049
10
16.705296
20
8.566692
10
16.6887312603
20
8.51385535833
10
16.6721287669
20
8.45930471055
10
16.6555169474
20
8.40317039186
10
16.6389242292
20
8.34558273747
10
16.6223790397
20
8.28667208258
10
16.6059098063
20
8.22656876238
10
16.5895449566
20
8.16540311208
10
16.5733129179
20
8.10330546689
10
16.5572421177
20
8.040406162
10
16.5413609834
20
7.97683553261
10
16.5256979425
20
7.91272391393
10
16.5102814224
20
7.84820164117
10
16.4951398507
20
7.78339904951
10
16.4803016546
20
7.71844647417
10
16.4657952617
20
7.65347425034
10
16.4516490994
20
7.58861271324
10
16.4378915951
20
7.52399219805
10
16.4245511764
20
7.45974303998
10
16.4116562706
20
7.39599557423
10
16.3992353052
20
7.33288013601
10
16.3873167076
20
7.27052706052
10
16.3759289052
20
7.20906668296
10
16.3651003256
20
7.14862933853
10
16.3548593962
20
7.08934536242
10
16.3452345444
20
7.03134508986
10
16.3362541976
20
6.97475885603
10
16.3279467833
20
6.91971699614
10
16.3203407289
20
6.86634984539
10
16.313464462
20
6.81478773898
10
16.3073464099
20
6.76516101212
10
16.302015
20
6.7176
10
16.2969052448
20
6.67110983294
10
16.2914452498
20
6.62465952093
10
16.2856522112
20
6.57832521872
10
16.2795433252
20
6.53218308106
10
16.273135788
20
6.4863092627
10
16.2664467958
20
6.44077991836
10
16.2594935448
20
6.39567120281
10
16.2522932311
20
6.35105927079
10
16.2448630511
20
6.30702027703
10
16.2372202009
20
6.26363037629
10
16.2293818767
20
6.22096572331
10
16.2213652746
20
6.17910247283
10
16.213187591
20
6.1381167796
10
16.204866022
20
6.09808479836
10
16.1964177638
20
6.05908268386
10
16.1878600125
20
6.02118659085
10
16.1792099645
20
5.98447267406
10
16.1704848159
20
5.94901708825
10
16.1617017628
20
5.91489598815
10
16.1528780016
20
5.88218552852
10
16.1440307283
20
5.85096186409
10
16.1351771393
20
5.82130114961
10
16.1263344307
20
5.79327953983
10
16.1175197986
20
5.76697318949
10
16.1087504394
20
5.74245825333
10
16.1000435492
20
5.71981088611
10
16.0914163241
20
5.69910724256
10
16.0828859605
20
5.68042347743
10
16.0744696545
20
5.66383574546
10
16.0661846022
20
5.6494202014
10
16.058048
20
5.637253
10
16.0454699934
20
5.62177353644
10
16.0306914081
20
5.60685337474
10
16.0135595571
20
5.59246876164
10
15.9939217537
20
5.57859594384
10
15.9716253108
20
5.56521116807
10
15.9465175415
20
5.55229068104
10
15.9184457589
20
5.53981072948
10
15.8872572761
20
5.5277475601
10
15.8527994062
20
5.51607741962
10
15.8149194622
20
5.50477655476
10
15.7734647572
20
5.49382121225
10
15.7282826044
20
5.48318763878
10
15.6792203168
20
5.4728520811
10
15.6261252074
20
5.46279078591
10
15.5688445894
20
5.45297999993
10
15.5072257758
20
5.44339596989
10
15.4411160798
20
5.4340149425
10
15.3703628143
20
5.42481316448
10
15.2948132926
20
5.41576688255
10
15.2143148276
20
5.40685234343
10
15.1287147324
20
5.39804579383
10
15.0378603202
20
5.38932348048
10
14.9415989039
20
5.3806616501
10
14.8397777968
20
5.37203654939
10
14.7322443118
20
5.36342442509
10
14.6188457621
20
5.35480152392
10
14.4994294607
20
5.34614409258
10
14.3738427207
20
5.3374283778
10
14.2419328552
20
5.3286306263
10
14.1035471773
20
5.31972708479
10
13.958533
20
5.310694
10
13.8541130614
20
5.30418849753
10
13.7483740718
20
5.29741105414
10
13.6415221415
20
5.29037923359
10
13.5337633809
20
5.28311059964
10
13.4253039001
20
5.27562271606
10
13.3163498096
20
5.26793314659
10
13.2071072196
20
5.260059455
10
13.0977822404
20
5.25201920506
10
12.9885809823
20
5.24382996052
10
12.8797095557
20
5.23550928515
10
12.7713740708
20
5.22707474271
10
12.6637806379
20
5.21854389695
10
12.5571353673
20
5.20993431164
10
12.4516443694
20
5.20126355054
10
12.3475137544
20
5.1925491774
10
12.2449496327
20
5.183808756
10
12.1441581145
20
5.17505985009
10
12.0453453101
20
5.16632002343
10
11.9487173299
20
5.15760683978
10
11.8544802841
20
5.14893786291
10
11.762840283
20
5.14033065657
10
11.674003437
20
5.13180278453
10
11.5881758564
20
5.12337181055
10
11.5055636514
20
5.11505529838
10
11.4263729324
20
5.10687081179
10
11.3508098096
20
5.09883591454
10
11.2790803933
20
5.09096817039
10
11.211390794
20
5.0832851431
10
11.1479471217
20
5.07580439643
10
11.088955487
20
5.06854349414
10
11.034622
20
5.06152
10
10.9811491249
20
5.05465489477
10
10.9247104828
20
5.04786913732
10
10.8654686296
20
5.04117212957
10
10.8035861207
20
5.0345732734
10
10.739225512
20
5.02808197073
10
10.672549359
20
5.02170762344
10
10.6037202175
20
5.01545963345
10
10.5329006431
20
5.00934740264
10
10.4602531915
20
5.00338033292
10
10.3859404183
20
4.99756782619
10
10.3101248793
20
4.99191928435
10
10.2329691301
20
4.98644410929
10
10.1546357263
20
4.98115170293
10
10.0752872237
20
4.97605146715
10
9.99508617794
20
4.97115280387
10
9.91419514464
20
4.96646511497
10
9.8327766795
20
4.96199780236
10
9.75099333819
20
4.95776026793
10
9.66900767638
20
4.9537619136
10
9.58698224974
20
4.95001214125
10
9.50507961394
20
4.94652035279
10
9.42346232466
20
4.94329595012
10
9.34229293757
20
4.94034833513
10
9.26173400832
20
4.93768690974
10
9.18194809261
20
4.93532107583
10
9.1030977461
20
4.93326023531
10
9.02534552445
20
4.93151379007
10
8.94885398335
20
4.93009114202
10
8.87378567846
20
4.92900169306
10
8.80030316545
20
4.92825484509
10
8.728569
20
4.92786
10
7.398252
20
4.923909
10
7.474939
20
4.501083
10
7.47934103014
20
4.47711577963
10
7.48436838995
20
4.4502978177
10
7.48999820929
20
4.4207398565
10
7.49620761804
20
4.38855263835
10
7.50297374606
20
4.35384690554
10
7.51027372324
20
4.31673340039
10
7.51808467943
20
4.27732286519
10
7.52638374452
20
4.23572604226
10
7.53514804837
20
4.19205367389
10
7.54435472086
20
4.1464165024
10
7.55398089185
20
4.09892527008
10
7.56400369122
20
4.04969071924
10
7.57440024883
20
3.99882359219
10
7.58514769457
20
3.94643463123
10
7.5962231583
20
3.89263457866
10
7.6076037699
20
3.8375341768
10
7.61926665923
20
3.78124416794
10
7.63118895616
20
3.72387529438
10
7.64334779057
20
3.66553829845
10
7.65572029234
20
3.60634392243
10
7.66828359132
20
3.54640290863
10
7.68101481739
20
3.48582599936
10
7.69389110043
20
3.42472393693
10
7.70688957031
20
3.36320746363
10
7.71998735689
20
3.30138732178
10
7.73316159004
20
3.23937425367
10
7.74638939965
20
3.17727900161
10
7.75964791558
20
3.11521230791
10
7.7729142677
20
3.05328491487
10
7.78616558588
20
2.9916075648
10
7.799379
20
2.930291
10
7.83249360595
20
2.76981417354
10
7.86138160414
20
2.61470366826
10
7.88601403924
20
2.46488299366
10
7.90636195593
20
2.32027565926
10
7.92239639888
20
2.18080517458
10
7.93408841278
20
2.04639504914
10
7.94140904229
20
1.91696879245
10
7.94432933211
20
1.79244991403
10
7.94282032691
20
1.6727619234
10
7.93685307136
20
1.55782833007
10
7.92639861015
20
1.44757264355
10
7.91142798795
20
1.34191837337
10
7.89191224944
20
1.24078902904
10
7.86782243929
20
1.14410812007
10
7.8391296022
20
1.05179915599
10
7.80580478282
20
0.963785646303
10
7.76781902585
20
0.879991100534
10
7.72514337595
20
0.800339028196
10
7.67774887782
20
0.724752938807
10
7.62560657611
20
0.653156341882
10
7.56868751552
20
0.585472746937
10
7.50696274073
20
0.521625663489
10
7.4404032964
20
0.461538601054
10
7.36898022722
20
0.405135069148
10
7.29266457786
20
0.352338577288
10
7.211427393
20
0.30307263499
10
7.12523971733
20
0.257260751771
10
7.03407259552
20
0.214826437145
10
6.93789707224
20
0.175693200631
10
6.83668419217
20
0.139784551744
10
6.730405
20
0.107024
10
6.68573923524
20
0.0952965140814
10
6.63601591417
20
0.0842227723809
10
6.5815571579
20
0.0738079134974
10
6.52268508754
20
0.0640570760297
10
6.45972182421
20
0.0549753985768
10
6.39298948901
20
0.0465680197375
10
6.32281020305
20
0.0388400781108
10
6.24950608744
20
0.0317967122957
10
6.1733992633
20
0.0254430608909
10
6.09481185173
20
0.0197842624954
10
6.01406597385
20
0.0148254557081
10
5.93148375076
20
0.0105717791279
10
5.84738730358
20
0.00702837135376
10
5.76209875342
20
0.00420037098453
10
5.67594022138
20
0.00209291661911
10
5.58923382857
20
0.000711146856433
10
5.50230169612
20
6.02002953912e-05
10
5.41546594512
20
0.000145215534893
10
5.32904869669
20
0.000971331173844
10
5.24337207193
20
0.00254368581115
10
5.15875819197
20
0.00486741804572
10
5.07552917791
20
0.00794766647645
10
4.99400715085
20
0.0117895697023
10
4.91451423192
20
0.016398266322
10
4.83737254221
20
0.0217788949347
10
4.76290420285
20
0.0279365941392
10
4.69143133493
20
0.0348765025343
10
4.62327605958
20
0.0426037587191
10
4.5587604979
20
0.0511235012923
10
4.498206771
20
0.060440868853
10
4.441937
20
0.070561
10
4.441937
20
0.070561
10
4.441947
20
0.070505
10
4.4079272773
20
0.0785344207311
10
4.37249851912
20
0.0895761306771
10
4.3357919855
20
0.103503495015
10
4.29793893649
20
0.120189878923
10
4.25907063214
20
0.139508647578
10
4.21931833248
20
0.161333166158
10
4.17881329757
20
0.185536799839
10
4.13768678745
20
0.211992913799
10
4.09607006217
20
0.240574873217
10
4.05409438176
20
0.271156043268
10
4.01189100628
20
0.303609789131
10
3.96959119576
20
0.337809475983
10
3.92732621026
20
0.373628469001
10
3.88522730983
20
0.410940133362
10
3.84342575449
20
0.449617834245
10
3.8020528043
20
0.489534936827
10
3.76123971931
20
0.530564806284
10
3.72111775956
20
0.572580807794
10
3.68181818509
20
0.615456306536
10
3.64347225595
20
0.659064667685
10
3.60621123218
20
0.70327925642
10
3.57016637384
20
0.747973437917
10
3.53546894096
20
0.793020577356
10
3.50225019358
20
0.838294039911
10
3.47064139176
20
0.883667190762
10
3.44077379554
20
0.929013395086
10
3.41277866497
20
0.974206018059
10
3.38678726008
20
1.01911842486
10
3.36293084093
20
1.06362398067
10
3.34134066755
20
1.10759605065
10
3.322148
20
1.150908
10
3.31431235108
20
1.1733909428
10
3.30667158283
20
1.20280670162
10
3.29923070494
20
1.23902631724
10
3.29199472713
20
1.28192083045
10
3.28496865909
20
1.33136128203
10
3.27815751052
20
1.38721871277
10
3.27156629113
20
1.44936416344
10
3.26520001061
20
1.51766867483
10
3.25906367866
20
1.59200328774
10
3.25316230499
20
1.67223904293
10
3.2475008993
20
1.7582469812
10
3.24208447128
20
1.84989814333
10
3.23691803065
20
1.94706357011
10
3.23200658709
20
2.04961430231
10
3.22735515031
20
2.15742138072
10
3.22296873002
20
2.27035584613
10
3.21885233591
20
2.38828873932
10
3.21501097768
20
2.51109110107
10
3.21144966503
20
2.63863397217
10
3.20817340767
20
2.77078839341
10
3.2051872153
20
2.90742540556
10
3.20249609761
20
3.04841604941
10
3.20010506431
20
3.19363136575
10
3.1980191251
20
3.34294239535
10
3.19624328968
20
3.49622017901
10
3.19478256776
20
3.65333575751
10
3.19364196902
20
3.81416017163
10
3.19282650317
20
3.97856446215
10
3.19234117992
20
4.14641966987
10
3.19219100896
20
4.31759683555
10
3.192381
20
4.491967
10
3.1929832008
20
4.71732881504
10
3.19385375936
20
4.93298856927
10
3.19500857766
20
5.13922059726
10
3.19646355769
20
5.33629923363
10
3.19823460142
20
5.52449881296
10
3.20033761086
20
5.70409366987
10
3.20278848797
20
5.87535813893
10
3.20560313474
20
6.03856655476
10
3.20879745316
20
6.19399325196
10
3.2123873452
20
6.3419125651
10
3.21638871287
20
6.48259882881
10
3.22081745812
20
6.61632637766
10
3.22568948296
20
6.74336954627
10
3.23102068937
20
6.86400266923
10
3.23682697932
20
6.97850008113
10
3.24312425481
20
7.08713611658
10
3.24992841781
20
7.19018511017
10
3.25725537031
20
7.2879213965
10
3.2651210143
20
7.38061931016
10
3.27354125175
20
7.46855318576
10
3.28253198466
20
7.55199735789
10
3.292109115
20
7.63122616116
10
3.30228854476
20
7.70651393015
10
3.31308617593
20
7.77813499946
10
3.32451791048
20
7.8463637037
10
3.3365996504
20
7.91147437746
10
3.34934729767
20
7.97374135534
10
3.36277675429
20
8.03343897194
10
3.37690392222
20
8.09084156185
10
3.39174470347
20
8.14622345967
10
3.407315
20
8.199859
10
3.4285470431
20
8.28038650831
10
3.45298896395
20
8.39123348061
10
3.48044235309
20
8.53086903961
10
3.51070880108
20
8.69776230798
10
3.54358989846
20
8.89038240841
10
3.57888723578
20
9.1071984636
10
3.61640240358
20
9.34667959622
10
3.65593699241
20
9.60729492897
10
3.69729259283
20
9.88751358454
10
3.74027079537
20
10.1858046856
10
3.78467319059
20
10.5006373549
10
3.83030136904
20
10.830480715
10
3.87695692125
20
11.1738038887
10
3.92444143778
20
11.5290759987
10
3.97255650918
20
11.8947661676
10
4.02110372599
20
12.2693435181
10
4.06988467876
20
12.651277173
10
4.11870095804
20
13.0390362549
10
4.16735415438
20
13.4310898864
10
4.21564585831
20
13.8259071904
10
4.2633776604
20
14.2219572894
10
4.31035115119
20
14.6177093062
10
4.35636792122
20
15.0116323634
10
4.40122956104
20
15.4021955838
10
4.44473766121
20
15.78786809
10
4.48669381226
20
16.1671190047
10
4.52689960475
20
16.5384174506
10
4.56515662922
20
16.9002325504
10
4.60126647622
20
17.2510334268
10
4.6350307363
20
17.5892892024
10
4.666251
20
17.913469
10
4.67621049703
20
18.0204903354
10
4.68553415417
20
18.1237775313
10
4.69422226891
20
18.2233665335
10
4.7022751387
20
18.3192932879
10
4.70969306103
20
18.4115937402
10
4.71647633336
20
18.5003038363
10
4.72262525316
20
18.585459522
10
4.72814011792
20
18.6670967431
10
4.7330212251
20
18.7452514455
10
4.73726887218
20
18.819959575
10
4.74088335662
20
18.8912570774
10
4.7438649759
20
18.9591798985
10
4.74621402749
20
19.0237639841
10
4.74793080887
20
19.0850452801
10
4.7490156175
20
19.1430597323
10
4.74946875086
20
19.1978432865
10
4.74929050643
20
19.2494318885
10
4.74848118167
20
19.2978614842
10
4.74704107405
20
19.3431680193
10
4.74497048105
20
19.3853874398
10
4.74226970014
20
19.4245556914
10
4.7389390288
20
19.4607087199
10
4.73497876449
20
19.4938824712
10
4.73038920469
20
19.5241128911
10
4.72517064687
20
19.5514359254
10
4.71932338851
20
19.57588752
10
4.71284772707
20
19.5975036206
10
4.70574396002
20
19.616320173
10
4.69801238485
20
19.6323731232
10
4.68965329902
20
19.6456984169
10
4.680667
20
19.656332
10
4.67227040771
20
19.6641478597
10
4.66172264875
20
19.6729745359
10
4.64909120164
20
19.6827739006
10
4.63444354486
20
19.6935078255
10
4.61784715693
20
19.7051381822
10
4.59936951633
20
19.7176268427
10
4.57907810157
20
19.7309356787
10
4.55704039116
20
19.745026562
10
4.53332386358
20
19.7598613643
10
4.50799599735
20
19.7754019574
10
4.48112427095
20
19.7916102131
10
4.4527761629
20
19.8084480031
10
4.42301915169
20
19.8258771993
10
4.39192071582
20
19.8438596733
10
4.35954833379
20
19.8623572971
10
4.32596948411
20
19.8813319423
10
4.29125164526
20
19.9007454807
10
4.25546229576
20
19.9205597841
10
4.2186689141
20
19.9407367243
10
4.18093897879
20
19.961238173
10
4.14233996831
20
19.982026002
10
4.10293936118
20
20.0030620832
10
4.0628046359
20
20.0243082882
10
4.02200327095
20
20.0457264888
10
3.98060274486
20
20.0672785568
10
3.9386705361
20
20.0889263641
10
3.89627412319
20
20.1106317822
10
3.85348098463
20
20.1323566832
10
3.81035859891
20
20.1540629386
10
3.76697444453
20
20.1757124203
10
3.723396
20
20.197267
10
2.903248
20
20.601099
10
2.936106
20
21.339562
10
2.968964
20
22.078024
10
2.220547
20
22.537397
10
2.17992890353
20
22.5626597708
10
2.13781469857
20
22.5894894887
10
2.09430902793
20
22.6178052301
10
2.04951653442
20
22.6475260712
10
2.00354186086
20
22.6785710881
10
1.95648965006
20
22.7108593572
10
1.90846454483
20
22.7443099547
10
1.85957118798
20
22.7788419567
10
1.80991422232
20
22.8143744395
10
1.75959829066
20
22.8508264794
10
1.70872803582
20
22.8881171525
10
1.6574081006
20
22.9261655352
10
1.60574312782
20
22.9648907036
10
1.5538377603
20
23.004211734
10
1.50179664083
20
23.0440477026
10
1.44972441224
20
23.0843176856
10
1.39772571733
20
23.1249407593
10
1.34590519892
20
23.1658359998
10
1.29436749982
20
23.2069224835
10
1.24321726283
20
23.2481192866
10
1.19255913078
20
23.2893454852
10
1.14249774647
20
23.3305201557
10
1.09313775271
20
23.3715623742
10
1.04458379232
20
23.412391217
10
0.996940508106
20
23.4529257604
10
0.950312542882
20
23.4930850804
10
0.904804539458
20
23.5327882535
10
0.860521140647
20
23.5719543557
10
0.817566989259
20
23.6105024634
10
0.776046728106
20
23.6483516527
10
0.736065
20
23.685421
10
0
20
24.374043
10
1.290847
20
26.810157
10
1.35940012839
20
26.9400801363
10
1.42757733205
20
27.0703685294
10
1.49527420963
20
27.2007974944
10
1.56238635981
20
27.3311423464
10
1.62880938126
20
27.4611784006
10
1.69443887265
20
27.5906809719
10
1.75917043265
20
27.7194253756
10
1.82289965993
20
27.8471869266
10
1.88552215317
20
27.9737409401
10
1.94693351103
20
28.0988627313
10
2.00702933218
20
28.2223276151
10
2.0657052153
20
28.3439109066
10
2.12285675905
20
28.463387921
10
2.17837956212
20
28.5805339734
10
2.23216922315
20
28.6951243789
10
2.28412134084
20
28.8069344525
10
2.33413151385
20
28.9157395094
10
2.38209534084
20
29.0213148646
10
2.4279084205
20
29.1234358332
10
2.47146635148
20
29.2218777304
10
2.51266473247
20
29.3164158712
10
2.55139916213
20
29.4068255708
10
2.58756523913
20
29.4928821441
10
2.62105856215
20
29.5743609064
10
2.65177472985
20
29.6510371727
10
2.67960934091
20
29.7226862581
10
2.70445799399
20
29.7890834777
10
2.72621628777
20
29.8500041466
10
2.74477982092
20
29.9052235799
10
2.7600441921
20
29.9545170926
10
2.771905
20
29.99766
10
2.8009914017
20
30.1225934631
10
2.83138703981
20
30.2723321686
10
2.86298649935
20
30.4458008491
10
2.89568436531
20
30.6419242373
10
2.92937522272
20
30.8596270656
10
2.96395365657
20
31.0978340666
10
2.99931425189
20
31.3554699729
10
3.03535159367
20
31.6314595172
10
3.07196026693
20
31.9247274318
10
3.10903485667
20
32.2341984495
10
3.1464699479
20
32.5587973028
10
3.18416012564
20
32.8974487242
10
3.22199997489
20
33.2490774464
10
3.25988408066
20
33.6126082019
10
3.29770702796
20
33.9869657232
10
3.3353634018
20
34.371074743
10
3.37274778718
20
34.7638599938
10
3.40975476912
20
35.1642462081
10
3.44627893263
20
35.5711581186
10
3.48221486271
20
35.9835204579
10
3.51745714437
20
36.4002579584
10
3.55190036263
20
36.8202953528
10
3.58543910248
20
37.2425573736
10
3.61796794894
20
37.6659687534
10
3.64938148703
20
38.0894542248
10
3.67957430174
20
38.5119385203
10
3.70844097808
20
38.9323463725
10
3.73587610107
20
39.349602514
10
3.76177425571
20
39.7626316774
10
3.78603002702
20
40.1703585952
10
3.808538
20
40.571708
10
3.8499309813
20
41.3295188377
10
3.89010317821
20
42.0551612968
10
3.92918905085
20
42.7502390384
10
3.96732305938
20
43.4163557233
10
4.00463966393
20
44.0551150125
10
4.04127332463
20
44.6681205671
10
4.07735850163
20
45.2569760479
10
4.11302965506
20
45.823285116
10
4.14842124507
20
46.3686514324
10
4.1836677318
20
46.8946786579
10
4.21890357538
20
47.4029704536
10
4.25426323594
20
47.8951304805
10
4.28988117364
20
48.3727623994
10
4.32589184861
20
48.8374698715
10
4.36242972099
20
49.2908565576
10
4.39962925091
20
49.7345261188
10
4.43762489853
20
50.1700822159
10
4.47655112396
20
50.59912851
10
4.51654238737
20
51.0232686621
10
4.55773314887
20
51.4441063331
10
4.60025786862
20
51.8632451839
10
4.64425100675
20
52.2822888756
10
4.6898470234
20
52.7028410692
10
4.7371803787
20
53.1265054255
10
4.78638553281
20
53.5548856057
10
4.83759694586
20
53.9895852705
10
4.89094907798
20
54.4322080811
10
4.94657638931
20
54.8843576984
10
5.00461334
20
55.3476377833
10
5.06519439018
20
55.8236519968
10
5.128454
20
56.314004
10
5.16147011577
20
56.5696140515
10
5.19291629975
20
56.8156488862
10
5.2228123392
20
57.0523425569
10
5.25117802135
20
57.2799291164
10
5.27803313346
20
57.4986426175
10
5.30339746279
20
57.708717113
10
5.32729079658
20
57.9103866555
10
5.34973292209
20
58.1038852978
10
5.37074362657
20
58.2894470928
10
5.39034269726
20
58.4673060932
10
5.40854992142
20
58.6376963518
10
5.4253850863
20
58.8008519213
10
5.44086797915
20
58.9570068545
10
5.45501838723
20
59.1063952042
10
5.46785609778
20
59.2492510231
10
5.47940089806
20
59.385808364
10
5.48967257531
20
59.5163012797
10
5.49869091679
20
59.6409638229
10
5.50647570974
20
59.7600300464
10
5.51304674143
20
59.873734003
10
5.5184237991
20
59.9823097455
10
5.52262667
20
60.0859913265
10
5.52567514138
20
60.1850127989
10
5.5275890005
20
60.2796082155
10
5.52838803461
20
60.370011629
10
5.52809203095
20
60.4564570921
10
5.52672077678
20
60.5391786577
10
5.52429405935
20
60.6184103786
10
5.52083166591
20
60.6943863074
10
5.51635338371
20
60.7673404969
10
5.510879
20
60.837507
10
5.50494287181
20
60.9077985353
10
5.49957656134
20
60.9752089244
10
5.49478850237
20
61.0398256164
10
5.49058712863
20
61.1017360602
10
5.48698087389
20
61.1610277049
10
5.4839781719
20
61.2177879996
10
5.48158745641
20
61.2721043932
10
5.47981716119
20
61.3240643348
10
5.47867571998
20
61.3737552734
10
5.47817156655
20
61.421264658
10
5.47831313464
20
61.4666799377
10
5.47910885801
20
61.5100885615
10
5.48056717042
20
61.5515779785
10
5.48269650562
20
61.5912356376
10
5.48550529737
20
61.6291489878
10
5.48900197942
20
61.6654054783
10
5.49319498553
20
61.7000925581
10
5.49809274945
20
61.733297676
10
5.50370370494
20
61.7651082813
10
5.51003628576
20
61.7956118229
10
5.51709892565
20
61.8248957499
10
5.52490005837
20
61.8530475112
10
5.53344811769
20
61.880154556
10
5.54275153734
20
61.9063043332
10
5.5528187511
20
61.9315842918
10
5.56365819271
20
61.9560818809
10
5.57527829593
20
61.9798845496
10
5.58768749451
20
62.0030797468
10
5.60089422221
20
62.0257549216
10
5.61490691279
20
62.047997523
10
5.629734
20
62.069895
10
5.6403568855
20
62.0855660961
10
5.6508402349
20
62.1020311302
10
5.66116989399
20
62.1192443335
10
5.67133170857
20
62.1371599373
10
5.68131152442
20
62.1557321731
10
5.69109518734
20
62.1749152722
10
5.70066854312
20
62.1946634659
10
5.71001743755
20
62.2149309856
10
5.71912771642
20
62.2356720626
10
5.72798522554
20
62.2568409283
10
5.73657581068
20
62.278391814
10
5.74488531765
20
62.300278951
10
5.75289959223
20
62.3224565707
10
5.76060448021
20
62.3448789045
10
5.7679858274
20
62.3675001836
10
5.77502947957
20
62.3902746395
10
5.78172128253
20
62.4131565034
10
5.78804708207
20
62.4361000068
10
5.79399272398
20
62.459059381
10
5.79954405404
20
62.4819888572
10
5.80468691806
20
62.5048426669
10
5.80940716183
20
62.5275750414
10
5.81369063113
20
62.5501402121
10
5.81752317176
20
62.5724924102
10
5.82089062952
20
62.5945858672
10
5.82377885019
20
62.6163748144
10
5.82617367957
20
62.6378134831
10
5.82806096345
20
62.6588561046
10
5.82942654762
20
62.6794569104
10
5.83025627787
20
62.6995701318
10
5.830536
20
62.71915
10
5.83018464855
20
62.7491369996
10
5.82906011037
20
62.7778592333
10
5.8270566597
20
62.8054141659
10
5.82406857078
20
62.8318992625
10
5.81999011785
20
62.8574119882
10
5.81471557517
20
62.8820498079
10
5.80813921698
20
62.9059101866
10
5.80015531751
20
62.9290905893
10
5.79065815102
20
62.9516884811
10
5.77954199174
20
62.9738013269
10
5.76670111393
20
62.9955265918
10
5.75202979182
20
63.0169617407
10
5.73542229965
20
63.0382042387
10
5.71677291168
20
63.0593515508
10
5.69597590215
20
63.080501142
10
5.6729255453
20
63.1017504772
10
5.64751611537
20
63.1231970215
10
5.61964188661
20
63.1449382399
10
5.58919713326
20
63.1670715975
10
5.55607612957
20
63.1896945591
10
5.52017314978
20
63.2129045898
10
5.48138246813
20
63.2367991547
10
5.43959835887
20
63.2614757187
10
5.39471509624
20
63.2870317468
10
5.34662695448
20
63.3135647041
10
5.29522820785
20
63.3411720555
10
5.24041313058
20
63.3699512661
10
5.18207599691
20
63.3999998008
10
5.1201110811
20
63.4314151247
10
5.05441265738
20
63.4642947028
10
4.984875
20
63.498736
10
4.94013799047
20
63.5209689226
10
4.8959885741
20
63.543250798
10
4.85248636279
20
63.5655435136
10
4.80969096845
20
63.5878089565
10
4.76766200295
20
63.6100090142
10
4.72645907821
20
63.6321055738
10
4.68614180612
20
63.6540605226
10
4.64676979856
20
63.675835748
10
4.60840266745
20
63.6973931372
10
4.57110002467
20
63.7186945774
10
4.53492148213
20
63.7397019561
10
4.49992665171
20
63.7603771604
10
4.46617514531
20
63.7806820776
10
4.43372657484
20
63.800578595
10
4.40264055218
20
63.8200285999
10
4.37297668924
20
63.8389939797
10
4.3447945979
20
63.8574366214
10
4.31815389007
20
63.8753184125
10
4.29311417764
20
63.8926012403
10
4.26973507251
20
63.9092469919
10
4.24807618657
20
63.9252175547
10
4.22819713172
20
63.940474816
10
4.21015751985
20
63.9549806631
10
4.19401696287
20
63.9686969831
10
4.17983507267
20
63.9815856635
10
4.16767146115
20
63.9936085915
10
4.15758574019
20
64.0047276543
10
4.1496375217
20
64.0149047393
10
4.14388641758
20
64.0241017337
10
4.14039203971
20
64.0322805249
10
4.139214
20
64.039403
10
4.14027812635
20
64.0470527279
10
4.14343460703
20
64.0567954913
10
4.14862959451
20
64.0685664984
10
4.15580924125
20
64.0823009574
10
4.16491969971
20
64.0979340765
10
4.17590712235
20
64.115401064
10
4.18871766164
20
64.134637128
10
4.20329747004
20
64.1555774769
10
4.21959270001
20
64.1781573187
10
4.23754950401
20
64.2023118617
10
4.25711403451
20
64.2279763142
10
4.27823244396
20
64.2550858844
10
4.30085088483
20
64.2835757804
10
4.32491550958
20
64.3133812105
10
4.35037247068
20
64.3444373829
10
4.37716792058
20
64.3766795058
10
4.40524801175
20
64.4100427875
10
4.43455889665
20
64.4444624361
10
4.46504672774
20
64.4798736599
10
4.49665765748
20
64.516211667
10
4.52933783834
20
64.5534116658
10
4.56303342278
20
64.5914088645
10
4.59769056326
20
64.6301384711
10
4.63325541224
20
64.669535694
10
4.66967412218
20
64.7095357414
10
4.70689284556
20
64.7500738215
10
4.74485773482
20
64.7910851425
10
4.78351494243
20
64.8325049127
10
4.82281062086
20
64.8742683401
10
4.86269092256
20
64.9163106332
10
4.903102
20
64.958567
10
4.98188320546
20
65.0416772693
10
5.05861119002
20
65.1248166131
10
5.13335366721
20
65.2081029323
10
5.20617835058
20
65.2916541275
10
5.27715295364
20
65.3755880997
10
5.34634518996
20
65.4600227495
10
5.41382277305
20
65.5450759777
10
5.47965341647
20
65.6308656851
10
5.54390483374
20
65.7175097725
10
5.60664473841
20
65.8051261407
10
5.66794084401
20
65.8938326904
10
5.72786086409
20
65.9837473224
10
5.78647251217
20
66.0749879375
10
5.8438435018
20
66.1676724364
10
5.90004154651
20
66.26191872
10
5.95513435984
20
66.357844689
10
6.00918965533
20
66.4555682441
10
6.06227514652
20
66.5552072863
10
6.11445854694
20
66.6568797161
10
6.16580757014
20
66.7607034345
10
6.21638992964
20
66.8667963422
10
6.26627333899
20
66.9752763399
10
6.31552551173
20
67.0862613284
10
6.36421416139
20
67.1998692086
10
6.41240700151
20
67.3162178811
10
6.46017174563
20
67.4354252469
10
6.50757610728
20
67.5576092065
10
6.55468780001
20
67.6828876609
10
6.60157453734
20
67.8113785107
10
6.64830403283
20
67.9431996568
10
6.694944
20
68.078469
10
6.73120928505
20
68.1854046531
10
6.76502725649
20
68.2859747348
10
6.79638957259
20
68.380394219
10
6.82528789165
20
68.4688780794
10
6.85171387194
20
68.55164129
10
6.87565917176
20
68.6288988245
10
6.8971154494
20
68.7008656569
10
6.91607436313
20
68.767756761
10
6.93252757125
20
68.8297871106
10
6.94646673203
20
68.8871716797
10
6.95788350378
20
68.9401254419
10
6.96676954476
20
68.9888633713
10
6.97311651328
20
69.0336004416
10
6.9769160676
20
69.0745516268
10
6.97815986603
20
69.1119319005
10
6.97683956685
20
69.1459562368
10
6.97294682834
20
69.1768396094
10
6.96647330878
20
69.2047969923
10
6.95741066648
20
69.2300433592
10
6.9457505597
20
69.252793684
10
6.93148464674
20
69.2732629405
10
6.91460458588
20
69.2916661027
10
6.89510203541
20
69.3082181443
10
6.87296865362
20
69.3231340392
10
6.84819609879
20
69.3366287613
10
6.8207760292
20
69.3489172844
10
6.79070010315
20
69.3602145824
10
6.75795997892
20
69.3707356291
10
6.72254731479
20
69.3806953984
10
6.68445376906
20
69.3903088641
10
6.643671
20
69.399791
10
6.5432688227
20
69.4225479538
10
6.44749305505
20
69.4445706016
10
6.35617742409
20
69.465921913
10
6.26915565684
20
69.4866648577
10
6.18626148035
20
69.5068624055
10
6.10732862163
20
69.5265775259
10
6.03219080773
20
69.5458731886
10
5.96068176567
20
69.5648123635
10
5.89263522248
20
69.5834580201
10
5.82788490521
20
69.6018731282
10
5.76626454087
20
69.6201206573
10
5.7076078565
20
69.6382635774
10
5.65174857913
20
69.6563648579
10
5.5985204358
20
69.6744874686
10
5.54775715354
20
69.6926943792
10
5.49929245937
20
69.7110485594
10
5.45296008033
20
69.7296129789
10
5.40859374345
20
69.7484506073
10
5.36602717576
20
69.7676244143
10
5.32509410429
20
69.7871973697
10
5.28562825608
20
69.8072324431
10
5.24746335816
20
69.8277926042
10
5.21043313756
20
69.8489408228
10
5.17437132131
20
69.8707400684
10
5.13911163643
20
69.8932533108
10
5.10448780998
20
69.9165435196
10
5.07033356896
20
69.9406736646
10
5.03648264043
20
69.9657067155
10
5.0027687514
20
69.9917056419
10
4.96902562891
20
70.0187334135
10
4.935087
20
70.046853
10
4.9143030628
20
70.0649059319
10
4.8931633734
20
70.0843680803
10
4.87171127636
20
70.1051744099
10
4.84999011624
20
70.1272598856
10
4.82804323762
20
70.1505594719
10
4.80591398506
20
70.1750081337
10
4.78364570313
20
70.2005408356
10
4.7612817364
20
70.2270925424
10
4.73886542942
20
70.2545982188
10
4.71644012678
20
70.2829928295
10
4.69404917304
20
70.3122113392
10
4.67173591276
20
70.3421887127
10
4.64954369051
20
70.3728599146
10
4.62751585086
20
70.4041599097
10
4.60569573838
20
70.4360236628
10
4.58412669763
20
70.4683861385
10
4.56285207318
20
70.5011823015
10
4.54191520959
20
70.5343471166
10
4.52135945145
20
70.5678155485
10
4.5012281433
20
70.6015225619
10
4.48156462972
20
70.6354031216
10
4.46241225528
20
70.6693921922
10
4.44381436454
20
70.7034247385
10
4.42581430207
20
70.7374357253
10
4.40845541244
20
70.7713601171
10
4.39178104021
20
70.8051328788
10
4.37583452996
20
70.838688975
10
4.36065922624
20
70.8719633705
10
4.34629847363
20
70.90489103
10
4.3327956167
20
70.9374069183
10
4.320194
20
70.969446
10
4.30009315767
20
71.0224216294
10
4.28132477433
20
71.072771449
10
4.26388654936
20
71.1207699529
10
4.24777618214
20
71.1666916354
10
4.23299137203
20
71.2108109904
10
4.2195298184
20
71.2534025122
10
4.20738922064
20
71.2947406947
10
4.1965672781
20
71.3351000322
10
4.18706169017
20
71.3747550186
10
4.17887015622
20
71.4139801482
10
4.17199037562
20
71.4530499151
10
4.16642004773
20
71.4922388133
10
4.16215687194
20
71.5318213369
10
4.15919854762
20
71.5720719801
10
4.15754277413
20
71.613265237
10
4.15718725085
20
71.6556756017
10
4.15812967715
20
71.6995775683
10
4.16036775241
20
71.7452456308
10
4.16389917599
20
71.7929542835
10
4.16872164728
20
71.8429780204
10
4.17483286563
20
71.8955913356
10
4.18223053043
20
71.9510687233
10
4.19091234104
20
72.0096846775
10
4.20087599684
20
72.0717136924
10
4.21211919721
20
72.137430262
10
4.2246396415
20
72.2071088805
10
4.2384350291
20
72.281024042
10
4.25350305938
20
72.3594502406
10
4.26984143171
20
72.4426619704
10
4.28744784546
20
72.5309337255
10
4.30632
20
72.62454
10
4.32061974455
20
72.6965389205
10
4.33422470981
20
72.7678240574
10
4.34713817059
20
72.8384471669
10
4.3593634017
20
72.9084600055
10
4.37090367796
20
72.9779143295
10
4.38176227418
20
73.0468618953
10
4.39194246517
20
73.1153544592
10
4.40144752576
20
73.1834437777
10
4.41028073076
20
73.251181607
10
4.41844535497
20
73.3186197036
10
4.42594467322
20
73.3858098238
10
4.43278196032
20
73.4528037241
10
4.43896049109
20
73.5196531607
10
4.44448354033
20
73.58640989
10
4.44935438287
20
73.6531256685
10
4.45357629351
20
73.7198522524
10
4.45715254708
20
73.7866413982
10
4.46008641838
20
73.8535448622
10
4.46238118224
20
73.9206144008
10
4.46404011346
20
73.9879017703
10
4.46506648686
20
74.0554587272
10
4.46546357725
20
74.1233370278
10
4.46523465946
20
74.1915884284
10
4.46438300829
20
74.2602646854
10
4.46291189856
20
74.3294175553
10
4.46082460508
20
74.3990987943
10
4.45812440267
20
74.4693601589
10
4.45481456614
20
74.5402534054
10
4.45089837031
20
74.6118302902
10
4.44637908999
20
74.6841425696
10
4.44126
20
74.757242
10
4.43478492259
20
74.8473854535
10
4.42899050874
20
74.9334196053
10
4.42391534084
20
75.0156389164
10
4.41959800128
20
75.0943378477
10
4.41607707244
20
75.1698108604
10
4.41339113672
20
75.2423524154
10
4.41157877651
20
75.3122569736
10
4.4106785742
20
75.3798189963
10
4.41072911218
20
75.4453329442
10
4.41176897284
20
75.5090932786
10
4.41383673858
20
75.5713944603
10
4.41697099178
20
75.6325309504
10
4.42121031483
20
75.6927972098
10
4.42659329012
20
75.7524876997
10
4.43315850005
20
75.811896881
10
4.440944527
20
75.8713192147
10
4.44998995338
20
75.9310491619
10
4.46033336155
20
75.9913811835
10
4.47201333393
20
76.0526097406
10
4.48506845289
20
76.1150292941
10
4.49953730083
20
76.1789343052
10
4.51545846014
20
76.2446192347
10
4.53287051321
20
76.3123785438
10
4.55181204243
20
76.3825066934
10
4.57232163019
20
76.4552981445
10
4.59443785888
20
76.5310473581
10
4.6181993109
20
76.6100487953
10
4.64364456863
20
76.6925969171
10
4.67081221446
20
76.7789861845
10
4.69974083079
20
76.8695110584
10
4.730469
20
76.964466
10
4.75429164795
20
77.0365084428
10
4.77886032926
20
77.1084663893
10
4.80416927918
20
77.1803281862
10
4.83021273294
20
77.2520821801
10
4.85698492578
20
77.3237167175
10
4.88448009295
20
77.3952201451
10
4.91269246967
20
77.4665808096
10
4.9416162912
20
77.5377870575
10
4.97124579276
20
77.6088272354
10
5.00157520959
20
77.67968969
10
5.03259877695
20
77.7503627679
10
5.06431073005
20
77.8208348157
10
5.09670530415
20
77.89109418
10
5.12977673448
20
77.9611292073
10
5.16351925629
20
78.0309282445
10
5.1979271048
20
78.1004796379
10
5.23299451526
20
78.1697717344
10
5.2687157229
20
78.2387928804
10
5.30508496298
20
78.3075314226
10
5.34209647071
20
78.3759757076
10
5.37974448135
20
78.4441140821
10
5.41802323014
20
78.5119348926
10
5.4569269523
20
78.5794264857
10
5.49644988309
20
78.6465772081
10
5.53658625773
20
78.7133754064
10
5.57733031147
20
78.7798094271
10
5.61867627955
20
78.845867617
10
5.6606183972
20
78.9115383226
10
5.70315089967
20
78.9768098906
10
5.74626802219
20
79.0416706675
10
5.789964
20
79.106109
10
5.85736952382
20
79.2052717606
10
5.92096830291
20
79.3004141152
10
5.98079868101
20
79.3916806567
10
6.03689900185
20
79.4792159781
10
6.08930760914
20
79.5631646722
10
6.13806284663
20
79.643671332
10
6.18320305804
20
79.7208805504
10
6.22476658709
20
79.7949369204
10
6.26279177752
20
79.8659850348
10
6.29731697305
20
79.9341694867
10
6.3283805174
20
79.999634869
10
6.35602075432
20
80.0625257745
10
6.38027602753
20
80.1229867962
10
6.40118468074
20
80.181162527
10
6.4187850577
20
80.23719756
10
6.43311550213
20
80.2912364879
10
6.44421435776
20
80.3434239038
10
6.45211996831
20
80.3939044005
10
6.45687067752
20
80.442822571
10
6.45850482911
20
80.4903230083
10
6.45706076681
20
80.5365503052
10
6.45257683435
20
80.5816490546
10
6.44509137545
20
80.6257638497
10
6.43464273385
20
80.6690392831
10
6.42126925326
20
80.7116199479
10
6.40500927743
20
80.7536504371
10
6.38590115008
20
80.7952753435
10
6.36398321493
20
80.83663926
10
6.33929381572
20
80.8778867797
10
6.31187129616
20
80.9191624954
10
6.281754
20
80.960611
10
6.25743662855
20
80.9929738804
10
6.23484519694
20
81.0236191751
10
6.21401769706
20
81.0527063807
10
6.19499212077
20
81.0803949938
10
6.17780645997
20
81.106844511
10
6.16249870652
20
81.1322144287
10
6.1491068523
20
81.1566642436
10
6.13766888919
20
81.1803534521
10
6.12822280907
20
81.203441551
10
6.12080660381
20
81.2260880367
10
6.11545826528
20
81.2484524058
10
6.11221578537
20
81.2706941548
10
6.11111715595
20
81.2929727803
10
6.1122003689
20
81.3154477789
10
6.1155034161
20
81.3382786471
10
6.12106428942
20
81.3616248815
10
6.12892098073
20
81.3856459787
10
6.13911148192
20
81.4105014351
10
6.15167378487
20
81.4363507474
10
6.16664588144
20
81.4633534121
10
6.18406576352
20
81.4916689259
10
6.20397142298
20
81.5214567851
10
6.2264008517
20
81.5528764865
10
6.25139204156
20
81.5860875265
10
6.27898298442
20
81.6212494017
10
6.30921167218
20
81.6585216087
10
6.34211609671
20
81.6980636441
10
6.37773424987
20
81.7400350043
10
6.41610412356
20
81.784595186
10
6.45726370964
20
81.8319036857
10
6.501251
20
81.88212
10
6.54283534188
20
81.9283913982
10
6.58578643849
20
81.9740557957
10
6.63005629949
20
82.0190844643
10
6.67559693454
20
82.0634486758
10
6.72236035333
20
82.1071197021
10
6.77029856551
20
82.1500688151
10
6.81936358075
20
82.1922672866
10
6.86950740871
20
82.2336863885
10
6.92068205908
20
82.2742973927
10
6.97283954151
20
82.3140715709
10
7.02593186566
20
82.3529801952
10
7.07991104122
20
82.3909945373
10
7.13472907784
20
82.4280858691
10
7.1903379852
20
82.4642254624
10
7.24668977295
20
82.4993845891
10
7.30373645077
20
82.5335345212
10
7.36143002833
20
82.5666465303
10
7.41972251529
20
82.5986918885
10
7.47856592132
20
82.6296418675
10
7.53791225608
20
82.6594677393
10
7.59771352925
20
82.6881407756
10
7.6579217505
20
82.7156322483
10
7.71848892948
20
82.7419134294
10
7.77936707586
20
82.7669555906
10
7.84050819932
20
82.7907300039
10
7.90186430952
20
82.813207941
10
7.96338741613
20
82.8343606739
10
8.02502952882
20
82.8541594743
10
8.08674265725
20
82.8725756143
10
8.14847881108
20
82.8895803655
10
8.21019
20
82.905145
10
8.28011900235
20
82.9225534662
10
8.35201130496
20
82.941581052
10
8.42557833503
20
82.9621066837
10
8.50053151979
20
82.9840092872
10
8.57658228643
20
83.0071677888
10
8.65344206217
20
83.0314611145
10
8.73082227421
20
83.0567681904
10
8.80843434977
20
83.0829679428
10
8.88598971606
20
83.1099392976
10
8.96319980028
20
83.1375611811
10
9.03977602964
20
83.1657125193
10
9.11542983136
20
83.1942722383
10
9.18987263264
20
83.2231192643
10
9.2628158607
20
83.2521325234
10
9.33397094273
20
83.2811909417
10
9.40304930596
20
83.3101734454
10
9.4697623776
20
83.3389589605
10
9.53382158484
20
83.3674264131
10
9.59493835491
20
83.3954547294
10
9.652824115
20
83.4229228356
10
9.70719029234
20
83.4497096576
10
9.75774831412
20
83.4756941217
10
9.80420960757
20
83.500755154
10
9.84628559988
20
83.5247716805
10
9.88368771827
20
83.5476226275
10
9.91612738995
20
83.5691869209
10
9.94331604213
20
83.589343487
10
9.96496510201
20
83.6079712518
10
9.98078599681
20
83.6249491415
10
9.99049015374
20
83.6401560822
10
9.993789
20
83.653471
10
9.99341285083
20
83.6603970532
10
9.99229570256
20
83.6669725409
10
9.99045450408
20
83.6731950038
10
9.98790620426
20
83.6790619825
10
9.98466775197
20
83.6845710178
10
9.9807560961
20
83.6897196503
10
9.97618818553
20
83.6945054206
10
9.97098096912
20
83.6989258695
10
9.96515139576
20
83.7029785375
10
9.95871641432
20
83.7066609654
10
9.95169297368
20
83.7099706939
10
9.94409802272
20
83.7129052635
10
9.93594851032
20
83.715462215
10
9.92726138535
20
83.717639089
10
9.91805359669
20
83.7194334262
10
9.90834209322
20
83.7208427673
10
9.89814382381
20
83.7218646529
10
9.88747573734
20
83.7224966237
10
9.87635478269
20
83.7227362204
10
9.86479790873
20
83.7225809836
10
9.85282206435
20
83.7220284539
10
9.84044419842
20
83.7210761722
10
9.82768125981
20
83.7197216789
10
9.81455019741
20
83.7179625149
10
9.80106796009
20
83.7157962207
10
9.78725149673
20
83.713220337
10
9.7731177562
20
83.7102324046
10
9.75868368739
20
83.706829964
10
9.74396623917
20
83.7030105559
10
9.72898236041
20
83.698771721
10
9.713749
20
83.694111
10
9.63761941526
20
83.671925997
10
9.55973242405
20
83.6530672922
10
9.48026960639
20
83.6374857936
10
9.39941254228
20
83.6251324092
10
9.31734281172
20
83.6159580469
10
9.23424199473
20
83.6099136149
10
9.15029167131
20
83.606950021
10
9.06567342147
20
83.6070181733
10
8.98056882522
20
83.6100689798
10
8.89515946256
20
83.6160533484
10
8.8096269135
20
83.6249221871
10
8.72415275805
20
83.636626404
10
8.63891857621
20
83.651116907
10
8.554105948
20
83.6683446041
10
8.46989645343
20
83.6882604033
10
8.38647167248
20
83.7108152127
10
8.30401318519
20
83.7359599401
10
8.22270257155
20
83.7636454936
10
8.14272141157
20
83.7938227812
10
8.06425128525
20
83.8264427109
10
7.98747377262
20
83.8614561907
10
7.91257045366
20
83.8988141285
10
7.8397229084
20
83.9384674323
10
7.76911271683
20
83.9803670102
10
7.70092145896
20
84.0244637701
10
7.63533071481
20
84.0707086201
10
7.57252206438
20
84.1190524681
10
7.51267708768
20
84.169446222
10
7.45597736471
20
84.22184079
10
7.40260447548
20
84.27618708
10
7.35274
20
84.332436
10
7.28096354335
20
84.4187817561
10
7.21222118344
20
84.5034664338
10
7.1463829192
20
84.5867940828
10
7.08331874956
20
84.6690687526
10
7.02289867342
20
84.7505944928
10
6.96499268974
20
84.8316753532
10
6.90947079742
20
84.9126153832
10
6.8562029954
20
84.9937186325
10
6.8050592826
20
85.0752891507
10
6.75590965795
20
85.1576309874
10
6.70862412037
20
85.2410481923
10
6.66307266879
20
85.3258448149
10
6.61912530214
20
85.4123249048
10
6.57665201933
20
85.5007925118
10
6.53552281931
20
85.5915516853
10
6.49560770098
20
85.684906475
10
6.45677666329
20
85.7811609305
10
6.41889970515
20
85.8806191014
10
6.38184682548
20
85.9835850374
10
6.34548802323
20
86.090362788
10
6.3096932973
20
86.2012564028
10
6.27433264664
20
86.3165699315
10
6.23927607016
20
86.4366074237
10
6.20439356678
20
86.561672929
10
6.16955513544
20
86.692070497
10
6.13463077507
20
86.8281041773
10
6.09949048458
20
86.9700780195
10
6.0640042629
20
87.1182960733
10
6.02804210896
20
87.2730623882
10
5.99147402168
20
87.4346810139
10
5.95417
20
87.603456
10
5.93975064788
20
87.6677609877
10
5.92434276681
20
87.7333812815
10
5.90799123262
20
87.800187942
10
5.89074092115
20
87.8680520295
10
5.87263670823
20
87.9368446048
10
5.85372346971
20
88.0064367282
10
5.8340460814
20
88.0766994603
10
5.81364941915
20
88.1475038617
10
5.7925783588
20
88.2187209928
10
5.77087777617
20
88.2902219142
10
5.74859254711
20
88.3618776864
10
5.72576754745
20
88.4335593699
10
5.70244765302
20
88.5051380252
10
5.67867773965
20
88.5764847129
10
5.65450268319
20
88.6474704935
10
5.62996735947
20
88.7179664274
10
5.60511664432
20
88.7878435753
10
5.57999541358
20
88.8569729977
10
5.55464854308
20
88.925225755
10
5.52912090866
20
88.9924729078
10
5.50345738616
20
89.0585855166
10
5.4777028514
20
89.1234346419
10
5.45190218022
20
89.1868913443
10
5.42610024846
20
89.2488266843
10
5.40034193196
20
89.3091117224
10
5.37467210654
20
89.367617519
10
5.34913564805
20
89.4242151349
10
5.32377743231
20
89.4787756304
10
5.29864233517
20
89.531170066
10
5.27377523245
20
89.5812695024
10
5.249221
20
89.628945
10
5.22535296079
20
89.6749157316
10
5.20155727324
20
89.721790647
10
5.17787174371
20
89.7694709559
10
5.15433417861
20
89.817857868
10
5.13098238431
20
89.8668525932
10
5.1078541672
20
89.9163563412
10
5.08498733366
20
89.9662703217
10
5.06241969007
20
90.0164957446
10
5.04018904283
20
90.0669338195
10
5.01833319831
20
90.1174857563
10
4.99688996291
20
90.1680527646
10
4.975897143
20
90.2185360543
10
4.95539254496
20
90.2688368352
10
4.93541397519
20
90.3188563169
10
4.91599924007
20
90.3684957093
10
4.89718614598
20
90.417656222
10
4.87901249931
20
90.466239065
10
4.86151610644
20
90.5141454479
10
4.84473477376
20
90.5612765804
10
4.82870630764
20
90.6075336724
10
4.81346851448
20
90.6528179336
10
4.79905920066
20
90.6970305738
10
4.78551617257
20
90.7400728028
10
4.77287723658
20
90.7818458302
10
4.76118019909
20
90.8222508659
10
4.75046286647
20
90.8611891196
10
4.74076304511
20
90.898561801
10
4.73211854141
20
90.9342701201
10
4.72456716173
20
90.9682152864
10
4.71814671246
20
91.0002985098
10
4.712895
20
91.030421
10
4.69763553916
20
91.1219876802
10
4.68242028932
20
91.2057207434
10
4.66728017532
20
91.2816751429
10
4.65224612202
20
91.3499058318
10
4.63734905424
20
91.4104677635
10
4.62261989685
20
91.4634158911
10
4.60808957467
20
91.5088051679
10
4.59378901255
20
91.5466905472
10
4.57974913534
20
91.5771269821
10
4.56600086788
20
91.600169426
10
4.55257513501
20
91.6158728321
10
4.53950286157
20
91.6242921536
10
4.52681497241
20
91.6254823437
10
4.51454239237
20
91.6194983557
10
4.50271604629
20
91.6063951429
10
4.49136685902
20
91.5862276584
10
4.4805257554
20
91.5590508555
10
4.47022366027
20
91.5249196875
10
4.46049149847
20
91.4838891076
10
4.45136019486
20
91.436014069
10
4.44286067426
20
91.3813495251
10
4.43502386154
20
91.3199504289
10
4.42788068151
20
91.2518717338
10
4.42146205904
20
91.177168393
10
4.41579891897
20
91.0958953597
10
4.41092218613
20
91.0081075872
10
4.40686278537
20
90.9138600288
10
4.40365164154
20
90.8132076376
10
4.40131967947
20
90.7062053669
10
4.39989782401
20
90.59290817
10
4.399417
20
90.473371
10
4.39925808221
20
90.407579821
10
4.39878668991
20
90.3426527919
10
4.39801086472
20
90.2786775775
10
4.39693864828
20
90.2157418429
10
4.39557808221
20
90.1539332529
10
4.39393720812
20
90.0933394724
10
4.39202406764
20
90.0340481665
10
4.38984670239
20
89.976147
10
4.38741315401
20
89.9197236379
10
4.3847314641
20
89.8648657451
10
4.3818096743
20
89.8116609865
10
4.37865582622
20
89.7601970271
10
4.3752779615
20
89.7105615317
10
4.37168412175
20
89.6628421655
10
4.3678823486
20
89.6171265931
10
4.36388068366
20
89.5735024797
10
4.35968716857
20
89.5320574901
10
4.35530984495
20
89.4928792893
10
4.35075675442
20
89.4560555421
10
4.34603593861
20
89.4216739136
10
4.34115543913
20
89.3898220687
10
4.33612329761
20
89.3605876722
10
4.33094755567
20
89.3340583892
10
4.32563625494
20
89.3103218845
10
4.32019743704
20
89.2894658231
10
4.3146391436
20
89.2715778699
10
4.30896941623
20
89.2567456899
10
4.30319629657
20
89.245056948
10
4.29732782622
20
89.2365993091
10
4.29137204683
20
89.2314604381
10
4.285337
20
89.229728
10
4.27891715894
20
89.2306224698
10
4.27181997808
20
89.2332757046
10
4.2640729709
20
89.2376424422
10
4.25570365087
20
89.2436774204
10
4.24673953147
20
89.2513353772
10
4.23720812618
20
89.2605710505
10
4.22713694847
20
89.271339178
10
4.21655351183
20
89.2835944977
10
4.20548532973
20
89.2972917474
10
4.19395991565
20
89.3123856651
10
4.18200478306
20
89.3288309885
10
4.16964744544
20
89.3465824556
10
4.15691541627
20
89.3655948043
10
4.14383620902
20
89.3858227724
10
4.13043733718
20
89.4072210977
10
4.11674631422
20
89.4297445183
10
4.10279065362
20
89.4533477718
10
4.08859786885
20
89.4779855963
10
4.0741954734
20
89.5036127296
10
4.05961098073
20
89.5301839095
10
4.04487190433
20
89.557653874
10
4.03000575768
20
89.5859773608
10
4.01504005424
20
89.615109108
10
4.00000230751
20
89.6450038532
10
3.98492003095
20
89.6756163346
10
3.96982073804
20
89.7069012898
10
3.95473194226
20
89.7388134568
10
3.93968115709
20
89.7713075734
10
3.92469589601
20
89.8043383776
10
3.90980367248
20
89.8378606072
10
3.895032
20
89.871829
10
3.82972015572
20
90.0394022014
10
3.77333301265
20
90.2171032501
10
3.72573528452
20
90.4043017001
10
3.68679168501
20
90.6003671052
10
3.65636692783
20
90.8046690193
10
3.6343257267
20
91.0165769963
10
3.62053279531
20
91.2354605901
10
3.61485284737
20
91.4606893546
10
3.61715059659
20
91.6916328437
10
3.62729075667
20
91.9276606112
10
3.64513804132
20
92.1681422111
10
3.67055716424
20
92.4124471973
10
3.70341283915
20
92.6599451236
10
3.74356977973
20
92.910005544
10
3.79089269971
20
93.1619980123
10
3.84524631278
20
93.4152920824
10
3.90649533265
20
93.6692573082
10
3.97450447303
20
93.9232632437
10
4.04913844762
20
94.1766794427
10
4.13026197013
20
94.428875459
10
4.21773975425
20
94.6792208466
10
4.31143651371
20
94.9270851594
10
4.4112169622
20
95.1718379513
10
4.51694581343
20
95.4128487762
10
4.62848778111
20
95.6494871879
10
4.74570757893
20
95.8811227403
10
4.86846992061
20
96.1071249874
10
4.99663951985
20
96.326863483
10
5.13008109036
20
96.5397077811
10
5.26865934584
20
96.7450274354
10
5.412239
20
96.942192
10
5.47031443899
20
97.0160423818
10
5.53519656812
20
97.0933168962
10
5.60649607338
20
97.1737112096
10
5.68382364073
20
97.2569209884
10
5.76678995616
20
97.342641899
10
5.85500570565
20
97.4305696078
10
5.94808157517
20
97.5203997813
10
6.04562825071
20
97.6118280858
10
6.14725641825
20
97.7045501878
10
6.25257676375
20
97.7982617536
10
6.36119997321
20
97.8926584497
10
6.4727367326
20
97.9874359425
10
6.5867977279
20
98.0822898984
10
6.70299364509
20
98.1769159838
10
6.82093517015
20
98.2710098651
10
6.94023298906
20
98.3642672088
10
7.06049778779
20
98.4563836811
10
7.18134025232
20
98.5470549486
10
7.30237106864
20
98.6359766777
10
7.42320092273
20
98.7228445347
10
7.54344050055
20
98.807354186
10
7.6627004881
20
98.8892012982
10
7.78059157135
20
98.9680815375
10
7.89672443627
20
99.0436905704
10
8.01070976886
20
99.1157240634
10
8.12215825508
20
99.1838776827
10
8.23068058091
20
99.2478470949
10
8.33588743235
20
99.3073279663
10
8.43738949535
20
99.3620159633
10
8.53479745591
20
99.4116067524
10
8.627722
20
99.455796
10
8.70714230294
20
99.4902272345
10
8.79325128307
20
99.5240718076
10
8.88561627314
20
99.5572680234
10
8.98380460589
20
99.589754186
10
9.08738361408
20
99.6214685998
10
9.19592063046
20
99.6523495688
10
9.30898298778
20
99.6823353973
10
9.4261380188
20
99.7113643894
10
9.54695305626
20
99.7393748493
10
9.67099543292
20
99.7663050813
10
9.79783248152
20
99.7920933894
10
9.92703153483
20
99.8166780779
10
10.0581599256
20
99.839997451
10
10.1907849865
20
99.8619898129
10
10.3244740505
20
99.8825934677
10
10.4587944501
20
99.9017467196
10
10.5933135181
20
99.9193878728
10
10.7275985874
20
99.9354552316
10
10.8612169907
20
99.9498871
10
10.9937360606
20
99.9626217823
10
11.12472313
20
99.9735975826
10
11.2537455317
20
99.9827528052
10
11.3803705983
20
99.9900257542
10
11.5041656626
20
99.9953547338
10
11.6246980574
20
99.9986780483
10
11.7415351154
20
99.9999340017
10
11.8542441693
20
99.9990608983
10
11.962392552
20
99.9959970422
10
12.0655475962
20
99.9906807377
10
12.1632766346
20
99.9830502889
10
12.255147
20
99.973044
10
12.3540761004
20
99.9592827931
10
12.459351387
20
99.9422594668
10
12.5704210313
20
99.9221522364
10
12.686733205
20
99.8991393178
10
12.8077360796
20
99.8733989263
10
12.9328778268
20
99.8451092776
10
13.0616066181
20
99.8144485873
10
13.1933706251
20
99.7815950709
10
13.3276180195
20
99.7467269439
10
13.4637969728
20
99.710022422
10
13.6013556566
20
99.6716597207
10
13.7397422426
20
99.6318170556
10
13.8784049023
20
99.5906726423
10
14.0167918072
20
99.5484046963
10
14.1543511291
20
99.5051914331
10
14.2905310395
20
99.4612110684
10
14.4247797099
20
99.4166418178
10
14.5565453121
20
99.3716618967
10
14.6852760176
20
99.3264495209
10
14.8104199979
20
99.2811829057
10
14.9314254247
20
99.2360402669
10
15.0477404696
20
99.1911998199
10
15.1588133041
20
99.1468397803
10
15.2640920999
20
99.1031383638
10
15.3630250286
20
99.0602737858
10
15.4550602617
20
99.018424262
10
15.5396459709
20
98.9777680079
10
15.6162303277
20
98.9384832391
10
15.6842615038
20
98.9007481711
10
15.7431876707
20
98.8647410196
10
15.792457
20
98.83064
10
16.0516120547
20
98.6347960959
10
16.2968513651
20
98.444787589
10
16.5285925375
20
98.2597173522
10
16.7472531782
20
98.0786882583
10
16.9532508935
20
97.9008031802
10
17.1470032897
20
97.7251649905
10
17.3289279732
20
97.5508765622
10
17.4994425503
20
97.377040768
10
17.6589646273
20
97.2027604808
10
17.8079118105
20
97.0271385734
10
17.9467017063
20
96.8492779186
10
18.075751921
20
96.6682813891
10
18.1954800609
20
96.4832518579
10
18.3063037324
20
96.2932921978
10
18.4086405417
20
96.0975052815
10
18.5029080952
20
95.8949939818
10
18.5895239992
20
95.6848611716
10
18.66890586
20
95.4662097237
10
18.741471284
20
95.238142511
10
18.8076378774
20
94.9997624061
10
18.8678232467
20
94.750172282
10
18.9224449981
20
94.4884750114
10
18.971920738
20
94.2137734672
10
19.0166680726
20
93.9251705221
10
19.0571046083
20
93.621769049
10
19.0936479515
20
93.3026719208
10
19.1267157084
20
92.9669820101
10
19.1567254854
20
92.6138021899
10
19.1840948888
20
92.242235333
10
19.2092415249
20
91.851384312
10
19.232583
20
91.440352
10
19.2575817579
20
91.0018955987
10
19.2851886759
20
90.5713573643
10
19.3154371402
20
90.1485708475
10
19.3483605366
20
89.7333695991
10
19.3839922511
20
89.32558717
10
19.4223656698
20
88.9250571109
10
19.4635141786
20
88.5316129727
10
19.5074711635
20
88.1450883061
10
19.5542700106
20
87.765316662
10
19.6039441057
20
87.3921315912
10
19.6565268349
20
87.0253666444
10
19.7120515842
20
86.6648553724
10
19.7705517396
20
86.3104313262
10
19.832060687
20
85.9619280564
10
19.8966118124
20
85.6191791139
10
19.9642385019
20
85.2820180495
10
20.0349741414
20
84.950278414
10
20.1088521168
20
84.6237937581
10
20.1859058143
20
84.3023976328
10
20.2661686198
20
83.9859235887
10
20.3496739193
20
83.6742051768
10
20.4364550987
20
83.3670759478
10
20.5265455441
20
83.0643694525
10
20.6199786414
20
82.7659192417
10
20.7167877766
20
82.4715588662
10
20.8170063358
20
82.1811218768
10
20.9206677048
20
81.8944418244
10
21.0278052698
20
81.6113522597
10
21.1384524167
20
81.3316867335
10
21.2526425314
20
81.0552787967
10
21.370409
20
80.781962
10
21.4618434048
20
80.5737368342
10
21.5475075955
20
80.3773536001
10
21.6276152621
20
80.1914728534
10
21.7023800948
20
80.0147551503
10
21.7720157836
20
79.8458610465
10
21.8367360187
20
79.6834510981
10
21.8967544902
20
79.526185861
10
21.9522848882
20
79.3727258911
10
22.0035409027
20
79.2217317444
10
22.050736224
20
79.0718639768
10
22.0940845421
20
78.9217831442
10
22.1337995471
20
78.7701498026
10
22.1700949291
20
78.615624508
10
22.2031843783
20
78.4568678162
10
22.2332815847
20
78.2925402832
10
22.2606002384
20
78.121302465
10
22.2853540296
20
77.9418149174
10
22.3077566484
20
77.7527381965
10
22.3280217849
20
77.5527328581
10
22.3463631291
20
77.3404594583
10
22.3629943712
20
77.1145785529
10
22.3781292013
20
76.8737506979
10
22.3919813096
20
76.6166364492
10
22.404764386
20
76.3418963627
10
22.4166921207
20
76.0481909945
10
22.4279782039
20
75.7341809004
10
22.4388363256
20
75.3985266364
10
22.449480176
20
75.0398887584
10
22.4601234451
20
74.6569278224
10
22.4709798231
20
74.2483043843
10
22.482263
20
73.812679
10
22.4932366496
20
73.3873683123
10
22.5037009626
20
72.9888731363
10
22.513875437
20
72.6156738996
10
22.5239795708
20
72.2662510294
10
22.5342328619
20
71.9390849533
10
22.5448548083
20
71.6326560987
0
LWPOLYLINE
5
47
100
AcDbEntity
8
0
6
ByLayer
62
256
370
-1
100
AcDbPolyline
90
94
70
1
43
0
10
23.3694110476
20
58.2935372682
10
23.3887927902
20
58.1220662233
10
23.4089946838
20
57.9456174702
10
23.4300084013
20
57.7642848129
10
23.4518256157
20
57.5781620549
10
23.474438
20
57.387343
10
23.4866442475
20
57.2887055287
10
23.498559066
20
57.1999523991
10
23.5101604087
20
57.1209439571
10
23.5214262285
20
57.0515405485
10
23.5323344785
20
56.9916025193
10
23.5428631115
20
56.9409902153
10
23.5529900808
20
56.8995639824
10
23.5626933391
20
56.8671841665
10
23.5719508396
20
56.8437111135
10
23.5807405353
20
56.8290051691
10
23.5890403792
20
56.8229266794
10
23.5968283242
20
56.8253359901
10
23.6040823234
20
56.8360934472
10
23.6107803298
20
56.8550593965
10
23.6169002963
20
56.8820941839
10
23.6224201761
20
56.9170581553
10
23.6273179221
20
56.9598116566
10
23.6315714872
20
57.0102150336
10
23.6351588246
20
57.0681286322
10
23.6380578872
20
57.1334127983
10
23.640246628
20
57.2059278777
10
23.6417030001
20
57.2855342164
10
23.6424049564
20
57.3720921602
10
23.6423304499
20
57.465462055
10
23.6414574337
20
57.5655042467
10
23.6397638608
20
57.6720790811
10
23.6372276841
20
57.7850469041
10
23.6338268566
20
57.9042680617
10
23.6295393315
20
58.0296028996
10
23.6243430616
20
58.1609117637
10
23.618216
20
58.298055
10
23.618216
20
58.298055
10
23.6115807847
20
58.428149912
10
23.604016076
20
58.5570936757
10
23.5955664407
20
58.6846419296
10
23.5862764456
20
58.810550312
10
23.5761906578
20
58.9345744614
10
23.565353644
20
59.0564700162
10
23.5538099711
20
59.1759926148
10
23.5416042061
20
59.2928978956
10
23.5287809158
20
59.4069414971
10
23.515384667
20
59.5178790576
10
23.5014600268
20
59.6254662156
10
23.4870515619
20
59.7294586094
10
23.4722038392
20
59.8296118775
10
23.4569614257
20
59.9256816584
10
23.4413688881
20
60.0174235903
10
23.4254707935
20
60.1045933118
10
23.4093117086
20
60.1869464613
10
23.3929362003
20
60.2642386771
10
23.3763888356
20
60.3362255977
10
23.3597141813
20
60.4026628614
10
23.3429568043
20
60.4633061068
10
23.3261612715
20
60.5179109722
10
23.3093721498
20
60.566233096
10
23.292634006
20
60.6080281167
10
23.275991407
20
60.6430516727
10
23.2594889197
20
60.6710594023
10
23.2431711111
20
60.691806944
10
23.2270825479
20
60.7050499362
10
23.2112677971
20
60.7105440173
10
23.1957714255
20
60.7080448258
10
23.180638
20
60.697308
10
23.1757730378
20
60.6881824623
10
23.1719447287
20
60.6716403203
10
23.1691447459
20
60.6477753778
10
23.1673647623
20
60.6166814386
10
23.1665964509
20
60.5784523062
10
23.1668314846
20
60.5331817844
10
23.1680615365
20
60.4809636768
10
23.1702782795
20
60.4218917873
10
23.1734733867
20
60.3560599195
10
23.177638531
20
60.283561877
10
23.1827653855
20
60.2044914636
10
23.188845623
20
60.118942483
10
23.1958709166
20
60.0270087389
10
23.2038329393
20
59.928784035
10
23.212723364
20
59.8243621749
10
23.2225338639
20
59.7138369624
10
23.2332561117
20
59.5973022012
10
23.2448817806
20
59.474851695
10
23.2574025435
20
59.3465792475
10
23.2708100734
20
59.2125786623
10
23.2850960434
20
59.0729437432
10
23.3002521263
20
58.9277682938
10
23.3162699952
20
58.777146118
10
23.333141323
20
58.6211710193
10
23.3508577828
20
58.4599368015
0
LWPOLYLINE
5
48
100
AcDbEntity
8
0
6
ByLayer
62
256
370
-1
100
AcDbPolyline
90
127
70
1
43
0
10
20.654306742
20
52.4913843538
10
20.6575243277
20
52.5661596649
10
20.6593541621
20
52.6391023379
10
20.659769
20
52.710086
10
20.657426
20
53.256609
10
20.263161
20
52.541232
10
20.2421312736
20
52.5032158662
10
20.2210364396
20
52.4653577395
10
20.1999130159
20
52.4277167734
10
20.1787975202
20
52.3903521216
10
20.1577264703
20
52.353322938
10
20.136736384
20
52.3166883762
10
20.1158637793
20
52.2805075899
10
20.0951451737
20
52.2448397328
10
20.0746170853
20
52.2097439586
10
20.0543160317
20
52.175279421
10
20.0342785308
20
52.1415052738
10
20.0145411004
20
52.1084806705
10
19.9951402583
20
52.076264765
10
19.9761125223
20
52.044916711
10
19.9574944103
20
52.014495662
10
19.9393224399
20
51.9850607719
10
19.9216331291
20
51.9566711944
10
19.9044629956
20
51.929386083
10
19.8878485572
20
51.9032645917
10
19.8718263318
20
51.878365874
10
19.8564328372
20
51.8547490836
10
19.8417045911
20
51.8324733744
10
19.8276781114
20
51.8115978999
10
19.8143899158
20
51.7921818138
10
19.8018765223
20
51.77428427
10
19.7901744486
20
51.757964422
10
19.7793202124
20
51.7432814236
10
19.7693503317
20
51.7302944285
10
19.7603013242
20
51.7190625904
10
19.7522097077
20
51.709645063
10
19.745112
20
51.702101
10
19.7305167412
20
51.6814245325
10
19.7168399335
20
51.6500193139
10
19.7040850624
20
51.6086587494
10
19.6922556134
20
51.5581162439
10
19.6813550721
20
51.4991652026
10
19.6713869238
20
51.4325790305
10
19.662354654
20
51.3591311326
10
19.6542617483
20
51.279594914
10
19.6471116921
20
51.1947437798
10
19.6409079709
20
51.1053511349
10
19.6356540702
20
51.0121903846
10
19.6313534755
20
50.9160349337
10
19.6280096722
20
50.8176581875
10
19.6256261458
20
50.7178335508
10
19.6242063819
20
50.6173344289
10
19.6237538658
20
50.5169342267
10
19.6242720831
20
50.4174063493
10
19.6257645193
20
50.3195242017
10
19.6282346598
20
50.2240611891
10
19.6316859901
20
50.1317907164
10
19.6361219958
20
50.0434861887
10
19.6415461622
20
49.9599210111
10
19.6479619749
20
49.8818685886
10
19.6553729193
20
49.8101023263
10
19.663782481
20
49.7453956293
10
19.6731941454
20
49.6885219025
10
19.683611398
20
49.6402545511
10
19.6950377243
20
49.6013669801
10
19.7074766097
20
49.5726325945
10
19.7209315398
20
49.5548247995
10
19.735406
20
49.548717
10
19.7418059268
20
49.549577903
10
19.7488440363
20
49.5521315665
10
19.7564938226
20
49.5563344222
10
19.7647287796
20
49.5621429018
10
19.7735224013
20
49.5695134368
10
19.7828481815
20
49.5784024591
10
19.7926796142
20
49.5887664002
10
19.8029901933
20
49.6005616919
10
19.8137534129
20
49.6137447658
10
19.8249427668
20
49.6282720535
10
19.836531749
20
49.6440999869
10
19.8484938534
20
49.6611849974
10
19.8608025739
20
49.6794835169
10
19.8734314046
20
49.698951977
10
19.8863538393
20
49.7195468093
10
19.899543372
20
49.7412244456
10
19.9129734966
20
49.7639413175
10
19.926617707
20
49.7876538566
10
19.9404494973
20
49.8123184947
10
19.9544423613
20
49.8378916635
10
19.968569793
20
49.8643297945
10
19.9828052864
20
49.8915893196
10
19.9971223353
20
49.9196266702
10
20.0114944337
20
49.9483982782
10
20.0258950756
20
49.9778605752
10
20.0402977548
20
50.0079699929
10
20.0546759654
20
50.0386829629
10
20.0690032013
20
50.069955917
10
20.0832529564
20
50.1017452867
10
20.0973987246
20
50.1340075038
10
20.111414
20
50.166699
10
20.111402
20
50.166699
10
20.1424151522
20
50.241480737
10
20.1728034132
20
50.31796828
10
20.2025395379
20
50.3960352559
10
20.2315962815
20
50.4755552919
10
20.2599463988
20
50.5564020148
10
20.2875626449
20
50.6384490518
10
20.3144177747
20
50.7215700297
10
20.3404845433
20
50.8056385756
10
20.3657357056
20
50.8905283165
10
20.3901440167
20
50.9761128794
10
20.4136822315
20
51.0622658912
10
20.436323105
20
51.1488609791
10
20.4580393923
20
51.23577177
10
20.4788038482
20
51.3228718909
10
20.4985892279
20
51.4100349687
10
20.5173682862
20
51.4971346306
10
20.5351137782
20
51.5840445035
10
20.5517984589
20
51.6706382144
10
20.5673950833
20
51.7567893903
10
20.5818764064
20
51.8423716582
10
20.5952151831
20
51.9272586451
10
20.6073841684
20
52.011323978
10
20.6183561175
20
52.0944412839
10
20.6281037851
20
52.1764841899
10
20.6365999264
20
52.2573263228
10
20.6438172963
20
52.3368413098
10
20.6497286498
20
52.4149027778
0
LWPOLYLINE
5
49
100
AcDbEntity
8
0
6
ByLayer
62
256
370
-1
100
AcDbPolyline
90
282
70
1
43
0
10
8.65884525031
20
15.0630777697
10
8.56935062908
20
14.7183901433
10
8.48409011467
20
14.3876168687
10
8.40370546296
20
14.0731394127
10
8.32883842986
20
13.7773392419
10
8.26013077127
20
13.5025978229
10
8.19822424309
20
13.2512966226
10
8.14376060122
20
13.0258171075
10
8.09738160156
20
12.8285407445
10
8.059729
20
12.661849
10
8.02686511265
20
12.5102457323
10
7.99436268165
20
12.3563936121
10
7.96224668259
20
12.2004613246
10
7.93054209107
20
12.0426175552
10
7.89927388268
20
11.8830309894
10
7.86846703303
20
11.7218703124
10
7.83814651771
20
11.5593042097
10
7.80833731231
20
11.3955013667
10
7.77906439243
20
11.2306304687
10
7.75035273368
20
11.064860201
10
7.72222731164
20
10.8983592492
10
7.69471310191
20
10.7312962984
10
7.66783508009
20
10.5638400342
10
7.64161822178
20
10.3961591419
10
7.61608750257
20
10.2284223069
10
7.59126789806
20
10.0607982145
10
7.56718438384
20
9.89345555007
10
7.54386193552
20
9.72656299906
10
7.52132552868
20
9.56028924682
10
7.49960013893
20
9.39480297872
10
7.47871074187
20
9.23027288013
10
7.45868231308
20
9.06686763643
10
7.43953982817
20
8.904755933
10
7.42130826273
20
8.7441064552
10
7.40401259236
20
8.58508788842
10
7.38767779266
20
8.42786891803
10
7.37232883921
20
8.2726182294
10
7.35799070763
20
8.11950450791
10
7.3446883735
20
7.96869643892
10
7.33244681243
20
7.82036270783
10
7.321291
20
7.674672
10
7.231842
20
6.457419
10
8.421274
20
7.071733
10
8.49960154741
20
7.11249252764
10
8.57598568212
20
7.15286249898
10
8.65044828797
20
7.19285844822
10
8.72301124883
20
7.2324959096
10
8.79369644856
20
7.27179041734
10
8.862525771
20
7.31075750566
10
8.92952110003
20
7.34941270877
10
8.99470431949
20
7.38777156091
10
9.05809731325
20
7.42584959629
10
9.11972196516
20
7.46366234913
10
9.17960015907
20
7.50122535366
10
9.23775377886
20
7.5385541441
10
9.29420470837
20
7.57566425467
10
9.34897483146
20
7.6125712196
10
9.40208603199
20
7.64929057309
10
9.45356019382
20
7.68583784938
10
9.5034192008
20
7.72222858269
10
9.55168493679
20
7.75847830724
10
9.59837928566
20
7.79460255725
10
9.64352413125
20
7.83061686694
10
9.68714135742
20
7.86653677053
10
9.72925284804
20
7.90237780226
10
9.76988048696
20
7.93815549632
10
9.80904615803
20
7.97388538696
10
9.84677174512
20
8.00958300839
10
9.88307913209
20
8.04526389483
10
9.91799020278
20
8.08094358051
10
9.95152684106
20
8.11663759964
10
9.98371093078
20
8.15236148646
10
10.0145643558
20
8.18813077517
10
10.044109
20
8.223961
10
10.044109
20
8.223961
10
10.0680448217
20
8.25390020862
10
10.0936615902
20
8.28638581152
10
10.1208777445
20
8.321304742
10
10.1496117235
20
8.35854393337
10
10.1797819663
20
8.39799031892
10
10.2113069119
20
8.43953083196
10
10.2441049993
20
8.48305240579
10
10.2780946673
20
8.52844197372
10
10.3131943552
20
8.57558646903
10
10.3493225017
20
8.62437282505
10
10.386397546
20
8.67468797506
10
10.424337927
20
8.72641885237
10
10.4630620837
20
8.77945239029
10
10.5024884551
20
8.8336755221
10
10.5425354801
20
8.88897518113
10
10.5831215979
20
8.94523830066
10
10.6241652473
20
9.002351814
10
10.6655848674
20
9.06020265446
10
10.7072988972
20
9.11867775533
10
10.7492257755
20
9.17766404991
10
10.7912839416
20
9.23704847152
10
10.8333918342
20
9.29671795344
10
10.8754678925
20
9.35655942899
10
10.9174305554
20
9.41645983146
10
10.9591982619
20
9.47630609416
10
11.0006894509
20
9.53598515038
10
11.0418225616
20
9.59538393344
10
11.0825160329
20
9.65438937662
10
11.1226883037
20
9.71288841325
10
11.1622578131
20
9.7707679766
10
11.201143
20
9.827915
10
11.2853779369
20
9.9526266697
10
11.3643498084
20
10.0713191255
10
11.4382095282
20
10.1849746667
10
11.5071080101
20
10.2945755923
10
11.5711961679
20
10.4011042014
10
11.6306249153
20
10.5055427934
10
11.6855451662
20
10.6088736672
10
11.7361078342
20
10.7120791221
10
11.7824638332
20
10.8161414571
10
11.8247640768
20
10.9220429715
10
11.863159479
20
11.0307659645
10
11.8978009533
20
11.143292735
10
11.9288394137
20
11.2606055824
10
11.9564257739
20
11.3836868057
10
11.9807109475
20
11.5135187041
10
12.0018458485
20
11.6510835768
10
12.0199813906
20
11.7973637229
10
12.0352684874
20
11.9533414415
10
12.0478580529
20
12.1199990319
10
12.0579010007
20
12.2983187931
10
12.0655482447
20
12.4892830243
10
12.0709506986
20
12.6938740247
10
12.0742592761
20
12.9130740934
10
12.075624891
20
13.1478655295
10
12.0751984572
20
13.3992306322
10
12.0731308883
20
13.6681517007
10
12.0695730981
20
13.9556110342
10
12.0646760004
20
14.2625909317
10
12.058590509
20
14.5900736924
10
12.0514675376
20
14.9390416154
10
12.043458
20
15.310477
10
12.0384913438
20
15.5293850038
10
12.0333723552
20
15.7397746347
10
12.0280781169
20
15.9419339028
10
12.0225857116
20
16.1361508181
10
12.0168722221
20
16.3227133909
10
12.0109147311
20
16.501909631
10
12.0046903214
20
16.6740275486
10
11.9981760757
20
16.8393551538
10
11.9913490767
20
16.9981804566
10
11.9841864072
20
17.1507914671
10
11.97666515
20
17.2974761954
10
11.9687623878
20
17.4385226515
10
11.9604552032
20
17.5742188455
10
11.9517206792
20
17.7048527875
10
11.9425358984
20
17.8307124876
10
11.9328779435
20
17.9520859557
10
11.9227238973
20
18.0692612021
10
11.9120508425
20
18.1825262367
10
11.900835862
20
18.2921690696
10
11.8890560383
20
18.398477711
10
11.8766884544
20
18.5017401708
10
11.8637101928
20
18.6022444591
10
11.8500983364
20
18.700278586
10
11.8358299679
20
18.7961305617
10
11.8208821701
20
18.8900883961
10
11.8052320256
20
18.9824400993
10
11.7888566172
20
19.0734736813
10
11.7717330278
20
19.1634771524
10
11.7538383399
20
19.2527385225
10
11.7351496364
20
19.3415458017
10
11.715644
20
19.430187
10
11.7016062015
20
19.4928101969
10
11.6875190894
20
19.5559560948
10
11.6734071858
20
19.6195077669
10
11.6592950127
20
19.6833482867
10
11.6452070922
20
19.7473607276
10
11.6311679463
20
19.8114281631
10
11.617202097
20
19.8754336665
10
11.6033340664
20
19.9392603113
10
11.5895883765
20
20.0027911708
10
11.5759895493
20
20.0659093185
10
11.5625621069
20
20.1284978278
10
11.5493305714
20
20.190439772
10
11.5363194647
20
20.2516182247
10
11.5235533089
20
20.3119162592
10
11.511056626
20
20.371216949
10
11.498853938
20
20.4294033674
10
11.4869697671
20
20.4863585878
10
11.4754286352
20
20.5419656837
10
11.4642550644
20
20.5961077285
10
11.4534735767
20
20.6486677955
10
11.4431086942
20
20.6995289583
10
11.4331849388
20
20.7485742902
10
11.4237268327
20
20.7956868646
10
11.4147588978
20
20.8407497549
10
11.4063056562
20
20.8836460346
10
11.39839163
20
20.924258777
10
11.3910413411
20
20.9624710557
10
11.3842793116
20
20.9981659438
10
11.3781300636
20
21.031226515
10
11.372618119
20
21.0615358426
10
11.367768
20
21.088977
10
11.360549931
20
21.1297118497
10
11.3534132939
20
21.1681508381
10
11.3462960888
20
21.2043590758
10
11.3391363157
20
21.2384016734
10
11.3318719747
20
21.2703437415
10
11.3244410659
20
21.3002503907
10
11.3167815893
20
21.3281867316
10
11.3088315451
20
21.3542178749
10
11.3005289332
20
21.3784089311
10
11.2918117538
20
21.4008250108
10
11.2826180069
20
21.4215312247
10
11.2728856926
20
21.4405926833
10
11.2625528109
20
21.4580744972
10
11.251557362
20
21.4740417771
10
11.2398373458
20
21.4885596335
10
11.2273307624
20
21.5016931771
10
11.213975612
20
21.5135075184
10
11.1997098946
20
21.5240677682
10
11.1844716102
20
21.5334390368
10
11.168198759
20
21.5416864351
10
11.1508293409
20
21.5488750735
10
11.132301356
20
21.5550700627
10
11.1125528045
20
21.5603365132
10
11.0915216864
20
21.5647395358
10
11.0691460017
20
21.5683442409
10
11.0453637506
20
21.5712157393
10
11.020112933
20
21.5734191414
10
10.9933315491
20
21.575019558
10
10.9649575989
20
21.5760820995
10
10.9349290825
20
21.5766718766
10
10.903184
20
21.576854
10
10.8810001028
20
21.5765722389
10
10.8590358004
20
21.5757325561
10
10.8373094349
20
21.5743433526
10
10.8158393481
20
21.5724130292
10
10.7946438822
20
21.569949987
10
10.773741379
20
21.5669626269
10
10.7531501806
20
21.5634593497
10
10.7328886289
20
21.5594485565
10
10.712975066
20
21.554938648
10
10.6934278337
20
21.5499380254
10
10.6742652741
20
21.5444550894
10
10.6555057292
20
21.538498241
10
10.637167541
20
21.5320758812
10
10.6192690514
20
21.5251964108
10
10.6018286024
20
21.5178682308
10
10.584864536
20
21.5100997421
10
10.5683951942
20
21.5018993457
10
10.5524389189
20
21.4932754424
10
10.5370140522
20
21.4842364333
10
10.5221389361
20
21.4747907191
10
10.5078319124
20
21.4649467009
10
10.4941113232
20
21.4547127796
10
10.4809955105
20
21.4440973561
10
10.4685028163
20
21.4331088313
10
10.4566515825
20
21.4217556062
10
10.4454601511
20
21.4100460816
10
10.4349468642
20
21.3979886586
10
10.4251300636
20
21.385591738
10
10.4160280914
20
21.3728637207
10
10.4076592895
20
21.3598130078
10
10.400042
20
21.346448
10
10.3797612715
20
21.298155704
10
10.34959602
20
21.2113854929
10
10.3101880014
20
21.0885188332
10
10.2621789717
20
20.9319371916
10
10.2062106867
20
20.7440220349
10
10.1429249023
20
20.5271548298
10
10.0729633744
20
20.2837170428
10
9.99696785895
20
20.0160901408
10
9.91558011181
20
19.7266555903
10
9.82944188889
20
19.4177948581
10
9.73919494609
20
19.0918894109
10
9.64548103931
20
18.7513207152
10
9.54894192444
20
18.398470238
10
9.45021935739
20
18.0357194457
10
9.34995509406
20
17.6654498051
10
9.24879089034
20
17.2900427829
10
9.14736850213
20
16.9118798457
10
9.04632968534
20
16.5333424603
10
8.94631619586
20
16.1568120933
10
8.8479697896
20
15.7846702114
10
8.75193222245
20
15.4192982813
0
ENDSEC
0
SECTION
2
OBJECTS
0
DICTIONARY
5
C
330
0
100
AcDbDictionary
281
1
3
ACAD_GROUP
350
D
0
DICTIONARY
5
D
330
C
100
AcDbDictionary
281
1
0
ENDSEC
0
EOF
