999
dxfrw 0.5.10
0
SECTION
2
HEADER
9
$ACADVER
1
AC1021
9
$HANDSEED
5
20000
9
$DWGCODEPAGE
3
ANSI_1252
9
$INSBASE
10
0
20
0
30
0
9
$EXTMIN
10
1.99454197577e-05
20
1.51763284213e-05
30
0
9
$EXTMAX
10
26.537933
20
100.000003
30
0
9
$LIMMIN
10
0
20
0
9
$LIMMAX
10
420
20
297
9
$ORTHOMODE
70
0
9
$LTSCALE
40
1
9
$TEXTSTYLE
7
STANDARD
9
$CLAYER
8
0
9
$DIMASZ
40
2.5
9
$DIMLFAC
40
1
9
$DIMSCALE
40
1
9
$DIMEXO
40
0.625
9
$DIMEXE
40
1.25
9
$DIMTXT
40
2.5
9
$DIMTSZ
40
0
9
$DIMAUNIT
70
0
9
$DIMADEC
70
0
9
$DIMLUNIT
70
2
9
$DIMSTYLE
2
Standard
9
$DIMGAP
40
0.625
9
$DIMTIH
70
0
9
$LUNITS
70
2
9
$LUPREC
70
4
9
$AUNITS
70
0
9
$AUPREC
70
2
9
$SPLINESEGS
70
8
9
$GRIDMODE
70
1
9
$SNAPSTYLE
70
0
9
$PINSBASE
10
0
20
0
30
0
9
$PLIMMIN
10
0
20
0
9
$PLIMMAX
10
210
20
297
9
$INSUNITS
70
4
9
$PSVPSCALE
40
1
0
ENDSEC
0
SECTION
2
CLASSES
0
ENDSEC
0
SECTION
2
TABLES
0
TABLE
2
VPORT
5
8
330
0
100
AcDbSymbolTable
70
1
0
VPORT
5
31
330
2
100
AcDbSymbolTableRecord
100
AcDbViewportTableRecord
2
*ACTIVE
70
0
10
0
20
0
11
1
21
1
12
49.1095830614
22
50.6849253353
13
0
23
0
14
10
24
10
15
10
25
10
16
0
26
0
36
1
17
0
27
0
37
0
40
102.739713517
41
1.65333333333
42
50
43
0
44
0
50
0
51
0
71
0
72
100
73
1
74
3
75
0
76
1
77
0
78
0
281
0
65
1
110
0
120
0
130
0
111
1
121
0
131
0
112
0
122
1
132
0
79
0
146
0
348
10020
60
7
61
5
292
1
282
1
141
0
142
0
63
250
421
3358443
0
ENDTAB
0
TABLE
2
LTYPE
5
5
330
0
100
AcDbSymbolTable
70
4
0
LTYPE
5
14
330
5
100
AcDbSymbolTableRecord
100
AcDbLinetypeTableRecord
2
ByBlock
70
0
3

72
65
73
0
40
0
0
LTYPE
5
15
330
5
100
AcDbSymbolTableRecord
100
AcDbLinetypeTableRecord
2
ByLayer
70
0
3

72
65
73
0
40
0
0
LTYPE
5
16
330
5
100
AcDbSymbolTableRecord
100
AcDbLinetypeTableRecord
2
Continuous
70
0
3
Solid line
72
65
73
0
40
0
0
LTYPE
5
32
330
5
100
AcDbSymbolTableRecord
100
AcDbLinetypeTableRecord
2
DOT
70
0
3
Dot . . . . . . . . . . . . . . . . . . . . . .
72
65
73
2
40
6.35
49
0
74
0
49
-6.35
74
0
0
LTYPE
5
33
330
5
100
AcDbSymbolTableRecord
100
AcDbLinetypeTableRecord
2
DOT2
70
0
3
Dot (.5x) .....................................
72
65
73
2
40
3.175
49
0
74
0
49
-3.175
74
0
0
LTYPE
5
34
330
5
100
AcDbSymbolTableRecord
100
AcDbLinetypeTableRecord
2
DOTX2
70
0
3
Dot (2x) .  .  .  .  .  .  .  .  .  .  .  .  .
72
65
73
2
40
12.7
49
0
74
0
49
-12.7
74
0
0
LTYPE
5
35
330
5
100
AcDbSymbolTableRecord
100
AcDbLinetypeTableRecord
2
DASHED
70
0
3
Dot . . . . . . . . . . . . . . . . . . . . . .
72
65
73
2
40
19.05
49
12.7
74
0
49
-6.35
74
0
0
LTYPE
5
36
330
5
100
AcDbSymbolTableRecord
100
AcDbLinetypeTableRecord
2
DASHED2
70
0
3
Dashed (.5x) _ _ _ _ _ _ _ _ _ _ _ _ _ _ _ _ _
72
65
73
2
40
9.525
49
6.35
74
0
49
-3.175
74
0
0
LTYPE
5
37
330
5
100
AcDbSymbolTableRecord
100
AcDbLinetypeTableRecord
2
DASHEDX2
70
0
3
Dashed (2x) ____  ____  ____  ____  ____  ___
72
65
73
2
40
38.1
49
25.4
74
0
49
-12.7
74
0
0
LTYPE
5
38
330
5
100
AcDbSymbolTableRecord
100
AcDbLinetypeTableRecord
2
DASHDOT
70
0
3
Dash dot __ . __ . __ . __ . __ . __ . __ . __
72
65
73
4
40
25.4
49
12.7
74
0
49
-6.35
74
0
49
0
74
0
49
-6.35
74
0
0
LTYPE
5
39
330
5
100
AcDbSymbolTableRecord
100
AcDbLinetypeTableRecord
2
DASHDOT2
70
0
3
Dash dot (.5x) _._._._._._._._._._._._._._._.
72
65
73
4
40
12.7
49
6.35
74
0
49
-3.175
74
0
49
0
74
0
49
-3.175
74
0
0
LTYPE
5
3A
330
5
100
AcDbSymbolTableRecord
100
AcDbLinetypeTableRecord
2
DASHDOTX2
70
0
3
Dash dot (2x) ____  .  ____  .  ____  .  ___
72
65
73
4
40
50.8
49
25.4
74
0
49
-12.7
74
0
49
0
74
0
49
-12.7
74
0
0
LTYPE
5
3B
330
5
100
AcDbSymbolTableRecord
100
AcDbLinetypeTableRecord
2
DIVIDE
70
0
3
Divide ____ . . ____ . . ____ . . ____ . . ____
72
65
73
6
40
31.75
49
12.7
74
0
49
-6.35
74
0
49
0
74
0
49
-6.35
74
0
49
0
74
0
49
-6.35
74
0
0
LTYPE
5
3C
330
5
100
AcDbSymbolTableRecord
100
AcDbLinetypeTableRecord
2
DIVIDE2
70
0
3
Divide (.5x) __..__..__..__..__..__..__..__.._
72
65
73
6
40
15.875
49
6.35
74
0
49
-3.175
74
0
49
0
74
0
49
-3.175
74
0
49
0
74
0
49
-3.175
74
0
0
LTYPE
5
3D
330
5
100
AcDbSymbolTableRecord
100
AcDbLinetypeTableRecord
2
DIVIDEX2
70
0
3
Divide (2x) ________  .  .  ________  .  .  _
72
65
73
6
40
63.5
49
25.4
74
0
49
-12.7
74
0
49
0
74
0
49
-12.7
74
0
49
0
74
0
49
-12.7
74
0
0
LTYPE
5
3E
330
5
100
AcDbSymbolTableRecord
100
AcDbLinetypeTableRecord
2
BORDER
70
0
3
Border __ __ . __ __ . __ __ . __ __ . __ __ .
72
65
73
6
40
44.45
49
12.7
74
0
49
-6.35
74
0
49
12.7
74
0
49
-6.35
74
0
49
0
74
0
49
-6.35
74
0
0
LTYPE
5
3F
330
5
100
AcDbSymbolTableRecord
100
AcDbLinetypeTableRecord
2
BORDER2
70
0
3
Border (.5x) __.__.__.__.__.__.__.__.__.__.__.
72
65
73
6
40
22.225
49
6.35
74
0
49
-3.175
74
0
49
6.35
74
0
49
-3.175
74
0
49
0
74
0
49
-3.175
74
0
0
LTYPE
5
40
330
5
100
AcDbSymbolTableRecord
100
AcDbLinetypeTableRecord
2
BORDERX2
70
0
3
Border (2x) ____  ____  .  ____  ____  .  ___
72
65
73
6
40
88.9
49
25.4
74
0
49
-12.7
74
0
49
25.4
74
0
49
-12.7
74
0
49
0
74
0
49
-12.7
74
0
0
LTYPE
5
41
330
5
100
AcDbSymbolTableRecord
100
AcDbLinetypeTableRecord
2
CENTER
70
0
3
Center ____ _ ____ _ ____ _ ____ _ ____ _ ____
72
65
73
4
40
50.8
49
31.75
74
0
49
-6.35
74
0
49
6.35
74
0
49
-6.35
74
0
0
LTYPE
5
42
330
5
100
AcDbSymbolTableRecord
100
AcDbLinetypeTableRecord
2
CENTER2
70
0
3
Center (.5x) ___ _ ___ _ ___ _ ___ _ ___ _ ___
72
65
73
4
40
28.575
49
19.05
74
0
49
-3.175
74
0
49
3.175
74
0
49
-3.175
74
0
0
LTYPE
5
43
330
5
100
AcDbSymbolTableRecord
100
AcDbLinetypeTableRecord
2
CENTERX2
70
0
3
Center (2x) ________  __  ________  __  _____
72
65
73
4
40
101.6
49
63.5
74
0
49
-12.7
74
0
49
12.7
74
0
49
-12.7
74
0
0
ENDTAB
0
TABLE
2
LAYER
5
2
330
0
100
AcDbSymbolTable
70
1
0
LAYER
5
10
330
2
100
AcDbSymbolTableRecord
100
AcDbLayerTableRecord
2
0
70
0
62
7
6
CONTINUOUS
370
-3
390
F
0
ENDTAB
0
TABLE
2
STYLE
5
3
330
0
100
AcDbSymbolTable
70
3
0
STYLE
5
44
330
2
100
AcDbSymbolTableRecord
100
AcDbTextStyleTableRecord
2
Standard
70
0
40
0
41
1
50
0
71
0
42
1
3
txt
4

0
ENDTAB
0
TABLE
2
VIEW
5
6
330
0
100
AcDbSymbolTable
70
0
0
ENDTAB
0
TABLE
2
UCS
5
7
330
0
100
AcDbSymbolTable
70
0
0
ENDTAB
0
TABLE
2
APPID
5
9
330
0
100
AcDbSymbolTable
70
1
0
APPID
5
12
330
9
100
AcDbSymbolTableRecord
100
AcDbRegAppTableRecord
2
ACAD
70
0
0
ENDTAB
0
TABLE
2
DIMSTYLE
5
A
330
0
100
AcDbSymbolTable
70
1
100
AcDbDimStyleTable
71
1
0
DIMSTYLE
105
45
330
A
100
AcDbSymbolTableRecord
100
AcDbDimStyleTableRecord
2
Standard
70
0
40
1
41
2.5
42
0.625
43
0.38
44
1.25
45
0
46
0
47
0
48
0
140
2.5
141
0.09
142
0
143
25.4
144
1
145
0
146
1
147
0.625
148
0
71
0
72
0
73
0
74
1
75
0
76
0
77
0
78
0
79
0
170
0
171
2
172
0
173
0
174
0
175
0
176
0
177
0
178
0
179
0
271
4
272
4
273
2
274
2
275
0
276
0
277
2
278
46
279
0
280
0
281
0
282
0
283
1
284
0
285
0
286
0
288
0
289
3
340
Standard
341

371
-2
372
-2
0
ENDTAB
0
TABLE
2
BLOCK_RECORD
5
1
330
0
100
AcDbSymbolTable
70
2
0
BLOCK_RECORD
5
1F
330
1
100
AcDbSymbolTableRecord
100
AcDbBlockTableRecord
2
*Model_Space
70
0
280
1
281
0
0
BLOCK_RECORD
5
1E
330
1
100
AcDbSymbolTableRecord
100
AcDbBlockTableRecord
2
*Paper_Space
70
0
280
1
281
0
0
ENDTAB
0
ENDSEC
0
SECTION
2
BLOCKS
0
BLOCK
5
20
330
1F
100
AcDbEntity
8
0
100
AcDbBlockBegin
2
*Model_Space
70
0
10
0
20
0
30
0
3
*Model_Space
1

0
ENDBLK
5
21
330
1F
100
AcDbEntity
8
0
100
AcDbBlockEnd
0
BLOCK
5
1C
330
1B
100
AcDbEntity
8
0
100
AcDbBlockBegin
2
*Paper_Space
70
0
10
0
20
0
30
0
3
*Paper_Space
1

0
ENDBLK
5
1D
330
1F
100
AcDbEntity
8
0
100
AcDbBlockEnd
0
ENDSEC
0
SECTION
2
ENTITIES
0
LWPOLYLINE
5
46
100
AcDbEntity
8
0
6
ByLayer
62
256
370
-1
100
AcDbPolyline
90
4015
70
1
43
0
10
5.45417578
20
61.5285118051
10
5.33640058242
20
61.3746631261
10
5.21668202632
20
61.2187011049
10
5.09520502974
20
61.0608742026
10
4.97215451076
20
60.90143088
10
4.84771538743
20
60.740619598
10
4.72207257783
20
60.5786888177
10
4.595411
20
60.415887
10
4.31870687916
20
60.059829026
10
4.05693883035
20
59.7210079279
10
3.809679679
20
59.3986325548
10
3.57650225051
20
59.0919117554
10
3.35697937031
20
58.8000543787
10
3.15068386382
20
58.5222692737
10
2.95718855644
20
58.2577652892
10
2.77606627361
20
58.0057512742
10
2.60688984072
20
57.7654360775
10
2.44923208321
20
57.5360285481
10
2.30266582649
20
57.3167375349
10
2.16676389598
20
57.1067718868
10
2.04109911708
20
56.9053404528
10
1.92524431523
20
56.7116520817
10
1.81877231583
20
56.5249156224
10
1.72125594431
20
56.3443399239
10
1.63226802608
20
56.1691338351
10
1.55138138656
20
55.9985062049
10
1.47816885116
20
55.8316658821
10
1.41220324531
20
55.6678217159
10
1.35305739441
20
55.5061825549
10
1.3003041239
20
55.3459572482
10
1.25351625917
20
55.1863546447
10
1.21226662566
20
55.0265835932
10
1.17612804877
20
54.8658529427
10
1.14467335393
20
54.7033715422
10
1.11747536655
20
54.5383482404
10
1.09410691205
20
54.3699918864
10
1.07414081585
20
54.1975113291
10
1.05714990336
20
54.0201154173
10
1.042707
20
53.837013
10
1.03726265869
20
53.7634218472
10
1.0315254974
20
53.6907968767
10
1.02551156816
20
53.6192361751
10
1.019236923
20
53.5488378287
10
1.01271761394
20
53.4796999242
10
1.00596969303
20
53.4119205482
10
0.999009212279
20
53.3455977871
10
0.991852223725
20
53.2808297275
10
0.984514779396
20
53.2177144559
10
0.977012931322
20
53.1563500588
10
0.96936273153
20
53.0968346229
10
0.96158023205
20
53.0392662346
10
0.953681484912
20
52.9837429805
10
0.945682542144
20
52.930362947
10
0.937599455775
20
52.8792242208
10
0.929448277836
20
52.8304248884
10
0.921245060354
20
52.7840630363
10
0.913005855359
20
52.7402367511
10
0.90474671488
20
52.6990441192
10
0.896483690947
20
52.6605832272
10
0.888232835588
20
52.6249521618
10
0.880010200832
20
52.5922490093
10
0.87183183871
20
52.5625718563
10
0.863713801249
20
52.5360187894
10
0.855672140479
20
52.5126878951
10
0.847722908429
20
52.4926772599
10
0.839882157128
20
52.4760849705
10
0.832165938606
20
52.4630091132
10
0.824590304891
20
52.4535477747
10
0.817171308012
20
52.4477990414
10
0.809925
20
52.445861
10
0.802801007821
20
52.445144815
10
0.795746265483
20
52.4430202357
10
0.788771914605
20
52.439523226
10
0.781889096808
20
52.4346897496
10
0.775108953711
20
52.4285557702
10
0.768442626934
20
52.4211572516
10
0.761901258098
20
52.4125301575
10
0.755495988822
20
52.4027104517
10
0.749237960726
20
52.3917340979
10
0.743138315431
20
52.3796370599
10
0.737208194555
20
52.3664553014
10
0.73145873972
20
52.3522247861
10
0.725901092545
20
52.3369814779
10
0.720546394649
20
52.3207613404
10
0.715405787654
20
52.3036003374
10
0.710490413178
20
52.2855344326
10
0.705811412843
20
52.2665995899
10
0.701379928267
20
52.2468317729
10
0.697207101071
20
52.2262669454
10
0.693304072874
20
52.2049410712
10
0.689681985298
20
52.1828901139
10
0.68635197996
20
52.1601500374
10
0.683325198483
20
52.1367568053
10
0.680612782485
20
52.1127463815
10
0.678225873586
20
52.0881547296
10
0.676175613407
20
52.0630178135
10
0.674473143567
20
52.0373715969
10
0.673129605686
20
52.0112520435
10
0.672156141385
20
51.984695117
10
0.671563892283
20
51.9577367813
10
0.671364
20
51.930413
10
0.671161433587
20
51.9025225685
10
0.670559980665
20
51.8738842431
10
0.669569010708
20
51.844563058
10
0.668197893189
20
51.8146240475
10
0.666455997583
20
51.7841322459
10
0.664352693364
20
51.7531526875
10
0.661897350005
20
51.7217504065
10
0.659099336981
20
51.6899904372
10
0.655968023766
20
51.6579378139
10
0.652512779833
20
51.6256575708
10
0.648742974657
20
51.5932147423
10
0.644667977711
20
51.5606743626
10
0.640297158471
20
51.5281014659
10
0.635639886409
20
51.4955610865
10
0.630705530999
20
51.4631182588
10
0.625503461717
20
51.430838017
10
0.620043048035
20
51.3987853953
10
0.614333659427
20
51.367025428
10
0.608384665369
20
51.3356231494
10
0.602205435333
20
51.3046435938
10
0.595805338794
20
51.2741517954
10
0.589193745225
20
51.2442127886
10
0.582380024101
20
51.2148916075
10
0.575373544896
20
51.1862532865
10
0.568183677084
20
51.1583628599
10
0.560819790138
20
51.1312853618
10
0.553291253533
20
51.1050858266
10
0.545607436743
20
51.0798292885
10
0.537777709241
20
51.0555807819
10
0.529811440502
20
51.032405341
10
0.521718
20
51.010368
10
0.503465381256
20
50.9580547342
10
0.483898702494
20
50.8940091685
10
0.463166342822
20
50.819123908
10
0.441416681347
20
50.734291558
10
0.418798097177
20
50.6404047238
10
0.39545896942
20
50.5383560108
10
0.371547677184
20
50.4290380242
10
0.347212599577
20
50.3133433692
10
0.322602115706
20
50.1921646512
10
0.297864604679
20
50.0663944754
10
0.273148445604
20
49.9369254472
10
0.248602017589
20
49.8046501718
10
0.224373699742
20
49.6704612545
10
0.200611871169
20
49.5352513005
10
0.17746491098
20
49.3999129152
10
0.155081198281
20
49.2653387039
10
0.133609112182
20
49.1324212718
10
0.113197031788
20
49.0020532242
10
0.0939933362089
20
48.8751271664
10
0.0761464045517
20
48.7525357037
10
0.0598046159243
20
48.6351714413
10
0.0451163494344
20
48.5239269846
10
0.0322299841899
20
48.4196949388
10
0.0212938992984
20
48.3233679092
10
0.0124564738679
20
48.2358385012
10
0.00586608700614
20
48.1579993199
10
0.00167111782082
20
48.0907429706
10
1.99454197577e-05
20
48.0349620587
10
0.00106094891074
20
47.9915491895
10
0.00494250740156
20
47.9613969681
10
0.011813
20
47.945398
10
0.030093629519
20
47.9317765555
10
0.0540921402101
20
47.9221514159
10
0.0834263362425
20
47.9163523076
10
0.117714021785
20
47.914208957
10
0.156573001007
20
47.9155510904
10
0.199621078077
20
47.9202084341
10
0.246476057165
20
47.9280107145
10
0.296755742439
20
47.9387876581
10
0.350077938069
20
47.9523689911
10
0.406060448223
20
47.9685844399
10
0.46432107707
20
47.9872637308
10
0.524477628781
20
48.0082365903
10
0.586147907522
20
48.0313327447
10
0.648949717465
20
48.0563819203
10
0.712500862777
20
48.0832138435
10
0.776419147628
20
48.1116582407
10
0.840322376187
20
48.1415448383
10
0.903828352623
20
48.1727033625
10
0.966554881105
20
48.2049635398
10
1.0281197658
20
48.2381550964
10
1.08814081088
20
48.2721077589
10
1.14623582052
20
48.3066512535
10
1.20202259887
20
48.3416153065
10
1.25511895012
20
48.3768296445
10
1.30514267843
20
48.4121239936
10
1.35171158796
20
48.4473280803
10
1.3944434829
20
48.4822716309
10
1.4329561674
20
48.5167843719
10
1.46686744564
20
48.5506960294
10
1.49579512178
20
48.58383633
10
1.519357
20
48.616035
10
1.54402804481
20
48.6517935697
10
1.56998485069
20
48.6857768165
10
1.59716963449
20
48.7179723374
10
1.62552461304
20
48.7483677293
10
1.65499200319
20
48.7769505894
10
1.68551402179
20
48.8037085146
10
1.71703288567
20
48.8286291019
10
1.74949081169
20
48.8516999482
10
1.78283001668
20
48.8729086506
10
1.8169927175
20
48.892242806
10
1.85192113098
20
48.9096900115
10
1.88755747397
20
48.9252378641
10
1.92384396331
20
48.9388739607
10
1.96072281585
20
48.9505858983
10
1.99813624843
20
48.9603612739
10
2.0360264779
20
48.9681876845
10
2.07433572109
20
48.9740527271
10
2.11300619486
20
48.9779439988
10
2.15198011604
20
48.9798490964
10
2.19119970149
20
48.979755617
10
2.23060716804
20
48.9776511575
10
2.27014473254
20
48.9735233151
10
2.30975461183
20
48.9673596865
10
2.34937902276
20
48.959147869
10
2.38896018217
20
48.9488754594
10
2.4284403069
20
48.9365300547
10
2.46776161381
20
48.9220992519
10
2.50686631973
20
48.9055706481
10
2.5456966415
20
48.8869318402
10
2.58419479598
20
48.8661704251
10
2.622303
20
48.843274
10
2.63994520164
20
48.8312656892
10
2.65621124786
20
48.8182819652
10
2.67108113934
20
48.8041144471
10
2.68453487674
20
48.7885547541
10
2.69655246074
20
48.771394505
10
2.70711389201
20
48.7524253191
10
2.71619917123
20
48.7314388154
10
2.72378829905
20
48.7082266131
10
2.72986127616
20
48.6825803311
10
2.73439810322
20
48.6542915885
10
2.73737878091
20
48.6231520045
10
2.73878330989
20
48.5889531981
10
2.73859169085
20
48.5514867885
10
2.73678392444
20
48.5105443945
10
2.73334001135
20
48.4659176355
10
2.72823995223
20
48.4173981304
10
2.72146374778
20
48.3647774983
10
2.71299139864
20
48.3078473583
10
2.70280290551
20
48.2463993294
10
2.69087826904
20
48.1802250308
10
2.67719748991
20
48.1091160816
10
2.6617405688
20
48.0328641008
10
2.64448750636
20
47.9512607074
10
2.62541830328
20
47.8640975207
10
2.60451296022
20
47.7711661595
10
2.58175147786
20
47.6722582432
10
2.55711385687
20
47.5671653906
10
2.53058009792
20
47.4556792209
10
2.50213020167
20
47.3375913532
10
2.47174416881
20
47.2126934065
10
2.439402
20
47.080777
10
2.3677171814
20
46.7831845701
10
2.30008441267
20
46.4896995424
10
2.23649751479
20
46.2001910836
10
2.17695030868
20
45.9145283609
10
2.12143661532
20
45.632580541
10
2.06995025565
20
45.3542167909
10
2.02248505062
20
45.0793062776
10
1.97903482119
20
44.807718168
10
1.93959338831
20
44.539321629
10
1.90415457292
20
44.2739858275
10
1.872712196
20
44.0115799305
10
1.84526007848
20
43.7519731049
10
1.82179204132
20
43.4950345176
10
1.80230190547
20
43.2406333355
10
1.78678349189
20
42.9886387257
10
1.77523062153
20
42.738919855
10
1.76763711534
20
42.4913458903
10
1.76399679427
20
42.2457859986
10
1.76430347927
20
42.0021093467
10
1.76855099131
20
41.7601851018
10
1.77673315132
20
41.5198824306
10
1.78884378027
20
41.2810705001
10
1.8048766991
20
41.0436184772
10
1.82482572878
20
40.8073955288
10
1.84868469024
20
40.572270822
10
1.87644740445
20
40.3381135235
10
1.90810769236
20
40.1047928004
10
1.94365937491
20
39.8721778196
10
1.98309627307
20
39.6401377479
10
2.02641220778
20
39.4085417524
10
2.073601
20
39.177259
10
2.0921208425
20
39.0913829428
10
2.11030790443
20
39.0098410463
10
2.12826493904
20
38.9324701745
10
2.14609469957
20
38.8591071916
10
2.16389993928
20
38.7895889616
10
2.1817834114
20
38.7237523485
10
2.19984786919
20
38.6614342166
10
2.21819606589
20
38.6024714298
10
2.23693075476
20
38.5467008523
10
2.25615468903
20
38.4939593481
10
2.27597062197
20
38.4440837813
10
2.2964813068
20
38.3969110161
10
2.31778949679
20
38.3522779165
10
2.33999794518
20
38.3100213465
10
2.36320940522
20
38.2699781704
10
2.38752663016
20
38.2319852521
10
2.41305237323
20
38.1958794557
10
2.4398893877
20
38.1614976454
10
2.46814042681
20
38.1286766852
10
2.4979082438
20
38.0972534393
10
2.52929559192
20
38.0670647716
10
2.56240522443
20
38.0379475463
10
2.59733989457
20
38.0097386274
10
2.63420235558
20
37.9822748792
10
2.67309536071
20
37.9553931655
10
2.71412166322
20
37.9289303506
10
2.75738401635
20
37.9027232985
10
2.80298517334
20
37.8766088733
10
2.85102788745
20
37.8504239391
10
2.90161491192
20
37.82400536
10
2.954849
20
37.79719
10
2.99945098134
20
37.7736278386
10
3.04129544799
20
37.7483376888
10
3.08040321617
20
37.7210085364
10
3.11679510211
20
37.6913293671
10
3.15049192202
20
37.6589891664
10
3.18151449213
20
37.62367692
10
3.20988362865
20
37.5850816137
10
3.2356201478
20
37.542892233
10
3.2587448658
20
37.4967977637
10
3.27927859887
20
37.4464871914
10
3.29724216324
20
37.3916495018
10
3.31265637511
20
37.3319736806
10
3.32554205072
20
37.2671487133
10
3.33592000628
20
37.1968635858
10
3.343811058
20
37.1208072836
10
3.34923602212
20
37.0386687924
10
3.35221571485
20
36.9501370979
10
3.3527709524
20
36.8549011857
10
3.35092255101
20
36.7526500416
10
3.34669132688
20
36.6430726511
10
3.34009809624
20
36.525858
10
3.3311636753
20
36.4006950739
10
3.3199088803
20
36.2672728585
10
3.30635452744
20
36.1252803395
10
3.29052143295
20
35.9744065025
10
3.27243041304
20
35.8143403331
10
3.25210228394
20
35.6447708171
10
3.22955786187
20
35.4653869401
10
3.20481796304
20
35.2758776879
10
3.17790340368
20
35.0759320459
10
3.148835
20
34.865239
10
3.11665907314
20
34.6257418237
10
3.08731989316
20
34.3890609299
10
3.06082358672
20
34.1550807551
10
3.03717628052
20
33.9236857359
10
3.01638410124
20
33.6947603086
10
2.99845317556
20
33.4681889099
10
2.98338963016
20
33.2438559762
10
2.97119959172
20
33.0216459441
10
2.96188918694
20
32.80144325
10
2.95546454248
20
32.5831323305
10
2.95193178504
20
32.3665976221
10
2.95129704129
20
32.1517235612
10
2.95356643792
20
31.9383945845
10
2.95874610161
20
31.7264951283
10
2.96684215904
20
31.5159096292
10
2.9778607369
20
31.3065225237
10
2.99180796187
20
31.0982182484
10
3.00868996063
20
30.8908812397
10
3.02851285986
20
30.6843959341
10
3.05128278624
20
30.4786467681
10
3.07700586647
20
30.2735181783
10
3.10568822722
20
30.0688946012
10
3.13733599517
20
29.8646604732
10
3.171955297
20
29.6607002308
10
3.20955225941
20
29.4568983107
10
3.25013300906
20
29.2531391492
10
3.29370367265
20
29.049307183
10
3.34027037686
20
28.8452868484
10
3.38983924836
20
28.6409625821
10
3.44241641385
20
28.4362188204
10
3.498008
20
28.23094
10
3.55107768625
20
28.0407115886
10
3.60201035158
20
27.8600520696
10
3.65101618009
20
27.6884881775
10
3.69830535585
20
27.5255466464
10
3.74408806294
20
27.3707542108
10
3.78857448545
20
27.223637605
10
3.83197480746
20
27.0837235632
10
3.87449921305
20
26.9505388198
10
3.91635788631
20
26.8236101091
10
3.95776101131
20
26.7024641654
10
3.99891877215
20
26.586627723
10
4.04004135289
20
26.4756275162
10
4.08133893763
20
26.3689902794
10
4.12302171045
20
26.2662427469
10
4.16529985543
20
26.166911653
10
4.20838355664
20
26.070523732
10
4.25248299819
20
25.9766057182
10
4.29780836414
20
25.8846843459
10
4.34456983858
20
25.7942863495
10
4.39297760559
20
25.7049384633
10
4.44324184925
20
25.6161674215
10
4.49557275365
20
25.5274999586
10
4.55018050287
20
25.4384628087
10
4.60727528099
20
25.3485827063
10
4.6670672721
20
25.2573863857
10
4.72976666027
20
25.164400581
10
4.79558362959
20
25.0691520268
10
4.86472836414
20
24.9711674573
10
4.937411048
20
24.8699736068
10
5.01384186526
20
24.7650972096
10
5.094231
20
24.656065
10
5.19071110124
20
24.5280747627
10
5.28634823239
20
24.4056872578
10
5.38115360233
20
24.2888973279
10
5.47513841996
20
24.1776998157
10
5.56831389416
20
24.072089564
10
5.66069123383
20
23.9720614152
10
5.75228164785
20
23.8776102122
10
5.8430963451
20
23.7887307976
10
5.93314653449
20
23.705418014
10
6.02244342489
20
23.6276667042
10
6.1109982252
20
23.5554717108
10
6.19882214431
20
23.4888278764
10
6.28592639109
20
23.4277300438
10
6.37232217445
20
23.3721730557
10
6.45802070327
20
23.3221517546
10
6.54303318643
20
23.2776609832
10
6.62737083284
20
23.2386955843
10
6.71104485136
20
23.2052504005
10
6.79406645091
20
23.1773202744
10
6.87644684035
20
23.1549000488
10
6.95819722859
20
23.1379845663
10
7.03932882451
20
23.1265686696
10
7.119852837
20
23.1206472014
10
7.19978047494
20
23.1202150042
10
7.27912294723
20
23.1252669209
10
7.35789146276
20
23.135797794
10
7.43609723041
20
23.1518024662
10
7.51375145906
20
23.1732757803
10
7.59086535762
20
23.2002125788
10
7.66745013497
20
23.2326077045
10
7.743517
20
23.270456
10
7.8015282104
20
23.3077184835
10
7.85688546155
20
23.3556152811
10
7.90953350596
20
23.4135513168
10
7.95941709614
20
23.4809315143
10
8.00648098459
20
23.5571607978
10
8.05066992384
20
23.6416440909
10
8.09192866638
20
23.7337863177
10
8.13020196472
20
23.832992402
10
8.16543457138
20
23.9386672678
10
8.19757123886
20
24.0502158389
10
8.22655671968
20
24.1670430392
10
8.25233576634
20
24.2885537928
10
8.27485313135
20
24.4141530233
10
8.29405356722
20
24.5432456549
10
8.30988182646
20
24.6752366113
10
8.32228266158
20
24.8095308164
10
8.33120082508
20
24.9455331943
10
8.33658106948
20
25.0826486687
10
8.33836814729
20
25.2202821635
10
8.33650681102
20
25.3578386028
10
8.33094181317
20
25.4947229103
10
8.32161790625
20
25.6303400101
10
8.30847984277
20
25.7640948259
10
8.29147237525
20
25.8953922817
10
8.27054025618
20
26.0236373014
10
8.24562823809
20
26.1482348089
10
8.21668107348
20
26.2685897281
10
8.18364351485
20
26.3841069829
10
8.14646031473
20
26.4941914972
10
8.10507622561
20
26.598248195
10
8.059436
20
26.695682
10
8.04355449394
20
26.7279090626
10
8.02617182458
20
26.7650765424
10
8.00735182965
20
26.8070072002
10
7.98715834688
20
26.8535237964
10
7.96565521402
20
26.9044490917
10
7.94290626881
20
26.9596058469
10
7.91897534896
20
27.0188168224
10
7.89392629224
20
27.081904779
10
7.86782293636
20
27.1486924772
10
7.84072911906
20
27.2190026777
10
7.81270867809
20
27.2926581412
10
7.78382545118
20
27.3694816282
10
7.75414327606
20
27.4492958994
10
7.72372599047
20
27.5319237155
10
7.69263743214
20
27.617187837
10
7.66094143882
20
27.7049110246
10
7.62870184824
20
27.7949160389
10
7.59598249814
20
27.8870256406
10
7.56284722624
20
27.9810625903
10
7.5293598703
20
28.0768496486
10
7.49558426803
20
28.1742095762
10
7.46158425719
20
28.2729651336
10
7.42742367551
20
28.3729390816
10
7.39316636071
20
28.4739541807
10
7.35887615055
20
28.5758331916
10
7.32461688275
20
28.678398875
10
7.29045239505
20
28.7814739913
10
7.25644652519
20
28.8848813014
10
7.22266311091
20
28.9884435658
10
7.18916598993
20
29.0919835451
10
7.156019
20
29.195324
10
7.05837762952
20
29.5074701086
10
6.96755865218
20
29.811624619
10
6.8835814788
20
30.1086057436
10
6.80646552022
20
30.3992316948
10
6.73623018727
20
30.6843206851
10
6.67289489077
20
30.9646909268
10
6.61647904156
20
31.2411606324
10
6.56700205045
20
31.5145480142
10
6.52448332829
20
31.7856712848
10
6.48894228589
20
32.0553486564
10
6.46039833409
20
32.3243983416
10
6.43887088372
20
32.5936385527
10
6.42437934561
20
32.8638875022
10
6.41694313058
20
33.1359634024
10
6.41658164946
20
33.4106844657
10
6.42331431308
20
33.6888689047
10
6.43716053227
20
33.9713349317
10
6.45813971787
20
34.258900759
10
6.48627128069
20
34.5523845992
10
6.52157463157
20
34.8526046646
10
6.56406918133
20
35.1603791677
10
6.61377434081
20
35.4765263208
10
6.67070952083
20
35.8018643364
10
6.73489413222
20
36.1372114269
10
6.80634758581
20
36.4833858047
10
6.88508929244
20
36.8412056823
10
6.97113866292
20
37.2114892719
10
7.06451510809
20
37.5950547861
10
7.16523803877
20
37.9927204372
10
7.2733268658
20
38.4053044377
10
7.388801
20
38.833625
10
7.45022513068
20
39.0566763734
10
7.51148419942
20
39.2753544451
10
7.57250335034
20
39.4894598841
10
7.63320772754
20
39.6987933597
10
7.69352247511
20
39.9031555409
10
7.75337273717
20
40.1023470969
10
7.81268365782
20
40.2961686969
10
7.87138038116
20
40.4844210098
10
7.92938805129
20
40.6669047049
10
7.98663181233
20
40.8434204513
10
8.04303680836
20
41.0137689181
10
8.09852818351
20
41.1777507745
10
8.15303108187
20
41.3351666895
10
8.20647064754
20
41.4858173324
10
8.25877202464
20
41.6295033722
10
8.30986035726
20
41.766025478
10
8.3596607895
20
41.895184319
10
8.40809846548
20
42.0167805644
10
8.45509852929
20
42.1306148832
10
8.50058612504
20
42.2364879445
10
8.54448639683
20
42.3342004176
10
8.58672448877
20
42.4235529715
10
8.62722554496
20
42.5043462753
10
8.66591470951
20
42.5763809983
10
8.70271712651
20
42.6394578094
10
8.73755794008
20
42.6933773779
10
8.77036229432
20
42.7379403729
10
8.80105533332
20
42.7729474634
10
8.8295622012
20
42.7981993187
10
8.85580804206
20
42.8134966079
10
8.879718
20
42.81864
10
8.90590971666
20
42.817179447
10
8.93253419321
20
42.8128364255
10
8.9595485163
20
42.8056688913
10
8.98690977255
20
42.7957348004
10
9.01457504861
20
42.7830921089
10
9.0425014311
20
42.7677987725
10
9.07064600668
20
42.7499127474
10
9.09896586197
20
42.7294919894
10
9.12741808362
20
42.7065944545
10
9.15595975825
20
42.6812780988
10
9.18454797251
20
42.653600878
10
9.21313981303
20
42.6236207483
10
9.24169236645
20
42.5913956655
10
9.27016271941
20
42.5569835856
10
9.29850795854
20
42.5204424647
10
9.32668517049
20
42.4818302585
10
9.35465144188
20
42.4412049232
10
9.38236385935
20
42.3986244146
10
9.40977950955
20
42.3541466888
10
9.4368554791
20
42.3078297016
10
9.46354885465
20
42.259731409
10
9.48981672284
20
42.2099097671
10
9.51561617029
20
42.1584227317
10
9.54090428364
20
42.1053282589
10
9.56563814954
20
42.0506843045
10
9.58977485462
20
41.9945488245
10
9.61327148552
20
41.936979775
10
9.63608512886
20
41.8780351118
10
9.6581728713
20
41.8177727909
10
9.67949179947
20
41.7562507684
10
9.699999
20
41.693527
10
9.71090291793
20
41.6599493846
10
9.72325987933
20
41.6233397002
10
9.73701576013
20
41.583828883
10
9.75211643627
20
41.5415478691
10
9.76850778369
20
41.4966275948
10
9.78613567833
20
41.4491989962
10
9.80494599611
20
41.3993930096
10
9.82488461297
20
41.3473405711
10
9.84589740485
20
41.2931726169
10
9.86793024769
20
41.2370200831
10
9.89092901742
20
41.1790139061
10
9.91483958998
20
41.119285022
10
9.93960784129
20
41.0579643669
10
9.96517964731
20
40.995182877
10
9.99150088396
20
40.9310714886
10
10.0185174272
20
40.8657611378
10
10.0461751529
20
40.7993827609
10
10.0744199371
20
40.7320672939
10
10.1031976556
20
40.6639456732
10
10.1324541845
20
40.5951488348
10
10.1621353996
20
40.525807715
10
10.1921871768
20
40.4560532499
10
10.2225553922
20
40.3860163759
10
10.2531859217
20
40.3158280289
10
10.2840246411
20
40.2456191453
10
10.3150174265
20
40.1755206612
10
10.3461101537
20
40.1056635128
10
10.3772486988
20
40.0361786363
10
10.4083789375
20
39.9671969678
10
10.439446746
20
39.8988494437
10
10.470398
20
39.831267
10
11.046812
20
38.567589
10
11.057897
20
34.565948
10
11.0586488405
20
34.3523625357
10
11.0597588813
20
34.1378580397
10
11.0612157076
20
33.9228114869
10
11.0630079048
20
33.7075998518
10
11.065124058
20
33.492600109
10
11.0675527526
20
33.2781892333
10
11.0702825739
20
33.0647441993
10
11.073302107
20
32.8526419817
10
11.0765999374
20
32.642259555
10
11.0801646503
20
32.4339738941
10
11.0839848309
20
32.2281619734
10
11.0880490646
20
32.0252007677
10
11.0923459366
20
31.8254672517
10
11.0968640321
20
31.6293384
10
11.1015919366
20
31.4371911872
10
11.1065182351
20
31.249402588
10
11.1116315131
20
31.0663495771
10
11.1169203558
20
30.8884091291
10
11.1223733485
20
30.7159582187
10
11.1279790765
20
30.5493738205
10
11.1337261249
20
30.3890329093
10
11.1396030792
20
30.2353124595
10
11.1455985246
20
30.088589446
10
11.1517010463
20
29.9492408433
10
11.1578992297
20
29.8176436262
10
11.16418166
20
29.6941747692
10
11.1705369225
20
29.5792112471
10
11.1769536025
20
29.4731300344
10
11.1834202852
20
29.3763081059
10
11.1899255559
20
29.2891224362
10
11.196458
20
29.21195
10
11.2028204385
20
29.139594037
10
11.2087147545
20
29.067885921
10
11.2141430296
20
28.9969259573
10
11.2191073452
20
28.9268144506
10
11.2236097829
20
28.8576517061
10
11.2276524242
20
28.7895380286
10
11.2312373504
20
28.7225737232
10
11.2343666433
20
28.656859095
10
11.2370423842
20
28.5924944488
10
11.2392666546
20
28.5295800896
10
11.2410415361
20
28.4682163225
10
11.2423691102
20
28.4085034525
10
11.2432514583
20
28.3505417845
10
11.243690662
20
28.2944316236
10
11.2436888028
20
28.2402732746
10
11.2432479621
20
28.1881670427
10
11.2423702214
20
28.1382132328
10
11.2410576624
20
28.0905121499
10
11.2393123664
20
28.045164099
10
11.237136415
20
28.002269385
10
11.2345318896
20
27.9619283131
10
11.2315008718
20
27.9242411881
10
11.2280454431
20
27.889308315
10
11.2241676849
20
27.8572299989
10
11.2198696789
20
27.8281065448
10
11.2151535064
20
27.8020382575
10
11.2100212489
20
27.7791254422
10
11.2044749881
20
27.7594684038
10
11.1985168053
20
27.7431674473
10
11.1921487821
20
27.7303228777
10
11.185373
20
27.721035
10
11.1785257228
20
27.7132542321
10
11.1721729156
20
27.7051257765
10
11.166313115
20
27.6966702121
10
11.1609448577
20
27.6879081177
10
11.1560666801
20
27.6788600718
10
11.151677119
20
27.6695466535
10
11.147774711
20
27.6599884413
10
11.1443579925
20
27.6502060141
10
11.1414255003
20
27.6402199506
10
11.138975771
20
27.6300508296
10
11.1370073411
20
27.6197192299
10
11.1355187472
20
27.6092457302
10
11.1345085261
20
27.5986509093
10
11.1339752142
20
27.587955346
10
11.1339173481
20
27.577179619
10
11.1343334646
20
27.5663443071
10
11.1352221001
20
27.5554699891
10
11.1365817913
20
27.5445772436
10
11.1384110748
20
27.5336866496
10
11.1407084872
20
27.5228187857
10
11.1434725651
20
27.5119942307
10
11.1467018452
20
27.5012335635
10
11.1503948639
20
27.4905573626
10
11.1545501579
20
27.479986207
10
11.1591662639
20
27.4695406754
10
11.1642417184
20
27.4592413465
10
11.169775058
20
27.4491087991
10
11.1757648194
20
27.439163612
10
11.1822095391
20
27.4294263639
10
11.1891077538
20
27.4199176337
10
11.196458
20
27.410658
10
11.2392586469
20
27.344883601
10
11.2806698516
20
27.2529531141
10
11.3206474457
20
27.1357830881
10
11.3591472605
20
26.994290072
10
11.3961251277
20
26.8293906145
10
11.4315368786
20
26.6420012647
10
11.4653383448
20
26.4330385714
10
11.4974853578
20
26.2034190835
10
11.5279337491
20
25.9540593499
10
11.5566393501
20
25.6858759195
10
11.5835579923
20
25.3997853411
10
11.6086455074
20
25.0967041637
10
11.6318577266
20
24.7775489362
10
11.6531504816
20
24.4432362074
10
11.6724796038
20
24.0946825262
10
11.6898009248
20
23.7328044415
10
11.7050702759
20
23.3585185023
10
11.7182434888
20
22.9727412574
10
11.7292763948
20
22.5763892556
10
11.7381248256
20
22.170379046
10
11.7447446125
20
21.7556271773
10
11.7490915871
20
21.3330501984
10
11.7511215808
20
20.9035646584
10
11.7507904252
20
20.468087106
10
11.7480539518
20
20.0275340901
10
11.742867992
20
19.5828221596
10
11.7351883774
20
19.1348678635
10
11.7249709393
20
18.6845877506
10
11.7121715094
20
18.2328983698
10
11.6967459192
20
17.7807162699
10
11.67865
20
17.328958
10
11.6627049322
20
16.9671797438
10
11.6467302757
20
16.6251708998
10
11.6304124313
20
16.3016576125
10
11.6134377999
20
15.9953660267
10
11.5954927824
20
15.705022287
10
11.5762637795
20
15.4293525381
10
11.5554371922
20
15.1670829247
10
11.5326994214
20
14.9169395915
10
11.5077368678
20
14.6776486831
10
11.4802359323
20
14.4479363441
10
11.4498830159
20
14.2265287194
10
11.4163645193
20
14.0121519535
10
11.3793668434
20
13.8035321911
10
11.3385763891
20
13.5993955769
10
11.2936795572
20
13.3984682556
10
11.2443627487
20
13.1994763719
10
11.1903123643
20
13.0011460703
10
11.1312148049
20
12.8022034957
10
11.0667564714
20
12.6013747926
10
10.9966237646
20
12.3973861058
10
10.9205030854
20
12.1889635799
10
10.8380808346
20
11.9748333596
10
10.7490434132
20
11.7537215896
10
10.6530772219
20
11.5243544145
10
10.5498686617
20
11.285457979
10
10.4391041333
20
11.0357584278
10
10.3204700377
20
10.7739819056
10
10.1936527757
20
10.4988545571
10
10.0583387482
20
10.2091025268
10
9.91421435601
20
9.90345195959
10
9.760966
20
9.580629
10
9.70977127804
20
9.47261271132
10
9.65928111087
20
9.36521543772
10
9.60956236756
20
9.25860021298
10
9.56068191716
20
9.15293007093
10
9.51270662871
20
9.04836804535
10
9.46570337129
20
8.94507717005
10
9.41973901393
20
8.84322047884
10
9.3748804257
20
8.74296100551
10
9.33119447565
20
8.64446178386
10
9.28874803283
20
8.54788584771
10
9.2476079663
20
8.45339623084
10
9.20784114511
20
8.36115596707
10
9.16951443832
20
8.2713280902
10
9.13269471498
20
8.18407563402
10
9.09744884415
20
8.09956163234
10
9.06384369487
20
8.01794911896
10
9.03194613622
20
7.93940112769
10
9.00182303723
20
7.86408069232
10
8.97354126696
20
7.79215084667
10
8.94716769447
20
7.72377462452
10
8.92276918882
20
7.65911505968
10
8.90041261905
20
7.59833518596
10
8.88016485422
20
7.54159803716
10
8.86209276338
20
7.48906664707
10
8.8462632156
20
7.44090404951
10
8.83274307992
20
7.39727327827
10
8.8215992254
20
7.35833736716
10
8.8128985211
20
7.32425934997
10
8.80670783606
20
7.29520226051
10
8.80309403934
20
7.27132913259
10
8.802124
20
7.252803
10
8.80297456144
20
7.2356261048
10
8.80476098271
20
7.21575540757
10
8.80745949824
20
7.19328718123
10
8.81104634245
20
7.16831769867
10
8.81549774979
20
7.14094323279
10
8.82078995468
20
7.11126005649
10
8.82689919157
20
7.07936444268
10
8.83380169487
20
7.04535266426
10
8.84147369904
20
7.00932099413
10
8.84989143849
20
6.97136570518
10
8.85903114766
20
6.93158307032
10
8.86886906099
20
6.89006936246
10
8.87938141291
20
6.84692085449
10
8.89054443785
20
6.80223381931
10
8.90233437025
20
6.75610452982
10
8.91472744453
20
6.70862925894
10
8.92769989514
20
6.65990427955
10
8.9412279565
20
6.61002586456
10
8.95528786305
20
6.55909028687
10
8.96985584922
20
6.50719381937
10
8.98490814944
20
6.45443273499
10
9.00042099815
20
6.4009033066
10
9.01637062979
20
6.34670180712
10
9.03273327878
20
6.29192450945
10
9.04948517955
20
6.23666768648
10
9.06660256655
20
6.18102761112
10
9.0840616742
20
6.12510055628
10
9.10183873693
20
6.06898279484
10
9.11990998919
20
6.01277059971
10
9.1382516654
20
5.9565602438
10
9.15684
20
5.900448
10
9.17536547622
20
5.84463076916
10
9.1935194497
20
5.78929493162
10
9.21127917317
20
5.73452039891
10
9.22862189937
20
5.68038708254
10
9.245524881
20
5.62697489403
10
9.26196537082
20
5.57436374489
10
9.27792062153
20
5.52263354664
10
9.29336788587
20
5.4718642108
10
9.30828441657
20
5.42213564889
10
9.32264746635
20
5.37352777241
10
9.33643428794
20
5.3261204929
10
9.34962213407
20
5.27999372186
10
9.36218825746
20
5.23522737082
10
9.37410991085
20
5.19190135128
10
9.38536434695
20
5.15009557477
10
9.3959288185
20
5.1098899528
10
9.40578057823
20
5.0713643969
10
9.41489687886
20
5.03459881857
10
9.42325497311
20
4.99967312933
10
9.43083211373
20
4.96666724071
10
9.43760555342
20
4.93566106421
10
9.44355254493
20
4.90673451136
10
9.44865034098
20
4.87996749367
10
9.45287619429
20
4.85543992266
10
9.45620735759
20
4.83323170985
10
9.45862108362
20
4.81342276674
10
9.46009462509
20
4.79609300487
10
9.46060523474
20
4.78132233574
10
9.46013016528
20
4.76919067087
10
9.45864666946
20
4.75977792179
10
9.456132
20
4.753164
10
9.45163934987
20
4.74785528827
10
9.44428937129
20
4.74231486811
10
9.43416079615
20
4.73655769914
10
9.42133235635
20
4.73059874096
10
9.40588278379
20
4.72445295321
10
9.38789081038
20
4.71813529549
10
9.367435168
20
4.71166072743
10
9.34459458857
20
4.70504420865
10
9.31944780397
20
4.69830069877
10
9.2920735461
20
4.6914451574
10
9.26255054688
20
4.68449254416
10
9.23095753818
20
4.67745781867
10
9.19737325192
20
4.67035594055
10
9.16187641999
20
4.66320186942
10
9.12454577429
20
4.6560105649
10
9.08546004673
20
4.64879698661
10
9.04469796919
20
4.64157609416
10
9.00233827357
20
4.63436284717
10
8.95845969179
20
4.62717220526
10
8.91314095572
20
4.62001912806
10
8.86646079729
20
4.61291857517
10
8.81849794837
20
4.60588550623
10
8.76933114088
20
4.59893488084
10
8.71903910671
20
4.59208165862
10
8.66770057776
20
4.5853407992
10
8.61539428593
20
4.57872726219
10
8.56219896311
20
4.57225600722
10
8.50819334121
20
4.56594199389
10
8.45345615213
20
4.55980018183
10
8.39806612776
20
4.55384553066
10
8.342102
20
4.548093
10
8.23331491793
20
4.53692558625
10
8.13096946413
20
4.52580539448
10
8.03483016596
20
4.51453575697
10
7.94466155074
20
4.50292000601
10
7.86022814582
20
4.49076147387
10
7.78129447853
20
4.47786349283
10
7.70762507623
20
4.46402939519
10
7.63898446625
20
4.44906251321
10
7.57513717593
20
4.43276617918
10
7.5158477326
20
4.41494372539
10
7.46088066362
20
4.39539848411
10
7.41000049632
20
4.37393378762
10
7.36297175805
20
4.35035296821
10
7.31955897613
20
4.32445935816
10
7.27952667792
20
4.29605628975
10
7.24263939076
20
4.26494709526
10
7.20866164197
20
4.23093510698
10
7.17735795891
20
4.19382365718
10
7.14849286892
20
4.15341607814
10
7.12183089933
20
4.10951570216
10
7.09713657749
20
4.0619258615
10
7.07417443073
20
4.01044988846
10
7.05270898641
20
3.9548911153
10
7.03250477184
20
3.89505287432
10
7.01332631439
20
3.8307384978
10
6.99493814138
20
3.76175131802
10
6.97710478017
20
3.68789466725
10
6.95959075808
20
3.60897187778
10
6.94216060246
20
3.5247862819
10
6.92457884066
20
3.43514121188
10
6.90661
20
3.33984
10
6.90042694834
20
3.3077271048
10
6.89373439213
20
3.27517184358
10
6.88655616502
20
3.24223799809
10
6.87891610063
20
3.20898935007
10
6.87083803263
20
3.17548968128
10
6.86234579464
20
3.14180277346
10
6.8534632203
20
3.10799240834
10
6.84421414326
20
3.07412236769
10
6.83462239717
20
3.04025643325
10
6.82471181565
20
3.00645838676
10
6.81450623235
20
2.97279200997
10
6.80402948092
20
2.93932108462
10
6.79330539499
20
2.90610939247
10
6.7823578082
20
2.87322071525
10
6.77121055419
20
2.84071883472
10
6.75988746662
20
2.80866753261
10
6.74841237911
20
2.77713059068
10
6.73680912531
20
2.74617179068
10
6.72510153885
20
2.71585491434
10
6.71331345339
20
2.68624374341
10
6.70146870256
20
2.65740205965
10
6.68959112
20
2.62939364479
10
6.67770453936
20
2.60228228059
10
6.66583279427
20
2.57613174878
10
6.65399971837
20
2.55100583112
10
6.64222914531
20
2.52696830936
10
6.63054490873
20
2.50408296522
10
6.61897084227
20
2.48241358048
10
6.60753077956
20
2.46202393686
10
6.59624855426
20
2.44297781612
10
6.585148
20
2.425339
10
6.57418628371
20
2.40772584861
10
6.56331513336
20
2.38875691897
10
6.55255022416
20
2.36849541721
10
6.54190723131
20
2.34700454946
10
6.53140183002
20
2.32434752187
10
6.52104969548
20
2.30058754057
10
6.5108665029
20
2.27578781169
10
6.50086792749
20
2.25001154137
10
6.49106964446
20
2.22332193575
10
6.48148732899
20
2.19578220097
10
6.47213665631
20
2.16745554315
10
6.4630333016
20
2.13840516844
10
6.45419294008
20
2.10869428297
10
6.44563124695
20
2.07838609288
10
6.43736389742
20
2.0475438043
10
6.42940656668
20
2.01623062338
10
6.42177492995
20
1.98450975624
10
6.41448466241
20
1.95244440902
10
6.40755143929
20
1.92009778786
10
6.40099093579
20
1.88753309889
10
6.3948188271
20
1.85481354825
10
6.38905078843
20
1.82200234208
10
6.38370249498
20
1.78916268652
10
6.37878962197
20
1.75635778769
10
6.37432784458
20
1.72365085173
10
6.37033283804
20
1.69110508479
10
6.36682027753
20
1.65878369299
10
6.36380583827
20
1.62674988248
10
6.36130519546
20
1.59506685939
10
6.3593340243
20
1.56379782985
10
6.357908
20
1.533006
10
6.35647327508
20
1.48761813893
10
6.35568672096
20
1.44408870149
10
6.35559722017
20
1.40231774499
10
6.35625365527
20
1.36220532678
10
6.3577049088
20
1.32365150418
10
6.35999986331
20
1.28655633453
10
6.36318740136
20
1.25081987516
10
6.36731640549
20
1.21634218341
10
6.37243575825
20
1.18302331661
10
6.37859434218
20
1.15076333208
10
6.38584103984
20
1.11946228717
10
6.39422473378
20
1.0890202392
10
6.40379430654
20
1.05933724551
10
6.41459864066
20
1.03031336343
10
6.42668661871
20
1.0018486503
10
6.44010712323
20
0.973843163439
10
6.45490903676
20
0.946196960189
10
6.47114124185
20
0.918810097882
10
6.48885262106
20
0.891582633849
10
6.50809205693
20
0.864414625424
10
6.52890843201
20
0.837206129939
10
6.55135062885
20
0.809857204726
10
6.57546752999
20
0.78226790712
10
6.60130801799
20
0.754338294451
10
6.6289209754
20
0.725968424054
10
6.65835528475
20
0.697058353261
10
6.68965982861
20
0.667508139405
10
6.72288348951
20
0.637217839817
10
6.75807515001
20
0.606087511832
10
6.79528369266
20
0.574017212782
10
6.834558
20
0.540907
10
6.86160526847
20
0.518798486858
10
6.88957756712
20
0.496844156054
10
6.91840721644
20
0.475075723742
10
6.94802653694
20
0.453524906079
10
6.97836784912
20
0.432223419221
10
7.00936347347
20
0.411202979323
10
7.04094573049
20
0.390495302541
10
7.07304694069
20
0.370132105032
10
7.10559942456
20
0.350145102951
10
7.1385355026
20
0.330566012453
10
7.17178749532
20
0.311426549696
10
7.2052877232
20
0.292758430835
10
7.23896850676
20
0.274593372025
10
7.27276216649
20
0.256963089423
10
7.30660102289
20
0.239899299184
10
7.34041739646
20
0.223433717465
10
7.3741436077
20
0.207598060421
10
7.40771197711
20
0.192424044208
10
7.44105482518
20
0.177943384982
10
7.47410447242
20
0.164187798899
10
7.50679323933
20
0.151189002115
10
7.53905344641
20
0.138978710785
10
7.57081741415
20
0.127588641066
10
7.60201746306
20
0.117050509113
10
7.63258591363
20
0.107396031083
10
7.66245508637
20
0.0986569231311
10
7.69155730177
20
0.0908649014132
10
7.71982488033
20
0.0840516820852
10
7.74719014256
20
0.0782489813031
10
7.77358540895
20
0.0734885152227
10
7.798943
20
0.069802
10
7.804486
20
0.069802
10
7.88889481961
20
0.0602417876204
10
7.98480603034
20
0.0513988025243
10
8.09151663103
20
0.0432697163237
10
8.20832362049
20
0.0358512006311
10
8.33452399755
20
0.0291399270585
10
8.46941476104
20
0.0231325672183
10
8.61229290977
20
0.0178257927226
10
8.76245544258
20
0.0132162751838
10
8.9191993583
20
0.00930068621396
10
9.08182165573
20
0.0060756974254
10
9.24961933372
20
0.00353798043033
10
9.42188939109
20
0.00168420684099
10
9.59792882666
20
0.000511048269612
10
9.77703463925
20
1.51763284213e-05
10
9.9585038277
20
0.000193262629653
10
10.1416333908
20
0.00104197878554
10
10.3257203274
20
0.00255799640831
10
10.5100616364
20
0.0047379871102
10
10.6939543165
20
0.00757862250344
10
10.8766953666
20
0.0110765742003
10
11.0575817855
20
0.0152285138129
10
11.235910572
20
0.0200311129536
10
11.410978725
20
0.0254810432345
10
11.5820832432
20
0.031574976268
10
11.7485211255
20
0.0383095836662
10
11.9095893708
20
0.0456815370414
10
12.0645849778
20
0.0536875080058
10
12.2128049455
20
0.0623241681716
10
12.3535462725
20
0.0715881891511
10
12.4861059577
20
0.0814762425565
10
12.609781
20
0.091985
10
12.7070155167
20
0.100981115538
10
12.7992366838
20
0.10986789517
10
12.8866340884
20
0.118709278742
10
12.9693973174
20
0.127569206103
10
13.0477159579
20
0.136511617099
10
13.1217795968
20
0.145600451579
10
13.1917778211
20
0.154899649391
10
13.2579002178
20
0.164473150381
10
13.3203363738
20
0.174384894398
10
13.3792758763
20
0.184698821288
10
13.4349083121
20
0.195478870901
10
13.4874232683
20
0.206788983082
10
13.5370103319
20
0.218693097681
10
13.5838590898
20
0.231255154543
10
13.628159129
20
0.244539093518
10
13.6701000365
20
0.258608854453
10
13.7098713993
20
0.273528377194
10
13.7476628044
20
0.289361601591
10
13.7836638388
20
0.30617246749
10
13.8180640895
20
0.324024914739
10
13.8510531435
20
0.342982883186
10
13.8828205877
20
0.363110312678
10
13.9135560091
20
0.384471143063
10
13.9434489948
20
0.407129314189
10
13.9726891317
20
0.431148765902
10
14.0014660067
20
0.456593438052
10
14.029969207
20
0.483527270484
10
14.0583883195
20
0.512014203048
10
14.0869129312
20
0.54211817559
10
14.115732629
20
0.573903127958
10
14.145037
20
0.607433
10
14.1649076567
20
0.629967807022
10
14.1853689303
20
0.652073208519
10
14.2063817435
20
0.673728223524
10
14.227907019
20
0.694911871068
10
14.2499056796
20
0.715603170186
10
14.2723386481
20
0.735781139908
10
14.2951668473
20
0.755424799268
10
14.3183511999
20
0.774513167299
10
14.3418526286
20
0.793025263032
10
14.3656320562
20
0.810940105502
10
14.3896504056
20
0.828236713739
10
14.4138685993
20
0.844894106777
10
14.4382475603
20
0.860891303649
10
14.4627482113
20
0.876207323386
10
14.487331475
20
0.890821185022
10
14.5119582742
20
0.90471190759
10
14.5365895317
20
0.917858510121
10
14.5611861702
20
0.930240011648
10
14.5857091124
20
0.941835431204
10
14.6101192812
20
0.952623787822
10
14.6343775993
20
0.962584100534
10
14.6584449895
20
0.971695388372
10
14.6822823745
20
0.97993667037
10
14.7058506772
20
0.98728696556
10
14.7291108201
20
0.993725292974
10
14.7520237262
20
0.999230671646
10
14.7745503181
20
1.00378212061
10
14.7966515187
20
1.00735865889
10
14.8182882507
20
1.00993930553
10
14.8394214369
20
1.01150307955
10
14.860012
20
1.012029
10
14.9278342095
20
1.01261590819
10
14.9948931473
20
1.01435528324
10
15.0610897937
20
1.01721510084
10
15.1263251287
20
1.02116333668
10
15.1905001325
20
1.02616796647
10
15.2535157853
20
1.0321969659
10
15.3152730673
20
1.03921831066
10
15.3756729585
20
1.04719997647
10
15.4346164393
20
1.05610993901
10
15.4920044897
20
1.06591617398
10
15.5477380899
20
1.07658665708
10
15.60171822
20
1.088089364
10
15.6538458603
20
1.10039227045
10
15.7040219908
20
1.11346335212
10
15.7521475918
20
1.12727058471
10
15.7981236434
20
1.14178194391
10
15.8418511257
20
1.15696540542
10
15.883231019
20
1.17278894495
10
15.9221643034
20
1.18922053818
10
15.958551959
20
1.20622816082
10
15.9922949661
20
1.22377978856
10
16.0232943047
20
1.2418433971
10
16.0514509551
20
1.26038696214
10
16.0766658974
20
1.27937845937
10
16.0988401117
20
1.29878586449
10
16.1178745782
20
1.3185771532
10
16.1336702772
20
1.3387203012
10
16.1461281886
20
1.35918328418
10
16.1551492928
20
1.37993407784
10
16.1606345699
20
1.40094065788
10
16.162485
20
1.422171
10
16.162889451
20
1.43675285647
10
16.1641119338
20
1.45003892562
10
16.1661661429
20
1.462025699
10
16.169065773
20
1.47270966819
10
16.1728245186
20
1.48208732473
10
16.1774560745
20
1.49015516018
10
16.1829741351
20
1.49690966611
10
16.1893923951
20
1.50234733406
10
16.1967245491
20
1.5064646556
10
16.2049842917
20
1.50925812229
10
16.2141853175
20
1.51072422567
10
16.2243413212
20
1.51085945732
10
16.2354659972
20
1.50966030878
10
16.2475730403
20
1.50712327163
10
16.260676145
20
1.5032448374
10
16.2747890059
20
1.49802149767
10
16.2899253177
20
1.49144974398
10
16.3060987749
20
1.48352606791
10
16.3233230722
20
1.47424696099
10
16.3416119041
20
1.46360891481
10
16.3609789653
20
1.4516084209
10
16.3814379504
20
1.43824197083
10
16.4030025539
20
1.42350605616
10
16.4256864705
20
1.40739716844
10
16.4495033948
20
1.38991179923
10
16.4744670214
20
1.3710464401
10
16.5005910449
20
1.35079758259
10
16.5278891599
20
1.32916171827
10
16.556375061
20
1.30613533869
10
16.5860624429
20
1.28171493542
10
16.616965
20
1.255897
10
16.6754963933
20
1.20816546947
10
16.7347817638
20
1.16286437075
10
16.7948844454
20
1.11998268507
10
16.8558677721
20
1.07950939368
10
16.917795078
20
1.0414334778
10
16.9807296972
20
1.00574391867
10
17.0447349636
20
0.972429697526
10
17.1098742112
20
0.941479795609
10
17.1762107742
20
0.912883194153
10
17.2438079865
20
0.886628874392
10
17.3127291821
20
0.862705817562
10
17.3830376951
20
0.841103004901
10
17.4547968595
20
0.821809417643
10
17.5280700094
20
0.804814037025
10
17.6029204787
20
0.790105844282
10
17.6794116015
20
0.777673820651
10
17.7576067118
20
0.767506947367
10
17.8375691436
20
0.759594205666
10
17.919362231
20
0.753924576785
10
18.003049308
20
0.750487041959
10
18.0886937086
20
0.749270582424
10
18.1763587669
20
0.750264179417
10
18.2661078169
20
0.753456814172
10
18.3580041925
20
0.758837467927
10
18.4521112279
20
0.766395121916
10
18.548492257
20
0.776118757376
10
18.6472106139
20
0.787997355544
10
18.7483296327
20
0.802019897654
10
18.8519126472
20
0.818175364942
10
18.9580229917
20
0.836452738646
10
19.066724
20
0.856841
10
19.2432348547
20
0.893409838273
10
19.4150642696
20
0.933374080796
10
19.5821376498
20
0.976671577188
10
19.7443804004
20
1.02324017707
10
19.9017179265
20
1.07301773005
10
20.0540756333
20
1.12594208576
10
20.2013789259
20
1.18195109382
10
20.3435532094
20
1.24098260384
10
20.4805238889
20
1.30297446544
10
20.6122163695
20
1.36786452825
10
20.7385560564
20
1.43559064187
10
20.8594683547
20
1.50609065594
10
20.9748786696
20
1.57930242006
10
21.084712406
20
1.65516378386
10
21.1888949693
20
1.73361259696
10
21.2873517644
20
1.81458670897
10
21.3800081965
20
1.89802396952
10
21.4667896707
20
1.98386222822
10
21.5476215922
20
2.0720393347
10
21.6224293661
20
2.16249313857
10
21.6911383974
20
2.25516148944
10
21.7536740914
20
2.34998223695
10
21.8099618531
20
2.44689323071
10
21.8599270876
20
2.54583232033
10
21.9034952002
20
2.64673735544
10
21.9405915959
20
2.74954618566
10
21.9711416797
20
2.8541966606
10
21.995070857
20
2.96062662989
10
22.0123045327
20
3.06877394314
10
22.022768112
20
3.17857644997
10
22.026387
20
3.289972
10
22.0266986721
20
3.33425406005
10
22.0275689055
20
3.37652089248
10
22.0290561388
20
3.41686792733
10
22.0312188104
20
3.45539059461
10
22.0341153589
20
3.49218432436
10
22.0378042228
20
3.52734454661
10
22.0423438406
20
3.56096669138
10
22.0477926508
20
3.59314618871
10
22.054209092
20
3.62397846863
10
22.0616516027
20
3.65355896116
10
22.0701786214
20
3.68198309634
10
22.0798485867
20
3.70934630419
10
22.0907199369
20
3.73574401474
10
22.1028511108
20
3.76127165802
10
22.1163005467
20
3.78602466406
10
22.1311266833
20
3.81009846289
10
22.1473879589
20
3.83358848454
10
22.1651428123
20
3.85659015904
10
22.1844496818
20
3.87919891642
10
22.205367006
20
3.9015101867
10
22.2279532235
20
3.92361939992
10
22.2522667727
20
3.9456219861
10
22.2783660921
20
3.96761337528
10
22.3063096204
20
3.98968899748
10
22.3361557959
20
4.01194428274
10
22.3679630573
20
4.03447466107
10
22.4017898431
20
4.05737556252
10
22.4376945917
20
4.08074241711
10
22.4757357417
20
4.10467065486
10
22.5159717316
20
4.12925570582
10
22.558461
20
4.154593
10
22.5866507342
20
4.17166679944
10
22.6149078084
20
4.18964989705
10
22.6431837394
20
4.20849200309
10
22.6714300439
20
4.2281428278
10
22.6995982389
20
4.24855208143
10
22.7276398412
20
4.26966947424
10
22.7555063676
20
4.29144471646
10
22.7831493349
20
4.31382751834
10
22.8105202599
20
4.33676759014
10
22.8375706596
20
4.36021464211
10
22.8642520508
20
4.38411838448
10
22.8905159502
20
4.40842852751
10
22.9163138747
20
4.43309478144
10
22.9415973411
20
4.45806685653
10
22.9663178663
20
4.48329446303
10
22.9904269672
20
4.50872731117
10
23.0138761605
20
4.53431511121
10
23.036616963
20
4.56000757339
10
23.0586008917
20
4.58575440798
10
23.0797794633
20
4.6115053252
10
23.1001041947
20
4.63721003531
10
23.1195266027
20
4.66281824857
10
23.1379982042
20
4.6882796752
10
23.1554705159
20
4.71354402548
10
23.1718950547
20
4.73856100963
10
23.1872233376
20
4.76328033792
10
23.2014068811
20
4.78765172059
10
23.2143972023
20
4.81162486788
10
23.226145818
20
4.83514949005
10
23.2366042449
20
4.85817529734
10
23.245724
20
4.880652
10
23.2877670016
20
5.01241845578
10
23.3266732366
20
5.17704539438
10
23.362457518
20
5.37267720499
10
23.3951346588
20
5.5974582768
10
23.424719472
20
5.84953299896
10
23.4512267705
20
6.12704576067
10
23.4746713674
20
6.42814095109
10
23.4950680757
20
6.75096295942
10
23.5124317084
20
7.09365617482
10
23.5267770784
20
7.45436498647
10
23.5381189989
20
7.83123378356
10
23.5464722826
20
8.22240695525
10
23.5518517428
20
8.62602889074
10
23.5542721923
20
9.04024397919
10
23.5537484441
20
9.46319660978
10
23.5502953113
20
9.8930311717
10
23.5439276069
20
10.3278920541
10
23.5346601438
20
10.7659236462
10
23.5225077351
20
11.2052703371
10
23.5074851936
20
11.6440765161
10
23.4896073326
20
12.0804865723
10
23.4688889649
20
12.5126448949
10
23.4453449035
20
12.938695873
10
23.4189899614
20
13.3567838959
10
23.3898389517
20
13.7650533528
10
23.3579066873
20
14.1616486327
10
23.3232079812
20
14.5447141249
10
23.2857576464
20
14.9123942185
10
23.245570496
20
15.2628333028
10
23.2026613428
20
15.5941757669
10
23.157045
20
15.904566
10
23.1086263543
20
16.20498853
10
23.0574438284
20
16.5065744067
10
23.0033984099
20
16.8096738986
10
22.9463910864
20
17.1146372744
10
22.8863228455
20
17.4218148027
10
22.8230946748
20
17.731556752
10
22.7566075619
20
18.044213391
10
22.6867624945
20
18.3601349882
10
22.6134604602
20
18.6796718124
10
22.5366024465
20
19.003174132
10
22.4560894412
20
19.3309922157
10
22.3718224317
20
19.6634763321
10
22.2837024058
20
20.0009767498
10
22.1916303509
20
20.3438437374
10
22.0955072549
20
20.6924275636
10
21.9952341052
20
21.0470784968
10
21.8907118894
20
21.4081468057
10
21.7818415953
20
21.775982759
10
21.6685242103
20
22.1509366252
10
21.5506607222
20
22.533358673
10
21.4281521185
20
22.9235991708
10
21.3008993868
20
23.3220083874
10
21.1688035148
20
23.7289365914
10
21.0317654901
20
24.1447340513
10
20.8896863002
20
24.5697510357
10
20.7424669329
20
25.0043378134
10
20.5900083756
20
25.4488446527
10
20.4322116161
20
25.9036218225
10
20.2689776419
20
26.3690195912
10
20.1002074407
20
26.8453882275
10
19.925802
20
27.333078
10
19.8553370873
20
27.5300871402
10
19.7849064071
20
27.7286516833
10
19.7146261752
20
27.9284061521
10
19.6446126075
20
28.1289850691
10
19.5749819198
20
28.330022957
10
19.5058503279
20
28.5311543385
10
19.4373340477
20
28.7320137361
10
19.369549295
20
28.9322356726
10
19.3026122856
20
29.1314546705
10
19.2366392354
20
29.3293052525
10
19.1717463602
20
29.5254219413
10
19.1080498759
20
29.7194392594
10
19.0456659983
20
29.9109917296
10
18.9847109432
20
30.0997138745
10
18.9253009265
20
30.2852402166
10
18.867552164
20
30.4672052787
10
18.8115808715
20
30.6452435834
10
18.7575032649
20
30.8189896533
10
18.7054355601
20
30.9880780111
10
18.6554939727
20
31.1521431794
10
18.6077947188
20
31.3108196809
10
18.5624540141
20
31.4637420381
10
18.5195880745
20
31.6105447738
10
18.4793131157
20
31.7508624106
10
18.4417453537
20
31.8843294711
10
18.4070010043
20
32.0105804779
10
18.3751962832
20
32.1292499538
10
18.3464474065
20
32.2399724213
10
18.3208705898
20
32.342382403
10
18.298582049
20
32.4361144217
10
18.279698
20
32.520803
10
18.262241987
20
32.6023488887
10
18.244189592
20
32.6867596121
10
18.2255847972
20
32.7738286919
10
18.2064715848
20
32.8633496494
10
18.186893937
20
32.9551160063
10
18.1668958361
20
33.048921284
10
18.1465212643
20
33.1445590042
10
18.1258142037
20
33.2418226884
10
18.1048186366
20
33.340505858
10
18.0835785451
20
33.4404020346
10
18.0621379116
20
33.5413047398
10
18.0405407181
20
33.643007495
10
18.018830947
20
33.7453038219
10
17.9970525804
20
33.847987242
10
17.9752496005
20
33.9508512767
10
17.9534659895
20
34.0536894476
10
17.9317457297
20
34.1562952763
10
17.9101328033
20
34.2584622842
10
17.8886711924
20
34.359983993
10
17.8674048793
20
34.4606539241
10
17.8463778461
20
34.5602655991
10
17.8256340752
20
34.6586125395
10
17.8052175487
20
34.7554882669
10
17.7851722487
20
34.8506863027
10
17.7655421576
20
34.9440001686
10
17.7463712576
20
35.035223386
10
17.7277035307
20
35.1241494765
10
17.7095829594
20
35.2105719616
10
17.6920535256
20
35.2942843629
10
17.6751592118
20
35.3750802018
10
17.658944
20
35.452753
10
17.6430573073
20
35.5288122457
10
17.6271337865
20
35.6048220315
10
17.611200499
20
35.6806574946
10
17.5952845065
20
35.7561937724
10
17.5794128703
20
35.8313060022
10
17.5636126521
20
35.9058693214
10
17.5479109133
20
35.9797588671
10
17.5323347156
20
36.0528497769
10
17.5169111204
20
36.1250171879
10
17.5016671892
20
36.1961362376
10
17.4866299837
20
36.2660820631
10
17.4718265652
20
36.334729802
10
17.4572839954
20
36.4019545914
10
17.4430293358
20
36.4676315688
10
17.4290896478
20
36.5316358713
10
17.4154919932
20
36.5938426365
10
17.4022634332
20
36.6541270015
10
17.3894310296
20
36.7123641037
10
17.3770218437
20
36.7684290804
10
17.3650629373
20
36.822197069
10
17.3535813717
20
36.8735432068
10
17.3426042085
20
36.922342631
10
17.3321585092
20
36.9684704791
10
17.3222713354
20
37.0118018883
10
17.3129697485
20
37.052211996
10
17.3042808102
20
37.0895759395
10
17.296231582
20
37.1237688561
10
17.2888491253
20
37.1546658831
10
17.2821605017
20
37.1821421579
10
17.2761927728
20
37.2060728177
10
17.270973
20
37.226333
10
17.2645554361
20
37.2525278359
10
17.259272603
20
37.2781720222
10
17.2551635793
20
37.3033317543
10
17.2522674434
20
37.3280732275
10
17.2506232737
20
37.3524626371
10
17.2502701487
20
37.3765661787
10
17.2512471469
20
37.4004500474
10
17.2535933465
20
37.4241804388
10
17.2573478263
20
37.447823548
10
17.2625496644
20
37.4714455706
10
17.2692379395
20
37.4951127018
10
17.27745173
20
37.518891137
10
17.2872301142
20
37.5428470716
10
17.2986121707
20
37.567046701
10
17.3116369779
20
37.5915562204
10
17.3263436142
20
37.6164418253
10
17.3427711581
20
37.6417697111
10
17.3609586881
20
37.667606073
10
17.3809452825
20
37.6940171065
10
17.4027700199
20
37.7210690068
10
17.4264719787
20
37.7488279695
10
17.4520902372
20
37.7773601898
10
17.4796638741
20
37.806731863
10
17.5092319676
20
37.8370091846
10
17.5408335963
20
37.8682583499
10
17.5745078386
20
37.9005455543
10
17.610293773
20
37.9339369932
10
17.6482304779
20
37.9684988618
10
17.6883570317
20
38.0042973555
10
17.7307125129
20
38.0413986698
10
17.775336
20
38.079869
10
17.8594260474
20
38.1549563389
10
17.9408290035
20
38.2341208727
10
18.0196535086
20
38.3176979252
10
18.096008203
20
38.4060228204
10
18.1700017269
20
38.4994308821
10
18.2417427206
20
38.5982574342
10
18.3113398242
20
38.7028378006
10
18.3789016782
20
38.8135073053
10
18.4445369228
20
38.930601272
10
18.5083541981
20
39.0544550246
10
18.5704621445
20
39.1854038872
10
18.6309694023
20
39.3237831835
10
18.6899846117
20
39.4699282374
10
18.7476164129
20
39.6241743729
10
18.8039734462
20
39.7868569138
10
18.8591643519
20
39.958311184
10
18.9132977703
20
40.1388725074
10
18.9664823415
20
40.3288762079
10
19.0188267059
20
40.5286576094
10
19.0704395037
20
40.7385520358
10
19.1214293752
20
40.9588948109
10
19.1719049607
20
41.1900212587
10
19.2219749003
20
41.4322667031
10
19.2717478344
20
41.6859664678
10
19.3213324033
20
41.9514558769
10
19.3708372471
20
42.2290702542
10
19.4203710061
20
42.5191449236
10
19.4700423207
20
42.822015209
10
19.519959831
20
43.1380164343
10
19.5702321774
20
43.4674839233
10
19.620968
20
43.810753
10
19.6372011609
20
43.9217819468
10
19.6534292247
20
44.031881405
10
19.6696246114
20
44.1408898173
10
19.6857597411
20
44.2486456262
10
19.7018070339
20
44.3549872746
10
19.7177389099
20
44.4597532051
10
19.733527789
20
44.5627818604
10
19.7491460914
20
44.6639116831
10
19.7645662371
20
44.762981116
10
19.7797606461
20
44.8598286017
10
19.7947017386
20
44.9542925829
10
19.8093619345
20
45.0462115024
10
19.8237136541
20
45.1354238027
10
19.8377293172
20
45.2217679266
10
19.851381344
20
45.3050823167
10
19.8646421545
20
45.3852054158
10
19.8774841688
20
45.4619756665
10
19.8898798069
20
45.5352315116
10
19.901801489
20
45.6048113936
10
19.913221635
20
45.6705537553
10
19.924112665
20
45.7322970393
10
19.9344469992
20
45.7898796884
10
19.9441970574
20
45.8431401452
10
19.9533352599
20
45.8919168524
10
19.9618340267
20
45.9360482528
10
19.9696657777
20
45.9753727889
10
19.9768029332
20
46.0097289034
10
19.9832179131
20
46.0389550391
10
19.9888831375
20
46.0628896387
10
19.9937710264
20
46.0813711447
10
19.997854
20
46.094238
10
20.0090145321
20
46.1217998631
10
20.0214236845
20
46.1470315691
10
20.0350935656
20
46.1699310667
10
20.0500362838
20
46.1904963049
10
20.0662639473
20
46.2087252326
10
20.0837886646
20
46.2246157987
10
20.1026225439
20
46.2381659521
10
20.1227776937
20
46.2493736418
10
20.1442662223
20
46.2582368166
10
20.1671002381
20
46.2647534255
10
20.1912918494
20
46.2689214173
10
20.2168531646
20
46.270738741
10
20.243796292
20
46.2702033455
10
20.2721333399
20
46.2673131798
10
20.3018764168
20
46.2620661926
10
20.333037631
20
46.2544603329
10
20.3656290909
20
46.2444935497
10
20.3996629047
20
46.2321637918
10
20.4351511809
20
46.2174690082
10
20.4721060278
20
46.2004071477
10
20.5105395538
20
46.1809761593
10
20.5504638671
20
46.1591739919
10
20.5918910763
20
46.1349985944
10
20.6348332896
20
46.1084479157
10
20.6793026154
20
46.0795199048
10
20.725311162
20
46.0482125104
10
20.7728710378
20
46.0145236816
10
20.8219943511
20
45.9784513673
10
20.8726932104
20
45.9399935163
10
20.9249797239
20
45.8991480775
10
20.978866
20
45.855913
10
21.0068490898
20
45.8333149622
10
21.0350842566
20
45.8107757733
10
21.0635188946
20
45.7883317559
10
21.0921003982
20
45.7660192324
10
21.1207761616
20
45.7438745251
10
21.1494935793
20
45.7219339567
10
21.1782000454
20
45.7002338494
10
21.2068429544
20
45.6788105258
10
21.2353697005
20
45.6577003083
10
21.263727678
20
45.6369395194
10
21.2918642813
20
45.6165644815
10
21.3197269047
20
45.596611517
10
21.3472629425
20
45.5771169484
10
21.3744197889
20
45.5581170982
10
21.4011448384
20
45.5396482887
10
21.4273854852
20
45.5217468424
10
21.4530891237
20
45.5044490819
10
21.4782031481
20
45.4877913294
10
21.5026749527
20
45.4718099076
10
21.526451932
20
45.4565411387
10
21.5494814801
20
45.4420213453
10
21.5717109915
20
45.4282868498
10
21.5930878604
20
45.4153739747
10
21.6135594811
20
45.4033190424
10
21.633073248
20
45.3921583753
10
21.6515765553
20
45.3819282959
10
21.6690167975
20
45.3726651266
10
21.6853413687
20
45.36440519
10
21.7004976633
20
45.3571848084
10
21.7144330756
20
45.3510403042
10
21.727095
20
45.346008
10
21.7520039662
20
45.3295886153
10
21.7831808006
20
45.29696051
10
21.8202615357
20
45.2489174027
10
21.8628822041
20
45.186253012
10
21.9106788382
20
45.1097610565
10
21.9632874708
20
45.0202352547
10
22.0203441343
20
44.9184693252
10
22.0814848614
20
44.8052569866
10
22.1463456845
20
44.6813919575
10
22.2145626362
20
44.5476679564
10
22.2857717491
20
44.4048787019
10
22.3596090558
20
44.2538179125
10
22.4357105888
20
44.0952793069
10
22.5137123806
20
43.9300566037
10
22.5932504639
20
43.7589435213
10
22.6739608712
20
43.5827337784
10
22.755479635
20
43.4022210935
10
22.8374427879
20
43.2181991853
10
22.9194863625
20
43.0314617722
10
23.0012463914
20
42.8428025729
10
23.082358907
20
42.6530153059
10
23.162459942
20
42.4628936898
10
23.2411855289
20
42.2732314432
10
23.3181717002
20
42.0848222846
10
23.3930544886
20
41.8984599326
10
23.4654699266
20
41.7149381059
10
23.5350540467
20
41.5350505229
10
23.6014428816
20
41.3595909022
10
23.6642724637
20
41.1893529625
10
23.7231788257
20
41.0251304222
10
23.777798
20
40.867717
10
23.7928519157
20
40.823878385
10
23.8080137565
20
40.7804538702
10
23.8232560822
20
40.7375069021
10
23.8385514527
20
40.6951009272
10
23.8538724277
20
40.6532993923
10
23.8691915671
20
40.612165744
10
23.8844814308
20
40.5717634288
10
23.8997145786
20
40.5321558934
10
23.9148635702
20
40.4934065843
10
23.9299009657
20
40.4555789482
10
23.9447993247
20
40.4187364318
10
23.9595312071
20
40.3829424815
10
23.9740691727
20
40.3482605441
10
23.9883857815
20
40.3147540661
10
24.0024535931
20
40.2824864941
10
24.0162451675
20
40.2515212748
10
24.0297330645
20
40.2219218548
10
24.0428898439
20
40.1937516807
10
24.0556880656
20
40.167074199
10
24.0681002893
20
40.1419528565
10
24.0800990749
20
40.1184510996
10
24.0916569823
20
40.0966323751
10
24.1027465713
20
40.0765601295
10
24.1133404017
20
40.0582978095
10
24.1234110333
20
40.0419088616
10
24.132931026
20
40.0274567325
10
24.1418729396
20
40.0150048688
10
24.150209334
20
40.0046167171
10
24.157912769
20
39.996355724
10
24.1649558044
20
39.9902853361
10
24.171311
20
39.986469
10
24.1772723729
20
39.9831576841
10
24.1831439725
20
39.9785845974
10
24.1889186334
20
39.9727859672
10
24.1945891901
20
39.9657980206
10
24.2001484769
20
39.9576569848
10
24.2055893285
20
39.948399087
10
24.2109045792
20
39.9380605544
10
24.2160870636
20
39.9266776141
10
24.2211296162
20
39.9142864934
10
24.2260250714
20
39.9009234195
10
24.2307662636
20
39.8866246194
10
24.2353460275
20
39.8714263204
10
24.2397571974
20
39.8553647497
10
24.2439926079
20
39.8384761344
10
24.2480450934
20
39.8207967018
10
24.2519074883
20
39.802362679
10
24.2555726273
20
39.7832102932
10
24.2590333447
20
39.7633757716
10
24.2622824751
20
39.7428953414
10
24.2653128529
20
39.7218052297
10
24.2681173126
20
39.7001416638
10
24.2706886887
20
39.6779408708
10
24.2730198156
20
39.6552390778
10
24.2751035279
20
39.6320725122
10
24.2769326601
20
39.608477401
10
24.2785000465
20
39.5844899715
10
24.2797985217
20
39.5601464508
10
24.2808209202
20
39.5354830661
10
24.2815600764
20
39.5105360446
10
24.2820088248
20
39.4853416135
10
24.28216
20
39.459936
10
24.2828251834
20
39.4308309002
10
24.2847981752
20
39.3946625708
10
24.2880451372
20
39.3516546605
10
24.2925322316
20
39.302030818
10
24.2982256205
20
39.2460146921
10
24.3050914659
20
39.1838299313
10
24.3130959298
20
39.1157001843
10
24.3222051744
20
39.0418490999
10
24.3323853618
20
38.9625003268
10
24.3436026538
20
38.8778775135
10
24.3558232127
20
38.7882043089
10
24.3690132005
20
38.6937043616
10
24.3831387792
20
38.5946013202
10
24.398166111
20
38.4911188335
10
24.4140613578
20
38.3834805502
10
24.4307906817
20
38.2719101189
10
24.4483202449
20
38.1566311883
10
24.4666162093
20
38.0378674071
10
24.4856447371
20
37.9158424241
10
24.5053719902
20
37.7907798878
10
24.5257641308
20
37.6629034469
10
24.5467873209
20
37.5324367502
10
24.5684077225
20
37.3996034464
10
24.5905914978
20
37.264627184
10
24.6133048088
20
37.1277316119
10
24.6365138176
20
36.9891403787
10
24.6601846862
20
36.8490771331
10
24.6842835767
20
36.7077655237
10
24.7087766511
20
36.5654291993
10
24.7336300715
20
36.4222918085
10
24.75881
20
36.278577
10
24.7999293094
20
36.044003808
10
24.8386308141
20
35.8209159736
10
24.8749895565
20
35.6083719804
10
24.9090805792
20
35.4054303121
10
24.9409789243
20
35.2111494521
10
24.9707596345
20
35.024587884
10
24.9984977519
20
34.8448040915
10
25.0242683191
20
34.670856558
10
25.0481463784
20
34.5018037671
10
25.0702069722
20
34.3367042025
10
25.090525143
20
34.1746163477
10
25.1091759331
20
34.0145986861
10
25.1262343848
20
33.8557097016
10
25.1417755407
20
33.6970078774
10
25.1558744431
20
33.5375516974
10
25.1686061344
20
33.376399645
10
25.180045657
20
33.2126102037
10
25.1902680532
20
33.0452418572
10
25.1993483656
20
32.8733530891
10
25.2073616364
20
32.6960023828
10
25.2143829081
20
32.512248222
10
25.2204872231
20
32.3211490903
10
25.2257496237
20
32.1217634711
10
25.2302451524
20
31.9131498482
10
25.2340488515
20
31.6943667049
10
25.2372357635
20
31.464472525
10
25.2398809307
20
31.222525792
10
25.2420593956
20
30.9675849894
10
25.2438462005
20
30.6987086008
10
25.2453163878
20
30.4149551098
10
25.246545
20
30.115383
10
25.247518086
20
29.8222175545
10
25.2481716966
20
29.5444754732
10
25.2484544894
20
29.2814215584
10
25.2483151221
20
29.0323206126
10
25.2477022525
20
28.7964374379
10
25.2465645383
20
28.5730368368
10
25.2448506372
20
28.3613836115
10
25.2425092069
20
28.1607425644
10
25.2394889051
20
27.9703784978
10
25.2357383896
20
27.7895562141
10
25.231206318
20
27.6175405154
10
25.2258413482
20
27.4535962043
10
25.2195921377
20
27.2969880829
10
25.2124073443
20
27.1469809536
10
25.2042356257
20
27.0028396188
10
25.1950256397
20
26.8638288807
10
25.1847260439
20
26.7292135417
10
25.1732854961
20
26.5982584041
10
25.1606526539
20
26.4702282702
10
25.1467761752
20
26.3443879424
10
25.1316047176
20
26.220002223
10
25.1150869388
20
26.0963359142
10
25.0971714965
20
25.9726538185
10
25.0778070485
20
25.8482207381
10
25.0569422525
20
25.7223014754
10
25.0345257662
20
25.5941608326
10
25.0105062473
20
25.4630636122
10
24.9848323535
20
25.3282746164
10
24.9574527425
20
25.1890586475
10
24.9283160721
20
25.044680508
10
24.897371
20
24.894405
10
24.8566450675
20
24.6964883099
10
24.819150468
20
24.5098787903
10
24.7850175147
20
24.3341231059
10
24.754376521
20
24.1687679216
10
24.7273578
20
24.013359902
10
24.7040916651
20
23.867445712
10
24.6847084294
20
23.7305720162
10
24.6693384063
20
23.6022854796
10
24.6581119089
20
23.4821327668
10
24.6511592505
20
23.3696605426
10
24.6486107444
20
23.2644154718
10
24.6505967037
20
23.1659442191
10
24.6572474419
20
23.0737934493
10
24.668693272
20
22.9875098272
10
24.6850645074
20
22.9066400175
10
24.7064914613
20
22.8307306849
10
24.733104447
20
22.7593284944
10
24.7650337777
20
22.6919801105
10
24.8024097666
20
22.6282321982
10
24.845362727
20
22.5676314221
10
24.8940229722
20
22.509724447
10
24.9485208154
20
22.4540579377
10
25.0089865698
20
22.4001785589
10
25.0755505487
20
22.3476329754
10
25.1483430654
20
22.295967852
10
25.2274944331
20
22.2447298535
10
25.313134965
20
22.1934656445
10
25.4053949744
20
22.1417218899
10
25.5044047745
20
22.0890452545
10
25.6102946786
20
22.0349824029
10
25.723195
20
21.97908
10
25.7520839687
20
21.9650544271
10
25.7807879675
20
21.9513355566
10
25.809308151
20
21.9379218055
10
25.8376456742
20
21.924811591
10
25.865801692
20
21.9120033304
10
25.893777359
20
21.8994954407
10
25.9215738303
20
21.8872863392
10
25.9491922606
20
21.875374443
10
25.9766338049
20
21.8637581693
10
26.0038996178
20
21.8524359353
10
26.0309908544
20
21.8414061582
10
26.0579086694
20
21.8306672551
10
26.0846542176
20
21.8202176431
10
26.111228654
20
21.8100557396
10
26.1376331333
20
21.8001799616
10
26.1638688105
20
21.7905887263
10
26.1899368403
20
21.7812804508
10
26.2158383776
20
21.7722535525
10
26.2415745773
20
21.7635064484
10
26.2671465941
20
21.7550375556
10
26.292555583
20
21.7468452915
10
26.3178026988
20
21.7389280731
10
26.3428890963
20
21.7312843176
10
26.3678159303
20
21.7239124423
10
26.3925843558
20
21.7168108642
10
26.4171955276
20
21.7099780005
10
26.4416506005
20
21.7034122685
10
26.4659507293
20
21.6971120853
10
26.4900970689
20
21.691075868
10
26.5140907742
20
21.6853020338
10
26.537933
20
21.679789
10
26.537933
20
40.28576
10
26.5212472502
20
40.2867130556
10
26.5043252678
20
40.2892453188
10
26.4871635342
20
40.2933582407
10
26.4697585305
20
40.2990532725
10
26.4521067382
20
40.3063318652
10
26.4342046385
20
40.3151954699
10
26.4160487126
20
40.3256455378
10
26.3976354419
20
40.33768352
10
26.3789613077
20
40.3513108675
10
26.3600227912
20
40.3665290316
10
26.3408163737
20
40.3833394632
10
26.3213385366
20
40.4017436136
10
26.301585761
20
40.4217429337
10
26.2815545283
20
40.4433388748
10
26.2612413198
20
40.466532888
10
26.2406426167
20
40.4913264242
10
26.2197549004
20
40.5177209347
10
26.1985746521
20
40.5457178706
10
26.1770983531
20
40.575318683
10
26.1553224847
20
40.6065248229
10
26.1332435282
20
40.6393377416
10
26.1108579649
20
40.67375889
10
26.0881622761
20
40.7097897193
10
26.0651529429
20
40.7474316807
10
26.0418264468
20
40.7866862252
10
26.0181792691
20
40.8275548039
10
25.9942078909
20
40.870038868
10
25.9699087936
20
40.9141398686
10
25.9452784585
20
40.9598592567
10
25.9203133669
20
41.0071984834
10
25.89501
20
41.056159
10
25.8731445761
20
41.0987647851
10
25.8506027236
20
41.1424701026
10
25.8274375227
20
41.1871768639
10
25.8037020534
20
41.2327869801
10
25.7794493961
20
41.2792023626
10
25.7547326309
20
41.3263249225
10
25.729604838
20
41.3740565712
10
25.7041190976
20
41.4222992198
10
25.6783284899
20
41.4709547796
10
25.6522860951
20
41.5199251619
10
25.6260449934
20
41.5691122779
10
25.5996582649
20
41.6184180389
10
25.5731789899
20
41.6677443561
10
25.5466602485
20
41.7169931407
10
25.520155121
20
41.7660663041
10
25.4937166875
20
41.8148657573
10
25.4673980283
20
41.8632934118
10
25.4412522234
20
41.9112511788
10
25.4153323532
20
41.9586409694
10
25.3896914978
20
42.005364695
10
25.3643827373
20
42.0513242668
10
25.3394591521
20
42.096421596
10
25.3149738222
20
42.1405585939
10
25.2909798279
20
42.1836371718
10
25.2675302494
20
42.2255592408
10
25.2446781668
20
42.2662267123
10
25.2224766604
20
42.3055414975
10
25.2009788103
20
42.3434055076
10
25.1802376968
20
42.3797206539
10
25.1603063999
20
42.4143888476
10
25.141238
20
42.447312
10
25.0532594408
20
42.6023878242
10
24.9680402296
20
42.7601001652
10
24.8857056146
20
42.9199255188
10
24.8063808441
20
43.0813403811
10
24.7301911661
20
43.2438212478
10
24.6572618287
20
43.4068446149
10
24.5877180803
20
43.5698869783
10
24.5216851689
20
43.7324248341
10
24.4592883427
20
43.893934678
10
24.4006528498
20
44.053893006
10
24.3459039384
20
44.2117763141
10
24.2951668568
20
44.367061098
10
24.2485668529
20
44.5192238539
10
24.2062291751
20
44.6677410776
10
24.1682790715
20
44.8120892649
10
24.1348417901
20
44.951744912
10
24.1060425793
20
45.0861845145
10
24.0820066871
20
45.2148845686
10
24.0628593618
20
45.33732157
10
24.0487258514
20
45.4529720148
10
24.0397314041
20
45.5613123988
10
24.0360012682
20
45.661819218
10
24.0376606917
20
45.7539689682
10
24.0448349228
20
45.8372381455
10
24.0576492098
20
45.9111032457
10
24.0762288006
20
45.9750407647
10
24.1006989436
20
46.0285271985
10
24.1311848869
20
46.0710390431
10
24.1678118786
20
46.1020527942
10
24.2107051669
20
46.1210449479
10
24.25999
20
46.127492
10
24.2742190509
20
46.1272287345
10
24.2888213187
20
46.1264478949
10
24.3037636372
20
46.1251629162
10
24.3190128406
20
46.1233872339
10
24.3345357626
20
46.1211342829
10
24.3502992374
20
46.1184174986
10
24.3662700987
20
46.1152503161
10
24.3824151805
20
46.1116461706
10
24.3987013168
20
46.1076184973
10
24.4150953415
20
46.1031807315
10
24.4315640887
20
46.0983463083
10
24.4480743921
20
46.0931286629
10
24.4645930857
20
46.0875412305
10
24.4810870036
20
46.0815974463
10
24.4975229796
20
46.0753107456
10
24.5138678477
20
46.0686945635
10
24.5300884418
20
46.0617623351
10
24.5461515959
20
46.0545274958
10
24.5620241438
20
46.0470034807
10
24.5776729197
20
46.039203725
10
24.5930647573
20
46.0311416639
10
24.6081664907
20
46.0228307326
10
24.6229449537
20
46.0142843664
10
24.6373669804
20
46.0055160003
10
24.6513994047
20
45.9965390696
10
24.6650090605
20
45.9873670095
10
24.6781627817
20
45.9780132552
10
24.6908274023
20
45.9684912419
10
24.7029697563
20
45.9588144048
10
24.7145566775
20
45.9489961791
10
24.725555
20
45.93905
10
24.7410977361
20
45.9246578511
10
24.7557014899
20
45.9114598764
10
24.769375935
20
45.8994737194
10
24.7821307448
20
45.8887170237
10
24.7939755925
20
45.8792074328
10
24.8049201516
20
45.8709625901
10
24.8149740954
20
45.8640001392
10
24.8241470975
20
45.8583377237
10
24.8324488311
20
45.8539929869
10
24.8398889697
20
45.8509835726
10
24.8464771866
20
45.849327124
10
24.8522231552
20
45.8490412849
10
24.857136549
20
45.8501436986
10
24.8612270413
20
45.8526520088
10
24.8645043055
20
45.8565838589
10
24.866978015
20
45.8619568924
10
24.8686578432
20
45.8687887529
10
24.8695534635
20
45.8770970839
10
24.8696745493
20
45.8868995289
10
24.8690307739
20
45.8982137313
10
24.8676318108
20
45.9110573348
10
24.8654873333
20
45.9254479829
10
24.8626070149
20
45.941403319
10
24.8590005289
20
45.9589409867
10
24.8546775488
20
45.9780786295
10
24.8496477478
20
45.9988338908
10
24.8439207995
20
46.0212244144
10
24.8375063771
20
46.0452678435
10
24.8304141542
20
46.0709818218
10
24.822653804
20
46.0983839928
10
24.814235
20
46.127492
10
24.7954049302
20
46.1929402666
10
24.7774184251
20
46.2573138726
10
24.760283557
20
46.3205401886
10
24.7440083984
20
46.3825465852
10
24.7286010218
20
46.4432604331
10
24.7140694995
20
46.5026091028
10
24.7004219041
20
46.560519965
10
24.687666308
20
46.6169203903
10
24.6758107835
20
46.6717377493
10
24.6648634032
20
46.7248994126
10
24.6548322395
20
46.7763327509
10
24.6457253647
20
46.8259651347
10
24.6375508515
20
46.8737239347
10
24.6303167721
20
46.9195365214
10
24.624031199
20
46.9633302656
10
24.6187022047
20
47.0050325377
10
24.6143378616
20
47.0445707085
10
24.6109462422
20
47.0818721486
10
24.6085354188
20
47.1168642285
10
24.607113464
20
47.1494743188
10
24.6066884501
20
47.1796297903
10
24.6072684496
20
47.2072580134
10
24.6088615349
20
47.2322863589
10
24.6114757785
20
47.2546421973
10
24.6151192528
20
47.2742528993
10
24.6198000302
20
47.2910458354
10
24.6255261833
20
47.3049483763
10
24.6323057843
20
47.3158878926
10
24.6401469058
20
47.3237917549
10
24.6490576203
20
47.3285873338
10
24.659046
20
47.330202
10
24.6652828141
20
47.3296363479
10
24.6725660092
20
47.327957907
10
24.6808602306
20
47.3251944503
10
24.6901301235
20
47.3213737509
10
24.7003403334
20
47.316523582
10
24.7114555054
20
47.3106717166
10
24.7234402848
20
47.3038459278
10
24.736259317
20
47.2960739887
10
24.7498772473
20
47.2873836724
10
24.764258721
20
47.2778027519
10
24.7793683832
20
47.2673590004
10
24.7951708795
20
47.2560801909
10
24.8116308549
20
47.2439940965
10
24.8287129549
20
47.2311284903
10
24.8463818247
20
47.2175111454
10
24.8646021097
20
47.2031698348
10
24.8833384551
20
47.1881323318
10
24.9025555062
20
47.1724264093
10
24.9222179083
20
47.1560798404
10
24.9422903067
20
47.1391203982
10
24.9627373467
20
47.1215758558
10
24.9835236736
20
47.1034739863
10
25.0046139327
20
47.0848425628
10
25.0259727693
20
47.0657093583
10
25.0475648287
20
47.046102146
10
25.0693547561
20
47.0260486989
10
25.091307197
20
47.0055767902
10
25.1133867965
20
46.9847141928
10
25.1355582
20
46.9634886799
10
25.1577860527
20
46.9419280246
10
25.180035
20
46.92006
10
25.2609816151
20
46.8405988115
10
25.338352056
20
46.7659195907
10
25.4121294096
20
46.6960263389
10
25.4822967629
20
46.6309230569
10
25.548837203
20
46.5706137459
10
25.6117338168
20
46.515102407
10
25.6709696911
20
46.4643930413
10
25.7265279132
20
46.4184896498
10
25.7783915698
20
46.3773962335
10
25.8265437479
20
46.3411167937
10
25.8709675347
20
46.3096553312
10
25.9116460169
20
46.2830158473
10
25.9485622816
20
46.261202343
10
25.9816994158
20
46.2442188194
10
26.0110405064
20
46.2320692775
10
26.0365686404
20
46.2247577184
10
26.0582669047
20
46.2222881432
10
26.0761183865
20
46.2246645529
10
26.0901061725
20
46.2318909487
10
26.1002133498
20
46.2439713316
10
26.1064230054
20
46.2609097027
10
26.1087182263
20
46.282710063
10
26.1070820993
20
46.3093764137
10
26.1014977116
20
46.3409127558
10
26.0919481499
20
46.3773230904
10
26.0784165015
20
46.4186114185
10
26.0608858531
20
46.4647817412
10
26.0393392918
20
46.5158380597
10
26.0137599045
20
46.5717843749
10
25.9841307783
20
46.632624688
10
25.950435
20
46.698363
10
25.9257217649
20
46.7467983074
10
25.8994750963
20
46.8006267124
10
25.871853904
20
46.8594174227
10
25.8430170979
20
46.9227396461
10
25.813123588
20
46.9901625905
10
25.782332284
20
47.0612554636
10
25.7508020959
20
47.1355874734
10
25.7186919334
20
47.2127278275
10
25.6861607066
20
47.2922457338
10
25.6533673252
20
47.3737104002
10
25.6204706991
20
47.4566910344
10
25.5876297383
20
47.5407568443
10
25.5550033525
20
47.6254770377
10
25.5227504516
20
47.7104208223
10
25.4910299456
20
47.795157406
10
25.4600007443
20
47.8792559967
10
25.4298217575
20
47.9622858021
10
25.4006518952
20
48.04381603
10
25.3726500671
20
48.1234158883
10
25.3459751833
20
48.2006545847
10
25.3207861535
20
48.2751013271
10
25.2972418876
20
48.3463253234
10
25.2755012955
20
48.4138957812
10
25.2557232871
20
48.4773819085
10
25.2380667722
20
48.5363529131
10
25.2226906607
20
48.5903780027
10
25.2097538625
20
48.6390263851
10
25.1994152875
20
48.6818672683
10
25.1918338455
20
48.7184698599
10
25.1871684463
20
48.7484033679
10
25.185578
20
48.771237
10
25.1861842003
20
48.7816059035
10
25.1879827241
20
48.792093198
10
25.1909434558
20
48.8026792433
10
25.1950362799
20
48.8133443991
10
25.2002310806
20
48.8240690253
10
25.2064977425
20
48.8348334815
10
25.2138061498
20
48.8456181276
10
25.222126187
20
48.8564033233
10
25.2314277385
20
48.8671694284
10
25.2416806887
20
48.8778968026
10
25.252854922
20
48.8885658058
10
25.2649203227
20
48.8991567978
10
25.2778467753
20
48.9096501382
10
25.2916041641
20
48.9200261869
10
25.3061623736
20
48.9302653037
10
25.3214912882
20
48.9403478482
10
25.3375607922
20
48.9502541804
10
25.35434077
20
48.9599646599
10
25.371801106
20
48.9694596465
10
25.3899116847
20
48.9787195001
10
25.4086423904
20
48.9877245803
10
25.4279631074
20
48.996455247
10
25.4478437204
20
49.0048918599
10
25.4682541135
20
49.0130147788
10
25.4891641712
20
49.0208043635
10
25.5105437779
20
49.0282409737
10
25.5323628179
20
49.0353049692
10
25.5545911758
20
49.0419767098
10
25.5771987358
20
49.0482365553
10
25.6001553824
20
49.0540648655
10
25.623431
20
49.059442
10
25.6470734838
20
49.0650879317
10
25.6711173678
20
49.0717129395
10
25.6955122042
20
49.0792828424
10
25.7202075451
20
49.0877634596
10
25.7451529427
20
49.0971206102
10
25.7702979491
20
49.1073201131
10
25.7955921164
20
49.1183277874
10
25.8209849968
20
49.1301094523
10
25.8464261425
20
49.1426309268
10
25.8718651056
20
49.15585803
10
25.8972514382
20
49.1697565809
10
25.9225346925
20
49.1842923987
10
25.9476644207
20
49.1994313024
10
25.9725901748
20
49.215139111
10
25.997261507
20
49.2313816437
10
26.0216279696
20
49.2481247195
10
26.0456391145
20
49.2653341575
10
26.069244494
20
49.2829757767
10
26.0923936602
20
49.3010153963
10
26.1150361653
20
49.3194188353
10
26.1371215614
20
49.3381519128
10
26.1585994007
20
49.3571804478
10
26.1794192352
20
49.3764702594
10
26.1995306172
20
49.3959871668
10
26.2188830988
20
49.4156969889
10
26.2374262321
20
49.4355655449
10
26.2551095693
20
49.4555586538
10
26.2718826626
20
49.4756421347
10
26.287695064
20
49.4957818066
10
26.3024963258
20
49.5159434887
10
26.316236
20
49.536093
10
26.3236191488
20
49.5472703276
10
26.3309660918
20
49.5582099953
10
26.338278977
20
49.5689137563
10
26.3455599522
20
49.5793833638
10
26.3528111655
20
49.5896205711
10
26.3600347648
20
49.5996271313
10
26.3672328981
20
49.6094047977
10
26.3744077133
20
49.6189553235
10
26.3815613585
20
49.6282804619
10
26.3886959815
20
49.6373819661
10
26.3958137304
20
49.6462615894
10
26.4029167531
20
49.6549210849
10
26.4100071976
20
49.6633622058
10
26.4170872118
20
49.6715867054
10
26.4241589437
20
49.6795963369
10
26.4312245412
20
49.6873928535
10
26.4382861524
20
49.6949780084
10
26.4453459252
20
49.7023535549
10
26.4524060076
20
49.709521246
10
26.4594685474
20
49.7164828352
10
26.4665356928
20
49.7232400755
10
26.4736095916
20
49.7297947202
10
26.4806923918
20
49.7361485225
10
26.4877862413
20
49.7423032356
10
26.4948932883
20
49.7482606127
10
26.5020156805
20
49.7540224071
10
26.509155566
20
49.7595903719
10
26.5163150927
20
49.7649662604
10
26.5234964087
20
49.7701518258
10
26.5307016618
20
49.7751488212
10
26.537933
20
49.779959
10
26.537933
20
53.897993
10
26.5267588143
20
53.912870002
10
26.5157017788
20
53.929011867
10
26.5047577886
20
53.9464157226
10
26.4939227389
20
53.9650786959
10
26.483192525
20
53.9849979146
10
26.4725630421
20
54.0061705058
10
26.4620301853
20
54.0285935971
10
26.4515898499
20
54.0522643158
10
26.4412379311
20
54.0771797892
10
26.430970324
20
54.1033371449
10
26.4207829239
20
54.1307335101
10
26.410671626
20
54.1593660123
10
26.4006323255
20
54.1892317788
10
26.3906609176
20
54.220327937
10
26.3807532974
20
54.2526516143
10
26.3709053602
20
54.2861999382
10
26.3611130013
20
54.320970036
10
26.3513721157
20
54.356959035
10
26.3416785987
20
54.3941640627
10
26.3320283456
20
54.4325822464
10
26.3224172514
20
54.4722107136
10
26.3128412115
20
54.5130465916
10
26.3032961209
20
54.5550870079
10
26.293777875
20
54.5983290897
10
26.2842823689
20
54.6427699645
10
26.2748054979
20
54.6884067597
10
26.265343157
20
54.7352366027
10
26.2558912416
20
54.7832566208
10
26.2464456468
20
54.8324639415
10
26.2370022679
20
54.8828556921
10
26.227557
20
54.934429
10
26.1981028262
20
55.0903894231
10
26.1639055304
20
55.2595937668
10
26.1252742093
20
55.4409527071
10
26.0825179594
20
55.6333769201
10
26.0359458772
20
55.8357770818
10
25.9858670593
20
56.0470638682
10
25.9325906024
20
56.2661479555
10
25.876425603
20
56.4919400196
10
25.8176811576
20
56.7233507365
10
25.7566663629
20
56.9592907824
10
25.6936903154
20
57.1986708333
10
25.6290621116
20
57.4404015651
10
25.5630908482
20
57.6833936541
10
25.4960856217
20
57.9265577761
10
25.4283555288
20
58.1688046072
10
25.3602096658
20
58.4090448236
10
25.2919571296
20
58.6461891011
10
25.2239070165
20
58.879148116
10
25.1563684232
20
59.1068325441
10
25.0896504463
20
59.3281530616
10
25.0240621824
20
59.5420203445
10
24.9599127279
20
59.7473450689
10
24.8975111795
20
59.9430379107
10
24.8371666338
20
60.1280095461
10
24.7791881873
20
60.301170651
10
24.7238849366
20
60.4614319015
10
24.6715659782
20
60.6077039738
10
24.6225404088
20
60.7388975437
10
24.5771173249
20
60.8539232873
10
24.5356058231
20
60.9516918807
10
24.498315
20
61.031114
10
24.4795518355
20
61.0689534127
10
24.4601640151
20
61.1089401737
10
24.4401975965
20
61.1509573897
10
24.4196986377
20
61.1948881678
10
24.3987131966
20
61.2406156146
10
24.377287331
20
61.288022837
10
24.3554670987
20
61.336992942
10
24.3332985577
20
61.3874090362
10
24.3108277658
20
61.4391542266
10
24.2881007809
20
61.4921116201
10
24.2651636609
20
61.5461643234
10
24.2420624636
20
61.6011954434
10
24.2188432469
20
61.6570880869
10
24.1955520686
20
61.7137253609
10
24.1722349867
20
61.7709903721
10
24.148938059
20
61.8287662273
10
24.1257073434
20
61.8869360335
10
24.1025888978
20
61.9453828975
10
24.0796287799
20
62.003989926
10
24.0568730477
20
62.062640226
10
24.0343677591
20
62.1212169044
10
24.0121589719
20
62.1796030678
10
23.9902927441
20
62.2376818233
10
23.9688151333
20
62.2953362776
10
23.9477721976
20
62.3524495376
10
23.9272099949
20
62.4089047101
10
23.9071745829
20
62.464584902
10
23.8877120195
20
62.51937322
10
23.8688683627
20
62.5731527712
10
23.8506896702
20
62.6258066622
10
23.833222
20
62.677218
10
23.8158591213
20
62.7284094076
10
23.797991054
20
62.7804113007
10
23.7796591025
20
62.8331184745
10
23.7609045715
20
62.8864257247
10
23.7417687655
20
62.9402278468
10
23.722292989
20
62.9944196361
10
23.7025185465
20
63.0488958881
10
23.6824867428
20
63.1035513984
10
23.6622388822
20
63.1582809624
10
23.6418162694
20
63.2129793756
10
23.6212602089
20
63.2675414334
10
23.6006120053
20
63.3218619314
10
23.5799129631
20
63.375835665
10
23.5592043869
20
63.4293574296
10
23.5385275812
20
63.4823220208
10
23.5179238506
20
63.5346242341
10
23.4974344997
20
63.5861588649
10
23.4771008329
20
63.6368207086
10
23.4569641549
20
63.6865045608
10
23.4370657703
20
63.7351052169
10
23.4174469835
20
63.7825174725
10
23.3981490991
20
63.8286361229
10
23.3792134216
20
63.8733559637
10
23.3606812557
20
63.9165717903
10
23.3425939059
20
63.9581783983
10
23.3249926768
20
63.998070583
10
23.3079188728
20
64.03614314
10
23.2914137986
20
64.0722908647
10
23.2755187587
20
64.1064085526
10
23.2602750576
20
64.1383909992
10
23.245724
20
64.168133
10
23.2099544021
20
64.2427323453
10
23.171612062
20
64.32747104
10
23.1308916922
20
64.4217573307
10
23.0879880051
20
64.5249994637
10
23.0430957133
20
64.6366056855
10
22.9964095292
20
64.7559842427
10
22.9481241654
20
64.8825433815
10
22.8984343343
20
65.0156913485
10
22.8475347484
20
65.1548363901
10
22.7956201203
20
65.2993867528
10
22.7428851624
20
65.448750683
10
22.6895245873
20
65.6023364272
10
22.6357331074
20
65.7595522318
10
22.5817054352
20
65.9198063433
10
22.5276362832
20
66.0825070081
10
22.473720364
20
66.2470624727
10
22.42015239
20
66.4128809835
10
22.3671270737
20
66.5793707869
10
22.3148391276
20
66.7459401295
10
22.2634832642
20
66.9119972577
10
22.213254196
20
67.0769504178
10
22.1643466356
20
67.2402078565
10
22.1169552953
20
67.4011778201
10
22.0712748877
20
67.559268555
10
22.0275001253
20
67.7138883078
10
21.9858257207
20
67.8644453249
10
21.9464463862
20
68.0103478526
10
21.9095568343
20
68.1510041376
10
21.8753517777
20
68.2858224262
10
21.8440259288
20
68.4142109648
10
21.815774
20
68.535578
10
21.7843299961
20
68.6769540164
10
21.7537547576
20
68.8196850949
10
21.7240236056
20
68.9639877148
10
21.6951118611
20
69.1100783554
10
21.6669948452
20
69.2581734961
10
21.639647879
20
69.4084896163
10
21.6130462836
20
69.5612431952
10
21.5871653799
20
69.7166507122
10
21.5619804892
20
69.8749286466
10
21.5374669324
20
70.0362934778
10
21.5136000307
20
70.2009616852
10
21.490355105
20
70.369149748
10
21.4677074766
20
70.5410741456
10
21.4456324663
20
70.7169513573
10
21.4241053954
20
70.8969978625
10
21.4031015848
20
71.0814301406
10
21.3825963557
20
71.2704646708
10
21.3625650292
20
71.4643179325
10
21.3429829262
20
71.663206405
10
21.3238253679
20
71.8673465677
10
21.3050676753
20
72.0769548999
10
21.2866851695
20
72.292247881
10
21.2686531716
20
72.5134419902
10
21.2509470026
20
72.740753707
10
21.2335419836
20
72.9743995107
10
21.2164134357
20
73.2145958806
10
21.19953668
20
73.461559296
10
21.1828870375
20
73.7155062363
10
21.1664398293
20
73.9766531809
10
21.1501703764
20
74.245216609
10
21.134054
20
74.521413
10
21.1165676267
20
74.8224454758
10
21.0994602225
20
75.1054105794
10
21.0824198451
20
75.3710901479
10
21.065134552
20
75.6202660182
10
21.0472924009
20
75.8537200273
10
21.0285814493
20
76.0722340123
10
21.0086897549
20
76.27658981
10
20.9873053752
20
76.4675692577
10
20.964116368
20
76.6459541921
10
20.9388107906
20
76.8125264504
10
20.9110767009
20
76.9680678695
10
20.8806021563
20
77.1133602864
10
20.8470752145
20
77.2491855381
10
20.810183933
20
77.3763254616
10
20.7696163695
20
77.495561894
10
20.7250605816
20
77.6076766721
10
20.6762046268
20
77.7134516331
10
20.6227365629
20
77.8136686138
10
20.5643444472
20
77.9091094514
10
20.5007163376
20
78.0005559828
10
20.4315402916
20
78.0887900449
10
20.3565043667
20
78.1745934749
10
20.2752966206
20
78.2587481097
10
20.1876051109
20
78.3420357862
10
20.0931178951
20
78.4252383415
10
19.991523031
20
78.5091376127
10
19.882508576
20
78.5945154366
10
19.7657625878
20
78.6821536503
10
19.640973124
20
78.7728340907
10
19.5078282422
20
78.867338595
10
19.366016
20
78.966449
10
18.251985
20
79.736848
10
18.351749
20
80.340973
10
18.3672694054
20
80.431870865
10
18.3829334086
20
80.5172926049
10
18.3988299643
20
80.5972863401
10
18.4150480272
20
80.671900191
10
18.4316765521
20
80.7411822781
10
18.4488044937
20
80.8051807219
10
18.4665208066
20
80.8639436426
10
18.4849144457
20
80.9175191609
10
18.5040743655
20
80.9659553971
10
18.524089521
20
81.0093004717
10
18.5450488666
20
81.0476025051
10
18.5670413573
20
81.0809096178
10
18.5901559476
20
81.1092699301
10
18.6144815924
20
81.1327315626
10
18.6401072463
20
81.1513426356
10
18.667121864
20
81.1651512697
10
18.6956144003
20
81.1742055852
10
18.7256738099
20
81.1785537026
10
18.7573890475
20
81.1782437423
10
18.7908490678
20
81.1733238247
10
18.8261428256
20
81.1638420704
10
18.8633592755
20
81.1498465997
10
18.9025873722
20
81.1313855331
10
18.9439160706
20
81.1085069911
10
18.9874343253
20
81.081259094
10
19.033231091
20
81.0496899622
10
19.0813953224
20
81.0138477164
10
19.1320159743
20
80.9737804768
10
19.1851820014
20
80.9295363639
10
19.2409823584
20
80.8811634981
10
19.299506
20
80.82871
10
19.3267808764
20
80.8040376042
10
19.3526439873
20
80.7809041466
10
19.3771149262
20
80.759303319
10
19.4002132866
20
80.7392288129
10
19.421958662
20
80.7206743201
10
19.442370646
20
80.7036335321
10
19.4614688319
20
80.6881001407
10
19.4792728133
20
80.6740678375
10
19.4958021838
20
80.6615303141
10
19.5110765367
20
80.6504812621
10
19.5251154657
20
80.6409143733
10
19.5379385642
20
80.6328233393
10
19.5495654257
20
80.6262018518
10
19.5600156437
20
80.6210436023
10
19.5693088118
20
80.6173422826
10
19.5774645233
20
80.6150915842
10
19.5845023719
20
80.614285199
10
19.590441951
20
80.6149168184
10
19.5953028541
20
80.6169801341
10
19.5991046748
20
80.6204688379
10
19.6018670064
20
80.6253766213
10
19.6036094427
20
80.6316971761
10
19.6043515769
20
80.6394241937
10
19.6041130027
20
80.6485513661
10
19.6029133135
20
80.6590723846
10
19.6007721028
20
80.6709809411
10
19.5977089642
20
80.6842707271
10
19.5937434911
20
80.6989354344
10
19.588895277
20
80.7149687545
10
19.5831839155
20
80.7323643792
10
19.576629
20
80.751116
10
19.5639117696
20
80.7893346064
10
19.5539272772
20
80.8253872489
10
19.5466210955
20
80.8592627751
10
19.5419387972
20
80.8909500328
10
19.5398259548
20
80.9204378697
10
19.5402281409
20
80.9477151334
10
19.5430909283
20
80.9727706717
10
19.5483598895
20
80.9955933323
10
19.5559805971
20
81.0161719629
10
19.5658986237
20
81.0344954112
10
19.578059542
20
81.0505525249
10
19.5924089247
20
81.0643321517
10
19.6088923442
20
81.0758231393
10
19.6274553733
20
81.0850143355
10
19.6480435846
20
81.0918945878
10
19.6706025507
20
81.0964527441
10
19.6950778441
20
81.098677652
10
19.7214150377
20
81.0985581593
10
19.7495597038
20
81.0960831136
10
19.7794574153
20
81.0912413627
10
19.8110537447
20
81.0840217542
10
19.8442942645
20
81.0744131359
10
19.8791245476
20
81.0624043555
10
19.9154901664
20
81.0479842606
10
19.9533366936
20
81.031141699
10
19.9926097018
20
81.0118655184
10
20.0332547637
20
80.9901445665
10
20.0752174518
20
80.965967691
10
20.1184433388
20
80.9393237397
10
20.1628779973
20
80.9102015601
10
20.208467
20
80.87859
10
20.2316130884
20
80.8621753074
10
20.2546405187
20
80.8459756434
10
20.2775129097
20
80.8300129192
10
20.3001938802
20
80.8143090456
10
20.3226470488
20
80.7988859338
10
20.3448360344
20
80.7837654949
10
20.3667244556
20
80.7689696398
10
20.3882759313
20
80.7545202796
10
20.4094540801
20
80.7404393254
10
20.4302225208
20
80.7267486882
10
20.4505448721
20
80.713470279
10
20.4703847529
20
80.700626009
10
20.4897057817
20
80.6882377891
10
20.5084715775
20
80.6763275304
10
20.5266457589
20
80.6649171439
10
20.5441919446
20
80.6540285408
10
20.5610737534
20
80.6436836319
10
20.5772548041
20
80.6339043285
10
20.5926987154
20
80.6247125415
10
20.607369106
20
80.6161301819
10
20.6212295947
20
80.6081791609
10
20.6342438002
20
80.6008813895
10
20.6463753413
20
80.5942587787
10
20.6575878368
20
80.5883332395
10
20.6678449052
20
80.5831266831
10
20.6771101655
20
80.5786610204
10
20.6853472363
20
80.5749581625
10
20.6925197365
20
80.5720400205
10
20.6985912846
20
80.5699285054
10
20.7035254995
20
80.5686455282
10
20.707286
20
80.568213
10
20.7103264463
20
80.5689795202
10
20.7131457224
20
80.5712530073
10
20.7157445082
20
80.5749943512
10
20.7181234837
20
80.580164442
10
20.7202833287
20
80.5867241695
10
20.7222247233
20
80.5946344237
10
20.7239483474
20
80.6038560944
10
20.7254548808
20
80.6143500717
10
20.7267450036
20
80.6260772455
10
20.7278193957
20
80.6389985057
10
20.7286787369
20
80.6530747422
10
20.7293237074
20
80.668266845
10
20.7297549869
20
80.684535704
10
20.7299732554
20
80.7018422091
10
20.7299791929
20
80.7201472503
10
20.7297734793
20
80.7394117175
10
20.7293567945
20
80.7595965006
10
20.7287298185
20
80.7806624896
10
20.7278932312
20
80.8025705744
10
20.7268477126
20
80.8252816449
10
20.7255939425
20
80.8487565911
10
20.724132601
20
80.8729563029
10
20.7224643679
20
80.8978416702
10
20.7205899232
20
80.923373583
10
20.7185099468
20
80.9495129312
10
20.7162251187
20
80.9762206047
10
20.7137361188
20
81.0034574935
10
20.7110436271
20
81.0311844875
10
20.7081483234
20
81.0593624766
10
20.7050508877
20
81.0879523508
10
20.701752
20
81.116915
10
20.6959270398
20
81.1670995094
10
20.6905960916
20
81.2140928399
10
20.6858296025
20
81.2579788886
10
20.6816980193
20
81.2988415526
10
20.678271789
20
81.3367647289
10
20.6756213587
20
81.3718323148
10
20.6738171754
20
81.4041282071
10
20.6729296859
20
81.4337363031
10
20.6730293373
20
81.4607404997
10
20.6741865765
20
81.4852246942
10
20.6764718507
20
81.5072727835
10
20.6799556066
20
81.5269686648
10
20.6847082913
20
81.5443962351
10
20.6908003519
20
81.5596393915
10
20.6983022351
20
81.5727820312
10
20.7072843882
20
81.5839080511
10
20.7178172579
20
81.5931013483
10
20.7299712914
20
81.60044582
10
20.7438169356
20
81.6060253633
10
20.7594246374
20
81.6099238752
10
20.7768648438
20
81.6122252527
10
20.7962080019
20
81.6130133931
10
20.8175245587
20
81.6123721933
10
20.840884961
20
81.6103855504
10
20.8663596558
20
81.6071373616
10
20.8940190903
20
81.6027115239
10
20.9239337112
20
81.5971919344
10
20.9561739657
20
81.5906624902
10
20.9908103007
20
81.5832070883
10
21.0279131631
20
81.5749096259
10
21.067553
20
81.565854
10
21.499864
20
81.466089
10
21.012129
20
81.915028
10
20.9862756253
20
81.9390790902
10
20.9607678715
20
81.9630703972
10
20.9356397776
20
81.986963072
10
20.9109253828
20
82.0107182658
10
20.8866587263
20
82.0342971298
10
20.8628738471
20
82.0576608151
10
20.8396047845
20
82.0807704729
10
20.8168855775
20
82.1035872543
10
20.7947502653
20
82.1260723105
10
20.7732328871
20
82.1481867926
10
20.7523674819
20
82.1698918518
10
20.732188089
20
82.1911486393
10
20.7127287474
20
82.2119183061
10
20.6940234963
20
82.2321620035
10
20.6761063749
20
82.2518408826
10
20.6590114222
20
82.2709160945
10
20.6427726775
20
82.2893487905
10
20.6274241798
20
82.3071001216
10
20.6129999682
20
82.324131239
10
20.5995340821
20
82.3404032939
10
20.5870605604
20
82.3558774374
10
20.5756134423
20
82.3705148207
10
20.5652267669
20
82.3842765948
10
20.5559345735
20
82.3971239111
10
20.5477709011
20
82.4090179206
10
20.5407697888
20
82.4199197745
10
20.5349652759
20
82.4297906239
10
20.5303914014
20
82.43859162
10
20.5270822045
20
82.446283914
10
20.5250717243
20
82.4528286569
10
20.524394
20
82.458187
10
20.52572758
20
82.4627746127
10
20.5296835433
20
82.4670328483
10
20.5361947247
20
82.4709616742
10
20.5451939592
20
82.4745610578
10
20.5566140816
20
82.4778309665
10
20.5703879268
20
82.4807713676
10
20.5864483296
20
82.4833822285
10
20.6047281251
20
82.4856635165
10
20.625160148
20
82.4876151992
10
20.6476772332
20
82.4892372437
10
20.6722122156
20
82.4905296175
10
20.6986979302
20
82.491492288
10
20.7270672117
20
82.4921252226
10
20.7572528951
20
82.4924283885
10
20.7891878152
20
82.4924017533
10
20.822804807
20
82.4920452842
10
20.8580367053
20
82.4913589486
10
20.894816345
20
82.4903427139
10
20.933076561
20
82.4889965475
10
20.9727501881
20
82.4873204168
10
21.0137700613
20
82.4853142891
10
21.0560690154
20
82.4829781318
10
21.0995798853
20
82.4803119122
10
21.144235506
20
82.4773155978
10
21.1899687122
20
82.4739891559
10
21.2367123388
20
82.4703325538
10
21.2843992208
20
82.4663457591
10
21.3329621931
20
82.4620287389
10
21.3823340904
20
82.4573814608
10
21.4324477478
20
82.452403892
10
21.483236
20
82.447096
10
21.5344804042
20
82.4418019874
10
21.5859470672
20
82.4368579594
10
21.6375456485
20
82.4322642211
10
21.6891858074
20
82.4280210778
10
21.7407772034
20
82.4241288344
10
21.7922294959
20
82.4205877962
10
21.8434523443
20
82.4173982682
10
21.8943554081
20
82.4145605556
10
21.9448483467
20
82.4120749635
10
21.9948408196
20
82.4099417971
10
22.0442424861
20
82.4081613614
10
22.0929630056
20
82.4067339615
10
22.1409120377
20
82.4056599027
10
22.1879992417
20
82.40493949
10
22.234134277
20
82.4045730286
10
22.2792268031
20
82.4045608236
10
22.3231864795
20
82.4049031801
10
22.3659229655
20
82.4056004032
10
22.4073459205
20
82.4066527981
10
22.4473650041
20
82.4080606699
10
22.4858898755
20
82.4098243237
10
22.5228301944
20
82.4119440646
10
22.55809562
20
82.4144201978
10
22.5915958118
20
82.4172530284
10
22.6232404292
20
82.4204428615
10
22.6529391317
20
82.4239900022
10
22.6806015787
20
82.4278947557
10
22.7061374296
20
82.4321574271
10
22.7294563438
20
82.4367783216
10
22.7504679808
20
82.4417577442
10
22.769082
20
82.447096
10
22.7970012767
20
82.4561605208
10
22.8228157016
20
82.465038651
10
22.8464653927
20
82.473822791
10
22.8678904681
20
82.4826053412
10
22.8870310457
20
82.4914787018
10
22.9038272436
20
82.5005352732
10
22.9182191798
20
82.5098674557
10
22.9301469724
20
82.5195676496
10
22.9395507393
20
82.5297282552
10
22.9463705986
20
82.5404416729
10
22.9505466683
20
82.5518003029
10
22.9520190664
20
82.5638965457
10
22.9507279109
20
82.5768228015
10
22.9466133199
20
82.5906714706
10
22.9396154114
20
82.6055349534
10
22.9296743034
20
82.6215056502
10
22.916730114
20
82.6386759613
10
22.9007229611
20
82.657138287
10
22.8815929628
20
82.6769850277
10
22.8592802371
20
82.6983085837
10
22.833724902
20
82.7212013552
10
22.8048670755
20
82.7457557427
10
22.7726468757
20
82.7720641465
10
22.7370044206
20
82.8002189668
10
22.6978798282
20
82.830312604
10
22.6552132165
20
82.8624374584
10
22.6089447036
20
82.8966859304
10
22.5590144075
20
82.9331504202
10
22.5053624462
20
82.9719233282
10
22.4479289377
20
83.0130970547
10
22.386654
20
83.056764
10
22.2697330613
20
83.1409790598
10
22.1607244797
20
83.2217954255
10
22.0596333491
20
83.2992896827
10
21.9664647635
20
83.3735384172
10
21.8812238167
20
83.4446182149
10
21.8039156026
20
83.5126056613
10
21.7345452151
20
83.5775773423
10
21.6731177481
20
83.6396098436
10
21.6196382955
20
83.698779751
10
21.5741119511
20
83.7551636502
10
21.5365438088
20
83.808838127
10
21.5069389626
20
83.859879767
10
21.4853025063
20
83.9083651562
10
21.4716395338
20
83.9543708801
10
21.4659551389
20
83.9979735245
10
21.4682544157
20
84.0392496753
10
21.4785424579
20
84.0782759181
10
21.4968243595
20
84.1151288386
10
21.5231052143
20
84.1498850228
10
21.5573901163
20
84.1826210562
10
21.5996841592
20
84.2134135246
10
21.6499924371
20
84.2423390138
10
21.7083200438
20
84.2694741095
10
21.7746720731
20
84.2948953975
10
21.849053619
20
84.3186794636
10
21.9314697754
20
84.3409028934
10
22.0219256361
20
84.3616422727
10
22.120426295
20
84.3809741872
10
22.226976846
20
84.3989752228
10
22.3415823831
20
84.4157219652
10
22.464248
20
84.431291
10
22.5359534359
20
84.4405260136
10
22.6031733996
20
84.4506629693
10
22.6658921816
20
84.4616213202
10
22.7240940726
20
84.4733205194
10
22.777763363
20
84.4856800198
10
22.8268843435
20
84.4986192746
10
22.8714413046
20
84.5120577369
10
22.9114185369
20
84.5259148596
10
22.9468003308
20
84.5401100958
10
22.9775709771
20
84.5545628986
10
23.0037147661
20
84.569192721
10
23.0252159886
20
84.5839190161
10
23.042058935
20
84.598661237
10
23.0542278959
20
84.6133388367
10
23.0617071618
20
84.6278712682
10
23.0644810234
20
84.6421779847
10
23.0625337711
20
84.6561784391
10
23.0558496956
20
84.6697920846
10
23.0444130874
20
84.6829383741
10
23.028208237
20
84.6955367608
10
23.007219435
20
84.7075066977
10
22.981430972
20
84.7187676378
10
22.9508271385
20
84.7292390343
10
22.915392225
20
84.7388403401
10
22.8751105222
20
84.7474910084
10
22.8299663206
20
84.7551104921
10
22.7799439108
20
84.7616182444
10
22.7250275832
20
84.7669337183
10
22.6652016285
20
84.7709763668
10
22.6004503373
20
84.773665643
10
22.530758
20
84.774921
10
22.4847652742
20
84.777598273
10
22.4382453508
20
84.7848987077
10
22.3912900624
20
84.7967004209
10
22.3439912414
20
84.8128815294
10
22.2964407206
20
84.8333201502
10
22.2487303324
20
84.8578944002
10
22.2009519095
20
84.8864823962
10
22.1531972843
20
84.9189622551
10
22.1055582896
20
84.9552120939
10
22.0581267577
20
84.9951100292
10
22.0109945213
20
85.0385341782
10
21.964253413
20
85.0853626575
10
21.9179952653
20
85.1354735842
10
21.8723119108
20
85.1887450751
10
21.827295182
20
85.2450552471
10
21.7830369116
20
85.304282217
10
21.7396289321
20
85.3663041018
10
21.697163076
20
85.4309990183
10
21.655731176
20
85.4982450833
10
21.6154250645
20
85.5679204139
10
21.5763365743
20
85.6399031269
10
21.5385575377
20
85.714071339
10
21.5021797875
20
85.7903031673
10
21.4672951561
20
85.8684767286
10
21.4339954761
20
85.9484701398
10
21.4023725801
20
86.0301615178
10
21.3725183007
20
86.1134289794
10
21.3445244704
20
86.1981506416
10
21.3184829218
20
86.2842046211
10
21.2944854875
20
86.371469035
10
21.272624
20
86.459822
10
21.2623710452
20
86.5029361881
10
21.2514919083
20
86.5472279734
10
21.2400185027
20
86.5925963161
10
21.2279827419
20
86.6389401765
10
21.2154165395
20
86.6861585149
10
21.2023518091
20
86.7341502916
10
21.1888204641
20
86.7828144668
10
21.174854418
20
86.8320500009
10
21.1604855845
20
86.8817558542
10
21.1457458771
20
86.9318309869
10
21.1306672092
20
86.9821743594
10
21.1152814944
20
87.0326849319
10
21.0996206463
20
87.0832616647
10
21.0837165783
20
87.1338035181
10
21.067601204
20
87.1842094524
10
21.051306437
20
87.2343784279
10
21.0348641907
20
87.2842094049
10
21.0183063787
20
87.3336013436
10
21.0016649145
20
87.3824532044
10
20.9849717117
20
87.4306639476
10
20.9682586838
20
87.4781325333
10
20.9515577443
20
87.5247579221
10
20.9349008067
20
87.570439074
10
20.9183197846
20
87.6150749494
10
20.9018465916
20
87.6585645086
10
20.885513141
20
87.700806712
10
20.8693513465
20
87.7417005197
10
20.8533931217
20
87.781144892
10
20.8376703799
20
87.8190387893
10
20.8222150349
20
87.8552811719
10
20.807059
20
87.889771
10
20.7921531387
20
87.9235929694
10
20.7774374371
20
87.9578537413
10
20.7629321384
20
87.9924855149
10
20.7486574854
20
88.0274204892
10
20.7346337214
20
88.0625908632
10
20.7208810892
20
88.0979288361
10
20.707419832
20
88.1333666068
10
20.6942701926
20
88.1688363744
10
20.6814524143
20
88.204270338
10
20.6689867399
20
88.2396006966
10
20.6568934126
20
88.2747596492
10
20.6451926753
20
88.309679395
10
20.633904771
20
88.344292133
10
20.6230499429
20
88.3785300622
10
20.6126484339
20
88.4123253817
10
20.602720487
20
88.4456102905
10
20.5932863453
20
88.4783169877
10
20.5843662519
20
88.5103776724
10
20.5759804496
20
88.5417245436
10
20.5681491816
20
88.5722898003
10
20.5608926909
20
88.6020056416
10
20.5542312205
20
88.6308042666
10
20.5481850134
20
88.6586178743
10
20.5427743127
20
88.6853786638
10
20.5380193614
20
88.7110188341
10
20.5339404024
20
88.7354705842
10
20.530557679
20
88.7586661133
10
20.527891434
20
88.7805376204
10
20.5259619104
20
88.8010173045
10
20.5247893514
20
88.8200373647
10
20.524394
20
88.83753
10
20.5237845853
20
88.8557508445
10
20.5219768469
20
88.8769313097
10
20.5190015433
20
88.9009675512
10
20.5148894328
20
88.9277557244
10
20.5096712742
20
88.957191985
10
20.5033778257
20
88.9891724885
10
20.496039846
20
89.0235933904
10
20.4876880934
20
89.0603508463
10
20.4783533265
20
89.0993410117
10
20.4680663037
20
89.1404600423
10
20.4568577836
20
89.1836040935
10
20.4447585246
20
89.2286693209
10
20.4317992852
20
89.27555188
10
20.4180108239
20
89.3241479264
10
20.4034238991
20
89.3743536157
10
20.3880692694
20
89.4260651034
10
20.3719776933
20
89.479178545
10
20.3551799292
20
89.5335900961
10
20.3377067356
20
89.5891959122
10
20.3195888709
20
89.645892149
10
20.3008570938
20
89.7035749619
10
20.2815421626
20
89.7621405065
10
20.2616748359
20
89.8214849383
10
20.241285872
20
89.8815044129
10
20.2204060296
20
89.9420950859
10
20.1990660671
20
90.0031531128
10
20.177296743
20
90.0645746492
10
20.1551288157
20
90.1262558505
10
20.1325930438
20
90.1880928724
10
20.1097201858
20
90.2499818704
10
20.086541
20
90.311819
10
20.063220452
20
90.3736883199
10
20.0399250737
20
90.4356735776
10
20.0166934897
20
90.4976690109
10
19.9935643244
20
90.5595688572
10
19.9705762022
20
90.6212673542
10
19.9477677478
20
90.6826587395
10
19.9251775855
20
90.7436372505
10
19.9028443399
20
90.8040971251
10
19.8808066355
20
90.8639326006
10
19.8591030966
20
90.9230379148
10
19.8377723479
20
90.9813073051
10
19.8168530137
20
91.0386350093
10
19.7963837186
20
91.0949152648
10
19.7764030871
20
91.1500423093
10
19.7569497436
20
91.2039103803
10
19.7380623126
20
91.2564137155
10
19.7197794186
20
91.3074465523
10
19.7021396862
20
91.3569031286
10
19.6851817397
20
91.4046776817
10
19.6689442037
20
91.4506644493
10
19.6534657026
20
91.494757669
10
19.6387848609
20
91.5368515784
10
19.6249403031
20
91.576840415
10
19.6119706538
20
91.6146184165
10
19.5999145373
20
91.6500798204
10
19.5888105782
20
91.6831188643
10
19.5786974009
20
91.7136297859
10
19.56961363
20
91.7415068226
10
19.5615978899
20
91.7666442122
10
19.554688805
20
91.7889361921
10
19.548925
20
91.808277
10
19.543057346
20
91.8268584705
10
19.5358365358
20
91.8468981421
10
19.527306152
20
91.868329098
10
19.5175097773
20
91.8910844218
10
19.5064909943
20
91.9150971969
10
19.4942933856
20
91.9403005066
10
19.4809605338
20
91.9666274343
10
19.4665360216
20
91.9940110636
10
19.4510634316
20
92.0223844777
10
19.4345863464
20
92.0516807602
10
19.4171483486
20
92.0818329944
10
19.3987930209
20
92.1127742637
10
19.379563946
20
92.1444376516
10
19.3595047063
20
92.1767562415
10
19.3386588846
20
92.2096631168
10
19.3170700634
20
92.2430913608
10
19.2947818255
20
92.2769740571
10
19.2718377533
20
92.311244289
10
19.2482814296
20
92.34583514
10
19.224156437
20
92.3806796934
10
19.1995063581
20
92.4157110327
10
19.1743747755
20
92.4508622413
10
19.1488052719
20
92.4860664026
10
19.1228414298
20
92.5212566
10
19.0965268319
20
92.556365917
10
19.0699050609
20
92.5913274368
10
19.0430196993
20
92.6260742431
10
19.0159143298
20
92.6605394191
10
18.988632535
20
92.6946560483
10
18.9612178975
20
92.7283572142
10
18.933714
20
92.761576
10
18.8795926414
20
92.827329823
10
18.8287173539
20
92.8912681987
10
18.7810577715
20
92.9536100359
10
18.7365835284
20
93.0145742432
10
18.6952642585
20
93.0743797293
10
18.6570695959
20
93.1332454028
10
18.6219691746
20
93.1913901725
10
18.5899326287
20
93.2490329469
10
18.5609295923
20
93.3063926347
10
18.5349296994
20
93.3636881446
10
18.511902584
20
93.4211383853
10
18.4918178802
20
93.4789622654
10
18.4746452221
20
93.5373786936
10
18.4603542437
20
93.5966065785
10
18.448914579
20
93.6568648288
10
18.4402958622
20
93.7183723533
10
18.4344677272
20
93.7813480604
10
18.4313998081
20
93.846010859
10
18.4310617389
20
93.9125796576
10
18.4334231538
20
93.981273365
10
18.4384536867
20
94.0523108897
10
18.4461229717
20
94.1259111405
10
18.4564006429
20
94.2022930261
10
18.4692563343
20
94.281675455
10
18.4846596799
20
94.364277336
10
18.5025803139
20
94.4503175777
10
18.5229878702
20
94.5400150887
10
18.5458519829
20
94.6335887778
10
18.5711422861
20
94.7312575536
10
18.5988284137
20
94.8332403248
10
18.62888
20
94.939756
10
18.640400308
20
94.9805558279
10
18.6522927531
20
95.02391972
10
18.6645281656
20
95.0697165791
10
18.6770773756
20
95.1178153082
10
18.6899112133
20
95.1680848102
10
18.7030005089
20
95.2203939879
10
18.7163160925
20
95.2746117443
10
18.7298287945
20
95.3306069821
10
18.7435094448
20
95.3882486044
10
18.7573288738
20
95.4474055139
10
18.7712579116
20
95.5079466137
10
18.7852673884
20
95.5697408066
10
18.7993281344
20
95.6326569954
10
18.8134109797
20
95.696564083
10
18.8274867546
20
95.7613309725
10
18.8415262891
20
95.8268265665
10
18.8555004136
20
95.8929197682
10
18.8693799582
20
95.9594794802
10
18.8831357531
20
96.0263746055
10
18.8967386284
20
96.0934740471
10
18.9101594144
20
96.1606467077
10
18.9233689412
20
96.2277614903
10
18.936338039
20
96.2946872978
10
18.949037538
20
96.3612930331
10
18.9614382684
20
96.427447599
10
18.9735110604
20
96.4930198984
10
18.9852267441
20
96.5578788343
10
18.9965561497
20
96.6218933095
10
19.0074701074
20
96.6849322269
10
19.0179394475
20
96.7468644895
10
19.027935
20
96.807559
10
19.0492939632
20
96.9365539564
10
19.0709135964
20
97.0620076582
10
19.0928230795
20
97.1840059352
10
19.1150515924
20
97.3026346172
10
19.1376283149
20
97.4179795339
10
19.160582427
20
97.530126515
10
19.1839431085
20
97.6391613904
10
19.2077395394
20
97.7451699896
10
19.2320008994
20
97.8482381426
10
19.2567563685
20
97.948451679
10
19.2820351266
20
98.0458964286
10
19.3078663536
20
98.1406582211
10
19.3342792294
20
98.2328228863
10
19.3613029337
20
98.3224762539
10
19.3889666466
20
98.4097041537
10
19.417299548
20
98.4945924155
10
19.4463308176
20
98.5772268689
10
19.4760896354
20
98.6576933437
10
19.5066051812
20
98.7360776696
10
19.5379066351
20
98.8124656765
10
19.5700231767
20
98.8869431941
10
19.6029839861
20
98.959596052
10
19.6368182432
20
99.0305100801
10
19.6715551277
20
99.0997711081
10
19.7072238196
20
99.1674649657
10
19.7438534988
20
99.2336774828
10
19.7814733452
20
99.2984944889
10
19.8201125386
20
99.362001814
10
19.8598002589
20
99.4242852877
10
19.9005656861
20
99.4854307398
10
19.942438
20
99.545524
10
20.269442
20
100.000003
10
20.269432
20
99.999992
10
19.753985
20
99.889143
10
19.6993179026
20
99.8766103767
10
19.6424047595
20
99.8621683614
10
19.5833900849
20
99.8458838968
10
19.522418393
20
99.8278239262
10
19.4596341981
20
99.8080553923
10
19.3951820142
20
99.7866452383
10
19.3292063556
20
99.7636604069
10
19.2618517364
20
99.7391678413
10
19.1932626708
20
99.7132344844
10
19.1235836731
20
99.6859272791
10
19.0529592573
20
99.6573131685
10
18.9815339377
20
99.6274590955
10
18.9094522285
20
99.596432003
10
18.8368586438
20
99.564298834
10
18.7638976978
20
99.5311265316
10
18.6907139047
20
99.4969820386
10
18.6174517787
20
99.4619322981
10
18.5442558339
20
99.426044253
10
18.4712705846
20
99.3893848463
10
18.398640545
20
99.3520210209
10
18.3265102291
20
99.3140197198
10
18.2550241512
20
99.275447886
10
18.1843268255
20
99.2363724625
10
18.1145627662
20
99.1968603922
10
18.0458764874
20
99.1569786181
10
17.9784125033
20
99.1167940832
10
17.9123153281
20
99.0763737304
10
17.847729476
20
99.0357845027
10
17.7847994611
20
98.9950933431
10
17.7236697978
20
98.9543671946
10
17.664485
20
98.913673
10
17.6436518059
20
98.8996208523
10
17.6212241136
20
98.8854565781
10
17.5972762736
20
98.8712060757
10
17.5718826369
20
98.8568952436
10
17.5451175541
20
98.8425499803
10
17.5170553762
20
98.8281961841
10
17.4877704537
20
98.8138597535
10
17.4573371376
20
98.7995665869
10
17.4258297786
20
98.7853425828
10
17.3933227275
20
98.7712136395
10
17.359890335
20
98.7572056554
10
17.325606952
20
98.7433445291
10
17.2905469292
20
98.7296561589
10
17.2547846173
20
98.7161664433
10
17.2183943673
20
98.7029012807
10
17.1814505297
20
98.6898865695
10
17.1440274555
20
98.6771482081
10
17.1061994954
20
98.664712095
10
17.0680410001
20
98.6526041285
10
17.0296263205
20
98.6408502072
10
16.9910298074
20
98.6294762294
10
16.9523258114
20
98.6185080936
10
16.9135886834
20
98.6079716982
10
16.8748927742
20
98.5978929416
10
16.8363124345
20
98.5882977222
10
16.7979220151
20
98.5792119385
10
16.7597958668
20
98.5706614889
10
16.7220083403
20
98.5626722719
10
16.6846337865
20
98.5552701857
10
16.6477465562
20
98.548481129
10
16.611421
20
98.542331
10
16.4636668147
20
98.5142979105
10
16.311831886
20
98.4775462466
10
16.1565213645
20
98.4325362539
10
15.9983404005
20
98.3797281779
10
15.8378941446
20
98.3195822643
10
15.6757877472
20
98.2525587586
10
15.5126263589
20
98.1791179063
10
15.34901513
20
98.0997199532
10
15.1855592112
20
98.0148251446
10
15.0228637528
20
97.9248937263
10
14.8615339054
20
97.8303859438
10
14.7021748195
20
97.7317620427
10
14.5453916454
20
97.6294822685
10
14.3917895338
20
97.5240068668
10
14.241973635
20
97.4157960832
10
14.0965490996
20
97.3053101634
10
13.9561210781
20
97.1930093528
10
13.8212947209
20
97.079353897
10
13.6926751784
20
96.9648040416
10
13.5708676013
20
96.8498200323
10
13.45647714
20
96.7348621145
10
13.3501089449
20
96.6203905338
10
13.2523681665
20
96.5068655359
10
13.1638599554
20
96.3947473663
10
13.085189462
20
96.2844962706
10
13.0169618367
20
96.1765724943
10
12.9597822301
20
96.071436283
10
12.9142557927
20
95.9695478824
10
12.8809876748
20
95.871367538
10
12.8605830271
20
95.7773554953
10
12.853647
20
95.687972
10
12.8526615208
20
95.6436625171
10
12.8497103675
20
95.602130416
10
12.8448014661
20
95.5633767015
10
12.837942743
20
95.5274023787
10
12.8291421244
20
95.4942084526
10
12.8184075364
20
95.4637959282
10
12.8057469053
20
95.4361658105
10
12.7911681574
20
95.4113191046
10
12.7746792188
20
95.3892568153
10
12.7562880157
20
95.3699799477
10
12.7360024745
20
95.3534895068
10
12.7138305212
20
95.3397864977
10
12.6897800821
20
95.3288719252
10
12.6638590835
20
95.3207467945
10
12.6360754515
20
95.3154121104
10
12.6064371125
20
95.3128688781
10
12.5749519924
20
95.3131181025
10
12.5416280178
20
95.3161607886
10
12.5064731146
20
95.3219979415
10
12.4694952092
20
95.330630566
10
12.4307022278
20
95.3420596673
10
12.3901020965
20
95.3562862503
10
12.3477027417
20
95.37331132
10
12.3035120895
20
95.3931358814
10
12.2575380661
20
95.4157609396
10
12.2097885978
20
95.4411874995
10
12.1602716108
20
95.4694165661
10
12.1089950313
20
95.5004491445
10
12.0559667855
20
95.5342862396
10
12.0011947997
20
95.5709288564
10
11.944687
20
95.610378
10
11.8532412189
20
95.6741966674
10
11.7607189923
20
95.7361597077
10
11.6670103181
20
95.7963025489
10
11.5720051942
20
95.8546606189
10
11.4755936184
20
95.9112693459
10
11.3776655886
20
95.9661641578
10
11.2781111026
20
96.0193804826
10
11.1768201583
20
96.0709537484
10
11.0736827535
20
96.1209193831
10
10.9685888861
20
96.1693128149
10
10.861428554
20
96.2161694716
10
10.7520917549
20
96.2615247814
10
10.6404684867
20
96.3054141722
10
10.5264487473
20
96.347873072
10
10.4099225346
20
96.3889369089
10
10.2907798463
20
96.4286411109
10
10.1689106804
20
96.4670211059
10
10.0442050346
20
96.5041123221
10
9.91655290695
20
96.5399501874
10
9.78584429516
20
96.5745701298
10
9.65196919711
20
96.6080075774
10
9.51481761065
20
96.6402979582
10
9.37427953365
20
96.6714767001
10
9.23024496395
20
96.7015792312
10
9.0826038994
20
96.7306409796
10
8.93124633785
20
96.7586973732
10
8.77606227716
20
96.78578384
10
8.61694171518
20
96.8119358081
10
8.45377464976
20
96.8371887054
10
8.28645107875
20
96.8615779601
10
8.114861
20
96.885139
10
8.01847477846
20
96.8981706604
10
7.92153898624
20
96.9116389388
10
7.8242265126
20
96.9255111357
10
7.72671024682
20
96.9397545518
10
7.62916307814
20
96.9543364877
10
7.53175789584
20
96.9692242439
10
7.43466758917
20
96.984385121
10
7.3380650474
20
96.9997864197
10
7.24212315978
20
97.0153954405
10
7.14701481558
20
97.031179484
10
7.05291290406
20
97.0471058509
10
6.95999031449
20
97.0631418417
10
6.86841993612
20
97.0792547569
10
6.77837465822
20
97.0954118973
10
6.69002737004
20
97.1115805634
10
6.60355096086
20
97.1277280558
10
6.51911831993
20
97.143821675
10
6.43690233651
20
97.1598287217
10
6.35707589987
20
97.1757164965
10
6.27981189926
20
97.1914523
10
6.20528322396
20
97.2070034327
10
6.13366276322
20
97.2223371953
10
6.0651234063
20
97.2374208883
10
5.99983804246
20
97.2522218124
10
5.93797956097
20
97.2667072681
10
5.8797208511
20
97.280844556
10
5.82523480209
20
97.2946009768
10
5.77469430321
20
97.307943831
10
5.72827224373
20
97.3208404192
10
5.68614151291
20
97.333258042
10
5.648475
20
97.345164
10
5.61322311587
20
97.3566352564
10
5.57825505706
20
97.3677644403
10
5.54362305263
20
97.3785423511
10
5.50937933164
20
97.3889597885
10
5.47557612316
20
97.3990075519
10
5.44226565624
20
97.4086764408
10
5.40950015995
20
97.4179572547
10
5.37733186335
20
97.4268407931
10
5.3458129955
20
97.4353178556
10
5.31499578547
20
97.4433792415
10
5.28493246232
20
97.4510157505
10
5.25567525511
20
97.458218182
10
5.2272763929
20
97.4649773355
10
5.19978810476
20
97.4712840106
10
5.17326261975
20
97.4771290067
10
5.14775216693
20
97.4825031234
10
5.12330897536
20
97.48739716
10
5.09998527411
20
97.4918019163
10
5.07783329224
20
97.4957081916
10
5.0569052588
20
97.4991067854
10
5.03725340287
20
97.5019884973
10
5.01892995351
20
97.5043441267
10
5.00198713977
20
97.5061644733
10
4.98647719073
20
97.5074403363
10
4.97245233544
20
97.5081625155
10
4.95996480296
20
97.5083218102
10
4.94906682236
20
97.50790902
10
4.9398106227
20
97.5069149444
10
4.93224843305
20
97.5053303828
10
4.92643248246
20
97.5031461349
10
4.922415
20
97.500353
10
4.91685566077
20
97.4836821719
10
4.91739820916
20
97.4517091033
10
4.92372472008
20
97.4053438536
10
4.93551726847
20
97.3454964821
10
4.95245792924
20
97.273077048
10
4.97422877732
20
97.1889956107
10
5.00051188762
20
97.0941622293
10
5.03098933507
20
96.9894869631
10
5.06534319459
20
96.8758798716
10
5.1032555411
20
96.7542510138
10
5.14440844953
20
96.6255104492
10
5.1884839948
20
96.490568237
10
5.23516425182
20
96.3503344364
10
5.28413129553
20
96.2057191067
10
5.33506720083
20
96.0576323073
10
5.38765404266
20
95.9069840974
10
5.44157389594
20
95.7546845363
10
5.49650883559
20
95.6016436833
10
5.55214093652
20
95.4487715976
10
5.60815227367
20
95.2969783385
10
5.66422492196
20
95.1471739654
10
5.7200409563
20
95.0002685374
10
5.77528245161
20
94.8571721139
10
5.82963148283
20
94.7187947541
10
5.88277012487
20
94.5860465173
10
5.93438045265
20
94.4598374629
10
5.9841445411
20
94.34107765
10
6.03174446514
20
94.230677138
10
6.07686229969
20
94.1295459862
10
6.11918011967
20
94.0385942537
10
6.15838
20
93.958732
10
6.19705607197
20
93.8833434633
10
6.2350551439
20
93.8111427383
10
6.27252453211
20
93.7419870564
10
6.30961155289
20
93.6757336487
10
6.34646352254
20
93.6122397463
10
6.38322775738
20
93.5513625804
10
6.4200515737
20
93.4929593823
10
6.45708228781
20
93.436887383
10
6.494467216
20
93.3830038138
10
6.5323536746
20
93.3311659059
10
6.57088897989
20
93.2812308903
10
6.61022044819
20
93.2330559984
10
6.65049539579
20
93.1864984612
10
6.691861139
20
93.14141551
10
6.73446499413
20
93.0976643759
10
6.77845427747
20
93.0551022901
10
6.82397630533
20
93.0135864838
10
6.87117839401
20
92.9729741881
10
6.92020785982
20
92.9331226343
10
6.97121201907
20
92.8938890535
10
7.02433818804
20
92.8551306768
10
7.07973368306
20
92.8167047356
10
7.13754582042
20
92.7784684609
10
7.19792191642
20
92.7402790839
10
7.26100928737
20
92.7019938358
10
7.32695524957
20
92.6634699478
10
7.39590711933
20
92.624564651
10
7.46801221295
20
92.5851351767
10
7.54341784673
20
92.5450387559
10
7.62227133698
20
92.50413262
10
7.70472
20
92.462274
10
7.73852651777
20
92.4451645624
10
7.77187863751
20
92.428063837
10
7.80473201527
20
92.4110001408
10
7.83704230714
20
92.3940017907
10
7.86876516918
20
92.3770971035
10
7.89985625746
20
92.360314396
10
7.93027122806
20
92.3436819853
10
7.95996573703
20
92.327228188
10
7.98889544047
20
92.3109813212
10
8.01701599443
20
92.2949697017
10
8.04428305498
20
92.2792216464
10
8.0706522782
20
92.2637654721
10
8.09607932016
20
92.2486294957
10
8.12051983693
20
92.233842034
10
8.14392948458
20
92.2194314041
10
8.16626391917
20
92.2054259227
10
8.18747879678
20
92.1918539066
10
8.20752977349
20
92.1787436729
10
8.22637250535
20
92.1661235384
10
8.24396264845
20
92.1540218198
10
8.26025585885
20
92.1424668342
10
8.27520779262
20
92.1314868983
10
8.28877410584
20
92.1211103291
10
8.30091045457
20
92.1113654435
10
8.31157249488
20
92.1022805582
10
8.32071588285
20
92.0938839902
10
8.32829627455
20
92.0862040564
10
8.33426932604
20
92.0792690735
10
8.3385906934
20
92.0731073586
10
8.34121603269
20
92.0677472285
10
8.342101
20
92.063217
10
8.34151841925
20
92.0580512872
10
8.33979068078
20
92.050805429
10
8.33694779021
20
92.0415391195
10
8.33301975318
20
92.0303120531
10
8.32803657534
20
92.0171839241
10
8.32202826233
20
92.0022144266
10
8.31502481978
20
91.985463255
10
8.30705625333
20
91.9669901036
10
8.29815256863
20
91.9468546665
10
8.28834377131
20
91.9251166381
10
8.27765986701
20
91.9018357127
10
8.26613086137
20
91.8770715845
10
8.25378676003
20
91.8508839478
10
8.24065756863
20
91.8233324969
10
8.22677329281
20
91.794476926
10
8.2121639382
20
91.7643769294
10
8.19685951046
20
91.7330922013
10
8.18089001521
20
91.7006824361
10
8.16428545809
20
91.6672073281
10
8.14707584475
20
91.6327265713
10
8.12929118083
20
91.5972998603
10
8.11096147195
20
91.5609868892
10
8.09211672378
20
91.5238473522
10
8.07278694193
20
91.4859409437
10
8.05300213205
20
91.447327358
10
8.03279229979
20
91.4080662892
10
8.01218745077
20
91.3682174318
10
7.99121759065
20
91.3278404798
10
7.96991272505
20
91.2869951277
10
7.94830285962
20
91.2457410697
10
7.926418
20
91.204138
10
7.88841287661
20
91.1317684974
10
7.85283088174
20
91.0631193504
10
7.81959220741
20
90.9975440199
10
7.78861704562
20
90.9343959666
10
7.75982558837
20
90.8730286514
10
7.73313802766
20
90.8127955349
10
7.7084745555
20
90.753050078
10
7.6857553639
20
90.6931457414
10
7.66490064486
20
90.6324359859
10
7.64583059038
20
90.5702742724
10
7.62846539247
20
90.5060140615
10
7.61272524313
20
90.439008814
10
7.59853033436
20
90.3686119908
10
7.58580085818
20
90.2941770525
10
7.57445700658
20
90.2150574601
10
7.56441897157
20
90.1306066742
10
7.55560694515
20
90.0401781556
10
7.54794111933
20
89.9431253651
10
7.54134168611
20
89.8388017635
10
7.5357288375
20
89.7265608116
10
7.5310227655
20
89.6057559701
10
7.52714366211
20
89.4757406998
10
7.52401171934
20
89.3358684615
10
7.5215471292
20
89.185492716
10
7.51967008368
20
89.023966924
10
7.5183007748
20
88.8506445463
10
7.51735939455
20
88.6648790438
10
7.51676613494
20
88.4660238771
10
7.51644118798
20
88.253432507
10
7.51630474566
20
88.0264583944
10
7.516277
20
87.784455
10
7.516277
20
85.157338
10
8.081606
20
83.605455
10
8.11142752721
20
83.5229154796
10
8.14083285449
20
83.4403948077
10
8.16978390678
20
83.3580299473
10
8.19824260904
20
83.2759578614
10
8.22617088621
20
83.1943155129
10
8.25353066322
20
83.1132398648
10
8.28028386503
20
83.0328678801
10
8.30639241657
20
82.9533365218
10
8.33181824279
20
82.8747827528
10
8.35652326864
20
82.7973435361
10
8.38046941905
20
82.7211558347
10
8.40361861898
20
82.6463566116
10
8.42593279336
20
82.5730828297
10
8.44737386714
20
82.5014714521
10
8.46790376526
20
82.4316594416
10
8.48748441267
20
82.3637837613
10
8.50607773432
20
82.2979813741
10
8.52364565513
20
82.2343892431
10
8.54015010006
20
82.1731443311
10
8.55555299406
20
82.1143836013
10
8.56981626206
20
82.0582440164
10
8.58290182901
20
82.0048625396
10
8.59477161985
20
81.9543761338
10
8.60538755953
20
81.9069217619
10
8.61471157299
20
81.862636387
10
8.62270558518
20
81.821656972
10
8.62933152103
20
81.7841204799
10
8.63455130549
20
81.7501638737
10
8.63832686352
20
81.7199241163
10
8.64062012004
20
81.6935381708
10
8.641393
20
81.671143
10
8.64078219691
20
81.648121577
10
8.63896048159
20
81.6244407376
10
8.635943895
20
81.6001289491
10
8.6317484781
20
81.5752146784
10
8.62639027183
20
81.5497263928
10
8.61988531714
20
81.5236925593
10
8.612249655
20
81.4971416451
10
8.60349932634
20
81.4701021173
10
8.59365037213
20
81.442602443
10
8.58271883331
20
81.4146710894
10
8.57072075083
20
81.3863365234
10
8.55767216565
20
81.3576272124
10
8.54358911873
20
81.3285716234
10
8.528487651
20
81.2991982235
10
8.51238380343
20
81.2695354798
10
8.49529361696
20
81.2396118595
10
8.47723313256
20
81.2094558296
10
8.45821839116
20
81.1790958574
10
8.43826543372
20
81.1485604099
10
8.4173903012
20
81.1178779542
10
8.39560903454
20
81.0870769575
10
8.3729376747
20
81.0561858868
10
8.34939226263
20
81.0252332094
10
8.32498883928
20
80.9942473923
10
8.2997434456
20
80.9632569027
10
8.27367212255
20
80.9322902076
10
8.24679091108
20
80.9013757742
10
8.21911585214
20
80.8705420697
10
8.19066298667
20
80.839817561
10
8.16144835564
20
80.8092307154
10
8.131488
20
80.77881
10
7.621584
20
80.268905
10
8.491747
20
80.268905
10
8.58185386331
20
80.2682900952
10
8.66786782535
20
80.2664266315
10
8.74983623457
20
80.263286485
10
8.82780643943
20
80.2588415317
10
8.90182578839
20
80.2530636477
10
8.97194162992
20
80.2459247092
10
9.03820131248
20
80.2373965921
10
9.10065218452
20
80.2274511725
10
9.15934159451
20
80.2160603265
10
9.21431689091
20
80.2031959301
10
9.26562542217
20
80.1888298596
10
9.31331453677
20
80.1729339908
10
9.35743158316
20
80.1554801999
10
9.3980239098
20
80.1364403629
10
9.43513886516
20
80.1157863559
10
9.46882379769
20
80.0934900551
10
9.49912605586
20
80.0695233364
10
9.52609298812
20
80.0438580759
10
9.54977194294
20
80.0164661497
10
9.57021026877
20
79.9873194339
10
9.58745531409
20
79.9563898045
10
9.60155442734
20
79.9236491376
10
9.612554957
20
79.8890693093
10
9.62050425152
20
79.8526221957
10
9.62544965936
20
79.8142796727
10
9.62743852899
20
79.7740136166
10
9.62651820886
20
79.7317959033
10
9.62273604743
20
79.6875984089
10
9.61613939317
20
79.6413930095
10
9.60677559454
20
79.5931515812
10
9.594692
20
79.542846
10
9.584976445
20
79.5048739576
10
9.57641644658
20
79.469437863
10
9.56910619815
20
79.4365310872
10
9.56313989312
20
79.4061470016
10
9.55861172492
20
79.3782789774
10
9.55561588695
20
79.3529203858
10
9.55424657262
20
79.3300645979
10
9.55459797536
20
79.3097049851
10
9.55676428858
20
79.2918349185
10
9.56083970568
20
79.2764477693
10
9.56691842009
20
79.2635369089
10
9.57509462522
20
79.2530957083
10
9.58546251448
20
79.2451175389
10
9.59811628129
20
79.2395957717
10
9.61315011906
20
79.2365237782
10
9.63065822121
20
79.2358949294
10
9.65073478114
20
79.2377025966
10
9.67347399228
20
79.2419401511
10
9.69897004803
20
79.2486009639
10
9.72731714182
20
79.2576784064
10
9.75860946705
20
79.2691658498
10
9.79294121715
20
79.2830566653
10
9.83040658551
20
79.2993442241
10
9.87109976557
20
79.3180218974
10
9.91511495072
20
79.3390830565
10
9.9625463344
20
79.3625210725
10
10.01348811
20
79.3883293168
10
10.0680344709
20
79.4165011604
10
10.1262796107
20
79.4470299747
10
10.1883177225
20
79.4799091308
10
10.254243
20
79.515132
10
10.311061141
20
79.5447267631
10
10.3658132751
20
79.5715135287
10
10.4184778718
20
79.5955034625
10
10.4690334007
20
79.6167077303
10
10.5174583315
20
79.6351374978
10
10.5637311337
20
79.6508039309
10
10.6078302769
20
79.6637181954
10
10.6497342308
20
79.673891457
10
10.6894214649
20
79.6813348816
10
10.7268704489
20
79.6860596349
10
10.7620596523
20
79.6880768826
10
10.7949675449
20
79.6873977907
10
10.8255725961
20
79.6840335249
10
10.8538532755
20
79.677995251
10
10.8797880529
20
79.6692941347
10
10.9033553977
20
79.6579413419
10
10.9245337796
20
79.6439480383
10
10.9433016683
20
79.6273253897
10
10.9596375332
20
79.608084562
10
10.973519844
20
79.5862367209
10
10.9849270704
20
79.5617930322
10
10.9938376818
20
79.5347646616
10
11.000230148
20
79.505162775
10
11.0040829385
20
79.4729985382
10
11.0053745229
20
79.4382831169
10
11.0040833709
20
79.401027677
10
11.000187952
20
79.3612433842
10
10.9936667359
20
79.3189414043
10
10.9844981921
20
79.2741329031
10
10.9726607903
20
79.2268290464
10
10.958133
20
79.177041
10
10.9514357579
20
79.1551063379
10
10.945448747
20
79.1345319318
10
10.940211266
20
79.115307378
10
10.9357626136
20
79.097422273
10
10.9321420888
20
79.080866213
10
10.9293889903
20
79.0656287943
10
10.9275426168
20
79.0516996133
10
10.9266422671
20
79.0390682662
10
10.92672724
20
79.0277243495
10
10.9278368344
20
79.0176574593
10
10.9300103489
20
79.0088571921
10
10.9332870824
20
79.0013131442
10
10.9377063336
20
78.9950149119
10
10.9433074013
20
78.9899520914
10
10.9501295844
20
78.9861142792
10
10.9582121815
20
78.9834910715
10
10.9675944915
20
78.9820720647
10
10.9783158131
20
78.9818468551
10
10.9904154452
20
78.9828050389
10
11.0039326865
20
78.9849362126
10
11.0189068358
20
78.9882299725
10
11.0353771918
20
78.9926759148
10
11.0533830534
20
78.998263636
10
11.0729637193
20
79.0049827322
10
11.0941584884
20
79.0128227999
10
11.1170066594
20
79.0217734353
10
11.141547531
20
79.0318242348
10
11.1678204021
20
79.0429647947
10
11.1958645714
20
79.0551847113
10
11.2257193378
20
79.068473581
10
11.257424
20
79.082821
10
11.2856194906
20
79.0954537158
10
11.312881438
20
79.1072197338
10
11.3392488294
20
79.1181178922
10
11.3647606524
20
79.1281470289
10
11.3894558944
20
79.1373059822
10
11.4133735427
20
79.1455935901
10
11.4365525848
20
79.1530086907
10
11.4590320081
20
79.1595501222
10
11.4808507999
20
79.1652167226
10
11.5020479478
20
79.1700073301
10
11.5226624392
20
79.1739207827
10
11.5427332613
20
79.1769559186
10
11.5622994017
20
79.1791115758
10
11.5813998478
20
79.1803865926
10
11.600073587
20
79.1807798069
10
11.6183596066
20
79.1802900568
10
11.6362968941
20
79.1789161806
10
11.653924437
20
79.1766570162
10
11.6712812226
20
79.1735114019
10
11.6884062383
20
79.1694781757
10
11.7053384715
20
79.1645561756
10
11.7221169097
20
79.1587442399
10
11.7387805403
20
79.1520412066
10
11.7553683507
20
79.1444459138
10
11.7719193283
20
79.1359571997
10
11.7884724605
20
79.1265739023
10
11.8050667347
20
79.1162948597
10
11.8217411383
20
79.1051189101
10
11.8385346588
20
79.0930448915
10
11.8554862836
20
79.0800716421
10
11.872635
20
79.066198
10
11.9070839958
20
79.036248162
10
11.9385610185
20
79.0060050899
10
11.9670520886
20
78.975419608
10
11.9925432268
20
78.9444425404
10
12.0150204537
20
78.9130247114
10
12.0344697898
20
78.8811169452
10
12.0508772559
20
78.8486700659
10
12.0642288725
20
78.8156348979
10
12.0745106602
20
78.7819622652
10
12.0817086397
20
78.7476029921
10
12.0858088315
20
78.7125079029
10
12.0867972563
20
78.6766278216
10
12.0846599346
20
78.6399135726
10
12.0793828871
20
78.6023159801
10
12.0709521344
20
78.5637858681
10
12.0593536971
20
78.5242740611
10
12.0445735958
20
78.4837313831
10
12.0265978511
20
78.4421086584
10
12.0054124836
20
78.3993567112
10
11.981003514
20
78.3554263656
10
11.9533569628
20
78.310268446
10
11.9224588507
20
78.2638337764
10
11.8882951982
20
78.2160731812
10
11.8508520261
20
78.1669374845
10
11.8101153548
20
78.1163775106
10
11.766071205
20
78.0643440836
10
11.7187055974
20
78.0107880277
10
11.6680045524
20
77.9556601672
10
11.6139540908
20
77.8989113263
10
11.5565402331
20
77.8404923292
10
11.495749
20
77.780354
10
11.4587587443
20
77.7436632729
10
11.4223364296
20
77.7063928323
10
11.3864971541
20
77.6685671604
10
11.3512560161
20
77.6302107393
10
11.3166281137
20
77.5913480512
10
11.282628545
20
77.5520035783
10
11.2492724084
20
77.5122018028
10
11.2165748019
20
77.4719672067
10
11.1845508237
20
77.4313242722
10
11.1532155721
20
77.3902974816
10
11.1225841452
20
77.3489113169
10
11.0926716412
20
77.3071902603
10
11.0634931583
20
77.2651587941
10
11.0350637946
20
77.2228414002
10
11.0073986484
20
77.180262561
10
10.9805128178
20
77.1374467585
10
10.954421401
20
77.0944184749
10
10.9291394963
20
77.0512021924
10
10.9046822017
20
77.0078223931
10
10.8810646155
20
76.9643035593
10
10.8583018358
20
76.9206701729
10
10.8364089609
20
76.8769467163
10
10.8154010889
20
76.8331576716
10
10.7952933179
20
76.7893275209
10
10.7761007463
20
76.7454807463
10
10.7578384722
20
76.7016418302
10
10.7405215937
20
76.6578352545
10
10.7241652091
20
76.6140855015
10
10.7087844164
20
76.5704170533
10
10.694394314
20
76.5268543921
10
10.68101
20
76.483422
10
10.6549957946
20
76.3967737379
10
10.6293769565
20
76.3134778786
10
10.6040379911
20
76.233322812
10
10.578863404
20
76.1560969285
10
10.553737701
20
76.0815886183
10
10.5285453875
20
76.0095862714
10
10.5031709691
20
75.9398782782
10
10.4774989514
20
75.8722530287
10
10.4514138401
20
75.8064989132
10
10.4248001406
20
75.7424043218
10
10.3975423587
20
75.6797576448
10
10.3695249998
20
75.6183472723
10
10.3406325696
20
75.5579615945
10
10.3107495737
20
75.4983890016
10
10.2797605176
20
75.4394178838
10
10.247549907
20
75.3808366313
10
10.2140022473
20
75.3224336342
10
10.1790020443
20
75.2639972827
10
10.1424338035
20
75.205315967
10
10.1041820305
20
75.1461780773
10
10.0641312308
20
75.0863720039
10
10.0221659102
20
75.0256861368
10
9.97817057407
20
74.9639088662
10
9.93202972811
20
74.9008285824
10
9.88362787788
20
74.8362336755
10
9.83284952899
20
74.7699125357
10
9.779579187
20
74.7016535533
10
9.72370135752
20
74.6312451183
10
9.66510054614
20
74.5584756209
10
9.60366125843
20
74.4831334514
10
9.539268
20
74.405007
10
9.44238384247
20
74.2874715239
10
9.3514240051
20
74.1757247207
10
9.26621815041
20
74.0691349638
10
9.18659594092
20
73.9670706263
10
9.11238703914
20
73.8689000816
10
9.04342110758
20
73.773991703
10
8.97952780877
20
73.6817138636
10
8.92053680521
20
73.5914349368
10
8.86627775942
20
73.5025232958
10
8.81658033393
20
73.4143473139
10
8.77127419123
20
73.3262753643
10
8.73018899386
20
73.2376758204
10
8.69315440432
20
73.1479170554
10
8.66000008513
20
73.0563674425
10
8.6305556988
20
72.962395355
10
8.60465090786
20
72.8653691663
10
8.58211537481
20
72.7646572495
10
8.56277876218
20
72.6596279779
10
8.54647073247
20
72.5496497249
10
8.53302094821
20
72.4340908636
10
8.5222590719
20
72.3123197673
10
8.51401476607
20
72.1837048093
10
8.50811769323
20
72.0476143629
10
8.50439751589
20
71.9034168013
10
8.50268389658
20
71.7504804979
10
8.5028064978
20
71.5881738258
10
8.50459498208
20
71.4158651583
10
8.50787901192
20
71.2329228687
10
8.51248824984
20
71.0387153303
10
8.51825235836
20
70.8326109163
10
8.525001
20
70.613978
10
8.52836484633
20
70.5040792496
10
8.53140103598
20
70.3956176823
10
8.53411286754
20
70.288740163
10
8.53650363959
20
70.1835935564
10
8.5385766507
20
70.0803247272
10
8.54033519946
20
69.9790805402
10
8.54178258444
20
69.8800078602
10
8.54292210423
20
69.7832535519
10
8.5437570574
20
69.6889644801
10
8.54429074254
20
69.5972875096
10
8.54452645823
20
69.508369505
10
8.54446750304
20
69.4223573312
10
8.54411717556
20
69.3393978529
10
8.54347877436
20
69.2596379349
10
8.54255559803
20
69.1832244419
10
8.54135094515
20
69.1103042387
10
8.5398681143
20
69.04102419
10
8.53811040405
20
68.9755311606
10
8.53608111299
20
68.9139720153
10
8.53378353969
20
68.8564936188
10
8.53122098275
20
68.8032428359
10
8.52839674073
20
68.7543665313
10
8.52531411222
20
68.7100115698
10
8.52197639579
20
68.6703248162
10
8.51838689003
20
68.6354531351
10
8.51454889352
20
68.6055433914
10
8.51046570484
20
68.5807424499
10
8.50614062257
20
68.5611971752
10
8.50157694529
20
68.5470544321
10
8.49677797157
20
68.5384610855
10
8.491747
20
68.535564
10
8.48642314783
20
68.5337380278
10
8.48075423051
20
68.5283213254
10
8.47475717455
20
68.519405714
10
8.46844890648
20
68.507083015
10
8.46184635282
20
68.4914450496
10
8.4549664401
20
68.4725836392
10
8.44782609483
20
68.450590605
10
8.44044224353
20
68.4255577683
10
8.43283181273
20
68.3975769504
10
8.42501172894
20
68.3667399726
10
8.4169989187
20
68.3331386562
10
8.40881030852
20
68.2968648224
10
8.40046282491
20
68.2580102926
10
8.39197339441
20
68.216666888
10
8.38335894354
20
68.1729264299
10
8.37463639881
20
68.1268807397
10
8.36582268675
20
68.0786216385
10
8.35693473388
20
68.0282409478
10
8.34798946672
20
67.9758304887
10
8.33900381179
20
67.9214820826
10
8.32999469561
20
67.8652875508
10
8.32097904471
20
67.8073387145
10
8.31197378561
20
67.7477273951
10
8.30299584482
20
67.6865454137
10
8.29406214887
20
67.6238845918
10
8.28518962428
20
67.5598367506
10
8.27639519758
20
67.4944937113
10
8.26769579527
20
67.4279472954
10
8.2591083439
20
67.360289324
10
8.25064976996
20
67.2916116184
10
8.242337
20
67.222006
10
8.22828068356
20
67.1054490042
10
8.21380605226
20
66.9913636527
10
8.19890535732
20
66.8797210446
10
8.18357084995
20
66.7704922789
10
8.16779478138
20
66.6636484548
10
8.15156940281
20
66.5591606711
10
8.13488696546
20
66.4570000271
10
8.11773972055
20
66.3571376218
10
8.1001199193
20
66.2595445541
10
8.08201981293
20
66.1641919233
10
8.06343165265
20
66.0710508282
10
8.04434768967
20
65.9800923681
10
8.02476017522
20
65.8912876419
10
8.00466136051
20
65.8046077487
10
7.98404349676
20
65.7200237876
10
7.96289883519
20
65.6375068576
10
7.941219627
20
65.5570280577
10
7.91899812343
20
65.4785584871
10
7.89622657568
20
65.4020692448
10
7.87289723497
20
65.3275314298
10
7.84900235252
20
65.2549161413
10
7.82453417955
20
65.1841944781
10
7.79948496727
20
65.1153375395
10
7.7738469669
20
65.0483164245
10
7.74761242966
20
64.9831022321
10
7.72077360676
20
64.9196660614
10
7.69332274942
20
64.8579790114
10
7.66525210886
20
64.7980121812
10
7.63655393629
20
64.7397366699
10
7.60722048293
20
64.6831235764
10
7.577244
20
64.628144
10
7.57024122037
20
64.6155638172
10
7.56268190031
20
64.6018697407
10
7.55459176161
20
64.5871108653
10
7.54599652606
20
64.5713362859
10
7.53692191548
20
64.5545950971
10
7.52739365164
20
64.536936394
10
7.51743745635
20
64.5184092713
10
7.50707905139
20
64.4990628238
10
7.49634415857
20
64.4789461464
10
7.48525849968
20
64.4581083339
10
7.47384779652
20
64.4365984811
10
7.46213777087
20
64.4144656828
10
7.45015414454
20
64.3917590339
10
7.43792263932
20
64.3685276292
10
7.42546897701
20
64.3448205636
10
7.41281887939
20
64.3206869318
10
7.39999806828
20
64.2961758286
10
7.38703226545
20
64.271336349
10
7.37394719271
20
64.2462175878
10
7.36076857185
20
64.2208686397
10
7.34752212467
20
64.1953385995
10
7.33423357296
20
64.1696765623
10
7.32092863851
20
64.1439316226
10
7.30763304313
20
64.1181528754
10
7.29437250861
20
64.0923894156
10
7.28117275674
20
64.0666903378
10
7.26805950931
20
64.041104737
10
7.25505848813
20
64.015681708
10
7.24219541499
20
63.9904703456
10
7.22949601168
20
63.9655197447
10
7.216986
20
63.940879
10
7.20132682592
20
63.912288816
10
7.17928625981
20
63.8756222271
10
7.15104921973
20
63.8311276944
10
7.11680062375
20
63.7790536788
10
7.07672538992
20
63.7196486412
10
7.03100843631
20
63.6531610425
10
6.97983468098
20
63.5798393437
10
6.92338904199
20
63.4999320058
10
6.86185643741
20
63.4136874897
10
6.7954217853
20
63.3213542563
10
6.72427000373
20
63.2231807666
10
6.64858601074
20
63.1194154815
10
6.56855472441
20
63.010306862
10
6.4843610628
20
62.896103369
10
6.39618994398
20
62.7770534634
10
6.30422628599
20
62.6534056063
10
6.20865500691
20
62.5254082585
10
6.10966102481
20
62.393309881
10
6.00742925773
20
62.2573589347
10
5.90214462375
20
62.1178038807
10
5.79399204092
20
61.9748931797
10
5.68315642731
20
61.8288752928
10
5.56982270098
20
61.679998681
0
LWPOLYLINE
5
47
100
AcDbEntity
8
0
6
ByLayer
62
256
370
-1
100
AcDbPolyline
90
559
70
1
43
0
10
16.1231603722
20
66.2505646076
10
16.1291572104
20
66.3760777018
10
16.1390007448
20
66.5022367158
10
16.152690861
20
66.6290093474
10
16.1702274447
20
66.7563632939
10
16.1916103815
20
66.8842662531
10
16.2168395569
20
67.0126859224
10
16.2459148566
20
67.1415899994
10
16.2788361661
20
67.2709461816
10
16.3156033712
20
67.4007221667
10
16.3562163573
20
67.5308856522
10
16.40067501
20
67.6614043356
10
16.4489792151
20
67.7922459146
10
16.501128858
20
67.9233780866
10
16.5571238245
20
68.0547685492
10
16.616964
20
68.186385
10
16.6430167991
20
68.2419447675
10
16.6697179225
20
68.298887317
10
16.697006814
20
68.3570871641
10
16.7248229177
20
68.4164188243
10
16.7531056774
20
68.4767568133
10
16.781794537
20
68.5379756466
10
16.8108289406
20
68.5999498399
10
16.8401483319
20
68.6625539087
10
16.869692155
20
68.7256623687
10
16.8993998538
20
68.7891497353
10
16.9292108721
20
68.8528905243
10
16.959064654
20
68.9167592511
10
16.9889006433
20
68.9806304315
10
17.018658284
20
69.0443785809
10
17.04827702
20
69.1078782151
10
17.0776962953
20
69.1710038495
10
17.1068555536
20
69.2336299997
10
17.1356942391
20
69.2956311814
10
17.1641517955
20
69.3568819101
10
17.1921676669
20
69.4172567015
10
17.2196812971
20
69.4766300711
10
17.2466321301
20
69.5348765346
10
17.2729596098
20
69.5918706074
10
17.2986031802
20
69.6474868052
10
17.3235022851
20
69.7015996437
10
17.3475963684
20
69.7540836383
10
17.3708248742
20
69.8048133047
10
17.3931272463
20
69.8536631585
10
17.4144429287
20
69.9005077152
10
17.4347113653
20
69.9452214906
10
17.453872
20
69.987679
10
17.4725408986
20
70.0288534138
10
17.491355093
20
70.0697601544
10
17.5102805409
20
70.1103365352
10
17.5292831999
20
70.1505198693
10
17.5483290276
20
70.19024747
10
17.5673839817
20
70.2294566507
10
17.5864140199
20
70.2680847246
10
17.6053850997
20
70.306069005
10
17.6242631787
20
70.3433468052
10
17.6430142148
20
70.3798554385
10
17.6616041654
20
70.4155322182
10
17.6799989882
20
70.4503144574
10
17.6981646408
20
70.4841394696
10
17.7160670809
20
70.516944568
10
17.7336722662
20
70.5486670659
10
17.7509461542
20
70.5792442765
10
17.7678547026
20
70.6086135132
10
17.7843638691
20
70.6367120892
10
17.8004396112
20
70.6634773178
10
17.8160478867
20
70.6888465123
10
17.8311546531
20
70.712756986
10
17.8457258681
20
70.7351460522
10
17.8597274893
20
70.7559510241
10
17.8731254744
20
70.775109215
10
17.885885781
20
70.7925579383
10
17.8979743668
20
70.8082345071
10
17.9093571893
20
70.8220762348
10
17.9200002062
20
70.8340204347
10
17.9298693752
20
70.84400442
10
17.938930654
20
70.851965504
10
17.94715
20
70.857841
10
17.947669631
20
70.8581569908
10
17.9481917805
20
70.8584657339
10
17.9487163012
20
70.8587670305
10
17.9492430456
20
70.8590606819
10
17.9497718662
20
70.8593464892
10
17.9503026156
20
70.8596242537
10
17.9508351465
20
70.8598937766
10
17.9513693113
20
70.8601548591
10
17.9519049627
20
70.8604073024
10
17.9524419533
20
70.8606509077
10
17.9529801355
20
70.8608854763
10
17.953519362
20
70.8611108093
10
17.9540594854
20
70.861326708
10
17.9546003582
20
70.8615329735
10
17.9551418329
20
70.8617294072
10
17.9556837623
20
70.8619158102
10
17.9562259988
20
70.8620919838
10
17.956768395
20
70.8622577291
10
17.9573108034
20
70.8624128473
10
17.9578530768
20
70.8625571398
10
17.9583950675
20
70.8626904076
10
17.9589366283
20
70.862812452
10
17.9594776117
20
70.8629230743
10
17.9600178702
20
70.8630220756
10
17.9605572564
20
70.8631092572
10
17.9610956229
20
70.8631844202
10
17.9616328223
20
70.8632473659
10
17.9621687071
20
70.8632978956
10
17.96270313
20
70.8633358103
10
17.9632359434
20
70.8633609114
10
17.963767
20
70.863373
10
17.963777
20
70.863384
10
17.971763404
20
70.8623434778
10
17.9798077183
20
70.8590828944
10
17.9879006606
20
70.8536393374
10
17.9960329486
20
70.8460498943
10
18.0041953
20
70.8363516526
10
18.0123784326
20
70.8245817001
10
18.0205730641
20
70.8107771242
10
18.0287699122
20
70.7949750126
10
18.0369596947
20
70.7772124528
10
18.0451331294
20
70.7575265323
10
18.0532809338
20
70.7359543388
10
18.0613938259
20
70.7125329599
10
18.0694625232
20
70.6872994831
10
18.0774777436
20
70.6602909959
10
18.0854302048
20
70.6315445861
10
18.0933106245
20
70.6010973411
10
18.1011097205
20
70.5689863485
10
18.1088182104
20
70.5352486959
10
18.116426812
20
70.4999214709
10
18.1239262431
20
70.4630417611
10
18.1313072213
20
70.424646654
10
18.1385604645
20
70.3847732372
10
18.1456766903
20
70.3434585982
10
18.1526466165
20
70.3007398248
10
18.1594609608
20
70.2566540044
10
18.1661104409
20
70.2112382246
10
18.1725857746
20
70.164529573
10
18.1788776797
20
70.1165651371
10
18.1849768738
20
70.0673820046
10
18.1908740746
20
70.0170172631
10
18.19656
20
69.965508
10
18.2023045656
20
69.9134940274
10
18.2083431162
20
69.8619302506
10
18.2146586417
20
69.8108920745
10
18.2212341323
20
69.760454904
10
18.2280525781
20
69.710694144
10
18.2350969692
20
69.6616851994
10
18.2423502957
20
69.6135034752
10
18.2497955476
20
69.5662243764
10
18.2574157152
20
69.5199233077
10
18.2651937884
20
69.4746756741
10
18.2731127574
20
69.4305568806
10
18.2811556122
20
69.3876423321
10
18.2893053431
20
69.3460074335
10
18.2975449399
20
69.3057275897
10
18.305857393
20
69.2668782056
10
18.3142256923
20
69.2295346862
10
18.322632828
20
69.1937724363
10
18.3310617901
20
69.159666861
10
18.3394955688
20
69.1272933651
10
18.3479171542
20
69.0967273535
10
18.3563095363
20
69.0680442312
10
18.3646557052
20
69.041319403
10
18.3729386511
20
69.016628274
10
18.381141364
20
68.994046249
10
18.3892468341
20
68.9736487329
10
18.3972380514
20
68.9555111307
10
18.4050980061
20
68.9397088473
10
18.4128096882
20
68.9263172876
10
18.4203560878
20
68.9154118566
10
18.427720195
20
68.907067959
10
18.434885
20
68.901361
10
18.4419026073
20
68.8963237922
10
18.448830318
20
68.8899654371
10
18.4556586271
20
68.8823266441
10
18.4623780293
20
68.8734481223
10
18.4689790193
20
68.8633705809
10
18.475452092
20
68.8521347292
10
18.4817877421
20
68.8397812763
10
18.4879764644
20
68.8263509315
10
18.4940087537
20
68.8118844039
10
18.4998751047
20
68.7964224028
10
18.5055660123
20
68.7800056373
10
18.5110719712
20
68.7626748168
10
18.5163834763
20
68.7444706503
10
18.5214910222
20
68.7254338472
10
18.5263851037
20
68.7056051165
10
18.5310562157
20
68.6850251676
10
18.535494853
20
68.6637347095
10
18.5396915102
20
68.6417744516
10
18.5436366823
20
68.6191851031
10
18.5473208639
20
68.5960073731
10
18.5507345498
20
68.5722819708
10
18.5538682349
20
68.5480496055
10
18.5567124138
20
68.5233509863
10
18.5592575815
20
68.4982268226
10
18.5614942327
20
68.4727178234
10
18.563412862
20
68.446864698
10
18.5650039645
20
68.4207081556
10
18.5662580347
20
68.3942889053
10
18.5671655675
20
68.3676476565
10
18.5677170577
20
68.3408251184
10
18.567903
20
68.313862
10
18.5682280116
20
68.2854754213
10
18.5691920089
20
68.2544309851
10
18.5707784352
20
68.2208418352
10
18.572970734
20
68.1848211152
10
18.5757523488
20
68.1464819686
10
18.579106723
20
68.1059375392
10
18.5830173001
20
68.0633009705
10
18.5874675235
20
68.0186854063
10
18.5924408367
20
67.97220399
10
18.5979206832
20
67.9239698655
10
18.6038905064
20
67.8740961762
10
18.6103337497
20
67.8226960659
10
18.6172338566
20
67.7698826781
10
18.6245742707
20
67.7157691565
10
18.6323384352
20
67.6604686448
10
18.6405097937
20
67.6040942865
10
18.6490717897
20
67.5467592254
10
18.6580078666
20
67.4885766049
10
18.6673014678
20
67.4296595689
10
18.6769360368
20
67.3701212609
10
18.6868950171
20
67.3100748244
10
18.6971618521
20
67.2496334033
10
18.7077199853
20
67.1889101411
10
18.7185528602
20
67.1280181814
10
18.7296439201
20
67.0670706679
10
18.7409766085
20
67.0061807442
10
18.752534369
20
66.9454615539
10
18.7643006449
20
66.8850262407
10
18.7762588798
20
66.8249879483
10
18.788392517
20
66.7654598201
10
18.800685
20
66.706555
10
18.8314028724
20
66.5573293866
10
18.8621517709
20
66.4004567733
10
18.8929114564
20
66.2361149843
10
18.9236616896
20
66.0644818439
10
18.9543822314
20
65.8857351764
10
18.9850528425
20
65.7000528059
10
19.0156532838
20
65.5076125567
10
19.046163316
20
65.3085922531
10
19.0765627
20
65.1031697193
10
19.1068311965
20
64.8915227795
10
19.1369485664
20
64.673829258
10
19.1668945704
20
64.4502669791
10
19.1966489694
20
64.2210137668
10
19.2261915241
20
63.9862474456
10
19.2555019954
20
63.7461458397
10
19.284560144
20
63.5008867732
10
19.3133457308
20
63.2506480705
10
19.3418385166
20
62.9956075557
10
19.3700182621
20
62.7359430532
10
19.3978647281
20
62.4718323871
10
19.4253576755
20
62.2034533818
10
19.4524768651
20
61.9309838613
10
19.4792020576
20
61.6546016501
10
19.5055130138
20
61.3744845723
10
19.5313894946
20
61.0908104521
10
19.5568112608
20
60.8037571139
10
19.5817580731
20
60.5135023819
10
19.6062096924
20
60.2202240802
10
19.6301458795
20
59.9241000332
10
19.6535463951
20
59.625308065
10
19.676391
20
59.324026
10
19.6819247236
20
59.248032969
10
19.6869059254
20
59.1756732355
10
19.6913240066
20
59.1068693875
10
19.6951683682
20
59.0415440128
10
19.6984284115
20
58.9796196994
10
19.7010935375
20
58.9210190352
10
19.7031531476
20
58.865664608
10
19.7045966428
20
58.8134790058
10
19.7054134243
20
58.7643848164
10
19.7055928932
20
58.7183046278
10
19.7051244507
20
58.6751610278
10
19.7039974981
20
58.6348766043
10
19.7022014363
20
58.5973739452
10
19.6997256667
20
58.5625756385
10
19.6965595903
20
58.530404272
10
19.6926926084
20
58.5007824336
10
19.6881141221
20
58.4736327112
10
19.6828135324
20
58.4488776927
10
19.6767802407
20
58.426439966
10
19.6700036481
20
58.406242119
10
19.6624731557
20
58.3882067396
10
19.6541781647
20
58.3722564156
10
19.6451080763
20
58.3583137351
10
19.6352522915
20
58.3463012858
10
19.6246002117
20
58.3361416557
10
19.6131412379
20
58.3277574327
10
19.6008647712
20
58.3210712047
10
19.587760213
20
58.3160055595
10
19.5738169643
20
58.312483085
10
19.5590244262
20
58.3104263692
10
19.543372
20
58.309758
10
19.5223083829
20
58.3129879724
10
19.4993019269
20
58.3224963768
10
19.4744929668
20
58.3380109437
10
19.4480218376
20
58.3592594038
10
19.4200288741
20
58.3859694875
10
19.3906544111
20
58.4178689256
10
19.3600387835
20
58.4546854485
10
19.3283223262
20
58.4961467869
10
19.2956453741
20
58.5419806714
10
19.262148262
20
58.5919148326
10
19.2279713247
20
58.645677001
10
19.1932548973
20
58.7029949073
10
19.1581393144
20
58.7635962819
10
19.122764911
20
58.8272088556
10
19.087272022
20
58.8935603589
10
19.0518009822
20
58.9623785224
10
19.0164921264
20
59.0333910767
10
18.9814857897
20
59.1063257524
10
18.9469223067
20
59.1809102801
10
18.9129420124
20
59.2568723903
10
18.8796852417
20
59.3339398136
10
18.8472923294
20
59.4118402807
10
18.8159036103
20
59.4903015221
10
18.7856594194
20
59.5690512684
10
18.7567000915
20
59.6478172503
10
18.7291659615
20
59.7263271982
10
18.7031973643
20
59.8043088428
10
18.6789346346
20
59.8814899147
10
18.6565181074
20
59.9575981445
10
18.6360881176
20
60.0323612627
10
18.617785
20
60.105507
10
18.6127443835
20
60.1261142224
10
18.6073687572
20
60.146993123
10
18.60167452
20
60.1681017127
10
18.5956780709
20
60.1893980027
10
18.5893958091
20
60.2108400039
10
18.5828441336
20
60.2323857276
10
18.5760394435
20
60.2539931848
10
18.5689981377
20
60.2756203865
10
18.5617366153
20
60.2972253438
10
18.5542712754
20
60.3187660678
10
18.546618517
20
60.3402005697
10
18.5387947392
20
60.3614868604
10
18.530816341
20
60.382582951
10
18.5226997214
20
60.4034468526
10
18.5144612796
20
60.4240365764
10
18.5061174145
20
60.4443101333
10
18.4976845252
20
60.4642255345
10
18.4891790107
20
60.4837407909
10
18.4806172702
20
60.5028139138
10
18.4720157026
20
60.5214029142
10
18.4633907069
20
60.5394658031
10
18.4547586823
20
60.5569605917
10
18.4461360278
20
60.573845291
10
18.4375391424
20
60.590077912
10
18.4289844252
20
60.6056164659
10
18.4204882752
20
60.6204189638
10
18.4120670914
20
60.6344434167
10
18.403737273
20
60.6476478357
10
18.3955152189
20
60.6599902318
10
18.3874173282
20
60.6714286163
10
18.37946
20
60.681921
10
18.3692446444
20
60.6953539595
10
18.360236121
20
60.7082018286
10
18.3524515513
20
60.7204744161
10
18.3459080568
20
60.7321815308
10
18.3406227589
20
60.7433329813
10
18.3366127791
20
60.7539385764
10
18.3338952389
20
60.7640081249
10
18.3324872598
20
60.7735514355
10
18.3324059632
20
60.7825783169
10
18.3336684707
20
60.7910985778
10
18.3362919037
20
60.799122027
10
18.3402933836
20
60.8066584732
10
18.3456900321
20
60.8137177252
10
18.3524989705
20
60.8203095916
10
18.3607373203
20
60.8264438812
10
18.3704222031
20
60.8321304028
10
18.3815707402
20
60.8373789651
10
18.3942000532
20
60.8421993768
10
18.4083272636
20
60.8466014467
10
18.4239694928
20
60.8505949834
10
18.4411438623
20
60.8541897958
10
18.4598674936
20
60.8573956925
10
18.4801575082
20
60.8602224823
10
18.5020310275
20
60.8626799739
10
18.525505173
20
60.8647779761
10
18.5505970663
20
60.8665262976
10
18.5773238287
20
60.8679347471
10
18.6057025819
20
60.8690131333
10
18.6357504471
20
60.8697712651
10
18.667484546
20
60.8702189511
10
18.700922
20
60.870366
10
18.7302144352
20
60.8705833586
10
18.7586065721
20
60.8712356745
10
18.7860943352
20
60.8723233074
10
18.8126736488
20
60.8738466174
10
18.8383404373
20
60.8758059643
10
18.8630906252
20
60.878201708
10
18.8869201368
20
60.8810342084
10
18.9098248966
20
60.8843038255
10
18.9318008289
20
60.8880109192
10
18.9528438583
20
60.8921558493
10
18.972949909
20
60.8967389758
10
18.9921149055
20
60.9017606585
10
19.0103347722
20
60.9072212575
10
19.0276054335
20
60.9131211325
10
19.0439228138
20
60.9194606435
10
19.0592828376
20
60.9262401504
10
19.0736814291
20
60.9334600132
10
19.0871145129
20
60.9411205917
10
19.0995780133
20
60.9492222457
10
19.1110678548
20
60.9577653354
10
19.1215799617
20
60.9667502204
10
19.1311102585
20
60.9761772609
10
19.1396546695
20
60.9860468165
10
19.1472091192
20
60.9963592474
10
19.153769532
20
61.0071149133
10
19.1593318322
20
61.0183141741
10
19.1638919444
20
61.0299573899
10
19.1674457928
20
61.0420449205
10
19.169989302
20
61.0545771257
10
19.1715183962
20
61.0675543656
10
19.172029
20
61.080977
10
19.1715404543
20
61.1017478192
10
19.170000002
20
61.1216597097
10
19.1672954199
20
61.1407618532
10
19.1633144851
20
61.1591034313
10
19.1579449746
20
61.1767336257
10
19.1510746653
20
61.1937016178
10
19.1425913343
20
61.2100565895
10
19.1323827584
20
61.2258477223
10
19.1203367147
20
61.2411241978
10
19.1063409801
20
61.2559351978
10
19.0902833317
20
61.2703299037
10
19.0720515464
20
61.2843574973
10
19.0515334012
20
61.2980671602
10
19.0286166731
20
61.311508074
10
19.003189139
20
61.3247294204
10
18.9751385759
20
61.3377803809
10
18.9443527609
20
61.3507101372
10
18.9107194708
20
61.363567871
10
18.8741264827
20
61.3764027639
10
18.8344615736
20
61.3892639974
10
18.7916125204
20
61.4022007533
10
18.7454671001
20
61.4152622132
10
18.6959130897
20
61.4284975587
10
18.6428382662
20
61.4419559714
10
18.5861304065
20
61.4556866329
10
18.5256772876
20
61.469738725
10
18.4613666865
20
61.4841614292
10
18.3930863803
20
61.4990039272
10
18.3207241458
20
61.5143154006
10
18.24416776
20
61.5301450309
10
18.163305
20
61.546542
10
18.1240606042
20
61.5548348331
10
18.0864475381
20
61.563673214
10
18.0503580806
20
61.5731802556
10
18.0156845102
20
61.5834790709
10
17.9823191058
20
61.5946927727
10
17.9501541461
20
61.6069444739
10
17.9190819098
20
61.6203572874
10
17.8889946757
20
61.635054326
10
17.8597847225
20
61.6511587027
10
17.831344329
20
61.6687935303
10
17.8035657739
20
61.6880819218
10
17.7763413359
20
61.70914699
10
17.7495632939
20
61.7321118477
10
17.7231239265
20
61.757099608
10
17.6969155124
20
61.7842333836
10
17.6708303305
20
61.8136362875
10
17.6447606594
20
61.8454314326
10
17.6185987779
20
61.8797419317
10
17.5922369648
20
61.9166908977
10
17.5655674987
20
61.9564014435
10
17.5384826585
20
61.998996682
10
17.5108747229
20
62.044599726
10
17.4826359705
20
62.0933336886
10
17.4536586802
20
62.1453216825
10
17.4238351307
20
62.2006868206
10
17.3930576008
20
62.2595522158
10
17.3612183691
20
62.3220409811
10
17.3282097144
20
62.3882762293
10
17.2939239155
20
62.4583810732
10
17.2582532511
20
62.5324786258
10
17.22109
20
62.610692
10
17.1969044241
20
62.6621163982
10
17.1730187577
20
62.7133708277
10
17.1494664318
20
62.7643746892
10
17.1262808772
20
62.8150473833
10
17.103495525
20
62.8653083108
10
17.0811438059
20
62.9150768723
10
17.0592591509
20
62.9642724686
10
17.0378749909
20
63.0128145004
10
17.0170247568
20
63.0606223682
10
16.9967418794
20
63.1076154729
10
16.9770597898
20
63.153713215
10
16.9580119187
20
63.1988349954
10
16.9396316971
20
63.2429002147
10
16.9219525559
20
63.2858282735
10
16.9050079261
20
63.3275385726
10
16.8888312384
20
63.3679505127
10
16.8734559238
20
63.4069834944
10
16.8589154132
20
63.4445569185
10
16.8452431375
20
63.4805901857
10
16.8324725276
20
63.5150026965
10
16.8206370144
20
63.5477138518
10
16.8097700289
20
63.5786430522
10
16.7999050018
20
63.6077096984
10
16.7910753642
20
63.6348331911
10
16.7833145468
20
63.659932931
10
16.7766559807
20
63.6829283188
10
16.7711330967
20
63.7037387551
10
16.7667793258
20
63.7222836407
10
16.7636280987
20
63.7384823763
10
16.7617128465
20
63.7522543625
10
16.761067
20
63.763519
10
16.7607248087
20
63.7740106126
10
16.7598116879
20
63.7854887455
10
16.7583422045
20
63.7979109223
10
16.7563309253
20
63.8112346663
10
16.7537924174
20
63.8254175012
10
16.7507412475
20
63.8404169504
10
16.7471919826
20
63.8561905373
10
16.7431591895
20
63.8726957855
10
16.738657435
20
63.8898902184
10
16.7337012862
20
63.9077313594
10
16.7283053098
20
63.9261767322
10
16.7224840728
20
63.9451838601
10
16.716252142
20
63.9647102667
10
16.7096240844
20
63.9847134754
10
16.7026144667
20
64.0051510097
10
16.6952378559
20
64.025980393
10
16.6875088189
20
64.047159149
10
16.6794419225
20
64.0686448009
10
16.6710517336
20
64.0903948724
10
16.6623528192
20
64.1123668869
10
16.6533597461
20
64.1345183679
10
16.6440870811
20
64.1568068389
10
16.6345493912
20
64.1791898233
10
16.6247612432
20
64.2016248446
10
16.6147372041
20
64.2240694263
10
16.6044918407
20
64.2464810919
10
16.5940397198
20
64.2688173649
10
16.5833954084
20
64.2910357687
10
16.5725734734
20
64.3130938268
10
16.5615884817
20
64.3349490628
10
16.550455
20
64.356559
10
16.4948891401
20
64.4673442437
10
16.4431718069
20
64.5792922464
10
16.3953028858
20
64.6923707056
10
16.3512822626
20
64.8065473189
10
16.3111098228
20
64.9217897838
10
16.2747854519
20
65.0380657979
10
16.2423090357
20
65.1553430587
10
16.2136804598
20
65.2735892639
10
16.1888996096
20
65.3927721109
10
16.1679663709
20
65.5128592974
10
16.1508806292
20
65.6338185209
10
16.1376422701
20
65.7556174789
10
16.1282511793
20
65.878223869
10
16.1227072423
20
66.0016053888
10
16.1210103447
20
66.1257297358
0
LWPOLYLINE
5
48
100
AcDbEntity
8
0
6
ByLayer
62
256
370
-1
100
AcDbPolyline
90
435
70
1
43
0
10
6.790218
20
48.233601
10
6.81516052878
20
48.2331023312
10
6.83948489
20
48.231580536
10
6.8632272782
20
48.2289969313
10
6.88642388795
20
48.225312834
10
6.9091109138
20
48.2204895611
10
6.9313245503
20
48.2144884295
10
6.95310099201
20
48.207270756
10
6.97447643349
20
48.1987978576
10
6.99548706928
20
48.1890310511
10
7.01616909395
20
48.1779316536
10
7.03655870206
20
48.1654609818
10
7.05669208815
20
48.1515803527
10
7.07660544678
20
48.1362510832
10
7.09633497251
20
48.1194344902
10
7.11591685989
20
48.1010918907
10
7.13538730348
20
48.0811846015
10
7.15478249783
20
48.0596739395
10
7.17413863751
20
48.0365212217
10
7.19349191706
20
48.0116877649
10
7.21287853103
20
47.9851348861
10
7.232334674
20
47.9568239021
10
7.2518965405
20
47.9267161299
10
7.2716003251
20
47.8947728864
10
7.29148222235
20
47.8609554885
10
7.31157842681
20
47.8252252531
10
7.33192513303
20
47.7875434971
10
7.35255853556
20
47.7478715374
10
7.37351482898
20
47.706170691
10
7.39483020781
20
47.6624022746
10
7.41654086664
20
47.6165276054
10
7.438683
20
47.568508
10
7.45478127673
20
47.532758632
10
7.47064431684
20
47.4967168643
10
7.48625201588
20
47.460449879
10
7.50158426938
20
47.4240248581
10
7.51662097288
20
47.3875089837
10
7.53134202192
20
47.3509694377
10
7.54572731204
20
47.3144734023
10
7.55975673878
20
47.2780880595
10
7.57341019768
20
47.2418805912
10
7.58666758427
20
47.2059181796
10
7.5995087941
20
47.1702680066
10
7.6119137227
20
47.1349972543
10
7.62386226562
20
47.1001731048
10
7.63533431838
20
47.06586274
10
7.64630977654
20
47.032133342
10
7.65676853563
20
46.9990520929
10
7.66669049119
20
46.9666861747
10
7.67605553875
20
46.9351027693
10
7.68484357386
20
46.9043690589
10
7.69303449206
20
46.8745522254
10
7.70060818888
20
46.845719451
10
7.70754455987
20
46.8179379176
10
7.71382350055
20
46.7912748073
10
7.71942490648
20
46.7657973021
10
7.72432867319
20
46.7415725841
10
7.72851469622
20
46.7186678353
10
7.7319628711
20
46.6971502376
10
7.73465309338
20
46.6770869732
10
7.7365652586
20
46.6585452242
10
7.73767926229
20
46.6415921724
10
7.737975
20
46.626295
10
7.73688117002
20
46.5991595098
10
7.73412374412
20
46.5703590405
10
7.72981701192
20
46.5401222721
10
7.72407526303
20
46.5086778842
10
7.71701278708
20
46.4762545566
10
7.70874387369
20
46.4430809689
10
7.69938281246
20
46.409385801
10
7.68904389302
20
46.3753977325
10
7.67784140499
20
46.3413454432
10
7.66588963798
20
46.3074576129
10
7.65330288161
20
46.2739629212
10
7.6401954255
20
46.2410900479
10
7.62668155926
20
46.2090676728
10
7.61287557252
20
46.1781244755
10
7.59889175489
20
46.1484891358
10
7.58484439599
20
46.1203903335
10
7.57084778544
20
46.0940567482
10
7.55701621285
20
46.0697170598
10
7.54346396784
20
46.0475999479
10
7.53030534004
20
46.0279340923
10
7.51765461905
20
46.0109481728
10
7.50562609449
20
45.996870869
10
7.49433405599
20
45.9859308606
10
7.48389279316
20
45.9783568275
10
7.47441659562
20
45.9743774494
10
7.46601975298
20
45.974221406
10
7.45881655487
20
45.978117377
10
7.45292129089
20
45.9862940421
10
7.44844825068
20
45.9989800812
10
7.44551172384
20
46.0164041739
10
7.444226
20
46.038795
10
7.44191489034
20
46.059601243
10
7.43591251083
20
46.0749169088
10
7.42641567279
20
46.0849519509
10
7.41362118754
20
46.0899163227
10
7.3977258664
20
46.0900199777
10
7.37892652069
20
46.0854728694
10
7.35741996173
20
46.0764849512
10
7.33340300084
20
46.0632661767
10
7.30707244933
20
46.0460264992
10
7.27862511853
20
46.0249758724
10
7.24825781974
20
46.0003242496
10
7.2161673643
20
45.9722815844
10
7.18255056353
20
45.9410578302
10
7.14760422873
20
45.9068629405
10
7.11152517123
20
45.8699068687
10
7.07451020234
20
45.8303995684
10
7.0367561334
20
45.788550993
10
6.9984597757
20
45.7445710959
10
6.95981794059
20
45.6986698308
10
6.92102743936
20
45.651057151
10
6.88228508335
20
45.60194301
10
6.84378768386
20
45.5515373613
10
6.80573205223
20
45.5000501584
10
6.76831499977
20
45.4476913547
10
6.73173333779
20
45.3946709038
10
6.69618387761
20
45.3411987591
10
6.66186343057
20
45.287484874
10
6.62896880796
20
45.2337392021
10
6.59769682112
20
45.1801716968
10
6.56824428136
20
45.1269923116
10
6.540808
20
45.074411
10
6.52584960015
20
45.0443248803
10
6.50930812272
20
45.0101975447
10
6.49124827995
20
44.9721785934
10
6.47173478406
20
44.9304176263
10
6.45083234729
20
44.8850642434
10
6.42860568185
20
44.8362680448
10
6.40511949998
20
44.7841786305
10
6.38043851391
20
44.7289456004
10
6.35462743587
20
44.6707185546
10
6.32775097808
20
44.6096470931
10
6.29987385277
20
44.545880816
10
6.27106077218
20
44.4795693231
10
6.24137644852
20
44.4108622146
10
6.21088559404
20
44.3399090905
10
6.17965292095
20
44.2668595507
10
6.14774314149
20
44.1918631954
10
6.11522096788
20
44.1150696244
10
6.08215111235
20
44.0366284378
10
6.04859828713
20
43.9566892357
10
6.01462720446
20
43.875401618
10
5.98030257655
20
43.7929151847
10
5.94568911564
20
43.7093795359
10
5.91085153395
20
43.6249442716
10
5.87585454372
20
43.5397589918
10
5.84076285717
20
43.4539732965
10
5.80564118653
20
43.3677367857
10
5.77055424403
20
43.2811990594
10
5.7355667419
20
43.1945097177
10
5.70074339237
20
43.1078183606
10
5.66614890766
20
43.021274588
10
5.631848
20
42.935028
10
5.58630028431
20
42.8206975052
10
5.54228832654
20
42.7112563263
10
5.49976639448
20
42.6066271157
10
5.45868875593
20
42.5067325254
10
5.41900967869
20
42.4114952075
10
5.38068343057
20
42.3208378143
10
5.34366427935
20
42.2346829978
10
5.30790649283
20
42.1529534102
10
5.27336433883
20
42.0755717037
10
5.23999208513
20
42.0024605303
10
5.20774399953
20
41.9335425422
10
5.17657434984
20
41.8687403917
10
5.14643740385
20
41.8079767307
10
5.11728742936
20
41.7511742115
10
5.08907869417
20
41.6982554862
10
5.06176546608
20
41.6491432069
10
5.03530201289
20
41.6037600258
10
5.0096426024
20
41.562028595
10
4.9847415024
20
41.5238715667
10
4.9605529807
20
41.489211593
10
4.93703130509
20
41.4579713261
10
4.91413074338
20
41.4300734181
10
4.89180556336
20
41.4054405211
10
4.87001003283
20
41.3839952873
10
4.84869841959
20
41.3656603688
10
4.82782499144
20
41.3503584178
10
4.80734401618
20
41.3380120865
10
4.78720976161
20
41.3285440269
10
4.76737649552
20
41.3218768911
10
4.74779848572
20
41.3179333315
10
4.72843
20
41.316636
10
4.69915919952
20
41.3186514653
10
4.67086439327
20
41.3247398013
10
4.64353181273
20
41.3349639183
10
4.61714768937
20
41.3493867266
10
4.59169825467
20
41.3680711365
10
4.56716974012
20
41.3910800581
10
4.54354837719
20
41.4184764019
10
4.52082039737
20
41.4503230781
10
4.49897203212
20
41.4866829969
10
4.47798951294
20
41.5276190687
10
4.4578590713
20
41.5731942037
10
4.43856693867
20
41.6234713121
10
4.42009934655
20
41.6785133044
10
4.4024425264
20
41.7383830906
10
4.38558270971
20
41.8031435811
10
4.36950612796
20
41.8728576863
10
4.35419901262
20
41.9475883163
10
4.33964759518
20
42.0273983814
10
4.32583810711
20
42.1123507919
10
4.3127567799
20
42.2025084581
10
4.30038984502
20
42.2979342903
10
4.28872353395
20
42.3986911987
10
4.27774407818
20
42.5048420936
10
4.26743770917
20
42.6164498853
10
4.25779065842
20
42.733577484
10
4.2487891574
20
42.8562878001
10
4.24041943758
20
42.9846437437
10
4.23266773046
20
43.1187082253
10
4.2255202675
20
43.258544155
10
4.21896328019
20
43.4042144432
10
4.212983
20
43.555782
10
4.20761304696
20
43.7693159407
10
4.20665710305
20
43.9943911595
10
4.20991752496
20
44.2297504286
10
4.21719666936
20
44.4741365204
10
4.22829689295
20
44.7262922071
10
4.24302055242
20
44.9849602612
10
4.26117000443
20
45.2488834548
10
4.28254760569
20
45.5168045604
10
4.30695571287
20
45.7874663502
10
4.33419668266
20
46.0596115965
10
4.36407287174
20
46.3319830717
10
4.3963866368
20
46.6033235481
10
4.43094033453
20
46.872375798
10
4.46753632161
20
47.1378825937
10
4.50597695472
20
47.3985867075
10
4.54606459055
20
47.6532309117
10
4.58760158578
20
47.9005579787
10
4.6303902971
20
48.1393106807
10
4.6742330812
20
48.3682317901
10
4.71893229475
20
48.5860640792
10
4.76429029445
20
48.7915503202
10
4.81010943698
20
48.9834332856
10
4.85619207902
20
49.1604557476
10
4.90234057725
20
49.3213604786
10
4.94835728838
20
49.4648902508
10
4.99404456906
20
49.5897878366
10
5.03920477601
20
49.6947960083
10
5.08364026589
20
49.7786575381
10
5.12715339539
20
49.8401151985
10
5.1695465212
20
49.8779117617
10
5.210622
20
49.89079
10
5.21875369128
20
49.8910644771
10
5.22656033567
20
49.8918789949
10
5.23403674059
20
49.8932201831
10
5.24117771347
20
49.8950746712
10
5.24797806173
20
49.897429089
10
5.2544325928
20
49.9002700661
10
5.26053611409
20
49.9035842321
10
5.26628343305
20
49.9073582167
10
5.27166935709
20
49.9115786496
10
5.27668869363
20
49.9162321604
10
5.28133625011
20
49.9213053787
10
5.28560683394
20
49.9267849343
10
5.28949525256
20
49.9326574567
10
5.29299631338
20
49.9389095757
10
5.29610482384
20
49.9455279208
10
5.29881559135
20
49.9524991218
10
5.30112342335
20
49.9598098083
10
5.30302312725
20
49.9674466098
10
5.30450951049
20
49.9753961562
10
5.30557738048
20
49.983645077
10
5.30622154466
20
49.9921800019
10
5.30643681045
20
50.0009875606
10
5.30621798526
20
50.0100543827
10
5.30555987654
20
50.0193670978
10
5.3044572917
20
50.0289123356
10
5.30290503817
20
50.0386767258
10
5.30089792337
20
50.048646898
10
5.29843075472
20
50.0588094819
10
5.29549833967
20
50.069151107
10
5.29209548562
20
50.0796584032
10
5.288217
20
50.090318
10
5.28428265923
20
50.1012294997
10
5.28071335393
20
50.112482801
10
5.27750585321
20
50.1240511395
10
5.27465692615
20
50.1359077507
10
5.27216334185
20
50.1480258702
10
5.27002186939
20
50.1603787334
10
5.26822927787
20
50.1729395759
10
5.26678233638
20
50.1856816333
10
5.265677814
20
50.1985781411
10
5.26491247984
20
50.2116023349
10
5.26448310298
20
50.2247274501
10
5.26438645252
20
50.2379267224
10
5.26461929754
20
50.2511733872
10
5.26517840714
20
50.2644406801
10
5.2660605504
20
50.2777018367
10
5.26726249643
20
50.2909300925
10
5.2687810143
20
50.304098683
10
5.27061287312
20
50.3171808438
10
5.27275484197
20
50.3301498104
10
5.27520368994
20
50.3429788184
10
5.27795618613
20
50.3556411032
10
5.28100909963
20
50.3681099005
10
5.28435919952
20
50.3803584458
10
5.28800325491
20
50.3923599746
10
5.29193803488
20
50.4040877224
10
5.29616030852
20
50.4155149248
10
5.30066684492
20
50.4266148174
10
5.30545441318
20
50.4373606357
10
5.31051978238
20
50.4477256152
10
5.31585972163
20
50.4576829914
10
5.321471
20
50.467206
10
5.3231937941
20
50.4699356625
10
5.32493365248
20
50.4725759976
10
5.32669172475
20
50.4751272842
10
5.32846916052
20
50.4775898017
10
5.3302671094
20
50.479963829
10
5.33208672099
20
50.4822496455
10
5.33392914491
20
50.4844475301
10
5.33579553076
20
50.4865577621
10
5.33768702816
20
50.4885806206
10
5.33960478671
20
50.4905163847
10
5.34154995603
20
50.4923653336
10
5.34352368571
20
50.4941277464
10
5.34552712537
20
50.4958039024
10
5.34756142462
20
50.4973940805
10
5.34962773307
20
50.49889856
10
5.35172720033
20
50.50031762
10
5.353860976
20
50.5016515397
10
5.35603020969
20
50.5029005982
10
5.35823605102
20
50.5040650746
10
5.36047964959
20
50.5051452481
10
5.36276215501
20
50.5061413978
10
5.36508471689
20
50.507053803
10
5.36744848484
20
50.5078827426
10
5.36985460847
20
50.5086284959
10
5.37230423739
20
50.509291342
10
5.3747985212
20
50.5098715601
10
5.37733860951
20
50.5103694293
10
5.37992565194
20
50.5107852288
10
5.38256079809
20
50.5111192376
10
5.38524519758
20
50.511371735
10
5.38798
20
50.511543
10
5.38798
20
50.511543
10
5.39640913511
20
50.5115594505
10
5.40513346796
20
50.5108223293
10
5.41415187372
20
50.5093317984
10
5.42346322755
20
50.5070880196
10
5.43306640462
20
50.504091155
10
5.44296028008
20
50.5003413664
10
5.45314372911
20
50.4958388157
10
5.46361562687
20
50.4905836649
10
5.47437484851
20
50.4845760759
10
5.48542026921
20
50.4778162107
10
5.49675076412
20
50.4703042311
10
5.50836520842
20
50.4620402992
10
5.52026247726
20
50.4530245768
10
5.53244144581
20
50.4432572258
10
5.54490098922
20
50.4327384082
10
5.55763998268
20
50.4214682859
10
5.57065730133
20
50.4094470208
10
5.58395182035
20
50.396674775
10
5.59752241489
20
50.3831517102
10
5.61136796012
20
50.3688779884
10
5.62548733121
20
50.3538537716
10
5.63987940331
20
50.3380792217
10
5.65454305159
20
50.3215545006
10
5.66947715122
20
50.3042797702
10
5.68468057736
20
50.2862551924
10
5.70015220516
20
50.2674809293
10
5.7158909098
20
50.2479571427
10
5.73189556645
20
50.2276839945
10
5.74816505025
20
50.2066616467
10
5.76469823638
20
50.1848902613
10
5.781494
20
50.16237
10
5.80337001255
20
50.1324797057
10
5.82421245839
20
50.1033840349
10
5.84401807882
20
50.0750873218
10
5.86278361512
20
50.0475939005
10
5.8805058086
20
50.0209081053
10
5.89718140056
20
49.9950342704
10
5.91280713229
20
49.9699767299
10
5.92737974509
20
49.945739818
10
5.94089598026
20
49.922327869
10
5.9533525791
20
49.899745217
10
5.9647462829
20
49.8779961963
10
5.97507383297
20
49.8570851409
10
5.9843319706
20
49.8370163853
10
5.99251743708
20
49.8177942634
10
5.99962697372
20
49.7994231095
10
6.00565732181
20
49.7819072578
10
6.01060522265
20
49.7652510426
10
6.01446741754
20
49.7494587979
10
6.01724064778
20
49.734534858
10
6.01892165466
20
49.7204835571
10
6.01950717948
20
49.7073092294
10
6.01899396355
20
49.6950162091
10
6.01737874815
20
49.6836088303
10
6.01465827458
20
49.6730914273
10
6.01082928415
20
49.6634683342
10
6.00588851814
20
49.6547438853
10
5.99983271787
20
49.6469224148
10
5.99265862462
20
49.6400082568
10
5.98436297969
20
49.6340057455
10
5.97494252439
20
49.6289192152
10
5.964394
20
49.624753
10
5.92160082569
20
49.6059787987
10
5.88609486979
20
49.5809836682
10
5.85760112806
20
49.5502311415
10
5.83584459622
20
49.5141847513
10
5.82055027001
20
49.4733080307
10
5.81144314518
20
49.4280645125
10
5.80824821745
20
49.3789177295
10
5.81069048256
20
49.3263312146
10
5.81849493626
20
49.2707685008
10
5.83138657427
20
49.2126931208
10
5.84909039233
20
49.1525686077
10
5.87133138619
20
49.0908584941
10
5.89783455158
20
49.0280263131
10
5.92832488423
20
48.9645355976
10
5.96252737988
20
48.9008498803
10
6.00016703427
20
48.8374326941
10
6.04096884314
20
48.7747475721
10
6.08465780222
20
48.7132580469
10
6.13095890725
20
48.6534276515
10
6.17959715397
20
48.5957199189
10
6.23029753812
20
48.5405983818
10
6.28278505542
20
48.4885265731
10
6.33678470162
20
48.4399680257
10
6.39202147246
20
48.3953862726
10
6.44822036367
20
48.3552448465
10
6.50510637098
20
48.3200072804
10
6.56240449015
20
48.2901371071
10
6.61983971689
20
48.2660978596
10
6.67713704696
20
48.2483530706
10
6.73402147608
20
48.2373662731
0
ENDSEC
0
SECTION
2
OBJECTS
0
DICTIONARY
5
C
330
0
100
AcDbDictionary
281
1
3
ACAD_GROUP
350
D
0
DICTIONARY
5
D
330
C
100
AcDbDictionary
281
1
0
ENDSEC
0
EOF
