<?xml version="1.0" encoding="UTF-8" standalone="no"?>
<!-- Created with Inkscape (http://www.inkscape.org/) -->

<svg
   xmlns:dc="http://purl.org/dc/elements/1.1/"
   xmlns:cc="http://creativecommons.org/ns#"
   xmlns:rdf="http://www.w3.org/1999/02/22-rdf-syntax-ns#"
   xmlns:svg="http://www.w3.org/2000/svg"
   xmlns="http://www.w3.org/2000/svg"
   xmlns:sodipodi="http://sodipodi.sourceforge.net/DTD/sodipodi-0.dtd"
   xmlns:inkscape="http://www.inkscape.org/namespaces/inkscape"
   id="svg2"
   version="1.1"
   inkscape:version="0.48.4 r9939"
   width="215.13866"
   height="354.33072"
   sodipodi:docname="silhouette_gumi_by_neko_soundkitten-d4gymdz.png">
  <metadata
     id="metadata8">
    <rdf:RDF>
      <cc:Work
         rdf:about="">
        <dc:format>image/svg+xml</dc:format>
        <dc:type
           rdf:resource="http://purl.org/dc/dcmitype/StillImage" />
        <dc:title></dc:title>
      </cc:Work>
    </rdf:RDF>
  </metadata>
  <defs
     id="defs6" />
  <sodipodi:namedview
     pagecolor="#ffffff"
     bordercolor="#666666"
     borderopacity="1"
     objecttolerance="10"
     gridtolerance="10"
     guidetolerance="10"
     inkscape:pageopacity="0"
     inkscape:pageshadow="2"
     inkscape:window-width="1916"
     inkscape:window-height="1041"
     id="namedview4"
     showgrid="false"
     fit-margin-top="0"
     fit-margin-left="0"
     fit-margin-right="0"
     fit-margin-bottom="0"
     inkscape:zoom="0.6675088"
     inkscape:cx="4.1946977"
     inkscape:cy="449.88209"
     inkscape:window-x="0"
     inkscape:window-y="18"
     inkscape:window-maximized="0"
     inkscape:current-layer="svg2" />
  <path
     style="fill:#ff0000;stroke:none"
     d="m 24.912323,353.86619 c -0.93663,-0.24676 -0.92797,-0.41538 0.11698,-2.27581 2.39111,-4.25718 4.17765,-6.7984 5.16975,-7.35361 0.85184,-0.47671 0.89973,-0.73712 0.27415,-1.49089 -0.41689,-0.50231 -1.52658,-1.08211 -2.46599,-1.28844 -1.85719,-0.4079 -5.59374,-4.40726 -11.83129,-12.66342 -2.04297,-2.70413 -4.05029,-4.9166 -4.4607,-4.9166 -0.83217,0 -3.96258,-3.17485 -6.855707,-6.95303 C 2.683505,314.08271 0,308.34024 0,306.52544 c 0,-1.08594 0.257395,-1.18516 2.234819,-0.86148 4.265994,0.6983 9.360774,0.48605 11.586914,-0.48272 l 2.20067,-0.9577 -0.34038,-4.06006 c -0.23997,-2.86236 -0.0541,-5.04486 0.6301,-7.3984 0.53376,-1.83608 0.97048,-4.43682 0.97048,-5.77941 0,-1.71246 0.38716,-2.82823 1.2971,-3.73818 0.71341,-0.7134 1.8636,-2.36837 2.55599,-3.6777 0.6924,-1.30933 1.99003,-2.92647 2.88364,-3.59365 1.51382,-1.13023 1.736,-1.14924 3.25453,-0.27857 0.89639,0.51395 3.77523,1.38847 6.39741,1.94338 2.62219,0.55491 5.59119,1.26253 6.59779,1.57248 2.68175,0.82577 6.41457,0.68756 7.74014,-0.28659 1.05365,-0.7743 1.15167,-1.58488 1.09902,-9.08826 -0.0732,-10.42988 -0.91244,-16.60228 -3.84995,-28.31502 -3.04635,-12.14673 -5.3295,-27.26431 -5.3295,-35.28863 0,-3.45099 0.42861,-9.30074 0.95248,-12.99946 0.76605,-5.40865 0.86443,-9.05791 0.50261,-18.64399 -0.24743,-6.55547 -0.47492,-23.99302 -0.50552,-38.75013 l -0.0556,-26.83109 1.95765,-3.97581 c 2.02219,-4.10689 3.99772,-6.051649 9.21645,-9.072929 3.05131,-1.76648 3.59238,-2.71746 1.54614,-2.71746 -0.70655,0 -2.19445,-0.69394 -3.30643,-1.54209 -1.90694,-1.4545 -1.9995,-1.69068 -1.62949,-4.15807 l 0.39229,-2.61598 -4.98223,0.41651 c -2.74022,0.22908 -5.92085,0.4241 -7.06806,0.43337 -2.00312,0.0162 -2.083,-0.0659 -2.01437,-2.06897 0.0393,-1.14721 0.5682,-3.3448 1.17532,-4.88353 0.60712,-1.53873 0.93617,-2.96538 0.73122,-3.17033 -0.20494,-0.20494 -1.46579,0.18509 -2.8019,0.86671 -2.74944,1.40266 -4.17278,3.7028 -4.78044,7.72527 l -0.41387,2.73962 -0.99741,-1.876 c -0.54858,-1.0318 -1.28015,-3.13763 -1.62571,-4.67962 -0.34557,-1.542 -1.30229,-3.68726 -2.12604,-4.76726 -2.35234,-3.08407 -2.70074,-5.10292 -1.387,-8.03725 1.88815,-4.21732 1.44654,-4.44943 -3.93626,-2.0689 -1.88428,0.83332 -3.52287,1.41823 -3.6413,1.29979 -0.11844,-0.11844 0.85192,-1.00138 2.15636,-1.96209 1.30443,-0.96071 2.30625,-2.1164 2.22626,-2.56821 -0.08,-0.4518 -1.73429,-1.39042 -3.67621,-2.08583 -1.94192,-0.6954 -3.65463,-1.64233 -3.80602,-2.10428 -0.20601,-0.62865 0.008,-0.71351 0.84899,-0.3374 2.5887,1.15708 7.46323,1.00259 11.73824,-0.37201 5.15923,-1.65891 8.37586,-4.58485 10.78048,-9.80623 0.89748,-1.94878 2.26689,-4.75958 3.04314,-6.24621 0.77624,-1.48663 2.00088,-5.10704 2.72142,-8.04535 2.6466,-10.79268 9.33564,-21.30677 18.19648,-28.6019303 6.05472,-4.98486998 5.16868,-4.75425998 18.11334,-4.71446998 13.48357,0.0414 25.058197,1.09271998 29.970277,2.72207998 5.77486,1.91555 12.63254,6.98447 17.85745,13.1995203 2.54166,3.02332 5.29411,6.84794 6.11653,8.49916 2.76911,5.55964 4.39441,17.63414 5.29141,39.31036 l 0.29594,7.15143 -1.98634,-4.17167 c -2.26308,-4.7529 -2.21467,-4.80916 -3.28688,3.81946 -1.04334,8.3963 -1.20168,7.92599 3.84237,11.41294 4.29922,2.97205 7.21044,6.35643 6.72373,7.81656 -0.12806,0.3842 -0.83896,-0.15266 -1.57975,-1.19301 -0.7408,-1.04036 -1.55958,-1.89156 -1.81951,-1.89156 -0.25993,0 -0.61851,1.60918 -0.79685,3.57594 -0.2122,2.3401 -0.87243,4.51134 -1.91041,6.28251 l -1.58614,2.70656 1.91636,2.182609 c 2.43904,2.77792 4.41183,7.09089 5.61176,12.2686 0.79537,3.43205 0.83897,5.02381 0.27739,10.12736 -0.71959,6.53949 -2.06948,10.46945 -5.06446,14.7442 -3.12792,4.46449 -3.3387,5.1424 -3.85004,12.38212 -0.64037,9.0667 -4.79626,24.2379 -9.94207,36.29384 -1.43327,3.35796 -2.8616,7.45344 -3.17407,9.10107 -0.31247,1.64764 -1.0048,4.66605 -1.53852,6.70759 -1.35655,5.189 -0.93398,14.53419 0.83747,18.52082 2.30132,5.1791 5.25692,8.62772 8.03552,9.37592 4.63678,1.24855 13.26709,5.70423 21.00567,10.84485 9.31993,6.19109 9.72815,6.55908 11.50868,10.37478 l 1.4081,3.01755 3.65749,-0.28777 c 2.56721,-0.202 5.25636,0.10119 9.02106,1.01708 2.94997,0.71768 8.04737,1.53037 11.32755,1.80597 9.36187,0.7866 15.82071,3.75757 16.79936,7.72744 0.20424,0.82851 0.88105,2.49122 1.50402,3.69491 0.9523,1.84 1.53029,2.2519 3.62943,2.58644 4.03112,0.64246 7.56234,1.59249 7.56234,2.03454 0,0.22578 -1.05733,0.87701 -2.34963,1.44717 -4.78912,2.11296 -9.5694,8.95311 -9.5694,13.69296 0,0.86285 -0.77298,2.42937 -1.74503,3.53647 -0.95977,1.09312 -2.20818,3.18083 -2.77423,4.63936 -0.56606,1.45854 -1.38986,3.07527 -1.83068,3.59274 -0.44082,0.51747 -0.80148,1.4175 -0.80148,2.00008 0,3.0457 -8.66021,10.44921 -13.61265,11.63728 -2.63648,0.63248 -3.09098,0.9978 -4.52935,3.64055 -0.87934,1.61564 -1.96376,2.93753 -2.40981,2.93753 -0.44605,0 -1.6523,-0.7079 -2.68055,-1.57311 -1.27744,-1.0749 -2.0631,-1.37955 -2.48073,-0.96192 -0.33616,0.33616 -2.17408,5.93831 -4.08428,12.44923 -4.51229,15.38017 -6.32932,20.50826 -7.78431,21.96922 -1.14394,1.14862 -2.10548,1.1984 -26.48272,1.37077 l -25.29568,0.17886 0.36996,-4.79749 c 0.35983,-4.66614 0.33383,-4.79749 -0.94945,-4.79749 -1.73586,0 -3.163,-0.80199 -7.025407,-3.94797 -1.76072,-1.43413 -3.61638,-2.6075 -4.12367,-2.6075 -0.95085,0 -3.88033,2.8838 -11.43676,11.25843 l -4.36014,4.83227 -26.62935,-0.0691 c -14.64614,-0.038 -27.08456,-0.18906 -27.64093,-0.33564 z"
     id="path2991"
     inkscape:connector-curvature="0" />
</svg>
