<?xml version="1.0" encoding="UTF-8" standalone="no"?>
<!-- Created with Inkscape (http://www.inkscape.org/) -->

<svg
   xmlns:dc="http://purl.org/dc/elements/1.1/"
   xmlns:cc="http://creativecommons.org/ns#"
   xmlns:rdf="http://www.w3.org/1999/02/22-rdf-syntax-ns#"
   xmlns:svg="http://www.w3.org/2000/svg"
   xmlns="http://www.w3.org/2000/svg"
   xmlns:sodipodi="http://sodipodi.sourceforge.net/DTD/sodipodi-0.dtd"
   xmlns:inkscape="http://www.inkscape.org/namespaces/inkscape"
   id="svg2"
   version="1.1"
   inkscape:version="0.48.4 r9939"
   width="216.91599"
   height="354.33072"
   sodipodi:docname="ia.svg">
  <metadata
     id="metadata8">
    <rdf:RDF>
      <cc:Work
         rdf:about="">
        <dc:format>image/svg+xml</dc:format>
        <dc:type
           rdf:resource="http://purl.org/dc/dcmitype/StillImage" />
        <dc:title />
      </cc:Work>
    </rdf:RDF>
  </metadata>
  <defs
     id="defs6" />
  <sodipodi:namedview
     pagecolor="#ffffff"
     bordercolor="#666666"
     borderopacity="1"
     objecttolerance="10"
     gridtolerance="10"
     guidetolerance="10"
     inkscape:pageopacity="0"
     inkscape:pageshadow="2"
     inkscape:window-width="1916"
     inkscape:window-height="1041"
     id="namedview4"
     showgrid="false"
     fit-margin-top="0"
     fit-margin-left="0"
     fit-margin-right="0"
     fit-margin-bottom="0"
     inkscape:zoom="2.5145999"
     inkscape:cx="108.45799"
     inkscape:cy="177.16536"
     inkscape:window-x="0"
     inkscape:window-y="18"
     inkscape:window-maximized="0"
     inkscape:current-layer="svg2" />
  <path
     style="fill:#ff0000;stroke:none"
     d="m 67.950795,352.2264 c -2.924044,-5.7316 -4.433656,-14.6136 -5.041022,-29.6595 -0.353013,-8.7453 -0.527127,-9.8234 -2.629111,-16.2802 -1.636701,-5.0276 -2.839055,-7.6324 -4.405476,-9.544 -2.322659,-2.8345 -2.519418,-4.0841 -0.265265,-1.6847 0.75493,0.8036 1.524231,1.4614 1.70956,1.4619 0.185347,0 0.252582,-4.4088 0.149428,-9.7981 -0.203692,-10.6425 0.596474,-17.3666 3.085437,-25.9277 0.74576,-2.5651 1.137665,-4.6638 0.870931,-4.6638 -0.805793,0 -5.175097,6.4599 -7.368198,10.8936 -1.132307,2.2892 -2.547813,5.9768 -3.145542,8.1948 -0.888863,3.2982 -1.09225,3.6596 -1.116776,1.984 -0.04301,-2.9393 3.399056,-12.4552 6.289724,-17.3883 1.359415,-2.32 4.323337,-6.4834 6.586518,-9.252 5.059224,-6.1893 8.069402,-10.8292 8.534669,-13.1555 l 0.352726,-1.7637 -9.707446,0 c -5.339091,0 -11.695206,-0.2956 -14.124674,-0.6569 l -4.417228,-0.657 -2.332799,2.5593 c -1.283045,1.4077 -3.118706,4.1398 -4.07923,6.0715 -0.960539,1.9316 -1.753145,3.103 -1.761368,2.603 -0.0082,-0.4999 1.038649,-3.0877 2.326421,-5.7506 1.287755,-2.6629 2.34138,-5.1985 2.34138,-5.6346 0,-0.4361 -2.041395,-2.0329 -4.536431,-3.5484 -8.665662,-5.2637 -10.964101,-7.0165 -16.515159,-12.5951 -3.069889,-3.0851 -7.440412,-7.0906 -9.7123016,-8.9011 C 5.1613029,206.0427 0,200.5789 0,199.564 c 0,-0.2507 1.1194808,0.6167 2.4877092,1.9277 2.6094943,2.5002 6.0539281,4.7326 6.544741,4.2418 0.1585644,-0.1586 -0.6038916,-3.0422 -1.6943503,-6.408 -2.3132006,-7.14 -3.7282585,-14.6392 -4.0817183,-21.6314 -0.1383205,-2.7365 -0.138016,-4.1852 0,-3.2194 1.2019069,8.3688 1.6963566,10.8343 2.8576865,14.2488 2.7044611,7.9514 5.9509179,12.739 13.5650499,20.0047 5.152811,4.9171 6.164927,5.3617 15.319576,6.7305 6.312671,0.9439 17.340029,1.4049 17.992739,0.7522 0.221303,-0.2213 -1.173279,-2.5905 -3.099054,-5.265 -4.628928,-6.4284 -15.577872,-24.701 -18.366246,-30.6512 -2.705894,-5.7742 -4.288528,-7.8659 -5.960465,-7.8777 -1.853703,-0.013 -2.481279,-0.6022 -3.293,-3.0919 -0.487607,-1.4955 -1.472977,-2.718 -3.011558,-3.7362 -2.357915,-1.5603 -2.527641,-2.048 -2.306392,-6.6258 0.168524,-3.487 1.587954,-8.8054 4.299635,-16.1101 1.43145,-3.8561 2.794286,-8.1964 3.028505,-9.6451 0.234235,-1.4487 0.901259,-3.8194 1.482272,-5.2681 5.059942,-12.6167 5.527574,-14.1433 4.507376,-14.7142 -0.545381,-0.3052 -1.266221,-1.0681 -1.601892,-1.6952 -0.849593,-1.5875 0.234201,-3.4843 6.191031,-10.8347 3.593682,-4.4345 4.941111,-6.5482 4.941111,-7.7512 0,-0.9097 0.658515,-2.5465 1.463356,-3.6375 1.807841,-2.4504 1.812464,-3.0344 0.05812,-7.3622 -0.772882,-1.9067 -1.497251,-4.2492 -1.609703,-5.2057 -0.20197,-1.718 -0.151146,-1.7515 4.185643,-2.7579 2.414546,-0.5604 4.971209,-1.1628 5.681478,-1.3387 0.912566,-0.2261 1.403628,-0.9183 1.674053,-2.3598 0.55314,-2.9484 3.52025,-5.2838 8.596905,-6.7665 8.026155,-2.3441 9.714415,-2.9574 10.393424,-3.7755 1.004342,-1.2102 0.150716,-2.1038 -1.591896,-1.6664 -1.061975,0.2666 -1.390872,0.1797 -1.100277,-0.2905 0.756527,-1.2241 -5.028267,-0.791 -6.67869,0.5 -0.804842,0.6295 -2.064291,1.1505 -2.798747,1.1576 -0.734472,0.01 -1.483277,0.3984 -1.663985,0.8693 -0.180723,0.471 -1.687039,1.3692 -3.34737,1.9961 -1.66033,0.6268 -3.808982,1.5569 -4.774808,2.0668 -0.965825,0.5099 -2.342617,0.9287 -3.05957,0.9307 -0.741745,0 -1.71676,0.6343 -2.262358,1.467 -1.109036,1.6926 -1.805566,1.8161 -3.18766,0.5653 -0.82462,-0.7463 -1.471687,-0.7906 -3.829441,-0.2622 -3.523509,0.7897 -10.628681,3.6057 -14.832973,5.879 -1.745067,0.9435 -3.271806,1.6166 -3.392713,1.4957 -0.419154,-0.4192 4.480592,-3.938 7.849784,-5.6375 1.862086,-0.9392 5.301397,-2.0168 7.642938,-2.3945 3.647321,-0.5884 4.361137,-0.9009 4.981905,-2.1812 0.435132,-0.8976 1.463802,-1.6847 2.575223,-1.9706 1.208696,-0.311 3.198784,-1.947 5.737158,-4.7166 2.137562,-2.3322 4.597342,-4.6558 5.466159,-5.1635 1.439172,-0.8411 1.596176,-1.2835 1.765543,-4.9754 0.235151,-5.1266 -0.350341,-10.0325 -1.303627,-10.923 -0.590903,-0.552 -0.582859,-0.9816 0.04083,-2.1766 0.427359,-0.8189 0.778651,-2.0947 0.780622,-2.835 0.009,-3.3242 3.550525,-7.1272 10.460245,-11.2321 4.037325,-2.3986 5.097205,-3.5188 3.329188,-3.5188 -1.944066,0 -10.18038,-3.0098 -10.497456,-3.8361 -0.288553,-0.752 0.0082,-0.8234 1.84222,-0.4436 5.10883,1.0581 8.739042,0.1322 15.561391,-3.9688996 2.589967,-1.5569 5.447242,-2.9929 6.349468,-3.191 1.856911,-0.4079 2.140109,-1.191 0.616093,-1.7037 -0.563387,-0.1895 -1.94627,-1.1532 -3.073059,-2.1414 -1.273047,-1.11649997 -1.605476,-1.63589997 -0.878006,-1.37199997 0.643876,0.2336 2.219165,0.804 3.500667,1.26749997 1.281503,0.4635 5.621894,1.228 9.645335,1.6988 4.023441,0.4708 9.388507,1.3854 11.922375,2.0323 3.10512,0.7928 5.42508,1.0536 7.11638,0.8 1.58251,-0.2373 3.02055,-0.1056 3.89333,0.3567 2.04972,1.0856 5.2587,3.6024 4.96621,3.8948996 -0.13992,0.1399 -1.58258,-0.2173996 -3.20594,-0.7938996 -1.62337,-0.5766 -3.12769,-0.8722 -3.34298,-0.6569 -0.21528,0.2153 0.79506,1.7869996 2.2452,3.4926996 1.45013,1.7057 3.86713,5.3402 5.37108,8.0767 1.50397,2.7364 3.83882,6.109 5.18856,7.4945 3.2763,3.3631 8.83486,6.0535 13.45105,6.5105 l 3.63664,0.3599 -2.92671,0.7908 c -1.6097,0.435 -6.13985,0.9255 -10.06699,1.0902 l -7.14027,0.2994 0.31949,1.8245 c 1.38138,7.8886 12.45734,19.2624 22.01778,22.6097 1.85569,0.6498 6.59698,1.597 10.5362,2.1049 6.27655,0.8094 7.73344,1.2199 11.78122,3.3196 6.69759,3.4742 10.4779,6.4644 16.99451,13.4429 3.18223,3.4078 6.39763,6.5234 7.14531,6.9235 1.20303,0.6439 1.25257,0.8057 0.43061,1.4067 -0.51084,0.3736 -1.02643,1.5176 -1.14576,2.5424 -0.27447,2.3574 1.01608,2.489 4.07184,0.4153 l 2.13362,-1.4479 4.5332,3.7861 c 5.7726,4.8213 10.34116,8.0026 13.31338,9.2705 l 2.34135,0.9989 -2.78037,-0.2398 c -1.52922,-0.132 -2.78039,-0.069 -2.78039,0.1406 0,0.2092 0.81584,2.4817 1.813,5.0498 2.11315,5.4425 4.64893,14.9698 4.57344,17.1831 -0.0393,1.1512 -0.23501,0.8765 -0.78349,-1.0994 -1.10988,-3.9986 -4.65817,-12.4151 -6.99761,-16.5984 -2.30972,-4.1301 -10.22666,-12.0505 -14.30982,-14.316 -3.72672,-2.0678 -3.11337,-0.4102 1.69038,4.5682 10.88779,11.2835 17.01031,23.9779 19.62337,40.6871 l 0.45769,2.9267 0.42906,-2.0487 c 0.72949,-3.4832 -0.0838,13.9336 -0.99711,21.3525 -1.14981,9.3405 -2.9753,13.148 -10.17639,21.2255 -4.02426,4.514 -5.8976,7.1876 -7.58756,10.8289 -4.49047,9.6753 -14.19203,25.6932 -15.045,24.8403 -0.14763,-0.1476 0.67688,-1.7462 1.83227,-3.5523 3.30979,-5.1741 7.83981,-14.8459 9.35107,-19.9651 1.84043,-6.2343 2.189,-7.9026 1.65057,-7.9 -0.85076,0 -4.25491,2.3224 -4.25491,2.8976 0,0.3165 -0.36437,0.4357 -0.80969,0.2649 -0.44533,-0.1709 -1.79355,0.1003 -2.99601,0.6028 l -2.18635,0.9135 0.33386,5.1226 c 0.31716,4.8662 0.29395,5.0054 -0.46339,2.7813 -0.43848,-1.2877 -0.98254,-3.4608 -1.20904,-4.8291 -0.54043,-3.2649 -2.0664,-3.3417 -4.04736,-0.2037 -3.65009,5.7821 -5.691,10.7482 -7.04728,17.1479 -0.77116,3.6388 -1.42287,5.9575 -1.44823,5.1526 -0.10624,-3.3695 -1.00089,-2.7457 -3.18516,2.2206 -1.23277,2.8029 -3.9325,8.1114 -5.99941,11.7966 -2.06689,3.6853 -3.63931,7.0097 -3.49426,7.3877 0.14506,0.3781 -0.90029,1.8297 -2.32299,3.226 -1.42272,1.3963 -2.58674,2.3602 -2.58674,2.142 0,-0.4659 1.43713,-3.0577 4.00228,-7.2178 5.0216,-8.144 10.39498,-22.09 12.45295,-32.3204 1.42245,-7.0711 1.44467,-9.8886 0.0808,-10.245 -0.97558,-0.2549 -0.97558,-0.2709 0,-0.3356 0.68431,-0.045 1.02435,-0.5537 1.02435,-1.5312 0,-0.8049 -0.0754,-1.4634 -0.16756,-1.4634 -0.0922,0 -1.73498,0.6071 -3.65072,1.3492 -3.90879,1.514 -3.36772,0.4614 -6.8283,13.2844 l -1.34272,4.9754 -0.30564,-2.634 -0.30563,-2.6341 -0.94576,1.7561 c -0.52017,0.9658 -2.74797,6.1022 -4.95065,11.4142 -3.66457,8.8376 -4.28378,9.9317 -7.2876,12.8776 -4.55687,4.4689 -11.26351,9.3207 -14.67711,10.6177 -4.1838,1.5898 -4.74482,1.3235 -1.33374,-0.633 1.64089,-0.9412 4.24684,-3.1118 5.79097,-4.8236 2.97782,-3.3012 7.07368,-9.1257 6.67962,-9.4987 -0.12929,-0.1224 -2.75589,1.7913 -5.8369,4.2526 -3.08102,2.4613 -7.89848,6.2584 -10.7055,8.4381 -7.80789,6.0628 -7.58965,7.086 1.55599,7.2949 3.28415,0.075 6.15955,0.1408 6.38981,0.1463 0.23024,0.01 1.36898,0.8444 2.53051,1.8642 l 2.11187,1.8543 -0.15308,5.0235 c -0.1445,4.7419 -0.0483,5.1976 1.71569,8.1266 l 1.86877,3.1029 -0.51593,9.2399 c -0.52027,9.3172 -1.10332,11.7727 -2.79543,11.7727 -0.7829,0 -0.84675,0.4243 -0.41841,2.7804 0.27801,1.5292 0.50547,5.9863 0.50547,9.9047 0,6.7863 -0.0694,7.1994 -1.46335,8.7092 -0.80486,0.8718 -2.3538,1.9641 -3.44213,2.4274 -1.8327,0.7802 -2.17828,0.7408 -4.68274,-0.5331 -1.7893,-0.9101 -3.03938,-2.0621 -3.6954,-3.4055 -0.54526,-1.1165 -1.91653,-7.3646 -3.04727,-13.8846 -1.89994,-10.9554 -2.20212,-12.05 -3.98404,-14.4305 -1.06051,-1.4168 -2.3751,-3.3887 -2.92136,-4.3819 -1.20955,-2.1994 -5.57431,-5.0652 -8.53553,-5.6044 -2.66854,-0.4858 -5.7108,-2.4693 -6.52354,-4.2531 -0.899529,-1.9742 -2.448949,-1.6211 -5.090833,1.16 -5.227088,5.5027 -8.195755,10.4422 -9.030678,15.0261 -0.418545,2.2979 -0.471947,1.998 -0.374044,-2.1005 0.09423,-3.9455 -0.02329,-4.667 -0.67254,-4.1282 -1.059932,0.8797 -5.416482,7.0442 -7.560066,10.6976 -2.020937,3.4443 -6.583813,13.4173 -6.583813,14.3901 0,0.6363 4.08566,0.4211 8.17037,-0.4305 3.051382,-0.6361 -0.553747,1.0227 -4.862536,2.2375 -4.581167,1.2915 -4.77429,1.4536 -5.694449,4.7804 -0.569478,2.0588 -0.455109,2.6237 1.185228,5.8534 3.312097,6.5215 8.370891,12.3642 13.861092,16.0092 0.933399,0.6197 0.748732,0.6732 -1.245476,0.3605 -4.291196,-0.6727 -8.155249,-2.4947 -12.292235,-5.7962 l -4.097412,-3.2698 -0.38112,3.111 c -0.62978,5.1407 -0.541101,16.6028 0.15353,19.8418 0.357742,1.668 1.413607,4.8835 2.34636,7.1455 1.874485,4.5457 1.862482,5.9596 -0.01926,2.271 l -1.8e-5,0 z m -1.465829,-59.5922 c 3.12856,-12.4655 8.881035,-28.1604 15.088832,-41.168 l 2.644948,-5.5422 -2.744948,-0.7109 c -3.399073,-0.8803 -3.295596,-0.9922 -8.625496,9.3266 -6.484494,12.5541 -9.245405,22.5005 -9.296659,33.4919 -0.02827,6.063 0.560198,11.3001 1.198055,10.6622 0.157454,-0.1575 0.938327,-2.8843 1.735268,-6.0596 z M 86.73813,261.4904 c 2.368038,-2.7559 3.158476,-4.0738 2.74339,-4.5739 -0.430745,-0.519 0.07668,-0.8412 1.941592,-1.2329 l 2.524721,-0.5302 -2.187688,-1.0798 c -1.203233,-0.5939 -2.29525,-0.9668 -2.426709,-0.8286 -0.713872,0.7504 -9.13625,15.1296 -9.109844,15.5529 0.0172,0.2765 0.741622,-0.3836 1.609703,-1.4668 0.868083,-1.0832 3.075263,-3.7115 4.904835,-5.8407 l 0,0 z m 39.20404,-23.885 c 13.03536,-11.6641 23.16023,-22.8049 21.88455,-24.0805 -0.19352,-0.1936 -1.99092,1.2293 -3.99424,3.1617 -2.00332,1.9325 -4.70559,4.4201 -6.00503,5.528 -1.29943,1.1079 -3.75292,3.1997 -5.4522,4.6485 -3.83349,3.2682 -15.3063,15.5857 -15.3063,16.4332 0,1.5553 2.73651,-0.1998 8.87322,-5.6909 l 0,0 z m -6.16312,-5.3279 c 2.87199,-2.817 6.43351,-6.8339 7.91449,-8.9265 3.40071,-4.8052 11.29666,-19.248 10.79644,-19.7482 -0.20656,-0.2066 -0.78578,0.2101 -1.2872,0.926 -3.6523,5.2144 -12.76993,15.6386 -19.15794,21.9033 l -7.61825,7.4712 1.67466,1.748 c 0.92106,0.9614 1.85046,1.748 2.06533,1.748 0.21487,0 2.74049,-2.3048 5.61247,-5.1218 z m -14.17154,-11.9928 c 4.70889,-5.1174 5.66554,-6.7827 2.53494,-4.4126 -1.0463,0.7921 -3.8779,2.8348 -6.29245,4.5392 -2.414561,1.7044 -4.494189,3.1892 -4.621403,3.2994 -0.276122,0.2393 2.280775,1.3063 3.257153,1.3592 0.37644,0.02 2.68124,-2.1329 5.12176,-4.7852 z m -49.23947,0.7375 c 0.568027,-0.6057 0.15328,-0.6789 -2.159007,-0.3811 -1.574142,0.2027 -4.142342,0.3685 -5.707114,0.3685 -3.499521,0 -3.787718,1.0352 -0.357312,1.2834 3.408784,0.2466 7.375202,-0.3663 8.223433,-1.2708 l 0,0 z m 35.465161,-9.8171 c 0.14357,-0.081 0.100521,-0.3069 -0.09568,-0.5031 -0.627646,-0.6276 -10.374594,6.8025 -10.374594,7.9086 0,2.1783 0.965628,1.7045 5.512721,-2.7049 2.583087,-2.5048 4.813987,-4.6201 4.957556,-4.7006 z m 0.06593,-7.5591 c 4.920921,-2.642 21.815619,-13.6617 24.521069,-15.9941 0.76998,-0.6638 1.28365,-1.3232 1.14152,-1.4653 -0.14214,-0.1422 -1.82574,-0.9535 -3.74134,-1.8029 -2.47732,-1.0986 -5.11598,-1.6873 -9.13933,-2.0393 -6.570628,-0.5748 -9.198503,-1.5177 -11.620464,-4.1694 -2.369578,-2.5943 -2.222963,-3.5134 0.187748,-1.1769 1.063998,1.0313 3.382628,2.384 5.152488,3.0061 3.849378,1.3529 9.302618,2.1691 9.302618,1.3922 0,-0.3003 -0.92191,-1.4395 -2.0487,-2.5316 -1.12679,-1.0921 -2.04871,-2.2491 -2.04871,-2.571 0,-0.322 0.85606,0.2249 1.90236,1.2152 2.55238,2.4159 4.0406,3.1118 6.65452,3.1118 7.2826,0 14.51368,-8.9342 14.44969,-17.853 -0.0537,-7.4797 -6.97769,-19.4349 -17.12993,-29.5769 -6.56543,-6.5589 -12.830801,-11.6899 -14.27429,-11.6899 -0.96545,0 -2.440989,3.7199 -1.852951,4.6713 0.20285,0.3282 -0.04179,0.5968 -0.543734,0.5968 -0.501901,0 -0.918422,0.1976 -0.92557,0.439 -0.0072,0.2415 -0.507295,1.0821 -1.111419,1.8681 l -1.098412,1.4292 0.29656,-2.6312 0.296581,-2.6311 -4.277116,-3.6271 c -2.352398,-1.9949 -4.715544,-3.6271 -5.25145,-3.6271 -0.535887,0 -1.618427,-0.6441 -2.405658,-1.4313 l -1.431307,-1.4313 -4.062944,1.45 c -2.234627,0.7975 -4.389692,1.564 -4.789051,1.7035 -0.52306,0.1826 -0.342604,0.9549 0.645258,2.7617 0.754268,1.3795 2.00295,3.6791 2.77483,5.1102 1.807535,3.3513 7.89466,9.9003 9.59976,10.3283 0.743179,0.1865 1.284584,0.7472 1.24295,1.2871 -0.04056,0.5262 0.386818,1.0519 0.949755,1.1682 1.050866,0.2172 6.945747,-2.4104 10.129502,-4.5152 l 1.787508,-1.1817 2.207592,1.8197 c 2.410764,1.9871 4.784356,6.5492 5.395286,10.3697 0.34373,2.1496 0.20482,2.6013 -1.20042,3.9037 -0.95638,0.8863 -2.592222,1.6102 -4.108463,1.818 -2.337743,0.3205 -2.543352,0.4932 -2.852133,2.396 -0.183036,1.1279 -0.762079,2.5251 -1.286769,3.1048 -1.09698,1.2122 -2.324917,0.9028 -8.921594,-2.248 -3.977687,-1.8999 -4.962215,-1.8911 -7.283942,0.065 l -1.514468,1.2762 0.517398,6.7314 c 0.284559,3.7024 0.787287,7.9957 1.117151,9.5407 0.329867,1.5451 0.599754,6.6947 0.599754,11.4435 0,10.2387 1.02077,24.0795 1.849529,25.0781 0.682412,0.8222 4.135499,-0.5624 12.198738,-4.8914 l 0,0 z m 57.535749,-9.8558 c 1.50284,-1.8835 1.62104,-2.3932 1.45891,-6.2924 -0.19108,-4.5957 -0.2043,-4.585 -2.35774,1.9032 -0.80138,2.4146 -1.65237,4.8511 -1.89109,5.4144 -0.77073,1.8191 1.05615,1.1477 2.78992,-1.0252 z m 31.57316,-5.8291 c 0.91351,-2.5201 1.57946,-4.8264 1.47989,-5.1251 -0.0996,-0.2987 -0.86047,-0.01 -1.69089,0.6445 -1.08258,0.8516 -1.69979,2.1335 -2.18104,4.5297 -0.84832,4.2242 -0.84309,5.0577 0.03,4.7667 0.38562,-0.1285 1.44855,-2.2956 2.36207,-4.8158 l 0,0 z m 10.6432,-1.6407 c 1.42067,-2.1991 3.21565,-13.3137 3.53339,-21.879 0.31143,-8.3953 0.094,-8.4405 -1.66883,-0.3468 -0.50953,2.3394 -2.26796,7.8709 -3.90764,12.2922 -3.28233,8.8508 -4.24948,12.2241 -3.7407,13.0473 0.47586,0.77 4.76738,-1.5404 5.78378,-3.1137 z m -23.03982,0.7174 c 4.03824,-2.7423 3.85382,-1.7792 2.84755,-14.8714 -0.87864,-11.4316 -4.0673,-29.7712 -5.01201,-28.8265 -0.16001,0.1601 0.026,4.009 0.41339,8.5532 1.23569,14.4952 0.32358,26.7152 -2.7232,36.4836 -0.49474,1.5862 0.68815,1.2322 4.47427,-1.3389 z m -22.68165,-2.8022 c 2.07708,-3.9899 3.33314,-8.5484 3.33314,-12.0965 0,-2.7909 -1.04202,-3.1213 -1.45391,-0.461 -0.64845,4.1881 -2.09353,9.0465 -3.82977,12.8757 -2.01905,4.4529 -1.98806,4.3201 -0.91202,3.9072 0.45562,-0.1748 1.74377,-2.0762 2.86256,-4.2254 l 0,0 z m 51.25609,-2.6384 c 0.95907,-3.1248 1.74624,-9.1372 2.12033,-16.1953 0.40126,-7.5702 -0.47064,-7.8752 -1.11957,-0.3917 -0.32884,3.7922 -1.6979,9.9643 -4.22481,19.0466 -0.3814,1.3709 -0.368,1.3755 1.13446,0.3911 0.83623,-0.5479 1.77657,-1.8307 2.08959,-2.8507 l 0,0 z m -65.96438,-8.3925 c 1.34,-3.0293 1.67815,-10.9454 0.5504,-12.8846 -0.49037,-0.8431 -0.62346,-0.3952 -0.64024,2.155 -0.0196,2.9795 -0.5319,6.8855 -1.51624,11.5606 -0.57756,2.7431 0.20396,2.3387 1.60608,-0.831 z m 55.0314,-7.8984 c 1.3658,-5.7991 1.74785,-8.9503 1.94015,-16.0014 0.18483,-6.7781 0.10584,-8.1795 -0.34642,-6.1461 -0.32222,1.4487 -1.63226,7.1119 -2.9112,12.5849 -1.89601,8.1136 -4.0593,18.8597 -4.06306,20.1831 0,0.1548 0.82734,-0.5467 1.83952,-1.5589 1.56291,-1.5629 2.09666,-2.9288 3.54101,-9.0616 l 0,0 z m 21.0071,5.2098 c 1.4751,-2.3299 3.02117,-5.0264 3.43574,-5.9923 7.62048,-17.7539 5.44552,-29.5967 -9.48679,-51.6566 -2.23368,-3.2999 -4.25476,-5.9998 -4.49126,-5.9998 -0.23651,0 -1.24872,-1.2635 -2.24937,-2.8078 -1.00063,-1.5442 -5.19363,-6.0968 -9.31774,-10.1168 -7.03924,-6.8615 -7.76724,-7.4036 -11.8885,-8.8526 -4.98821,-1.7539 -15.66598,-4.8508 -18.73104,-5.4325 -1.12679,-0.2139 -2.57345,-0.539 -3.2148,-0.7223 -2.29758,-0.6569 0.27706,1.5076 5.48819,4.6139 8.11816,4.8392 19.80977,13.9723 26.0925,20.3827 l 5.83011,5.9485 3.53541,-0.4063 c 1.94448,-0.2234 3.72892,-0.7038 3.96545,-1.0675 0.28021,-0.4309 0.43317,-0.3354 0.43901,0.2742 0.005,0.5299 -1.00737,1.3937 -2.33578,1.9927 -3.17942,1.4338 -3.67414,2.1359 -2.59277,3.6798 1.82514,2.6057 6.11822,11.7779 8.41697,17.9828 3.72494,10.0546 4.92574,17.8741 4.49349,29.2609 -0.19554,5.1511 -0.51892,10.2216 -0.71862,11.2679 -0.19969,1.0463 -0.13561,1.899 0.14237,1.8948 0.27801,0 1.71234,-1.9138 3.18743,-4.2437 l 0,0 z m -66.25024,-5.7842 c 0.0634,-5.4937 -1.23598,-10.8431 -3.53385,-14.549 -1.56794,-2.5288 -2.08133,-1.5 -0.77609,1.5552 2.07734,4.8624 2.70077,7.779 3.04583,14.2491 0.4066,7.6242 1.17047,6.8656 1.26411,-1.2553 z m 40.97414,-11.9372 c 0.0763,-10.745 -1.74339,-25.0687 -4.11081,-32.3582 -0.47788,-1.4714 -0.86507,-1.8457 -1.59659,-1.5433 -0.53114,0.2196 -1.42667,0.5318 -1.99007,0.6938 -1.40284,0.4033 -1.2987,1.6732 0.70192,8.5581 3.15232,10.8483 5.77359,25.2453 5.93083,32.574 0.1442,6.7207 1.0063,0.3043 1.06472,-7.9244 z m -39.74509,-2.3706 c 0,-0.1892 -1.16205,-3.2843 -2.58232,-6.8778 -1.42027,-3.5935 -3.67118,-9.3992 -5.00202,-12.9016 -1.33084,-3.5023 -2.964,-7.4534 -3.62924,-8.7801 -2.02897,-4.0466 -8.7489,-14.9046 -9.72047,-15.7063 -1.20254,-0.9923 -1.22219,-1.0376 4.39551,10.1343 4.35564,8.662 7.53556,17.387 9.17106,25.1635 0.53408,2.5395 7.36748,10.8574 7.36748,8.968 z M 125.5307,127.6203 c -1.20446,-3.0437 -2.43351,-5.534 -2.73122,-5.534 -0.29773,0 -0.38259,0.5001 -0.18859,1.1114 0.194,0.6112 0.8373,2.8588 1.42957,4.9947 1.04834,3.7807 3.01152,6.9677 3.46113,5.6189 0.12046,-0.3614 -0.76644,-3.1474 -1.97089,-6.191 l 0,0 z m 25.85469,1.1787 c -0.18927,-0.4933 -0.73646,-2.403 -1.21595,-4.2438 -1.88228,-7.226 -4.4687,-13.2692 -6.65239,-15.5434 -1.93513,-2.0152 -7.71706,-5.5832 -7.71706,-4.7621 0,0.1808 1.84901,2.8852 4.10892,6.0097 2.2599,3.1244 5.61833,8.7751 7.46314,12.5571 1.84484,3.7819 3.57996,6.8769 3.85587,6.8778 0.27589,0 0.34676,-0.402 0.15747,-0.8953 l 0,0 z m -29.27777,-3.2297 c -0.74219,-4.6415 -4.03546,-13.842 -7.68944,-21.4823 -2.04009,-4.2657 -3.92452,-7.7518 -4.18763,-7.7469 -0.26312,0 -0.843,0.2399 -1.28863,0.5221 -1.55758,0.9865 2.00674,12.6974 6.43008,21.1267 2.31039,4.4028 6.07543,9.9509 6.75288,9.9509 0.19899,0 0.19122,-1.0667 -0.0172,-2.3705 l 2e-5,0 z m -31.382449,-2.4586 c -0.0018,-0.4024 -0.248335,-1.6536 -0.547872,-2.7804 -0.299519,-1.1268 -0.858783,-3.234 -1.242806,-4.6827 l -0.698195,-2.6341 -1.071309,2.4877 c -0.677628,1.5736 -1.448451,2.4877 -2.097648,2.4877 -0.73073,0 -0.196025,0.843 1.856372,2.9268 2.945898,2.9908 3.807245,3.4882 3.801458,2.195 z m 9.544199,-5.2837 c -1.208761,-1.9297 -6.741385,-9.2036 -7.000344,-9.2036 -0.160715,0 -0.113634,0.8561 0.10464,1.9024 0.239809,1.1495 1.582258,3.1185 3.392247,4.9754 2.78669,2.859 4.585467,4.0531 3.503457,2.3258 l 0,0 z m 7.69898,-2.6185 c -1.24526,-2.862 -6.11835,-16.035 -6.11835,-16.5391 0,-0.3202 -0.79022,-0.5822 -1.75605,-0.5822 -0.965802,0 -1.756027,0.2693 -1.756027,0.5983 0,1.6375 8.670447,17.5187 9.574477,17.5372 0.27589,0.01 0.30108,-0.4508 0.056,-1.0142 l -2e-5,0 z m 65.87906,-6.1234 c 0,-1.6256 -5.06802,-10.6218 -7.91027,-14.0414 -4.46147,-5.3678 -12.57682,-12.1763 -12.57682,-10.5517 0,0.2719 1.44994,1.7461 3.22207,3.2761 3.51099,3.0311 7.27099,8.1705 9.1009,12.4394 0.63977,1.4926 1.83054,3.5068 2.64613,4.4761 0.81559,0.9693 1.43971,2.3181 1.38693,2.9974 -0.15632,2.0124 -0.0571,2.1131 2.08235,2.1131 1.21384,0 2.04871,-0.2889 2.04871,-0.709 z M 150.76054,95.2267 c -0.51156,-0.9892 -2.14403,-3.3185 -3.62774,-5.1761 -3.05425,-3.8241 -16.6392,-17.7186 -17.32382,-17.7186 -0.24627,0 -0.44778,0.8589 -0.44778,1.9087 0,1.6021 0.4961,2.3044 3.08938,4.3738 2.99166,2.3872 14.53093,13.9513 17.29465,17.3319 1.6938,2.0719 2.25366,1.675 1.01531,-0.7197 z m 34.20842,-10.9515 c 0,-0.192 -1.47441,-2.0284 -3.27645,-4.0809 -3.33443,-3.798 -7.8549,-7.0005 -13.77055,-9.7558 -4.4099,-2.0539 -13.43338,-5.214 -14.17885,-4.9655 -0.32879,0.1096 1.22857,1.2136 3.4608,2.4534 5.6263,3.1248 10.25695,6.2665 15.90173,10.7886 3.12027,2.4997 5.90583,4.2014 7.90215,4.8275 3.6111,1.1326 3.96117,1.1973 3.96117,0.7327 l 0,0 z M 169.75,81.3941 c 0,-0.6994 -11.24485,-7.6119 -16.31325,-10.0283 -6.20698,-2.9591 -14.30615,-5.8035 -18.2221,-6.3995 l -2.63406,-0.4008 1.75603,1.8878 c 3.32088,3.5701 11.71052,9.8381 14.37432,10.7392 7.26666,2.4582 21.03906,5.2086 21.03906,4.2016 z M 128.1905,70.9465 c 0,-0.1182 -1.11946,-0.9486 -2.48771,-1.8453 -1.36824,-0.8967 -4.2657,-3.1978 -6.43879,-5.1135 -2.17309,-1.9157 -3.95108,-3.2963 -3.95108,-3.0681 0,0.6084 3.35425,4.8894 6.07544,7.754 1.97001,2.0739 2.73237,2.4877 4.58264,2.4877 1.22073,0 2.2195,-0.097 2.2195,-0.2148 z M 63.227654,50.0823 c 4.353073,-2.7934 5.025705,-3.764 4.196911,-6.0559 -0.382393,-1.0575 -0.695258,-2.6284 -0.695258,-3.4909 0,-0.8625 -0.172681,-1.5681 -0.383754,-1.5681 -1.129907,0 -4.339155,3.2254 -5.409782,5.437 -1.14449,2.3642 -1.719521,7.4406 -0.842839,7.4406 0.213276,0 1.623891,-0.7933 3.134722,-1.7627 l 0,0 z m 10.131131,0.6354 c 1.124479,-1.1245 -0.09765,-1.3458 -3.22915,-0.5849 -4.522531,1.099 -4.972481,1.9278 -0.829225,1.5274 1.897003,-0.1832 3.723279,-0.6074 4.058375,-0.9425 z m -2.436383,-6.9212 c 1.122275,-1.3329 0.776859,-7.1705 -0.42426,-7.1705 -1.200921,0 -2.012803,1.952 -2.012803,4.8394 0,3.4921 0.808424,4.2654 2.437063,2.3311 z M 58.79355,32.9676 c 0.314102,-0.7126 0.192836,-1.0243 -0.39839,-1.0243 -2.132332,0 -3.944222,4.7296 -3.08182,8.0446 0.386442,1.4854 0.523347,1.3114 1.724233,-2.1912 0.717452,-2.0926 1.507659,-4.2657 1.755977,-4.8291 z m 2.589233,-5.9529 c 5.173359,-3.818 8.521196,-8.2053 4.701232,-6.1609 -2.771928,1.4835 -9.150187,8.1627 -7.794894,8.1627 0.209658,0 1.601803,-0.9008 3.093662,-2.0018 l 0,0 z"
     id="path3079"
     inkscape:connector-curvature="0" />
</svg>
