<?xml version="1.0" encoding="UTF-8" standalone="no"?>
<!-- Created with Inkscape (http://www.inkscape.org/) -->

<svg
   xmlns:dc="http://purl.org/dc/elements/1.1/"
   xmlns:cc="http://creativecommons.org/ns#"
   xmlns:rdf="http://www.w3.org/1999/02/22-rdf-syntax-ns#"
   xmlns:svg="http://www.w3.org/2000/svg"
   xmlns="http://www.w3.org/2000/svg"
   xmlns:sodipodi="http://sodipodi.sourceforge.net/DTD/sodipodi-0.dtd"
   xmlns:inkscape="http://www.inkscape.org/namespaces/inkscape"
   id="svg2"
   version="1.1"
   inkscape:version="0.48.4 r9939"
   width="498.23166"
   height="708.31104"
   sodipodi:docname="kaito.png">
  <metadata
     id="metadata8">
    <rdf:RDF>
      <cc:Work
         rdf:about="">
        <dc:format>image/svg+xml</dc:format>
        <dc:type
           rdf:resource="http://purl.org/dc/dcmitype/StillImage" />
        <dc:title></dc:title>
      </cc:Work>
    </rdf:RDF>
  </metadata>
  <defs
     id="defs6" />
  <sodipodi:namedview
     pagecolor="#ffffff"
     bordercolor="#666666"
     borderopacity="1"
     objecttolerance="10"
     gridtolerance="10"
     guidetolerance="10"
     inkscape:pageopacity="0"
     inkscape:pageshadow="2"
     inkscape:window-width="1916"
     inkscape:window-height="1041"
     id="namedview4"
     showgrid="false"
     fit-margin-top="0"
     fit-margin-left="0"
     fit-margin-right="0"
     fit-margin-bottom="0"
     inkscape:zoom="1.2325093"
     inkscape:cx="249.11582"
     inkscape:cy="354.15551"
     inkscape:window-x="0"
     inkscape:window-y="18"
     inkscape:window-maximized="0"
     inkscape:current-layer="svg2" />
  <path
     style="fill:#ff0000;stroke:none"
     d="m 236.81418,708.07417 c -3.44921,-0.47667 -7.69086,-3.55877 -9.37216,-6.81006 -2.08614,-4.03415 0.34175,-14.74761 4.03713,-17.81451 1.32732,-1.10158 8.38462,-10.74335 13.65829,-18.66013 1.67029,-2.50742 4.15571,-7.30379 5.52315,-10.6586 1.36744,-3.35481 3.94853,-8.91311 5.73577,-12.35178 2.56156,-4.92852 3.4093,-7.65322 4.00432,-12.87023 0.46746,-4.09874 1.38005,-7.62977 2.39725,-9.27563 2.61747,-4.23516 6.95161,-21.40444 13.46427,-53.33741 8.65458,-42.43527 9.43521,-47.34975 10.20561,-64.24972 0.37723,-8.2752 1.0516,-17.79066 1.49858,-21.14547 0.44699,-3.35481 0.59794,-8.75884 0.33546,-12.00895 -0.4483,-5.55069 -0.6061,-5.93668 -2.60045,-6.3607 -1.16775,-0.24829 -3.95308,-1.01229 -6.18962,-1.69779 -9.30428,-2.85178 -17.64059,-5.16025 -23.20419,-6.42566 -3.25401,-0.74011 -7.23281,-1.90903 -8.84177,-2.5976 -3.38539,-1.44881 -17.96357,-1.58465 -27.32403,-0.25459 -15.38189,2.18565 -21.25469,3.46183 -23.58534,5.12516 -19.24801,13.73697 -42.38356,37.45729 -62.86233,64.45126 -2.66262,3.50972 -3.91857,4.54278 -5.28636,4.34822 -1.61391,-0.22956 -1.78548,-0.7043 -1.70878,-4.72826 0.0528,-2.77135 0.79196,-6.02012 1.94286,-8.53952 1.02168,-2.23654 2.74476,-6.44531 3.82906,-9.35281 1.08429,-2.9075 3.00079,-7.48225 4.25888,-10.16609 1.2581,-2.68385 3.10961,-6.70963 4.11447,-8.94617 1.00486,-2.23654 3.79526,-8.16514 6.20088,-13.17467 2.40563,-5.00953 4.37386,-9.37759 4.37386,-9.7068 0,-0.84084 8.21991,-15.3391 14.46261,-25.50913 9.79202,-15.95228 12.80048,-20.39833 23.619,-34.90531 12.36141,-16.57589 28.13896,-33.02274 47.47215,-49.48595 3.88933,-3.31197 7.22209,-6.44816 7.40614,-6.96932 0.18404,-0.52116 0.0251,-1.78469 -0.35332,-2.80785 -0.51732,-1.3989 -0.19807,-2.60916 1.2872,-4.87972 1.08633,-1.66069 2.22575,-4.04844 2.53204,-5.30612 0.3063,-1.25767 1.60582,-3.06218 2.88783,-4.01001 1.28201,-0.94783 2.5664,-2.48068 2.8542,-3.40633 0.2878,-0.92565 2.17404,-5.2513 4.19165,-9.61256 3.26255,-7.0523 3.90287,-7.93078 5.78789,-7.94065 5.76402,-0.0302 7.15243,-2.07574 11.51522,-16.96533 1.35966,-4.64031 3.60018,-10.86196 4.97893,-13.82589 3.38398,-7.27457 3.52226,-15.18739 0.44949,-25.72116 -1.17434,-4.02577 -2.37907,-9.06249 -2.67716,-11.19271 -0.2981,-2.13021 -0.8339,-4.05352 -1.19067,-4.27402 -0.35677,-0.2205 -0.88212,-1.95439 -1.16744,-3.85311 -0.28532,-1.89872 -1.10498,-6.30204 -1.82146,-9.78515 -1.16724,-5.67441 -1.62237,-6.58613 -4.37687,-8.76774 -1.72877,-1.36921 -3.49325,-3.70458 -4.03172,-5.3362 -0.72945,-2.21023 -1.75965,-3.26561 -4.32462,-4.43032 -1.85189,-0.84091 -4.39099,-1.53696 -5.64244,-1.54679 -2.81307,-0.0221 -5.87343,-3.14732 -6.58989,-6.72962 -0.70511,-3.52559 0.28103,-12.10472 1.56563,-13.62042 1.66664,-1.96647 5.26642,-9.92456 5.26642,-11.64256 0,-2.72705 -4.83031,-10.31621 -6.56599,-10.31621 -1.0247,0 -1.56689,0.56285 -1.56689,1.62658 0,1.89364 -2.04655,2.19804 -2.73397,0.40664 -0.60322,-1.57197 -3.281,-1.57197 -4.58562,0 -1.77211,2.13527 -2.50129,1.31471 -1.3277,-1.4941 2.19418,-5.25139 -1.02838,-6.9774 -6.32115,-3.38562 -4.52012,3.06743 -5.86897,2.69042 -3.39582,-0.94915 2.37033,-3.48826 2.11026,-4.33722 -1.32868,-4.33722 -2.4391,0 -2.47329,-0.0493 -1.09227,-1.57533 1.43018,-1.58032 1.1445,-3.3044 -0.54755,-3.3044 -0.49751,0 -1.49094,-0.53066 -2.20763,-1.17925 -1.83657,-1.66207 -11.28409,-5.42615 -26.66708,-10.6247 -10.8568,-3.66896 -14.18216,-4.4618 -18.71389,-4.4618 l -5.51101,0 -24.40105,24.19531 c -28.2377,27.99958 -30.59641,31.0365 -34.58362,44.52749 -1.4542,4.92039 -3.51796,11.27766 -4.58613,14.12727 -2.36002,6.29592 -3.57887,17.76264 -3.72848,35.07662 -0.10506,12.15921 -0.0182,12.86941 2.44986,20.03977 3.45501,10.03755 4.76371,15.38958 6.26193,25.60871 2.31817,15.81183 1.93158,16.71081 -8.88222,20.65483 -5.29577,1.93147 -7.30111,3.19771 -11.13333,7.02993 -9.51537,9.51537 -14.58496,11.12592 -15.60448,4.95737 -0.75798,-4.58607 -0.5723,-36.53935 0.28244,-48.60561 0.43289,-6.11098 1.81211,-15.37771 3.26825,-21.95877 1.3856,-6.26231 3.05485,-14.25272 3.70943,-17.75647 0.65458,-3.50374 1.67936,-7.34652 2.27729,-8.53952 0.59793,-1.19299 1.52747,-3.99897 2.06564,-6.23551 1.13573,-4.71984 8.28601,-19.78853 13.9946,-29.49257 8.20594,-13.94928 24.70618,-38.16589 35.46857,-52.05551 7.85662,-10.13951 8.21319,-10.76405 6.40469,-11.21795 -2.96077,-0.74311 -14.14162,-0.0108 -29.77031,1.94987 -18.60282,2.33378 -21.94541,3.05211 -28.85565,6.20121 -4.77633,2.17664 -6.84073,3.79805 -11.84635,9.3043 -9.52993,10.48303 -25.676,34.78188 -27.78619,41.81652 -0.70248,2.34181 -0.69313,5.93581 0.0381,14.63918 0.53301,6.34445 0.9642,12.2892 0.95819,13.21055 -0.006,0.92135 -1.65783,3.60459 -3.67071,5.96274 -2.67968,3.13933 -3.6598,4.98362 -3.6598,6.8867 0,3.94802 -1.86362,5.91458 -6.69676,7.06663 -2.35544,0.56145 -5.06966,1.53253 -6.03161,2.15795 -1.84183,1.19747 -13.29117,14.04928 -15.60321,17.51449 -0.74438,1.11565 -2.43524,3.63307 -3.75748,5.59429 -1.32224,1.96121 -4.00879,6.31069 -5.97012,9.6655 L 0,277.1721 0.42598,265.78608 c 0.33549,-8.96732 0.93721,-13.37282 2.83256,-20.73883 8.52325,-33.12432 20.2111,-57.55967 39.48447,-82.54868 11.43438,-14.82533 36.00691,-39.64595 46.38879,-46.85714 4.43417,-3.07995 8.45469,-5.59991 8.93449,-5.59991 0.90394,0 3.16457,-1.02593 17.56809,-7.97281 21.77173,-10.50061 27.03653,-11.72727 50.94058,-11.86883 l 15.56256,-0.0922 7.20949,-6.58184 c 15.13508,-13.81745 21.28555,-18.813625 38.11441,-30.961243 16.81028,-12.134216 38.80006,-24.520303 56.07149,-31.583144 6.23737,-2.550662 12.09304,-5.116529 13.0126,-5.701926 1.6337,-1.040027 22.86844,-7.940973 37.45657,-12.172781 6.41347,-1.860455 9.3514,-2.184179 23.73244,-2.615027 L 374.14737,0 l 6.76584,5.966749 c 7.72786,6.815144 14.33977,14.424905 19.60404,22.562625 2.00252,3.095591 5.42284,7.84937 7.60069,10.563953 2.17786,2.714584 4.87469,6.704665 5.99296,8.866846 1.11827,2.162182 2.24037,4.114229 2.49356,4.337883 1.38342,1.222026 5.73881,10.177086 7.58193,15.589072 2.24504,6.592202 2.67072,11.147762 1.2838,13.739232 -0.46201,0.86328 -1.36314,8.50271 -2.00251,16.97652 l -1.1625,15.40692 -3.65476,6.75943 c -7.95293,14.70884 -12.04086,19.31123 -25.27835,28.45963 -2.68385,1.8548 -7.62457,5.62528 -10.97938,8.37885 -7.42981,6.09824 -11.65299,8.86862 -15.61571,10.24378 -3.56536,1.23726 -9.89336,6.76816 -9.40834,8.22321 0.48404,1.45212 8.19297,5.13037 21.36425,10.19377 18.52894,7.12302 24.30757,9.08642 30.61892,10.40339 10.35944,2.16166 12.18695,3.19525 19.1737,10.84408 8.77089,9.60205 9.40713,10.59423 13.63667,21.26551 2.03882,5.14404 4.74021,11.54868 6.00309,14.23253 1.26288,2.68385 3.90722,8.46389 5.87633,12.84453 2.55219,5.67784 4.04723,8.05799 5.20676,8.28934 0.89461,0.17849 2.94645,0.53534 4.55962,0.79298 2.99695,0.47865 3.78165,1.55691 6.38584,8.77475 1.01637,2.81698 3.28707,2.99059 3.28707,0.25133 0,-1.09188 -0.36598,-2.21142 -0.81329,-2.48787 -0.44731,-0.27645 -0.81329,-1.8433 -0.81329,-3.48188 0,-2.96917 0.006,-2.9738 1.61026,-1.36898 3.17501,3.17501 4.47004,19.51541 2.01276,25.39651 -1.49754,3.58412 -1.6081,3.46632 7.928,8.44795 5.47729,2.86131 6.49077,3.74928 8.0638,7.06506 0.98953,2.08584 2.4707,4.76388 3.29148,5.9512 2.14058,3.0965 1.85578,4.46595 -1.15086,5.53395 l -2.64318,0.9389 1.8299,1.50757 c 2.30916,1.9024 2.29692,3.09294 -0.0621,6.04101 -1.67954,2.09896 -2.21363,2.29245 -4.92429,1.78392 -2.60266,-0.48825 -3.25621,-1.0738 -4.53915,-4.06678 -1.5215,-3.54951 -2.82313,-4.5382 -5.99348,-4.55248 -0.96986,-0.004 -3.74406,-0.92994 -6.16489,-2.05684 -4.13578,-1.92521 -15.81876,-5.70096 -20.46055,-6.61254 -2.59611,-0.50983 -6.44248,2.52321 -9.02344,7.11542 -2.17789,3.87503 -5.91739,5.25865 -10.66764,3.94704 -2.42287,-0.66898 -3.02418,-1.22486 -3.02418,-2.79572 0,-1.45533 0.91639,-2.49775 3.55528,-4.04424 2.50107,-1.46573 4.11038,-3.22428 5.42728,-5.93062 3.68032,-7.56328 3.68761,-7.59105 2.26674,-8.63 -1.94488,-1.42214 -7.14961,-8.44591 -8.10628,-10.93943 -1.00571,-2.62132 -0.30674,-7.71961 1.47093,-10.72896 1.24096,-2.10079 1.18387,-2.43824 -1.25108,-7.39387 -3.9244,-7.98697 -10.45345,-17.57553 -20.49959,-30.10567 -8.98152,-11.20229 -9.28779,-11.4854 -15.73378,-14.5441 -3.61567,-1.71568 -11.33168,-4.65253 -17.14668,-6.52632 -5.81501,-1.87379 -10.92042,-3.73091 -11.34536,-4.12694 -0.42495,-0.39604 -1.61438,-0.72006 -2.64319,-0.72006 -1.75365,0 -1.8698,0.31769 -1.8585,5.08304 0.007,2.79568 0.3701,10.38975 0.80771,16.87572 l 0.79564,11.79267 4.66949,9.64138 c 3.93279,8.12029 5.46422,10.38482 9.70683,14.35358 2.77054,2.5917 6.25296,5.13796 7.73872,5.65837 1.81441,0.63552 4.1701,2.84556 7.17448,6.7309 2.46019,3.18158 7.2929,9.04875 10.73934,13.03813 11.21665,12.98372 19.52406,26.73905 30.12163,49.87515 3.64873,7.96575 13.04985,34.79437 15.35207,43.81123 2.00724,7.8616 4.13632,10.57624 18.52135,23.6152 10.43003,9.45404 19.79186,19.89094 20.82691,23.21858 0.34101,1.09633 1.26131,2.90828 2.0451,4.02655 1.45232,2.07209 5.09826,11.60776 6.68562,17.48568 0.48319,1.78923 0.91231,8.55985 0.95362,15.04582 0.0875,13.74041 0.29033,13.17794 -8.74169,24.24016 l -6.0695,7.43378 -0.51631,8.76498 c -0.28396,4.82073 -0.85717,10.96085 -1.27379,13.6447 -0.41662,2.68385 -1.34321,9.63746 -2.05909,15.45246 -2.03113,16.4987 -3.40193,21.00579 -7.7205,25.38442 -6.93014,7.02653 -15.31161,12.56151 -24.74126,16.33875 -6.22977,2.49546 -10.82409,5.00552 -14.97845,8.18332 -16.31108,12.47685 -34.36713,23.1465 -45.83515,27.08481 -4.8416,1.6627 -5.60822,1.73946 -6.67163,0.66814 -1.43648,-1.4472 -1.47349,-1.16223 4.32809,-33.33527 7.93588,-44.00906 12.65196,-74.3869 11.76992,-75.81407 -0.21583,-0.34923 -0.91979,-0.63495 -1.56435,-0.63495 -1.38372,0 -1.60752,-4.17278 -0.34983,-6.52277 2.46228,-4.60082 6.74712,-67.16685 5.02665,-73.39786 -0.5601,-2.02855 -0.54822,-3.03943 0.0381,-3.23484 0.59211,-0.19737 0.59424,-0.76954 0.007,-1.87196 -0.46517,-0.87323 -1.44935,-4.88151 -2.18705,-8.90728 -0.73771,-4.02578 -2.03306,-9.14949 -2.87857,-11.38603 -0.84552,-2.23654 -2.86834,-8.45819 -4.49516,-13.82589 -4.63912,-15.30673 -5.6135,-17.85714 -6.9119,-18.09157 -0.81174,-0.14656 -2.42595,2.27431 -4.87356,7.30901 -2.01289,4.14049 -5.18358,10.27328 -7.04598,13.62844 -2.98358,5.37499 -3.44721,6.9222 -3.89949,13.01323 -0.28231,3.80212 -0.70455,8.14521 -0.93829,9.65132 -0.41222,2.65618 -0.51624,2.72379 -3.46492,2.25228 -5.10309,-0.81602 -7.45506,1.97004 -13.56444,16.06791 -3.45952,7.98311 -3.613,11.1554 -0.64435,13.3179 1.96037,1.42803 2.19601,2.18324 2.54106,8.14375 0.20918,3.61336 0.13921,7.85497 -0.15548,9.42579 -0.48652,2.5934 -0.81369,2.87911 -3.55767,3.10679 -2.96453,0.246 -3.01822,0.3108 -2.82961,3.41505 0.10574,1.74036 1.38667,5.75684 2.84651,8.92552 3.49157,7.57871 3.36636,10.60837 -0.97925,23.69484 -5.2401,15.78015 -9.34289,20.60324 -14.70133,17.28236 -2.40678,-1.49161 -2.89459,-0.2032 -4.04611,10.68685 -0.54913,5.19311 -1.27132,9.80799 -1.60487,10.2553 -0.33355,0.44731 -1.06284,2.82617 -1.62063,5.28637 -0.86217,3.80267 -8.30681,21.73705 -15.02317,36.19129 -7.6418,16.44589 -12.42732,29.62861 -13.21442,36.40195 -0.27243,2.34434 -0.95985,4.99439 -1.52762,5.889 -0.56775,0.89462 -1.45255,5.95845 -1.96622,11.25296 -0.51365,5.29451 -1.40345,10.96719 -1.97731,12.60596 -0.57387,1.63876 -1.29944,4.70849 -1.61239,6.82161 -0.3571,2.41129 -1.60885,5.28848 -3.36136,7.72623 -5.77616,8.03464 -7.61098,12.62405 -8.94143,22.36511 -2.06471,15.11704 -3.62634,16.2387 -23.02215,16.53598 -7.44772,0.11414 -14.82224,0.0305 -16.38782,-0.18585 l -3.6e-4,0 z m 64.46363,-275.36083 c 6.6521,-13.98212 7.9339,-16.92416 8.11964,-18.63657 0.20298,-1.87144 0.0936,-1.89894 -7.55446,-1.89894 l -7.76042,0 -7.2854,4.21761 c -4.84209,2.80316 -7.28539,4.70073 -7.28539,5.65814 0,0.82846 2.07335,2.93185 4.87972,4.95041 11.36468,8.17439 13.85311,9.89887 14.34042,9.9379 0.28299,0.0227 1.42864,-1.88018 2.54589,-4.22855 z m 46.07792,-290.54696 c 0.64629,-1.34193 1.33674,-4.36126 1.53431,-6.70962 l 0.35924,-4.26976 -6.40369,0.008 c -6.98331,0.009 -11.4353,1.56685 -18.6404,6.52409 -2.02536,1.39347 -5.56907,3.17487 -7.87493,3.95866 -8.31255,2.82552 -6.0948,3.38386 12.50514,3.14826 l 17.34525,-0.21971 1.17508,-2.43987 0,-1.8e-4 z m 29.39599,-12.78642 c 6.71782,-8.69225 8.58559,-12.14539 11.99967,-22.18495 3.71955,-10.93781 5.52703,-18.55014 6.70796,-28.25095 l 1.06299,-8.73206 -1.9818,-2.160627 c -3.9333,-4.288226 -17.65229,-14.68944 -23.89195,-18.11397 -9.25186,-5.077713 -20.19957,-8.960948 -26.8871,-9.537053 -12.64616,-1.089418 -39.00061,4.417264 -65.46964,13.679682 -11.40367,3.990531 -28.91739,12.000683 -32.53151,14.878748 -0.67096,0.53432 -3.99242,2.63028 -7.38102,4.6577 -9.07621,5.43036 -31.65678,23.24855 -31.65678,24.98018 0,0.7677 10.65074,5.01118 17.44534,6.95059 4.16545,1.18895 4.95825,1.21995 5.69301,0.22257 0.4695,-0.63731 2.39731,-1.36441 4.28403,-1.61579 2.42483,-0.32306 5.64323,-1.98253 10.97938,-5.66118 10.67054,-7.35608 14.2491,-9.18478 22.795,-11.64857 5.90651,-1.70285 8.57611,-2.07324 12.40576,-1.72119 8.11944,0.7464 13.87623,1.90215 17.18794,3.45069 3.59509,1.68106 11.99254,10.06322 13.50524,13.48066 0.5585,1.26173 1.26371,2.29407 1.56714,2.29407 0.30342,0 0.97443,1.28093 1.49112,2.8465 1.06394,3.22377 0.62576,3.14663 11.1852,1.96918 9.0328,-1.00721 14.48689,-3.02535 22.39477,-8.28657 8.70053,-5.78859 15.21728,-5.95796 15.21728,-0.39549 0,0.83367 0.70718,3.06813 1.57152,4.96547 1.05324,2.31201 1.86806,6.9241 2.47064,13.98459 1.35945,15.92874 1.61149,17.44782 2.89495,17.44782 0.62945,0 3.75283,-3.37502 6.94086,-7.50005 l 0,0 z"
     id="path3027"
     inkscape:connector-curvature="0" />
</svg>
