<?xml version="1.0" encoding="UTF-8" standalone="no"?>
<!-- Created with Inkscape (http://www.inkscape.org/) -->

<svg
   xmlns:dc="http://purl.org/dc/elements/1.1/"
   xmlns:cc="http://creativecommons.org/ns#"
   xmlns:rdf="http://www.w3.org/1999/02/22-rdf-syntax-ns#"
   xmlns:svg="http://www.w3.org/2000/svg"
   xmlns="http://www.w3.org/2000/svg"
   xmlns:sodipodi="http://sodipodi.sourceforge.net/DTD/sodipodi-0.dtd"
   xmlns:inkscape="http://www.inkscape.org/namespaces/inkscape"
   id="svg2"
   version="1.1"
   inkscape:version="0.48.4 r9939"
   width="249.23885"
   height="354.33072"
   sodipodi:docname="kaito.svg">
  <metadata
     id="metadata8">
    <rdf:RDF>
      <cc:Work
         rdf:about="">
        <dc:format>image/svg+xml</dc:format>
        <dc:type
           rdf:resource="http://purl.org/dc/dcmitype/StillImage" />
        <dc:title />
      </cc:Work>
    </rdf:RDF>
  </metadata>
  <defs
     id="defs6" />
  <sodipodi:namedview
     pagecolor="#ffffff"
     bordercolor="#666666"
     borderopacity="1"
     objecttolerance="10"
     gridtolerance="10"
     guidetolerance="10"
     inkscape:pageopacity="0"
     inkscape:pageshadow="2"
     inkscape:window-width="1916"
     inkscape:window-height="1041"
     id="namedview4"
     showgrid="false"
     fit-margin-top="0"
     fit-margin-left="0"
     fit-margin-right="0"
     fit-margin-bottom="0"
     inkscape:zoom="1.2325093"
     inkscape:cx="84.41118"
     inkscape:cy="354.15558"
     inkscape:window-x="0"
     inkscape:window-y="18"
     inkscape:window-maximized="0"
     inkscape:current-layer="svg2" />
  <path
     style="fill:#ff0000;stroke:none"
     d="m 118.46564,354.21215 c -1.72546,-0.23848 -3.84732,-1.78027 -4.6884,-3.40677 -1.0436,-2.01806 0.17097,-7.37745 2.01957,-8.91161 0.664,-0.55104 4.19438,-5.37434 6.83251,-9.33467 0.83558,-1.25434 2.07888,-3.6537 2.76295,-5.33198 0.68408,-1.67822 1.97524,-4.45874 2.86931,-6.17893 1.28139,-2.46546 1.70547,-3.82848 2.00315,-6.43829 0.23384,-2.05036 0.69036,-3.81679 1.1992,-4.64013 1.3094,-2.11862 3.47754,-10.7075 6.73548,-26.68186 4.32941,-21.22815 4.71994,-23.68658 5.10533,-32.14077 0.18871,-4.13965 0.52607,-8.89973 0.74967,-10.57797 0.2236,-1.67818 0.29911,-4.38158 0.16776,-6.00744 -0.22426,-2.77668 -0.30316,-2.96974 -1.30083,-3.18192 -0.58416,-0.12421 -1.97752,-0.50639 -3.09634,-0.84932 -4.65443,-1.42659 -8.82466,-2.58135 -11.60782,-3.21442 -1.62783,-0.37022 -3.61822,-0.95499 -4.42309,-1.29944 -1.69353,-0.72475 -8.98621,-0.79271 -13.66873,-0.12735 -7.69477,1.09336 -10.632655,1.73179 -11.798564,2.56384 -9.628738,6.87192 -21.202194,18.73796 -31.44664,32.24158 -1.332047,1.75574 -1.960315,2.27253 -2.644509,2.17523 -0.807419,-0.11488 -0.893147,-0.35236 -0.854868,-2.36528 0.02663,-1.38643 0.396164,-3.01161 0.971908,-4.27194 0.511191,-1.11881 1.373075,-3.22424 1.915494,-4.67866 0.542459,-1.45454 1.501137,-3.74302 2.130539,-5.08557 0.629352,-1.34256 1.555546,-3.35653 2.058188,-4.47535 0.502693,-1.11883 1.898587,-4.0846 3.102043,-6.59053 1.203407,-2.50607 2.18797,-4.69115 2.18797,-4.85586 0,-0.42062 4.111983,-7.67334 7.234934,-12.76088 4.898373,-7.98002 6.403384,-10.20418 11.815345,-17.46127 6.18372,-8.29201 14.07639,-16.5195 23.74777,-24.75522 1.94563,-1.65677 3.61282,-3.22563 3.70489,-3.48638 0.0921,-0.26067 0.0127,-0.89277 -0.17674,-1.40457 -0.25876,-0.6998 -0.0991,-1.30525 0.64393,-2.44112 0.54345,-0.83073 1.11342,-2.02518 1.26667,-2.65434 0.15319,-0.62917 0.80328,-1.53188 1.44461,-2.00603 0.6413,-0.47415 1.28381,-1.24095 1.4278,-1.70397 0.14393,-0.4631 1.08756,-2.62698 2.09685,-4.80865 1.63209,-3.52795 1.9524,-3.96737 2.89537,-3.97231 2.88345,-0.0152 3.57798,-1.03837 5.76047,-8.48684 0.68018,-2.3213 1.80099,-5.43367 2.49069,-6.91639 1.69282,-3.63908 1.76201,-7.59745 0.22486,-12.86696 -0.58749,-2.01387 -1.19012,-4.53347 -1.33924,-5.59911 -0.14912,-1.06561 -0.41716,-2.02777 -0.59561,-2.13805 -0.1785,-0.11032 -0.4413,-0.97769 -0.58404,-1.92753 -0.14272,-0.94982 -0.55276,-3.15253 -0.91115,-4.89495 -0.58393,-2.83866 -0.81161,-3.29471 -2.18954,-4.38603 -0.86482,-0.68498 -1.74751,-1.85324 -2.01685,-2.66942 -0.36491,-1.10569 -0.88026,-1.63366 -2.16339,-2.21626 -0.92639,-0.42071 -2.19657,-0.76891 -2.8226,-0.77378 -1.40725,-0.0111 -2.93818,-1.57446 -3.29657,-3.36647 -0.35275,-1.76372 0.14057,-6.05536 0.78318,-6.81361 0.83374,-0.98369 2.6345,-4.96475 2.6345,-5.82413 0,-1.36425 -2.41634,-5.16066 -3.28459,-5.16066 -0.51262,0 -0.78384,0.28152 -0.78384,0.81366 0,0.94729 -1.02379,1.09957 -1.36764,0.20343 -0.30178,-0.78633 -1.64134,-0.78633 -2.29396,0 -0.8865,1.06815 -1.25129,0.65771 -0.66418,-0.74742 1.09763,-2.62702 -0.51445,-3.49042 -3.16215,-1.69365 -2.26118,1.53446 -2.93594,1.34588 -1.69873,-0.47481 1.18574,-1.74499 1.05564,-2.16968 -0.66468,-2.16968 -1.22016,0 -1.23724,-0.0249 -0.54642,-0.78802 0.71546,-0.79061 0.57254,-1.65305 -0.27392,-1.65305 -0.24887,0 -0.74583,-0.26543 -1.10434,-0.58988 -0.91874,-0.83149 -5.64482,-2.71443 -13.340127,-5.315 -5.431068,-1.83538 -7.094605,-2.23205 -9.361604,-2.23205 l -2.756808,0 -12.206566,12.10369 c -14.125904,14.0067 -15.30578,15.5259 -17.300318,22.27473 -0.727498,2.4614 -1.759974,5.64164 -2.294206,7.06716 -1.180668,3.14947 -1.790358,8.88568 -1.865201,17.54698 -0.05251,6.08256 -0.0092,6.43786 1.225474,10.0248 1.728393,5.02128 2.383121,7.69858 3.132615,12.81068 1.159559,7.90985 0.966218,8.35957 -4.443357,10.33257 -2.649213,0.9662 -3.652368,1.59965 -5.569426,3.5167 -4.760036,4.76004 -7.29609,5.56566 -7.806097,2.47988 -0.379179,-2.29418 -0.286292,-18.27867 0.141287,-24.3148 0.21655,-3.05704 0.9065,-7.6927 1.634932,-10.98486 0.693144,-3.13269 1.528182,-7.12982 1.855636,-8.88258 0.327447,-1.75277 0.84009,-3.6751 1.139202,-4.2719 0.299114,-0.59679 0.764115,-2.00048 1.033334,-3.1193 0.568146,-2.36109 4.145055,-9.89911 7.000795,-14.75358 4.104931,-6.97809 12.359161,-19.09239 17.743017,-26.04062 3.930229,-5.07221 4.108599,-5.38468 3.203917,-5.61176 -1.481082,-0.37173 -7.074334,-0.005 -14.892492,0.97543 -9.306017,1.16745 -10.978144,1.52683 -14.434971,3.10217 -2.389346,1.08883 -3.422057,1.89991 -5.926104,4.65443 -4.767317,5.24414 -12.844345,17.39955 -13.899963,20.91863 -0.351414,1.17149 -0.346738,2.96937 0.01901,7.32319 0.266636,3.17375 0.482341,6.14762 0.479334,6.60856 -0.003,0.46086 -0.829326,1.80315 -1.836263,2.98281 -1.340501,1.57044 -1.830807,2.49305 -1.830807,3.44507 0,1.97501 -0.932271,2.95873 -3.350032,3.53506 -1.178305,0.28087 -2.536085,0.76662 -3.017298,1.07953 -0.92137,0.59904 -6.6488717,7.0281 -7.8054638,8.76153 -0.3723758,0.55813 -1.2182168,1.81745 -1.8796687,2.79855 -0.6614467,0.98105 -2.0053859,3.1569 -2.9865358,4.83515 L 0,138.65453 0.21309533,132.95873 C 0.3809233,128.47286 0.68193183,126.269 1.6300758,122.58418 5.8938063,106.01384 11.740622,93.7901 21.382074,81.28944 27.102091,73.87314 39.39443,61.4567 44.587936,57.84926 c 2.218182,-1.54074 4.229435,-2.8013 4.469456,-2.8013 0.452195,0 1.583007,-0.51326 8.788333,-3.98838 10.891264,-5.25292 13.525015,-5.86655 25.482963,-5.93736 l 7.78512,-0.0461 3.606542,-3.29254 c 7.57124,-6.91215 10.64801,-9.41147 19.06662,-15.48828 8.40928,-6.07011 19.40961,-12.26622 28.0496,-15.79938 3.12021,-1.27597 6.04947,-2.55953 6.50951,-2.85238 0.81726,-0.52027 11.43987,-3.97245 18.73754,-6.0894 3.20834,-0.93069 4.67804,-1.09263 11.87209,-1.30816 L 187.16616,0 190.5508,2.98485 c 3.86585,3.40926 7.17343,7.21602 9.80685,11.28689 1.00176,1.54856 2.71274,3.92663 3.80225,5.28459 1.08945,1.35796 2.43854,3.35399 2.99792,4.43562 0.55943,1.08162 1.12074,2.05813 1.24739,2.17001 0.6921,0.61131 2.87085,5.09106 3.79287,7.79839 1.12307,3.29773 1.33605,5.57664 0.6422,6.87301 -0.23109,0.43186 -0.68188,4.25346 -1.00171,8.49247 l -0.58156,7.70724 -1.82831,3.38144 c -3.9784,7.358 -6.02338,9.66035 -12.64538,14.2368 -1.3426,0.92785 -3.81417,2.81406 -5.49243,4.1915 -3.71674,3.05065 -5.82938,4.4365 -7.81174,5.12447 -1.78354,0.61891 -4.9491,3.38572 -4.70648,4.11364 0.24217,0.72638 4.09853,2.56645 10.68739,5.09937 9.26911,3.56326 12.15985,4.54549 15.31707,5.20426 5.18227,1.08139 6.09646,1.59842 9.59158,5.42474 4.38762,4.8034 4.70588,5.29974 6.82169,10.63801 1.01991,2.57328 2.37128,5.77719 3.00305,7.11977 0.63178,1.34259 1.95456,4.23405 2.93961,6.42544 1.27673,2.84031 2.02462,4.03101 2.60465,4.14673 0.44753,0.0893 1.47397,0.2678 2.28096,0.39667 1.49922,0.23944 1.89176,0.77887 3.19451,4.38956 0.50841,1.40916 1.64434,1.49604 1.64434,0.12574 0,-0.54621 -0.18308,-1.10627 -0.40685,-1.24455 -0.22376,-0.13833 -0.40686,-0.92211 -0.40686,-1.7418 0,-1.48534 0.003,-1.48768 0.80554,-0.68485 1.58828,1.58827 2.23611,9.76253 1.00689,12.70451 -0.74914,1.79296 -0.80446,1.73406 3.96597,4.22611 2.73999,1.43132 3.24696,1.87555 4.03388,3.53426 0.49501,1.04344 1.23596,2.38311 1.64655,2.97708 1.07083,1.549 0.92832,2.23407 -0.57571,2.76833 l -1.32225,0.46971 0.9154,0.75412 c 1.15516,0.95167 1.14904,1.54722 -0.0313,3.02201 -0.84017,1.05 -1.10734,1.14679 -2.46335,0.89238 -1.302,-0.24423 -1.62889,-0.53714 -2.27071,-2.03436 -0.76112,-1.77566 -1.41225,-2.27022 -2.99819,-2.2774 -0.48518,-0.002 -1.87298,-0.46518 -3.084,-1.02888 -2.06891,-0.96313 -7.91328,-2.85192 -10.23533,-3.30796 -1.29869,-0.255 -3.22285,1.26228 -4.51395,3.5595 -1.08947,1.93849 -2.96015,2.63063 -5.33646,1.97447 -1.21202,-0.33461 -1.51283,-0.6127 -1.51283,-1.39853 0,-0.72799 0.4584,-1.24948 1.77855,-2.02311 1.2511,-0.73323 2.05618,-1.61297 2.71497,-2.96675 1.84106,-3.78356 1.84472,-3.79744 1.13391,-4.31715 -0.97292,-0.71146 -3.57655,-4.22509 -4.05514,-5.47245 -0.50311,-1.3113 -0.15346,-3.86172 0.7358,-5.3671 0.62079,-1.05093 0.59229,-1.21972 -0.62585,-3.69879 -1.96314,-3.99546 -5.22929,-8.7921 -10.25483,-15.06028 -4.49299,-5.60391 -4.64621,-5.74552 -7.87077,-7.27565 -1.80874,-0.85824 -5.66866,-2.32739 -8.57759,-3.26478 -2.90898,-0.93733 -5.46292,-1.86637 -5.67553,-2.06448 -0.21254,-0.19812 -0.80755,-0.36019 -1.32218,-0.36019 -0.87728,0 -0.9354,0.1589 -0.92974,2.54278 0.004,1.3985 0.18511,5.19743 0.40408,8.44203 l 0.39801,5.89923 2.33588,4.8231 c 1.96737,4.06216 2.73345,5.19496 4.85582,7.18033 1.38598,1.29649 3.12805,2.57024 3.87127,2.83058 0.90762,0.31791 2.08608,1.4235 3.58902,3.36712 1.23067,1.59156 3.64822,4.52658 5.37231,6.52227 5.61111,6.49511 9.76684,13.37616 15.06829,24.94991 1.82523,3.98483 6.52814,17.40582 7.67984,21.91647 1.00408,3.93272 2.06918,5.29074 9.26523,11.81344 5.21756,4.72932 9.90084,9.95042 10.41861,11.61502 0.17058,0.54844 0.63093,1.45484 1.02305,2.01426 0.72653,1.03655 2.55036,5.80674 3.34448,8.74715 0.2417,0.89505 0.45635,4.28205 0.477,7.52662 0.0441,6.87361 0.14527,6.59229 -4.37297,12.12614 l -3.03626,3.7187 -0.25828,4.38466 c -0.14205,2.41156 -0.42881,5.48314 -0.6372,6.82573 -0.20842,1.34258 -0.67193,4.8211 -1.03006,7.73005 -1.01607,8.25342 -1.70182,10.50806 -3.86217,12.69845 -3.46678,3.515 -7.6596,6.28387 -12.37676,8.17343 -3.11638,1.24833 -5.4147,2.50401 -7.49292,4.09367 -8.15958,6.24154 -17.19205,11.579 -22.9289,13.54914 -2.422,0.83173 -2.80547,0.87017 -3.33747,0.3342 -0.71859,-0.72396 -0.73708,-0.58137 2.16512,-16.67588 3.9699,-22.01539 6.32911,-37.21183 5.88787,-37.92575 -0.10797,-0.1747 -0.46015,-0.31764 -0.78257,-0.31764 -0.69219,0 -0.80412,-2.08744 -0.17501,-3.26303 1.23177,-2.30151 3.37525,-33.60002 2.51455,-36.71706 -0.28014,-1.01477 -0.27424,-1.52047 0.0192,-1.61823 0.29619,-0.0987 0.29726,-0.3849 0.004,-0.9364 -0.23273,-0.43687 -0.72503,-2.44196 -1.09412,-4.45584 -0.36901,-2.01392 -1.01701,-4.57706 -1.43997,-5.69587 -0.42297,-1.11881 -1.43487,-4.23116 -2.24872,-6.91633 -2.32065,-7.65715 -2.80811,-8.933 -3.45763,-9.05025 -0.4061,-0.0733 -1.21358,1.13769 -2.43799,3.65628 -1.00696,2.07128 -2.59307,5.13921 -3.52475,6.81757 -1.49251,2.68887 -1.72441,3.46285 -1.95066,6.50983 -0.14126,1.90202 -0.35247,4.07467 -0.46944,4.8281 -0.20617,1.3287 -0.25821,1.36254 -1.73328,1.12665 -2.55284,-0.40816 -3.72935,0.98554 -6.78559,8.03795 -1.73058,3.99356 -1.80737,5.58045 -0.32232,6.66227 0.98067,0.71433 1.09854,1.09215 1.27116,4.07383 0.10464,1.80762 0.0696,3.92945 -0.0778,4.71525 -0.24337,1.29734 -0.40702,1.44025 -1.77969,1.55419 -1.48301,0.12309 -1.50989,0.15544 -1.4155,1.70833 0.0529,0.8706 0.69368,2.87987 1.42391,4.46498 1.74666,3.79124 1.68405,5.3068 -0.48984,11.85327 -2.62134,7.89401 -4.67373,10.30672 -7.3543,8.64548 -1.20401,-0.74618 -1.44801,-0.10166 -2.02406,5.34604 -0.27471,2.59786 -0.63596,4.90643 -0.80281,5.1302 -0.16687,0.22376 -0.53169,1.41379 -0.81073,2.64446 -0.43132,1.90232 -4.15545,10.87393 -7.51529,18.10462 -3.82281,8.22702 -6.21675,14.82163 -6.61048,18.21 -0.13628,1.17273 -0.48017,2.4984 -0.76423,2.94592 -0.28398,0.44754 -0.7266,2.98074 -0.98357,5.62928 -0.25694,2.64855 -0.70206,5.4863 -0.98913,6.30611 -0.28708,0.81979 -0.65005,2.35537 -0.80661,3.41249 -0.17862,1.20621 -0.8048,2.64554 -1.68153,3.86503 -2.88949,4.01927 -3.80734,6.31511 -4.4729,11.1881 -1.03286,7.56221 -1.81406,8.12336 -11.51677,8.27207 -3.72572,0.0571 -7.4148,0.0154 -8.19796,-0.093 l -1.8e-4,0 z M 150.7134,216.46368 c 3.32771,-6.99459 3.96892,-8.46634 4.06183,-9.3229 0.10154,-0.93624 0.0472,-0.94994 -3.77909,-0.94994 l -3.88218,0 -3.64446,2.1098 c -2.42224,1.40232 -3.6445,2.35157 -3.6445,2.83046 0,0.41447 1.0372,1.46671 2.44106,2.47643 5.68516,4.08922 6.92999,4.95188 7.17377,4.97146 0.14152,0.0114 0.71464,-0.9406 1.27357,-2.11531 z M 173.76375,71.1183 c 0.3233,-0.67128 0.66867,-2.18166 0.76751,-3.35642 l 0.17973,-2.136 -3.20341,0.004 c -3.4934,0.005 -5.7205,0.78385 -9.32482,3.26365 -1.01317,0.69708 -2.78591,1.58828 -3.93942,1.98034 -4.15832,1.41344 -3.0489,1.69276 6.25567,1.57494 l 8.67691,-0.10995 0.58783,-1.22054 0,-1e-4 z m 14.70526,-6.39632 c 3.36055,-4.34833 4.29492,-6.07577 6.00278,-11.09799 1.86073,-5.47162 2.76488,-9.27966 3.35568,-14.13247 l 0.53172,-4.36818 -0.99136,-1.08086 c -1.96763,-2.14517 -8.83056,-7.34834 -11.95188,-9.06146 -4.62826,-2.54011 -10.10479,-4.48268 -13.45023,-4.77088 -6.32618,-0.54498 -19.50992,2.20972 -32.751,6.84322 -5.70463,1.99626 -14.46584,6.00331 -16.27378,7.44305 -0.33566,0.2673 -1.99722,1.31579 -3.69236,2.33001 -4.54032,2.71652 -15.83622,11.63002 -15.83622,12.49628 0,0.38402 5.32802,2.50682 8.727,3.47699 2.08375,0.59476 2.48036,0.6103 2.84791,0.11137 0.23487,-0.31886 1.19927,-0.68257 2.14306,-0.80832 1.21302,-0.16158 2.82303,-0.99173 5.49243,-2.83197 5.33791,-3.67988 7.12807,-4.59468 11.40315,-5.82718 2.95469,-0.85185 4.29013,-1.03713 6.20594,-0.86102 4.06173,0.37338 6.94154,0.95154 8.59822,1.72619 1.79839,0.84095 5.99923,5.03413 6.75597,6.74366 0.27936,0.6312 0.63216,1.14761 0.78394,1.14761 0.15179,0 0.48747,0.64075 0.74593,1.42396 0.53224,1.61265 0.31304,1.5741 5.59538,0.98504 4.51859,-0.50379 7.24701,-1.51341 11.20291,-4.14528 4.35243,-2.89575 7.61241,-2.98047 7.61241,-0.19784 0,0.41702 0.35377,1.53479 0.78614,2.48393 0.52688,1.15661 0.9345,3.46376 1.23595,6.99573 0.68002,7.96837 0.80611,8.72824 1.44819,8.72824 0.31485,0 1.87732,-1.68832 3.47212,-3.75183 l 0,0 z"
     id="path3027"
     inkscape:connector-curvature="0" />
</svg>
