<?xml version="1.0" encoding="UTF-8" standalone="no"?>
<!-- Created with Inkscape (http://www.inkscape.org/) -->

<svg
   xmlns:dc="http://purl.org/dc/elements/1.1/"
   xmlns:cc="http://creativecommons.org/ns#"
   xmlns:rdf="http://www.w3.org/1999/02/22-rdf-syntax-ns#"
   xmlns:svg="http://www.w3.org/2000/svg"
   xmlns="http://www.w3.org/2000/svg"
   xmlns:sodipodi="http://sodipodi.sourceforge.net/DTD/sodipodi-0.dtd"
   xmlns:inkscape="http://www.inkscape.org/namespaces/inkscape"
   id="svg2"
   version="1.1"
   inkscape:version="0.48.4 r9939"
   width="112.22666"
   height="354.33072"
   sodipodi:docname="len.svg">
  <metadata
     id="metadata8">
    <rdf:RDF>
      <cc:Work
         rdf:about="">
        <dc:format>image/svg+xml</dc:format>
        <dc:type
           rdf:resource="http://purl.org/dc/dcmitype/StillImage" />
        <dc:title />
      </cc:Work>
    </rdf:RDF>
  </metadata>
  <defs
     id="defs6" />
  <sodipodi:namedview
     pagecolor="#ffffff"
     bordercolor="#666666"
     borderopacity="1"
     objecttolerance="10"
     gridtolerance="10"
     guidetolerance="10"
     inkscape:pageopacity="0"
     inkscape:pageshadow="2"
     inkscape:window-width="1916"
     inkscape:window-height="1041"
     id="namedview4"
     showgrid="false"
     inkscape:zoom="1.1793442"
     inkscape:cx="52.861509"
     inkscape:cy="276.48988"
     inkscape:window-x="0"
     inkscape:window-y="18"
     inkscape:window-maximized="0"
     inkscape:current-layer="svg2"
     fit-margin-top="0"
     fit-margin-left="0"
     fit-margin-right="0"
     fit-margin-bottom="0" />
  <path
     style="fill:#ffff00;stroke:none"
     d=""
     id="path3051"
     inkscape:connector-curvature="0" />
  <path
     style="fill:#ffff00;stroke:none"
     d=""
     id="path3071"
     inkscape:connector-curvature="0" />
  <path
     style="fill:#ffff00;stroke:none"
     d=""
     id="path3131"
     inkscape:connector-curvature="0" />
  <path
     style="fill:#ffff00;stroke:none"
     d=""
     id="path3135"
     inkscape:connector-curvature="0" />
  <path
     style="fill:#ffff00;stroke:none"
     d=""
     id="path3165"
     inkscape:connector-curvature="0" />
  <path
     style="fill:#ff0000;stroke:none"
     d="m 88.606791,0.43114013 c -0.271888,0.0425 -0.733558,0.35438 -1.39447,1.06312997 -2.181186,2.12626 -5.697308,3.82726 -12.789015,6.48509 -3.080948,1.06313 -6.618934,2.4806299 -7.848726,3.1893799 -2.902342,1.41751 -8.63608,1.41751 -12.6894,0.202 -3.045865,-1.06313 -6.573787,-3.6855199 -6.573787,-4.9612699 0,-0.35438 -0.26563,-0.70875 -0.597478,-0.70875 -0.379537,0 -0.470258,0.70875 -0.258968,1.4175 0.184736,0.70875 0.473801,2.83501 0.657368,4.2170799 0.310122,2.48063 0.233339,2.83501 -1.175466,3.93358 -0.834202,0.70875 -1.774362,1.06313 -2.091529,1.06313 -0.317138,-0.085 -2.527766,-2.12626 -4.900457,-4.64233 C 34.901717,7.4726001 34.650145,7.0473501 34.701777,4.9210901 l 0.03984,-2.12626 -0.976094,2.12626 c -0.536171,1.06313 -1.486573,3.18939 -2.131503,4.74864 C 30.946389,11.08724 30.574754,12.85912 30.757506,13.497 c 0.471285,1.77188 3.97073,6.16614 5.776971,7.12296 2.036955,1.06313 2.037664,2.12626 0,7.05209 -1.552983,3.68551 -3.804835,12.54492 -3.804835,14.91924 0,0.70875 0.986336,2.48063 2.19125,3.79182 l 2.191286,2.48064 -1.613475,2.48063 c -0.888032,1.41751 -2.180052,2.83501 -2.86857,3.18939 -1.220224,0.70875 -1.184538,0.70875 1.713161,1.06313 l 2.968185,0.0602 -2.569759,2.12626 c -1.412083,1.41751 -2.549844,2.83501 -2.549844,3.18939 0,0.35437 0.511471,2.48063 1.135492,4.18164 0.623951,1.77188 0.987187,3.72095 0.816732,4.18164 -0.170392,0.35437 -2.3689,1.77188 -4.880545,3.18938 -3.332767,1.77189 -4.71745,2.48064 -5.139512,3.65008 -0.318156,0.70875 -1.30088,5.42196 -2.191251,10.31235 -0.890335,4.89039 -3.428803,15.59256 -5.637528,23.77865 -2.208721,8.18609 -4.393748,16.97462 -4.860625,19.4907 -1.2333,6.66227 -4.3139395,16.93918 -7.4104582,24.7709 C 2.0774601,159.18109 0.87212714,161.77158 0,162.28542 l 0,14.42312 c 0.06406462,0.0142 0.13432535,0.0354 0.19920592,0.0602 0.49811096,0.19491 1.15689298,0.35438 1.45420398,0.35438 0.8573178,0.14884 1.3257536,1.06313 1.3346804,2.48063 0.00982,1.77189 1.3030274,2.48064 5.0598272,3.18939 1.4461388,0.26224 3.1306665,1.06313 3.7251535,1.41751 1.080884,1.06312 1.079466,1.06312 -2.9482331,7.76084 -3.4259682,5.67002 -5.0332809,9.00115 -8.54593541,17.64794 C 0.19336042,210.08724 0.09145624,210.26089 0,210.41327 l 0,67.61145 c 1.947404,0.23389 3.4063322,-0.35437 4.4821336,-2.12626 2.7181725,-4.03989 4.4622106,-14.49399 4.4622106,-26.71997 l 0,-8.2924 2.1912508,-0.70876 c 3.426606,-1.06313 3.673801,-2.12625 1.633497,-7.93803 -2.253337,-6.23702 -2.564798,-9.74534 -1.414351,-15.41536 1.138824,-5.63459 3.087716,-10.38323 7.410462,-18.07319 1.839071,-3.18939 4.26192,-7.65453 5.378557,-9.70992 2.307095,-4.28795 3.027117,-3.96901 2.430312,1.06313 -0.455586,3.86271 -1.892901,7.54822 -7.908474,20.3412 l -5.000069,10.66673 1.474135,1.77188 c 3.197821,4.18164 8.838719,8.89485 13.207353,10.98567 l 1.832692,0.70875 -0.358558,10.1706 c -0.238282,6.66227 -0.633554,10.84391 -1.135492,12.1551 -0.720376,1.77189 -2.665583,13.21824 -4.143481,24.16847 -0.361677,2.83501 -0.676186,10.34779 -0.697236,17.0455 -0.03487,11.16285 0.108018,13.07648 1.733078,23.49515 3.351939,21.51064 4.675506,23.74321 17.968373,30.54723 3.084491,1.41751 4.133268,1.77188 8.705289,2.12626 6.122666,0.27287 10.057873,-0.70875 13.107741,-3.18939 1.149951,-1.06313 2.970737,-1.77188 4.282921,-1.77188 7.947845,-1.06313 13.325009,-4.50058 11.275049,-6.94577 -0.302857,-0.35438 -0.623702,-1.77189 -0.717258,-3.18939 -0.156751,-2.48063 -0.347923,-2.83501 -2.470002,-4.21708 -2.609627,-1.77188 -2.884623,-2.83501 -1.215157,-5.52827 1.414316,-2.12626 1.355844,-3.72095 -0.278887,-7.22927 -1.883155,-4.03989 -4.059168,-11.7653 -4.043894,-14.35224 0.007,-1.06313 0.644256,-3.65008 1.414316,-5.42196 0.770059,-1.77188 2.184021,-5.06758 3.127371,-7.30015 0.943704,-2.12626 2.343136,-5.03215 3.107525,-6.20159 2.002226,-3.18939 7.808682,-12.8993 10.279039,-17.29356 2.351287,-4.18164 3.562864,-5.70546 4.442284,-5.63458 1.330329,0.15238 1.793498,-0.12404 2.390622,-1.41751 0.344993,-0.70875 0.637523,-2.12626 0.637523,-2.83501 0,-0.70875 1.219409,-2.83501 3.386425,-5.13846 6.537,-7.40646 6.87259,-7.93803 6.87259,-10.70216 0,-1.41751 -0.72186,-5.52827 -1.61347,-9.17835 -2.15709,-8.82397 -2.13477,-9.10747 0.85652,-12.01335 3.95392,-3.8627 3.94226,-3.54377 0.25897,-11.34004 -3.42221,-7.30016 -4.03241,-9.63904 -2.33073,-8.89485 2.29104,1.06313 4.88788,1.06313 6.03595,-0.23743 2.36759,-2.48063 1.28886,-5.10302 -4.60165,-11.72986 -3.48104,-3.89814 -3.99704,-4.78408 -4.00403,-6.55596 -0.01,-2.48063 -1.36009,-8.36328 -2.41046,-10.38322 -0.682532,-1.41751 -0.687493,-1.77188 -0.0199,-2.48064 0.5429,-0.70875 0.78458,-2.48063 0.79699,-6.34333 0.0164,-5.10302 -0.0784,-5.56371 -2.19111,-10.24148 -2.618487,-5.81177 -3.292156,-6.83946 -12.211311,-18.32125 -9.513055,-12.22598 -9.713313,-12.58036 -10.816876,-19.4907 -0.774312,-4.85495 -0.814357,-6.23702 -0.258968,-8.39872 1.115931,-4.35882 0.891611,-8.15065 -0.677213,-11.48179 -1.199918,-2.48063 -1.38065,-3.65007 -1.334581,-7.86715 0.06515,-5.91809 -0.546094,-7.54822 -4.342669,-11.72986 l -2.828631,-3.18938 1.334581,-1.77188 c 1.602844,-2.12626 2.802053,-4.50058 3.266995,-6.44965 0.323,-1.41751 0.200035,-1.41751 -1.952259,-1.77188 -1.262643,-0.20909 -3.95771,-1.06313 -5.996082,-2.12626 l -3.705252,-1.77188 3.266995,-1.77189 c 4.15935,-2.12625 6.790416,-4.57145 8.167452,-7.68996 1.219409,-2.83501 2.373612,-2.83501 2.629472,-0.30122 0.12373,1.4175 0.371032,1.77188 0.975952,1.4175 0.449704,-0.17364 1.54012,0.21263 2.410468,0.70876 1.842048,1.4175 2.03093,0.70875 0.756947,-2.12626 -0.445805,-1.06313 -0.796992,-2.48063 -0.796992,-2.83501 0,-1.06313 1.819014,-1.06313 2.988101,0.25869 0.894091,1.06313 6.188473,4.28796 6.872597,4.28796 0.152477,0 -0.541842,-1.41751 -1.55394,-3.54377 -1.012099,-1.77188 -1.90371,-4.39426 -1.972104,-5.52827 -0.115509,-1.77188 -0.01817,-2.12625 1.235001,-1.77188 0.743127,0.0921 4.23834,0.31185 7.769027,0.35438 4.629111,0.21262 6.303114,0.13112 6.035949,-0.30122 -0.203731,-0.32957 -0.871056,-0.70875 -1.49405,-0.70875 -1.595402,0 -4.642896,-3.54377 -7.908474,-8.82397 -3.115322,-5.1739 -3.485291,-6.5914 -1.573785,-6.0244 0.668708,0.20199 1.649267,0.70875 2.171263,1.06313 1.811572,1.4175 1.455424,0.30122 -0.418164,-1.41751 -1.036196,-1.06313 -1.892369,-2.12625 -1.892369,-2.12625 0,-0.20554 1.384548,-0.70876 3.067836,-0.70876 1.683287,-0.20908 3.562615,-0.70875 4.183341,-0.70875 0.927403,-0.35438 0.779628,-0.35438 -0.836683,-0.35438 -2.108539,-0.0354 -11.245458,-2.48063 -11.9922,-3.18938 -0.247588,-0.24452 0.418164,-1.41751 1.474206,-2.83501 2.448031,-3.18939 3.726018,-6.13071 5.139519,-11.7298599 1.084037,-4.28795 1.394825,-5.81176997 0.796992,-5.74088997 z M 31.713581,107.8426 c 0.103843,-0.0177 0.215393,0.0142 0.318729,0.0992 0.385172,0.32248 0.697236,0.70875 0.697236,1.06313 0,0.29059 0.34002,1.4175 0.756983,2.12626 1.113379,2.48063 3.565787,10.52497 3.565787,11.65898 0,0.70875 0.358275,1.77188 0.796993,2.48063 0.804434,1.41751 0.685009,4.74864 -0.258968,6.98121 -0.961777,2.12626 -2.709207,8.07978 -2.709207,9.0366 0,0.70875 -0.239717,1.06313 -0.537872,1.06313 -0.298137,0 -1.642286,0.70875 -2.988101,1.4175 -2.29363,1.41751 -2.395938,1.41751 -1.49405,2.48064 0.529154,0.35437 1.418178,1.06313 1.972139,1.06313 0.761838,0.27287 0.917728,0.70875 0.617536,1.4175 -0.218331,0.70875 -0.653611,2.83501 -0.976094,4.57146 -0.463559,2.83501 -0.806879,3.54376 -1.573714,3.54376 -1.059727,0 -1.408327,2.48063 -0.398425,2.83501 0.368055,0.12403 0.272419,1.77188 -0.258968,4.39427 -0.913228,4.78408 -1.145273,5.31564 -2.131502,4.92583 -0.388716,-0.14884 -1.013198,0.0957 -1.394436,0.70875 -1.088785,1.4175 -1.810792,1.06313 -1.454218,-0.70875 0.177532,-0.70876 0.710241,-4.39427 1.175324,-7.97347 0.465155,-3.5792 1.081982,-7.54822 1.37452,-8.85941 0.29253,-1.4175 0.783242,-8.22153 1.075709,-15.37993 0.689581,-16.90375 2.267122,-28.73992 3.824751,-29.02342 z m 31.89287,114.06664 c 0.199844,0 0.649926,1.4175 1.015997,2.83501 0.365716,1.4175 0.851566,3.18938 1.075887,3.54376 0.224004,0.29768 0.572672,1.4175 0.776792,2.48063 1.246696,6.34334 2.487013,7.19384 10.438402,7.12297 5.710101,-0.0461 6.352514,0.30476 7.948306,4.50058 l 0.896572,2.48063 -2.051839,1.77188 c -2.140787,2.12626 -3.101501,2.48064 -3.705217,1.41751 -0.689616,-1.06313 -2.529183,1.06313 -2.211308,2.83501 0.235349,1.06313 -0.26496,2.12625 -2.649317,5.13845 -1.621271,2.12626 -2.94841,3.89814 -2.94841,4.11077 -0.0019,0.23389 -0.256261,0.70875 -0.557789,1.06313 -0.557079,0.70875 -1.458258,2.12625 -5.896502,8.75309 -3.5629,5.42196 -3.583205,5.42196 -6.43434,11.05654 -1.426364,2.83501 -3.863587,7.4419 -5.418413,10.24148 -1.555003,2.83501 -2.956916,5.67002 -3.127371,6.34333 -0.334985,1.41751 -1.186806,1.77188 -1.49405,0.70875 -1.086164,-3.8627 -1.445147,-5.77633 -1.972105,-10.66672 -0.782817,-7.26472 -1.282133,-19.59701 -0.856527,-21.26258 0.199652,-0.70875 0.690325,-1.4175 1.254846,-1.06313 1.338125,0.10631 2.54584,-2.48063 1.79279,-3.96901 -0.321277,-0.70876 -0.939097,-1.06313 -1.374626,-1.06313 -0.717966,0 -1.037968,-0.70875 -0.856527,-1.77188 0.794866,-4.8904 1.319697,-8.1861 1.63332,-10.38323 0.21336,-1.4175 0.859363,-4.57145 1.434161,-6.8749 l 1.055687,-4.1462 2.968256,-0.31894 c 1.636864,-0.17719 4.015438,-0.70875 5.278966,-1.06313 l 2.290689,-0.70875 0,-2.83501 c 0,-3.18939 1.135067,-9.8871 1.69321,-9.8871 z"
     id="path3241"
     inkscape:connector-curvature="0" />
</svg>
