<?xml version="1.0" encoding="UTF-8" standalone="no"?>
<!-- Created with Inkscape (http://www.inkscape.org/) -->

<svg
   xmlns:dc="http://purl.org/dc/elements/1.1/"
   xmlns:cc="http://creativecommons.org/ns#"
   xmlns:rdf="http://www.w3.org/1999/02/22-rdf-syntax-ns#"
   xmlns:svg="http://www.w3.org/2000/svg"
   xmlns="http://www.w3.org/2000/svg"
   xmlns:sodipodi="http://sodipodi.sourceforge.net/DTD/sodipodi-0.dtd"
   xmlns:inkscape="http://www.inkscape.org/namespaces/inkscape"
   id="svg2"
   version="1.1"
   inkscape:version="0.48.4 r9939"
   width="176.05354"
   height="555.92017"
   sodipodi:docname="rin_len.svg">
  <metadata
     id="metadata8">
    <rdf:RDF>
      <cc:Work
         rdf:about="">
        <dc:format>image/svg+xml</dc:format>
        <dc:type
           rdf:resource="http://purl.org/dc/dcmitype/StillImage" />
        <dc:title></dc:title>
      </cc:Work>
    </rdf:RDF>
  </metadata>
  <defs
     id="defs6" />
  <sodipodi:namedview
     pagecolor="#ffffff"
     bordercolor="#666666"
     borderopacity="1"
     objecttolerance="10"
     gridtolerance="10"
     guidetolerance="10"
     inkscape:pageopacity="0"
     inkscape:pageshadow="2"
     inkscape:window-width="1916"
     inkscape:window-height="1041"
     id="namedview4"
     showgrid="false"
     inkscape:zoom="1.1793442"
     inkscape:cx="224.99107"
     inkscape:cy="276.4912"
     inkscape:window-x="0"
     inkscape:window-y="18"
     inkscape:window-maximized="0"
     inkscape:current-layer="svg2"
     fit-margin-top="0"
     fit-margin-left="0"
     fit-margin-right="0"
     fit-margin-bottom="0" />
  <path
     style="fill:#ffff00;stroke:none"
     d=""
     id="path3051"
     inkscape:connector-curvature="0" />
  <path
     style="fill:#ffff00;stroke:none"
     d=""
     id="path3071"
     inkscape:connector-curvature="0" />
  <path
     style="fill:#ffff00;stroke:none"
     d=""
     id="path3131"
     inkscape:connector-curvature="0" />
  <path
     style="fill:#ffff00;stroke:none"
     d=""
     id="path3135"
     inkscape:connector-curvature="0" />
  <path
     style="fill:#ffff00;stroke:none"
     d=""
     id="path3165"
     inkscape:connector-curvature="0" />
  <path
     style="fill:#ff0000;stroke:none"
     d="m 139,0.00594201 c -0.42652,0.06495 -1.15062,0.656399 -2.1875,1.62499999 -3.4219,3.196561 -8.9375,6.008096 -20.0625,10.1875 -4.833,1.81566 -10.3833,4.105489 -12.3125,5.09375 -4.5529,2.332284 -13.54765,2.46303 -19.90625,0.3125 -4.7783,-1.616048 -10.3125,-5.786235 -10.3125,-7.78125 0,-0.65123 -0.4167,-1.1875 -0.9375,-1.1875 -0.5952,0 -0.73745,0.877623 -0.40625,2.34375 0.2898,1.282492 0.74315,4.255381 1.03125,6.625 0.4865,4.001947 0.36605,4.449268 -1.84375,6.1875 -1.3085,1.029237 -2.78375,1.759329 -3.28125,1.625 -0.4975,-0.134331 -3.9652,-3.405935 -7.6875,-7.28125 -6.3426,-6.603362 -6.73725,-7.26389 -6.65625,-10.59375 l 0.0625,-3.5625 -1.53125,3.375 c -0.8411,1.865443 -2.33205,5.241352 -3.34375,7.46875 -1.0787,2.375142 -1.6617,4.857796 -1.375,6 0.7393,2.945461 6.229,9.691017 9.0625,11.15625 3.1957,1.65469 3.1964,3.454814 0,11.0625 -2.4362,5.798313 -5.96875,19.66059 -5.96875,23.40625 0,1.02424 1.5473,3.69547 3.4375,5.9375 l 3.4375,4.0625 -2.53125,3.6875 c -1.3931,2.02478 -3.4199,4.31008 -4.5,5.0625 -1.9142,1.33342 -1.8582,1.3571 2.6875,1.4375 l 4.65625,0.0937 -4.03125,3.59375 c -2.2152,1.98637 -4,4.20591 -4,4.90625 0,0.70035 0.80235,3.63272 1.78125,6.531248 0.9788,2.89854 1.54865,5.8346 1.28125,6.53125 -0.2673,0.69665 -3.71615,2.84177 -7.65625,4.75 -5.2282,2.53211 -7.4004,4.08295 -8.0625,5.71875 -0.4991,1.23277 -2.0407,8.4889 -3.4375,16.15625 -1.3967,7.66735 -5.37885,24.45998 -8.84375,37.3125 -3.4649,12.85253 -6.8926,26.62968 -7.625,30.59375 -1.9347,10.47016 -6.7674,26.59507 -11.625,38.875 C 3.25897,249.03768 1.36813,253.1065 0,253.91214 l 0,22.625 c 0.1005,0.02 0.21072,0.0541 0.3125,0.0937 0.7814,0.30431 1.81485,0.6055 2.28125,0.6875 1.3449,0.23658 2.07975,1.66608 2.09375,4.03125 0.0154,2.59178 2.0441,3.86442 7.9375,4.9375 2.2686,0.41308 4.91115,1.53614 5.84375,2.46875 1.6956,1.69555 1.6934,1.67803 -4.625,12.15625 C 8.46935,309.82496 5.9479,315.04159 0.4375,328.56834 0.30333,328.8977 0.14347,329.17307 0,329.41209 l 0,106.0625 c 3.05495,0.36423 5.34361,-0.67491 7.03125,-3.1875 4.2641,-6.34854 7,-22.74038 7,-41.90625 l 0,-13 3.4375,-1.03125 c 5.3754,-1.6105 5.7632,-3.59217 2.5625,-12.4375 -3.5349,-9.7694 -4.02345,-15.26626 -2.21875,-24.1875 1.7865,-8.83087 4.8438,-16.30157 11.625,-28.34375 2.885,-5.12318 6.6858,-11.98785 8.4375,-15.25 3.6192,-6.74027 4.7487,-6.21575 3.8125,1.75 -0.7147,6.08054 -2.96945,11.8637 -12.40625,31.9375 l -7.84375,16.71875 2.3125,3.03125 c 5.0165,6.57704 13.86555,13.95167 20.71875,17.25 l 2.875,1.375 -0.5625,15.96885 c -0.3738,10.43997 -0.99385,17.00786 -1.78125,19.0625 -1.1301,2.94914 -4.1816,20.75477 -6.5,37.90625 -0.5674,4.19725 -1.06075,16.22563 -1.09375,26.71875 -0.0547,17.5284 0.16945,20.51516 2.71875,36.875 5.2583,33.74549 7.3346,37.26063 28.1875,47.9375 4.839,2.47764 6.48395,2.87156 13.65625,3.1875 9.6048,0.42307 15.7781,-1.04161 20.5625,-4.84375 1.8042,-1.43387 4.66045,-2.69756 6.71875,-3 12.468,-1.832 20.9033,-7.03141 17.6875,-10.90625 -0.4751,-0.57241 -0.9785,-2.94477 -1.125,-5.25 -0.2459,-3.87209 -0.5458,-4.363 -3.875,-6.59375 -4.094,-2.74317 -4.52515,-4.70192 -1.90625,-8.65625 2.2186,-3.35002 2.1269,-5.83501 -0.4375,-11.34375 -2.9541,-6.34586 -6.36775,-18.42899 -6.34375,-22.53125 0.011,-1.8856 1.01065,-5.73309 2.21875,-8.53125 1.208,-2.79817 3.42605,-7.93979 4.90625,-11.4375 1.4803,-3.49771 3.6755,-7.88456 4.875,-9.75 3.141,-4.88458 12.2497,-20.22161 16.125,-27.125 3.6885,-6.57072 5.58915,-8.97127 6.96875,-8.8125 2.087,0.24019 2.8134,-0.19444 3.75,-2.25 0.5412,-1.18785 1,-3.08676 1,-4.21875 0,-1.32016 1.9131,-4.21864 5.3125,-8.0625 10.2548,-11.59585 10.78125,-12.45361 10.78125,-16.8125 0,-2.19066 -1.13225,-8.67679 -2.53125,-14.40625 -3.3839,-13.85756 -3.34885,-14.27292 1.34375,-18.84375 6.2026,-6.04168 6.18435,-5.45883 0.40625,-17.78125 -5.3688,-11.44956 -6.32575,-15.11029 -3.65625,-13.9375 3.5942,1.57901 7.66775,1.42601 9.46875,-0.375 3.7143,-3.71427 2.02205,-7.98866 -7.21875,-18.375 -5.461,-6.13796 -6.27025,-7.48181 -6.28125,-10.28125 -0.0156,-4.00974 -2.13345,-13.09467 -3.78125,-16.28125 -1.0708,-2.07068 -1.07865,-2.61667 -0.0312,-4 0.8516,-1.12479 1.231,-4.07283 1.25,-9.96875 0.0258,-7.99856 -0.1229,-8.70134 -3.4375,-16.0625 -4.1076,-9.12247 -5.16435,-10.71561 -19.15625,-28.71875 -14.9234,-19.20157 -15.23755,-19.73541 -16.96875,-30.5625 -1.2146,-7.59609 -1.27745,-9.757 -0.40625,-13.15625 1.7504,-6.82993 1.3989,-12.79456 -1.0625,-18.03125 -1.8824,-4.00487 -2.16575,-5.72922 -2.09375,-12.3125 0.1022,-9.30672 -0.8566,-11.85876 -6.8125,-18.375 l -4.4375,-4.875 2.09375,-2.78125 c 2.5144,-3.35835 4.3957,-7.07879 5.125,-10.125 0.5067,-2.11661 0.3138,-2.27863 -3.0625,-2.84375 -1.9806,-0.33154 -6.20855,-1.79254 -9.40625,-3.21875 l -5.81255,-2.593748 5.125,-2.59375 c 6.5249,-3.29499 10.6523,-7.17921 12.8125,-12.0625 1.9128,-4.3244 3.7234,-4.51869 4.125,-0.46875 0.1941,1.9565 0.58225,2.52044 1.53125,2.15625 0.7055,-0.27073 2.41585,0.33425 3.78125,1.34375 2.8896,2.13636 3.186,1.18935 1.1875,-3.59375 -0.6996,-1.67423 -1.25,-3.62923 -1.25,-4.34375 0,-1.86078 2.8536,-1.62025 4.6875,0.40625 1.4028,1.55009 9.70805,6.75 10.78125,6.75 0.2392,0 -0.8499,-2.4477 -2.4375,-5.4375 -1.5875,-2.98979 -2.98625,-6.8971 -3.09375,-8.6875 -0.1812,-3.01906 -0.0285,-3.24254 1.9375,-3 1.1659,0.14383 6.6488,0.4932 12.1875,0.75 7.2618,0.33669 9.88785,0.20938 9.46875,-0.46875 -0.3196,-0.51722 -1.36635,-0.9375 -2.34375,-0.9375 -2.5029,0 -7.28345,-5.33196 -12.40625,-13.84375 -4.8869,-8.119751 -5.46755,-10.351355 -2.46875,-9.4375 1.0493,0.319769 2.58725,1.155752 3.40625,1.875 2.8418,2.495666 2.28295,0.473835 -0.65625,-2.375 -1.6253,-1.575279 -2.96875,-3.11636 -2.96875,-3.4375 0,-0.321141 2.1718,-0.857576 4.8125,-1.1875 2.6406,-0.329923 5.5888,-0.918708 6.5625,-1.3125 1.4551,-0.588487 1.223,-0.73707 -1.3125,-0.78125 -3.3079,-0.05763 -17.6411,-3.938899 -18.8125,-5.09375 -0.3884,-0.382935 0.6559,-2.454772 2.3125,-4.625 3.8405,-5.031325 5.8451,-9.637399 8.0625,-18.40625 1.7006,-6.724994 2.18835,-9.14288399 1.25,-8.99999999 z M 49.75,168.50594 c 0.1629,-0.0291 0.33789,0.0217 0.5,0.15625 0.6042,0.50146 1.09375,1.29463 1.09375,1.75 0,0.45537 0.5334,2.03044 1.1875,3.5 1.7466,3.92402 5.59375,16.51846 5.59375,18.3125 0,0.85062 0.562,2.61144 1.25,3.9375 1.2619,2.43235 1.07455,7.42897 -0.40625,10.9375 -1.5086,3.57428 -4.25,12.69397 -4.25,14.15625 0,0.84217 -0.37605,1.53125 -0.84375,1.53125 -0.4677,0 -2.5763,1.0609 -4.6875,2.375 -3.5981,2.23946 -3.75855,2.47134 -2.34375,3.6875 0.8301,0.71365 2.22475,1.56527 3.09375,1.875 1.1951,0.42595 1.43965,1.03353 0.96875,2.46875 -0.3425,1.04365 -1.02535,4.27274 -1.53125,7.1875 -0.7272,4.19008 -1.26575,5.3125 -2.46875,5.3125 -1.6624,0 -2.2093,3.84689 -0.625,4.375 0.5774,0.19247 0.42735,2.51806 -0.40625,6.875 -1.4326,7.48766 -1.79665,8.34366 -3.34375,7.75 -0.6098,-0.23403 -1.5894,0.15424 -2.1875,0.875 -1.708,2.05793 -2.84065,1.54413 -2.28125,-1.03125 0.2785,-1.28249 1.11415,-6.90367 1.84375,-12.5 0.7297,-5.59633 1.69735,-11.83541 2.15625,-13.875 0.4589,-2.03959 1.2287,-12.90456 1.6875,-24.15625 1.08178,-26.53115 3.5565,-45.06291 6,-45.5 z m 50.03125,178.9375 c 0.3135,0 1.01975,1.9891 1.59375,4.4375 0.5739,2.44839 1.3361,4.84614 1.6875,5.3125 0.3514,0.46636 0.89835,2.18024 1.21875,3.8125 1.9559,9.96538 3.9017,11.28867 16.375,11.1875 8.9576,-0.0727 9.96535,0.4763 12.46875,7.03125 l 1.40625,3.71875 -3.21875,3 c -3.3585,3.1218 -4.8655,3.65728 -5.8125,2.125 -1.0818,-1.75046 -3.96775,1.9427 -3.46875,4.4375 0.3692,1.84628 -0.41565,3.37664 -4.15625,8.0625 -2.5431,3.18587 -4.625,6.0993 -4.625,6.46875 -0.003,0.36946 -0.402,1.12423 -0.875,1.6875 -0.8737,1.04066 -2.2875,3.1548 -9.25,13.75 -5.5892,8.50549 -5.62105,8.51959 -10.09375,17.375 -2.2377,4.43043 -6.0609,11.68024 -8.5,16.09375 -2.4392,4.4135 -4.63865,8.90251 -4.90625,9.96875 -0.5255,2.09367 -1.86205,2.59194 -2.34375,0.875 -1.7041,-6.07395 -2.26695,-9.08754 -3.09375,-16.75 -1.2283,-11.38204 -2.01145,-30.71433 -1.34375,-33.375 0.3132,-1.24776 1.08275,-2.0099 1.96875,-1.9375 2.0992,0.17164 3.9936,-4.01178 2.8125,-6.21875 -0.504,-0.94163 -1.47305,-1.71875 -2.15625,-1.71875 -1.1261,0 -1.62805,-1.03405 -1.34375,-2.78125 1.2471,-7.66451 2.0701,-12.85099 2.5625,-16.28125 0.3347,-2.3318 1.3481,-7.18626 2.25,-10.78125 l 1.65625,-6.53125 4.65625,-0.5 c 2.5676,-0.27411 6.29915,-0.93214 8.28125,-1.4375 l 3.59375,-0.90625 0,-4.59375 c 0,-5.1345 1.78065,-15.53125 2.65625,-15.53125 z"
     id="path3241"
     inkscape:connector-curvature="0" />
</svg>
