<?xml version="1.0" encoding="UTF-8" standalone="no"?>
<!-- Created with Inkscape (http://www.inkscape.org/) -->

<svg
   xmlns:dc="http://purl.org/dc/elements/1.1/"
   xmlns:cc="http://creativecommons.org/ns#"
   xmlns:rdf="http://www.w3.org/1999/02/22-rdf-syntax-ns#"
   xmlns:svg="http://www.w3.org/2000/svg"
   xmlns="http://www.w3.org/2000/svg"
   xmlns:sodipodi="http://sodipodi.sourceforge.net/DTD/sodipodi-0.dtd"
   xmlns:inkscape="http://www.inkscape.org/namespaces/inkscape"
   id="svg2"
   version="1.1"
   inkscape:version="0.48.4 r9939"
   width="88.353043"
   height="354.33051"
   sodipodi:docname="luka.svg">
  <metadata
     id="metadata8">
    <rdf:RDF>
      <cc:Work
         rdf:about="">
        <dc:format>image/svg+xml</dc:format>
        <dc:type
           rdf:resource="http://purl.org/dc/dcmitype/StillImage" />
        <dc:title />
      </cc:Work>
    </rdf:RDF>
  </metadata>
  <defs
     id="defs6" />
  <sodipodi:namedview
     pagecolor="#ffffff"
     bordercolor="#666666"
     borderopacity="1"
     objecttolerance="10"
     gridtolerance="10"
     guidetolerance="10"
     inkscape:pageopacity="0"
     inkscape:pageshadow="2"
     inkscape:window-width="1916"
     inkscape:window-height="1041"
     id="namedview4"
     showgrid="false"
     fit-margin-top="0"
     fit-margin-left="0"
     fit-margin-right="0"
     fit-margin-bottom="0"
     inkscape:zoom="1.2573008"
     inkscape:cx="44.17652"
     inkscape:cy="161.25817"
     inkscape:window-x="0"
     inkscape:window-y="18"
     inkscape:window-maximized="0"
     inkscape:current-layer="svg2" />
  <path
     style="fill:#ff0000;stroke:none"
     d="m 15.739181,354.08069 c -1.218205,-0.2373 -3.310559,-2.256 -3.967789,-3.8282 -0.290405,-0.6947 -0.47305,-5.3971 -0.459807,-11.8384 0.01733,-8.4324 0.177935,-11.203 0.76158,-13.1382 0.716208,-2.3747 3.366685,-22.8251 4.460797,-34.4183 0.3763,-3.9873 0.391583,-5.835 0.05108,-6.1755 -0.267229,-0.2672 -1.793585,-1.1297 -3.391908,-1.9167 l -2.906035,-1.4309 0.116427,-2.6166 0.116425,-2.6166 -2.6518728,-1.6277 c -1.4585308,-0.8953 -3.8255184,-2.7258 -5.2599754,-4.0678 L 0,267.96579 l 4.5738669,-8.6319 c 2.5156244,-4.7476 4.8771538,-9.83 5.247845,-11.2943 1.0397191,-4.1071 2.8822791,-22.9019 3.6731061,-37.4671 1.539562,-28.3551 2.309995,-37.5439 4.67687,-55.77979 1.237839,-9.5371 1.573483,-13.50725 1.355047,-16.02816 -0.227673,-2.62748 -0.136753,-3.57022 0.421142,-4.36673 0.391328,-0.55869 0.711503,-1.59393 0.711503,-2.30051 0,-1.12229 -0.378797,-1.47149 -2.996436,-2.76231 -1.64804,-0.81268 -2.996436,-1.67477 -2.996436,-1.91575 0,-0.24098 1.218009,-1.70657 2.706687,-3.25688 2.922923,-3.04392 4.642176,-6.03743 6.349049,-11.05477 1.372523,-4.03452 1.360885,-4.33445 -0.181677,-4.68185 -3.762869,-0.84744 -4.805796,-1.24241 -6.054038,-2.29274 -0.753946,-0.6344 -1.734384,-2.10547 -2.178754,-3.26903 -0.760398,-1.99108 -0.763292,-2.33618 -0.04916,-5.864507 0.536332,-2.64988 0.676506,-4.8653 0.478134,-7.55682 -0.249069,-3.37935 -0.133746,-4.25948 1.024757,-7.82087 0.858516,-2.63918 2.143695,-5.23702 3.754116,-7.5885 2.538155,-3.70613 2.894148,-5.04854 1.742561,-6.57107 -0.921495,-1.21833 -0.885042,-1.37138 0.777747,-3.26519 1.496967,-1.70495 3.796832,-3.08172 6.055296,-3.62489 2.520926,-0.60628 6.319838,-2.20015 6.319838,-2.65155 0,-0.25998 -0.43015,-0.3224 -0.992268,-0.144 -2.753033,0.87378 -6.60648,-0.16804 -8.365781,-2.26178 -2.685168,-3.1956 -3.574647,-5.27595 -4.955564,-11.59023 -0.509305,-2.32882 -1.605093,-5.47728 -2.497849,-7.17693 -0.874772,-1.66542 -1.729938,-3.90005 -1.900366,-4.96586 -0.559147,-3.49672 -1.11075,-2.51652 -1.11075,1.9738 0,2.42364 -0.181899,4.40661 -0.404221,4.40661 -0.222322,0 -0.844659,-1.02382 -1.38297,-2.27516 -2.556376,-5.94245 0.02897,-17.99044 5.375931,-25.05247 1.99702,-2.6375695 8.077916,-7.3911195 11.393441,-8.9064695 2.780181,-1.27066003 9.60186,-2.24339003 12.853082,-1.83277003 3.499294,0.44196 10.913342,2.83638003 12.533776,4.04789003 9.7486,7.2884395 11.362743,10.7560395 12.189424,26.1860595 0.867967,16.20071 3.197171,27.81324 7.574972,37.76595 3.456038,7.85713 3.516096,8.23357 3.93964,24.69431 0.413796,16.081857 0.413962,16.082997 3.862153,26.737427 4.049763,12.51319 5.085258,19.33111 4.779211,31.46735 -0.213976,8.48499 -0.326494,9.42633 -1.665439,13.93309 -0.789777,2.6583 -1.559433,6.0811 -1.710346,7.6063 -0.249951,2.5261 -0.133821,3.0502 1.303777,5.8848 0.867987,1.7114 1.392094,3.1116 1.164673,3.1116 -0.731057,0 -4.793265,-4.4689 -5.405282,-5.9464 -0.325642,-0.7862 -0.7225,-1.4272 -0.881896,-1.4244 -0.159396,0 -0.871623,1.5573 -1.582714,3.4546 -1.568526,4.185 -3.32667,6.5702 -7.111487,9.6478 l -2.872509,2.3358 0.215674,6.4538 c 0.118624,3.5497 0.329738,16.515 0.469147,28.8119 0.276548,24.3936 0.633666,30.2497 2.333324,38.2622 1.503206,7.0864 1.901022,11.7282 1.088991,12.7066 -2.337568,2.8166 -10.705112,7.0129 -16.446736,8.2479 l -1.488966,0.3202 0.789685,-2.1306 c 0.692671,-1.869 0.705694,-2.1838 0.105995,-2.5626 -1.216175,-0.7682 -1.602921,-0.1961 -1.748269,2.586 -0.197755,3.7853 1.15739,18.9037 1.941854,21.6639 0.355017,1.2491 0.787191,3.1009 0.960379,4.1151 0.173192,1.0142 0.815934,3.5786 1.428322,5.6987 1.379736,4.7767 1.379825,5.8744 8.91e-4,10.2055 -0.605464,1.9016 -1.248491,4.8499 -1.428948,6.5519 -0.180467,1.702 -0.569462,3.4246 -0.86445,3.828 -0.42211,0.5773 -2.006441,0.8237 -7.439225,1.1571 -3.796589,0.233 -8.458732,0.6303 -10.360315,0.8829 -1.901586,0.2527 -5.578559,0.4657 -8.171053,0.4736 l -4.713724,0.014 0.271727,1.4982 c 0.14945,0.824 0.666766,3.3287 1.14959,5.5658 1.289489,5.9749 0.196725,8.8609 -3.787705,10.0037 -1.538879,0.4413 -6.13083,0.5145 -8.108743,0.1292 l 0,0 z m 19.850181,-28.8902 c 0.844623,-1.0482 2.689501,-3.6057 4.099727,-5.6833 3.182387,-4.6884 3.292232,-5.4033 2.984582,-19.4264 -0.179341,-8.1746 -0.43213,-11.3514 -1.161548,-14.5974 -0.512778,-2.2819 -1.067461,-4.9268 -1.23263,-5.8776 -0.266531,-1.5343 -0.451662,-1.7287 -1.646165,-1.7287 -0.81604,0 -1.517865,0.3214 -1.782787,0.8164 -0.553772,1.0347 -7.081415,25.2579 -8.292446,30.7722 -1.209595,5.5076 -2.228235,12.3872 -2.616512,17.6711 l -0.316945,4.3131 4.214522,-2.1767 c 2.903744,-1.4997 4.692144,-2.7695 5.750202,-4.0827 z m 35.671511,-148.616 c 1.146628,-2.7053 1.954082,-6.4504 1.943032,-9.012 l -0.0083,-1.9365 -1.397003,2.5348 c -0.76835,1.3941 -1.594373,2.7321 -1.835607,2.9733 -0.551166,0.5512 -0.583069,7.6301 -0.03439,7.6301 0.222321,0 0.821864,-0.9854 1.332311,-2.1897 z M 83.686592,147.7626 c -0.225381,-4.78141 -1.003562,-9.0482 -1.550472,-8.50129 -0.197206,0.1972 0.198634,4.65671 1.041022,11.72822 0.451989,3.79419 0.751097,1.89956 0.50945,-3.22693 z"
     id="path2997"
     inkscape:connector-curvature="0" />
</svg>
