<?xml version="1.0" encoding="UTF-8" standalone="no"?>
<!-- Created with Inkscape (http://www.inkscape.org/) -->

<svg
   xmlns:dc="http://purl.org/dc/elements/1.1/"
   xmlns:cc="http://creativecommons.org/ns#"
   xmlns:rdf="http://www.w3.org/1999/02/22-rdf-syntax-ns#"
   xmlns:svg="http://www.w3.org/2000/svg"
   xmlns="http://www.w3.org/2000/svg"
   xmlns:sodipodi="http://sodipodi.sourceforge.net/DTD/sodipodi-0.dtd"
   xmlns:inkscape="http://www.inkscape.org/namespaces/inkscape"
   id="svg2"
   version="1.1"
   inkscape:version="0.48.4 r9939"
   width="297.68076"
   height="1193.8179"
   sodipodi:docname="luka.png">
  <metadata
     id="metadata8">
    <rdf:RDF>
      <cc:Work
         rdf:about="">
        <dc:format>image/svg+xml</dc:format>
        <dc:type
           rdf:resource="http://purl.org/dc/dcmitype/StillImage" />
        <dc:title></dc:title>
      </cc:Work>
    </rdf:RDF>
  </metadata>
  <defs
     id="defs6" />
  <sodipodi:namedview
     pagecolor="#ffffff"
     bordercolor="#666666"
     borderopacity="1"
     objecttolerance="10"
     gridtolerance="10"
     guidetolerance="10"
     inkscape:pageopacity="0"
     inkscape:pageshadow="2"
     inkscape:window-width="1916"
     inkscape:window-height="1041"
     id="namedview4"
     showgrid="false"
     fit-margin-top="0"
     fit-margin-left="0"
     fit-margin-right="0"
     fit-margin-bottom="0"
     inkscape:zoom="0.32192083"
     inkscape:cx="321.22064"
     inkscape:cy="581.58177"
     inkscape:window-x="0"
     inkscape:window-y="18"
     inkscape:window-maximized="0"
     inkscape:current-layer="svg2" />
  <path
     style="fill:#ff0000;stroke:none"
     d="m 53.02875,1192.9756 c -4.1044,-0.7995 -11.154,-7.6011 -13.36835,-12.8981 -0.97844,-2.3406 -1.59381,-18.1841 -1.54919,-39.8861 0.0584,-28.4109 0.5995,-37.7454 2.56593,-44.2655 2.41306,-8.001 11.3431,-76.9029 15.0294,-115.96297 1.26784,-13.43406 1.31933,-19.65929 0.17211,-20.80649 -0.90035,-0.90036 -6.04298,-3.80642 -11.42808,-6.45793 l -9.79107,-4.8209 0.39227,-8.8159 0.39226,-8.81589 -8.93474,-5.48429 C 21.59518,921.74519 13.62028,915.57785 8.78728,911.05636 L 0,902.83548 15.41036,873.75267 c 8.47569,-15.99553 16.4322,-33.11931 17.68114,-38.05283 3.50304,-13.83767 9.71103,-77.16152 12.3755,-126.23489 5.18712,-95.53466 7.78288,-126.49359 15.7574,-187.93441 4.17055,-32.13256 5.30141,-45.50889 4.56545,-54.00236 -0.76708,-8.85258 -0.46075,-12.02888 1.41892,-14.71247 1.31847,-1.88237 2.39721,-5.3703 2.39721,-7.75093 0,-3.78125 -1.27625,-4.95779 -10.09565,-9.30684 -5.55261,-2.73811 -10.09565,-5.64267 -10.09565,-6.45458 0,-0.81191 4.10374,-5.74982 9.11942,-10.97313 9.84797,-10.25565 15.64051,-20.34142 21.39134,-37.24595 4.62433,-13.59319 4.58512,-14.60371 -0.61211,-15.77419 -12.67793,-2.85522 -16.19178,-4.18596 -20.39738,-7.72474 -2.54021,-2.13743 -5.84352,-7.09378 -7.3407,-11.01407 -2.56195,-6.70839 -2.5717,-7.8711 -0.16563,-19.75884 1.80702,-8.928 2.2793,-16.39224 1.61094,-25.46057 -0.83917,-11.38578 -0.45062,-14.35111 3.45263,-26.35021 2.89253,-8.892 7.22258,-17.64469 12.64844,-25.56733 8.5516,-12.48675 9.75102,-17.00963 5.87107,-22.13938 -3.10472,-4.10482 -2.9819,-4.62047 2.6204,-11.00114 5.04361,-5.74435 12.79236,-10.38299 20.40162,-12.21303 8.49355,-2.04271 21.29292,-7.41281 21.29292,-8.93366 0,-0.87595 -1.44927,-1.08626 -3.34317,-0.48517 -9.27557,2.94396 -22.25868,-0.56616 -28.18615,-7.62043 -9.04692,-10.7667 -12.04377,-17.77584 -16.69638,-39.05003 -1.71596,-7.8463 -5.40791,-18.45416 -8.4158,-24.18067 -2.9473,-5.61114 -5.82854,-13.14012 -6.40275,-16.73107 -1.88389,-11.781206 -3.74236,-8.478703 -3.74236,6.65018 0,8.16576 -0.61286,14.84685 -1.36191,14.84685 -0.74905,0 -2.84584,-3.44949 -4.65953,-7.66552 -8.61299,-20.02144 0.0976,-60.613731 18.11269,-84.407262 6.7284,-8.886567 27.21627,-24.902322 38.387,-30.007847 9.36704,-4.2811562 32.35077,-7.5584983 43.30485,-6.17501227 11.78989,1.48904797 36.76944,9.55639837 42.22904,13.63821727 32.84517,24.556368 38.28357,36.239474 41.06884,88.226594 2.92437,54.58374 10.77197,93.7089 25.52174,127.24174 11.64415,26.4724 11.8465,27.74072 13.27351,83.20055 1.39417,54.18332 1.39473,54.18715 13.01244,90.08426 13.64454,42.1597 17.13335,65.13077 16.10221,106.02042 -0.72093,28.58776 -1.10003,31.75935 -5.61123,46.94347 -2.66093,8.95638 -5.25407,20.48872 -5.76253,25.62742 -0.84214,8.51093 -0.45087,10.27689 4.39271,19.82705 2.92444,5.76617 4.69027,10.48394 3.92404,10.48394 -2.46309,0 -16.14956,-15.0567 -18.21158,-20.03483 -1.09716,-2.64881 -2.43426,-4.80842 -2.9713,-4.79916 -0.53704,0.009 -2.93669,5.24694 -5.33251,11.63929 -5.28471,14.10019 -11.20828,22.13642 -23.96016,32.50557 l -9.67811,7.86973 0.72665,21.74447 c 0.39967,11.95947 1.11096,55.64257 1.58066,97.07356 0.93175,82.18723 2.13496,101.91776 7.86148,128.91369 5.06463,23.87573 6.40496,39.5149 3.66905,42.81146 -7.87578,9.48974 -36.06787,23.6277 -55.41266,27.78872 l -5.01665,1.07909 2.66062,-7.17875 c 2.33376,-6.29682 2.37764,-7.3575 0.35712,-8.63379 -4.09756,-2.58829 -5.40059,-0.66086 -5.8903,8.71281 -0.66628,12.75346 3.8995,63.69054 6.54253,72.99024 1.19613,4.2087 2.65222,10.4479 3.23573,13.8649 0.58352,3.417 2.74906,12.0571 4.81233,19.2002 4.64863,16.0937 4.64893,19.7921 0.003,34.3844 -2.03994,6.4069 -4.20644,16.3406 -4.81444,22.0749 -0.60803,5.7343 -1.91864,11.5381 -2.91252,12.8973 -1.42218,1.945 -6.76014,2.7753 -25.06438,3.8986 -12.79154,0.7851 -28.49932,2.1237 -34.90617,2.9748 -6.40686,0.8511 -18.79539,1.569 -27.53007,1.5954 l -15.88157,0.048 0.91551,5.0478 c 0.50353,2.7763 2.24648,11.2149 3.87322,18.7523 4.34457,20.1306 0.66281,29.8544 -12.76161,33.7045 -5.18482,1.487 -20.65611,1.7337 -27.32013,0.4356 l 0,0 z m 66.87961,-97.3375 c 2.84572,-3.5318 9.06152,-12.1486 13.81288,-19.1484 10.72216,-15.7961 11.09225,-18.205 10.05571,-65.4518 -0.60424,-27.5418 -1.45594,-38.24528 -3.91351,-49.1817 -1.72766,-7.68823 -3.59651,-16.59958 -4.153,-19.80301 -0.898,-5.16939 -1.52175,-5.82441 -5.54629,-5.82441 -2.74942,0 -5.11402,1.08283 -6.0066,2.75061 -1.86578,3.48625 -23.85884,85.09961 -27.93907,103.67821 -4.07539,18.5566 -7.50741,41.7354 -8.8156,59.5378 l -1.06786,14.5319 14.19965,-7.3338 c 9.78335,-5.0529 15.80886,-9.3311 19.37369,-13.7554 z M 240.0935,594.91815 c 3.86324,-9.11471 6.58373,-21.73269 6.5465,-30.3634 l -0.0281,-6.52455 -4.70681,8.54022 c -2.58874,4.69712 -5.37179,9.20521 -6.18456,10.01799 -1.857,1.85699 -1.96449,25.70733 -0.11587,25.70733 0.74905,0 2.76904,-3.31992 4.48885,-7.37759 z m 41.86497,-97.07356 c -0.75936,-16.10961 -3.38122,-30.48535 -5.22388,-28.64271 -0.66443,0.66443 0.66924,15.68948 3.50743,39.51495 1.52285,12.78347 2.53061,6.40004 1.71645,-10.87224 z"
     id="path2997"
     inkscape:connector-curvature="0" />
</svg>
