<?xml version="1.0" encoding="UTF-8" standalone="no"?>
<!-- Created with Inkscape (http://www.inkscape.org/) -->

<svg
   xmlns:dc="http://purl.org/dc/elements/1.1/"
   xmlns:cc="http://creativecommons.org/ns#"
   xmlns:rdf="http://www.w3.org/1999/02/22-rdf-syntax-ns#"
   xmlns:svg="http://www.w3.org/2000/svg"
   xmlns="http://www.w3.org/2000/svg"
   xmlns:sodipodi="http://sodipodi.sourceforge.net/DTD/sodipodi-0.dtd"
   xmlns:inkscape="http://www.inkscape.org/namespaces/inkscape"
   id="svg2"
   version="1.1"
   inkscape:version="0.48.4 r9939"
   width="563.19269"
   height="503.68536"
   sodipodi:docname="meiko.png">
  <metadata
     id="metadata8">
    <rdf:RDF>
      <cc:Work
         rdf:about="">
        <dc:format>image/svg+xml</dc:format>
        <dc:type
           rdf:resource="http://purl.org/dc/dcmitype/StillImage" />
        <dc:title></dc:title>
      </cc:Work>
    </rdf:RDF>
  </metadata>
  <defs
     id="defs6" />
  <sodipodi:namedview
     pagecolor="#ffffff"
     bordercolor="#666666"
     borderopacity="1"
     objecttolerance="10"
     gridtolerance="10"
     guidetolerance="10"
     inkscape:pageopacity="0"
     inkscape:pageshadow="2"
     inkscape:window-width="1916"
     inkscape:window-height="1041"
     id="namedview4"
     showgrid="false"
     fit-margin-top="0"
     fit-margin-left="0"
     fit-margin-right="0"
     fit-margin-bottom="0"
     inkscape:zoom="1.7332249"
     inkscape:cx="281.59634"
     inkscape:cy="251.84268"
     inkscape:window-x="0"
     inkscape:window-y="18"
     inkscape:window-maximized="0"
     inkscape:current-layer="svg2" />
  <path
     style="fill:#ff0000;stroke:none"
     d="m 305.82918,502.67974 c -1.3735,-1.37347 -2.7456,-4.09905 -3.3653,-6.68498 -0.2669,-1.11358 -1.7521,-4.00903 -3.3005,-6.43435 -4.1587,-6.51409 -4.3862,-6.88343 -5.5987,-9.08818 -0.6123,-1.11357 -1.9867,-3.13626 -3.0542,-4.49487 -2.6661,-3.3932 -10.0223,-14.64979 -10.0223,-15.33633 0,-0.3074 -1.137,-2.04517 -2.5267,-3.86171 -1.3896,-1.81653 -2.9841,-4.11853 -3.5431,-5.11554 -0.5591,-0.99702 -2.108,-3.42663 -3.4421,-5.39914 -1.334,-1.97251 -3.4176,-5.25674 -4.6301,-7.29829 -1.2126,-2.04155 -3.3976,-5.27361 -4.8555,-7.18235 -2.3389,-3.062 -3.0241,-3.52642 -5.8218,-3.94596 -3.9199,-0.58782 -6.1998,-1.73989 -9.6988,-4.90104 l -2.7175,-2.45513 -13.2709,0.81514 c -7.2989,0.44834 -15.093,1.09834 -17.3201,1.44444 -2.2272,0.34611 -8.9086,0.95583 -14.8477,1.35492 -5.939,0.39909 -14.2908,1.161 -18.5595,1.69312 -4.2687,0.53212 -11.3184,1.28819 -15.666,1.68014 -4.3476,0.39196 -8.6953,1.0132 -9.6614,1.38054 -2.285,0.86874 -4.2083,-0.14762 -5.3307,-2.8169 -1.0416,-2.47734 -0.6256,-5.13734 0.8686,-5.55367 0.6086,-0.16957 5.6621,-0.49636 11.2299,-0.72621 5.5679,-0.22985 12.2493,-0.70111 14.8477,-1.04725 2.5983,-0.34615 12.7513,-1.25998 22.5621,-2.03075 9.8109,-0.77076 18.0503,-1.53265 18.3099,-1.69309 0.328,-0.2027 24.7268,-2.33447 26.7434,-2.33662 0.5128,-5.4e-4 4.7848,-5.09707 4.5674,-5.44887 -0.1523,-0.24637 -2.4854,-0.65216 -5.1848,-0.90176 -2.6994,-0.24961 -7.4894,-0.89596 -10.6445,-1.43634 -5.6788,-0.97261 -20.0055,-2.61465 -32.3948,-3.71289 -3.5264,-0.31259 -20.9613,-0.92141 -38.7443,-1.35293 -29.63,-0.71901 -32.5918,-0.89563 -35.4318,-2.11292 -4.1448,-1.77652 -5.2417,-2.87055 -7.6637,-7.64332 -1.8858,-3.7163 -2.0541,-4.60443 -2.0456,-10.79827 0.013,-9.24655 2.7965,-18.96628 7.1567,-24.98757 7.5995,-10.49446 21.4427,-23.86022 30.7389,-29.67871 0.5931,-0.37119 1.389,-1.00705 1.7688,-1.41301 0.7403,-0.7915 5.3342,-3.38978 14.5257,-8.21572 3.1551,-1.65657 6.4958,-3.42034 7.4238,-3.91947 2.6061,-1.40177 11.5372,-4.77274 14.1727,-5.34937 1.2992,-0.28426 3.4206,-1.08374 4.7143,-1.77663 1.2937,-0.6929 2.8122,-1.27313 3.3745,-1.28943 0.5622,-0.0163 2.2371,-0.48629 3.7219,-1.04444 3.1528,-1.18522 15.8811,-4.55629 21.2968,-5.64045 3.7138,-0.74344 3.7671,-0.78853 5.5679,-4.71172 1,-2.1786 1.8182,-4.38902 1.8182,-4.91204 0,-0.52302 0.4459,-1.54047 0.9909,-2.261 2.6959,-3.56429 -0.3218,-8.33459 -5.2981,-8.37509 -3.3835,-0.0276 -7.166,-2.31818 -7.166,-4.33966 0,-0.82977 0.9182,-3.30409 2.0405,-5.49849 1.9327,-3.77916 2.0009,-4.18054 1.2907,-7.60161 -0.6721,-3.23706 -0.5584,-4.28647 1.095,-10.11453 2.9305,-10.32981 6.0531,-15.90358 13.0641,-23.31957 3.8481,-4.07033 12.3277,-10.4494 15.1507,-11.3976 1.1638,-0.39089 2.4956,-1.00752 2.9596,-1.37031 0.8657,-0.67692 1.1905,-7.57865 0.4477,-9.51439 -0.4139,-1.0786 -8.5234,6.08695 -35.6774,31.52467 -19.1523,17.94179 -17.9181,16.4529 -17.9181,21.61471 0,4.09006 -0.1324,4.46217 -2.1934,6.16165 -1.2064,0.99478 -7.148,6.69891 -13.2036,12.67583 -12.5429,12.37981 -13.8923,14.49914 -18.7233,29.40651 -2.1219,6.54791 -4.7763,9.27956 -16.1592,16.62988 -4.4543,2.87627 -9.1711,5.94677 -10.4819,6.8233 -1.3107,0.87655 -3.956,1.89199 -5.8783,2.25654 -1.9223,0.36456 -4.0792,1.02762 -4.7931,1.47346 -1.0688,0.66751 -1.7358,0.55234 -3.7775,-0.65229 -1.3637,-0.80462 -2.9829,-1.46293 -3.5982,-1.46293 -0.6154,0 -3.7109,1.27604 -6.8791,2.83564 -5.4759,2.69567 -6.0601,2.83548 -11.8343,2.83228 -5.853195,-0.003 -6.282595,-0.11114 -11.810595,-2.96763 -9.5109,-4.91455 -15.0782,-9.15101 -18.9808,-14.44345 -2.6362,-3.57502 -2.488,-5.66565 0.6865,-9.68166 3.3357,-4.22001 6.1574,-5.57019 11.6473,-5.57333 4.12,-0.002 7.2686,-0.92186 17.107795,-4.99611 5.4229,-2.24552 8.9736,-4.67158 16.5827,-11.33029 5.4466,-4.76629 17.8777,-18.92357 23.0409,-26.24026 3.6674,-5.19719 12.5672,-16.93551 18.2373,-24.05405 6.7311,-8.45062 8.3389,-9.6241 13.2022,-9.63591 1.5177,-0.003 3.0497,-1.32491 5.9954,-5.17035 0.8089,-1.05588 2.6357,-3.43829 4.0598,-5.29425 1.424,-1.85595 3.04,-4.01522 3.5911,-4.79838 3.1153,-4.42739 10.0672,-13.63436 11.8715,-15.72239 1.1528,-1.33406 2.4927,-3.18482 2.9775,-4.1128 0.4848,-0.92797 2.1231,-3.35759 3.6406,-5.39914 2.9586,-3.98028 3.3805,-4.60078 5.4587,-8.02816 0.7423,-1.22435 2.4108,-3.63923 3.7077,-5.3664 1.2969,-1.72716 2.8154,-3.94895 3.3745,-4.9373 1.6601,-2.93479 6.5561,-10.25941 7.7084,-11.53212 0.5881,-0.64959 1.0693,-1.38017 1.0693,-1.62353 0,-0.24335 0.7943,-1.48385 1.7651,-2.75666 0.9736,-1.27644 1.5033,-2.56298 1.1811,-2.86901 -0.3212,-0.30515 -3.805,-0.89495 -7.7416,-1.31066 -16.2273,-1.7136 -26.6116,-4.53633 -38.2323,-10.39251 -3.8065,-1.91829 -17.7768,-8.92642 -31.045,-15.57363 -13.2683,-6.64721 -25.3389,-12.88375 -26.8237,-13.85897 -1.4847,-0.97523 -3.7625,-2.19713 -5.0617,-2.71533 -1.2991,-0.5182 -5.8241,-2.70543 -10.0554,-4.860503 -6.433,-3.276444 -7.815,-3.76074 -8.4361,-2.95645 -0.6419,0.83108 -1.1099,0.82433 -3.4425,-0.04967 -1.484695,-0.556355 -3.762495,-1.31926 -5.061695,-1.695337 -1.2991,-0.376077 -5.2473,-1.83979 -8.7736,-3.252691 -3.5263,-1.4129 -7.6121,-2.782507 -9.0796,-3.043568 -1.4675,-0.261069 -3.7453,-1.019648 -5.0617,-1.68574 -1.3165,-0.666092 -3.4565,-1.42492 -4.7557,-1.686279 -1.2991,-0.261359 -3.3383,-0.811079 -4.5315,-1.221596 -1.5961,-0.549173 -2.5769,-0.544645 -3.7119,0.01714 -0.8484,0.419945 -2.9092,0.966581 -4.5795,1.214746 -1.6704,0.248165 -4.0611,0.872784 -5.3128,1.388038 -1.349,0.555261 -4.6896,0.936797 -8.2027,0.936797 -6.436,0 -7.1205,-0.245721 -23.941,-8.595037 C 7.3555848,73.658538 7.3748848,73.675148 6.8522848,69.492806 c -0.8231,-6.588146 1.4025,-8.033973 11.2867002,-7.332366 l 6.1258,0.434815 -1.8818,-2.467086 c -1.0349,-1.356897 -5.9338,-6.362366 -10.8864,-11.123264 C 6.5439848,44.244008 2.2001848,39.581626 1.8436848,38.644057 0.74198476,35.746148 -0.37641524,19.164374 0.12208476,13.117291 c 0.4349,-5.2762013 0.6461,-5.9023983 2.67370004,-7.9299849 1.7578,-1.7578425 2.7501,-2.2014236 4.9245,-2.2014236 1.4977,0 3.4863002,0.2901484 4.4190002,0.6447743 3.636,1.3823966 10.301,8.8453382 11.573,12.9584532 1.3427,4.341914 3.9558,7.408728 9.3983,11.030045 3.0685,2.041714 5.8077,3.712207 6.087,3.712207 0.2794,0 2.6751,1.343827 5.324,2.986283 2.6488,1.642456 6.0308,3.200938 7.5156,3.463294 1.4847,0.262357 3.1848,0.726685 3.7779,1.03184 1.2393,0.637644 8.7584,2.834275 16.1314,4.712619 2.7839,0.709233 8.5543,2.228859 12.823,3.376946 4.2686,1.148088 10.039,2.643559 12.8229,3.323271 13.946495,3.405115 17.332495,4.355001 18.728295,5.25399 1.5678,1.009798 2.0304,3.126285 0.8436,3.85979 -0.3712,0.229408 -0.6749,1.718769 -0.6749,3.309691 0,3.478923 1.0566,4.591226 5.7366,6.03883 3.0659,0.948358 18.824,6.430293 21.2591,7.395632 1.5069,0.597388 20.0865,6.625506 29.3578,9.525073 4.4543,1.393066 9.3135,2.929148 10.7983,3.413518 1.4847,0.48437 5.4329,1.692981 8.7736,2.685802 3.3407,0.99282 7.4407,2.218999 9.111,2.724844 1.6704,0.505845 7.8963,2.006603 13.8353,3.335012 5.9391,1.32841 12.6205,2.858153 14.8477,3.399413 2.2271,0.54126 9.0443,1.92637 15.1492,3.07803 6.1049,1.15166 11.7089,2.41986 12.4532,2.81822 0.9946,0.53226 1.424,0.51263 1.6195,-0.074 0.5105,-1.53151 4.5453,-4.93564 7.5597,-6.3781 2.6967,-1.290443 4.1841,-1.453283 13.2749,-1.453283 9.475,0 10.3551,0.10628 11.8106,1.426343 0.865,0.78448 2.0791,1.69559 2.6979,2.02467 2.3633,1.25677 12.0502,16.59539 17.2136,27.25659 6.0558,12.50383 9.6693,20.19389 9.6693,20.57781 0,0.46062 3.4048,7.93774 5.3811,11.81702 0.6618,1.29917 1.5596,3.47671 1.995,4.83899 1.4863,4.65028 3.3544,4.86952 6.0238,0.70693 1.5289,-2.38417 1.5467,-2.55761 0.467,-4.56239 -0.6172,-1.1462 -1.8439,-4.92015 -2.7259,-8.38657 l -1.6037,-6.30257 1.6984,-4.2426 c 1.9111,-4.77379 6.45,-9.5776 10.7972,-11.4275 6.1614,-2.62186 11.6612,-4.28204 15.6282,-4.7176 3.6866,-0.40477 4.5643,-0.78655 6.5802,-2.86228 1.2795,-1.31737 2.3262,-2.63338 2.3262,-2.92446 0,-0.29109 1.5186,-1.35576 3.3746,-2.36593 3.149,-1.71387 10.7982,-10.0408 10.7982,-11.75487 0,-0.36598 -1.2614,-0.66543 -2.8032,-0.66543 -2.8781,0 -8.4056,-2.24325 -12.7073,-5.15705 -1.2925,-0.87553 -2.9082,-1.59187 -3.5903,-1.59187 -4.3402,0 -13.2772,-11.078586 -14.6475,-18.157357 -0.402,-2.077156 -1.0213,-4.474266 -1.376,-5.326912 -0.3548,-0.852645 -0.645,-7.264581 -0.645,-14.248748 0,-13.582953 0.7204,-18.231776 4.4361,-28.628105 2.5998,-7.274111 3.5086,-8.681446 10.4115,-16.123704 5.3062,-5.720757 12.4095,-11.1406603 17.8847,-13.6461981 2.2271,-1.0191854 4.874,-2.2915156 5.8819,-2.8274006 2.7966,-1.48691872 15.2796,-2.35029802 23.5172,-1.62655792 7.8029,0.6855511 11.4378,2.06988712 17.8751,6.80771532 3.5624,2.621929 8.934,7.9525453 10.0183,9.9417993 0.348,0.638632 0.8565,1.312999 1.1298,1.498595 1.1169,0.758386 6.9164,8.622072 8.2126,11.135724 0.7657,1.484763 2.3102,5.432883 3.4323,8.7736 1.8565,5.52678 2.0665,7.059647 2.3308,17.013531 0.2783,10.481269 0.2128,11.183411 -1.5637,16.762416 -1.0197,3.202607 -2.2786,5.985809 -2.7974,6.184909 -1.4389,0.55213 -1.7501,-0.193147 -0.5725,-1.370747 0.5784,-0.578477 1.2416,-2.43684 1.4736,-4.129693 0.2321,-1.69286 0.6843,-3.077921 1.0051,-3.077921 0.3207,0 0.5831,-3.340717 0.5831,-7.423816 0,-5.799673 -0.2003,-7.423816 -0.9154,-7.423816 -0.6902,0 -1.0055,1.764418 -1.2815,7.173066 -0.2014,3.945186 -0.6633,7.361828 -1.0266,7.59254 -0.3633,0.230712 -0.8763,1.710204 -1.14,3.287765 -0.2636,1.577561 -0.7323,2.868292 -1.0413,2.868292 -0.3091,0 -0.7762,0.98703 -1.038,2.1934 -0.9004,4.148463 -8.7658,12.738155 -14.2692,15.583157 -4.1719,2.156727 -5.4085,5.997123 -2.9579,9.185876 0.9705,1.26278 1.4858,1.4789 2.1784,0.91378 0.499,-0.4071 1.9703,-1.05688 3.2694,-1.44398 1.2992,-0.38708 3.577,-1.14407 5.0617,-1.6822 1.4848,-0.53812 3.9903,-1.190793 5.5679,-1.450373 2.731,-0.44938 2.8683,-0.39178 2.8683,1.203753 0,0.92165 -0.754,2.39092 -1.6756,3.26506 -0.9216,0.87415 -1.6808,1.78781 -1.6872,2.03038 -0.016,0.61257 6.0859,1.33355 12.1364,1.43395 6.1018,0.10125 22.1524,-2.30188 26.1851,-3.92047 2.2925,-0.92017 3.522,-2.1022 5.8599,-5.633543 2.1178,-3.199069 3.9369,-5.044387 6.4013,-6.493712 3.022,-1.777167 3.3918,-2.230937 3.0255,-3.711908 -0.2296,-0.927977 -0.5755,-4.034621 -0.7687,-6.903649 -0.3285,-4.878426 -0.2264,-5.414034 1.5755,-8.266223 1.0598,-1.677398 2.1121,-3.050352 2.3386,-3.051013 0.7705,-0.002 14.7698,-13.362236 14.7776,-14.102689 0,-0.224788 0.8375,-0.939152 1.8559,-1.587475 1.0185,-0.648323 3.0237,-2.036974 4.4561,-3.085891 1.4421,-1.056044 4.3312,-2.263796 6.4739,-2.706368 3.0584,-0.631707 4.0303,-1.151984 4.6363,-2.481971 0.4216,-0.925498 1.0414,-1.682724 1.3773,-1.682724 0.3359,0 0.7695,-0.607403 0.9636,-1.349785 0.3956,-1.512785 2.6407,-1.821543 3.6806,-0.506169 0.3668,0.463989 0.9592,1.75472 1.3165,2.868293 0.8184,2.550341 2.5931,2.862286 6.4863,1.140113 2.5472,-1.126735 3.2415,-1.190045 4.9898,-0.454959 1.117,0.46965 2.691,1.780991 3.4978,2.91409 1.108,1.556045 2.1778,2.166777 4.3719,2.495801 4.7119,0.706589 5.2798,2.576389 5.6578,18.628448 0.347,14.733076 -0.066,16.78705 -3.8243,19.006926 -1.0734,0.634096 -3.1822,2.139261 -4.6862,3.344814 -3.5623,2.855517 -7.392,5.228921 -8.4371,5.228921 -1.2972,0 -2.4503,1.47178 -2.4503,3.1273 0,0.829153 1.5185,3.399653 3.3744,5.712213 1.856,2.31256 3.3745,4.56488 3.3745,5.00514 0,2.00802 -4.5268,6.68831 -10.0812,10.42309 -8.4606,5.68891 -11.0068,5.47127 -13.9287,-1.19059 -2.4446,-5.57366 -2.6358,-5.84511 -4.2902,-6.09019 -1.8009,-0.26677 -5.387,2.05008 -12.0612,7.79232 -2.7543,2.36977 -5.5833,4.24893 -6.4114,4.25885 -2.9724,0.0356 -10.7716,2.49358 -11.3839,3.58772 -0.3444,0.61532 -1.358,1.11877 -2.2526,1.11877 -1.6698,0 -5.5462,3.62966 -7.7545,7.26086 -0.6223,1.02333 -2.1687,2.65168 -3.4363,3.61856 -3.1047,2.36808 -4.6705,6.89899 -4.6662,13.5028 0,3.7493 0.2784,5.37601 1.0157,5.98794 0.5568,0.46209 1.0123,1.13457 1.0123,1.4944 0,0.69697 0.6266,1.55706 6.5321,8.96643 3.5406,4.44232 10.7771,10.70931 19.4824,16.87231 15.0708,10.66951 21.0048,17.00864 27.7974,29.69526 l 2.5295,4.72425 -0.015,9.44849 c -0.017,10.23764 -0.3146,11.64516 -4.2157,19.90933 -4.4111,9.34464 -10.2217,16.73442 -18.067,22.97713 -4.8768,3.88057 -14.0831,8.88188 -19.801,10.7568 -2.0799,0.682 -6.2112,2.19352 -9.1807,3.35894 -6.6048,2.59214 -13.4771,4.49883 -21.934,6.08551 -3.5263,0.66161 -7.6263,1.58508 -9.111,2.05216 -1.9794,0.62268 -12.5119,0.92647 -39.4812,1.13873 l -36.7817,0.2895 -4.4567,2.93112 c -5.9345,3.90298 -9.0468,4.86174 -17.4773,5.384 -3.8975,0.24145 -7.745,0.57431 -8.55,0.73969 -0.8518,0.17498 -2.94,2.34664 -4.995,5.19456 -1.9422,2.69162 -5.5354,7.32347 -7.9849,10.293 -2.4494,2.96953 -5.1377,6.31024 -5.9738,7.42382 -2.4662,3.28454 -11.1354,14.50164 -13.3273,17.2443 -2.7624,3.45666 -9.7478,12.38428 -11.8106,15.09445 -0.9279,1.21924 -3.965,5.17032 -6.7489,8.78018 -2.7839,3.60985 -6.3559,8.27575 -7.9377,10.36867 -1.5819,2.09292 -3.729,4.72727 -4.7715,5.85412 -1.0424,1.12684 -2.3846,2.84125 -2.9826,3.80979 -0.5979,0.96856 -2.2471,3.13642 -3.6647,4.81749 -4.3977,5.21494 -7.6392,9.44541 -7.6392,9.96993 0,0.27624 2.6574,1.30589 5.9053,2.28809 9.7467,2.94748 37.2033,14.01596 39.7307,16.01648 0.4156,0.32895 3.6045,1.76494 7.0864,3.19109 7.6738,3.1431 18.5607,9.53264 16.2455,9.53456 -0.8667,6.7e-4 -1.3732,0.30078 -1.1412,0.67618 0.7338,1.18736 -0.7432,0.73925 -6.8528,-2.07907 -3.2836,-1.51467 -7.1849,-3.31176 -8.6697,-3.99352 -1.4848,-0.68175 -5.5847,-2.60315 -9.1111,-4.26975 -10.6216,-5.01998 -13.9577,-6.38856 -34.082,-13.98168 -4.2268,-1.5948 -9.0352,-2.66824 -9.3829,-2.09466 -0.1451,0.23943 -0.4834,2.79616 -0.7517,5.68162 -0.4494,4.83302 -0.3605,5.44442 1.1282,7.76126 0.8889,1.38323 1.9123,3.01356 2.2742,3.62296 0.362,0.60941 2.4514,3.79827 4.6432,7.08637 2.1917,3.28811 5.2533,7.95244 6.8034,10.36518 5.5541,8.64485 8.9436,13.91473 12.1543,18.89698 1.7941,2.78393 3.903,6.12465 4.6866,7.42382 0.7835,1.29917 1.7935,2.96953 2.2443,3.71191 0.4509,0.74238 1.4261,2.46806 2.167,3.83484 0.741,1.36678 1.629,2.65919 1.9734,2.87203 0.3444,0.21284 1.2951,1.76899 2.1128,3.45811 0.8177,1.68912 2.3575,3.7149 3.4217,4.50174 2.5588,1.89175 5.3318,6.15575 5.3318,8.19848 0,1.15823 -0.7001,2.04811 -2.4007,3.05149 -2.8784,1.69831 -3.9045,1.76381 -5.3281,0.34017 l 0,0 z m -51.1232,-98.70923 c 0.4817,-0.30562 1.3051,-2.04725 1.8297,-3.8703 1.6717,-5.80997 13.1253,-39.71199 13.8282,-40.93072 0.3717,-0.64455 0.6758,-1.92033 0.6758,-2.83508 0,-3.97868 1.4821,-8.56776 2.9888,-9.25424 3.4829,-1.58692 8.9971,2.96812 6.7224,5.5531 -0.5156,0.58602 -0.9376,1.38024 -0.9376,1.76494 0,0.3847 -0.5822,1.4397 -1.2939,2.34443 -0.7117,0.90474 -1.7559,3.29939 -2.3206,5.32143 -1.3591,4.86698 -6.3896,19.96766 -7.5792,22.75146 -0.5178,1.21147 -1.1168,3.48924 -1.3314,5.06169 -0.363,2.6615 -0.3194,2.76576 0.6312,1.50922 2.2814,-3.01558 3.1782,-4.18349 5.4415,-7.08637 1.3024,-1.67036 3.0014,-3.79627 3.7756,-4.72425 0.7742,-0.92797 3.0662,-3.96499 5.0933,-6.74892 2.0271,-2.78393 4.5411,-6.12465 5.5868,-7.42382 1.0456,-1.29916 2.2612,-3.03874 2.7013,-3.86571 0.4401,-0.82698 1.4764,-2.22588 2.3029,-3.10867 1.7171,-1.83403 6.384,-7.76736 16.0134,-20.35876 3.6904,-4.82548 7.174,-9.25463 7.7414,-9.84255 0.5675,-0.58793 1.0317,-1.3055 1.0317,-1.5946 0,-0.28912 0.7695,-1.47844 1.71,-2.64296 6.2844,-7.78165 8.4134,-10.54808 8.4134,-10.93264 0,-0.24107 0.7764,-1.36096 1.7252,-2.48864 1.2521,-1.48795 1.5222,-2.25346 0.9848,-2.79081 -0.4465,-0.44655 -5.3506,-0.8961 -12.3548,-1.13255 -11.8484,-0.39999 -15.3865,-1.0587 -21.8116,-4.06093 -1.5254,-0.71278 -2.9711,-1.29595 -3.2127,-1.29595 -0.2415,0 -2.0305,-1.13888 -3.9754,-2.53085 l -3.5363,-2.53084 -11.2392,-0.21236 -11.2393,-0.21236 -4.3706,2.04344 c -2.4039,1.1239 -5.2425,2.75776 -6.308,3.63081 -1.0655,0.87306 -3.0942,2.28685 -4.5083,3.14177 l -2.5711,1.5544 -1.5218,-1.42966 c -0.837,-0.78633 -1.6541,-1.42983 -1.8157,-1.43001 -0.1617,-1.9e-4 -0.187,2.75638 -0.056,6.12572 0.2185,5.62928 0.1125,6.25942 -1.3071,7.77054 -0.8497,0.90447 -1.7414,1.41268 -1.9816,1.12937 -0.2401,-0.28331 -1.2848,-3.24842 -2.3215,-6.58914 -1.0367,-3.34072 -2.0409,-6.52958 -2.2315,-7.08637 -0.2207,-0.64445 -0.5209,-0.27657 -0.826,1.01234 -0.8572,3.62109 -4.769,11.06801 -6.5497,12.46869 -0.9555,0.75163 -2.3305,1.3666 -3.0554,1.3666 -1.1708,0 -1.2682,-0.32065 -0.872,-2.86829 0.4172,-2.68276 1.9593,-7.34541 4.1369,-12.50841 0.5141,-1.21896 0.9348,-2.84881 0.9348,-3.62189 0,-1.13801 -0.2891,-1.3219 -1.5185,-0.96594 -0.8352,0.24181 -3.7963,0.88801 -6.5802,1.436 -2.784,0.54799 -6.4284,1.43393 -8.0987,1.96875 -1.6704,0.53483 -4.5556,1.45917 -6.4115,2.05409 -1.856,0.59493 -4.893,1.51294 -6.7489,2.04002 -1.856,0.52708 -5.956,2.05361 -9.1111,3.39228 -3.1551,1.33867 -6.4958,2.67703 -7.4238,2.97412 -0.928,0.2971 -4.4919,2.01875 -7.9197,3.82589 -3.4279,1.80715 -7.6797,4.04695 -9.4485,4.97733 -2.8384,1.493 -4.5187,2.56135 -10.6077,6.74455 -6.4476,4.42963 -22.6816,19.8263 -25.9087,24.5725 -3.538,5.20333 -4.1275,6.16676 -5.147,8.41092 -0.5686,1.2517 -1.0357,2.77021 -1.038,3.37446 0,0.60426 -0.4578,1.96854 -1.0123,3.03174 -1.2828,2.4597 -1.3906,17.57138 -0.1407,19.728 0.4509,0.77788 1.8869,2.64697 3.1913,4.15352 l 2.3716,2.73919 33.0144,0.77552 c 18.1578,0.42654 33.2351,0.91198 33.505,1.07878 0.2698,0.16678 6.8201,0.76048 14.5561,1.31932 7.736,0.55883 15.7358,1.328 17.7773,1.70927 2.0416,0.38127 7.3246,1.14738 11.7401,1.70248 4.4155,0.55509 8.3636,1.21701 8.7736,1.47093 0.6939,0.42976 4.8453,1.25721 7.1569,1.4265 0.5568,0.0408 1.4065,-0.17591 1.8883,-0.48152 l 0,0 z m 176.6207,-108.76335 c 1.4847,-0.3574 6.344,-0.95927 10.7983,-1.33748 9.3122,-0.79071 22.3031,-3.37711 31.7199,-6.31522 4.666,-1.45582 11.2026,-3.73769 12.823,-4.47637 8.616,-3.92784 10.4679,-4.73612 10.8513,-4.73612 0.9411,0 6.6586,-3.86742 10.9753,-7.42382 5.6966,-4.69339 11.0608,-10.44574 12.5869,-13.49784 0.6496,-1.29917 1.5443,-2.81768 1.9882,-3.37447 2.0086,-2.51924 5.1241,-11.67712 6.4288,-18.89698 1.3271,-7.34427 -2.0976,-16.36001 -10.2875,-27.08235 -1.9825,-2.59542 -12.9437,-12.31563 -16.3345,-14.48505 -1.1074,-0.70855 -2.5307,-1.74382 -3.1629,-2.30061 -0.6321,-0.55678 -1.8519,-1.52265 -2.7107,-2.14636 -7.9118,-5.74635 -15.1333,-12.4088 -20.2531,-18.68521 -5.9535,-7.29846 -6.4007,-8.31009 -6.876,-15.55704 -0.2293,-3.49576 -0.5403,-6.47924 -0.691,-6.62997 -0.6,-0.60003 -4.5066,1.98831 -5.6147,3.72015 -0.6483,1.01305 -2.7011,3.67363 -4.5619,5.9124 -1.8608,2.23877 -5.2055,6.60124 -7.4327,9.69438 -2.2271,3.09314 -5.1849,7.03175 -6.5729,8.75246 -1.388,1.72072 -3.1339,3.88783 -3.8798,4.81581 -0.7459,0.92798 -2.2676,2.79028 -3.3817,4.13845 -1.114,1.34817 -2.0255,2.68287 -2.0255,2.96599 0,0.28313 -0.6294,1.15414 -1.3986,1.93558 -1.5148,1.53885 -7.8236,9.44843 -11.0869,13.90021 -1.1136,1.51909 -2.5961,3.34059 -3.2945,4.04777 -0.6985,0.70717 -1.7614,2.03147 -2.3622,2.94288 -1.9205,2.91369 -15.742,20.91527 -18.4028,23.96839 -1.5676,1.79886 -2.7123,3.89998 -2.9414,5.39913 -0.2063,1.34984 -0.9728,4.97093 -1.7035,8.04687 -1.7221,7.2506 -1.6759,8.7677 0.3589,11.76211 0.928,1.36564 1.6872,2.92456 1.6872,3.46426 0,0.5397 -1.3348,2.75765 -2.9663,4.92877 -1.6315,2.17113 -3.3198,5.26155 -3.7519,6.86762 -0.7345,2.73046 -3.9353,8.06119 -8.8953,14.81485 -1.1663,1.58803 -1.9764,3.0315 -1.8002,3.2077 0.1762,0.1762 5.9967,0.58069 12.9344,0.89886 6.9378,0.31818 12.8085,0.77285 13.046,1.01038 0.6846,0.68461 23.2003,0.46957 26.1903,-0.25013 l 0,0 z m -152.1882,-3.29045 c 0,-1.09528 -9.5486,-5.20015 -15.1193,-6.49972 -4.6709,-1.08965 -5.6982,-0.72616 -8.1517,2.88444 -2.8991,4.26651 -3.0354,4.21328 10.7854,4.21328 6.8671,0 12.4856,-0.2691 12.4856,-0.598 z m 134.155,-90.11855 c 0.4087,-0.89691 2.3555,-3.5543 4.3264,-5.90531 1.9709,-2.351 4.6463,-5.72905 5.9455,-7.50677 1.2992,-1.77773 3.7288,-5.02858 5.3992,-7.22414 1.6703,-2.19555 3.7962,-5.10669 4.7242,-6.46921 0.928,-1.36251 2.3706,-3.15756 3.2057,-3.98898 0.8352,-0.83143 1.5185,-1.702 1.5185,-1.93462 0,-0.63216 4.7853,-6.81101 5.4763,-7.07105 0.3288,-0.12374 0.5978,-0.54248 0.5978,-0.93055 0,-0.38807 0.987,-1.83595 2.1934,-3.21753 1.2063,-1.38158 3.2563,-3.94457 4.5555,-5.69555 1.2992,-1.75097 3.1973,-4.19006 4.2181,-5.42019 1.0208,-1.23014 1.8559,-2.55084 1.8559,-2.93489 0,-0.38406 0.3797,-0.83748 0.8436,-1.00761 0.658,-0.24123 0.665,-0.49912 0.032,-1.17155 -0.6368,-0.67654 -0.5278,-1.22298 0.5062,-2.5375 0.7248,-0.9214 1.3178,-2.08987 1.3178,-2.5966 0,-1.06806 -2.8172,-1.23834 -4.5647,-0.27591 -0.6445,0.35498 -2.872,1.10929 -4.9499,1.67625 -5.4306,1.48174 -9.0018,5.49649 -12.3428,13.87576 -1.406,3.52631 -2.9495,6.86703 -3.4301,7.42381 -0.4805,0.55679 -1.1041,1.76572 -1.3858,2.68652 -0.2817,0.92079 -1.0294,2.4393 -1.6615,3.37446 -3.1257,4.62409 -4.7349,7.21411 -4.7349,7.62068 0,0.3916 -2.8725,4.89842 -6.8553,10.75586 -0.6839,1.00575 -1.2434,2.85681 -1.2434,4.11348 0,1.37215 -0.5025,2.73961 -1.258,3.4233 -1.509,1.36565 -6.1658,10.0798 -6.1658,11.53795 0,1.56528 1.0412,1.2322 1.8761,-0.60011 z"
     id="path3005"
     inkscape:connector-curvature="0" />
</svg>
