<?xml version="1.0" encoding="UTF-8" standalone="no"?>
<!-- Created with Inkscape (http://www.inkscape.org/) -->

<svg
   xmlns:dc="http://purl.org/dc/elements/1.1/"
   xmlns:cc="http://creativecommons.org/ns#"
   xmlns:rdf="http://www.w3.org/1999/02/22-rdf-syntax-ns#"
   xmlns:svg="http://www.w3.org/2000/svg"
   xmlns="http://www.w3.org/2000/svg"
   xmlns:sodipodi="http://sodipodi.sourceforge.net/DTD/sodipodi-0.dtd"
   xmlns:inkscape="http://www.inkscape.org/namespaces/inkscape"
   id="svg2"
   version="1.1"
   inkscape:version="0.48.4 r9939"
   width="318.89764"
   height="285.2027"
   sodipodi:docname="meiko.svg">
  <metadata
     id="metadata8">
    <rdf:RDF>
      <cc:Work
         rdf:about="">
        <dc:format>image/svg+xml</dc:format>
        <dc:type
           rdf:resource="http://purl.org/dc/dcmitype/StillImage" />
        <dc:title />
      </cc:Work>
    </rdf:RDF>
  </metadata>
  <defs
     id="defs6" />
  <sodipodi:namedview
     pagecolor="#ffffff"
     bordercolor="#666666"
     borderopacity="1"
     objecttolerance="10"
     gridtolerance="10"
     guidetolerance="10"
     inkscape:pageopacity="0"
     inkscape:pageshadow="2"
     inkscape:window-width="1916"
     inkscape:window-height="1041"
     id="namedview4"
     showgrid="false"
     fit-margin-top="0"
     fit-margin-left="0"
     fit-margin-right="0"
     fit-margin-bottom="0"
     inkscape:zoom="1.7332249"
     inkscape:cx="-69.771794"
     inkscape:cy="251.84271"
     inkscape:window-x="0"
     inkscape:window-y="18"
     inkscape:window-maximized="0"
     inkscape:current-layer="svg2" />
  <path
     style="fill:#ff0000;stroke:none"
     d="m 173.17023,284.63325 c -0.77772,-0.7777 -1.55465,-2.32101 -1.90554,-3.78524 -0.15113,-0.63054 -0.9921,-2.27004 -1.86886,-3.64334 -2.35478,-3.68848 -2.48359,-3.89762 -3.17016,-5.14602 -0.3467,-0.63054 -1.12494,-1.77584 -1.72939,-2.54514 -1.50962,-1.92133 -5.67494,-8.29517 -5.67494,-8.68391 0,-0.17406 -0.6438,-1.15804 -1.43069,-2.18663 -0.78684,-1.02857 -1.6897,-2.33203 -2.00623,-2.89658 -0.31657,-0.56454 -1.19361,-1.94026 -1.94902,-3.05716 -0.75535,-1.1169 -1.93515,-2.97654 -2.62171,-4.13253 -0.68661,-1.15599 -1.92383,-2.98608 -2.74934,-4.06687 -1.32435,-1.73381 -1.71234,-1.99677 -3.29649,-2.23433 -2.21957,-0.33285 -3.51052,-0.98518 -5.49176,-2.77513 l -1.53874,-1.39017 -7.51441,0.46156 c -4.13286,0.25387 -8.54614,0.62192 -9.80719,0.81789 -1.26111,0.19598 -5.04433,0.54122 -8.40724,0.7672 -3.36285,0.22597 -8.09191,0.65739 -10.50898,0.9587 -2.417073,0.3013 -6.408834,0.72941 -8.870586,0.95134 -2.461752,0.22195 -4.923556,0.57371 -5.470594,0.78171 -1.293838,0.49191 -2.382875,-0.0836 -3.018411,-1.59501 -0.589787,-1.40275 -0.354239,-2.90894 0.491829,-3.14467 0.344605,-0.096 3.206059,-0.28107 6.358726,-0.41121 3.152718,-0.13014 6.935949,-0.39699 8.407242,-0.59299 1.471234,-0.19599 7.220194,-0.71344 12.775374,-1.14986 5.55525,-0.43643 10.22066,-0.86784 10.36765,-0.95869 0.18572,-0.11477 14.0011,-1.32185 15.14297,-1.32308 0.29036,-2.9e-4 2.70931,-2.88611 2.58621,-3.08531 -0.0862,-0.1395 -1.40732,-0.36928 -2.9358,-0.51061 -1.52849,-0.14133 -4.24074,-0.50732 -6.02726,-0.81329 -3.21552,-0.55073 -11.32775,-1.48051 -18.34297,-2.10237 -1.99676,-0.17699 -11.86895,-0.52173 -21.938253,-0.76607 -16.777449,-0.40712 -18.454515,-0.50713 -20.062614,-1.1964 -2.346918,-1.00592 -2.968018,-1.62539 -4.339431,-4.32789 -1.0678,-2.10429 -1.163097,-2.60718 -1.158284,-6.11433 0.0073,-5.23569 1.583468,-10.73931 4.052351,-14.14875 4.303079,-5.94231 12.141541,-13.51042 17.405349,-16.80504 0.33583,-0.21017 0.786489,-0.57022 1.001544,-0.80009 0.419187,-0.44817 3.0204,-1.9194 8.22492,-4.652 1.786518,-0.938 3.678129,-1.9367 4.203598,-2.21933 1.47565,-0.79373 6.53272,-2.70248 8.02503,-3.02898 0.73565,-0.16096 1.93685,-0.61365 2.66938,-1.00599 0.73253,-0.39234 1.59236,-0.72089 1.91075,-0.73011 0.31834,-0.009 1.26672,-0.27536 2.10746,-0.59139 1.78521,-0.67112 8.99239,-2.57993 12.05893,-3.19381 2.10287,-0.42096 2.13304,-0.4465 3.15272,-2.66793 0.56623,-1.23358 1.02952,-2.4852 1.02952,-2.78135 0,-0.29615 0.25248,-0.87226 0.56108,-1.28025 1.5265,-2.01821 -0.18221,-4.71931 -2.99995,-4.74224 -1.91585,-0.0156 -4.05762,-1.31263 -4.05762,-2.45726 0,-0.46984 0.51991,-1.87088 1.15539,-3.11341 1.09436,-2.13989 1.13298,-2.36715 0.73085,-4.30429 -0.38058,-1.83292 -0.31619,-2.42713 0.62002,-5.72716 1.65933,-5.84906 3.42746,-9.00512 7.3973,-13.20428 2.17893,-2.30475 6.98034,-5.91678 8.57882,-6.45369 0.65897,-0.22133 1.41308,-0.57049 1.67582,-0.77591 0.49018,-0.3833 0.6741,-4.29128 0.25349,-5.38735 -0.23436,-0.61074 -4.82621,3.44662 -20.20167,17.85028 -10.84465,10.1592 -10.14581,9.31615 -10.14581,12.23892 0,2.31593 -0.075,2.52663 -1.24197,3.48894 -0.6831,0.56327 -4.04742,3.79313 -7.47629,7.17745 -7.102197,7.00984 -7.86627,8.20987 -10.60173,16.6509 -1.201491,3.70763 -2.7045,5.25438 -9.149861,9.41637 -2.522163,1.62864 -5.192968,3.36725 -5.935182,3.86357 -0.742161,0.49633 -2.240014,1.07131 -3.328481,1.27772 -1.088468,0.20643 -2.309774,0.58188 -2.714006,0.83433 -0.60519,0.37795 -0.982866,0.31274 -2.138941,-0.36935 -0.772171,-0.4556 -1.689013,-0.82836 -2.037415,-0.82836 -0.34846,0 -2.10123,0.72254 -3.895166,1.60563 -3.10063,1.52638 -3.431422,1.60554 -6.700957,1.60373 -3.314266,-0.002 -3.557406,-0.0629 -6.687536,-1.68037 -5.385375,-2.78277 -8.537757,-5.1816 -10.747534,-8.17834 -1.492701,-2.02429 -1.408785,-3.20807 0.388719,-5.48207 1.888779,-2.3895 3.486516,-3.15401 6.595072,-3.15579 2.332875,-8e-4 4.115713,-0.52199 9.686978,-2.82895 3.070619,-1.27149 5.081138,-2.6452 9.389653,-6.41557 3.084038,-2.69884 10.122923,-10.71514 13.046495,-14.85808 2.076599,-2.94282 7.115943,-9.58942 10.326536,-13.62017 3.811365,-4.78502 4.721751,-5.44947 7.475508,-5.45615 0.859365,-0.002 1.726838,-0.75022 3.394778,-2.92762 0.45803,-0.59788 1.49242,-1.94687 2.29879,-2.99778 0.80631,-1.0509 1.72135,-2.27354 2.0334,-2.717 1.76398,-2.50692 5.70037,-7.72021 6.72203,-8.90252 0.65274,-0.75539 1.41144,-1.80334 1.68595,-2.32879 0.27451,-0.52545 1.20217,-1.90118 2.06142,-3.05717 1.67525,-2.25375 1.91415,-2.6051 3.09089,-4.5458 0.42032,-0.69326 1.36508,-2.06064 2.09942,-3.03863 0.73435,-0.97796 1.59416,-2.23602 1.91075,-2.79565 0.94,-1.66177 3.71227,-5.8092 4.36474,-6.52985 0.333,-0.36782 0.60547,-0.7815 0.60547,-0.9193 0,-0.13779 0.44976,-0.8402 0.99946,-1.56091 0.55128,-0.72276 0.85121,-1.45124 0.66877,-1.62452 -0.18187,-0.17279 -2.15451,-0.50675 -4.38354,-0.74214 C 117.49242,82.14287 111.6125,80.54455 105.03249,77.2286 102.87713,76.14239 94.966695,72.17418 87.453816,68.41031 79.940886,64.646451 73.106128,61.115121 72.265386,60.562926 71.424702,60.010722 70.134939,59.318838 69.399291,59.02542 68.663698,58.731993 66.1015,57.493512 63.705603,56.273244 60.063034,54.418018 59.280501,54.143795 58.928815,54.59921 58.56535,55.069789 58.300353,55.065966 56.979562,54.571121 56.13888,54.25609 54.849117,53.824113 54.113468,53.611167 53.377876,53.398221 51.142279,52.569418 49.145576,51.76939 47.148872,50.969354 44.835363,50.193844 44.004417,50.046024 43.173472,49.898195 41.883709,49.468665 41.138321,49.091503 40.392877,48.71434 39.181142,48.284665 38.445493,48.136675 c -0.735592,-0.147989 -1.890252,-0.459254 -2.565881,-0.691704 -0.903762,-0.310959 -1.459122,-0.308399 -2.101795,0.0097 -0.480391,0.237786 -1.647282,0.547304 -2.593059,0.687825 -0.945834,0.140519 -2.299524,0.494195 -3.008277,0.785949 -0.763846,0.314412 -2.655401,0.530449 -4.64463,0.530449 -3.644268,0 -4.031853,-0.139136 -13.5561565,-4.866788 C 4.1649664,41.707845 4.1758948,41.717246 3.879982,39.349078 3.4139165,35.618655 4.6741222,34.799986 10.270871,35.197255 l 3.468623,0.246205 -1.065535,-1.396938 C 12.087967,33.278199 9.3140532,30.443943 6.5097327,27.748169 3.7054127,25.052396 1.2458147,22.412411 1.043953,21.881528 0.42013541,20.24064 -0.2131383,10.851515 0.06912828,7.4274628 c 0.24625424,-2.987551 0.3658424,-3.342128 1.51393412,-4.490212 0.9953224,-0.995346 1.5571942,-1.246517 2.7884089,-1.246517 0.8480454,0 1.9740542,0.164289 2.5021786,0.365096 2.0588191,0.782755 5.8327541,5.008508 6.5530011,7.337486 0.76028,2.4585282 2.2399,4.1950542 5.321617,6.2455592 1.737482,1.156085 3.288506,2.10197 3.446654,2.10197 0.158205,0 1.514727,0.760926 3.014618,1.690929 1.499835,0.930012 3.414831,1.812478 4.255573,1.961032 0.840683,0.148553 1.803334,0.411467 2.139166,0.584256 0.701731,0.361057 4.959285,1.60486 9.134113,2.668439 1.576333,0.401591 4.843717,1.262051 7.26079,1.912133 2.417018,0.650081 5.684403,1.496866 7.260736,1.88174 7.896949,1.928087 9.814211,2.46594 10.604557,2.974978 0.887738,0.571781 1.149677,1.770205 0.477673,2.185536 -0.210185,0.129895 -0.38215,0.97322 -0.38215,1.874053 0,1.969878 0.598281,2.599699 3.248245,3.419375 1.736011,0.536993 10.65875,3.641038 12.037579,4.187649 0.853257,0.338253 11.373619,3.751568 16.623328,5.393398 2.52216,0.788799 5.27359,1.65858 6.11434,1.932843 0.84068,0.274264 3.07628,0.958618 4.96788,1.520789 1.89162,0.562161 4.21317,1.256465 5.15895,1.54289 0.94582,0.286426 4.47113,1.136205 7.83398,1.888389 3.36292,0.752192 7.14614,1.618376 8.40724,1.924862 1.26106,0.306477 5.12118,1.090764 8.57797,1.742877 3.45678,0.652104 6.62995,1.370196 7.05139,1.595763 0.56317,0.301383 0.80632,0.290268 0.91702,-0.04194 0.28906,-0.867186 2.57369,-2.794707 4.28054,-3.611475 1.52696,-0.730696 2.36917,-0.822898 7.51667,-0.822898 5.36505,0 5.86339,0.06021 6.68755,0.807643 0.48978,0.444195 1.17724,0.960102 1.52762,1.146438 1.33818,0.711612 6.82321,9.396828 9.74689,15.433546 3.42899,7.08007 5.47507,11.43442 5.47507,11.65181 0,0.26082 1.9279,4.4946 3.04695,6.69118 0.37473,0.73563 0.88309,1.96862 1.12964,2.73998 0.84158,2.63314 1.89937,2.75728 3.41086,0.4003 0.86571,-1.35 0.87579,-1.44821 0.26443,-2.58337 -0.34948,-0.64903 -1.04408,-2.78595 -1.54349,-4.74875 l -0.90806,-3.56872 0.96168,-2.40229 c 1.08213,-2.70308 3.6522,-5.42315 6.11372,-6.47062 3.48879,-1.48459 6.60295,-2.42463 8.84919,-2.67126 2.08747,-0.2292 2.58445,-0.44537 3.72592,-1.62072 0.72449,-0.74592 1.31716,-1.4911 1.31716,-1.65591 0,-0.16483 0.85988,-0.76768 1.91081,-1.339672 1.78306,-0.970443 6.11429,-5.685417 6.11429,-6.655977 0,-0.207234 -0.71425,-0.376794 -1.58727,-0.376794 -1.62967,0 -4.75952,-1.270197 -7.19528,-2.920086 -0.73185,-0.495747 -1.64671,-0.901359 -2.03293,-0.901359 -2.45757,0 -7.51798,-6.273049 -8.29389,-10.281276 -0.22763,-1.176152 -0.5783,-2.533472 -0.77913,-3.016271 -0.20091,-0.48279 -0.36523,-4.113436 -0.36523,-8.068089 0,-7.691105 0.40793,-10.323419 2.51186,-16.210152 1.4721,-4.118829 1.98668,-4.91571 5.89533,-9.129752 3.00454,-3.2392772 7.02666,-6.3081962 10.12689,-7.7269152 1.26105,-0.577092 2.75981,-1.297522 3.33052,-1.600964 1.58352,-0.84193898 8.65179,-1.33081398 13.31618,-0.92100498 4.41825,0.388182 6.47645,1.17203898 10.12146,3.85473998 2.01714,1.484624 5.05871,4.502987 5.67268,5.629364 0.19704,0.361619 0.48497,0.7434672 0.63972,0.8485552 0.63243,0.429425 3.9163,4.88209 4.65024,6.305404 0.43356,0.840715 1.3081,3.076267 1.94348,4.967892 1.05121,3.12944 1.17012,3.997394 1.31977,9.633599 0.15758,5.934833 0.1205,6.332408 -0.88542,9.49142 -0.57738,1.813411 -1.29021,3.389352 -1.58397,3.502087 -0.81476,0.312634 -0.99096,-0.109363 -0.32417,-0.776162 0.32751,-0.327549 0.70303,-1.379809 0.8344,-2.338363 0.13142,-0.958546 0.38748,-1.742814 0.56911,-1.742814 0.18161,0 0.33018,-1.891624 0.33018,-4.203602 0,-3.283958 -0.11342,-4.203602 -0.51833,-4.203602 -0.39081,0 -0.56935,0.999073 -0.72563,4.061617 -0.11403,2.233894 -0.37557,4.168508 -0.5813,4.299144 -0.2057,0.130636 -0.49618,0.968366 -0.64549,1.861634 -0.14927,0.893268 -0.41466,1.624122 -0.58962,1.624122 -0.17502,0 -0.43952,0.558886 -0.58776,1.241969 -0.50983,2.348996 -4.96347,7.212749 -8.07966,8.823679 -2.36226,1.221211 -3.06247,3.395771 -1.67486,5.201342 0.54952,0.715014 0.8413,0.837396 1.23348,0.51741 0.28254,-0.230517 1.11565,-0.598446 1.85123,-0.817623 0.73566,-0.219186 2.02542,-0.64782 2.8661,-0.952524 0.84074,-0.304704 2.25943,-0.674267 3.15273,-0.82125 1.54638,-0.254446 1.62412,-0.221832 1.62412,0.681606 0,0.521865 -0.42694,1.353816 -0.94878,1.84878 -0.52184,0.494973 -0.95172,1.01232 -0.95534,1.149669 -0.009,0.346851 3.44602,0.755091 6.87201,0.811944 3.45503,0.05733 12.54339,-1.303398 14.82683,-2.219895 1.29809,-0.521028 1.99428,-1.190331 3.31806,-3.189889 1.19918,-1.811416 2.2292,-2.856296 3.62463,-3.676945 1.71115,-1.006292 1.92054,-1.263227 1.71313,-2.101801 -0.13,-0.525451 -0.32587,-2.284531 -0.43526,-3.909064 -0.186,-2.762322 -0.1282,-3.065602 0.8921,-4.680604 0.60009,-0.949797 1.19594,-1.727207 1.32419,-1.727577 0.43628,-8.05e-4 8.36313,-7.566127 8.36755,-7.985394 0,-0.12728 0.47422,-0.531777 1.05086,-0.898878 0.57672,-0.367102 1.71212,-1.153398 2.52319,-1.747329 0.81656,-0.597965 2.45246,-1.281836 3.66574,-1.532436 1.73176,-0.357691 2.28207,-0.652287 2.62521,-1.405364 0.23872,-0.52405 0.58967,-0.952815 0.77987,-0.952815 0.1902,0 0.43572,-0.343929 0.54562,-0.76429 0.22401,-0.856588 1.49525,-1.031414 2.08408,-0.286611 0.20769,0.262722 0.54313,0.993576 0.74544,1.624122 0.46341,1.444081 1.46829,1.620717 3.67275,0.645566 1.44231,-0.637992 1.83544,-0.673842 2.82538,-0.257609 0.63249,0.265924 1.52373,1.00845 1.98057,1.650048 0.62738,0.881081 1.23314,1.226892 2.4755,1.413204 2.66804,0.400086 2.9896,1.458827 3.20364,10.54802 0.19647,8.342338 -0.0373,9.505361 -2.16544,10.762326 -0.6078,0.359043 -1.80186,1.211318 -2.65348,1.893942 -2.01709,1.616878 -4.18558,2.96078 -4.77735,2.96078 -0.73452,0 -1.38744,0.833367 -1.38744,1.770772 0,0.469494 0.85982,1.924992 1.91069,3.234447 1.05092,1.309437 1.91074,2.584773 1.91074,2.834064 0,1.137006 -2.56321,3.787137 -5.70828,5.901885 -4.79068,3.22123 -6.23241,3.09801 -7.88688,-0.674145 -1.38421,-3.155985 -1.49248,-3.309696 -2.42926,-3.448467 -1.01972,-0.151047 -3.05028,1.160829 -6.82943,4.412272 -1.55956,1.34182 -3.16144,2.40588 -3.63033,2.41149 -1.68307,0.0202 -6.09923,1.41194 -6.44593,2.03147 -0.19502,0.34842 -0.76895,0.63349 -1.27549,0.63349 -0.9455,0 -3.14045,2.05523 -4.39085,4.11133 -0.35237,0.57944 -1.22799,1.50147 -1.94574,2.04894 -1.75798,1.34088 -2.64459,3.90643 -2.64216,7.64572 0,2.12298 0.15765,3.04408 0.57513,3.39057 0.31527,0.26164 0.57319,0.64243 0.57319,0.84617 0,0.39465 0.35481,0.88166 3.69869,5.07708 2.00479,2.51538 6.10233,6.06395 11.03155,9.55364 8.53357,6.04141 11.89359,9.63084 15.73978,16.8144 l 1.43228,2.67502 -0.008,5.35004 c -0.01,5.79687 -0.17813,6.59385 -2.38706,11.27329 -2.4977,5.29124 -5.78784,9.47556 -10.23011,13.01039 -2.7614,2.1973 -7.9743,5.0292 -11.21196,6.09084 -1.1777,0.38617 -3.51697,1.24204 -5.1984,1.90195 -3.73986,1.46774 -7.63117,2.54738 -12.41973,3.4458 -1.9967,0.37463 -4.31826,0.89752 -5.15894,1.162 -1.1208,0.35258 -7.08464,0.52459 -22.3555,0.64478 l -20.82699,0.16392 -2.52351,1.6597 c -3.36031,2.21 -5.1226,2.75287 -9.89622,3.04859 -2.20689,0.13672 -4.38546,0.3252 -4.84128,0.41883 -0.48231,0.0991 -1.66472,1.32875 -2.82832,2.94133 -1.09974,1.52409 -3.13433,4.14679 -4.52131,5.82824 -1.38693,1.68143 -2.90912,3.57305 -3.38256,4.20359 -1.39643,1.85982 -6.30521,8.2113 -7.54634,9.76427 -1.56415,1.95728 -5.51951,7.01238 -6.68753,8.54696 -0.52541,0.69038 -2.24511,2.9276 -3.82145,4.97162 -1.57633,2.04402 -3.5989,4.68599 -4.49458,5.87107 -0.89572,1.18508 -2.11147,2.67674 -2.70177,3.3148 -0.59024,0.63804 -1.35024,1.6088 -1.68884,2.15722 -0.33855,0.54842 -1.27238,1.77594 -2.07507,2.72781 -2.49012,2.95287 -4.32556,5.3483 -4.32556,5.64529 0,0.15642 1.5047,0.73944 3.34377,1.2956 5.51889,1.66895 21.06569,7.93628 22.49678,9.06903 0.23533,0.18627 2.04098,0.99937 4.01255,1.8069 4.34515,1.77973 10.50966,5.39769 9.19872,5.39877 -0.49075,3.8e-4 -0.77755,0.17032 -0.64619,0.38287 0.41551,0.67233 -0.42081,0.41859 -3.88027,-1.17722 -1.85927,-0.85767 -4.06831,-1.87523 -4.90906,-2.26126 -0.84074,-0.38603 -3.16223,-1.47399 -5.159,-2.41767 -6.01428,-2.84247 -7.90328,-3.61741 -19.29831,-7.91688 -2.39334,-0.90302 -5.11601,-1.51084 -5.3129,-1.18606 -0.0822,0.13557 -0.27371,1.58328 -0.42563,3.21711 -0.25446,2.73662 -0.20412,3.0828 0.63882,4.39468 0.50332,0.78323 1.0828,1.70636 1.28772,2.05143 0.20499,0.34507 1.38807,2.15071 2.62914,4.01254 1.24101,1.86182 2.97458,4.50291 3.8523,5.86909 3.14491,4.89499 5.06415,7.87896 6.88215,10.70007 1.01588,1.57635 2.21001,3.46797 2.6537,4.2036 0.44364,0.73563 1.01554,1.68144 1.2708,2.1018 0.25531,0.42036 0.80749,1.3975 1.22702,2.17141 0.41958,0.77392 0.92239,1.50572 1.1174,1.62624 0.19502,0.12052 0.73332,1.00165 1.19633,1.95809 0.46301,0.95643 1.3349,2.10349 1.93748,2.54903 1.44887,1.07117 3.01904,3.48558 3.01904,4.64224 0,0.65583 -0.39642,1.15971 -1.35936,1.72785 -1.62984,0.96164 -2.21085,0.99873 -3.01693,0.19262 l 0,0 z m -28.94759,-55.8923 c 0.27276,-0.17306 0.73898,-1.15922 1.03604,-2.19149 0.94656,-3.28979 7.43195,-22.4862 7.82996,-23.17628 0.21047,-0.36496 0.38266,-1.08735 0.38266,-1.60531 0,-2.25286 0.83922,-4.85134 1.69235,-5.24005 1.97214,-0.89856 5.09444,1.68065 3.80645,3.14434 -0.29196,0.33182 -0.53091,0.78154 -0.53091,0.99936 0,0.21784 -0.32966,0.81521 -0.73264,1.32749 -0.40298,0.5123 -0.99425,1.86822 -1.314,3.01317 -0.76956,2.75584 -3.618,11.30633 -4.29159,12.8826 -0.29319,0.68597 -0.63236,1.97572 -0.75387,2.86609 -0.20555,1.50704 -0.18086,1.56607 0.3574,0.85457 1.2918,-1.70751 1.7996,-2.36882 3.08115,-4.01252 0.73746,-0.94582 1.69948,-2.14958 2.13786,-2.67503 0.43838,-0.52544 1.73619,-2.2451 2.88399,-3.82145 1.14781,-1.57635 2.57132,-3.46797 3.16343,-4.2036 0.59205,-0.73563 1.28036,-1.72064 1.52956,-2.18889 0.2492,-0.46827 0.83598,-1.26036 1.30397,-1.76022 0.97228,-1.0385 3.61483,-4.39813 9.0673,-11.52779 2.08962,-2.73234 4.06215,-5.24026 4.38343,-5.57316 0.32134,-0.33291 0.58418,-0.73922 0.58418,-0.90292 0,-0.16371 0.43572,-0.83714 0.96825,-1.49652 3.55843,-4.40622 4.76394,-5.97267 4.76394,-6.19042 0,-0.13649 0.43962,-0.77062 0.97687,-1.40915 0.70897,-0.84252 0.86191,-1.27597 0.55762,-1.58024 -0.25282,-0.25284 -3.02968,-0.5074 -6.99568,-0.64128 -6.70894,-0.22649 -8.71233,-0.59947 -12.35042,-2.29943 -0.86373,-0.40361 -1.68234,-0.73381 -1.81914,-0.73381 -0.13674,0 -1.14973,-0.64487 -2.251,-1.43305 l -2.00236,-1.43303 -6.36399,-0.12025 -6.36405,-0.12025 -2.47478,1.15707 c -1.36116,0.63639 -2.96847,1.56152 -3.57178,2.05588 -0.60333,0.49435 -1.75204,1.29488 -2.55276,1.77896 l -1.45583,0.88015 -0.86168,-0.80952 c -0.47394,-0.44524 -0.93661,-0.80961 -1.02812,-0.80972 -0.0916,-1e-4 -0.10588,1.56076 -0.0317,3.46859 0.12372,3.18747 0.0636,3.54428 -0.74012,4.39992 -0.48112,0.51214 -0.98603,0.79991 -1.12204,0.63949 -0.13596,-0.16042 -0.7275,-1.83936 -1.31451,-3.73099 -0.58702,-1.89162 -1.15562,-3.69725 -1.26355,-4.01252 -0.12497,-0.36491 -0.29495,-0.1566 -0.4677,0.57322 -0.48538,2.05038 -2.70036,6.26706 -3.70865,7.06017 -0.54104,0.4256 -1.31961,0.77381 -1.73007,0.77381 -0.66294,0 -0.71809,-0.18157 -0.49375,-1.62412 0.23623,-1.51906 1.10941,-4.1592 2.34244,-7.08266 0.29109,-0.69021 0.52932,-1.61308 0.52932,-2.05082 0,-0.64439 -0.16371,-0.74851 -0.85983,-0.54695 -0.47292,0.13692 -2.14959,0.50281 -3.72592,0.8131 -1.57638,0.3103 -3.63996,0.81195 -4.58574,1.11477 -0.94584,0.30284 -2.57953,0.82623 -3.63039,1.1631 -1.05093,0.33686 -2.77058,0.85667 -3.82145,1.15512 -1.05092,0.29845 -3.37247,1.16282 -5.15899,1.92082 -1.78652,0.75799 -3.67813,1.51582 -4.20359,1.68404 -0.52548,0.16823 -2.54346,1.14307 -4.484395,2.16635 -1.940985,1.02325 -4.348485,2.2915 -5.350041,2.81831 -1.607184,0.84539 -2.558628,1.45032 -6.006414,3.81898 -3.650841,2.5082 -12.843045,11.22628 -14.670333,13.91373 -2.003328,2.94629 -2.337121,3.49182 -2.914394,4.76253 -0.32196,0.70875 -0.586447,1.56858 -0.58775,1.91073 0,0.34216 -0.25922,1.11465 -0.573196,1.71666 -0.726362,1.39276 -0.787402,9.94948 -0.07967,11.17062 0.255315,0.44046 1.068424,1.49881 1.807016,2.35187 l 1.342875,1.55101 18.69381,0.43913 c 10.281522,0.24151 18.818772,0.51639 18.971592,0.61084 0.15277,0.0944 3.86176,0.4306 8.24212,0.74704 4.38038,0.31643 8.91013,0.75195 10.06608,0.96785 1.15602,0.21588 4.14743,0.64967 6.64762,0.96399 2.5002,0.31431 4.73574,0.68911 4.96789,0.83289 0.39292,0.24333 2.74357,0.71187 4.05246,0.80773 0.31529,0.0231 0.79641,-0.0996 1.06923,-0.27265 l 0,0 z m 100.00827,-61.58528 c 0.84068,-0.20237 3.59217,-0.54317 6.11434,-0.75732 5.27287,-0.44773 12.62873,-1.91223 17.96082,-3.57588 2.64203,-0.82433 6.34327,-2.1164 7.26079,-2.53467 4.87865,-2.22406 5.92726,-2.68174 6.14435,-2.68174 0.53288,0 3.77031,-2.18986 6.21457,-4.2036 3.22559,-2.65755 6.26297,-5.91471 7.1271,-7.64291 0.36782,-0.73563 0.87443,-1.59545 1.12579,-1.91073 1.13733,-1.42648 2.90142,-6.61196 3.64018,-10.70008 0.75145,-4.15855 -1.18773,-9.26355 -5.82511,-15.33488 -1.12255,-1.46962 -7.32913,-6.97351 -9.24911,-8.2019 -0.62705,-0.40121 -1.43296,-0.98741 -1.79094,-1.30268 -0.35791,-0.31527 -1.0486,-0.86217 -1.53488,-1.21534 -4.47991,-3.25377 -8.56896,-7.02625 -11.46796,-10.58015 -3.37105,-4.13262 -3.62427,-4.70545 -3.8934,-8.8089 -0.12984,-1.9794 -0.30594,-3.66875 -0.39127,-3.7541 -0.33974,-0.33976 -2.55178,1.12584 -3.17922,2.10646 -0.36709,0.57363 -1.52945,2.08014 -2.5831,3.3478 -1.05365,1.26766 -2.94752,3.73783 -4.20863,5.48927 -1.26105,1.75142 -2.93586,3.9816 -3.72178,4.95592 -0.78593,0.97433 -1.77451,2.20142 -2.19686,2.72686 -0.42237,0.52545 -1.284,1.57994 -1.91484,2.34332 -0.63078,0.76338 -1.14689,1.51913 -1.14689,1.67944 0,0.16032 -0.35639,0.65351 -0.79194,1.09599 -0.85773,0.87135 -4.42997,5.35 -6.27775,7.87075 -0.63056,0.86014 -1.47,1.89154 -1.86545,2.29197 -0.39551,0.40041 -0.99737,1.15028 -1.33756,1.66634 -1.08744,1.64983 -8.91362,11.84291 -10.42025,13.57168 -0.88762,1.01857 -1.53579,2.20828 -1.66552,3.05716 -0.11681,0.76432 -0.55083,2.81469 -0.96457,4.55639 -0.97511,4.10552 -0.94895,4.96455 0.20322,6.66008 0.52547,0.77327 0.95535,1.65597 0.95535,1.96158 0,0.30559 -0.75581,1.56146 -1.67962,2.79082 -0.9238,1.22936 -1.87978,2.97926 -2.12444,3.88867 -0.4159,1.54607 -2.22829,4.5645 -5.03681,8.38864 -0.6604,0.89919 -1.11909,1.71653 -1.01933,1.8163 0.0998,0.0998 3.39553,0.32881 7.32387,0.50896 3.92841,0.18017 7.25259,0.43761 7.38707,0.57211 0.38764,0.38765 13.13675,0.26589 14.82978,-0.14163 l 0,0 z m -86.17381,-1.86316 c 0,-0.62019 -5.40672,-2.94448 -8.56103,-3.68035 -2.64482,-0.61698 -3.2265,-0.41117 -4.61575,1.63326 -1.64156,2.41583 -1.71874,2.3857 6.10704,2.3857 3.88837,0 7.06974,-0.15238 7.06974,-0.33861 z m 75.96283,-51.028 c 0.23142,-0.50785 1.33377,-2.01255 2.44975,-3.34377 1.11598,-1.33121 2.63088,-3.24397 3.36653,-4.25057 0.73565,-1.00661 2.11137,-2.84734 3.0572,-4.09054 0.94579,-1.24319 2.14954,-2.89156 2.67499,-3.66307 0.52547,-0.7715 1.34231,-1.78791 1.81518,-2.25869 0.47291,-0.47078 0.85982,-0.96372 0.85982,-1.09544 0,-0.35795 2.70958,-3.85662 3.10085,-4.00386 0.18618,-0.07 0.3385,-0.30717 0.3385,-0.5269 0,-0.21974 0.55886,-1.03957 1.24197,-1.82187 0.68305,-0.7823 1.84382,-2.23354 2.57947,-3.225 0.73565,-0.99146 1.81042,-2.37255 2.38842,-3.06909 0.57801,-0.69654 1.05087,-1.44436 1.05087,-1.66182 0,-0.21747 0.215,-0.47421 0.47768,-0.57055 0.37258,-0.13659 0.37654,-0.28261 0.0181,-0.66337 -0.36058,-0.38307 -0.29886,-0.69249 0.28662,-1.43681 0.41041,-0.52172 0.74618,-1.18335 0.74618,-1.47028 0,-0.60476 -1.59519,-0.70119 -2.58467,-0.15622 -0.36494,0.201 -1.62622,0.62811 -2.80279,0.94914 -3.07498,0.83901 -5.09712,3.11229 -6.98889,7.8569 -0.79612,1.9967 -1.6701,3.88833 -1.94224,4.20359 -0.27207,0.31528 -0.62517,0.99981 -0.78468,1.52119 -0.15951,0.52139 -0.58287,1.38122 -0.9408,1.91074 -1.76986,2.61831 -2.68104,4.08486 -2.68104,4.31508 0,0.22173 -1.6265,2.77363 -3.88169,6.09031 -0.38725,0.56948 -0.70405,1.61761 -0.70405,2.32917 0,0.77696 -0.28454,1.55126 -0.71233,1.93838 -0.85444,0.77328 -3.49127,5.70751 -3.49127,6.53317 0,0.88631 0.58956,0.6977 1.06231,-0.33982 z"
     id="path3005"
     inkscape:connector-curvature="0" />
</svg>
