<?xml version="1.0" encoding="UTF-8" standalone="no"?>
<!-- Created with Inkscape (http://www.inkscape.org/) -->

<svg
   xmlns:dc="http://purl.org/dc/elements/1.1/"
   xmlns:cc="http://creativecommons.org/ns#"
   xmlns:rdf="http://www.w3.org/1999/02/22-rdf-syntax-ns#"
   xmlns:svg="http://www.w3.org/2000/svg"
   xmlns="http://www.w3.org/2000/svg"
   xmlns:sodipodi="http://sodipodi.sourceforge.net/DTD/sodipodi-0.dtd"
   xmlns:inkscape="http://www.inkscape.org/namespaces/inkscape"
   id="svg2"
   version="1.1"
   inkscape:version="0.48.4 r9939"
   width="449.25259"
   height="697.14008"
   sodipodi:docname="miku.png">
  <metadata
     id="metadata8">
    <rdf:RDF>
      <cc:Work
         rdf:about="">
        <dc:format>image/svg+xml</dc:format>
        <dc:type
           rdf:resource="http://purl.org/dc/dcmitype/StillImage" />
        <dc:title></dc:title>
      </cc:Work>
    </rdf:RDF>
  </metadata>
  <defs
     id="defs6" />
  <sodipodi:namedview
     pagecolor="#ffffff"
     bordercolor="#666666"
     borderopacity="1"
     objecttolerance="10"
     gridtolerance="10"
     guidetolerance="10"
     inkscape:pageopacity="0"
     inkscape:pageshadow="2"
     inkscape:window-width="1916"
     inkscape:window-height="1041"
     id="namedview4"
     showgrid="false"
     fit-margin-top="0"
     fit-margin-left="0"
     fit-margin-right="0"
     fit-margin-bottom="0"
     inkscape:zoom="1.2522591"
     inkscape:cx="224.62629"
     inkscape:cy="348.57005"
     inkscape:window-x="0"
     inkscape:window-y="18"
     inkscape:window-maximized="0"
     inkscape:current-layer="svg2" />
  <path
     style="fill:#ff0000;stroke:none"
     d="m 100.46102,695.3218 c -5.271315,-3.88905 -7.228615,-8.15376 -9.534605,-20.77472 -1.02047,-5.58514 -2.30055,-51.77198 -2.54751,-91.91708 -0.0197,-3.20591 -0.3366,-5.82892 -0.70417,-5.82892 -0.36757,0 -2.14445,2.79224 -3.94863,6.20498 l -3.28031,6.20498 0,11.3132 c 0,10.87382 0.0803,11.46804 2.06833,15.29982 1.13758,2.19263 2.06832,4.11613 2.06832,4.27445 0,0.39811 -3.74434,-0.28801 -11.28178,-2.06729 -12.00797,-2.83459 -20.11019,-7.36452 -28.55878,-15.96715 -2.67687,-2.72568 -5.30782,-4.95579 -5.84656,-4.95579 -1.54232,0 -13.44782,-11.79389 -18.60127,-18.4269 C 9.0801449,564.24796 4.4378349,554.49669 1.3167049,538.81909 0.16499491,533.034 -0.02602509,528.05945 0.00262491,504.59769 c 0.0386,-31.57222 0.40206,-34.87267 6.43289999,-58.40772 6.6117301,-25.80195 14.0880501,-45.68326 23.4972501,-62.48471 2.26198,-4.03909 4.34508,-8.12966 4.62912,-9.09017 0.28404,-0.9605 3.62793,-6.88343 7.43088,-13.16207 3.80294,-6.27864 7.89672,-13.78488 9.09727,-16.68054 1.20056,-2.89566 5.13052,-12.24846 8.73326,-20.784 3.60274,-8.53553 6.79992,-16.65842 7.10486,-18.05084 0.30493,-1.39243 1.90155,-5.57777 3.54803,-9.30075 5.70007,-12.88887 24.81233,-60.22123 29.15491,-72.20339 2.398715,-6.61865 6.460725,-17.27993 9.026685,-23.69174 4.62563,-11.55852 15.33098,-43.52866 30.09616,-89.87818 10.72834,-33.677452 17.22955,-52.222272 22.96734,-65.514782 2.71548,-6.290833 6.35426,-15.419244 8.08617,-20.285356 3.70555,-10.411418 4.39141,-10.943697 12.12784,-9.412093 l 4.55922,0.902601 8.27061,-3.905497 c 11.63505,-5.4942379 15.23866,-6.5869309 24.74057,-7.5018879 9.135,-0.879627 18.97084,-0.428298 27.15831,1.24619 l 5.26483,1.076756 2.63242,-2.950963 c 4.9262,-5.5223232 7.60014,-5.8490582 14.00252,-1.7110017 7.15455,4.6242117 13.68678,11.8242856 19.32642,21.3023466 2.79264,4.693341 12.72234,23.76375 22.06601,42.378686 16.5234,32.918792 25.08906,49.210271 40.13769,76.340041 4.01548,7.23914 11.87671,22.63877 17.46941,34.2214 5.59268,11.58263 16.24245,33.5821 23.66614,48.88771 7.42368,15.30562 14.72079,30.53602 16.2158,33.84534 1.495,3.30932 5.40881,11.93989 8.69734,19.17903 12.17568,26.80265 23.47128,60.60453 26.76731,80.10063 3.04651,18.02024 5.51167,45.06544 6.16997,67.69068 0.7972,27.39898 -0.84299,36.59908 -11.79969,66.18644 -3.37012,9.10064 -7.41252,20.32301 -8.9831,24.93859 -2.96777,8.72157 -8.9934,19.95706 -16.4438,30.66137 -5.41312,7.77727 -16.32561,19.10629 -27.37771,28.42271 -10.79879,9.1029 -23.25209,21.45009 -25.89317,25.67253 -1.07422,1.71743 -2.90874,4.2227 -4.0767,5.56727 -1.16797,1.34457 -3.85495,5.01047 -5.97108,8.14644 -4.11593,6.09954 -5.28509,6.87339 -3.20654,2.12236 0.93783,-2.14367 1.29567,-5.11843 1.32607,-11.02374 l 0.0416,-8.08781 -8.46098,-16.7321 c -4.65354,-9.20266 -9.24298,-18.76283 -10.19875,-21.24482 -0.95577,-2.48199 -2.05472,-4.44544 -2.44213,-4.36321 -1.34458,0.28539 -1.87206,5.82054 -1.09302,11.46959 0.95955,6.95792 3.57567,12.51809 8.39253,17.83704 3.46943,3.83107 4.39659,5.51738 3.03355,5.51738 -1.15861,0 -15.29756,-14.80843 -17.225,-18.0406 -3.07899,-5.16324 -6.92068,-16.86249 -7.63567,-23.25317 -1.4816,-13.24282 1.28724,-27.32222 11.56736,-58.81937 9.26493,-28.38675 10.77916,-35.01898 16.20885,-70.99385 4.44409,-29.44468 1.72539,-66.9144 -8.40403,-115.82627 -3.46495,-16.73121 -26.09866,-116.4382 -36.10993,-159.07309 -2.47693,-10.54847 -6.02264,-26.28655 -7.87936,-34.97352 -5.01306,-23.454527 -8.8615,-37.981992 -10.0617,-37.981992 -0.29033,0 -1.43108,1.659512 -2.53502,3.687803 -2.6799,4.923872 -7.50412,11.370356 -13.15187,17.574538 -2.54932,2.80048 -4.63513,5.685042 -4.63513,6.410121 0,2.12476 5.34623,10.62628 9.15599,14.55978 1.9333,1.99609 3.176,3.83882 2.76156,4.09497 -0.41445,0.25614 -3.41747,-0.92446 -6.67338,-2.62354 -3.25593,-1.6991 -6.2755,-3.08926 -6.71019,-3.08926 -1.56793,0 -0.73207,2.12548 2.30324,5.85682 2.74927,3.3797 3.50682,3.8598 6.8064,4.31362 4.34476,0.59756 7.34367,3.24046 10.84225,9.55515 2.07115,3.73827 2.1974,4.4631 2.1974,12.61551 0,6.56173 -0.53184,11.30227 -2.20349,19.64074 -2.14942,10.72175 -2.17332,11.09076 -0.97392,15.04237 0.94818,3.12396 1.41124,9.90298 2.02351,29.62303 0.43668,14.06462 1.31148,29.46425 1.944,34.2214 1.3517,10.16593 11.3455,57.42806 20.32563,96.12279 3.48513,15.01716 6.3366,28.0258 6.3366,28.90809 0,0.88229 -0.72138,2.37204 -1.60308,3.31055 -0.97049,1.03305 -1.94071,3.57486 -2.45872,6.44149 -0.82809,4.58255 -0.92788,4.73324 -3.09767,4.67769 -1.23311,-0.0316 -2.73023,-0.2008 -3.32694,-0.37606 -0.79382,-0.23316 -1.23558,0.67087 -1.64641,3.36922 -1.10297,7.24431 -5.38278,7.626 -9.07427,0.80927 -1.27692,-2.35797 -2.53047,-3.74503 -3.38454,-3.74503 -1.22349,0 -1.33006,0.63828 -1.08713,6.51106 0.24552,5.93504 0.13345,6.58379 -1.26676,7.33316 -0.84485,0.45215 -2.05285,0.82209 -2.68442,0.82209 -1.80292,0 -4.02597,-2.87487 -4.55764,-5.894 -1.08095,-6.13824 -1.89477,-7.64413 -4.13106,-7.64413 -1.84249,0 -2.21477,0.40893 -3.03312,3.33177 -1.2035,4.29848 -3.23048,6.44577 -6.08462,6.44577 -2.63426,0 -2.76628,-0.26401 -3.5144,-7.028 l -0.56935,-5.1477 -4.41871,-1.79567 c -2.43029,-0.98762 -4.71485,-1.61265 -5.0768,-1.38895 -1.22851,0.75926 -0.66441,4.52279 3.04217,20.29662 5.79225,24.64977 11.81935,56.89836 15.81913,84.64183 1.2286,8.52194 2.78523,17.15251 3.45916,19.17902 0.67394,2.02653 5.89215,13.16128 11.59603,24.74391 5.70388,11.58263 11.39804,23.93617 12.6537,27.45233 4.32892,12.12204 13.61147,41.77137 16.60076,53.02436 4.37715,16.47756 8.89097,31.69986 10.92814,36.85382 1.75937,4.45114 2.91915,11.42477 3.8978,23.43717 l 0.5001,6.13844 -2.25207,1.1646 c -2.53005,1.30834 -3.17022,2.96775 -3.18512,8.25629 -0.0131,4.64593 -1.63662,8.0573 -4.72316,9.92426 -2.11733,1.2807 -3.84422,1.47118 -13.33795,1.47116 -9.96969,-3e-5 -11.29305,-0.16308 -15.41844,-1.89962 -3.92608,-1.65266 -4.74413,-2.3637 -6.29294,-5.46979 -1.04646,-2.09864 -1.93545,-5.50381 -2.1568,-8.26136 -0.35125,-4.37586 -0.0718,-5.47416 4.15879,-16.34162 6.20643,-15.94318 7.10759,-19.38344 7.07393,-27.00528 -0.0365,-8.25645 -1.70129,-13.95216 -10.92334,-37.37109 -7.11621,-18.07128 -10.59872,-25.65492 -16.84349,-36.67909 -1.84435,-3.25589 -4.55905,-8.3327 -6.03268,-11.28178 -1.47361,-2.94908 -3.9306,-7.22345 -5.45996,-9.49861 -4.78547,-7.11915 -10.34371,-18.19503 -12.078,-24.06779 -0.9162,-3.10249 -3.45474,-10.04079 -5.6412,-15.41844 -5.17335,-12.72394 -8.98676,-25.41943 -10.91728,-36.3455 -4.05658,-22.95877 -14.09501,-57.7862 -23.34297,-80.98635 -4.12264,-10.34237 -7.74968,-19.21524 -8.06009,-19.7175 -0.43693,-0.70697 -1.40716,-0.65892 -4.29642,0.21276 -2.05262,0.61928 -7.10876,1.36927 -11.23586,1.66666 l -7.50384,0.5407 -1.65982,7.14512 c -0.91291,3.92982 -1.87288,9.68353 -2.13327,12.78602 -0.26039,3.10249 -1.30073,11.90228 -2.31186,19.55509 -3.34018,25.28031 -3.60971,52.00383 -0.74341,73.70762 2.84889,21.57192 6.69542,36.04221 13.68323,51.47505 2.23641,4.93918 3.93438,9.33908 3.77328,9.77754 -0.49898,1.358 -6.80736,-5.79286 -12.02649,-13.63261 -5.75744,-8.64834 -9.92497,-17.25138 -11.11605,-22.94687 -0.45891,-2.19442 -0.98323,-4.48832 -1.16515,-5.09757 -0.18192,-0.60925 -1.2432,1.5907 -2.3584,4.88877 -2.51828,7.44758 -6.60873,14.80175 -10.91048,19.61578 -6.10286,6.82964 -10.10865,12.91765 -10.93898,16.62506 -8.56182,38.22843 -10.44662,48.94972 -11.24212,63.94864 -0.7556,14.2463 -0.0356,21.57916 3.08837,31.45415 1.43196,4.52649 3.84241,12.1222 5.35653,16.87935 1.51413,4.75715 4.13164,11.52622 5.81669,15.04237 4.81249,10.0421 4.89449,20.58317 0.18414,23.66951 -3.17697,2.08162 -12.89557,4.15888 -19.45765,4.15888 -5.29824,0 -6.45979,-0.24583 -8.59109,-1.81826 l 0,0 z M 239.37166,353.23381 c 1.85567,-13.58995 1.97645,-15.60646 0.93473,-15.60646 -1.69512,0 -4.33054,1.75879 -5.70141,3.80494 -0.81351,1.21423 -1.94164,2.20866 -2.50697,2.20984 -0.72215,0.002 -0.86944,0.50551 -0.49519,1.69444 1.65396,5.25446 2.65438,9.3899 2.67789,11.06963 0.0147,1.04743 0.51034,2.75055 1.10152,3.78471 0.59118,1.03416 1.08687,2.64182 1.10152,3.57256 0.0147,0.93075 0.29494,1.69227 0.62284,1.69227 0.32791,0 1.34718,-5.49987 2.26507,-12.22193 l 0,0 z m 5.02962,-85.28733 c 0.59546,-13.49927 -0.22273,-63.49363 -1.06132,-64.85049 -0.2948,-0.47701 -1.8522,1.15279 -3.69158,3.86319 -5.8189,8.57444 -8.56606,12.15921 -13.77178,17.97085 -5.02317,5.60784 -5.16038,5.86839 -5.14936,9.77754 0.0108,3.81867 0.93428,7.47055 2.72743,10.78525 0.44757,0.82733 1.04929,2.48694 1.33717,3.68803 0.28787,1.20108 1.48256,3.57788 2.65488,5.28177 1.1723,1.70389 2.66954,4.27495 3.32717,5.71346 0.65764,1.43851 1.80184,3.63083 2.54266,4.87182 0.74083,1.241 2.61604,4.40245 4.16714,7.02544 3.31722,5.6096 5.23719,8.3366 5.89253,8.36936 0.26005,0.013 0.72132,-5.6103 1.02506,-12.49622 z m -69.5646,-118.04709 c 0,-2.71753 2.12807,-6.92868 3.76369,-7.44781 0.74919,-0.23778 1.54488,-0.90846 1.76819,-1.49039 0.22331,-0.58192 1.60839,-1.28361 3.07795,-1.55931 1.46957,-0.27569 2.67195,-0.7423 2.67195,-1.03692 0,-0.29462 2.11363,-0.92873 4.69695,-1.40915 2.58332,-0.48042 4.8079,-1.20635 4.94351,-1.61318 0.13561,-0.40683 1.43354,-0.96237 2.88428,-1.23453 1.45075,-0.27216 2.81614,-0.95979 3.03421,-1.52805 0.21806,-0.56826 0.87962,-1.03321 1.47012,-1.03321 0.5905,0 3.44282,-2.36917 6.33848,-5.26483 2.89566,-2.89565 5.90238,-5.26483 6.68162,-5.26483 2.84963,0 3.79617,-0.86396 3.79617,-3.465 0,-2.22066 -0.24409,-2.55195 -1.8803,-2.55195 -1.03416,0 -1.8803,0.33846 -1.8803,0.75212 0,0.41367 -0.50768,0.75212 -1.12817,0.75212 -0.6205,0 -1.12818,-0.28488 -1.12818,-0.63307 0,-0.34818 -1.35381,-1.03868 -3.00848,-1.53442 -1.65466,-0.49575 -3.00847,-1.17206 -3.00847,-1.50291 0,-0.33085 -1.35381,-1.04834 -3.00847,-1.59443 -1.65467,-0.54609 -3.00848,-1.27717 -3.00848,-1.62462 0,-0.34746 -0.45523,-0.63174 -1.01161,-0.63174 -0.55638,0 -1.6242,-0.6769 -2.37292,-1.50423 -0.74873,-0.82733 -1.81654,-1.50424 -2.37293,-1.50424 -1.5492,0 -1.20195,2.52776 0.49263,3.58605 0.82733,0.51667 1.50424,1.44422 1.50424,2.06121 0,0.69414 0.71434,1.12181 1.87375,1.12181 2.39328,0 6.54867,4.22628 6.24467,6.35121 -0.18571,1.29816 -0.76382,1.54603 -3.60571,1.54603 -2.7885,0 -3.51528,-0.29802 -4.12697,-1.69226 -0.40834,-0.93075 -1.00064,-1.69227 -1.31621,-1.69227 -0.31558,0 -0.57377,-0.47019 -0.57377,-1.04486 0,-0.57466 -0.66565,-1.84386 -1.47921,-2.82044 l -1.47922,-1.77559 -0.025,5.82892 c -0.0228,5.31916 -0.15655,5.82892 -1.52924,5.82892 -0.82733,0 -1.50424,-0.37579 -1.50424,-0.83508 0,-1.27801 -4.57523,-8.0534 -5.74008,-8.50039 -0.56595,-0.21718 -1.0417,-0.82855 -1.05723,-1.35862 -0.0155,-0.53006 -1.19508,-2.31756 -2.62122,-3.97223 l -2.59299,-3.00847 -0.0112,2.75777 c -0.006,1.51677 -0.32223,2.87058 -0.70238,3.00848 -0.38016,0.13788 -1.09608,5.66595 -1.59095,12.2846 -0.49486,6.61864 -1.15886,12.20312 -1.47553,12.40995 -0.98709,0.64471 -1.78913,15.7945 -0.83617,15.7945 0.45829,0 0.83325,-0.8796 0.83325,-1.95466 l 2e-5,0 z"
     id="path3001"
     inkscape:connector-curvature="0" />
</svg>
