<?xml version="1.0" encoding="UTF-8" standalone="no"?>
<!-- Created with Inkscape (http://www.inkscape.org/) -->

<svg
   xmlns:dc="http://purl.org/dc/elements/1.1/"
   xmlns:cc="http://creativecommons.org/ns#"
   xmlns:rdf="http://www.w3.org/1999/02/22-rdf-syntax-ns#"
   xmlns:svg="http://www.w3.org/2000/svg"
   xmlns="http://www.w3.org/2000/svg"
   xmlns:sodipodi="http://sodipodi.sourceforge.net/DTD/sodipodi-0.dtd"
   xmlns:inkscape="http://www.inkscape.org/namespaces/inkscape"
   id="svg2"
   version="1.1"
   inkscape:version="0.48.4 r9939"
   width="228.33861"
   height="354.33072"
   sodipodi:docname="miku.svg">
  <metadata
     id="metadata8">
    <rdf:RDF>
      <cc:Work
         rdf:about="">
        <dc:format>image/svg+xml</dc:format>
        <dc:type
           rdf:resource="http://purl.org/dc/dcmitype/StillImage" />
        <dc:title />
      </cc:Work>
    </rdf:RDF>
  </metadata>
  <defs
     id="defs6" />
  <sodipodi:namedview
     pagecolor="#ffffff"
     bordercolor="#666666"
     borderopacity="1"
     objecttolerance="10"
     gridtolerance="10"
     guidetolerance="10"
     inkscape:pageopacity="0"
     inkscape:pageshadow="2"
     inkscape:window-width="1916"
     inkscape:window-height="1041"
     id="namedview4"
     showgrid="false"
     fit-margin-top="0"
     fit-margin-left="0"
     fit-margin-right="0"
     fit-margin-bottom="0"
     inkscape:zoom="1.2522591"
     inkscape:cx="62.519263"
     inkscape:cy="348.57003"
     inkscape:window-x="0"
     inkscape:window-y="18"
     inkscape:window-maximized="0"
     inkscape:current-layer="svg2" />
  <path
     style="fill:#ff0000;stroke:none"
     d="m 51.06065,353.40656 c -2.679216,-1.97667 -3.67404,-4.14426 -4.84609,-10.55903 -0.518668,-2.83872 -1.169285,-26.3138 -1.294806,-46.71808 -0.01001,-1.62945 -0.171081,-2.96263 -0.357904,-2.96263 -0.186822,0 -1.089945,1.4192 -2.006943,3.15377 l -1.667262,3.15376 0,5.75008 c 0,5.52677 0.04081,5.82879 1.051257,7.77634 0.57819,1.11443 1.051251,2.09208 1.051251,2.17255 0,0.20234 -1.903111,-0.14639 -5.734115,-1.05073 -6.10321,-1.44072 -10.221272,-3.74312 -14.51538,-8.11552 -1.360555,-1.38536 -2.69777,-2.51884 -2.971592,-2.51884 -0.783904,0 -6.835033,-5.9944 -9.454343,-9.36572 -5.6996186,-7.33598 -8.0591344,-12.29219 -9.64549022,-20.26054 -0.58537192,-2.94035 -0.68246038,-5.46873 -0.66789863,-17.39348 0.01961896,-16.047 0.20435234,-17.7245 3.26960695,-29.6865 3.3604998,-13.11419 7.1604389,-23.21913 11.9427899,-31.75869 1.149681,-2.05292 2.208445,-4.132 2.352812,-4.6202 0.144367,-0.48818 1.843944,-3.49859 3.776843,-6.68979 1.932895,-3.19121 4.013613,-7.00635 4.623809,-8.47811 0.610201,-1.47176 2.607655,-6.22544 4.438796,-10.56374 1.83114,-4.3383 3.456149,-8.46687 3.611139,-9.17458 0.154985,-0.70772 0.966488,-2.83498 1.803334,-4.72723 2.897136,-6.55094 12.611196,-30.60824 14.81837,-36.69834 1.219179,-3.36401 3.28375,-8.78275 4.587933,-12.04164 2.351038,-5.87477 7.792175,-22.12402 15.296774,-45.68178 5.452821,-17.11701 8.757148,-26.54266 11.673456,-33.29876 1.380179,-3.1974 3.229637,-7.83703 4.109903,-10.3103 1.883395,-5.2917398 2.231993,-5.5622798 6.164136,-4.7838198 l 2.317284,0.45876 4.203648,-1.98502 c 5.913672,-2.79252 7.745252,-3.3479 12.574722,-3.81294 4.64299,-0.44708 9.64218,-0.21769 13.80357,0.63339 l 2.67592,0.54728 1.33797,-1.49987 c 2.5038,-2.80678999 3.86287,-2.97285999 7.11696,-0.86964 3.6364,2.35032 6.95649,6.00985 9.82291,10.8272098 1.4194,2.38545 6.4663,12.07824 11.21535,21.53953 8.39823,16.73141 12.75185,25.01177 20.40051,38.80084 2.04092,3.67939 6.0365,11.50645 8.87906,17.39348 2.84256,5.88702 8.25544,17.06855 12.02863,24.84783 3.77319,7.77928 7.48204,15.52034 8.2419,17.20234 0.75985,1.68201 2.7491,6.06861 4.42054,9.748 6.18845,13.6228 11.92959,30.80306 13.60484,40.71221 1.54843,9.15903 2.80138,22.90511 3.13597,34.40469 0.40518,13.92589 -0.42846,18.60197 -5.99735,33.64014 -1.71291,4.62552 -3.76751,10.32944 -4.56578,12.67537 -1.50841,4.43285 -4.57102,10.14344 -8.35778,15.58405 -2.75129,3.9529 -8.29771,9.71102 -13.91509,14.44622 -5.48863,4.62667 -11.81818,10.90229 -13.16055,13.0484 -0.54598,0.87291 -1.4784,2.14625 -2.07203,2.82964 -0.59364,0.6834 -1.95933,2.54664 -3.03488,4.14054 -2.09198,3.10017 -2.68622,3.49349 -1.62977,1.07871 0.47666,-1.08954 0.65854,-2.60151 0.67399,-5.60296 l 0.0212,-4.11073 -4.30041,-8.50432 c -2.36522,-4.67737 -4.69787,-9.53646 -5.18365,-10.79796 -0.48578,-1.2615 -1.04434,-2.25945 -1.24124,-2.21766 -0.68341,0.14505 -0.9515,2.95837 -0.55555,5.82957 0.48771,3.53646 1.81739,6.36249 4.26562,9.06592 1.76338,1.94719 2.23462,2.80428 1.54184,2.80428 -0.58888,0 -7.77519,-7.52658 -8.75483,-9.16938 -1.56494,-2.62428 -3.51753,-8.57058 -3.88094,-11.81873 -0.75304,-6.73084 0.65426,-13.88688 5.87927,-29.89573 4.70902,-14.42794 5.47865,-17.79886 8.23836,-36.08357 2.25877,-14.96565 0.87696,-34.01013 -4.27146,-58.87024 -1.7611,-8.50386 -13.26499,-59.18126 -18.35335,-80.85101 -1.25893,-5.3614 -3.06109,-13.36049 -4.00479,-17.77576 -2.54795,-11.92107 -4.50397,-19.30485 -5.11399,-19.30485 -0.14757,0 -0.72737,0.84347 -1.28846,1.87437 -1.36209,2.50263 -3.81407,5.77914 -6.68461,8.9325 -1.29573,1.42338 -2.35587,2.88949 -2.35587,3.25802 0,1.07994 2.71729,5.40095 4.65365,7.40021 0.98263,1.01454 1.61425,1.95113 1.4036,2.08132 -0.21065,0.13019 -1.73697,-0.46987 -3.39183,-1.33345 -1.65487,-0.86359 -3.18961,-1.57016 -3.41054,-1.57016 -0.79692,0 -0.37209,1.08031 1.17065,2.97681 1.39735,1.71778 1.78239,1.96179 3.45944,2.19245 2.20828,0.30372 3.73252,1.64701 5.51072,4.85654 1.05269,1.90002 1.11686,2.26843 1.11686,6.412 0,3.33508 -0.27032,5.74453 -1.11995,9.98266 -1.09248,5.44948 -1.10462,5.63703 -0.49501,7.64549 0.48192,1.58779 0.71728,5.03332 1.02847,15.0563 0.22195,7.14853 0.66658,14.9756 0.98807,17.39348 0.68702,5.16697 5.7665,29.18858 10.33077,48.85569 1.77136,7.63267 3.22066,14.24448 3.22066,14.69292 0,0.44843 -0.36665,1.20562 -0.81479,1.68263 -0.49326,0.52506 -0.98639,1.81697 -1.24967,3.27397 -0.42089,2.32914 -0.47161,2.40573 -1.57444,2.3775 -0.62674,-0.0161 -1.38767,-0.10206 -1.69096,-0.19114 -0.40347,-0.1185 -0.628,0.34098 -0.83681,1.71245 -0.5606,3.68202 -2.73587,3.87602 -4.61212,0.41133 -0.64901,-1.19847 -1.28614,-1.90347 -1.72023,-1.90347 -0.62186,0 -0.67602,0.32442 -0.55255,3.30934 0.12479,3.01656 0.0678,3.3463 -0.64385,3.72717 -0.42941,0.22981 -1.04339,0.41784 -1.36439,0.41784 -0.91636,0 -2.04625,-1.46119 -2.31648,-2.9957 -0.54941,-3.11984 -0.96304,-3.88523 -2.09967,-3.88523 -0.93647,0 -1.12568,0.20784 -1.54162,1.69341 -0.6117,2.18476 -1.64194,3.27615 -3.09259,3.27615 -1.3389,0 -1.406,-0.13418 -1.78624,-3.57207 l -0.28938,-2.61639 -2.24587,-0.91267 c -1.23523,-0.50197 -2.39638,-0.81965 -2.58035,-0.70596 -0.62441,0.38591 -0.3377,2.29877 1.54622,10.31603 2.94399,12.52858 6.00734,28.91935 8.04029,43.02034 0.62445,4.33139 1.41563,8.71799 1.75816,9.74799 0.34254,1.03001 2.99476,6.6894 5.89384,12.57642 2.89907,5.88703 5.7932,12.16588 6.43141,13.95301 2.20023,6.16119 6.91821,21.23086 8.43756,26.95034 2.22474,8.37494 4.51895,16.11187 5.55437,18.73144 0.89422,2.26235 1.48369,5.8068 1.98111,11.91226 l 0.25418,3.11994 -1.14465,0.59192 c -1.28593,0.66499 -1.6113,1.5084 -1.61888,4.19637 -0.007,2.36136 -0.83183,4.09523 -2.4006,5.04414 -1.07617,0.65093 -1.95388,0.74775 -6.77919,0.74774 -5.06723,-2e-5 -5.73985,-0.0829 -7.83663,-0.96551 -1.99548,-0.83999 -2.41127,-1.20138 -3.19847,-2.78009 -0.53188,-1.06667 -0.98372,-2.79739 -1.09622,-4.19895 -0.17853,-2.22409 -0.0365,-2.78231 2.11376,-8.30585 3.1545,-8.10333 3.61252,-9.85189 3.59541,-13.72579 -0.0186,-4.19645 -0.8647,-7.09137 -5.55193,-18.99435 -3.61691,-9.18497 -5.38694,-13.03946 -8.56093,-18.64264 -0.93741,-1.65485 -2.31719,-4.2352 -3.06619,-5.73411 -0.74898,-1.49891 -1.99778,-3.67142 -2.77509,-4.8278 -2.43228,-3.6184 -5.25733,-9.24786 -6.13881,-12.23277 -0.46567,-1.57688 -1.75591,-5.10337 -2.86721,-7.83663 -2.62943,-6.46711 -4.56764,-12.91976 -5.54886,-18.47308 -2.06181,-11.6691 -7.16397,-29.37061 -11.86437,-41.16239 -2.095387,-5.25665 -3.938878,-9.7664 -4.096648,-10.02168 -0.222076,-0.35933 -0.715208,-0.33491 -2.183713,0.10813 -1.043271,0.31476 -3.613122,0.69595 -5.710775,0.84711 l -3.813927,0.27481 -0.843625,3.63161 c -0.463999,1.99738 -0.951916,4.92178 -1.084263,6.49866 -0.132347,1.57688 -0.661113,6.04949 -1.175034,9.93914 -1.69769,12.84905 -1.834683,26.43163 -0.377848,37.46287 1.447987,10.96422 3.403037,18.31894 6.954684,26.16288 1.136685,2.51041 1.999701,4.74672 1.91782,4.96957 -0.253613,0.69022 -3.459931,-2.9443 -6.112624,-6.92896 -2.926295,-4.39563 -5.044498,-8.76824 -5.64988,-11.66305 -0.233247,-1.11534 -0.49974,-2.28125 -0.592203,-2.59091 -0.09246,-0.30966 -0.631873,0.8085 -1.198688,2.48479 -1.279949,3.78533 -3.358975,7.52318 -5.545397,9.96998 -3.101859,3.47125 -5.137856,6.56556 -5.559882,8.4499 -4.351659,19.43011 -5.309633,24.87935 -5.713957,32.50275 -0.384044,7.24087 -0.01809,10.9679 1.569705,15.98699 0.727813,2.30065 1.952956,6.16127 2.722528,8.57916 0.769577,2.41788 2.099961,5.85835 2.95641,7.64548 2.446012,5.10403 2.48769,10.46167 0.09359,12.03034 -1.614738,1.05801 -6.554345,2.11381 -9.88961,2.11381 -2.692901,0 -3.283274,-0.12495 -4.366536,-0.92415 l 0,0 z m 70.60318,-173.87078 c 0.94317,-6.90727 1.00456,-7.93219 0.47509,-7.93219 -0.86157,0 -2.20106,0.89393 -2.89782,1.93391 -0.41348,0.61715 -0.98686,1.12259 -1.2742,1.12318 -0.36704,10e-4 -0.4419,0.25694 -0.25169,0.86123 0.84065,2.67065 1.34913,4.77254 1.36108,5.62628 0.007,0.53237 0.25938,1.39801 0.55986,1.92363 0.30047,0.52563 0.55242,1.34274 0.55986,1.8158 0.007,0.47307 0.14991,0.86012 0.31657,0.86012 0.16666,0 0.68472,-2.79538 1.15125,-6.21196 l 0,0 z m 2.55637,-43.34842 c 0.30265,-6.86118 -0.1132,-32.27148 -0.53943,-32.96112 -0.14983,-0.24245 -0.9414,0.58592 -1.87629,1.96352 -2.95754,4.35807 -4.35382,6.18008 -6.99969,9.13392 -2.5531,2.85026 -2.62284,2.98269 -2.61723,4.96957 0.005,1.94089 0.47486,3.797 1.38625,5.48174 0.22748,0.4205 0.53331,1.26402 0.67963,1.87449 0.14632,0.61047 0.75353,1.81851 1.34938,2.68453 0.59584,0.86603 1.35683,2.1728 1.69108,2.90394 0.33425,0.73115 0.91581,1.84542 1.29234,2.47617 0.37654,0.63076 1.32964,2.23761 2.118,3.57078 1.68603,2.85115 2.66188,4.23718 2.99496,4.25383 0.13218,0.007 0.36662,-2.85151 0.521,-6.35137 z m -35.357132,-59.999 c 0,-1.38122 1.08162,-3.52159 1.912946,-3.78545 0.380786,-0.12085 0.785206,-0.46174 0.898706,-0.75751 0.1135,-0.29577 0.817485,-0.65241 1.564409,-0.79254 0.746928,-0.14012 1.358054,-0.37728 1.358054,-0.52703 0,-0.14974 1.074281,-0.47204 2.387287,-0.71622 1.313007,-0.24418 2.443679,-0.61314 2.512605,-0.81992 0.06893,-0.20677 0.728615,-0.48913 1.465975,-0.62746 0.73736,-0.13833 1.43134,-0.48783 1.54218,-0.77665 0.11083,-0.28883 0.44707,-0.52515 0.7472,-0.52515 0.30013,0 1.74986,-1.20416 3.22162,-2.67592 1.47176,-1.47175 2.99996,-2.67592 3.39602,-2.67592 1.44837,0 1.92946,-0.43912 1.92946,-1.76113 0,-1.12868 -0.12406,-1.29706 -0.95569,-1.29706 -0.52563,0 -0.95569,0.17202 -0.95569,0.38227 0,0.21026 -0.25803,0.38228 -0.57341,0.38228 -0.31537,0 -0.57341,-0.1448 -0.57341,-0.32177 0,-0.17697 -0.68809,-0.52792 -1.5291,-0.77989 -0.841,-0.25197 -1.52909,-0.59571 -1.52909,-0.76387 0,-0.16816 -0.68809,-0.53283 -1.5291,-0.81039 -0.84101,-0.27756 -1.5291,-0.64914 -1.5291,-0.82574 0,-0.1766 -0.23137,-0.32109 -0.51416,-0.32109 -0.28279,0 -0.82552,-0.34404 -1.20607,-0.76454 -0.38055,-0.4205 -0.92328,-0.76455 -1.206073,-0.76455 -0.787402,0 -0.610907,1.28477 0.250386,1.82266 0.420497,0.2626 0.764547,0.73404 0.764547,1.04763 0,0.35281 0.36308,0.57018 0.95236,0.57018 1.21642,0 3.32845,2.14806 3.17394,3.22809 -0.0944,0.6598 -0.38822,0.78579 -1.83265,0.78579 -1.41729,0 -1.78669,-0.15148 -2.09759,-0.86012 -0.20754,-0.47306 -0.50859,-0.86012 -0.66898,-0.86012 -0.1604,0 -0.291627,-0.23898 -0.291627,-0.53106 0,-0.29208 -0.338326,-0.93717 -0.751828,-1.43353 l -0.751834,-0.90246 -0.01271,2.96262 c -0.01159,2.70354 -0.07957,2.96263 -0.777257,2.96263 -0.420501,0 -0.76455,-0.191 -0.76455,-0.42444 0,-0.64957 -2.325421,-4.09325 -2.917472,-4.32044 -0.287651,-0.11038 -0.529458,-0.42112 -0.537351,-0.69054 -0.0079,-0.26941 -0.607415,-1.17793 -1.33227,-2.01893 l -1.317922,-1.5291 -0.0057,1.40167 c -0.0031,0.77092 -0.163778,1.45901 -0.356994,1.5291 -0.193222,0.0701 -0.557097,2.8798 -0.808622,6.24382 -0.251519,3.36401 -0.589006,6.20239 -0.749957,6.30752 -0.501702,0.32768 -0.90935,8.02776 -0.424995,8.02776 0.232932,0 0.42351,-0.44707 0.42351,-0.99348 l 1.1e-5,0 z"
     id="path3001"
     inkscape:connector-curvature="0" />
</svg>
