<?xml version="1.0" encoding="UTF-8" standalone="no"?>
<!-- Created with Inkscape (http://www.inkscape.org/) -->

<svg
   xmlns:dc="http://purl.org/dc/elements/1.1/"
   xmlns:cc="http://creativecommons.org/ns#"
   xmlns:rdf="http://www.w3.org/1999/02/22-rdf-syntax-ns#"
   xmlns:svg="http://www.w3.org/2000/svg"
   xmlns="http://www.w3.org/2000/svg"
   xmlns:sodipodi="http://sodipodi.sourceforge.net/DTD/sodipodi-0.dtd"
   xmlns:inkscape="http://www.inkscape.org/namespaces/inkscape"
   id="svg2"
   version="1.1"
   inkscape:version="0.48.4 r9939"
   width="94.032043"
   height="354.33072"
   sodipodi:docname="rin.svg">
  <metadata
     id="metadata8">
    <rdf:RDF>
      <cc:Work
         rdf:about="">
        <dc:format>image/svg+xml</dc:format>
        <dc:type
           rdf:resource="http://purl.org/dc/dcmitype/StillImage" />
        <dc:title />
      </cc:Work>
    </rdf:RDF>
  </metadata>
  <defs
     id="defs6" />
  <sodipodi:namedview
     pagecolor="#ffffff"
     bordercolor="#666666"
     borderopacity="1"
     objecttolerance="10"
     gridtolerance="10"
     guidetolerance="10"
     inkscape:pageopacity="0"
     inkscape:pageshadow="2"
     inkscape:window-width="1916"
     inkscape:window-height="1041"
     id="namedview4"
     showgrid="false"
     inkscape:zoom="1.1793442"
     inkscape:cx="2.2335385"
     inkscape:cy="236.73691"
     inkscape:window-x="0"
     inkscape:window-y="18"
     inkscape:window-maximized="0"
     inkscape:current-layer="svg2"
     fit-margin-top="0"
     fit-margin-left="0"
     fit-margin-right="0"
     fit-margin-bottom="0" />
  <path
     style="fill:#ffff00;stroke:none"
     d=""
     id="path3051"
     inkscape:connector-curvature="0" />
  <path
     style="fill:#ffff00;stroke:none"
     d=""
     id="path3071"
     inkscape:connector-curvature="0" />
  <path
     style="fill:#ffff00;stroke:none"
     d=""
     id="path3131"
     inkscape:connector-curvature="0" />
  <path
     style="fill:#ffff00;stroke:none"
     d=""
     id="path3135"
     inkscape:connector-curvature="0" />
  <path
     style="fill:#ffff00;stroke:none"
     d=""
     id="path3165"
     inkscape:connector-curvature="0" />
  <path
     style="fill:#ff0000;stroke:none"
     d="m 71.820823,4e-5 -1.826387,0.39277 c -1.95871,0.4231 -5.274108,1.96781 -7.403741,3.45639 -0.732691,0.51214 -2.41249,1.10261 -3.731328,1.31578 -5.327805,0.86118 -13.314948,6.93152 -13.314948,10.11387 0,1.67319 -1.120058,1.77073 -3.220725,0.27494 C 38.993847,13.18272 35.115523,11.88486 28.753444,11.03692 25.236513,10.56817 21.309572,9.83307 20.014281,9.40691 18.719003,8.98075 17.555162,8.7435 17.441629,8.85703 c -0.319138,0.31914 3.005091,9.83908 4.379401,12.54905 1.430284,2.82039 2.392756,3.75061 5.47916,5.30241 1.245575,0.62626 2.258435,1.26365 2.258435,1.41398 0,0.15033 -0.666926,1.51506 -1.472892,3.04398 -1.436859,2.72575 -1.453254,2.9732 -1.453254,12.11699 l 0,9.30868 2.003133,5.4988 c 1.099044,3.02079 1.983496,6.10861 1.983496,6.85386 0,0.83049 -0.696318,2.05137 -1.806748,3.16181 l -1.806749,1.80675 3.083255,0 c 3.374698,0 4.399718,0.69262 3.908075,2.57265 -0.375734,1.43682 -0.149121,1.43068 2.33699,0.0982 2.117911,-1.13513 3.075538,-0.67033 2.494098,1.19796 -0.257734,0.82815 -0.134705,0.87842 1.060482,0.33385 1.049919,-0.47839 1.547909,-0.46557 2.179881,0.0589 1.315558,1.09182 0.952399,2.32215 -1.335422,4.55614 -1.364582,1.33249 -2.415412,3.00787 -2.88687,4.59543 -0.961139,3.23651 -1.632351,4.45037 -4.045544,7.36446 -3.657871,4.41715 -3.856902,5.19065 -3.593858,13.43278 0.1292,4.04837 0.07058,7.36446 -0.117832,7.36446 -0.188404,0 -0.582244,2.08992 -0.883735,4.65434 -0.507096,4.31324 -1.247197,7.20737 -2.356628,9.19085 -0.2459,0.43962 -0.822243,1.53926 -1.276507,2.43519 -0.454264,0.89592 -4.635041,6.51636 -9.289042,12.49013 -10.409943,13.36198 -12.1009399,16.4927 -12.588322,23.31097 -0.193784,2.71097 -0.5628571,4.92928 -0.8248199,4.92928 -0.261969,0 -0.4909641,0.8197 -0.4909641,1.82639 0,1.0067 -0.2316911,2.47475 -0.5302413,3.26 -0.6424357,1.68973 -2.11483804,10.54434 -1.8067482,10.86013 0.5599851,0.57398 4.5818882,-1.21666 5.3416902,-2.37627 0.8790663,-1.34162 2.5206182,-1.68275 3.9080751,-0.80518 0.6709038,0.42436 0.5721642,1.28403 -0.6480727,6.24507 -2.6989364,10.97289 -3.0947493,19.5405 -1.2961454,28.00459 0.6854331,3.22562 1.1236968,3.89893 3.1225323,4.89001 1.683801,0.83487 1.790842,2.4739 0.68735,10.3888 -1.2299527,8.82196 -0.85347,15.98004 1.237229,23.50736 1.98479,7.14601 2.637495,8.5929 5.655908,12.66688 3.548108,4.78889 6.611454,6.39519 9.387235,4.90964 2.171944,-1.16239 2.869066,-8.69768 1.119398,-12.13663 -0.553229,-1.08736 -1.994625,-5.07909 -3.201086,-8.857 -3.699718,-11.58526 -3.538612,-18.17078 0.82482,-34.15146 2.251101,-8.24447 4.45101,-14.12013 5.282774,-14.12013 0.950544,0 2.171039,1.66875 2.906508,3.98662 0.371976,1.17231 1.599302,4.13969 2.729761,6.59856 l 2.042411,4.4776 0.03928,14.17904 c 0.02083,7.79883 0.251424,16.33317 0.490964,18.97086 0.241551,2.65989 0.216251,5.00904 -0.03928,5.28277 -0.259776,0.27827 -0.238101,0.76554 0.03928,1.09976 1.592006,1.91825 2.420546,19.20075 1.708555,35.72256 -0.587102,13.62368 -1.013023,15.30489 -6.794944,27.45471 -1.886534,3.96427 -3.411172,7.66976 -3.397472,8.2482 0.01372,0.57843 0.572045,2.74028 1.256868,4.79181 0.684818,2.05154 1.17171,3.87523 1.060483,4.06518 -0.111226,0.18995 -1.888721,0.51989 -3.947352,0.72663 -4.103951,0.41215 -4.418514,0.68589 -5.086389,4.28121 -0.216766,1.16691 -0.736217,2.62107 -1.139037,3.24036 -0.40282,0.6193 -0.763139,2.0439 -0.805181,3.16181 -0.0638,1.69708 0.212505,2.28275 1.688917,3.51531 0.972552,0.81192 2.508489,1.55434 3.417111,1.66927 l 0.01964,0 c 2.871404,0.36321 12.66961,0.31749 17.026638,-0.0786 3.654256,-0.33217 4.35574,-0.566 5.439883,-1.82639 0.716258,-0.8327 1.789881,-1.43361 2.533375,-1.43361 2.496021,0 4.615063,-0.67222 4.615063,-1.45326 0,-0.55758 0.456478,-0.38177 1.610363,0.58916 2.130046,1.79228 4.652048,2.19899 8.680248,1.41398 6.547592,-1.27602 10.48071,-4.51427 10.486994,-8.62133 0.0019,-1.65941 0.287629,-2.12098 1.885303,-3.06362 1.030318,-0.60788 2.12637,-1.76035 2.435182,-2.57265 1.596977,-4.20029 1.405368,-28.10265 -0.314217,-39.06111 -1.723418,-10.9827 -4.9592,-22.42684 -11.449284,-40.49473 -2.579226,-7.18039 -5.204975,-15.45092 -5.832655,-18.3817 -0.62768,-2.93077 -1.618783,-7.60457 -2.199521,-10.3888 -0.580673,-2.78423 -1.197607,-5.61125 -1.374699,-6.28434 -0.25527,-0.96999 0.111264,-1.58991 1.787111,-3.02434 3.129407,-2.67871 4.672181,-7.48101 6.539642,-20.30628 0.594122,-4.08028 1.201001,-7.72474 1.335423,-8.09109 0.385921,-1.05179 1.47359,-0.78233 3.476026,0.84446 1.01932,0.82804 2.211554,1.6433 2.651207,1.80675 0.792832,0.29476 5.349363,10.23874 7.26627,15.86796 0.548874,1.61192 1.174575,3.02484 1.394338,3.12253 0.219826,0.0977 0.392771,0.93204 0.392771,1.86567 0,0.93362 0.761411,6.00269 1.688917,11.27253 1.55073,8.81046 1.686717,10.56842 1.728194,21.83809 0.04085,11.02534 -0.07047,12.88038 -1.23723,18.49953 -1.548713,7.45909 -1.337534,8.24386 2.926147,10.32989 1.061148,0.51917 2.016664,0.86338 2.886869,1.06048 l 0,-65.92667 c -0.606653,-0.006 -1.345377,-0.90741 -2.278074,-2.72976 -0.787553,-1.53865 -1.989119,-3.75697 -2.670845,-4.92928 -3.270252,-5.62332 -5.045597,-13.04001 -3.122532,-13.04001 0.513745,0 1.258125,0.30136 1.64964,0.66771 0.586392,0.5486 0.634404,0.4295 0.314217,-0.66771 -0.704789,-2.41512 -0.935424,-4.26157 -0.54988,-4.26157 0.208766,0 1.031443,0.64729 1.846025,1.45326 3.029053,2.9969 4.038161,3.28221 2.729761,0.78554 -0.874843,-1.66943 -2.710122,-6.64403 -2.710122,-7.34483 0,-0.37724 0.69376,-0.83282 1.551447,-1.0212 0.857686,-0.18838 1.971806,-0.9518 2.45482,-1.68892 0.271019,-0.41362 0.520268,-0.69137 0.785543,-0.86409 l 0,-14.59146 c -0.411329,-0.52152 -0.753844,-1.7625 -1.09976,-3.67241 -0.987835,-5.45461 -4.842902,-19.04362 -6.127233,-21.60243 -0.675001,-1.34472 -1.730644,-3.97444 -2.356628,-5.83265 -0.625977,-1.85821 -1.562098,-4.23609 -2.081688,-5.28277 -1.260199,-2.53855 -4.09098,-11.16721 -5.06675,-15.4752 C 76.132483,106.33392 75.47203,100.53355 74.884444,90.27847 74.233449,78.91611 73.97456,78.25105 68.619741,74.52834 l -3.947352,-2.72976 0.353495,-2.1406 c 0.566721,-3.42899 1.164457,-3.72286 3.358194,-1.7282 1.024731,0.93161 1.237136,0.98626 0.981929,0.27494 -0.516322,-1.43886 0.549126,-1.65482 2.238796,-0.45168 0.849204,0.60468 1.651714,1.09976 1.767472,1.09976 0.11538,0 0.104854,-0.87743 -0.01961,-1.94422 -0.22146,-1.89691 -0.202538,-1.93515 1.296146,-1.59073 l 1.531808,0.3535 -1.728194,-1.59073 c -0.952511,-0.88123 -1.728194,-1.75058 -1.728194,-1.92458 0,-0.174 1.526373,-0.16109 3.397472,0.0393 1.8711,0.20024 3.919607,0.20203 4.556148,0 1.060043,-0.33643 0.959525,-0.51464 -1.355061,-2.16024 -4.425754,-3.14662 -4.363979,-4.32095 0.27494,-4.87037 2.707357,-0.32064 2.87804,-1.19886 0.235663,-1.21759 -1.673213,-0.0119 -3.697738,-2.71671 -4.457955,-5.97012 -0.363549,-1.5558 -1.100583,-3.83725 -1.64964,-5.06675 -0.549,-1.2295 -1.001567,-2.74651 -1.001567,-3.3582 0,-0.61169 -0.69753,-2.96196 -1.551447,-5.22386 -0.853853,-2.26188 -1.715342,-4.64958 -1.904941,-5.30241 -0.189535,-0.65283 -1.171746,-2.1712 -2.179881,-3.37783 -2.041405,-2.44343 -2.223368,-3.73232 -1.080121,-7.71796 0.414641,-1.44531 1.057027,-4.42018 1.413977,-6.6182 0.777625,-4.78892 1.686623,-7.5194 3.240364,-9.70145 L 71.820857,0 z m -8.169644,103.23995 c 0.291241,-0.003 0.620616,1.27498 0.82482,3.18145 0.204743,1.91177 0.585983,3.61084 0.844458,3.7706 0.258475,0.15975 0.471326,1.09238 0.471326,2.08169 0,0.98931 0.372033,3.55122 0.824819,5.69518 1.123892,5.32161 2.27688,15.08396 3.102894,26.15857 0.212599,2.84988 0.117643,3.59386 -0.471326,3.59386 -0.733948,0 -2.650138,-3.71765 -3.27964,-6.36289 -0.178224,-0.74903 -0.555882,-1.67607 -0.844459,-2.04241 -0.395913,-0.50267 -0.116637,-0.66772 1.139037,-0.66772 1.088951,0 1.669278,-0.24664 1.669278,-0.74626 0,-0.77683 -0.533289,-1.03829 -3.574219,-1.64964 -1.468079,-0.29515 -1.949215,-0.83004 -3.338557,-3.77061 -0.890617,-1.88499 -1.630002,-3.71926 -1.630002,-4.08482 -0.0019,-0.36556 -0.33608,-1.3151 -0.746265,-2.10132 -2.104953,-4.03463 -2.02573,-8.74748 0.235663,-13.57025 0.941294,-2.00743 2.284892,-4.87083 2.965423,-6.38254 0.680469,-1.5117 1.46272,-2.90707 1.747834,-3.08325 0.01898,-0.0117 0.03947,-0.0194 0.05888,-0.0196 z m -44.55991,72.11282 c 0.303207,-0.0144 0.774583,0.39896 1.394338,1.23723 0.819855,1.1089 1.05499,1.7693 0.648073,1.90494 -1.703603,0.56786 0.884508,4.92928 2.926146,4.92928 0.925011,0 1.478656,0.55869 2.297713,2.35663 0.593487,1.30276 1.064881,2.80959 1.060482,3.33855 -0.0082,0.96027 -1.025384,2.99523 -1.040844,2.08169 -0.01464,-0.86488 -2.235843,1.5054 -3.201086,3.41711 -0.517918,1.02577 -1.97099,4.42991 -3.220725,7.58049 -1.696364,4.27657 -2.495204,5.73446 -3.201087,5.73446 -1.089761,0 -1.617815,-2.27573 -1.826386,-7.93398 -0.279836,-7.59174 2.057531,-22.44688 3.534942,-22.44688 0.303621,0 0.42572,-0.31407 0.27494,-0.70699 -0.150774,-0.39293 -0.09255,-0.99503 0.117831,-1.33543 0.06278,-0.10158 0.134594,-0.15231 0.235663,-0.1571 z"
     id="path3241"
     inkscape:connector-curvature="0" />
</svg>
