<?xml version="1.0" encoding="UTF-8" standalone="no"?>
<!-- Created with Inkscape (http://www.inkscape.org/) -->

<svg
   xmlns:dc="http://purl.org/dc/elements/1.1/"
   xmlns:cc="http://creativecommons.org/ns#"
   xmlns:rdf="http://www.w3.org/1999/02/22-rdf-syntax-ns#"
   xmlns:svg="http://www.w3.org/2000/svg"
   xmlns="http://www.w3.org/2000/svg"
   xmlns:sodipodi="http://sodipodi.sourceforge.net/DTD/sodipodi-0.dtd"
   xmlns:inkscape="http://www.inkscape.org/namespaces/inkscape"
   id="svg2"
   version="1.1"
   inkscape:version="0.48.4 r9939"
   width="149.6291"
   height="563.83112"
   sodipodi:docname="rin_len.svg">
  <metadata
     id="metadata8">
    <rdf:RDF>
      <cc:Work
         rdf:about="">
        <dc:format>image/svg+xml</dc:format>
        <dc:type
           rdf:resource="http://purl.org/dc/dcmitype/StillImage" />
        <dc:title></dc:title>
      </cc:Work>
    </rdf:RDF>
  </metadata>
  <defs
     id="defs6" />
  <sodipodi:namedview
     pagecolor="#ffffff"
     bordercolor="#666666"
     borderopacity="1"
     objecttolerance="10"
     gridtolerance="10"
     guidetolerance="10"
     inkscape:pageopacity="0"
     inkscape:pageshadow="2"
     inkscape:window-width="1916"
     inkscape:window-height="1041"
     id="namedview4"
     showgrid="false"
     inkscape:zoom="1.1793442"
     inkscape:cx="174.3631"
     inkscape:cy="236.73697"
     inkscape:window-x="0"
     inkscape:window-y="18"
     inkscape:window-maximized="0"
     inkscape:current-layer="svg2"
     fit-margin-top="0"
     fit-margin-left="0"
     fit-margin-right="0"
     fit-margin-bottom="0" />
  <path
     style="fill:#ffff00;stroke:none"
     d=""
     id="path3051"
     inkscape:connector-curvature="0" />
  <path
     style="fill:#ffff00;stroke:none"
     d=""
     id="path3071"
     inkscape:connector-curvature="0" />
  <path
     style="fill:#ffff00;stroke:none"
     d=""
     id="path3131"
     inkscape:connector-curvature="0" />
  <path
     style="fill:#ffff00;stroke:none"
     d=""
     id="path3135"
     inkscape:connector-curvature="0" />
  <path
     style="fill:#ffff00;stroke:none"
     d=""
     id="path3165"
     inkscape:connector-curvature="0" />
  <path
     style="fill:#ff0000;stroke:none"
     d="m 114.28536,0 -2.90625,0.625 c -3.11681,0.6732596 -8.39246,3.13129 -11.781252,5.5 -1.1659,0.81495 -3.83889,1.75453 -5.9375,2.09375 -8.477906,1.37036 -21.1875,11.02982 -21.1875,16.09375 0,2.66248 -1.7823,2.8177 -5.125,0.4375 -5.29864,-3.77297 -11.47005,-5.83821 -21.59375,-7.1875 -5.59634,-0.74589 -11.84511,-1.91562 -13.90625,-2.59375 -2.06112,-0.67814 -3.91309,-1.05566 -4.09375,-0.875 -0.50783,0.50783 4.78187,15.65649 6.96875,19.96875 2.27595,4.48797 3.80749,5.96818 8.71875,8.4375 1.98203,0.99654 3.59375,2.01079 3.59375,2.25 0,0.23921 -1.06125,2.41085 -2.34375,4.84375 -2.28641,4.33738 -2.3125,4.73113 -2.3125,19.28125 l 0,14.8125 3.1875,8.75 c 1.74886,4.80685 3.15625,9.72036 3.15625,10.90625 0,1.32152 -1.10802,3.26426 -2.875,5.03125 l -2.875,2.875 4.90625,0 c 5.37001,0 7.00108,1.10213 6.21875,4.09375 -0.59789,2.28635 -0.23729,2.27657 3.71875,0.15625 3.37014,-1.80629 4.89397,-1.06667 3.96875,1.90625 -0.41012,1.31781 -0.21435,1.39779 1.6875,0.53125 1.67069,-0.76125 2.46312,-0.74084 3.46875,0.0937 2.09339,1.73737 1.51551,3.69514 -2.125,7.25 -2.1714,2.12032 -3.84354,4.78628 -4.59375,7.3125 -1.52942,5.15012 -2.59749,7.08168 -6.4375,11.71875 -5.82061,7.02881 -6.13732,8.25965 -5.71875,21.375 0.20559,6.44199 0.11231,11.71875 -0.1875,11.71875 -0.2998,0 -0.9265,3.32559 -1.40625,7.40625 -0.80692,6.86347 -1.98461,11.46876 -3.75,14.625 -0.39129,0.69954 -1.3084,2.44935 -2.03125,3.875 -0.72285,1.42565 -7.37554,10.3692 -14.78125,19.875 -16.5648904,21.26234 -19.2557004,26.24413 -20.0312504,37.09375 -0.30836,4.31384 -0.89565,7.84375 -1.3125,7.84375 -0.41686,0 -0.78125,1.30435 -0.78125,2.90625 0,1.60191 -0.36868,3.93796 -0.84375,5.1875 -1.02228,2.68879 -3.36524999,16.77875 -2.87499999,17.28125 0.89108,0.91335 7.29095999,-1.93602 8.49999999,-3.78125 1.39882,-2.13487 4.0109504,-2.67769 6.2187504,-1.28125 1.06758,0.67526 0.91046,2.04322 -1.03125,9.9375 -4.2947004,17.46068 -4.9245404,31.09396 -2.0625,44.5625 1.0907,5.13279 1.78809,6.20419 4.96875,7.78125 2.67936,1.3285 2.84969,3.93662 1.09375,16.53125 -1.95717,14.038 -1.35809,25.42834 1.96875,37.40625 3.15831,11.37113 4.19693,13.67351 9,20.15625 5.64595,7.62036 10.52052,10.17639 14.9375,7.8125 3.45612,-1.84966 4.56542,-13.84024 1.78125,-19.3125 -0.88033,-1.73027 -3.17396,-8.08213 -5.09375,-14.09375 -5.8872,-18.43513 -5.63084,-28.91438 1.3125,-54.34375 3.58208,-13.11906 7.0827,-22.46875 8.40625,-22.46875 1.51256,0 3.45468,2.65542 4.625,6.34375 0.59191,1.86544 2.5449,6.5873 4.34375,10.5 l 3.25,7.125 0.0625,22.5625 c 0.03314,12.40993 0.40008,25.99026 0.78125,30.1875 0.38437,4.23257 0.34411,7.97067 -0.0625,8.40625 -0.41337,0.44279 -0.37888,1.21817 0.0625,1.75 2.53329,3.05242 3.85171,30.55332 2.71875,56.84375 -0.93423,21.67877 -1.61198,24.35402 -10.8125,43.6875 -3.00196,6.30816 -5.42805,12.20456 -5.40625,13.125 0.02183,0.92043 0.91027,4.36048 2,7.625 1.08972,3.26453 1.86449,6.16649 1.6875,6.46875 -0.17699,0.30225 -3.00544,0.82727 -6.28125,1.15625 -6.53044,0.65583 -7.03099,1.09143 -8.09375,6.8125 -0.34493,1.85686 -1.17151,4.17079 -1.8125,5.15625 -0.64099,0.98546 -1.21435,3.25237 -1.28125,5.03125 -0.10152,2.70048 0.33815,3.63244 2.6875,5.59375 1.54758,1.29198 3.99165,2.47336 5.4375,2.65625 l 0.03125,0 c 4.56914,0.57795 20.1606,0.50521 27.09375,-0.125 5.81486,-0.52856 6.9311,-0.90065 8.65625,-2.90625 1.13975,-1.32504 2.84816,-2.28125 4.03125,-2.28125 3.97181,0 7.34375,-1.06967 7.34375,-2.3125 0,-0.88726 0.726374,-0.6075 2.5625,0.9375 3.38945,2.85198 7.402602,3.49916 13.812502,2.25 10.4189,-2.03047 16.6775,-7.18336 16.6875,-13.71875 0.003,-2.64054 0.45769,-3.37502 3,-4.875 1.6395,-0.9673 3.3836,-2.80117 3.875,-4.09375 2.5412,-6.68374 2.2363,-44.71853 -0.5,-62.15625 -2.7424,-17.47629 -7.89136,-35.68685 -18.21875,-64.4375 -4.10421,-11.42585 -8.28245,-24.58639 -9.28125,-29.25 -0.9988,-4.66361 -2.5759,-12.10083 -3.500002,-16.53125 -0.924,-4.43043 -1.9057,-8.92894 -2.1875,-10 -0.4062,-1.5435 0.17705,-2.52996 2.843752,-4.8125 4.97969,-4.26251 7.43464,-11.9042 10.40625,-32.3125 0.9454,-6.49278 1.9111,-12.29205 2.125,-12.875 0.6141,-1.67367 2.34486,-1.24489 5.53125,1.34375 1.622,1.31763 3.51915,2.61491 4.21875,2.875 1.2616,0.46904 8.51221,16.29247 11.5625,25.25 0.8734,2.56498 1.86905,4.8133 2.21875,4.96875 0.3498,0.15546 0.625,1.48311 0.625,2.96875 0,1.48563 1.2116,9.55183 2.6875,17.9375 2.46761,14.0197 2.684,16.81706 2.75,34.75 0.065,17.54414 -0.11214,20.49599 -1.96875,29.4375 -2.4644,11.86932 -2.12836,13.1181 4.65625,16.4375 1.68856,0.82614 3.20903,1.37387 4.59375,1.6875 l 0,-104.90625 c -0.96534,-0.009 -2.14084,-1.44393 -3.625,-4.34375 -1.2532,-2.44839 -3.1652,-5.9783 -4.25,-7.84375 -5.20381,-8.94815 -8.02884,-20.75 -4.96875,-20.75 0.8175,0 2.002,0.47954 2.625,1.0625 0.9331,0.87296 1.0095,0.68344 0.5,-1.0625 -1.1215,-3.84307 -1.4885,-6.78125 -0.875,-6.78125 0.3322,0 1.64129,1.03 2.9375,2.3125 4.82,4.76885 6.42575,5.22284 4.34375,1.25 -1.3921,-2.65649 -4.3125,-10.57236 -4.3125,-11.6875 0,-0.60029 1.10395,-1.32524 2.46875,-1.625 1.3648,-0.29976 3.13765,-1.51455 3.90625,-2.6875 0.43126,-0.65818 0.82788,-1.10015 1.25,-1.375 l 0,-23.21875 c -0.65453,-0.82988 -1.19956,-2.80459 -1.75,-5.84375 -1.5719,-8.67968 -7.7063,-30.30329 -9.75,-34.375 -1.0741,-2.1398 -2.7539,-6.32436 -3.75,-9.28125 -0.99609,-2.95689 -2.4857,-6.7407 -3.3125,-8.40625 -2.0053,-4.03948 -6.5098,-17.76989 -8.0625,-24.625 -1.8578,-8.20167 -2.90875,-17.43154 -3.84375,-33.75 -1.0359,-18.08044 -1.44786,-19.13871 -9.96875,-25.0625 l -6.28125,-4.34375 0.5625,-3.40625 c 0.9018,-5.45639 1.85295,-5.92402 5.34375,-2.75 1.63061,1.48242 1.9686,1.56939 1.5625,0.4375 -0.8216,-2.2896 0.8738,-2.63324 3.5625,-0.71875 1.3513,0.96221 2.6283,1.75 2.8125,1.75 0.1836,0 0.16685,-1.39621 -0.0312,-3.09375 -0.3524,-3.01847 -0.32229,-3.07931 2.0625,-2.53125 l 2.4375,0.5625 -2.75,-2.53125 c -1.51569,-1.40227 -2.75,-2.78562 -2.75,-3.0625 0,-0.27689 2.42885,-0.25634 5.40625,0.0625 2.9774,0.31863 6.2371,0.32148 7.25,0 1.6868,-0.53535 1.52685,-0.81893 -2.15625,-3.4375 -7.04251,-5.00707 -6.94421,-6.87574 0.4375,-7.75 4.3081,-0.51022 4.5797,-1.9077 0.375,-1.9375 -2.66251,-0.01887 -5.88405,-4.32299 -7.09375,-9.5 -0.5785,-2.47567 -1.75131,-6.10605 -2.625,-8.0625 -0.8736,-1.95645 -1.59375,-4.3704 -1.59375,-5.34375 0,-0.97336 -1.10995,-4.71325 -2.46875,-8.3125 -1.3587,-3.59924 -2.72955,-7.39868 -3.03125,-8.4375 -0.3016,-1.03882 -1.86455,-3.45494 -3.46875,-5.375 -3.2484,-3.88812 -3.53795,-5.93908 -1.71875,-12.28125 0.6598,-2.29986 1.682,-7.03364 2.25,-10.53125 1.2374,-7.6204 2.68385,-11.9653 5.15625,-15.4375 l 1.84375,-2.5625 z m -13,164.28125 c 0.46344,-0.005 0.98756,2.02882 1.3125,5.0625 0.3258,3.04212 0.93245,5.74578 1.34375,6 0.4113,0.25421 0.75,1.73825 0.75,3.3125 0,1.57425 0.592,5.6509 1.3125,9.0625 1.7884,8.46804 3.6231,24.00245 4.9375,41.625 0.3383,4.53489 0.1872,5.71875 -0.75,5.71875 -1.1679,0 -4.21705,-5.91574 -5.21875,-10.125 -0.2836,-1.19189 -0.88455,-2.66705 -1.34375,-3.25 -0.63,-0.79987 -0.1856,-1.0625 1.8125,-1.0625 1.7328,0 2.65625,-0.39247 2.65625,-1.1875 0,-1.23613 -0.8486,-1.65218 -5.6875,-2.625 -2.33609,-0.46966 -3.101702,-1.32081 -5.312502,-6 -1.4172,-2.99951 -2.59375,-5.9183 -2.59375,-6.5 -0.003,-0.58171 -0.53479,-2.09267 -1.1875,-3.34375 -3.34952,-6.42012 -3.223456,-13.91948 0.375,-21.59375 1.49784,-3.19433 3.63585,-7.75073 4.71875,-10.15625 1.0828,-2.40551 2.327562,-4.62589 2.781252,-4.90625 0.0302,-0.0186 0.0628,-0.0309 0.0937,-0.0312 z m -70.906252,114.75 c 0.48248,-0.0229 1.23256,0.63486 2.21875,1.96875 1.3046,1.76455 1.67876,2.81541 1.03125,3.03125 -2.71087,0.90362 1.40748,7.84375 4.65625,7.84375 1.47193,0 2.35292,0.88902 3.65625,3.75 0.94439,2.07304 1.6945,4.47078 1.6875,5.3125 -0.01297,1.52804 -1.63165,4.76617 -1.65625,3.3125 -0.02329,-1.37625 -3.5578,2.39548 -5.09375,5.4375 -0.82414,1.63226 -3.13635,7.04912 -5.125,12.0625 -2.69935,6.80513 -3.97051,9.125 -5.09375,9.125 -1.73409,0 -2.57436,-3.62127 -2.90625,-12.625 -0.44529,-12.0804 3.27406,-35.71875 5.625,-35.71875 0.48314,0 0.67743,-0.49976 0.4375,-1.125 -0.23992,-0.62525 -0.14727,-1.58334 0.1875,-2.125 0.0999,-0.16165 0.214173,-0.24237 0.375,-0.25 z"
     id="path3241"
     inkscape:connector-curvature="0" />
</svg>
